<?xml version="1.0" encoding="UTF-8"?>
<!DOCTYPE svg PUBLIC "-//W3C//DTD SVG 1.1//EN" "http://www.w3.org/Graphics/SVG/1.1/DTD/svg11.dtd">
<svg xmlns="http://www.w3.org/2000/svg" version="1.1" width="104px" height="104px" style="shape-rendering:geometricPrecision; text-rendering:geometricPrecision; image-rendering:optimizeQuality; fill-rule:evenodd; clip-rule:evenodd" xmlns:xlink="http://www.w3.org/1999/xlink">
<g><path style="opacity:0.834" fill="#69b4f5" d="M 87.5,-0.5 C 87.8333,-0.5 88.1667,-0.5 88.5,-0.5C 88.7828,0.28913 89.2828,0.955796 90,1.5C 89.6363,8.37794 90.9696,14.7113 94,20.5C 94.49,21.7932 94.6567,23.1266 94.5,24.5C 90.5,24.5 86.5,24.5 82.5,24.5C 81.9066,21.4041 82.9066,19.0708 85.5,17.5C 86.206,11.4481 86.8727,5.44812 87.5,-0.5 Z"/></g>
<g><path style="opacity:0.781" fill="#2f302f" d="M 63.5,103.5 C 60.8333,103.5 58.1667,103.5 55.5,103.5C 52.9872,101.467 51.4872,98.8007 51,95.5C 50.995,85.3858 49.995,75.3858 48,65.5C 47.586,65.0426 47.086,64.7093 46.5,64.5C 44.5577,68.6007 43.3911,72.934 43,77.5C 42.6667,84.1667 42.3333,90.8333 42,97.5C 41.074,99.6917 39.9073,101.692 38.5,103.5C 35.5,103.5 32.5,103.5 29.5,103.5C 24.4278,99.9207 20.5945,95.254 18,89.5C 15.1781,80.5456 12.5114,71.5456 10,62.5C 6.44522,54.7328 2.94522,47.0661 -0.5,39.5C -0.5,36.1667 -0.5,32.8333 -0.5,29.5C 4.88389,11.9522 16.8839,3.4522 35.5,4C 39.2925,5.63679 42.9591,7.47012 46.5,9.5C 58.2085,1.53233 69.8751,1.699 81.5,10C 82.3802,11.3561 82.7135,12.8561 82.5,14.5C 76.2909,11.0719 69.6242,8.73852 62.5,7.5C 57.2689,9.36684 52.1022,11.3668 47,13.5C 42.422,12.6282 38.2553,10.7949 34.5,8C 18.6972,7.79659 8.53055,15.2966 4,30.5C 3.39012,34.2364 3.72345,37.9031 5,41.5C 12.3017,55.4011 17.635,70.0678 21,85.5C 22.6999,91.3995 26.1999,95.8995 31.5,99C 33.4406,99.7429 35.2739,99.5762 37,98.5C 37.9698,87.5001 39.3031,76.5001 41,65.5C 42.077,60.8848 44.9103,59.3848 49.5,61C 50.428,61.3879 51.0946,62.0546 51.5,63C 52.569,66.4429 53.4024,69.9429 54,73.5C 54.0979,81.5767 54.7645,89.5767 56,97.5C 57.4659,99.3249 59.2992,99.8249 61.5,99C 65.6365,97.3633 68.6365,94.53 70.5,90.5C 72.3304,88.9731 73.3304,89.4731 73.5,92C 71.7569,97.2414 68.4236,101.075 63.5,103.5 Z"/></g>
<g><path style="opacity:0.81" fill="#dbdce0" d="M 18.5,19.5 C 27.0952,17.611 31.2619,20.9444 31,29.5C 27.8268,35.77 23.1601,37.1033 17,33.5C 13.3988,28.3529 13.8988,23.6862 18.5,19.5 Z"/></g>
<g><path style="opacity:1" fill="#fdfdfd" d="M 21.5,22.5 C 27.2925,23.4215 28.6258,26.2548 25.5,31C 20.5023,32.3297 18.3357,30.4964 19,25.5C 19.6979,24.3094 20.5313,23.3094 21.5,22.5 Z"/></g>
<g><path style="opacity:0.88" fill="#303131" d="M 82.5,24.5 C 86.5,24.5 90.5,24.5 94.5,24.5C 95.8221,24.33 96.9887,24.6634 98,25.5C 98.4999,44.4971 98.6666,63.4971 98.5,82.5C 100.292,82.366 101.958,82.6993 103.5,83.5C 103.5,84.1667 103.5,84.8333 103.5,85.5C 100.272,86.4137 96.9387,86.7471 93.5,86.5C 90.1667,86.5 86.8333,86.5 83.5,86.5C 80.1667,86.5 76.8333,86.5 73.5,86.5C 73.1667,83.5 74.5,82.1667 77.5,82.5C 77.3334,63.4971 77.5001,44.4971 78,25.5C 79.3561,24.6198 80.8561,24.2865 82.5,24.5 Z"/></g>
<g><path style="opacity:1" fill="#636364" d="M 95.5,28.5 C 90.8333,28.5 86.1667,28.5 81.5,28.5C 81.5,46.8333 81.5,65.1667 81.5,83.5C 80.5031,65.0075 80.1698,46.3408 80.5,27.5C 85.6946,27.1795 90.6946,27.5128 95.5,28.5 Z"/></g>
<g><path style="opacity:1" fill="#d8dae0" d="M 95.5,28.5 C 95.5,29.8333 95.5,31.1667 95.5,32.5C 87.5,33.1667 87.5,33.8333 95.5,34.5C 95.5,36.1667 95.5,37.8333 95.5,39.5C 90.1667,40.5 90.1667,41.5 95.5,42.5C 95.5,44.1667 95.5,45.8333 95.5,47.5C 87.5,48.1667 87.5,48.8333 95.5,49.5C 95.5,51.1667 95.5,52.8333 95.5,54.5C 90.1667,55.5 90.1667,56.5 95.5,57.5C 95.5,59.1667 95.5,60.8333 95.5,62.5C 87.5,63.1667 87.5,63.8333 95.5,64.5C 95.5,66.1667 95.5,67.8333 95.5,69.5C 90.1667,70.5 90.1667,71.5 95.5,72.5C 95.5,74.1667 95.5,75.8333 95.5,77.5C 87.5,78.1667 87.5,78.8333 95.5,79.5C 95.5,80.8333 95.5,82.1667 95.5,83.5C 90.8333,83.5 86.1667,83.5 81.5,83.5C 81.5,65.1667 81.5,46.8333 81.5,28.5C 86.1667,28.5 90.8333,28.5 95.5,28.5 Z"/></g>
<g><path style="opacity:1" fill="#67afed" d="M 95.5,32.5 C 95.5,33.1667 95.5,33.8333 95.5,34.5C 87.5,33.8333 87.5,33.1667 95.5,32.5 Z"/></g>
<g><path style="opacity:1" fill="#74b1e7" d="M 95.5,39.5 C 95.5,40.5 95.5,41.5 95.5,42.5C 90.1667,41.5 90.1667,40.5 95.5,39.5 Z"/></g>
<g><path style="opacity:1" fill="#67afed" d="M 95.5,47.5 C 95.5,48.1667 95.5,48.8333 95.5,49.5C 87.5,48.8333 87.5,48.1667 95.5,47.5 Z"/></g>
<g><path style="opacity:1" fill="#77b2e7" d="M 95.5,54.5 C 95.5,55.5 95.5,56.5 95.5,57.5C 90.1667,56.5 90.1667,55.5 95.5,54.5 Z"/></g>
<g><path style="opacity:1" fill="#67afed" d="M 95.5,62.5 C 95.5,63.1667 95.5,63.8333 95.5,64.5C 87.5,63.8333 87.5,63.1667 95.5,62.5 Z"/></g>
<g><path style="opacity:1" fill="#75b1e7" d="M 95.5,69.5 C 95.5,70.5 95.5,71.5 95.5,72.5C 90.1667,71.5 90.1667,70.5 95.5,69.5 Z"/></g>
<g><path style="opacity:1" fill="#67afed" d="M 95.5,77.5 C 95.5,78.1667 95.5,78.8333 95.5,79.5C 87.5,78.8333 87.5,78.1667 95.5,77.5 Z"/></g>
<g><path style="opacity:0.894" fill="#69b4f5" d="M 83.5,86.5 C 86.8333,86.5 90.1667,86.5 93.5,86.5C 93.5,90.5 93.5,94.5 93.5,98.5C 96.3456,98.0301 98.6789,98.8634 100.5,101C 100.167,101.333 99.8333,101.667 99.5,102C 92.1742,102.5 84.8409,102.666 77.5,102.5C 77.7593,98.9319 79.7593,97.5985 83.5,98.5C 83.5,94.5 83.5,90.5 83.5,86.5 Z"/></g>
</svg>
