<?xml version="1.0" encoding="UTF-8"?>
<!DOCTYPE svg PUBLIC "-//W3C//DTD SVG 1.1//EN" "http://www.w3.org/Graphics/SVG/1.1/DTD/svg11.dtd">
<svg xmlns="http://www.w3.org/2000/svg" version="1.1" width="103px" height="104px" style="shape-rendering:geometricPrecision; text-rendering:geometricPrecision; image-rendering:optimizeQuality; fill-rule:evenodd; clip-rule:evenodd" xmlns:xlink="http://www.w3.org/1999/xlink">
<g><path style="opacity:0.777" fill="#2f302f" d="M 29.5,-0.5 C 32.5,-0.5 35.5,-0.5 38.5,-0.5C 42.8992,1.53573 47.2325,3.86906 51.5,6.5C 55.7675,3.86906 60.1008,1.53573 64.5,-0.5C 67.1667,-0.5 69.8333,-0.5 72.5,-0.5C 87.1974,2.18382 97.1974,10.5172 102.5,24.5C 102.5,29.5 102.5,34.5 102.5,39.5C 99.314,46.2002 95.814,52.8668 92,59.5C 88.6927,68.7272 85.6927,78.0605 83,87.5C 80.3468,94.9788 75.5135,100.312 68.5,103.5C 66.1667,103.5 63.8333,103.5 61.5,103.5C 59.3041,102.146 57.8041,100.146 57,97.5C 56.7235,89.4641 56.0568,81.4641 55,73.5C 54.5133,70.2016 53.3466,67.2016 51.5,64.5C 50.0295,65.3805 49.1962,66.7139 49,68.5C 47.0229,78.0521 46.0229,87.7188 46,97.5C 44.668,99.66 43.168,101.66 41.5,103.5C 38.8333,103.5 36.1667,103.5 33.5,103.5C 22.6087,96.3767 16.942,86.3767 16.5,73.5C 17.868,72.4063 19.0347,72.7397 20,74.5C 21.6015,83.2042 25.4348,90.7042 31.5,97C 35.8167,100.831 39.3167,100.331 42,95.5C 41.7993,84.6284 43.1327,73.9617 46,63.5C 48.1672,60.7132 51.0006,59.8799 54.5,61C 55.428,61.3879 56.0946,62.0546 56.5,63C 59.7465,73.9207 61.2465,85.0873 61,96.5C 63.332,99.7909 66.1653,100.291 69.5,98C 73.3881,95.7785 76.2214,92.6118 78,88.5C 81.9892,71.8613 88.3225,56.1946 97,41.5C 100.81,22.9623 93.6434,10.7956 75.5,5C 72.2325,3.78733 68.8992,3.454 65.5,4C 60.9325,6.45138 56.2659,8.61804 51.5,10.5C 45.9776,7.90831 40.3109,5.57498 34.5,3.5C 16.3426,5.49129 5.84262,15.4913 3,33.5C 1.85453,34.6843 0.687867,34.6843 -0.5,33.5C -0.5,32.1667 -0.5,30.8333 -0.5,29.5C 3.11222,13.2211 13.1122,3.22105 29.5,-0.5 Z"/></g>
<g><path style="opacity:0.754" fill="#dadcdf" d="M 71.5,10.5 C 87.9118,13.0514 94.7451,22.3847 92,38.5C 91.2825,39.4506 90.4491,39.6172 89.5,39C 90.9252,24.9155 84.5918,16.7488 70.5,14.5C 70.4326,13.0413 70.7659,11.7079 71.5,10.5 Z"/></g>
<g><path style="opacity:0.77" fill="#69b4f5" d="M -0.5,42.5 C -0.5,42.1667 -0.5,41.8333 -0.5,41.5C 0.482236,40.8592 1.48224,40.1925 2.5,39.5C 4.80912,40.6508 6.97579,41.9841 9,43.5C 11.1364,41.5408 13.6364,40.2074 16.5,39.5C 19.3636,40.2074 21.8636,41.5408 24,43.5C 26.1364,41.5408 28.6364,40.2074 31.5,39.5C 34.5273,40.361 37.194,41.861 39.5,44C 40.3366,45.0113 40.67,46.1779 40.5,47.5C 36.6496,47.8221 33.483,46.4887 31,43.5C 26.3333,48.8333 21.6667,48.8333 17,43.5C 13.9502,47.1303 10.1169,48.297 5.5,47C 3.90525,44.8981 1.90525,43.3981 -0.5,42.5 Z"/></g>
<g><path style="opacity:0.771" fill="#69b4f5" d="M -0.5,52.5 C -0.5,52.1667 -0.5,51.8333 -0.5,51.5C 0.458367,51.0472 1.2917,50.3805 2,49.5C 4.5808,50.4172 6.91413,51.7505 9,53.5C 11.133,51.5464 13.633,50.213 16.5,49.5C 19.367,50.213 21.867,51.5464 24,53.5C 26.133,51.5464 28.633,50.213 31.5,49.5C 34.5307,50.3665 37.1973,51.8665 39.5,54C 40.3366,55.0113 40.67,56.1779 40.5,57.5C 38.8008,57.6602 37.1341,57.4935 35.5,57C 34.541,55.5362 33.2077,54.7028 31.5,54.5C 29.2937,56.1994 26.7937,57.1994 24,57.5C 21.2616,57.4243 18.9283,56.4243 17,54.5C 13.5955,57.1786 9.7622,58.0119 5.5,57C 3.64908,55.2476 1.64908,53.7476 -0.5,52.5 Z"/></g>
<g><path style="opacity:0.763" fill="#69b4f5" d="M -0.5,62.5 C -0.5,62.1667 -0.5,61.8333 -0.5,61.5C 3.49156,59.67 6.65823,60.67 9,64.5C 14.0756,59.244 19.0756,59.244 24,64.5C 29.918,58.9599 35.418,59.4599 40.5,66C 40.3865,67.2798 39.7199,68.1131 38.5,68.5C 36.0038,67.4196 33.6705,66.0862 31.5,64.5C 29.2224,66.2225 26.7224,67.5559 24,68.5C 21.4091,67.5665 19.0757,66.2331 17,64.5C 14.7548,66.5875 12.0881,67.9208 9,68.5C 5.69262,66.6866 2.52595,64.6866 -0.5,62.5 Z"/></g>
</svg>
