<?xml version="1.0" encoding="UTF-8"?>
<!DOCTYPE svg PUBLIC "-//W3C//DTD SVG 1.1//EN" "http://www.w3.org/Graphics/SVG/1.1/DTD/svg11.dtd">
<svg xmlns="http://www.w3.org/2000/svg" version="1.1" width="105px" height="103px" style="shape-rendering:geometricPrecision; text-rendering:geometricPrecision; image-rendering:optimizeQuality; fill-rule:evenodd; clip-rule:evenodd" xmlns:xlink="http://www.w3.org/1999/xlink">
<g><path style="opacity:0.965" fill="#d9dade" d="M 4.5,-0.5 C 36.1667,-0.5 67.8333,-0.5 99.5,-0.5C 101.142,0.802988 102.809,2.13632 104.5,3.5C 104.5,12.1667 104.5,20.8333 104.5,29.5C 101.805,33.0106 98.1381,34.3439 93.5,33.5C 93.299,27.2795 91.799,21.2795 89,15.5C 78.6731,5.86938 68.6731,6.20271 59,16.5C 56.579,20.8506 55.4124,25.5172 55.5,30.5C 52.8333,30.5 50.1667,30.5 47.5,30.5C 48.3985,17.2315 42.2319,9.89815 29,8.5C 15.0943,10.9423 8.92762,19.2757 10.5,33.5C 5.9494,34.3417 2.28273,33.0083 -0.5,29.5C -0.5,21.1667 -0.5,12.8333 -0.5,4.5C 0.833333,2.5 2.5,0.833333 4.5,-0.5 Z"/></g>
<g><path style="opacity:0.925" fill="#393939" d="M 47.5,30.5 C 46.5,30.5 45.5,30.5 44.5,30.5C 45.492,18.809 40.1586,12.4756 28.5,11.5C 16.4481,14.0658 11.4481,21.5658 13.5,34C 13.5175,37.7501 13.8508,41.4168 14.5,45C 24.1667,45.6667 33.8333,45.6667 43.5,45C 44.4601,41.27 44.7935,37.4367 44.5,33.5C 45.8333,33.5 47.1667,33.5 48.5,33.5C 48.6655,37.5138 48.4988,41.5138 48,45.5C 47.6258,46.4162 47.1258,47.2496 46.5,48C 40.772,49.123 34.9387,49.623 29,49.5C 14.1119,53.7656 7.94527,48.4323 10.5,33.5C 8.92762,19.2757 15.0943,10.9423 29,8.5C 42.2319,9.89815 48.3985,17.2315 47.5,30.5 Z"/></g>
<g><path style="opacity:0.923" fill="#383838" d="M 93.5,33.5 C 93.6657,37.8461 93.499,42.1794 93,46.5C 92.5,47 92,47.5 91.5,48C 85.772,49.123 79.9387,49.623 74,49.5C 59.1119,53.7656 52.9453,48.4323 55.5,33.5C 56.5,33.5 57.5,33.5 58.5,33.5C 58.2065,37.4367 58.5399,41.27 59.5,45C 69.4944,45.4998 79.4944,45.6665 89.5,45.5C 89.6664,37.4931 89.4997,29.4931 89,21.5C 83.4424,11.9811 75.6091,9.48111 65.5,14C 60.155,18.1963 57.8217,23.6963 58.5,30.5C 57.5,30.5 56.5,30.5 55.5,30.5C 55.4124,25.5172 56.579,20.8506 59,16.5C 68.6731,6.20271 78.6731,5.86938 89,15.5C 91.799,21.2795 93.299,27.2795 93.5,33.5 Z"/></g>
<g><path style="opacity:1" fill="#fafbfb" d="M 44.5,30.5 C 41.8333,30.5 39.1667,30.5 36.5,30.5C 37.5127,24.8713 35.1794,22.5379 29.5,23.5C 23.1667,22.5 20.5,25.1667 21.5,31.5C 21.5899,33.9637 22.2565,36.1303 23.5,38C 27.5,38.6667 31.5,38.6667 35.5,38C 36.3802,36.6439 36.7135,35.1439 36.5,33.5C 39.1667,33.5 41.8333,33.5 44.5,33.5C 44.7935,37.4367 44.4601,41.27 43.5,45C 33.8333,45.6667 24.1667,45.6667 14.5,45C 13.8508,41.4168 13.5175,37.7501 13.5,34C 11.4481,21.5658 16.4481,14.0658 28.5,11.5C 40.1586,12.4756 45.492,18.809 44.5,30.5 Z"/></g>
<g><path style="opacity:1" fill="#fafbfb" d="M 58.5,33.5 C 61.1667,33.5 63.8333,33.5 66.5,33.5C 66.2965,35.3904 66.9632,36.8904 68.5,38C 72.7548,38.7961 76.9215,38.6295 81,37.5C 81.7991,32.9132 81.6324,28.4132 80.5,24C 76.5,23.3333 72.5,23.3333 68.5,24C 67.5769,26.0408 67.2436,28.2075 67.5,30.5C 64.5,30.5 61.5,30.5 58.5,30.5C 57.8217,23.6963 60.155,18.1963 65.5,14C 75.6091,9.48111 83.4424,11.9811 89,21.5C 89.4997,29.4931 89.6664,37.4931 89.5,45.5C 79.4944,45.6665 69.4944,45.4998 59.5,45C 58.5399,41.27 58.2065,37.4367 58.5,33.5 Z"/></g>
<g><path style="opacity:1" fill="#6fb6f4" d="M 44.5,30.5 C 45.5,30.5 46.5,30.5 47.5,30.5C 50.1667,30.5 52.8333,30.5 55.5,30.5C 56.5,30.5 57.5,30.5 58.5,30.5C 61.5,30.5 64.5,30.5 67.5,30.5C 67.2436,28.2075 67.5769,26.0408 68.5,24C 72.5,23.3333 76.5,23.3333 80.5,24C 81.6324,28.4132 81.7991,32.9132 81,37.5C 76.9215,38.6295 72.7548,38.7961 68.5,38C 66.9632,36.8904 66.2965,35.3904 66.5,33.5C 63.8333,33.5 61.1667,33.5 58.5,33.5C 57.5,33.5 56.5,33.5 55.5,33.5C 53.1667,33.5 50.8333,33.5 48.5,33.5C 47.1667,33.5 45.8333,33.5 44.5,33.5C 41.8333,33.5 39.1667,33.5 36.5,33.5C 36.7135,35.1439 36.3802,36.6439 35.5,38C 31.5,38.6667 27.5,38.6667 23.5,38C 22.2565,36.1303 21.5899,33.9637 21.5,31.5C 20.5,25.1667 23.1667,22.5 29.5,23.5C 35.1794,22.5379 37.5127,24.8713 36.5,30.5C 39.1667,30.5 41.8333,30.5 44.5,30.5 Z"/></g>
<g><path style="opacity:0.951" fill="#dadbde" d="M 104.5,57.5 C 104.5,65.8333 104.5,74.1667 104.5,82.5C 101.751,85.8739 98.0845,87.5406 93.5,87.5C 94.6655,77.6728 91.3322,69.8395 83.5,64C 66.1608,58.8445 56.8274,65.3445 55.5,83.5C 53.1667,83.5 50.8333,83.5 48.5,83.5C 48.7373,82.209 48.404,81.209 47.5,80.5C 46.322,67.0711 38.9886,60.9045 25.5,62C 13.7328,66.3505 8.73278,74.8505 10.5,87.5C 5.91546,87.5406 2.24879,85.8739 -0.5,82.5C -0.5,74.1667 -0.5,65.8333 -0.5,57.5C 0.745833,55.0985 2.74583,53.5985 5.5,53C 36.5,52.3333 67.5,52.3333 98.5,53C 101.254,53.5985 103.254,55.0985 104.5,57.5 Z"/></g>
<g><path style="opacity:0.944" fill="#3c3d3d" d="M 47.5,80.5 C 47.719,81.675 47.3857,82.675 46.5,83.5C 45.8243,82.3984 45.1577,81.3984 44.5,80.5C 43.1442,69.3161 36.8109,64.1494 25.5,65C 16.0459,69.2344 12.0459,76.5677 13.5,87C 13.5175,90.7501 13.8508,94.4168 14.5,98C 24.4944,98.4998 34.4944,98.6665 44.5,98.5C 44.5,94.5 44.5,90.5 44.5,86.5C 46.099,86.2322 47.4324,86.5655 48.5,87.5C 48.6655,91.5138 48.4988,95.5138 48,99.5C 46.955,100.373 46.1217,101.373 45.5,102.5C 34.8333,102.5 24.1667,102.5 13.5,102.5C 12.5313,101.691 11.6979,100.691 11,99.5C 10.5012,95.5138 10.3345,91.5138 10.5,87.5C 8.73278,74.8505 13.7328,66.3505 25.5,62C 38.9886,60.9045 46.322,67.0711 47.5,80.5 Z"/></g>
<g><path style="opacity:0.943" fill="#3e3e3e" d="M 93.5,87.5 C 93.6655,91.5138 93.4988,95.5138 93,99.5C 91.955,100.373 91.1217,101.373 90.5,102.5C 79.8333,102.5 69.1667,102.5 58.5,102.5C 57.5313,101.691 56.6979,100.691 56,99.5C 55.5012,95.5138 55.3345,91.5138 55.5,87.5C 56.209,86.596 57.209,86.2627 58.5,86.5C 58.2065,90.4367 58.5399,94.27 59.5,98C 69.4944,98.4998 79.4944,98.6665 89.5,98.5C 89.9099,89.7502 89.4099,81.0836 88,72.5C 76.5008,60.8059 66.8341,62.1393 59,76.5C 58.5034,78.8098 58.3367,81.1432 58.5,83.5C 57.5,83.5 56.5,83.5 55.5,83.5C 56.8274,65.3445 66.1608,58.8445 83.5,64C 91.3322,69.8395 94.6655,77.6728 93.5,87.5 Z"/></g>
<g><path style="opacity:1" fill="#fafbfb" d="M 44.5,80.5 C 44.5,81.5 44.5,82.5 44.5,83.5C 41.8333,83.5 39.1667,83.5 36.5,83.5C 37.0681,78.0523 34.5681,76.0523 29,77.5C 22.7552,75.9127 20.2552,78.2461 21.5,84.5C 21.5323,86.7588 21.8656,88.9255 22.5,91C 26.8333,91.6667 31.1667,91.6667 35.5,91C 36.3802,89.6439 36.7135,88.1439 36.5,86.5C 39.1667,86.5 41.8333,86.5 44.5,86.5C 44.5,90.5 44.5,94.5 44.5,98.5C 34.4944,98.6665 24.4944,98.4998 14.5,98C 13.8508,94.4168 13.5175,90.7501 13.5,87C 12.0459,76.5677 16.0459,69.2344 25.5,65C 36.8109,64.1494 43.1442,69.3161 44.5,80.5 Z"/></g>
<g><path style="opacity:1" fill="#fbfbfb" d="M 58.5,86.5 C 61.5,86.5 64.5,86.5 67.5,86.5C 67.2865,88.1439 67.6198,89.6439 68.5,91C 72.5,91.6667 76.5,91.6667 80.5,91C 81.6324,86.5868 81.7991,82.0868 81,77.5C 76.9215,76.3705 72.7548,76.2039 68.5,77C 66.771,78.7889 66.1043,80.9556 66.5,83.5C 63.8333,83.5 61.1667,83.5 58.5,83.5C 58.3367,81.1432 58.5034,78.8098 59,76.5C 66.8341,62.1393 76.5008,60.8059 88,72.5C 89.4099,81.0836 89.9099,89.7502 89.5,98.5C 79.4944,98.6665 69.4944,98.4998 59.5,98C 58.5399,94.27 58.2065,90.4367 58.5,86.5 Z"/></g>
<g><path style="opacity:0.988" fill="#6eb5f3" d="M 58.5,86.5 C 57.209,86.2627 56.209,86.596 55.5,87.5C 53.1667,87.5 50.8333,87.5 48.5,87.5C 47.4324,86.5655 46.099,86.2322 44.5,86.5C 41.8333,86.5 39.1667,86.5 36.5,86.5C 36.7135,88.1439 36.3802,89.6439 35.5,91C 31.1667,91.6667 26.8333,91.6667 22.5,91C 21.8656,88.9255 21.5323,86.7588 21.5,84.5C 20.2552,78.2461 22.7552,75.9127 29,77.5C 34.5681,76.0523 37.0681,78.0523 36.5,83.5C 39.1667,83.5 41.8333,83.5 44.5,83.5C 44.5,82.5 44.5,81.5 44.5,80.5C 45.1577,81.3984 45.8243,82.3984 46.5,83.5C 47.3857,82.675 47.719,81.675 47.5,80.5C 48.404,81.209 48.7373,82.209 48.5,83.5C 50.8333,83.5 53.1667,83.5 55.5,83.5C 56.5,83.5 57.5,83.5 58.5,83.5C 61.1667,83.5 63.8333,83.5 66.5,83.5C 66.1043,80.9556 66.771,78.7889 68.5,77C 72.7548,76.2039 76.9215,76.3705 81,77.5C 81.7991,82.0868 81.6324,86.5868 80.5,91C 76.5,91.6667 72.5,91.6667 68.5,91C 67.6198,89.6439 67.2865,88.1439 67.5,86.5C 64.5,86.5 61.5,86.5 58.5,86.5 Z"/></g>
</svg>
