<?xml version="1.0" encoding="UTF-8"?>
<!DOCTYPE svg PUBLIC "-//W3C//DTD SVG 1.1//EN" "http://www.w3.org/Graphics/SVG/1.1/DTD/svg11.dtd">
<svg xmlns="http://www.w3.org/2000/svg" version="1.1" width="99px" height="105px" style="shape-rendering:geometricPrecision; text-rendering:geometricPrecision; image-rendering:optimizeQuality; fill-rule:evenodd; clip-rule:evenodd" xmlns:xlink="http://www.w3.org/1999/xlink">
<g><path style="opacity:0.841" fill="#343434" d="M 28.5,-0.5 C 31.1667,-0.5 33.8333,-0.5 36.5,-0.5C 40.8147,1.41135 44.9814,3.74468 49,6.5C 53.0186,3.74468 57.1853,1.41135 61.5,-0.5C 64.1667,-0.5 66.8333,-0.5 69.5,-0.5C 85.1015,2.76934 94.7682,12.1027 98.5,27.5C 98.5,30.1667 98.5,32.8333 98.5,35.5C 95.8725,43.7671 92.3725,51.7671 88,59.5C 85,69.5 82,79.5 79,89.5C 76.6827,96.642 72.1827,101.642 65.5,104.5C 63.1667,104.5 60.8333,104.5 58.5,104.5C 56.4042,102.567 54.9042,100.233 54,97.5C 54.0272,86.0233 52.8606,74.69 50.5,63.5C 49.5,63.5 48.5,63.5 47.5,63.5C 45.1168,75.0219 43.9501,86.6886 44,98.5C 42.668,100.66 41.168,102.66 39.5,104.5C 37.1667,104.5 34.8333,104.5 32.5,104.5C 25.8173,101.642 21.3173,96.642 19,89.5C 16,79.5 13,69.5 10,59.5C 5.67989,51.7371 2.17989,43.7371 -0.5,35.5C -0.5,32.8333 -0.5,30.1667 -0.5,27.5C 3.23181,12.1027 12.8985,2.76934 28.5,-0.5 Z"/></g>
<g><path style="opacity:1" fill="#d9dade" d="M 29.5,2.5 C 31.5273,2.33788 33.5273,2.50454 35.5,3C 39.9824,5.32543 44.4824,7.4921 49,9.5C 53.5176,7.4921 58.0176,5.32543 62.5,3C 76.5109,2.91855 86.6776,9.08522 93,21.5C 95,28.1667 95,34.8333 93,41.5C 89.727,47.7122 86.727,54.0456 84,60.5C 81.284,71.3651 77.9507,82.0317 74,92.5C 70.9045,97.7867 66.4045,100.62 60.5,101C 58.9512,99.786 57.7845,98.286 57,96.5C 56.8165,87.1239 56.1498,77.7906 55,68.5C 54.4888,66.1218 53.8221,63.7885 53,61.5C 50.3333,60.1667 47.6667,60.1667 45,61.5C 44.1779,63.7885 43.5112,66.1218 43,68.5C 41.8134,77.7833 41.1467,87.1167 41,96.5C 40.2625,99.4054 38.4292,101.072 35.5,101.5C 30.4517,100.058 26.6184,97.0584 24,92.5C 19.87,80.9804 16.2033,69.3137 13,57.5C 10.3678,52.1863 7.7011,46.853 5,41.5C 0.712762,28.0306 4.21276,17.1973 15.5,9C 19.8772,5.97481 24.5439,3.80814 29.5,2.5 Z"/></g>
<g><path style="opacity:1" fill="#fbfcfc" d="M 68.5,11.5 C 79.7148,13.0482 86.3815,19.3815 88.5,30.5C 88.5577,33.0571 87.8911,35.3904 86.5,37.5C 85.5,37.1667 84.8333,36.5 84.5,35.5C 86.5963,23.5568 81.5963,16.3901 69.5,14C 68.7476,13.3292 68.4142,12.4959 68.5,11.5 Z"/></g>
<g><path style="opacity:1" fill="#6bb4f4" d="M 23.5,13.5 C 33.1071,12.437 38.1071,16.7703 38.5,26.5C 37.5584,31.8165 36.725,37.1498 36,42.5C 31.2184,44.5947 26.3851,46.5947 21.5,48.5C 13.2655,43.0154 11.0988,35.6821 15,26.5C 17.8437,22.1382 20.6771,17.8049 23.5,13.5 Z"/></g>
<g><path style="opacity:1" fill="#f6fafe" d="M 26.5,27.5 C 29.2635,30.497 28.7635,33.1637 25,35.5C 24.1093,32.5024 24.6093,29.8357 26.5,27.5 Z"/></g>
</svg>
