<?xml version="1.0" encoding="UTF-8"?>
<!DOCTYPE svg PUBLIC "-//W3C//DTD SVG 1.1//EN" "http://www.w3.org/Graphics/SVG/1.1/DTD/svg11.dtd">
<svg xmlns="http://www.w3.org/2000/svg" version="1.1" width="98px" height="105px" style="shape-rendering:geometricPrecision; text-rendering:geometricPrecision; image-rendering:optimizeQuality; fill-rule:evenodd; clip-rule:evenodd" xmlns:xlink="http://www.w3.org/1999/xlink">
<g><path style="opacity:0.845" fill="#353535" d="M 25.5,-0.5 C 29.5,-0.5 33.5,-0.5 37.5,-0.5C 40.872,1.60628 44.372,3.60628 48,5.5C 51.9159,4.0523 55.4159,2.0523 58.5,-0.5C 62.8333,-0.5 67.1667,-0.5 71.5,-0.5C 85.1246,3.29391 93.7912,11.9606 97.5,25.5C 97.5,29.1667 97.5,32.8333 97.5,36.5C 93.465,44.9185 89.6317,53.5852 86,62.5C 83.5301,73.9098 79.8634,84.9098 75,95.5C 71.817,99.5378 67.9836,102.538 63.5,104.5C 62.1667,104.5 60.8333,104.5 59.5,104.5C 55.7499,103.239 53.5832,100.572 53,96.5C 52.8077,87.4571 52.141,78.4571 51,69.5C 51.1449,66.0767 49.6449,64.0767 46.5,63.5C 44.2339,75.0419 43.0673,86.7085 43,98.5C 41.5639,101.442 39.3972,103.442 36.5,104.5C 35.5,104.5 34.5,104.5 33.5,104.5C 25.8779,101.709 20.7112,96.3758 18,88.5C 14.2599,71.095 8.09322,54.7617 -0.5,39.5C -0.5,34.1667 -0.5,28.8333 -0.5,23.5C 4.00685,10.9931 12.6735,2.99313 25.5,-0.5 Z"/></g>
<g><path style="opacity:1" fill="#d9dadf" d="M 33.5,2.5 C 38.2736,4.63659 43.107,6.63659 48,8.5C 63.4863,-0.720639 77.153,1.61269 89,15.5C 94.0114,22.5416 95.3447,30.2083 93,38.5C 89.6667,45.8333 86.3333,53.1667 83,60.5C 80.284,71.3651 76.9507,82.0317 73,92.5C 70.4634,95.372 67.6301,97.872 64.5,100C 61.1658,101.212 58.6658,100.379 57,97.5C 56.7526,88.7968 56.0859,80.1301 55,71.5C 54.5242,67.4237 53.3575,63.5904 51.5,60C 48.6529,59.0561 46.1529,59.5561 44,61.5C 41.0683,72.9569 39.735,84.6236 40,96.5C 36.874,101.268 33.0407,101.768 28.5,98C 25.1166,94.7308 22.6166,90.8974 21,86.5C 17.5067,70.3524 11.84,55.019 4,40.5C -0.106995,25.2167 4.72634,13.7167 18.5,6C 21.3117,4.45112 24.3117,3.61778 27.5,3.5C 22.7366,6.42781 18.7366,10.2611 15.5,15C 18.8313,19.1632 23.1646,21.3299 28.5,21.5C 24.4209,24.1398 20.0875,26.3065 15.5,28C 14.9781,28.5613 14.6448,29.228 14.5,30C 17.4397,33.7729 21.1063,36.6062 25.5,38.5C 24.3717,39.2621 23.2051,39.9288 22,40.5C 21.3333,43.8333 21.3333,47.1667 22,50.5C 24.8414,52.5058 28.0081,53.8391 31.5,54.5C 32.3081,54.1924 32.9747,53.6924 33.5,53C 30.9919,51.5498 28.3252,50.3832 25.5,49.5C 24.3526,47.2351 24.1859,44.9018 25,42.5C 27.4433,41.4067 29.9433,40.4067 32.5,39.5C 33.3857,38.675 33.719,37.675 33.5,36.5C 27.4873,36.5552 22.4873,34.3885 18.5,30C 23.8755,27.562 29.0421,24.7286 34,21.5C 34.4317,20.3999 33.9317,19.7332 32.5,19.5C 29.1164,18.8567 25.783,18.0234 22.5,17C 21.09,16.6322 20.09,15.7989 19.5,14.5C 21.1667,12.5 22.8333,10.5 24.5,8.5C 27.7376,6.72466 30.7376,4.72466 33.5,2.5 Z"/></g>
<g><path style="opacity:1" fill="#74b7f2" d="M 33.5,2.5 C 30.7376,4.72466 27.7376,6.72466 24.5,8.5C 22.8333,10.5 21.1667,12.5 19.5,14.5C 20.09,15.7989 21.09,16.6322 22.5,17C 25.783,18.0234 29.1164,18.8567 32.5,19.5C 33.9317,19.7332 34.4317,20.3999 34,21.5C 29.0421,24.7286 23.8755,27.562 18.5,30C 22.4873,34.3885 27.4873,36.5552 33.5,36.5C 33.719,37.675 33.3857,38.675 32.5,39.5C 29.9433,40.4067 27.4433,41.4067 25,42.5C 24.1859,44.9018 24.3526,47.2351 25.5,49.5C 28.3252,50.3832 30.9919,51.5498 33.5,53C 32.9747,53.6924 32.3081,54.1924 31.5,54.5C 28.0081,53.8391 24.8414,52.5058 22,50.5C 21.3333,47.1667 21.3333,43.8333 22,40.5C 23.2051,39.9288 24.3717,39.2621 25.5,38.5C 21.1063,36.6062 17.4397,33.7729 14.5,30C 14.6448,29.228 14.9781,28.5613 15.5,28C 20.0875,26.3065 24.4209,24.1398 28.5,21.5C 23.1646,21.3299 18.8313,19.1632 15.5,15C 18.7366,10.2611 22.7366,6.42781 27.5,3.5C 29.5,3.16667 31.5,2.83333 33.5,2.5 Z"/></g>
<g><path style="opacity:1" fill="#fbfbfc" d="M 67.5,10.5 C 81.7537,12.9084 88.2537,21.2418 87,35.5C 86.3333,36.1667 85.6667,36.8333 85,37.5C 86.5897,23.9408 80.7564,15.9408 67.5,13.5C 67.5,12.5 67.5,11.5 67.5,10.5 Z"/></g>
</svg>
