<?xml version="1.0" encoding="UTF-8"?>
<!DOCTYPE svg PUBLIC "-//W3C//DTD SVG 1.1//EN" "http://www.w3.org/Graphics/SVG/1.1/DTD/svg11.dtd">
<svg xmlns="http://www.w3.org/2000/svg" version="1.1" width="104px" height="103px" style="shape-rendering:geometricPrecision; text-rendering:geometricPrecision; image-rendering:optimizeQuality; fill-rule:evenodd; clip-rule:evenodd" xmlns:xlink="http://www.w3.org/1999/xlink">
<g><path style="opacity:0.957" fill="#69b4f5" d="M 53.5,-0.5 C 56.8333,-0.5 60.1667,-0.5 63.5,-0.5C 65.3545,0.689603 67.1879,2.02294 69,3.5C 70.8121,2.02294 72.6455,0.689603 74.5,-0.5C 77.8333,-0.5 81.1667,-0.5 84.5,-0.5C 95.2897,3.81025 100.123,11.8103 99,23.5C 93.8769,34.8689 89.5436,46.5356 86,58.5C 82.0978,63.6706 77.4311,64.6706 72,61.5C 70.9559,54.1835 69.9559,46.8502 69,39.5C 68.0441,46.8502 67.0441,54.1835 66,61.5C 62.6916,63.9925 59.1916,64.1592 55.5,62C 53.0439,59.5925 51.2106,56.7591 50,53.5C 48.0388,43.986 44.7054,34.986 40,26.5C 36.6161,13.4548 41.1161,4.45483 53.5,-0.5 Z"/></g>
<g><path style="opacity:1" fill="#eff7fd" d="M 80.5,9.5 C 87.76,10.8891 90.76,15.0558 89.5,22C 89.1667,22.1667 88.8333,22.3333 88.5,22.5C 87.9625,16.7901 84.9625,12.9568 79.5,11C 80.056,10.6174 80.3893,10.1174 80.5,9.5 Z"/></g>
<g><path style="opacity:0.864" fill="#343434" d="M 103.5,81.5 C 103.5,81.8333 103.5,82.1667 103.5,82.5C 102.78,85.0601 101.113,86.8935 98.5,88C 86.0278,92.7629 73.6944,97.5962 61.5,102.5C 58.8333,102.5 56.1667,102.5 53.5,102.5C 42.1101,99.4432 30.6101,96.4432 19,93.5C 18.7266,95.1012 18.2266,96.6012 17.5,98C 11.418,98.7876 5.41804,98.621 -0.5,97.5C -0.5,85.8333 -0.5,74.1667 -0.5,62.5C 5.62396,61.1822 11.7906,61.1822 18,62.5C 23.1027,59.611 28.6027,58.7777 34.5,60C 37.3432,61.5168 40.1766,63.0168 43,64.5C 47.4464,63.5879 51.9464,63.2546 56.5,63.5C 57.3533,71.1566 54.0199,75.99 46.5,78C 51.3092,80.3864 56.3092,81.7198 61.5,82C 71.9451,78.9306 82.4451,76.0972 93,73.5C 98.5746,73.6799 102.075,76.3466 103.5,81.5 Z"/></g>
<g><path style="opacity:1" fill="#d7d8dc" d="M 24.5,62.5 C 30.2084,61.6901 35.2084,63.1901 39.5,67C 44.2377,67.1116 48.9044,67.2783 53.5,67.5C 52.3633,70.4698 50.3633,72.6365 47.5,74C 43.1794,74.499 38.8461,74.6657 34.5,74.5C 34.5,75.5 34.5,76.5 34.5,77.5C 42.6195,80.0966 50.6195,83.0966 58.5,86.5C 69.9063,82.8648 81.4063,79.5315 93,76.5C 95.0577,77.1117 96.891,78.1117 98.5,79.5C 99.7468,81.0421 99.7468,82.5421 98.5,84C 85.1564,89.5592 71.6564,94.7259 58,99.5C 44.5309,96.3064 31.0309,93.3064 17.5,90.5C 17.3336,82.8261 17.5003,75.1594 18,67.5C 19.9651,65.4497 22.1318,63.783 24.5,62.5 Z"/></g>
<g><path style="opacity:1" fill="#fefffe" d="M 3.5,65.5 C 7.16667,65.5 10.8333,65.5 14.5,65.5C 14.5,75.1667 14.5,84.8333 14.5,94.5C 10.8333,94.5 7.16667,94.5 3.5,94.5C 3.5,84.8333 3.5,75.1667 3.5,65.5 Z"/></g>
</svg>
