<?xml version="1.0" encoding="UTF-8"?>
<!DOCTYPE svg PUBLIC "-//W3C//DTD SVG 1.1//EN" "http://www.w3.org/Graphics/SVG/1.1/DTD/svg11.dtd">
<svg xmlns="http://www.w3.org/2000/svg" version="1.1" width="105px" height="103px" style="shape-rendering:geometricPrecision; text-rendering:geometricPrecision; image-rendering:optimizeQuality; fill-rule:evenodd; clip-rule:evenodd" xmlns:xlink="http://www.w3.org/1999/xlink">
<g><path style="opacity:0.926" fill="#313131" d="M 0.5,-0.5 C 35.1667,-0.5 69.8333,-0.5 104.5,-0.5C 104.5,33.8333 104.5,68.1667 104.5,102.5C 69.8333,102.5 35.1667,102.5 0.5,102.5C 0.5,101.833 0.166667,101.5 -0.5,101.5C -0.5,67.8333 -0.5,34.1667 -0.5,0.5C 0.166667,0.5 0.5,0.166667 0.5,-0.5 Z"/></g>
<g><path style="opacity:1" fill="#d8d9dd" d="M 3.5,2.5 C 36.1667,2.5 68.8333,2.5 101.5,2.5C 101.5,7.83333 101.5,13.1667 101.5,18.5C 68.8333,18.5 36.1667,18.5 3.5,18.5C 3.5,13.1667 3.5,7.83333 3.5,2.5 Z"/></g>
<g><path style="opacity:1" fill="#393939" d="M 7.5,9.5 C 9.33702,9.63945 9.67036,10.3061 8.5,11.5C 7.70245,11.0431 7.36912,10.3764 7.5,9.5 Z"/></g>
<g><path style="opacity:1" fill="#4b4c4c" d="M 30.5,9.5 C 32.337,9.63945 32.6704,10.3061 31.5,11.5C 30.7025,11.0431 30.3691,10.3764 30.5,9.5 Z"/></g>
<g><path style="opacity:1" fill="#616162" d="M 3.5,2.5 C 3.5,7.83333 3.5,13.1667 3.5,18.5C 36.1667,18.5 68.8333,18.5 101.5,18.5C 68.6709,19.4983 35.6709,19.8316 2.5,19.5C 2.1778,13.642 2.51114,7.97533 3.5,2.5 Z"/></g>
<g><path style="opacity:1" fill="#b8b8b8" d="M 3.5,22.5 C 35.9957,21.5017 68.6624,21.1684 101.5,21.5C 101.5,47.5 101.5,73.5 101.5,99.5C 68.6624,99.8316 35.9957,99.4983 3.5,98.5C 35.8333,98.5 68.1667,98.5 100.5,98.5C 100.5,73.1667 100.5,47.8333 100.5,22.5C 68.1667,22.5 35.8333,22.5 3.5,22.5 Z"/></g>
<g><path style="opacity:1" fill="#fefefe" d="M 3.5,22.5 C 35.8333,22.5 68.1667,22.5 100.5,22.5C 100.5,47.8333 100.5,73.1667 100.5,98.5C 68.1667,98.5 35.8333,98.5 3.5,98.5C 3.5,73.1667 3.5,47.8333 3.5,22.5 Z"/></g>
<g><path style="opacity:1" fill="#6cb5f5" d="M 19.5,38.5 C 23.4219,38.069 26.9219,39.069 30,41.5C 39.542,36.7508 46.542,39.4175 51,49.5C 51.6667,51.8333 51.6667,54.1667 51,56.5C 47.3484,63.1209 44.6818,70.1209 43,77.5C 41.0711,81.8037 37.9044,83.9703 33.5,84C 32.2986,83.0975 31.4652,81.9308 31,80.5C 30.2536,64.9129 29.2536,65.2463 28,81.5C 26.8149,83.8437 24.9815,84.6771 22.5,84C 20,82.8333 18.1667,81 17,78.5C 14.4414,69.6591 11.6081,60.9924 8.5,52.5C 9.23572,45.4407 12.9024,40.774 19.5,38.5 Z"/></g>
<g><path style="opacity:1" fill="#dbdce0" d="M 55.5,38.5 C 68.8375,38.3334 82.1708,38.5001 95.5,39C 96.6219,42.4085 96.7886,45.9085 96,49.5C 82.5752,50.6557 69.0752,50.8223 55.5,50C 54.1998,46.1675 54.1998,42.3342 55.5,38.5 Z"/></g>
<g><path style="opacity:1" fill="#f9fcfe" d="M 37.5,46.5 C 43.5072,46.8392 45.5072,49.8392 43.5,55.5C 42.7022,53.9223 42.2022,52.2556 42,50.5C 39.8816,49.7171 38.3816,48.3838 37.5,46.5 Z"/></g>
<g><path style="opacity:1" fill="#6fb6f5" d="M 55.5,56.5 C 68.8375,56.3334 82.1708,56.5001 95.5,57C 96.6168,60.0731 96.7835,63.2397 96,66.5C 89.405,67.8131 82.5717,68.4797 75.5,68.5C 68.8333,68.3333 62.1667,68.1667 55.5,68C 54.1998,64.1675 54.1998,60.3342 55.5,56.5 Z"/></g>
<g><path style="opacity:1" fill="#dbdce0" d="M 55.5,73.5 C 68.8375,73.3334 82.1708,73.5001 95.5,74C 96.6219,77.4085 96.7886,80.9085 96,84.5C 82.5752,85.6557 69.0752,85.8223 55.5,85C 54.1998,81.1675 54.1998,77.3342 55.5,73.5 Z"/></g>
</svg>
