<?xml version="1.0" encoding="UTF-8"?>
<!DOCTYPE svg PUBLIC "-//W3C//DTD SVG 1.1//EN" "http://www.w3.org/Graphics/SVG/1.1/DTD/svg11.dtd">
<svg xmlns="http://www.w3.org/2000/svg" version="1.1" width="99px" height="105px" style="shape-rendering:geometricPrecision; text-rendering:geometricPrecision; image-rendering:optimizeQuality; fill-rule:evenodd; clip-rule:evenodd" xmlns:xlink="http://www.w3.org/1999/xlink">
<g><path style="opacity:0.844" fill="#343434" d="M 25.5,-0.5 C 29.8333,-0.5 34.1667,-0.5 38.5,-0.5C 41.872,1.60628 45.372,3.60628 49,5.5C 52.9159,4.0523 56.4159,2.0523 59.5,-0.5C 63.8333,-0.5 68.1667,-0.5 72.5,-0.5C 85.9385,3.93791 94.6051,12.9379 98.5,26.5C 98.5,29.5 98.5,32.5 98.5,35.5C 95.3396,43.5027 91.8396,51.5027 88,59.5C 84.9204,71.8236 80.9204,83.8236 76,95.5C 72.6544,99.8976 68.4878,102.898 63.5,104.5C 62.5,104.5 61.5,104.5 60.5,104.5C 57.2118,103.374 55.0451,101.04 54,97.5C 54.0814,86.0116 52.9147,74.6782 50.5,63.5C 49.5,63.5 48.5,63.5 47.5,63.5C 45.3707,75.7662 43.8707,88.0995 43,100.5C 41.5002,102.469 39.6669,103.802 37.5,104.5C 36.5,104.5 35.5,104.5 34.5,104.5C 28.7132,102.559 24.2132,98.8925 21,93.5C 16.8611,83.0833 13.5277,72.4166 11,61.5C 6.54962,52.6175 2.71629,43.6175 -0.5,34.5C -0.5,32.1667 -0.5,29.8333 -0.5,27.5C 2.94762,13.3836 11.6143,4.05026 25.5,-0.5 Z M 47.5,24.5 C 49.1537,26.5597 50.1537,29.0597 50.5,32C 59.8333,33 59.8333,34 50.5,35C 49.8803,37.4728 49.2136,39.9728 48.5,42.5C 48.5,36.5 45.5,33.5 39.5,33.5C 42.0272,32.7864 44.5272,32.1197 47,31.5C 47.4966,29.1902 47.6633,26.8568 47.5,24.5 Z"/></g>
<g><path style="opacity:1" fill="#d9dade" d="M 27.5,2.5 C 30.5184,2.33537 33.5184,2.50204 36.5,3C 40.6765,5.18361 44.8432,7.35028 49,9.5C 67.1146,-1.47324 81.7813,2.19343 93,20.5C 94.9544,27.4859 94.9544,34.4859 93,41.5C 89.8061,46.5545 87.1394,51.8878 85,57.5C 81.6645,68.1781 78.3312,78.8447 75,89.5C 72.1413,96.7319 66.9746,100.232 59.5,100C 59,99.5 58.5,99 58,98.5C 56.7559,89.9088 56.0892,81.2421 56,72.5C 55.4024,68.9429 54.569,65.4429 53.5,62C 51.696,59.7017 49.3627,59.035 46.5,60C 45.1068,61.1711 44.2735,62.6711 44,64.5C 42.2251,75.7982 40.8917,87.1315 40,98.5C 37.0316,100.991 33.8649,101.157 30.5,99C 27.2379,96.408 24.7379,93.2413 23,89.5C 19.6897,79.5917 16.6897,69.5917 14,59.5C 10.6499,52.1361 7.3166,44.8028 4,37.5C 2.34344,19.4837 10.1768,7.81705 27.5,2.5 Z M 47.5,24.5 C 47.6633,26.8568 47.4966,29.1902 47,31.5C 44.5272,32.1197 42.0272,32.7864 39.5,33.5C 45.5,33.5 48.5,36.5 48.5,42.5C 49.2136,39.9728 49.8803,37.4728 50.5,35C 59.8333,34 59.8333,33 50.5,32C 50.1537,29.0597 49.1537,26.5597 47.5,24.5 Z"/></g>
<g><path style="opacity:1" fill="#fbfcfc" d="M 68.5,10.5 C 79.9697,12.1369 86.6364,18.6369 88.5,30C 88.4567,32.7966 87.6234,35.2966 86,37.5C 87.5375,24.0412 81.7042,15.8745 68.5,13C 67.4019,12.2303 67.4019,11.397 68.5,10.5 Z"/></g>
<g><path style="opacity:1" fill="#6db5f4" d="M 44.5,13.5 C 64.3543,15.2065 71.1876,25.5399 65,44.5C 54.8966,55.5165 44.23,56.1832 33,46.5C 24.8912,31.3776 28.7245,20.3776 44.5,13.5 Z M 47.5,24.5 C 47.6633,26.8568 47.4966,29.1902 47,31.5C 44.5272,32.1197 42.0272,32.7864 39.5,33.5C 45.5,33.5 48.5,36.5 48.5,42.5C 49.2136,39.9728 49.8803,37.4728 50.5,35C 59.8333,34 59.8333,33 50.5,32C 50.1537,29.0597 49.1537,26.5597 47.5,24.5 Z"/></g>
<g><path style="opacity:0.833" fill="#f9fcfe" d="M 44.5,21.5 C 47.1667,21.5 49.8333,21.5 52.5,21.5C 52.5,24.1667 52.5,26.8333 52.5,29.5C 55.1667,29.5 57.8333,29.5 60.5,29.5C 60.6641,32.1873 60.4974,34.854 60,37.5C 57.6194,38.435 55.1194,38.7683 52.5,38.5C 53.7351,46.5238 50.9018,48.5238 44,44.5C 43.5045,42.5273 43.3379,40.5273 43.5,38.5C 36.5117,39.3522 34.1784,36.5189 36.5,30C 38.8098,29.5034 41.1432,29.3367 43.5,29.5C 43.2786,26.7212 43.612,24.0545 44.5,21.5 Z M 47.5,24.5 C 47.6633,26.8568 47.4966,29.1902 47,31.5C 44.5272,32.1197 42.0272,32.7864 39.5,33.5C 45.5,33.5 48.5,36.5 48.5,42.5C 49.2136,39.9728 49.8803,37.4728 50.5,35C 59.8333,34 59.8333,33 50.5,32C 50.1537,29.0597 49.1537,26.5597 47.5,24.5 Z"/></g>
</svg>
