<?xml version="1.0" encoding="UTF-8"?>
<!DOCTYPE svg PUBLIC "-//W3C//DTD SVG 1.1//EN" "http://www.w3.org/Graphics/SVG/1.1/DTD/svg11.dtd">
<svg xmlns="http://www.w3.org/2000/svg" version="1.1" width="96px" height="104px" style="shape-rendering:geometricPrecision; text-rendering:geometricPrecision; image-rendering:optimizeQuality; fill-rule:evenodd; clip-rule:evenodd" xmlns:xlink="http://www.w3.org/1999/xlink">
<g><path style="opacity:0.967" fill="#dadbdf" d="M 33.5,-0.5 C 42.5,-0.5 51.5,-0.5 60.5,-0.5C 68.6669,4.3264 71.3336,11.3264 68.5,20.5C 66.8212,20.2852 65.8212,20.9519 65.5,22.5C 53.751,20.5526 41.751,19.886 29.5,20.5C 28.1667,20.5 26.8333,20.5 25.5,20.5C 24.8887,14.5663 25.722,8.89964 28,3.5C 29.8121,2.02294 31.6455,0.689603 33.5,-0.5 Z"/></g>
<g><path style="opacity:1" fill="#fdfdfd" d="M 29.5,20.5 C 41.751,19.886 53.751,20.5526 65.5,22.5C 66.4025,25.3915 66.7359,28.3915 66.5,31.5C 53.8333,31.5 41.1667,31.5 28.5,31.5C 28.3227,27.7657 28.6561,24.0991 29.5,20.5 Z"/></g>
<g><path style="opacity:0.83" fill="#343537" d="M 68.5,20.5 C 71.1607,30.223 69.994,39.5564 65,48.5C 63.2962,50.3734 61.4628,52.0401 59.5,53.5C 62.2896,46.9024 64.9563,40.2357 67.5,33.5C 67.1373,32.8165 66.8039,32.1499 66.5,31.5C 66.7359,28.3915 66.4025,25.3915 65.5,22.5C 65.8212,20.9519 66.8212,20.2852 68.5,20.5 Z"/></g>
<g><path style="opacity:1" fill="#6bb4f3" d="M 28.5,31.5 C 41.1667,31.5 53.8333,31.5 66.5,31.5C 66.8039,32.1499 67.1373,32.8165 67.5,33.5C 64.9563,40.2357 62.2896,46.9024 59.5,53.5C 57.5887,54.075 55.922,55.075 54.5,56.5C 50.9359,57.4227 47.2693,57.756 43.5,57.5C 36.5844,54.9098 32.5844,49.9098 31.5,42.5C 31.5,40.1667 31.5,37.8333 31.5,35.5C 30.5,35.5 29.5,35.5 28.5,35.5C 27.9094,34.8485 27.2427,34.1818 26.5,33.5C 27.2427,32.8182 27.9094,32.1515 28.5,31.5 Z"/></g>
<g><path style="opacity:0.878" fill="#c0dbf5" d="M 28.5,35.5 C 29.5,35.5 30.5,35.5 31.5,35.5C 31.5,37.8333 31.5,40.1667 31.5,42.5C 30.0549,40.4293 29.0549,38.096 28.5,35.5 Z"/></g>
<g><path style="opacity:0.895" fill="#333333" d="M 25.5,20.5 C 26.8333,20.5 28.1667,20.5 29.5,20.5C 28.6561,24.0991 28.3227,27.7657 28.5,31.5C 27.9094,32.1515 27.2427,32.8182 26.5,33.5C 27.2427,34.1818 27.9094,34.8485 28.5,35.5C 29.0549,38.096 30.0549,40.4293 31.5,42.5C 32.5844,49.9098 36.5844,54.9098 43.5,57.5C 42.5,57.5 41.5,57.5 40.5,57.5C 40.3341,62.5111 40.5007,67.5111 41,72.5C 46.4131,80.9073 50.7464,80.2406 54,70.5C 54.4992,65.8452 54.6658,61.1785 54.5,56.5C 55.922,55.075 57.5887,54.075 59.5,53.5C 57.6571,57.1869 56.9905,61.1869 57.5,65.5C 72.9973,62.1677 84.164,67.501 91,81.5C 92.0734,87.4052 93.5734,93.0719 95.5,98.5C 95.5,100.167 95.5,101.833 95.5,103.5C 63.5,103.5 31.5,103.5 -0.5,103.5C -0.5,101.167 -0.5,98.8333 -0.5,96.5C 1.05996,88.965 3.55996,81.6317 7,74.5C 15.0215,66.0665 24.8549,63.0665 36.5,65.5C 36.8226,61.774 36.4892,58.1073 35.5,54.5C 29.6993,49.9061 26.1993,43.9061 25,36.5C 24.3239,31.1294 24.4905,25.7961 25.5,20.5 Z"/></g>
<g><path style="opacity:1" fill="#f7f8f9" d="M 54.5,56.5 C 54.6658,61.1785 54.4992,65.8452 54,70.5C 50.7464,80.2406 46.4131,80.9073 41,72.5C 40.5007,67.5111 40.3341,62.5111 40.5,57.5C 41.5,57.5 42.5,57.5 43.5,57.5C 47.2693,57.756 50.9359,57.4227 54.5,56.5 Z"/></g>
<g><path style="opacity:1" fill="#d9dade" d="M 91.5,99.5 C 61.9953,99.8314 32.6619,99.4981 3.5,98.5C 3.97124,76.0225 15.3046,66.0225 37.5,68.5C 37.7172,78.2442 42.3838,82.0775 51.5,80C 54.9233,77.3209 56.9233,73.8209 57.5,69.5C 70.3665,65.6159 80.1998,69.2825 87,80.5C 89.0744,86.7069 90.5744,93.0402 91.5,99.5 Z"/></g>
<g><path style="opacity:0.878" fill="#c1c2c5" d="M 3.5,98.5 C 32.6619,99.4981 61.9953,99.8314 91.5,99.5C 61.9973,100.83 32.3306,100.83 2.5,99.5C 2.62358,98.8933 2.95691,98.56 3.5,98.5 Z"/></g>
</svg>
