<?xml version="1.0" encoding="UTF-8"?>
<!DOCTYPE svg PUBLIC "-//W3C//DTD SVG 1.1//EN" "http://www.w3.org/Graphics/SVG/1.1/DTD/svg11.dtd">
<svg xmlns="http://www.w3.org/2000/svg" version="1.1" width="101px" height="104px" style="shape-rendering:geometricPrecision; text-rendering:geometricPrecision; image-rendering:optimizeQuality; fill-rule:evenodd; clip-rule:evenodd" xmlns:xlink="http://www.w3.org/1999/xlink">
<g><path style="opacity:0.746" fill="#313131" d="M 6.5,-0.5 C 7.83333,-0.5 9.16667,-0.5 10.5,-0.5C 14.7123,3.63668 14.379,7.47001 9.5,11C 8.67771,13.4339 8.34438,15.9339 8.5,18.5C 12.5138,18.3345 16.5138,18.5012 20.5,19C 27.3685,26.0359 34.3685,32.8693 41.5,39.5C 41.1667,41.8333 39.8333,43.1667 37.5,43.5C 31.036,36.5351 24.3693,29.7018 17.5,23C 13.1126,22.774 8.7793,22.274 4.5,21.5C 3.87743,17.6868 4.21077,13.8535 5.5,10C 2.53584,5.99954 2.86917,2.49954 6.5,-0.5 Z"/></g>
<g><path style="opacity:0.911" fill="#d9dade" d="M 48.5,-0.5 C 50.1667,-0.5 51.8333,-0.5 53.5,-0.5C 58.1935,7.84146 56.5269,14.8415 48.5,20.5C 46.1667,21.8333 43.8333,21.8333 41.5,20.5C 37.9833,11.7155 40.3166,4.71553 48.5,-0.5 Z"/></g>
<g><path style="opacity:1" fill="#d4d5d9" d="M 7.5,3.5 C 9.46455,3.94835 9.79789,4.94835 8.5,6.5C 7.61432,5.67504 7.28099,4.67504 7.5,3.5 Z"/></g>
<g><path style="opacity:0.673" fill="#303131" d="M 41.5,20.5 C 43.8333,21.8333 46.1667,21.8333 48.5,20.5C 54.1667,26.8333 60.1667,32.8333 66.5,38.5C 66.1667,40.8333 64.8333,42.1667 62.5,42.5C 55.5,35.1667 48.5,27.8333 41.5,20.5 Z"/></g>
<g><path style="opacity:0.791" fill="#303030" d="M 33.5,61.5 C 33.1898,63.1436 32.1898,64.1436 30.5,64.5C 24.3686,58.8695 18.3686,53.0362 12.5,47C 8.06809,46.9444 3.73476,46.7777 -0.5,46.5C -0.5,41.5 -0.5,36.5 -0.5,31.5C 0.880401,30.2935 2.04707,30.6269 3,32.5C 3.49834,35.8168 3.66501,39.1501 3.5,42.5C 7.18174,42.3347 10.8484,42.5014 14.5,43C 20.7019,49.3694 27.0352,55.5361 33.5,61.5 Z"/></g>
<g><path style="opacity:0.886" fill="#68b3f4" d="M 66.5,38.5 C 68.9892,38.2978 71.3225,38.7978 73.5,40C 83.123,49.1172 92.123,58.6172 100.5,68.5C 100.5,69.1667 100.5,69.8333 100.5,70.5C 99.7811,72.0913 98.7811,73.5913 97.5,75C 94.8333,75.6667 92.1667,75.6667 89.5,75C 81,66.5 72.5,58 64,49.5C 62.7978,47.3225 62.2978,44.9892 62.5,42.5C 64.8333,42.1667 66.1667,40.8333 66.5,38.5 Z"/></g>
<g><path style="opacity:0.936" fill="#69b4f5" d="M 41.5,39.5 C 44.1873,39.3359 46.854,39.5026 49.5,40C 61.6667,52.1667 73.8333,64.3333 86,76.5C 88.5087,83.1304 86.342,87.4638 79.5,89.5C 77.8849,88.846 76.2182,88.346 74.5,88C 62.3333,75.8333 50.1667,63.6667 38,51.5C 37.5026,48.854 37.3359,46.1873 37.5,43.5C 39.8333,43.1667 41.1667,41.8333 41.5,39.5 Z"/></g>
<g><path style="opacity:0.926" fill="#dadbdf" d="M 33.5,61.5 C 36.3198,61.2475 38.9865,61.7475 41.5,63C 51,72.5 60.5,82 70,91.5C 72.7447,96.7517 71.5781,100.752 66.5,103.5C 65.5,103.5 64.5,103.5 63.5,103.5C 52.2834,93.7884 41.45,83.4551 31,72.5C 29.1865,69.9218 29.0198,67.2551 30.5,64.5C 32.1898,64.1436 33.1898,63.1436 33.5,61.5 Z"/></g>
</svg>
