<?xml version="1.0" encoding="UTF-8"?>
<!DOCTYPE svg PUBLIC "-//W3C//DTD SVG 1.1//EN" "http://www.w3.org/Graphics/SVG/1.1/DTD/svg11.dtd">
<svg xmlns="http://www.w3.org/2000/svg" version="1.1" width="104px" height="105px" style="shape-rendering:geometricPrecision; text-rendering:geometricPrecision; image-rendering:optimizeQuality; fill-rule:evenodd; clip-rule:evenodd" xmlns:xlink="http://www.w3.org/1999/xlink">
<g><path style="opacity:0.886" fill="#dadbdf" d="M 94.5,-0.5 C 94.8333,-0.5 95.1667,-0.5 95.5,-0.5C 98.7469,5.24015 101.414,11.2401 103.5,17.5C 103.5,18.1667 103.5,18.8333 103.5,19.5C 98.1667,18.1667 92.8333,18.1667 87.5,19.5C 89.0423,12.539 91.3756,5.8723 94.5,-0.5 Z"/></g>
<g><path style="opacity:0.858" fill="#323232" d="M -0.5,101.5 C -0.5,68.1667 -0.5,34.8333 -0.5,1.5C 27.7595,0.508824 56.0928,0.175491 84.5,0.5C 84.6666,28.1687 84.5,55.8353 84,83.5C 77.8333,89.6667 71.6667,95.8333 65.5,102C 43.4272,102.821 21.4272,102.655 -0.5,101.5 Z"/></g>
<g><path style="opacity:1" fill="#fcfdfd" d="M 3.5,3.5 C 29.1667,3.5 54.8333,3.5 80.5,3.5C 80.5,29.1667 80.5,54.8333 80.5,80.5C 74.8236,80.3339 69.1569,80.5006 63.5,81C 62.5251,86.7412 62.1918,92.5746 62.5,98.5C 42.8333,98.5 23.1667,98.5 3.5,98.5C 3.5,66.8333 3.5,35.1667 3.5,3.5 Z"/></g>
<g><path style="opacity:1" fill="#6cb5f5" d="M 20.5,15.5 C 22.905,15.8664 25.2383,16.5331 27.5,17.5C 39.3289,14.8337 44.8289,19.5004 44,31.5C 41.2107,36.5343 39.2107,41.8677 38,47.5C 36.2294,52.2083 33.0628,53.5417 28.5,51.5C 27.7463,48.223 27.2463,44.8897 27,41.5C 26.7931,45.0894 26.2931,48.5894 25.5,52C 22.0993,53.7436 19.266,52.9102 17,49.5C 14.9791,41.9358 12.4791,34.6025 9.5,27.5C 10.4272,20.9089 14.0939,16.9089 20.5,15.5 Z"/></g>
<g><path style="opacity:0.866" fill="#393939" d="M 103.5,19.5 C 103.5,43.8333 103.5,68.1667 103.5,92.5C 102.833,92.5 102.5,92.8333 102.5,93.5C 97.7331,92.2027 93.0665,92.2027 88.5,93.5C 87.8826,93.3893 87.3826,93.056 87,92.5C 86.1701,67.9965 86.3368,43.6632 87.5,19.5C 92.8333,18.1667 98.1667,18.1667 103.5,19.5 Z"/></g>
<g><path style="opacity:1" fill="#f2f8fe" d="M 32.5,23.5 C 36.261,21.8864 38.5944,23.2197 39.5,27.5C 39.4435,28.737 38.9435,29.737 38,30.5C 36.883,29.0506 36.2163,27.3839 36,25.5C 34.8873,24.695 33.7206,24.0283 32.5,23.5 Z"/></g>
<g><path style="opacity:1" fill="#fefefe" d="M 90.5,21.5 C 93.5,21.5 96.5,21.5 99.5,21.5C 99.5,44.1667 99.5,66.8333 99.5,89.5C 96.5,89.5 93.5,89.5 90.5,89.5C 90.5,66.8333 90.5,44.1667 90.5,21.5 Z"/></g>
<g><path style="opacity:1" fill="#69b4f5" d="M 52.5,32.5 C 60.0084,32.0378 67.3417,32.5378 74.5,34C 67.3346,35.6268 60.0012,35.9601 52.5,35C 51.4019,34.2303 51.4019,33.397 52.5,32.5 Z"/></g>
<g><path style="opacity:1" fill="#69b4f5" d="M 52.5,42.5 C 60.0084,42.0378 67.3417,42.5378 74.5,44C 67.3346,45.6268 60.0012,45.9601 52.5,45C 51.4019,44.2303 51.4019,43.397 52.5,42.5 Z"/></g>
<g><path style="opacity:1" fill="#7bbcf6" d="M 11.5,59.5 C 32.1694,59.3334 52.836,59.5 73.5,60C 74.8333,61 74.8333,62 73.5,63C 52.8333,63.6667 32.1667,63.6667 11.5,63C 10.3157,61.8545 10.3157,60.6879 11.5,59.5 Z"/></g>
<g><path style="opacity:1" fill="#69b4f5" d="M 11.5,69.5 C 32.1694,69.3334 52.836,69.5 73.5,70C 73.9574,70.414 74.2907,70.914 74.5,71.5C 53.1667,72.8333 31.8333,72.8333 10.5,71.5C 10.8627,70.8165 11.1961,70.1499 11.5,69.5 Z"/></g>
<g><path style="opacity:1" fill="#d2d3d7" d="M 65.5,83.5 C 69.8461,83.3343 74.1794,83.501 78.5,84C 74.3333,88.1667 70.1667,92.3333 66,96.5C 65.501,92.1794 65.3343,87.8461 65.5,83.5 Z"/></g>
<g><path style="opacity:0.891" fill="#d4d5d9" d="M 102.5,93.5 C 103.308,98.8967 101.308,102.563 96.5,104.5C 95.8333,104.5 95.1667,104.5 94.5,104.5C 89.1906,102.815 87.1906,99.1482 88.5,93.5C 93.0665,92.2027 97.7331,92.2027 102.5,93.5 Z"/></g>
</svg>
