<?xml version="1.0" encoding="UTF-8"?>
<!DOCTYPE svg PUBLIC "-//W3C//DTD SVG 1.1//EN" "http://www.w3.org/Graphics/SVG/1.1/DTD/svg11.dtd">
<svg xmlns="http://www.w3.org/2000/svg" version="1.1" width="103px" height="103px" style="shape-rendering:geometricPrecision; text-rendering:geometricPrecision; image-rendering:optimizeQuality; fill-rule:evenodd; clip-rule:evenodd" xmlns:xlink="http://www.w3.org/1999/xlink">
<g><path style="opacity:0.811" fill="#333333" d="M 78.5,-0.5 C 86.1667,-0.5 93.8333,-0.5 101.5,-0.5C 101.5,0.166667 101.833,0.5 102.5,0.5C 102.5,1.16667 102.5,1.83333 102.5,2.5C 95.2456,3.29903 87.9123,3.79903 80.5,4C 77.1667,6.66667 73.8333,9.33333 70.5,12C 76.4717,17.075 77.9717,23.2417 75,30.5C 73.6487,32.019 72.1487,33.3523 70.5,34.5C 61.3049,26.1387 52.6382,17.3053 44.5,8C 49.2191,1.32277 55.2191,-0.0105612 62.5,4C 64.0175,5.68511 65.6841,7.18511 67.5,8.5C 71.5011,5.82483 75.1677,2.82483 78.5,-0.5 Z"/></g>
<g><path style="opacity:1" fill="#d8d9dd" d="M 50.5,5.5 C 53.9783,5.18424 57.3117,5.68424 60.5,7C 64.3333,10.8333 68.1667,14.6667 72,18.5C 74.0897,22.1207 73.923,25.6207 71.5,29C 70.8333,29.6667 70.1667,29.6667 69.5,29C 62.5,22 55.5,15 48.5,8C 49.3805,7.2917 50.0472,6.45837 50.5,5.5 Z"/></g>
<g><path style="opacity:0.728" fill="#dadcdf" d="M 43.5,17.5 C 44.8333,17.5 46.1667,17.5 47.5,17.5C 46.37,21.3129 44.0367,24.3129 40.5,26.5C 39.2801,26.1131 38.6135,25.2798 38.5,24C 39.9852,21.683 41.6519,19.5164 43.5,17.5 Z"/></g>
<g><path style="opacity:0.745" fill="#dadcdf" d="M 49.5,23.5 C 50.8333,23.5 52.1667,23.5 53.5,23.5C 52.37,27.3129 50.0367,30.3129 46.5,32.5C 45.2801,32.1131 44.6135,31.2798 44.5,30C 45.9852,27.683 47.6519,25.5164 49.5,23.5 Z"/></g>
<g><path style="opacity:0.939" fill="#68b3f4" d="M 29.5,48.5 C 27.6372,48.8459 26.8039,49.8459 27,51.5C 28.6995,52.4061 30.5328,52.7394 32.5,52.5C 32.9617,54.7567 33.9617,56.7567 35.5,58.5C 48.1535,59.3326 60.8202,59.8326 73.5,60C 75.9494,60.7246 78.2827,61.7246 80.5,63C 86.3333,67.5 92.1667,72 98,76.5C 101.748,84.7218 99.2476,88.5552 90.5,88C 84.8038,83.8241 79.1371,79.6574 73.5,75.5C 72.4617,73.4805 71.1284,73.1472 69.5,74.5C 58.5,74.5 47.5,74.5 36.5,74.5C 35.1667,74.5 33.8333,74.5 32.5,74.5C 26.7308,75.3656 22.2308,73.3656 19,68.5C 12.7258,56.9409 6.22579,45.6076 -0.5,34.5C -0.5,33.1667 -0.5,31.8333 -0.5,30.5C 5.38439,26.7801 11.3844,26.6134 17.5,30C 21.8841,35.9395 25.8841,42.1061 29.5,48.5 Z"/></g>
<g><path style="opacity:0.724" fill="#dadcdf" d="M 55.5,29.5 C 56.8333,29.5 58.1667,29.5 59.5,29.5C 58.37,33.3129 56.0367,36.3129 52.5,38.5C 51.2801,38.1131 50.6135,37.2798 50.5,36C 51.9852,33.683 53.6519,31.5164 55.5,29.5 Z"/></g>
<g><path style="opacity:0.799" fill="#303132" d="M 29.5,48.5 C 38.8393,48.3335 48.1726,48.5002 57.5,49C 60.6079,51.2392 62.6079,54.0725 63.5,57.5C 60.033,57.5543 57.3663,56.0543 55.5,53C 47.8406,52.5003 40.1739,52.3336 32.5,52.5C 30.5328,52.7394 28.6995,52.4061 27,51.5C 26.8039,49.8459 27.6372,48.8459 29.5,48.5 Z"/></g>
<g><path style="opacity:0.814" fill="#2f302f" d="M 32.5,74.5 C 33.8333,74.5 35.1667,74.5 36.5,74.5C 36.5,78.1667 36.5,81.8333 36.5,85.5C 35.1667,85.5 33.8333,85.5 32.5,85.5C 32.5,81.8333 32.5,78.1667 32.5,74.5 Z"/></g>
<g><path style="opacity:0.813" fill="#313334" d="M 73.5,75.5 C 73.5,78.8333 73.5,82.1667 73.5,85.5C 72.1667,85.5 70.8333,85.5 69.5,85.5C 69.5,81.8333 69.5,78.1667 69.5,74.5C 71.1284,73.1472 72.4617,73.4805 73.5,75.5 Z"/></g>
<g><path style="opacity:0.932" fill="#dadbdf" d="M 32.5,85.5 C 33.8333,85.5 35.1667,85.5 36.5,85.5C 47.5,85.5 58.5,85.5 69.5,85.5C 70.8333,85.5 72.1667,85.5 73.5,85.5C 83.9922,83.8335 88.8256,88.1669 88,98.5C 86.6032,100.07 85.1032,101.404 83.5,102.5C 59.8333,102.5 36.1667,102.5 12.5,102.5C 6.34504,98.8372 5.0117,93.6705 8.5,87C 16.3888,85.5648 24.3888,85.0648 32.5,85.5 Z"/></g>
</svg>
