<?xml version="1.0" encoding="UTF-8"?>
<!DOCTYPE svg PUBLIC "-//W3C//DTD SVG 1.1//EN" "http://www.w3.org/Graphics/SVG/1.1/DTD/svg11.dtd">
<svg xmlns="http://www.w3.org/2000/svg" version="1.1" width="98px" height="108px" style="shape-rendering:geometricPrecision; text-rendering:geometricPrecision; image-rendering:optimizeQuality; fill-rule:evenodd; clip-rule:evenodd" xmlns:xlink="http://www.w3.org/1999/xlink">
<g><path style="opacity:0.847" fill="#343434" d="M 10.5,-0.5 C 13.5,-0.5 16.5,-0.5 19.5,-0.5C 25.3104,3.54101 28.3104,9.20767 28.5,16.5C 28.0083,22.8159 25.675,28.3159 21.5,33C 30.6775,41.41 40.0109,49.5766 49.5,57.5C 48.8333,58.8333 47.8333,59.8333 46.5,60.5C 36.5272,51.3653 26.3605,42.3653 16,33.5C 18.5224,30.587 20.8557,27.2537 23,23.5C 25.5644,16.8461 24.731,10.6794 20.5,5C 14.5875,1.18619 9.75418,2.35285 6,8.5C 3.13451,14.6907 2.80117,21.024 5,27.5C 18.373,39.0444 31.873,50.3777 45.5,61.5C 45.573,63.0269 44.9063,64.0269 43.5,64.5C 30.6637,53.8338 17.6637,43.3338 4.5,33C 2.13171,30.0926 0.465044,26.9259 -0.5,23.5C -0.5,20.5 -0.5,17.5 -0.5,14.5C 0.979084,7.86726 4.64575,2.86726 10.5,-0.5 Z"/></g>
<g><path style="opacity:0.849" fill="#343434" d="M 97.5,16.5 C 97.5,17.5 97.5,18.5 97.5,19.5C 93.2042,29.2052 89.3709,39.2052 86,49.5C 82.531,52.9163 78.8644,53.2496 75,50.5C 74.8113,45.7492 74.1447,41.0826 73,36.5C 72.6667,40.8333 72.3333,45.1667 72,49.5C 67.864,53.6335 63.864,53.3002 60,48.5C 57.3951,40.6866 54.3951,33.02 51,25.5C 47.2544,12.6517 51.9211,4.98508 65,2.5C 68.2003,2.14653 70.867,3.14653 73,5.5C 85.3363,-0.218695 93.5029,3.44797 97.5,16.5 Z"/></g>
<g><path style="opacity:1" fill="#edeff1" d="M 46.5,60.5 C 46.5,61.1667 46.1667,61.5 45.5,61.5C 31.873,50.3777 18.373,39.0444 5,27.5C 2.80117,21.024 3.13451,14.6907 6,8.5C 9.75418,2.35285 14.5875,1.18619 20.5,5C 24.731,10.6794 25.5644,16.8461 23,23.5C 20.8557,27.2537 18.5224,30.587 16,33.5C 26.3605,42.3653 36.5272,51.3653 46.5,60.5 Z"/></g>
<g><path style="opacity:1" fill="#6cb5f5" d="M 11.5,6.5 C 18.4401,5.32849 21.7734,8.32849 21.5,15.5C 21.9831,22.5584 18.9831,27.225 12.5,29.5C 7.81791,27.6458 5.81791,24.1458 6.5,19C 6.37853,14.0819 8.0452,9.91526 11.5,6.5 Z"/></g>
<g><path style="opacity:1" fill="#d9dade" d="M 62.5,5.5 C 66.3963,5.61224 70.063,6.61224 73.5,8.5C 81.5154,3.88921 88.0154,5.55588 93,13.5C 93.6667,16.1667 93.6667,18.8333 93,21.5C 89.2088,29.5396 86.2088,37.8729 84,46.5C 82.5402,49.2098 80.5402,49.8765 78,48.5C 77.6927,43.1181 77.026,37.7848 76,32.5C 73.4781,29.6736 71.4781,30.0069 70,33.5C 68.809,38.7674 68.309,44.1007 68.5,49.5C 65.7374,49.2562 63.5707,47.9229 62,45.5C 59.3233,35.9693 56.1566,26.636 52.5,17.5C 54.0195,11.9812 57.3528,7.98116 62.5,5.5 Z"/></g>
<g><path style="opacity:0.93" fill="#68b3f4" d="M 49.5,57.5 C 52.9278,57.5465 55.9278,58.7132 58.5,61C 70.1667,70.6667 81.8333,80.3333 93.5,90C 97.9225,95.8912 96.9225,100.891 90.5,105C 88.1667,105.667 85.8333,105.667 83.5,105C 70.6667,93.5 57.8333,82 45,70.5C 43.872,68.6547 43.372,66.6547 43.5,64.5C 44.9063,64.0269 45.573,63.0269 45.5,61.5C 46.1667,61.5 46.5,61.1667 46.5,60.5C 47.8333,59.8333 48.8333,58.8333 49.5,57.5 Z"/></g>
<g><path style="opacity:0.856" fill="#343434" d="M 24.5,107.5 C 24.1667,107.5 23.8333,107.5 23.5,107.5C 22.3117,106.636 21.1451,105.636 20,104.5C 19.3333,92.5 18.6667,92.5 18,104.5C 17.015,105.814 15.8484,106.814 14.5,107.5C 14.1667,107.5 13.8333,107.5 13.5,107.5C 11.3331,106.802 9.49981,105.469 8,103.5C 5.91178,96.0893 3.07845,89.0893 -0.5,82.5C -0.5,79.8333 -0.5,77.1667 -0.5,74.5C 3.67419,65.9404 10.1742,63.6071 19,67.5C 26.086,63.9175 32.086,65.2508 37,71.5C 38.5204,75.3749 38.8538,79.3749 38,83.5C 34.9045,89.5458 32.5712,95.8792 31,102.5C 29.1951,104.826 27.0284,106.492 24.5,107.5 Z"/></g>
<g><path style="opacity:1" fill="#d9d9dd" d="M 9.5,68.5 C 12.9145,68.2612 16.0812,68.9278 19,70.5C 25.5125,67.0034 30.8458,68.3368 35,74.5C 35.6667,76.8333 35.6667,79.1667 35,81.5C 31.8765,87.5366 29.5432,93.8699 28,100.5C 26.7574,102.833 25.0907,103.5 23,102.5C 22.6667,98.5 22.3333,94.5 22,90.5C 19.5652,87.7723 17.5652,88.1057 16,91.5C 15.5012,95.4862 15.3345,99.4862 15.5,103.5C 13.6096,103.703 12.1096,103.037 11,101.5C 8.54956,93.4782 5.71622,85.6449 2.5,78C 3.51638,73.8232 5.84971,70.6565 9.5,68.5 Z"/></g>
</svg>
