<?xml version="1.0" encoding="UTF-8"?>
<!DOCTYPE svg PUBLIC "-//W3C//DTD SVG 1.1//EN" "http://www.w3.org/Graphics/SVG/1.1/DTD/svg11.dtd">
<svg xmlns="http://www.w3.org/2000/svg" version="1.1" width="104px" height="103px" style="shape-rendering:geometricPrecision; text-rendering:geometricPrecision; image-rendering:optimizeQuality; fill-rule:evenodd; clip-rule:evenodd" xmlns:xlink="http://www.w3.org/1999/xlink">
<g><path style="opacity:0.819" fill="#323232" d="M 86.5,-0.5 C 89.5,-0.5 92.5,-0.5 95.5,-0.5C 99.1667,1.16667 101.833,3.83333 103.5,7.5C 103.5,28.8333 103.5,50.1667 103.5,71.5C 101.119,78.1352 96.2852,81.8019 89,82.5C 87.7202,82.3865 86.8869,81.7199 86.5,80.5C 89.2117,78.3951 92.2117,76.7284 95.5,75.5C 96.8613,73.9716 98.028,72.3049 99,70.5C 99.6667,50.1667 99.6667,29.8333 99,9.5C 95.9598,3.63181 91.4598,2.13181 85.5,5C 84.2986,5.90252 83.4652,7.06919 83,8.5C 82.6667,27.5 82.3333,46.5 82,65.5C 78.9996,84.9008 68.1662,97.2341 49.5,102.5C 43.8333,102.5 38.1667,102.5 32.5,102.5C 13.8243,97.4926 2.82426,85.4926 -0.5,66.5C -0.5,63.1667 -0.5,59.8333 -0.5,56.5C 5.48623,30.7113 21.8196,18.878 48.5,21C 62.0793,23.5783 71.9127,31.0783 78,43.5C 78.3333,31.1667 78.6667,18.8333 79,6.5C 80.7424,3.25432 83.2424,0.920984 86.5,-0.5 Z"/></g>
<g><path style="opacity:1" fill="#d9dadf" d="M 35.5,23.5 C 57.3193,22.8145 71.4859,32.8145 78,53.5C 80.6503,77.3888 70.4836,92.5554 47.5,99C 24.917,100.966 10.417,91.1326 4,69.5C 1.40011,44.996 11.9001,29.6627 35.5,23.5 Z"/></g>
<g><path style="opacity:1" fill="#74b7f3" d="M 40.5,42.5 C 52.5124,43.1791 58.8457,49.5124 59.5,61.5C 58.1336,76.0152 50.1336,82.1819 35.5,80C 25.9831,76.8347 21.8164,70.3347 23,60.5C 25.6359,73.4764 33.4692,78.9764 46.5,77C 59.4646,68.9509 60.7979,59.2842 50.5,48C 47.3522,46.3953 44.0189,45.3953 40.5,45C 39.4019,44.2303 39.4019,43.397 40.5,42.5 Z"/></g>
</svg>
