<?xml version="1.0" encoding="UTF-8"?>
<!DOCTYPE svg PUBLIC "-//W3C//DTD SVG 1.1//EN" "http://www.w3.org/Graphics/SVG/1.1/DTD/svg11.dtd">
<svg xmlns="http://www.w3.org/2000/svg" version="1.1" width="103px" height="103px" style="shape-rendering:geometricPrecision; text-rendering:geometricPrecision; image-rendering:optimizeQuality; fill-rule:evenodd; clip-rule:evenodd" xmlns:xlink="http://www.w3.org/1999/xlink">
<g><path style="opacity:0.958" fill="#69b3f4" d="M 34.5,-0.5 C 41.5,-0.5 48.5,-0.5 55.5,-0.5C 59.6509,0.994636 61.9842,3.99464 62.5,8.5C 62.5,13.8333 62.5,19.1667 62.5,24.5C 62.3234,28.5257 60.3234,31.359 56.5,33C 48.8333,33.6667 41.1667,33.6667 33.5,33C 29.9106,32.2458 27.9106,30.0791 27.5,26.5C 27.5,19.8333 27.5,13.1667 27.5,6.5C 28.8653,3.13463 31.1986,0.8013 34.5,-0.5 Z"/></g>
<g><path style="opacity:0.865" fill="#dadbe0" d="M 27.5,6.5 C 27.5,13.1667 27.5,19.8333 27.5,26.5C 22.8798,26.054 19.8798,23.554 18.5,19C 12.0865,18.7932 5.75314,18.2932 -0.5,17.5C -0.5,16.8333 -0.5,16.1667 -0.5,15.5C 5.75314,14.7068 12.0865,14.2068 18.5,14C 19.8415,9.49058 22.8415,6.99058 27.5,6.5 Z"/></g>
<g><path style="opacity:0.956" fill="#dadcdf" d="M 62.5,8.5 C 69.8409,8.33368 77.1742,8.50034 84.5,9C 91.0972,11.2634 95.2639,15.7634 97,22.5C 97.4998,33.1615 97.6665,43.8281 97.5,54.5C 91.8333,54.5 86.1667,54.5 80.5,54.5C 80.8318,44.8104 80.4984,35.1437 79.5,25.5C 73.8955,24.5456 68.2289,24.2123 62.5,24.5C 62.5,19.1667 62.5,13.8333 62.5,8.5 Z"/></g>
<g><path style="opacity:0.818" fill="#343434" d="M 42.5,102.5 C 40.1667,102.5 37.8333,102.5 35.5,102.5C 34.6799,100.86 33.8466,99.1932 33,97.5C 31.6744,72.1901 30.3411,72.1901 29,97.5C 28.6339,99.4517 27.8005,101.118 26.5,102.5C 24.1667,102.5 21.8333,102.5 19.5,102.5C 15.8174,100.17 13.3174,96.8367 12,92.5C 8.84626,80.7112 5.01293,69.2112 0.5,58C 1.99947,45.6683 8.99947,38.8349 21.5,37.5C 24.9794,38.16 28.146,39.4934 31,41.5C 41.161,35.9299 50.161,37.5965 58,46.5C 61.1044,51.4402 62.1044,56.7736 61,62.5C 56.0124,73.1284 52.0124,84.1284 49,95.5C 47.3059,98.3576 45.1393,100.691 42.5,102.5 Z"/></g>
<g><path style="opacity:1" fill="#d9dadd" d="M 16.5,41.5 C 19.1873,41.3359 21.854,41.5026 24.5,42C 26.4434,43.5555 28.6101,44.7221 31,45.5C 41.4749,39.2066 50.1415,41.2066 57,51.5C 58.8744,55.5203 58.8744,59.5203 57,63.5C 52.3462,73.1271 48.6795,83.1271 46,93.5C 44.2644,97.8621 41.2644,99.5288 37,98.5C 36.9737,90.6295 35.807,82.9628 33.5,75.5C 29.7854,74.018 27.6187,75.3513 27,79.5C 25.9082,85.7822 25.2415,92.1156 25,98.5C 20.7356,99.5288 17.7356,97.8621 16,93.5C 13.019,81.2223 8.85233,69.389 3.5,58C 4.72366,49.9537 9.05699,44.4537 16.5,41.5 Z"/></g>
<g><path style="opacity:1" fill="#fbfcfc" d="M 42.5,48.5 C 47.9292,49.4285 51.2625,52.5952 52.5,58C 52.6125,59.6624 51.9458,60.8291 50.5,61.5C 49.7719,58.7875 48.9385,56.1209 48,53.5C 46.4157,52.1387 44.5824,51.472 42.5,51.5C 42.5,50.5 42.5,49.5 42.5,48.5 Z"/></g>
<g><path style="opacity:0.955" fill="#69b4f4" d="M 80.5,54.5 C 86.1667,54.5 91.8333,54.5 97.5,54.5C 99.233,68.923 100.9,83.2563 102.5,97.5C 102.5,98.8333 102.5,100.167 102.5,101.5C 101.833,101.5 101.5,101.833 101.5,102.5C 93.1667,102.5 84.8333,102.5 76.5,102.5C 76.9227,86.5093 78.2561,70.5093 80.5,54.5 Z"/></g>
</svg>
