<?xml version="1.0" encoding="UTF-8"?>
<!DOCTYPE svg PUBLIC "-//W3C//DTD SVG 1.1//EN" "http://www.w3.org/Graphics/SVG/1.1/DTD/svg11.dtd">
<svg xmlns="http://www.w3.org/2000/svg" version="1.1" width="103px" height="103px" style="shape-rendering:geometricPrecision; text-rendering:geometricPrecision; image-rendering:optimizeQuality; fill-rule:evenodd; clip-rule:evenodd" xmlns:xlink="http://www.w3.org/1999/xlink">
<g><path style="opacity:0.914" fill="#68b3f4" d="M 15.5,-0.5 C 16.8333,-0.5 18.1667,-0.5 19.5,-0.5C 32.5915,2.25888 40.2581,10.2589 42.5,23.5C 42.5,24.5 42.5,25.5 42.5,26.5C 42.5,26.8333 42.5,27.1667 42.5,27.5C 37.9566,25.9457 33.6233,26.279 29.5,28.5C 30.4533,22.8893 28.4533,18.3893 23.5,15C 19.6113,13.5728 15.7779,12.0728 12,10.5C 10.0526,5.84227 11.2192,2.17561 15.5,-0.5 Z"/></g>
<g><path style="opacity:0.917" fill="#68b3f4" d="M 28.5,29.5 C 25.7214,33.7329 24.0547,38.3995 23.5,43.5C 10.8798,40.5447 2.87985,32.878 -0.5,20.5C -0.5,18.8333 -0.5,17.1667 -0.5,15.5C 2.72623,11.0363 6.72623,10.3697 11.5,13.5C 12.2633,21.42 16.2633,26.92 23.5,30C 25.265,30.6397 26.9317,30.4731 28.5,29.5 Z"/></g>
<g><path style="opacity:0.849" fill="#343535" d="M 42.5,23.5 C 55.7377,23.9675 67.4044,28.4675 77.5,37C 89.267,46.5707 97.6003,58.404 102.5,72.5C 102.5,74.5 102.5,76.5 102.5,78.5C 99.8992,82.0866 96.5658,82.92 92.5,81C 86.6041,64.4412 76.2708,51.4412 61.5,42C 57.3707,39.6793 53.0374,37.846 48.5,36.5C 47.8077,42.0243 44.9744,46.0243 40,48.5C 38.627,50.6954 38.2937,53.0288 39,55.5C 44.7289,68.126 53.5622,77.9593 65.5,85C 70.8055,87.3179 75.9722,89.8179 81,92.5C 82.92,96.5658 82.0866,99.8992 78.5,102.5C 76.5,102.5 74.5,102.5 72.5,102.5C 51.0595,94.2292 35.5595,79.5625 26,58.5C 24.1053,53.6751 23.272,48.6751 23.5,43.5C 24.0547,38.3995 25.7214,33.7329 28.5,29.5C 28.5,28.8333 28.8333,28.5 29.5,28.5C 33.6233,26.279 37.9566,25.9457 42.5,27.5C 44.002,29.175 45.3353,31.0083 46.5,33C 63.3724,36.8522 76.5391,46.0188 86,60.5C 89.2149,66.1428 92.0482,71.9761 94.5,78C 97.2247,78.8032 98.8914,77.8032 99.5,75C 92.1997,54.6963 78.8663,39.6963 59.5,30C 54.009,27.8896 48.3423,26.723 42.5,26.5C 42.5,25.5 42.5,24.5 42.5,23.5 Z"/></g>
<g><path style="opacity:1" fill="#d4d5d9" d="M 42.5,26.5 C 48.3423,26.723 54.009,27.8896 59.5,30C 78.8663,39.6963 92.1997,54.6963 99.5,75C 98.8914,77.8032 97.2247,78.8032 94.5,78C 92.0482,71.9761 89.2149,66.1428 86,60.5C 76.5391,46.0188 63.3724,36.8522 46.5,33C 45.3353,31.0083 44.002,29.175 42.5,27.5C 42.5,27.1667 42.5,26.8333 42.5,26.5 Z"/></g>
<g><path style="opacity:1" fill="#d5d6da" d="M 33.5,29.5 C 42.5564,29.0429 45.7231,33.0429 43,41.5C 34.5625,47.3556 33.2291,54.6889 39,63.5C 48.2781,78.1069 61.1114,88.2736 77.5,94C 78.8333,95.6667 78.8333,97.3333 77.5,99C 73.3017,99.0499 69.3017,98.0499 65.5,96C 49.9474,87.4475 38.1141,75.2808 30,59.5C 26.6068,52.032 25.9401,44.3653 28,36.5C 29.6665,34.0043 31.4998,31.671 33.5,29.5 Z"/></g>
</svg>
