<?xml version="1.0" encoding="UTF-8"?>
<!DOCTYPE svg PUBLIC "-//W3C//DTD SVG 1.1//EN" "http://www.w3.org/Graphics/SVG/1.1/DTD/svg11.dtd">
<svg xmlns="http://www.w3.org/2000/svg" version="1.1" width="105px" height="105px" style="shape-rendering:geometricPrecision; text-rendering:geometricPrecision; image-rendering:optimizeQuality; fill-rule:evenodd; clip-rule:evenodd" xmlns:xlink="http://www.w3.org/1999/xlink">
<g><path style="opacity:0.851" fill="#353536" d="M 37.5,-0.5 C 39.1667,-0.5 40.8333,-0.5 42.5,-0.5C 48.4721,0.403843 53.6387,3.07051 58,7.5C 61.689,17.8771 66.189,27.8771 71.5,37.5C 71.6495,38.552 71.4828,39.552 71,40.5C 60.2168,51.7882 49.0501,62.4549 37.5,72.5C 27.9382,67.2228 17.9382,62.7228 7.5,59C 4.16083,55.5179 1.49416,51.6845 -0.5,47.5C -0.5,43.1667 -0.5,38.8333 -0.5,34.5C 2.28944,25.2124 8.45611,19.5457 18,17.5C 20.2177,6.77975 26.7177,0.779754 37.5,-0.5 Z"/></g>
<g><path style="opacity:1" fill="#d9dade" d="M 34.5,3.5 C 42.3715,2.18155 49.2048,4.18155 55,9.5C 58.8233,19.4641 63.3233,29.1308 68.5,38.5C 58.5143,48.9859 48.3476,59.3192 38,69.5C 29.0195,63.8431 19.5195,59.3431 9.5,56C -0.0723697,45.0462 0.260964,34.3795 10.5,24C 18.7056,23.7945 22.8723,19.6278 23,11.5C 26.1496,7.68926 29.983,5.0226 34.5,3.5 Z"/></g>
<g><path style="opacity:1" fill="#fdfdfd" d="M 36.5,11.5 C 39.8499,11.335 43.1832,11.5017 46.5,12C 48.2273,13.3894 49.5606,15.0561 50.5,17C 50.1667,17.5 49.8333,18 49.5,18.5C 45.6819,13.1656 40.8485,12.1656 35,15.5C 34.5,15.1667 34,14.8333 33.5,14.5C 34.3398,13.265 35.3398,12.265 36.5,11.5 Z"/></g>
<g><path style="opacity:0.97" fill="#dbdce1" d="M 71.5,37.5 C 77.0834,44.265 78.7501,51.9316 76.5,60.5C 75.3734,61.1217 74.3734,61.955 73.5,63C 75.019,64.3513 76.3523,65.8513 77.5,67.5C 74.2152,68.3236 70.8818,68.8236 67.5,69C 66.8333,69.6667 66.1667,70.3333 65.5,71C 68.4816,71.498 71.4816,71.6646 74.5,71.5C 71.3586,72.3213 68.0252,72.8213 64.5,73C 63.944,73.3826 63.6107,73.8826 63.5,74.5C 61.9731,74.427 60.9731,75.0937 60.5,76.5C 52.1414,79.3861 44.4747,78.0528 37.5,72.5C 49.0501,62.4549 60.2168,51.7882 71,40.5C 71.4828,39.552 71.6495,38.552 71.5,37.5 Z"/></g>
<g><path style="opacity:0.933" fill="#6bb5f5" d="M 76.5,60.5 C 86.2282,70.2249 95.5616,80.2249 104.5,90.5C 104.5,94.8333 104.5,99.1667 104.5,103.5C 103.833,103.5 103.5,103.833 103.5,104.5C 98.5,104.5 93.5,104.5 88.5,104.5C 78.8604,95.5271 69.5271,86.1937 60.5,76.5C 60.9731,75.0937 61.9731,74.427 63.5,74.5C 63.6107,75.1174 63.944,75.6174 64.5,76C 71.5237,76.8311 78.5237,76.6644 85.5,75.5C 82.8245,71.8476 79.1578,70.5142 74.5,71.5C 71.4816,71.6646 68.4816,71.498 65.5,71C 66.1667,70.3333 66.8333,69.6667 67.5,69C 70.8818,68.8236 74.2152,68.3236 77.5,67.5C 76.3523,65.8513 75.019,64.3513 73.5,63C 74.3734,61.955 75.3734,61.1217 76.5,60.5 Z"/></g>
<g><path style="opacity:1" fill="#f4f9fe" d="M 74.5,71.5 C 79.1578,70.5142 82.8245,71.8476 85.5,75.5C 78.5237,76.6644 71.5237,76.8311 64.5,76C 63.944,75.6174 63.6107,75.1174 63.5,74.5C 63.6107,73.8826 63.944,73.3826 64.5,73C 68.0252,72.8213 71.3586,72.3213 74.5,71.5 Z"/></g>
<g><path style="opacity:1" fill="#f5fafe" d="M 68.5,80.5 C 75.6549,79.3448 82.9882,79.1782 90.5,80C 91.6872,81.0195 92.6872,82.1861 93.5,83.5C 86.5237,84.6644 79.5237,84.8311 72.5,84C 71.2949,82.6244 69.9616,81.4577 68.5,80.5 Z"/></g>
<g><path style="opacity:1" fill="#fdfdfe" d="M 99.5,90.5 C 93.3554,91.4902 87.0221,91.8235 80.5,91.5C 79.0384,90.5423 77.7051,89.3756 76.5,88C 83.856,87.1687 91.1893,87.3354 98.5,88.5C 98.8627,89.1835 99.1961,89.8501 99.5,90.5 Z"/></g>
<g><path style="opacity:1" fill="#b3d9f9" d="M 99.5,90.5 C 100.043,90.56 100.376,90.8933 100.5,91.5C 93.6778,92.8181 87.0112,92.8181 80.5,91.5C 87.0221,91.8235 93.3554,91.4902 99.5,90.5 Z"/></g>
<g><path style="opacity:1" fill="#f8fbfe" d="M 84.5,96.5 C 89.6405,95.5119 94.9738,95.1786 100.5,95.5C 100.5,97.5 100.5,99.5 100.5,101.5C 94.1506,102.686 88.8172,101.02 84.5,96.5 Z"/></g>
</svg>
