<?xml version="1.0" encoding="UTF-8"?>
<!DOCTYPE svg PUBLIC "-//W3C//DTD SVG 1.1//EN" "http://www.w3.org/Graphics/SVG/1.1/DTD/svg11.dtd">
<svg xmlns="http://www.w3.org/2000/svg" version="1.1" width="105px" height="104px" style="shape-rendering:geometricPrecision; text-rendering:geometricPrecision; image-rendering:optimizeQuality; fill-rule:evenodd; clip-rule:evenodd" xmlns:xlink="http://www.w3.org/1999/xlink">
<g><path style="opacity:0.911" fill="#383839" d="M 32.5,-0.5 C 35.1667,-0.5 37.8333,-0.5 40.5,-0.5C 44.1311,1.44064 47.7978,3.44064 51.5,5.5C 55.2022,3.44064 58.8689,1.44064 62.5,-0.5C 65.1667,-0.5 67.8333,-0.5 70.5,-0.5C 93.1468,5.79258 100.813,20.1259 93.5,42.5C 97.4148,42.9926 101.081,43.9926 104.5,45.5C 104.5,64.5 104.5,83.5 104.5,102.5C 103.833,102.5 103.5,102.833 103.5,103.5C 68.8333,103.5 34.1667,103.5 -0.5,103.5C -0.5,83.8333 -0.5,64.1667 -0.5,44.5C 2.8004,43.907 6.13373,43.2403 9.5,42.5C 2.19901,20.0998 9.86568,5.76646 32.5,-0.5 Z"/></g>
<g><path style="opacity:1" fill="#d9dade" d="M 63.5,2.5 C 85.4912,4.30203 94.9912,15.9687 92,37.5C 84.5533,52.1732 78.8867,67.5065 75,83.5C 72.5007,88.0059 68.834,91.0059 64,92.5C 62.2894,92.5607 60.956,91.8941 60,90.5C 59.0846,79.7987 57.7513,69.132 56,58.5C 54.0604,55.392 51.3937,54.7253 48,56.5C 47.0266,58.3921 46.3599,60.3921 46,62.5C 44.8686,71.1237 44.202,79.7904 44,88.5C 42.6661,92.1044 40.1661,93.271 36.5,92C 31.8558,89.3585 28.6891,85.5252 27,80.5C 23.1133,64.5065 17.4467,49.1732 10,34.5C 8.33739,20.6584 13.8374,10.8251 26.5,5C 31.4107,3.50763 36.4107,3.1743 41.5,4C 49.2955,10.2004 56.6288,9.70038 63.5,2.5 Z"/></g>
<g><path style="opacity:1" fill="#fbfbfb" d="M 68.5,10.5 C 82.6224,12.2816 88.6224,20.115 86.5,34C 86.1667,34.1667 85.8333,34.3333 85.5,34.5C 86.5567,22.4083 81.2233,15.2416 69.5,13C 68.7476,12.3292 68.4142,11.4959 68.5,10.5 Z"/></g>
<g><path style="opacity:1" fill="#fcfcfc" d="M 25.5,15.5 C 33.775,14.7064 36.9417,18.373 35,26.5C 31.3409,30.1151 27.3409,30.4485 23,27.5C 20.5112,22.7565 21.3445,18.7565 25.5,15.5 Z"/></g>
<g><path style="opacity:1" fill="#dcdde1" d="M 25.5,18.5 C 33.5432,18.0028 35.2099,20.8361 30.5,27C 28.2992,27.8249 26.4659,27.3249 25,25.5C 24.2967,23.0709 24.4634,20.7375 25.5,18.5 Z"/></g>
<g><path style="opacity:1" fill="#fafbfb" d="M 7.5,47.5 C 3.50974,52.8005 3.50974,58.1338 7.5,63.5C 5.48957,69.271 6.8229,74.1044 11.5,78C 12.448,78.4828 13.448,78.6495 14.5,78.5C 14.7521,88.1067 19.4187,92.1067 28.5,90.5C 32.3227,94.5758 36.9893,96.0758 42.5,95C 45.0943,93.661 46.5943,91.4944 47,88.5C 47.1221,78.4202 47.9555,68.4202 49.5,58.5C 50.8333,58.5 52.1667,58.5 53.5,58.5C 55.0878,68.4097 55.9212,78.4097 56,88.5C 57.2393,95.0717 61.0727,97.2384 67.5,95C 69.3875,93.6063 71.3875,92.4396 73.5,91.5C 82.7017,91.963 87.3684,87.6297 87.5,78.5C 91.3819,77.7892 93.8819,75.4558 95,71.5C 95.6595,68.9528 95.4929,66.4528 94.5,64C 98.3301,58.4169 98.3301,52.9169 94.5,47.5C 96.5,47.5 98.5,47.5 100.5,47.5C 100.5,64.8333 100.5,82.1667 100.5,99.5C 67.8333,99.5 35.1667,99.5 2.5,99.5C 2.5,82.1667 2.5,64.8333 2.5,47.5C 4.16667,47.5 5.83333,47.5 7.5,47.5 Z"/></g>
<g><path style="opacity:1" fill="#6ab3f2" d="M 7.5,47.5 C 9.5,47.5 11.5,47.5 13.5,47.5C 17.6118,58.6053 21.1118,69.9386 24,81.5C 25.5266,84.5531 27.0266,87.5531 28.5,90.5C 19.4187,92.1067 14.7521,88.1067 14.5,78.5C 13.448,78.6495 12.448,78.4828 11.5,78C 6.8229,74.1044 5.48957,69.271 7.5,63.5C 3.50974,58.1338 3.50974,52.8005 7.5,47.5 Z"/></g>
<g><path style="opacity:1" fill="#6ab2f2" d="M 94.5,47.5 C 98.3301,52.9169 98.3301,58.4169 94.5,64C 95.4929,66.4528 95.6595,68.9528 95,71.5C 93.8819,75.4558 91.3819,77.7892 87.5,78.5C 87.3684,87.6297 82.7017,91.963 73.5,91.5C 75.5749,88.3544 77.4082,85.0211 79,81.5C 81.5337,69.8545 85.367,58.6878 90.5,48C 91.7932,47.51 93.1266,47.3433 94.5,47.5 Z"/></g>
</svg>
