<?xml version="1.0" encoding="UTF-8"?>
<!DOCTYPE svg PUBLIC "-//W3C//DTD SVG 1.1//EN" "http://www.w3.org/Graphics/SVG/1.1/DTD/svg11.dtd">
<svg xmlns="http://www.w3.org/2000/svg" version="1.1" width="109px" height="98px" style="shape-rendering:geometricPrecision; text-rendering:geometricPrecision; image-rendering:optimizeQuality; fill-rule:evenodd; clip-rule:evenodd" xmlns:xlink="http://www.w3.org/1999/xlink">
<g><path style="opacity:0.905" fill="#dadbdf" d="M 20.5,-0.5 C 21.8333,-0.5 23.1667,-0.5 24.5,-0.5C 31.1148,8.27833 31.1148,16.945 24.5,25.5C 22.544,23.8249 21.2107,24.1582 20.5,26.5C 12.5084,17.5443 12.5084,8.54427 20.5,-0.5 Z"/></g>
<g><path style="opacity:0.83" fill="#343434" d="M 108.5,38.5 C 108.5,40.8333 108.5,43.1667 108.5,45.5C 102.211,58.8623 97.3778,72.8623 94,87.5C 92.0221,91.6381 89.1888,94.9714 85.5,97.5C 83.5,97.5 81.5,97.5 79.5,97.5C 77.8564,96.6836 76.6897,95.3502 76,93.5C 75.935,84.3852 74.935,75.3852 73,66.5C 71.9562,68.7148 71.2895,71.0481 71,73.5C 70.6667,79.5 70.3333,85.5 70,91.5C 69.4363,93.8867 68.2696,95.8867 66.5,97.5C 64.5,97.5 62.5,97.5 60.5,97.5C 59.0131,96.1964 57.3464,95.0298 55.5,94C 38.5291,91.6951 27.1958,82.5284 21.5,66.5C 21.6107,65.8826 21.944,65.3826 22.5,65C 21.4604,61.5998 20.7938,58.0998 20.5,54.5C 20.5,51.1667 20.5,47.8333 20.5,44.5C 20.5,39.5 20.5,34.5 20.5,29.5C 20.5,28.5 20.5,27.5 20.5,26.5C 21.2107,24.1582 22.544,23.8249 24.5,25.5C 24.5,30.5 24.5,35.5 24.5,40.5C 23.2092,44.6011 23.2092,48.6011 24.5,52.5C 24.5,53.8333 24.5,55.1667 24.5,56.5C 23.7682,59.4273 23.9349,62.4273 25,65.5C 25.3826,66.056 25.8826,66.3893 26.5,66.5C 30.5323,78.6881 38.8656,86.0214 51.5,88.5C 49.0238,75.5953 44.8572,63.262 39,51.5C 34.2806,32.2573 41.614,20.924 61,17.5C 65.5699,17.7846 69.5699,19.4512 73,22.5C 83.9757,15.0555 93.9757,16.3888 103,26.5C 105.529,30.284 107.362,34.284 108.5,38.5 Z"/></g>
<g><path style="opacity:1" fill="#d8dade" d="M 57.5,20.5 C 59.5273,20.3379 61.5273,20.5045 63.5,21C 66.4639,22.973 69.6306,24.473 73,25.5C 86.5907,17.7621 96.924,21.0954 104,35.5C 105.652,43.8808 103.985,51.5474 99,58.5C 96.0411,68.97 92.7078,79.3033 89,89.5C 87.2609,91.7411 85.0942,93.4078 82.5,94.5C 80.8662,94.032 79.6995,93.032 79,91.5C 78.8222,83.4489 78.1555,75.4489 77,67.5C 76.8992,64.5648 75.3992,63.2315 72.5,63.5C 71.0055,63.7092 69.8388,64.3759 69,65.5C 67.1311,74.3983 66.1311,83.3983 66,92.5C 63.146,95.0164 60.4793,94.6831 58,91.5C 57,89.8333 56,88.1667 55,86.5C 52.256,73.6011 47.9227,61.2678 42,49.5C 38.7481,35.3372 43.9148,25.6705 57.5,20.5 Z"/></g>
<g><path style="opacity:0.915" fill="#dadcdf" d="M 20.5,29.5 C 20.5,34.5 20.5,39.5 20.5,44.5C 8.24486,43.4112 2.74486,36.7445 4,24.5C 10.1982,23.6197 15.6982,25.2864 20.5,29.5 Z"/></g>
<g><path style="opacity:1" fill="#fbfbfc" d="M 85.5,26.5 C 97.5807,27.9984 102.247,34.665 99.5,46.5C 97.6975,45.4061 97.3641,43.7394 98.5,41.5C 98.3078,39.4233 97.8078,37.4233 97,35.5C 93.4458,31.8463 89.6125,28.8463 85.5,26.5 Z"/></g>
<g><path style="opacity:1" fill="#6cb5f4" d="M 69.5,33.5 C 82.494,33.6565 87.3273,39.9898 84,52.5C 79.869,58.115 74.369,59.9483 67.5,58C 61.333,54.1548 59.1663,48.6548 61,41.5C 63.0982,37.8972 65.9315,35.2305 69.5,33.5 Z"/></g>
<g><path style="opacity:0.885" fill="#dadbdf" d="M 24.5,52.5 C 23.2092,48.6011 23.2092,44.6011 24.5,40.5C 34.7602,35.757 37.5936,38.4237 33,48.5C 30.7724,51.0779 27.9391,52.4113 24.5,52.5 Z"/></g>
<g><path style="opacity:1" fill="#f1f8fe" d="M 75.5,41.5 C 77.2252,41.8425 77.7252,42.8425 77,44.5C 74.1728,52.0269 71.3395,52.1936 68.5,45C 68.8333,44.5 69.1667,44 69.5,43.5C 70.7193,44.2634 71.7193,45.2634 72.5,46.5C 73.9524,45.0603 74.9524,43.3936 75.5,41.5 Z"/></g>
<g><path style="opacity:0.909" fill="#dadbdf" d="M 20.5,54.5 C 20.7938,58.0998 21.4604,61.5998 22.5,65C 21.944,65.3826 21.6107,65.8826 21.5,66.5C 10.6451,67.7513 3.31181,63.4179 -0.5,53.5C -0.5,52.8333 -0.5,52.1667 -0.5,51.5C 7.09647,48.1619 14.0965,49.1619 20.5,54.5 Z"/></g>
<g><path style="opacity:0.887" fill="#dadbdf" d="M 26.5,66.5 C 25.8826,66.3893 25.3826,66.056 25,65.5C 23.9349,62.4273 23.7682,59.4273 24.5,56.5C 28.2397,54.3274 32.2397,53.994 36.5,55.5C 36.8153,62.1959 33.482,65.8626 26.5,66.5 Z"/></g>
</svg>
