<?xml version="1.0" encoding="UTF-8"?>
<!DOCTYPE svg PUBLIC "-//W3C//DTD SVG 1.1//EN" "http://www.w3.org/Graphics/SVG/1.1/DTD/svg11.dtd">
<svg xmlns="http://www.w3.org/2000/svg" version="1.1" width="107px" height="106px" style="shape-rendering:geometricPrecision; text-rendering:geometricPrecision; image-rendering:optimizeQuality; fill-rule:evenodd; clip-rule:evenodd" xmlns:xlink="http://www.w3.org/1999/xlink">
<g><path style="opacity:0.93" fill="#dadbe0" d="M 19.5,-0.5 C 20.8333,-0.5 22.1667,-0.5 23.5,-0.5C 26.7547,5.00836 29.7547,10.675 32.5,16.5C 28.1667,22.8333 22.8333,28.1667 16.5,32.5C 11.0885,29.1055 5.42188,26.1055 -0.5,23.5C -0.5,22.1667 -0.5,20.8333 -0.5,19.5C 3.63668,19.5716 5.97001,17.5716 6.5,13.5C 8.04608,12.316 9.71275,11.316 11.5,10.5C 12.2331,6.62205 14.5665,4.28872 18.5,3.5C 19.2458,2.26381 19.5792,0.930472 19.5,-0.5 Z"/></g>
<g><path style="opacity:0.979" fill="#69b3f4" d="M 55.5,18.5 C 54.403,20.7742 53.0696,22.9409 51.5,25C 53.7822,28.2857 56.4489,31.2857 59.5,34C 57,36.5 54.5,39 52,41.5C 52.2743,46.3019 54.7743,49.6352 59.5,51.5C 62.7604,49.5815 65.7604,47.2482 68.5,44.5C 71.5,47.1667 74.5,49.8333 77.5,52.5C 79.5916,50.3951 81.9249,48.7284 84.5,47.5C 91.1174,52.5579 93.2841,59.2246 91,67.5C 89.9055,69.0779 89.0722,70.7446 88.5,72.5C 82.1667,76.8333 76.8333,82.1667 72.5,88.5C 65.9407,92.246 59.2741,92.4127 52.5,89C 40.3333,76.8333 28.1667,64.6667 16,52.5C 12.5778,45.6826 12.7444,39.0159 16.5,32.5C 22.8333,28.1667 28.1667,22.8333 32.5,16.5C 40.7531,10.7755 48.4198,11.4422 55.5,18.5 Z"/></g>
<g><path style="opacity:0.927" fill="#343435" d="M 84.5,47.5 C 81.9249,48.7284 79.5916,50.3951 77.5,52.5C 74.5,49.8333 71.5,47.1667 68.5,44.5C 65.7604,47.2482 62.7604,49.5815 59.5,51.5C 54.7743,49.6352 52.2743,46.3019 52,41.5C 54.5,39 57,36.5 59.5,34C 56.4489,31.2857 53.7822,28.2857 51.5,25C 53.0696,22.9409 54.403,20.7742 55.5,18.5C 57.1599,16.7516 59.1599,16.2516 61.5,17C 64,19.5 66.5,22 69,24.5C 71.5,22 74,19.5 76.5,17C 77.8333,16.3333 79.1667,16.3333 80.5,17C 82.7139,19.9254 85.0472,22.7587 87.5,25.5C 84.8333,28.5 82.1667,31.5 79.5,34.5C 81.483,36.9837 83.6496,39.3171 86,41.5C 86.7484,43.8401 86.2484,45.8401 84.5,47.5 Z"/></g>
<g><path style="opacity:1" fill="#f6f6f6" d="M 59.5,20.5 C 62.5121,23.3451 65.6788,26.0118 69,28.5C 72.2857,26.2178 75.2857,23.5511 78,20.5C 80.2951,22.08 81.6284,24.08 82,26.5C 79.4782,29.0218 76.9782,31.5218 74.5,34C 76.9653,37.3018 79.632,40.4685 82.5,43.5C 81.2842,46.2505 79.2842,47.4172 76.5,47C 73.9841,44.3167 71.3174,41.8167 68.5,39.5C 65.5,42.1667 62.5,44.8333 59.5,47.5C 57.2163,46.4182 56.0496,44.7516 56,42.5C 58.6833,39.9841 61.1833,37.3174 63.5,34.5C 60.8333,31.5 58.1667,28.5 55.5,25.5C 56.8569,23.8144 58.1902,22.1477 59.5,20.5 Z"/></g>
<g><path style="opacity:0.936" fill="#dadcdf" d="M 88.5,72.5 C 94.213,75.1066 99.713,78.1066 105,81.5C 105.832,85.1431 104.332,86.8098 100.5,86.5C 100.509,88.3084 100.009,89.9751 99,91.5C 95.3166,95.1521 91.3166,98.4854 87,101.5C 86.5899,102.901 86.0899,104.234 85.5,105.5C 84.1667,105.5 82.8333,105.5 81.5,105.5C 78.7547,99.675 75.7547,94.0084 72.5,88.5C 76.8333,82.1667 82.1667,76.8333 88.5,72.5 Z"/></g>
</svg>
