<?xml version="1.0" encoding="UTF-8"?>
<!DOCTYPE svg PUBLIC "-//W3C//DTD SVG 1.1//EN" "http://www.w3.org/Graphics/SVG/1.1/DTD/svg11.dtd">
<svg xmlns="http://www.w3.org/2000/svg" version="1.1" width="105px" height="104px" style="shape-rendering:geometricPrecision; text-rendering:geometricPrecision; image-rendering:optimizeQuality; fill-rule:evenodd; clip-rule:evenodd" xmlns:xlink="http://www.w3.org/1999/xlink">
<g><path style="opacity:0.886" fill="#333333" d="M 33.5,-0.5 C 35.8333,-0.5 38.1667,-0.5 40.5,-0.5C 44.335,1.33561 48.1684,3.33561 52,5.5C 56.0064,3.6186 59.8397,1.6186 63.5,-0.5C 65.8333,-0.5 68.1667,-0.5 70.5,-0.5C 93.951,5.94424 101.618,20.6109 93.5,43.5C 97.1073,44.4892 100.774,44.8226 104.5,44.5C 104.5,64.1667 104.5,83.8333 104.5,103.5C 69.8333,103.5 35.1667,103.5 0.5,103.5C 0.5,102.833 0.166667,102.5 -0.5,102.5C -0.5,83.5 -0.5,64.5 -0.5,45.5C 3.12945,44.8998 6.79612,44.2332 10.5,43.5C 2.39511,20.6019 10.0618,5.93519 33.5,-0.5 Z"/></g>
<g><path style="opacity:1" fill="#d9dadf" d="M 88.5,45.5 C 77.9534,43.3746 72.2867,47.7079 71.5,58.5C 69.4884,59.0138 67.4884,59.1805 65.5,59C 63.3738,53.2049 60.0405,48.2049 55.5,44C 45.103,39.3655 38.4363,42.5321 35.5,53.5C 38.7289,62.2108 36.7289,63.5441 29.5,57.5C 28.6228,48.2862 23.6228,43.6195 14.5,43.5C 5.99813,21.609 13.3315,7.94232 36.5,2.5C 41.9889,4.16187 47.1556,6.4952 52,9.5C 67.2767,-0.208338 80.2767,2.45833 91,17.5C 96.1352,27.382 95.3019,36.7153 88.5,45.5 Z"/></g>
<g><path style="opacity:1" fill="#fbfbfc" d="M 69.5,10.5 C 80.3786,11.7121 86.7119,17.7121 88.5,28.5C 88.6353,30.808 87.9686,32.808 86.5,34.5C 87.0908,22.9242 81.7574,15.7575 70.5,13C 69.7476,12.3292 69.4142,11.4959 69.5,10.5 Z"/></g>
<g><path style="opacity:1" fill="#fcfcfc" d="M 26.5,15.5 C 35.5487,15.701 38.2153,19.8677 34.5,28C 25.7629,31.5856 21.9296,28.7522 23,19.5C 23.6897,17.6498 24.8564,16.3164 26.5,15.5 Z"/></g>
<g><path style="opacity:1" fill="#dcdde1" d="M 26.5,18.5 C 33.1584,17.3445 35.1584,19.8445 32.5,26C 29.4904,28.2219 26.9904,27.7219 25,24.5C 24.2516,22.1599 24.7516,20.1599 26.5,18.5 Z"/></g>
<g><path style="opacity:1" fill="#6ab4f4" d="M 88.5,45.5 C 88.8333,46.5 89.5,47.1667 90.5,47.5C 90.5,47.8333 90.5,48.1667 90.5,48.5C 85.8516,61.4155 81.3516,74.4155 77,87.5C 74.4038,91.3901 70.9038,94.2234 66.5,96C 61.9727,96.6497 58.806,94.8163 57,90.5C 56.798,81.7904 56.1314,73.1237 55,64.5C 55.1449,61.0767 53.6449,59.0767 50.5,58.5C 48.1297,69.0111 46.963,79.6777 47,90.5C 43.9566,97.0529 39.4566,98.2196 33.5,94C 31.6667,92.1667 29.8333,90.3333 28,88.5C 22.8536,74.9143 18.0203,61.2476 13.5,47.5C 11.9219,45.6253 12.2552,44.2919 14.5,43.5C 23.6228,43.6195 28.6228,48.2862 29.5,57.5C 36.7289,63.5441 38.7289,62.2108 35.5,53.5C 38.4363,42.5321 45.103,39.3655 55.5,44C 60.0405,48.2049 63.3738,53.2049 65.5,59C 67.4884,59.1805 69.4884,59.0138 71.5,58.5C 72.2867,47.7079 77.9534,43.3746 88.5,45.5 Z"/></g>
<g><path style="opacity:1" fill="#fdfdfe" d="M 13.5,47.5 C 18.0203,61.2476 22.8536,74.9143 28,88.5C 29.8333,90.3333 31.6667,92.1667 33.5,94C 39.4566,98.2196 43.9566,97.0529 47,90.5C 46.963,79.6777 48.1297,69.0111 50.5,58.5C 53.6449,59.0767 55.1449,61.0767 55,64.5C 56.1314,73.1237 56.798,81.7904 57,90.5C 58.806,94.8163 61.9727,96.6497 66.5,96C 70.9038,94.2234 74.4038,91.3901 77,87.5C 81.3516,74.4155 85.8516,61.4155 90.5,48.5C 93.8333,48.5 97.1667,48.5 100.5,48.5C 100.5,65.5 100.5,82.5 100.5,99.5C 68.1667,99.5 35.8333,99.5 3.5,99.5C 3.5,82.1667 3.5,64.8333 3.5,47.5C 6.83333,47.5 10.1667,47.5 13.5,47.5 Z"/></g>
<g><path style="opacity:1" fill="#b0b0b0" d="M 90.5,48.5 C 90.5,48.1667 90.5,47.8333 90.5,47.5C 94.1667,47.5 97.8333,47.5 101.5,47.5C 101.5,65.1667 101.5,82.8333 101.5,100.5C 68.6624,100.832 35.9957,100.498 3.5,99.5C 35.8333,99.5 68.1667,99.5 100.5,99.5C 100.5,82.5 100.5,65.5 100.5,48.5C 97.1667,48.5 93.8333,48.5 90.5,48.5 Z"/></g>
</svg>
