<?xml version="1.0" encoding="UTF-8"?>
<!DOCTYPE svg PUBLIC "-//W3C//DTD SVG 1.1//EN" "http://www.w3.org/Graphics/SVG/1.1/DTD/svg11.dtd">
<svg xmlns="http://www.w3.org/2000/svg" version="1.1" width="104px" height="104px" style="shape-rendering:geometricPrecision; text-rendering:geometricPrecision; image-rendering:optimizeQuality; fill-rule:evenodd; clip-rule:evenodd" xmlns:xlink="http://www.w3.org/1999/xlink">
<g><path style="opacity:0.829" fill="#353635" d="M 87.5,-0.5 C 88.1667,-0.5 88.8333,-0.5 89.5,-0.5C 90.1273,5.44812 90.794,11.4481 91.5,17.5C 93.8493,19.2038 94.8493,21.5371 94.5,24.5C 95.8333,24.5 97.1667,24.5 98.5,24.5C 98.5,43.8333 98.5,63.1667 98.5,82.5C 100.292,82.366 101.958,82.6993 103.5,83.5C 103.5,84.1667 103.5,84.8333 103.5,85.5C 100.272,86.4137 96.9387,86.7471 93.5,86.5C 93.5,90.5 93.5,94.5 93.5,98.5C 96.3456,98.0301 98.6789,98.8634 100.5,101C 100.167,101.333 99.8333,101.667 99.5,102C 92.5,102.667 85.5,102.667 78.5,102C 77.1667,101 77.1667,100 78.5,99C 80.1341,98.5065 81.8008,98.3398 83.5,98.5C 83.5,94.5 83.5,90.5 83.5,86.5C 80.4816,86.6646 77.4816,86.498 74.5,86C 73.306,83.3422 74.306,82.1756 77.5,82.5C 77.3334,63.4971 77.5001,44.4971 78,25.5C 79.3561,24.6198 80.8561,24.2865 82.5,24.5C 81.8895,21.039 83.0561,18.3723 86,16.5C 86.212,10.7521 86.712,5.08546 87.5,-0.5 Z M 87.5,21.5 C 88.9953,21.4148 89.9953,22.0815 90.5,23.5C 89.1667,24.8333 87.8333,24.8333 86.5,23.5C 86.8627,22.8165 87.1961,22.1499 87.5,21.5 Z M 81.5,28.5 C 85.8333,28.5 90.1667,28.5 94.5,28.5C 94.5,29.5 94.5,30.5 94.5,31.5C 91.9272,31.1485 89.5938,31.6485 87.5,33C 89.3211,35.1366 91.6544,35.9699 94.5,35.5C 94.0791,37.9099 92.7458,39.7432 90.5,41C 91.5634,42.1882 92.8967,42.6882 94.5,42.5C 94.5,43.8333 94.5,45.1667 94.5,46.5C 91.9272,46.1485 89.5938,46.6485 87.5,48C 89.3211,50.1366 91.6544,50.9699 94.5,50.5C 94.0791,52.9099 92.7458,54.7432 90.5,56C 91.5634,57.1882 92.8967,57.6882 94.5,57.5C 94.5,58.8333 94.5,60.1667 94.5,61.5C 91.9272,61.1485 89.5938,61.6485 87.5,63C 89.3211,65.1366 91.6544,65.9699 94.5,65.5C 94.0791,67.9099 92.7458,69.7432 90.5,71C 91.5634,72.1882 92.8967,72.6882 94.5,72.5C 94.5,73.8333 94.5,75.1667 94.5,76.5C 85.4534,77.1847 85.4534,78.8513 94.5,81.5C 90.2172,82.4922 85.8839,82.8256 81.5,82.5C 81.5,64.5 81.5,46.5 81.5,28.5 Z M 87.5,86.5 C 88.7943,88.0478 89.4609,90.0478 89.5,92.5C 89.1667,94.5 88.8333,96.5 88.5,98.5C 87.5091,94.5546 87.1758,90.5546 87.5,86.5 Z"/></g>
<g><path style="opacity:0.778" fill="#353635" d="M 62.5,103.5 C 60.1667,103.5 57.8333,103.5 55.5,103.5C 53.2384,101.315 51.7384,98.6485 51,95.5C 51.4615,85.4476 50.4615,75.4476 48,65.5C 47.586,65.0426 47.086,64.7093 46.5,64.5C 44.5577,68.6007 43.3911,72.934 43,77.5C 42.6667,84.1667 42.3333,90.8333 42,97.5C 41.1959,100.146 39.6959,102.146 37.5,103.5C 35.1667,103.5 32.8333,103.5 30.5,103.5C 25.5241,100.689 21.6907,96.6889 19,91.5C 15.4162,80.9177 12.0829,70.251 9,59.5C 5.22975,52.637 2.06308,45.637 -0.5,38.5C -0.5,35.5 -0.5,32.5 -0.5,29.5C 4.883,11.1275 17.2163,2.62754 36.5,4C 40.0946,5.71335 43.5946,7.54668 47,9.5C 57.9389,1.72692 69.1055,1.56025 80.5,9C 82.0368,10.1096 82.7035,11.6096 82.5,13.5C 76.3534,10.6197 69.8534,8.61968 63,7.5C 61.5,7.66667 60,7.83333 58.5,8C 54.868,10.6495 50.868,12.4829 46.5,13.5C 42.4014,11.9518 38.4014,10.1185 34.5,8C 23.2922,7.18773 14.4589,11.3544 8,20.5C 3.63601,27.0478 2.63601,34.0478 5,41.5C 8.27297,47.7122 11.273,54.0456 14,60.5C 16.5919,71.8718 20.2586,82.8718 25,93.5C 26.9384,96.1059 29.4384,97.9392 32.5,99C 34.3668,99.7112 35.8668,99.2112 37,97.5C 37.7624,85.7387 39.4291,74.0721 42,62.5C 44.4699,60.5135 47.3033,60.0135 50.5,61C 52.5163,64.8948 53.683,69.0614 54,73.5C 55.2966,81.5335 55.9633,89.5335 56,97.5C 57.4659,99.3249 59.2992,99.8249 61.5,99C 65.3394,95.991 69.0061,92.8244 72.5,89.5C 73.8701,92.4847 73.3701,95.1514 71,97.5C 68.2427,99.7814 65.4093,101.781 62.5,103.5 Z"/></g>
<g><path style="opacity:0.749" fill="#353635" d="M 20.5,18.5 C 29.3649,18.8474 32.5316,23.1807 30,31.5C 24.1857,37.2051 19.1857,36.5384 15,29.5C 14.1757,24.4818 16.0091,20.8152 20.5,18.5 Z M 22.5,22.5 C 28.763,25.239 28.9297,28.239 23,31.5C 17.267,28.6544 17.1003,25.6544 22.5,22.5 Z"/></g>
</svg>
