<?xml version="1.0" encoding="UTF-8"?>
<!DOCTYPE svg PUBLIC "-//W3C//DTD SVG 1.1//EN" "http://www.w3.org/Graphics/SVG/1.1/DTD/svg11.dtd">
<svg xmlns="http://www.w3.org/2000/svg" version="1.1" width="103px" height="104px" style="shape-rendering:geometricPrecision; text-rendering:geometricPrecision; image-rendering:optimizeQuality; fill-rule:evenodd; clip-rule:evenodd" xmlns:xlink="http://www.w3.org/1999/xlink">
<g><path style="opacity:0.781" fill="#353635" d="M 28.5,-0.5 C 32.1667,-0.5 35.8333,-0.5 39.5,-0.5C 43.405,1.54135 47.2383,3.87468 51,6.5C 55.3417,4.25164 59.5084,1.91831 63.5,-0.5C 67.1667,-0.5 70.8333,-0.5 74.5,-0.5C 88.2543,2.92289 97.5876,11.2562 102.5,24.5C 102.5,29.5 102.5,34.5 102.5,39.5C 93.589,54.3491 87.089,70.3491 83,87.5C 80.3736,94.9542 75.5403,100.288 68.5,103.5C 66.5,103.5 64.5,103.5 62.5,103.5C 60.193,102.023 58.3597,100.023 57,97.5C 57.1381,86.6389 55.8047,75.9723 53,65.5C 52.586,65.0426 52.086,64.7093 51.5,64.5C 49.4816,66.6971 48.315,69.3637 48,72.5C 46.8911,80.4571 46.2244,88.4571 46,96.5C 45.0617,99.5975 43.2284,101.931 40.5,103.5C 38.5,103.5 36.5,103.5 34.5,103.5C 29.2906,101.13 25.1239,97.4638 22,92.5C 19.8284,86.65 17.6617,80.8166 15.5,75C 16.2921,72.6639 17.6254,72.1639 19.5,73.5C 21.5212,80.5389 24.3545,87.2056 28,93.5C 30.8398,96.3433 34.1731,98.3433 38,99.5C 39.987,98.8464 41.3203,97.513 42,95.5C 41.8619,84.6389 43.1953,73.9723 46,63.5C 46.3742,62.5838 46.8742,61.7504 47.5,61C 50.1667,60.3333 52.8333,60.3333 55.5,61C 59.7034,72.073 61.5367,83.573 61,95.5C 62.7727,99.7565 65.606,100.59 69.5,98C 72.6667,96.1667 75.1667,93.6667 77,90.5C 80.9239,81.4738 83.9239,72.1404 86,62.5C 89.4117,55.3423 93.0784,48.3423 97,41.5C 100.765,21.8995 92.9313,9.39955 73.5,4C 70.5,3.33333 67.5,3.33333 64.5,4C 60.4404,6.69649 56.107,8.86315 51.5,10.5C 46.893,8.86315 42.5596,6.69649 38.5,4C 17.8808,3.94619 5.71413,14.1129 2,34.5C 1.2917,33.6195 0.458367,32.9528 -0.5,32.5C -0.5,31.5 -0.5,30.5 -0.5,29.5C 3.00915,13.6559 12.6758,3.65588 28.5,-0.5 Z"/></g>
<g><path style="opacity:0.749" fill="#353635" d="M 70.5,10.5 C 81.9329,11.114 89.4329,16.7807 93,27.5C 93.5787,31.2027 93.412,34.8694 92.5,38.5C 91.1667,38.5 89.8333,38.5 88.5,38.5C 90.6646,25.131 84.998,16.9643 71.5,14C 70.6634,12.9887 70.33,11.8221 70.5,10.5 Z"/></g>
<g><path style="opacity:0.75" fill="#353635" d="M -0.5,42.5 C -0.5,41.8333 -0.5,41.1667 -0.5,40.5C 3.42959,39.1134 6.76292,40.1134 9.5,43.5C 14.4233,38.2566 19.4233,38.2566 24.5,43.5C 26.3733,41.279 28.7067,39.9457 31.5,39.5C 35.0106,40.6673 38.0106,42.6673 40.5,45.5C 40.1131,46.7199 39.2798,47.3865 38,47.5C 35.4467,46.7771 33.28,45.4438 31.5,43.5C 26.5767,48.7434 21.5767,48.7434 16.5,43.5C 14.6267,45.721 12.2933,47.0543 9.5,47.5C 6.2026,45.8962 2.86927,44.2296 -0.5,42.5 Z"/></g>
<g><path style="opacity:0.759" fill="#353635" d="M -0.5,52.5 C -0.5,52.1667 -0.5,51.8333 -0.5,51.5C 0.530694,50.645 1.69736,49.9783 3,49.5C 5.55329,50.2229 7.71995,51.5562 9.5,53.5C 11.5044,51.2477 14.0044,49.9143 17,49.5C 19.5624,50.3877 21.8958,51.721 24,53.5C 26.1364,51.5408 28.6364,50.2074 31.5,49.5C 34.5273,50.361 37.194,51.861 39.5,54C 40.3366,55.0113 40.67,56.1779 40.5,57.5C 38.8008,57.6602 37.1341,57.4935 35.5,57C 34.3147,55.647 32.9814,54.4803 31.5,53.5C 26.6284,58.7946 21.7951,58.7946 17,53.5C 14.8227,55.5273 12.3227,56.8607 9.5,57.5C 5.71229,56.7052 2.37896,55.0385 -0.5,52.5 Z"/></g>
<g><path style="opacity:0.759" fill="#353635" d="M -0.5,62.5 C -0.5,62.1667 -0.5,61.8333 -0.5,61.5C 0.482236,60.8592 1.48224,60.1925 2.5,59.5C 4.80912,60.6508 6.97579,61.9841 9,63.5C 11.1364,61.5408 13.6364,60.2074 16.5,59.5C 19.3636,60.2074 21.8636,61.5408 24,63.5C 26.1364,61.5408 28.6364,60.2074 31.5,59.5C 34.5273,60.361 37.194,61.861 39.5,64C 40.3366,65.0113 40.67,66.1779 40.5,67.5C 38.8008,67.6602 37.1341,67.4935 35.5,67C 32.8333,63.6667 30.1667,63.6667 27.5,67C 23.1019,68.3785 19.6019,67.2118 17,63.5C 13.9502,67.1303 10.1169,68.297 5.5,67C 3.90525,64.8981 1.90525,63.3981 -0.5,62.5 Z"/></g>
</svg>
