<?xml version="1.0" encoding="UTF-8"?>
<!DOCTYPE svg PUBLIC "-//W3C//DTD SVG 1.1//EN" "http://www.w3.org/Graphics/SVG/1.1/DTD/svg11.dtd">
<svg xmlns="http://www.w3.org/2000/svg" version="1.1" width="105px" height="103px" style="shape-rendering:geometricPrecision; text-rendering:geometricPrecision; image-rendering:optimizeQuality; fill-rule:evenodd; clip-rule:evenodd" xmlns:xlink="http://www.w3.org/1999/xlink">
<g><path style="opacity:0.826" fill="#353635" d="M 3.5,-0.5 C 35.8333,-0.5 68.1667,-0.5 100.5,-0.5C 101.5,1.16667 102.833,2.5 104.5,3.5C 104.5,12.1667 104.5,20.8333 104.5,29.5C 101.595,32.78 97.9288,34.1133 93.5,33.5C 93.6655,37.5138 93.4988,41.5138 93,45.5C 92.6258,46.4162 92.1258,47.2496 91.5,48C 85.7459,49.0964 79.9125,49.5964 74,49.5C 68.3932,49.6198 62.8932,49.1198 57.5,48C 57,47.5 56.5,47 56,46.5C 55.501,42.1794 55.3343,37.8461 55.5,33.5C 53.1667,33.5 50.8333,33.5 48.5,33.5C 48.6655,37.5138 48.4988,41.5138 48,45.5C 47.6258,46.4162 47.1258,47.2496 46.5,48C 40.7459,49.0964 34.9125,49.5964 29,49.5C 23.3932,49.6198 17.8932,49.1198 12.5,48C 12,47.5 11.5,47 11,46.5C 10.501,42.1794 10.3343,37.8461 10.5,33.5C 5.62294,34.2247 1.95627,32.5581 -0.5,28.5C -0.5,20.1667 -0.5,11.8333 -0.5,3.5C 1.16667,2.5 2.5,1.16667 3.5,-0.5 Z M 5.5,3.5 C 36.5018,3.33335 67.5018,3.50002 98.5,4C 99,4.5 99.5,5 100,5.5C 100.667,12.8333 100.667,20.1667 100,27.5C 98.2111,29.229 96.0444,29.8957 93.5,29.5C 93.6118,16.6112 87.2785,9.27787 74.5,7.5C 61.026,8.64198 54.6926,15.9753 55.5,29.5C 53.1667,29.5 50.8333,29.5 48.5,29.5C 47.4561,12.297 38.4561,5.46364 21.5,9C 13.2603,13.3093 9.59364,20.1427 10.5,29.5C 7.95557,29.8957 5.7889,29.229 4,27.5C 3.33333,20.1667 3.33333,12.8333 4,5.5C 4.71719,4.9558 5.21719,4.28913 5.5,3.5 Z M 26.5,11.5 C 38.1667,11.8333 44.1667,17.8333 44.5,29.5C 41.8333,29.5 39.1667,29.5 36.5,29.5C 36.5,27.5 36.5,25.5 36.5,23.5C 31.8215,23.3342 27.1548,23.5008 22.5,24C 21.1667,28.6667 21.1667,33.3333 22.5,38C 26.8333,38.6667 31.1667,38.6667 35.5,38C 36.3802,36.6439 36.7135,35.1439 36.5,33.5C 39.1667,33.5 41.8333,33.5 44.5,33.5C 45.0436,37.6732 44.377,41.5065 42.5,45C 33.4518,45.8052 24.4518,45.6386 15.5,44.5C 14.3354,37.1893 14.1687,29.856 15,22.5C 17.0834,16.9148 20.9167,13.2481 26.5,11.5 Z M 71.5,11.5 C 80.4688,10.974 86.3021,14.974 89,23.5C 89.8311,30.5237 89.6644,37.5237 88.5,44.5C 79.5482,45.6386 70.5482,45.8052 61.5,45C 59.623,41.5065 58.9564,37.6732 59.5,33.5C 61.8333,33.5 64.1667,33.5 66.5,33.5C 66.2965,35.3904 66.9632,36.8904 68.5,38C 72.5,38.6667 76.5,38.6667 80.5,38C 81.4692,33.2633 81.8025,28.43 81.5,23.5C 76.8215,23.3342 72.1548,23.5008 67.5,24C 66.5939,25.6995 66.2606,27.5328 66.5,29.5C 64.1667,29.5 61.8333,29.5 59.5,29.5C 59.162,20.5205 63.162,14.5205 71.5,11.5 Z M 25.5,27.5 C 27.8333,27.5 30.1667,27.5 32.5,27.5C 32.5,29.8333 32.5,32.1667 32.5,34.5C 30.1667,34.5 27.8333,34.5 25.5,34.5C 25.5,32.1667 25.5,29.8333 25.5,27.5 Z M 70.5,27.5 C 72.8333,27.5 75.1667,27.5 77.5,27.5C 77.5,29.8333 77.5,32.1667 77.5,34.5C 75.1667,34.5 72.8333,34.5 70.5,34.5C 70.5,32.1667 70.5,29.8333 70.5,27.5 Z"/></g>
<g><path style="opacity:0.826" fill="#353635" d="M 104.5,56.5 C 104.5,65.1667 104.5,73.8333 104.5,82.5C 101.717,86.0083 98.0506,87.3417 93.5,86.5C 93.6657,90.8461 93.499,95.1794 93,99.5C 91.8549,100.636 90.6883,101.636 89.5,102.5C 79.5,102.5 69.5,102.5 59.5,102.5C 58.3117,101.636 57.1451,100.636 56,99.5C 55.501,95.1794 55.3343,90.8461 55.5,86.5C 53.1667,86.5 50.8333,86.5 48.5,86.5C 48.6657,90.8461 48.499,95.1794 48,99.5C 46.8549,100.636 45.6883,101.636 44.5,102.5C 34.5,102.5 24.5,102.5 14.5,102.5C 13.3117,101.636 12.1451,100.636 11,99.5C 10.501,95.1794 10.3343,90.8461 10.5,86.5C 5.9494,87.3417 2.28273,86.0083 -0.5,82.5C -0.5,74.1667 -0.5,65.8333 -0.5,57.5C 0.646381,55.525 2.31305,54.025 4.5,53C 36.1667,52.3333 67.8333,52.3333 99.5,53C 101.323,53.9973 102.99,55.1639 104.5,56.5 Z M 5.5,56.5 C 36.5018,56.3334 67.5018,56.5 98.5,57C 99,57.5 99.5,58 100,58.5C 100.667,65.8333 100.667,73.1667 100,80.5C 98.2111,82.229 96.0444,82.8957 93.5,82.5C 92.6292,65.797 83.9625,58.9637 67.5,62C 58.5006,65.8236 54.5006,72.6569 55.5,82.5C 53.1667,82.5 50.8333,82.5 48.5,82.5C 47.6005,65.7639 38.9338,58.9306 22.5,62C 13.5006,65.8236 9.50061,72.6569 10.5,82.5C 7.95557,82.8957 5.7889,82.229 4,80.5C 3.33333,73.1667 3.33333,65.8333 4,58.5C 4.71719,57.9558 5.21719,57.2891 5.5,56.5 Z M 27.5,64.5 C 38.6884,65.3536 44.3551,71.3536 44.5,82.5C 41.8333,82.5 39.1667,82.5 36.5,82.5C 36.7394,80.5328 36.4061,78.6995 35.5,77C 31.1667,76.3333 26.8333,76.3333 22.5,77C 21.1667,81.6667 21.1667,86.3333 22.5,91C 27.1548,91.4992 31.8215,91.6658 36.5,91.5C 36.5,89.8333 36.5,88.1667 36.5,86.5C 39.1667,86.5 41.8333,86.5 44.5,86.5C 44.7935,90.4367 44.4601,94.27 43.5,98C 33.9223,98.8176 24.4223,98.6509 15,97.5C 14.3333,90.1667 14.3333,82.8333 15,75.5C 17.5373,69.7851 21.7039,66.1184 27.5,64.5 Z M 72.5,64.5 C 80.8202,64.7336 86.3202,68.7336 89,76.5C 89.6667,83.5 89.6667,90.5 89,97.5C 79.5777,98.6509 70.0777,98.8176 60.5,98C 59.5399,94.27 59.2065,90.4367 59.5,86.5C 61.8333,86.5 64.1667,86.5 66.5,86.5C 66.2865,88.1439 66.6198,89.6439 67.5,91C 71.8333,91.6667 76.1667,91.6667 80.5,91C 81.4692,86.2633 81.8025,81.43 81.5,76.5C 76.8215,76.3342 72.1548,76.5008 67.5,77C 66.5939,78.6995 66.2606,80.5328 66.5,82.5C 64.1667,82.5 61.8333,82.5 59.5,82.5C 59.2657,73.084 63.599,67.084 72.5,64.5 Z M 25.5,80.5 C 27.8333,80.5 30.1667,80.5 32.5,80.5C 32.5,82.8333 32.5,85.1667 32.5,87.5C 30.1667,87.5 27.8333,87.5 25.5,87.5C 25.5,85.1667 25.5,82.8333 25.5,80.5 Z M 70.5,80.5 C 72.8333,80.5 75.1667,80.5 77.5,80.5C 77.5,82.8333 77.5,85.1667 77.5,87.5C 75.1667,87.5 72.8333,87.5 70.5,87.5C 70.5,85.1667 70.5,82.8333 70.5,80.5 Z"/></g>
</svg>
