<?xml version="1.0" encoding="UTF-8"?>
<!DOCTYPE svg PUBLIC "-//W3C//DTD SVG 1.1//EN" "http://www.w3.org/Graphics/SVG/1.1/DTD/svg11.dtd">
<svg xmlns="http://www.w3.org/2000/svg" version="1.1" width="99px" height="105px" style="shape-rendering:geometricPrecision; text-rendering:geometricPrecision; image-rendering:optimizeQuality; fill-rule:evenodd; clip-rule:evenodd" xmlns:xlink="http://www.w3.org/1999/xlink">
<g><path style="opacity:0.783" fill="#353635" d="M 27.5,-0.5 C 30.8333,-0.5 34.1667,-0.5 37.5,-0.5C 41.1881,1.6661 45.0214,3.6661 49,5.5C 53.1026,3.86672 56.9359,1.86672 60.5,-0.5C 64.1667,-0.5 67.8333,-0.5 71.5,-0.5C 85.5351,3.53509 94.5351,12.5351 98.5,26.5C 98.5,29.8333 98.5,33.1667 98.5,36.5C 95.3562,44.2013 91.8562,51.868 88,59.5C 85,69.5 82,79.5 79,89.5C 77.5869,92.6612 75.9203,95.6612 74,98.5C 71.2639,100.752 68.4305,102.752 65.5,104.5C 63.5,104.5 61.5,104.5 59.5,104.5C 56.8001,102.954 54.9668,100.621 54,97.5C 54.0814,86.0116 52.9147,74.6782 50.5,63.5C 49.5,63.5 48.5,63.5 47.5,63.5C 45.1168,75.0219 43.9501,86.6886 44,98.5C 42.6403,101.023 40.807,103.023 38.5,104.5C 36.8333,104.5 35.1667,104.5 33.5,104.5C 27.601,101.77 23.101,97.4371 20,91.5C 16.1806,79.8916 12.514,68.2249 9,56.5C 4.94209,49.4015 1.77542,42.0681 -0.5,34.5C -0.5,32.5 -0.5,30.5 -0.5,28.5C 2.67392,12.9911 12.0073,3.32445 27.5,-0.5 Z M 28.5,3.5 C 31.1873,3.33591 33.854,3.50258 36.5,4C 40.5545,6.6939 44.8878,8.86056 49.5,10.5C 53.628,8.60211 57.628,6.43545 61.5,4C 80.0323,3.76903 91.0323,12.769 94.5,31C 92.8922,39.7245 89.7256,47.8912 85,55.5C 81.6897,65.4083 78.6897,75.4083 76,85.5C 73.9591,92.2048 69.7924,97.0381 63.5,100C 61.6332,100.711 60.1332,100.211 59,98.5C 58.064,87.1403 56.7307,75.8069 55,64.5C 54.8844,60.9309 53.0511,59.2642 49.5,59.5C 47.3066,59.3262 45.4733,59.9929 44,61.5C 41.4408,73.756 39.7741,86.0893 39,98.5C 37.8668,100.211 36.3668,100.711 34.5,100C 31.0976,98.6001 28.2643,96.4335 26,93.5C 21.0796,81.8236 17.0796,69.8236 14,57.5C 9.63423,49.1133 6.13423,40.4466 3.5,31.5C 5.88913,16.7813 14.2225,7.44802 28.5,3.5 Z M 25.5,16.5 C 31.7267,16.7259 35.06,20.0593 35.5,26.5C 34.1838,31.0795 33.5171,35.7461 33.5,40.5C 29.5628,41.0351 25.8961,42.3685 22.5,44.5C 19.1948,41.9045 16.8615,38.5712 15.5,34.5C 18.324,28.1823 21.6574,22.1823 25.5,16.5 Z M 26.5,27.5 C 29.3394,29.8694 29.006,31.8694 25.5,33.5C 24.2302,31.2432 24.5636,29.2432 26.5,27.5 Z"/></g>
<g><path style="opacity:0.753" fill="#353635" d="M 67.5,10.5 C 80.2165,11.2155 87.5498,17.8822 89.5,30.5C 89.2177,33.1308 88.5511,35.6308 87.5,38C 86.5509,38.6172 85.7175,38.4506 85,37.5C 86.8034,24.6226 81.3034,16.7893 68.5,14C 66.6269,13.0471 66.2935,11.8804 67.5,10.5 Z"/></g>
<g><path style="opacity:0.773" fill="#353635" d="M 29.5,11.5 C 33.3619,12.5237 36.1952,14.8571 38,18.5C 38.5643,21.1547 39.0643,23.8214 39.5,26.5C 38.3435,31.7825 37.5102,37.1159 37,42.5C 31.799,45.0997 26.4656,47.433 21,49.5C 14.8001,45.1003 11.8001,39.1003 12,31.5C 14.6455,25.5422 17.8122,19.8756 21.5,14.5C 24.1836,13.247 26.8503,12.247 29.5,11.5 Z M 25.5,16.5 C 21.6574,22.1823 18.324,28.1823 15.5,34.5C 16.8615,38.5712 19.1948,41.9045 22.5,44.5C 25.8961,42.3685 29.5628,41.0351 33.5,40.5C 33.5171,35.7461 34.1838,31.0795 35.5,26.5C 35.06,20.0593 31.7267,16.7259 25.5,16.5 Z M 26.5,27.5 C 24.5636,29.2432 24.2302,31.2432 25.5,33.5C 29.006,31.8694 29.3394,29.8694 26.5,27.5 Z"/></g>
<g><path style="opacity:0.801" fill="#353635" d="M 26.5,21.5 C 27.8333,21.5 29.1667,21.5 30.5,21.5C 31.6563,25.4452 32.1563,29.4452 32,33.5C 22.6198,43.8486 18.9532,41.8486 21,27.5C 23.0396,25.6298 24.8729,23.6298 26.5,21.5 Z M 26.5,27.5 C 24.5636,29.2432 24.2302,31.2432 25.5,33.5C 29.006,31.8694 29.3394,29.8694 26.5,27.5 Z"/></g>
</svg>
