<?xml version="1.0" encoding="UTF-8"?>
<!DOCTYPE svg PUBLIC "-//W3C//DTD SVG 1.1//EN" "http://www.w3.org/Graphics/SVG/1.1/DTD/svg11.dtd">
<svg xmlns="http://www.w3.org/2000/svg" version="1.1" width="98px" height="105px" style="shape-rendering:geometricPrecision; text-rendering:geometricPrecision; image-rendering:optimizeQuality; fill-rule:evenodd; clip-rule:evenodd" xmlns:xlink="http://www.w3.org/1999/xlink">
<g><path style="opacity:0.78" fill="#353635" d="M 25.5,-0.5 C 29.8333,-0.5 34.1667,-0.5 38.5,-0.5C 41.476,1.99253 44.8093,3.99253 48.5,5.5C 52.3835,3.72818 56.0502,1.72818 59.5,-0.5C 63.5,-0.5 67.5,-0.5 71.5,-0.5C 84.3265,2.99313 92.9931,10.9931 97.5,23.5C 97.5,28.5 97.5,33.5 97.5,38.5C 93.7749,45.6208 90.2749,52.9541 87,60.5C 84.2569,72.1413 80.5903,83.4746 76,94.5C 72.8092,99.1634 68.6425,102.497 63.5,104.5C 62.1667,104.5 60.8333,104.5 59.5,104.5C 57.193,103.023 55.3597,101.023 54,98.5C 53.8686,90.1905 53.202,81.8571 52,73.5C 49.6667,60.1667 47.3333,60.1667 45,73.5C 43.6568,80.8346 43.3235,88.1679 44,95.5C 43.1273,99.5246 40.9607,102.525 37.5,104.5C 36.1667,104.5 34.8333,104.5 33.5,104.5C 28.3575,102.497 24.1908,99.1634 21,94.5C 16.4097,83.4746 12.7431,72.1413 10,60.5C 6.44522,52.7328 2.94522,45.0661 -0.5,37.5C -0.5,33.1667 -0.5,28.8333 -0.5,24.5C 3.57182,11.4289 12.2385,3.09552 25.5,-0.5 Z M 21.5,6.5 C 18.9273,8.90973 16.9273,11.7431 15.5,15C 18.086,18.8997 21.7527,21.233 26.5,22C 22.9523,23.9407 19.2857,25.6074 15.5,27C 14.4258,27.7387 13.7591,28.7387 13.5,30C 16.3791,33.3799 19.7124,36.2133 23.5,38.5C 21.7282,39.2697 20.7282,40.6031 20.5,42.5C 21.1393,45.4748 21.6393,48.4748 22,51.5C 25.269,52.9844 28.6024,54.3178 32,55.5C 34.3361,54.7079 34.8361,53.3746 33.5,51.5C 30.9881,50.2054 28.3214,49.5387 25.5,49.5C 25.7564,47.2075 25.4231,45.0408 24.5,43C 28.7789,42.4718 32.4455,40.8051 35.5,38C 29.7929,36.0966 24.4595,33.4299 19.5,30C 25.5363,27.9888 30.8696,24.9888 35.5,21C 35.3552,20.228 35.0219,19.5613 34.5,19C 30.4648,18.1265 26.4648,17.1265 22.5,16C 21.9781,15.4387 21.6448,14.772 21.5,14C 25.177,9.31275 29.8437,5.81275 35.5,3.5C 39.5869,6.46075 44.0869,8.46075 49,9.5C 53.1068,8.36436 56.9401,6.53103 60.5,4C 76.65,2.9992 87.4833,10.1659 93,25.5C 93.6667,29.1667 93.6667,32.8333 93,36.5C 90.0169,43.1361 87.0169,49.8028 84,56.5C 80.7958,68.7794 76.7958,80.7794 72,92.5C 69.2436,95.9267 65.9103,98.5934 62,100.5C 60.4878,99.7433 59.1545,98.7433 58,97.5C 57.7733,85.7952 56.4399,74.1285 54,62.5C 53.6258,61.5838 53.1258,60.7504 52.5,60C 49.8333,59.3333 47.1667,59.3333 44.5,60C 40.7291,71.2116 39.2291,82.7116 40,94.5C 39.2521,98.914 36.7521,100.414 32.5,99C 28.2811,96.448 25.1145,92.948 23,88.5C 19.8699,79.6482 17.2032,70.6482 15,61.5C 11.591,53.0189 7.92437,44.6855 4,36.5C 2.37059,22.0862 8.20393,12.0862 21.5,6.5 Z"/></g>
<g><path style="opacity:0.749" fill="#353635" d="M 67.5,9.5 C 82.7223,11.6301 89.5556,20.2968 88,35.5C 86.3998,39.3029 84.8998,39.1362 83.5,35C 84.6701,23.2996 79.3368,16.1329 67.5,13.5C 66.3744,12.1916 66.3744,10.8583 67.5,9.5 Z"/></g>
</svg>
