<?xml version="1.0" encoding="UTF-8"?>
<!DOCTYPE svg PUBLIC "-//W3C//DTD SVG 1.1//EN" "http://www.w3.org/Graphics/SVG/1.1/DTD/svg11.dtd">
<svg xmlns="http://www.w3.org/2000/svg" version="1.1" width="105px" height="103px" style="shape-rendering:geometricPrecision; text-rendering:geometricPrecision; image-rendering:optimizeQuality; fill-rule:evenodd; clip-rule:evenodd" xmlns:xlink="http://www.w3.org/1999/xlink">
<g><path style="opacity:0.816" fill="#353635" d="M 0.5,-0.5 C 35.1667,-0.5 69.8333,-0.5 104.5,-0.5C 104.5,33.5 104.5,67.5 104.5,101.5C 103.833,101.5 103.5,101.833 103.5,102.5C 69.1667,102.5 34.8333,102.5 0.5,102.5C 0.5,101.833 0.166667,101.5 -0.5,101.5C -0.5,67.8333 -0.5,34.1667 -0.5,0.5C 0.166667,0.5 0.5,0.166667 0.5,-0.5 Z M 3.5,3.5 C 35.8333,3.5 68.1667,3.5 100.5,3.5C 100.5,8.16667 100.5,12.8333 100.5,17.5C 68.1667,17.5 35.8333,17.5 3.5,17.5C 3.5,12.8333 3.5,8.16667 3.5,3.5 Z M 3.5,21.5 C 35.8333,21.5 68.1667,21.5 100.5,21.5C 100.5,47.1667 100.5,72.8333 100.5,98.5C 68.1667,98.5 35.8333,98.5 3.5,98.5C 3.5,72.8333 3.5,47.1667 3.5,21.5 Z M 22.5,41.5 C 24.8173,42.907 27.3173,43.907 30,44.5C 41.011,40.2007 46.6777,43.8674 47,55.5C 43.8765,61.5366 41.5432,67.8699 40,74.5C 39.4283,77.707 37.595,79.3737 34.5,79.5C 34.7503,74.4195 34.2503,69.4195 33,64.5C 29.3108,62.5606 26.9774,63.5606 26,67.5C 25.5012,71.4862 25.3345,75.4862 25.5,79.5C 23.6096,79.7035 22.1096,79.0368 21,77.5C 18.6244,68.9914 15.7911,60.6581 12.5,52.5C 13.7687,46.9003 17.102,43.2337 22.5,41.5 Z M 58.5,41.5 C 69.8333,41.5 81.1667,41.5 92.5,41.5C 92.5,43.1667 92.5,44.8333 92.5,46.5C 81.1667,46.5 69.8333,46.5 58.5,46.5C 58.5,44.8333 58.5,43.1667 58.5,41.5 Z M 58.5,59.5 C 69.8333,59.5 81.1667,59.5 92.5,59.5C 92.5,61.1667 92.5,62.8333 92.5,64.5C 81.1667,64.5 69.8333,64.5 58.5,64.5C 58.5,62.8333 58.5,61.1667 58.5,59.5 Z M 58.5,77.5 C 69.8333,77.5 81.1667,77.5 92.5,77.5C 92.5,78.8333 92.5,80.1667 92.5,81.5C 81.1667,81.5 69.8333,81.5 58.5,81.5C 58.5,80.1667 58.5,78.8333 58.5,77.5 Z"/></g>
<g><path style="opacity:0.577" fill="#353635" d="M 7.5,8.5 C 8.5,8.5 9.5,8.5 10.5,8.5C 10.5,9.83333 10.5,11.1667 10.5,12.5C 7.04643,12.7332 6.04643,11.3999 7.5,8.5 Z"/></g>
<g><path style="opacity:0.553" fill="#353635" d="M 18.5,8.5 C 19.5,8.5 20.5,8.5 21.5,8.5C 21.3352,12.8638 20.0019,13.3638 17.5,10C 18.056,9.61742 18.3893,9.11742 18.5,8.5 Z"/></g>
<g><path style="opacity:0.505" fill="#353635" d="M 29.5,8.5 C 31.3464,8.22216 32.6798,8.88882 33.5,10.5C 32.6798,12.1112 31.3464,12.7778 29.5,12.5C 29.5,11.1667 29.5,9.83333 29.5,8.5 Z"/></g>
<g><path style="opacity:0.777" fill="#353635" d="M 21.5,37.5 C 24.5792,37.8042 27.4125,38.8042 30,40.5C 39.1483,36.0428 46.1483,38.3761 51,47.5C 51.6667,50.8333 51.6667,54.1667 51,57.5C 47.2393,64.8833 44.2393,72.55 42,80.5C 38.5493,85.1299 34.8826,85.4633 31,81.5C 30.6667,77.5 30.3333,73.5 30,69.5C 29.8702,73.9508 29.2036,78.2841 28,82.5C 25.7162,84.9845 23.2162,85.1511 20.5,83C 18.3834,81.2691 16.8834,79.1024 16,76.5C 14.4568,69.8699 12.1235,63.5366 9,57.5C 6.87885,46.7187 11.0455,40.0521 21.5,37.5 Z M 22.5,41.5 C 17.102,43.2337 13.7687,46.9003 12.5,52.5C 15.7911,60.6581 18.6244,68.9914 21,77.5C 22.1096,79.0368 23.6096,79.7035 25.5,79.5C 25.3345,75.4862 25.5012,71.4862 26,67.5C 26.9774,63.5606 29.3108,62.5606 33,64.5C 34.2503,69.4195 34.7503,74.4195 34.5,79.5C 37.595,79.3737 39.4283,77.707 40,74.5C 41.5432,67.8699 43.8765,61.5366 47,55.5C 46.6777,43.8674 41.011,40.2007 30,44.5C 27.3173,43.907 24.8173,42.907 22.5,41.5 Z"/></g>
<g><path style="opacity:0.813" fill="#353635" d="M 55.5,37.5 C 68.8375,37.3334 82.1708,37.5001 95.5,38C 96.626,41.7436 96.7927,45.577 96,49.5C 82.5752,50.6557 69.0752,50.8223 55.5,50C 54.1968,45.834 54.1968,41.6674 55.5,37.5 Z M 58.5,41.5 C 58.5,43.1667 58.5,44.8333 58.5,46.5C 69.8333,46.5 81.1667,46.5 92.5,46.5C 92.5,44.8333 92.5,43.1667 92.5,41.5C 81.1667,41.5 69.8333,41.5 58.5,41.5 Z"/></g>
<g><path style="opacity:0.723" fill="#353635" d="M 37.5,44.5 C 44.6574,45.4777 46.9908,49.311 44.5,56C 43.5509,56.6172 42.7175,56.4506 42,55.5C 41.6667,53.8333 41.3333,52.1667 41,50.5C 37.3725,49.6617 36.2058,47.6617 37.5,44.5 Z"/></g>
<g><path style="opacity:0.811" fill="#353635" d="M 55.5,55.5 C 68.8375,55.3334 82.1708,55.5001 95.5,56C 96.626,59.7436 96.7927,63.577 96,67.5C 82.5752,68.6557 69.0752,68.8223 55.5,68C 54.1968,63.834 54.1968,59.6674 55.5,55.5 Z M 58.5,59.5 C 58.5,61.1667 58.5,62.8333 58.5,64.5C 69.8333,64.5 81.1667,64.5 92.5,64.5C 92.5,62.8333 92.5,61.1667 92.5,59.5C 81.1667,59.5 69.8333,59.5 58.5,59.5 Z"/></g>
<g><path style="opacity:0.824" fill="#353635" d="M 54.5,73.5 C 68.5,73.5 82.5,73.5 96.5,73.5C 96.7935,77.4367 96.4601,81.27 95.5,85C 82.1667,85.6667 68.8333,85.6667 55.5,85C 54.5399,81.27 54.2065,77.4367 54.5,73.5 Z M 58.5,77.5 C 58.5,78.8333 58.5,80.1667 58.5,81.5C 69.8333,81.5 81.1667,81.5 92.5,81.5C 92.5,80.1667 92.5,78.8333 92.5,77.5C 81.1667,77.5 69.8333,77.5 58.5,77.5 Z"/></g>
</svg>
