<?xml version="1.0" encoding="UTF-8"?>
<!DOCTYPE svg PUBLIC "-//W3C//DTD SVG 1.1//EN" "http://www.w3.org/Graphics/SVG/1.1/DTD/svg11.dtd">
<svg xmlns="http://www.w3.org/2000/svg" version="1.1" width="104px" height="104px" style="shape-rendering:geometricPrecision; text-rendering:geometricPrecision; image-rendering:optimizeQuality; fill-rule:evenodd; clip-rule:evenodd" xmlns:xlink="http://www.w3.org/1999/xlink">
<g><path style="opacity:0.786" fill="#353635" d="M 90.5,-0.5 C 90.8333,-0.5 91.1667,-0.5 91.5,-0.5C 97.2072,0.205291 101.207,3.20529 103.5,8.5C 103.5,29.8333 103.5,51.1667 103.5,72.5C 100.334,80.526 94.6678,83.3593 86.5,81C 88.8221,79.0765 91.4888,77.7431 94.5,77C 96.3783,75.4571 97.8783,73.6238 99,71.5C 99.6667,50.8333 99.6667,30.1667 99,9.5C 95.6338,4.39101 91.1338,3.22434 85.5,6C 84.2986,6.90252 83.4652,8.06919 83,9.5C 82.6667,28.5 82.3333,47.5 82,66.5C 78.5178,86.4774 67.0178,98.8107 47.5,103.5C 43.1667,103.5 38.8333,103.5 34.5,103.5C 14.9605,98.6269 3.29383,86.2935 -0.5,66.5C -0.5,63.5 -0.5,60.5 -0.5,57.5C 5.63142,31.2425 22.2981,19.4092 49.5,22C 62.1902,25.0338 71.6902,32.2005 78,43.5C 78.3333,31.5 78.6667,19.5 79,7.5C 81.4763,2.69336 85.3097,0.0266902 90.5,-0.5 Z M 33.5,25.5 C 59.615,24.2795 74.615,36.6128 78.5,62.5C 74.9928,87.5121 60.6595,99.6788 35.5,99C 15.9179,94.4156 5.25128,82.0823 3.5,62C 5.7233,43.2899 15.7233,31.1232 33.5,25.5 Z"/></g>
<g><path style="opacity:0.575" fill="#353635" d="M 36.5,32.5 C 37.5,32.5 38.5,32.5 39.5,32.5C 39.3352,36.8638 38.0019,37.3638 35.5,34C 36.056,33.6174 36.3893,33.1174 36.5,32.5 Z"/></g>
<g><path style="opacity:0.581" fill="#353635" d="M 48.5,33.5 C 51.8606,34.2032 52.1939,35.5365 49.5,37.5C 47.8241,36.2724 47.4908,34.9391 48.5,33.5 Z"/></g>
<g><path style="opacity:0.527" fill="#353635" d="M 25.5,35.5 C 27.5323,36.0478 28.5323,37.3812 28.5,39.5C 24.8141,39.87 23.8141,38.5367 25.5,35.5 Z"/></g>
<g><path style="opacity:0.535" fill="#353635" d="M 58.5,39.5 C 59.5,39.5 60.5,39.5 61.5,39.5C 61.7778,41.3464 61.1112,42.6798 59.5,43.5C 58.5713,42.3112 58.238,40.9778 58.5,39.5 Z"/></g>
<g><path style="opacity:0.776" fill="#353635" d="M 40.5,42.5 C 55.4026,44.2395 61.9026,52.5729 60,67.5C 58.2639,74.2366 54.0972,78.7366 47.5,81C 34.7471,84.2021 26.2471,79.7021 22,67.5C 21.3333,65.5 21.3333,63.5 22,61.5C 22.7175,60.5494 23.5509,60.3828 24.5,61C 26.523,73.6753 33.8563,79.0086 46.5,77C 55.3011,72.2267 58.1344,65.06 55,55.5C 51.3859,49.9367 46.2193,46.77 39.5,46C 39.1667,45.6667 38.8333,45.3333 38.5,45C 39.3805,44.2917 40.0472,43.4584 40.5,42.5 Z"/></g>
<g><path style="opacity:0.62" fill="#353635" d="M 18.5,43.5 C 19.4345,44.5676 19.7678,45.901 19.5,47.5C 18.5,47.5 17.5,47.5 16.5,47.5C 16.5271,45.8007 17.1938,44.4674 18.5,43.5 Z"/></g>
<g><path style="opacity:0.527" fill="#353635" d="M 65.5,48.5 C 67.9118,48.6941 68.9118,50.0274 68.5,52.5C 65.0136,52.7047 64.0136,51.3714 65.5,48.5 Z"/></g>
<g><path style="opacity:0.547" fill="#353635" d="M 12.5,54.5 C 15.3881,55.5395 15.7214,56.8729 13.5,58.5C 11.3576,57.5629 11.0243,56.2296 12.5,54.5 Z"/></g>
<g><path style="opacity:0.512" fill="#353635" d="M 68.5,60.5 C 71.8606,61.2032 72.1939,62.5365 69.5,64.5C 67.3576,63.5629 67.0243,62.2296 68.5,60.5 Z"/></g>
<g><path style="opacity:0.522" fill="#353635" d="M 11.5,66.5 C 15.5411,66.5017 16.2077,67.835 13.5,70.5C 11.8888,69.6798 11.2222,68.3464 11.5,66.5 Z"/></g>
<g><path style="opacity:0.64" fill="#353635" d="M 66.5,71.5 C 68.1042,72.287 68.7709,73.6203 68.5,75.5C 67.5,75.5 66.5,75.5 65.5,75.5C 65.4326,74.0413 65.7659,72.7079 66.5,71.5 Z"/></g>
<g><path style="opacity:0.62" fill="#353635" d="M 16.5,77.5 C 17.5,77.5 18.5,77.5 19.5,77.5C 18.5,82.8333 17.5,82.8333 16.5,77.5 Z"/></g>
<g><path style="opacity:0.522" fill="#353635" d="M 58.5,81.5 C 59.5,81.5 60.5,81.5 61.5,81.5C 61.5,82.8333 61.5,84.1667 61.5,85.5C 60.5,85.5 59.5,85.5 58.5,85.5C 58.5,84.1667 58.5,82.8333 58.5,81.5 Z"/></g>
<g><path style="opacity:0.704" fill="#353635" d="M 25.5,85.5 C 26.5,85.5 27.5,85.5 28.5,85.5C 28.5,86.5 28.5,87.5 28.5,88.5C 27.5,88.5 26.5,88.5 25.5,88.5C 25.5,87.5 25.5,86.5 25.5,85.5 Z"/></g>
<g><path style="opacity:0.497" fill="#353635" d="M 48.5,87.5 C 49.5,87.5 50.5,87.5 51.5,87.5C 51.4261,91.5412 50.0928,92.2079 47.5,89.5C 47.8627,88.8165 48.1961,88.1499 48.5,87.5 Z"/></g>
<g><path style="opacity:0.517" fill="#353635" d="M 37.5,88.5 C 41.7031,90.664 41.3697,91.9973 36.5,92.5C 36.4326,91.0413 36.7659,89.7079 37.5,88.5 Z"/></g>
</svg>
