<?xml version="1.0" encoding="UTF-8"?>
<!DOCTYPE svg PUBLIC "-//W3C//DTD SVG 1.1//EN" "http://www.w3.org/Graphics/SVG/1.1/DTD/svg11.dtd">
<svg xmlns="http://www.w3.org/2000/svg" version="1.1" width="104px" height="104px" style="shape-rendering:geometricPrecision; text-rendering:geometricPrecision; image-rendering:optimizeQuality; fill-rule:evenodd; clip-rule:evenodd" xmlns:xlink="http://www.w3.org/1999/xlink">
<g><path style="opacity:0.78" fill="#353635" d="M 57.5,-0.5 C 58.8333,-0.5 60.1667,-0.5 61.5,-0.5C 64.002,0.669824 66.502,2.00316 69,3.5C 71.6743,2.28565 74.1743,0.952321 76.5,-0.5C 77.8333,-0.5 79.1667,-0.5 80.5,-0.5C 91.8011,1.63718 98.1344,8.47051 99.5,20C 94.9332,32.3155 90.7666,44.8155 87,57.5C 84.9023,61.5527 81.569,63.886 77,64.5C 74.6948,64.5159 73.0282,63.5159 72,61.5C 71.8417,54.488 70.8417,47.488 69,40.5C 68.0441,47.8502 67.0441,55.1835 66,62.5C 61.4002,65.3734 57.2335,64.7067 53.5,60.5C 48.9669,48.0705 44.1335,35.7372 39,23.5C 38.2176,10.1183 44.3843,2.11834 57.5,-0.5 Z M 58.5,3.5 C 61.9828,4.99605 65.4828,6.32938 69,7.5C 72.6874,6.98746 76.0208,5.65413 79,3.5C 95.6168,8.73565 99.2835,18.7357 90,33.5C 88,40.1667 86,46.8333 84,53.5C 82.6955,56.6377 80.5288,58.971 77.5,60.5C 74.469,58.4346 73.8023,55.7679 75.5,52.5C 74.8985,47.789 74.0652,43.1223 73,38.5C 70.439,34.7535 67.7723,34.7535 65,38.5C 64.0121,45.5002 63.1787,52.5002 62.5,59.5C 61.635,60.5827 60.635,60.7494 59.5,60C 58.3333,58.8333 57.1667,57.6667 56,56.5C 52.8987,49.7639 50.5654,42.7639 49,35.5C 38.3932,20.499 41.5598,9.83234 58.5,3.5 Z"/></g>
<g><path style="opacity:0.716" fill="#353635" d="M 80.5,9.5 C 89.3182,10.9957 92.3182,15.829 89.5,24C 88.5509,24.6172 87.7175,24.4506 87,23.5C 86.6667,21.5 86.3333,19.5 86,17.5C 83.8939,15.5397 81.7272,13.7064 79.5,12C 79.7432,11.0979 80.0766,10.2646 80.5,9.5 Z"/></g>
<g><path style="opacity:0.8" fill="#353635" d="M 103.5,81.5 C 103.5,82.5 103.5,83.5 103.5,84.5C 102.636,85.6883 101.636,86.8549 100.5,88C 87.2812,92.9 74.2812,98.0667 61.5,103.5C 59.5,103.5 57.5,103.5 55.5,103.5C 43.6184,100.518 31.6184,97.5179 19.5,94.5C 18.7717,96.1932 17.7717,97.6932 16.5,99C 10.7507,99.7847 5.08402,99.6181 -0.5,98.5C -0.5,86.8333 -0.5,75.1667 -0.5,63.5C 5.66696,62.1862 11.8336,62.1862 18,63.5C 25.6079,58.183 33.1079,58.3497 40.5,64C 45.222,64.7769 49.8887,64.6103 54.5,63.5C 55.646,64.1449 56.646,64.9783 57.5,66C 56.5834,72.156 53.25,76.4893 47.5,79C 51.3333,80.5 55.1667,82 59,83.5C 70.3649,79.9505 81.8649,76.9505 93.5,74.5C 98.5177,74.5291 101.851,76.8625 103.5,81.5 Z M 27.5,63.5 C 31.6071,63.9246 35.2738,65.4246 38.5,68C 43.1667,68.3333 47.8333,68.6667 52.5,69C 50.792,71.0435 48.792,72.7101 46.5,74C 42.1794,74.499 37.8461,74.6657 33.5,74.5C 33.238,75.9778 33.5713,77.3112 34.5,78.5C 42.488,81.9959 50.6547,84.9959 59,87.5C 70.3767,84.6559 81.71,81.6559 93,78.5C 97.5371,78.5119 99.0371,80.5119 97.5,84.5C 84.2944,89.4018 71.1277,94.4018 58,99.5C 44.8936,96.1791 31.727,93.1791 18.5,90.5C 18.3337,83.1591 18.5003,75.8258 19,68.5C 21.5308,66.0967 24.3641,64.4301 27.5,63.5 Z M 3.5,66.5 C 7.16667,66.5 10.8333,66.5 14.5,66.5C 14.5,76.1667 14.5,85.8333 14.5,95.5C 10.8333,95.5 7.16667,95.5 3.5,95.5C 3.5,85.8333 3.5,76.1667 3.5,66.5 Z"/></g>
</svg>
