<?xml version="1.0" encoding="UTF-8"?>
<!DOCTYPE svg PUBLIC "-//W3C//DTD SVG 1.1//EN" "http://www.w3.org/Graphics/SVG/1.1/DTD/svg11.dtd">
<svg xmlns="http://www.w3.org/2000/svg" version="1.1" width="103px" height="103px" style="shape-rendering:geometricPrecision; text-rendering:geometricPrecision; image-rendering:optimizeQuality; fill-rule:evenodd; clip-rule:evenodd" xmlns:xlink="http://www.w3.org/1999/xlink">
<g><path style="opacity:0.788" fill="#353635" d="M 78.5,-0.5 C 86.1667,-0.5 93.8333,-0.5 101.5,-0.5C 101.5,0.166667 101.833,0.5 102.5,0.5C 102.5,1.16667 102.5,1.83333 102.5,2.5C 95.2456,3.29903 87.9123,3.79903 80.5,4C 77.1667,6.66667 73.8333,9.33333 70.5,12C 78.2861,19.3509 78.4528,26.8509 71,34.5C 61.4877,26.321 52.6544,17.4877 44.5,8C 49.2191,1.32277 55.2191,-0.0105612 62.5,4C 64.0175,5.68511 65.6841,7.18511 67.5,8.5C 71.5011,5.82483 75.1677,2.82483 78.5,-0.5 Z M 53.5,5.5 C 56.0163,5.75526 58.3496,6.58859 60.5,8C 64,11.5 67.5,15 71,18.5C 73.136,21.9926 72.9694,25.3259 70.5,28.5C 63.3477,21.848 56.3477,15.0147 49.5,8C 50.8584,7.06564 52.1917,6.2323 53.5,5.5 Z"/></g>
<g><path style="opacity:0.741" fill="#353635" d="M 43.5,17.5 C 44.8333,17.5 46.1667,17.5 47.5,17.5C 46.3444,21.5001 43.8444,24.5001 40,26.5C 38.6346,25.4071 38.3013,24.0738 39,22.5C 40.7073,20.9625 42.2073,19.2959 43.5,17.5 Z"/></g>
<g><path style="opacity:0.729" fill="#353635" d="M 49.5,23.5 C 50.8333,23.5 52.1667,23.5 53.5,23.5C 52.37,27.3129 50.0367,30.3129 46.5,32.5C 45.2801,32.1131 44.6135,31.2798 44.5,30C 45.9852,27.683 47.6519,25.5164 49.5,23.5 Z"/></g>
<g><path style="opacity:0.812" fill="#353635" d="M 83.5,102.5 C 59.8333,102.5 36.1667,102.5 12.5,102.5C 10.9087,101.781 9.40875,100.781 8,99.5C 7.33333,95.8333 7.33333,92.1667 8,88.5C 8.30762,87.6919 8.80762,87.0253 9.5,86.5C 17.1101,85.5329 24.7767,85.1996 32.5,85.5C 32.5,81.8333 32.5,78.1667 32.5,74.5C 26.8149,75.1071 22.3149,73.1071 19,68.5C 12.7396,56.973 6.23963,45.6397 -0.5,34.5C -0.5,33.1667 -0.5,31.8333 -0.5,30.5C 6.89076,25.9457 13.7241,26.6123 20,32.5C 23.1667,37.6667 26.3333,42.8333 29.5,48C 38.8333,48.3333 48.1667,48.6667 57.5,49C 59.0429,50.8783 60.8762,52.3783 63,53.5C 63.49,54.7932 63.6567,56.1266 63.5,57.5C 60.1228,57.3103 57.4561,55.8103 55.5,53C 47.8117,52.1685 40.145,52.3352 32.5,53.5C 33.7515,55.0009 34.7515,56.6675 35.5,58.5C 48.1535,59.3326 60.8202,59.8326 73.5,60C 75.5,60.6667 77.5,61.3333 79.5,62C 86.3434,67.1835 92.8434,72.6835 99,78.5C 100.719,85.7801 97.8854,88.9468 90.5,88C 85,83.8333 79.5,79.6667 74,75.5C 73.5017,78.8168 73.335,82.1501 73.5,85.5C 83.9922,83.8335 88.8256,88.1669 88,98.5C 86.7501,100.193 85.2501,101.527 83.5,102.5 Z M 6.5,31.5 C 10.0765,31.2051 13.2432,32.2051 16,34.5C 21.7079,44.0836 27.5412,53.5836 33.5,63C 47.5684,63.0522 61.5684,63.7188 75.5,65C 81.8333,69.8333 88.1667,74.6667 94.5,79.5C 95.6837,83.7319 94.3503,84.8986 90.5,83C 85.6825,78.7597 80.6825,74.7597 75.5,71C 58.742,70.9716 42.0753,70.3049 25.5,69C 17.8701,57.5789 10.8701,45.7456 4.5,33.5C 5.24269,32.8182 5.90935,32.1515 6.5,31.5 Z M 36.5,74.5 C 47.5,74.5 58.5,74.5 69.5,74.5C 69.5,78.1667 69.5,81.8333 69.5,85.5C 58.5,85.5 47.5,85.5 36.5,85.5C 36.5,81.8333 36.5,78.1667 36.5,74.5 Z M 12.5,89.5 C 35.5024,89.3334 58.5024,89.5 81.5,90C 85.2047,92.9578 85.2047,95.6245 81.5,98C 58.8333,98.6667 36.1667,98.6667 13.5,98C 11.1638,95.4625 10.8304,92.6292 12.5,89.5 Z"/></g>
<g><path style="opacity:0.72" fill="#353635" d="M 55.5,29.5 C 56.8333,29.5 58.1667,29.5 59.5,29.5C 58.37,33.3129 56.0367,36.3129 52.5,38.5C 51.2801,38.1131 50.6135,37.2798 50.5,36C 51.9852,33.683 53.6519,31.5164 55.5,29.5 Z"/></g>
</svg>
