<?xml version="1.0" encoding="UTF-8"?>
<!DOCTYPE svg PUBLIC "-//W3C//DTD SVG 1.1//EN" "http://www.w3.org/Graphics/SVG/1.1/DTD/svg11.dtd">
<svg xmlns="http://www.w3.org/2000/svg" version="1.1" width="104px" height="104px" style="shape-rendering:geometricPrecision; text-rendering:geometricPrecision; image-rendering:optimizeQuality; fill-rule:evenodd; clip-rule:evenodd" xmlns:xlink="http://www.w3.org/1999/xlink">
<g><path style="opacity:0.812" fill="#353635" d="M 0.5,-0.5 C 28.1667,-0.5 55.8333,-0.5 83.5,-0.5C 84.1584,13.4271 84.4917,27.4271 84.5,41.5C 84.6508,55.9234 84.1508,70.2567 83,84.5C 77.5,90 72,95.5 66.5,101C 44.094,101.822 21.7606,101.655 -0.5,100.5C -0.5,67.1667 -0.5,33.8333 -0.5,0.5C 0.166667,0.5 0.5,0.166667 0.5,-0.5 Z M 3.5,3.5 C 29.1667,3.5 54.8333,3.5 80.5,3.5C 80.5,28.8333 80.5,54.1667 80.5,79.5C 74.8236,79.3339 69.1569,79.5006 63.5,80C 62.5251,85.7412 62.1918,91.5746 62.5,97.5C 42.8333,97.5 23.1667,97.5 3.5,97.5C 3.5,66.1667 3.5,34.8333 3.5,3.5 Z M 34.5,20.5 C 30.8595,22.8627 31.3595,24.8627 36,26.5C 36.49,27.7932 36.6567,29.1266 36.5,30.5C 37.5,30.5 38.5,30.5 39.5,30.5C 37.7722,36.7529 35.4389,42.7529 32.5,48.5C 31.6667,44.5 30.8333,40.5 30,36.5C 27.67,34.9683 25.67,35.3017 24,37.5C 23.6667,40.8333 23.3333,44.1667 23,47.5C 21.8525,48.4581 20.8525,48.1247 20,46.5C 18.3287,39.9857 16.162,33.6524 13.5,27.5C 15.6977,20.149 20.1977,18.149 27,21.5C 29.0924,21.121 31.0924,20.4543 33,19.5C 33.7648,19.5699 34.2648,19.9033 34.5,20.5 Z M 66.5,83.5 C 69.8499,83.335 73.1832,83.5017 76.5,84C 73.3333,87.1667 70.1667,90.3333 67,93.5C 66.5017,90.1832 66.335,86.8499 66.5,83.5 Z"/></g>
<g><path style="opacity:0.826" fill="#353635" d="M 94.5,-0.5 C 95.1667,-0.5 95.8333,-0.5 96.5,-0.5C 98.6564,5.31857 100.99,10.9852 103.5,16.5C 103.5,41.8333 103.5,67.1667 103.5,92.5C 102.686,94.631 102.186,96.9644 102,99.5C 101.31,101.35 100.144,102.684 98.5,103.5C 96.1667,103.5 93.8333,103.5 91.5,103.5C 88.9659,100.396 87.7992,96.7288 88,92.5C 87.3333,67.1667 87.3333,41.8333 88,16.5C 89.6937,10.5756 91.8604,4.90895 94.5,-0.5 Z M 93.5,12.5 C 94.8333,12.5 96.1667,12.5 97.5,12.5C 97.4208,13.9305 97.7542,15.2638 98.5,16.5C 96.604,17.4656 94.604,17.7989 92.5,17.5C 92.6287,15.7839 92.962,14.1172 93.5,12.5 Z M 91.5,21.5 C 94.1667,21.5 96.8333,21.5 99.5,21.5C 99.5,44.1667 99.5,66.8333 99.5,89.5C 96.8333,89.5 94.1667,89.5 91.5,89.5C 91.5,66.8333 91.5,44.1667 91.5,21.5 Z M 92.5,93.5 C 94.5,93.5 96.5,93.5 98.5,93.5C 98.8589,97.9872 97.0256,99.6539 93,98.5C 92.5065,96.8659 92.3398,95.1992 92.5,93.5 Z"/></g>
<g><path style="opacity:0.775" fill="#353635" d="M 17.5,15.5 C 20.9297,15.1065 24.0964,15.7732 27,17.5C 40.032,13.8566 45.6986,18.8566 44,32.5C 41.3625,38.3846 39.0292,44.3846 37,50.5C 33.1708,54.6625 29.8375,54.3292 27,49.5C 22.767,54.6229 19.1003,53.9563 16,47.5C 14.0935,40.7018 11.9268,34.0352 9.5,27.5C 9.70156,21.7408 12.3682,17.7408 17.5,15.5 Z M 34.5,20.5 C 30.8595,22.8627 31.3595,24.8627 36,26.5C 36.49,27.7932 36.6567,29.1266 36.5,30.5C 37.5,30.5 38.5,30.5 39.5,30.5C 37.7722,36.7529 35.4389,42.7529 32.5,48.5C 31.6667,44.5 30.8333,40.5 30,36.5C 27.67,34.9683 25.67,35.3017 24,37.5C 23.6667,40.8333 23.3333,44.1667 23,47.5C 21.8525,48.4581 20.8525,48.1247 20,46.5C 18.3287,39.9857 16.162,33.6524 13.5,27.5C 15.6977,20.149 20.1977,18.149 27,21.5C 29.0924,21.121 31.0924,20.4543 33,19.5C 33.7648,19.5699 34.2648,19.9033 34.5,20.5 Z"/></g>
<g><path style="opacity:0.781" fill="#353635" d="M 52.5,31.5 C 59.5079,31.3337 66.5079,31.5004 73.5,32C 74.1667,32.6667 74.8333,33.3333 75.5,34C 67.672,35.4657 59.672,35.9657 51.5,35.5C 51.4326,34.0413 51.7659,32.7079 52.5,31.5 Z"/></g>
<g><path style="opacity:0.777" fill="#353635" d="M 52.5,41.5 C 59.5079,41.3337 66.5079,41.5004 73.5,42C 74.1667,42.6667 74.8333,43.3333 75.5,44C 67.672,45.4657 59.672,45.9657 51.5,45.5C 51.4326,44.0413 51.7659,42.7079 52.5,41.5 Z"/></g>
<g><path style="opacity:0.802" fill="#353635" d="M 10.5,59.5 C 32.3175,59.0118 53.9842,59.5118 75.5,61C 74.8333,61.6667 74.1667,62.3333 73.5,63C 52.8333,63.6667 32.1667,63.6667 11.5,63C 9.62688,62.0471 9.29354,60.8804 10.5,59.5 Z"/></g>
<g><path style="opacity:0.802" fill="#353635" d="M 11.5,68.5 C 32.1694,68.3334 52.836,68.5 73.5,69C 74.1667,69.6667 74.8333,70.3333 75.5,71C 53.9816,72.6539 32.315,72.9872 10.5,72C 10.1667,71.6667 9.83333,71.3333 9.5,71C 10.3805,70.2917 11.0472,69.4584 11.5,68.5 Z"/></g>
</svg>
