<?xml version="1.0" encoding="UTF-8"?>
<!DOCTYPE svg PUBLIC "-//W3C//DTD SVG 1.1//EN" "http://www.w3.org/Graphics/SVG/1.1/DTD/svg11.dtd">
<svg xmlns="http://www.w3.org/2000/svg" version="1.1" width="101px" height="103px" style="shape-rendering:geometricPrecision; text-rendering:geometricPrecision; image-rendering:optimizeQuality; fill-rule:evenodd; clip-rule:evenodd" xmlns:xlink="http://www.w3.org/1999/xlink">
<g><path style="opacity:0.801" fill="#353635" d="M 6.5,-0.5 C 8.16667,-0.5 9.83333,-0.5 11.5,-0.5C 14.4897,2.12612 14.9897,5.12612 13,8.5C 11.9887,9.33663 10.8221,9.66997 9.5,9.5C 9.70755,11.9201 9.37422,14.2534 8.5,16.5C 12.1224,17.3253 15.789,17.8253 19.5,18C 26.5,25 33.5,32 40.5,39C 42.3774,39.5758 44.2108,39.4091 46,38.5C 47.5,39 49,39.5 50.5,40C 62.3333,51.8333 74.1667,63.6667 86,75.5C 89.0121,85.1538 85.5121,89.3205 75.5,88C 63.3333,75.8333 51.1667,63.6667 39,51.5C 37.3409,48.5698 37.0076,45.5698 38,42.5C 31.1667,35.6667 24.3333,28.8333 17.5,22C 13.1794,21.501 8.84611,21.3343 4.5,21.5C 4.45711,18.1326 4.79044,14.7992 5.5,11.5C 5.12532,9.08377 4.45866,6.75044 3.5,4.5C 3.75732,2.30755 4.75732,0.640888 6.5,-0.5 Z M 43.5,43.5 C 47.8474,43.3197 51.1807,45.153 53.5,49C 51.6667,50.8333 49.8333,52.6667 48,54.5C 46,52.5 44,50.5 42,48.5C 41.3872,46.5048 41.8872,44.8381 43.5,43.5 Z M 55.5,52.5 C 62.2432,57.7373 68.5766,63.5706 74.5,70C 72.6667,71.8333 70.8333,73.6667 69,75.5C 63.3333,69.8333 57.6667,64.1667 52,58.5C 51.3333,57.8333 51.3333,57.1667 52,56.5C 53.3756,55.2949 54.5423,53.9616 55.5,52.5 Z M 76.5,73.5 C 79.4278,74.5914 81.5945,76.5914 83,79.5C 83.339,83.4874 81.5057,84.9874 77.5,84C 75.6487,82.3163 73.982,80.4829 72.5,78.5C 73.8569,76.8144 75.1902,75.1477 76.5,73.5 Z"/></g>
<g><path style="opacity:0.773" fill="#353635" d="M 48.5,-0.5 C 50.5,-0.5 52.5,-0.5 54.5,-0.5C 58.4958,8.17085 56.4958,15.3375 48.5,21C 54.1667,26.6667 59.8333,32.3333 65.5,38C 68.6229,38.2065 71.6229,38.8732 74.5,40C 83.3963,48.7285 92.0629,57.5618 100.5,66.5C 100.5,68.5 100.5,70.5 100.5,72.5C 97.7544,75.3054 94.4211,76.1387 90.5,75C 81.6667,66.1667 72.8333,57.3333 64,48.5C 63.6667,46.1667 63.3333,43.8333 63,41.5C 55.6667,34.1667 48.3333,26.8333 41,19.5C 38.7221,11.0537 41.2221,4.38702 48.5,-0.5 Z M 50.5,3.5 C 53.1927,8.11509 52.1927,12.2818 47.5,16C 45.6815,16.7828 44.3482,16.2828 43.5,14.5C 44.5948,9.96153 46.9281,6.29486 50.5,3.5 Z M 68.5,42.5 C 73.3452,43.7566 74.1785,46.0899 71,49.5C 67.8385,47.8452 67.0052,45.5119 68.5,42.5 Z M 76.5,49.5 C 80.4643,52.9629 84.2977,56.6295 88,60.5C 88.3446,62.2009 87.6779,63.5342 86,64.5C 82.3333,60.8333 78.6667,57.1667 75,53.5C 74.7003,51.9343 75.2003,50.601 76.5,49.5 Z M 91.5,65.5 C 94.7864,66.2419 96.1197,68.0753 95.5,71C 92.9063,71.4493 90.9063,70.4493 89.5,68C 90.3805,67.2917 91.0472,66.4584 91.5,65.5 Z"/></g>
<g><path style="opacity:0.803" fill="#353635" d="M 68.5,102.5 C 66.1667,102.5 63.8333,102.5 61.5,102.5C 51.5355,92.0349 41.3688,81.7016 31,71.5C 30.6667,68.8333 30.3333,66.1667 30,63.5C 24,57.5 18,51.5 12,45.5C 8.86881,46.2061 5.70215,46.8728 2.5,47.5C 1.48224,46.8075 0.482236,46.1408 -0.5,45.5C -0.5,40.8333 -0.5,36.1667 -0.5,31.5C 0.687867,30.3157 1.85453,30.3157 3,31.5C 3.49863,35.1516 3.6653,38.8183 3.5,42.5C 6.39713,42.6813 9.23046,42.3479 12,41.5C 19.7529,47.248 26.9196,53.748 33.5,61C 36.6229,61.2065 39.6229,61.8732 42.5,63C 52,72.5 61.5,82 71,91.5C 72.1868,95.7831 71.3535,99.4497 68.5,102.5 Z M 35.5,65.5 C 42.4839,66.2223 43.6506,68.889 39,73.5C 35.5127,71.6017 34.3461,68.935 35.5,65.5 Z M 45.5,72.5 C 50.6313,77.1302 55.6313,81.9635 60.5,87C 59.2343,88.9827 57.5676,89.9827 55.5,90C 51.3333,85.8333 47.1667,81.6667 43,77.5C 43.0579,75.5646 43.8912,73.8979 45.5,72.5 Z M 62.5,90.5 C 66.3662,91.7348 67.6995,94.2348 66.5,98C 63.5377,98.0901 61.2043,96.7568 59.5,94C 60.7101,92.9609 61.7101,91.7942 62.5,90.5 Z"/></g>
</svg>
