<?xml version="1.0" encoding="UTF-8"?>
<!DOCTYPE svg PUBLIC "-//W3C//DTD SVG 1.1//EN" "http://www.w3.org/Graphics/SVG/1.1/DTD/svg11.dtd">
<svg xmlns="http://www.w3.org/2000/svg" version="1.1" width="99px" height="105px" style="shape-rendering:geometricPrecision; text-rendering:geometricPrecision; image-rendering:optimizeQuality; fill-rule:evenodd; clip-rule:evenodd" xmlns:xlink="http://www.w3.org/1999/xlink">
<g><path style="opacity:0.779" fill="#353635" d="M 30.5,-0.5 C 32.5,-0.5 34.5,-0.5 36.5,-0.5C 40.5076,1.92537 44.6742,4.2587 49,6.5C 53.4441,3.84772 57.9441,1.51438 62.5,-0.5C 64.5,-0.5 66.5,-0.5 68.5,-0.5C 83.9329,2.53731 93.9329,11.5373 98.5,26.5C 98.5,29.8333 98.5,33.1667 98.5,36.5C 95.9449,43.6224 92.7783,50.6224 89,57.5C 85.486,69.2249 81.8194,80.8916 78,92.5C 75.3093,97.6889 71.4759,101.689 66.5,104.5C 63.8333,104.5 61.1667,104.5 58.5,104.5C 56.4383,102.59 54.9383,100.257 54,97.5C 54.0814,86.0116 52.9147,74.6782 50.5,63.5C 49.5,63.5 48.5,63.5 47.5,63.5C 45.1725,75.0337 44.0058,86.7004 44,98.5C 43.1959,101.146 41.6959,103.146 39.5,104.5C 36.8333,104.5 34.1667,104.5 31.5,104.5C 25.4055,101.228 21.2388,96.2279 19,89.5C 15.4967,73.3188 9.83002,57.9855 2,43.5C 1.15876,40.3718 0.325426,37.3718 -0.5,34.5C -0.5,32.5 -0.5,30.5 -0.5,28.5C 3.69698,12.3038 14.0303,2.63715 30.5,-0.5 Z M 31.5,3.5 C 37.7413,5.29019 43.7413,7.62353 49.5,10.5C 54.7052,8.3152 59.8719,5.98186 65,3.5C 81.7629,5.93089 91.5962,15.4309 94.5,32C 94.0601,35.5928 93.2268,39.0928 92,42.5C 88.8061,47.5545 86.1394,52.8878 84,58.5C 81.1967,70.9098 77.1967,82.9098 72,94.5C 69.0584,98.3891 65.225,100.222 60.5,100C 59.2986,99.0975 58.4652,97.9308 58,96.5C 58.2141,84.6405 56.8808,72.9738 54,61.5C 50.7963,58.887 47.6296,58.887 44.5,61.5C 41.2106,73.2495 39.7106,85.2495 40,97.5C 39.2229,99.2148 37.8895,100.215 36,100.5C 31.2602,99.2979 27.5935,96.6312 25,92.5C 20.8649,82.0942 17.5316,71.4275 15,60.5C 10.1837,51.3715 6.35036,41.8715 3.5,32C 6.33259,16.0015 15.6659,6.50148 31.5,3.5 Z M 47.5,17.5 C 62.53,20.5642 67.3633,29.2309 62,43.5C 52.968,52.7652 43.968,52.7652 35,43.5C 29.2269,30.0463 33.3936,21.3797 47.5,17.5 Z M 47.5,25.5 C 49.1537,27.5597 50.1537,30.0597 50.5,33C 59.8333,34 59.8333,35 50.5,36C 49.1753,45.3771 48.0086,45.5437 47,36.5C 44.5272,35.8803 42.0272,35.2136 39.5,34.5C 45.7357,34.6003 48.4024,31.6003 47.5,25.5 Z"/></g>
<g><path style="opacity:0.762" fill="#353635" d="M 68.5,10.5 C 83.8479,13.2169 90.3479,22.2169 88,37.5C 86.9887,38.3366 85.8221,38.67 84.5,38.5C 86.6989,30.1325 84.3656,23.2992 77.5,18C 73.4389,16.5505 69.7722,14.5505 66.5,12C 67.4158,11.7216 68.0825,11.2216 68.5,10.5 Z"/></g>
<g><path style="opacity:0.774" fill="#353635" d="M 46.5,13.5 C 65.9374,16.129 72.4374,26.7957 66,45.5C 56.804,55.6996 46.304,57.1996 34.5,50C 25.0627,39.0617 25.3961,28.395 35.5,18C 39.0531,15.8792 42.7197,14.3792 46.5,13.5 Z M 47.5,17.5 C 33.3936,21.3797 29.2269,30.0463 35,43.5C 43.968,52.7652 52.968,52.7652 62,43.5C 67.3633,29.2309 62.53,20.5642 47.5,17.5 Z M 47.5,25.5 C 48.4024,31.6003 45.7357,34.6003 39.5,34.5C 42.0272,35.2136 44.5272,35.8803 47,36.5C 48.0086,45.5437 49.1753,45.3771 50.5,36C 59.8333,35 59.8333,34 50.5,33C 50.1537,30.0597 49.1537,27.5597 47.5,25.5 Z"/></g>
<g><path style="opacity:0.819" fill="#353635" d="M 43.5,21.5 C 46.5184,21.3354 49.5184,21.502 52.5,22C 53.435,24.3806 53.7683,26.8806 53.5,29.5C 61.2962,28.4054 63.6296,31.5721 60.5,39C 58.1902,39.4966 55.8568,39.6633 53.5,39.5C 54.5946,47.2962 51.4279,49.6296 44,46.5C 43.5034,44.1902 43.3367,41.8568 43.5,39.5C 40.8806,39.7683 38.3806,39.435 36,38.5C 35.502,35.5184 35.3354,32.5184 35.5,29.5C 38.1667,29.5 40.8333,29.5 43.5,29.5C 43.5,26.8333 43.5,24.1667 43.5,21.5 Z M 47.5,25.5 C 48.4024,31.6003 45.7357,34.6003 39.5,34.5C 42.0272,35.2136 44.5272,35.8803 47,36.5C 48.0086,45.5437 49.1753,45.3771 50.5,36C 59.8333,35 59.8333,34 50.5,33C 50.1537,30.0597 49.1537,27.5597 47.5,25.5 Z"/></g>
</svg>
