<?xml version="1.0" encoding="UTF-8"?>
<!DOCTYPE svg PUBLIC "-//W3C//DTD SVG 1.1//EN" "http://www.w3.org/Graphics/SVG/1.1/DTD/svg11.dtd">
<svg xmlns="http://www.w3.org/2000/svg" version="1.1" width="98px" height="107px" style="shape-rendering:geometricPrecision; text-rendering:geometricPrecision; image-rendering:optimizeQuality; fill-rule:evenodd; clip-rule:evenodd" xmlns:xlink="http://www.w3.org/1999/xlink">
<g><path style="opacity:0.777" fill="#353635" d="M 10.5,-0.5 C 13.5,-0.5 16.5,-0.5 19.5,-0.5C 30.7131,9.82999 31.3798,20.9967 21.5,33C 30.3119,41.2348 39.3119,49.2348 48.5,57C 51.8612,57.0536 54.8612,58.0536 57.5,60C 68.9822,69.9052 80.6489,79.5719 92.5,89C 98.1183,94.9484 97.4517,100.282 90.5,105C 88.1667,105.667 85.8333,105.667 83.5,105C 71.5,94.3333 59.5,83.6667 47.5,73C 44.7754,70.0584 42.7754,66.7251 41.5,63C 31.6468,54.9031 21.9801,46.5698 12.5,38C 10.0993,35.9376 7.43265,34.2709 4.5,33C 2.13171,30.0926 0.465044,26.9259 -0.5,23.5C -0.5,20.5 -0.5,17.5 -0.5,14.5C 0.979084,7.86726 4.64575,2.86726 10.5,-0.5 Z M 15.5,34.5 C 2.73354,28.0223 0.233542,18.6889 8,6.5C 12.3333,2.5 16.6667,2.5 21,6.5C 26.016,16.087 24.3494,24.4203 16,31.5C 15.5172,32.448 15.3505,33.448 15.5,34.5 Z M 14.5,9.5 C 16.9588,10.8738 17.9588,13.0405 17.5,16C 17.7517,19.9966 16.2517,23.1632 13,25.5C 8.58599,19.7869 9.08599,14.4536 14.5,9.5 Z M 18.5,37.5 C 20.0269,37.427 21.0269,38.0937 21.5,39.5C 19.9731,39.573 18.9731,38.9063 18.5,37.5 Z M 25.5,43.5 C 27.0269,43.427 28.0269,44.0937 28.5,45.5C 26.9731,45.573 25.9731,44.9063 25.5,43.5 Z M 32.5,49.5 C 34.0269,49.427 35.0269,50.0937 35.5,51.5C 33.9731,51.573 32.9731,50.9063 32.5,49.5 Z M 39.5,55.5 C 41.0269,55.427 42.0269,56.0937 42.5,57.5C 40.9731,57.573 39.9731,56.9063 39.5,55.5 Z M 50.5,61.5 C 55.2173,64.0374 59.5506,67.204 63.5,71C 62.2892,73.8997 60.2892,75.5663 57.5,76C 54.6312,72.7959 51.4646,69.9626 48,67.5C 47.9717,65.2134 48.805,63.2134 50.5,61.5 Z M 66.5,73.5 C 71.9605,77.7892 77.2939,82.2892 82.5,87C 80.5985,89.6131 78.2652,91.2797 75.5,92C 71.618,87.8173 67.4514,83.984 63,80.5C 63.8274,78.1226 64.9941,75.7892 66.5,73.5 Z M 85.5,89.5 C 87.9896,91.4893 90.3229,93.6559 92.5,96C 88.4404,103.286 84.4404,103.119 80.5,95.5C 82.1897,93.4807 83.8564,91.4807 85.5,89.5 Z"/></g>
<g><path style="opacity:0.786" fill="#353635" d="M 97.5,15.5 C 97.5,17.1667 97.5,18.8333 97.5,20.5C 93.0176,29.7553 89.1842,39.422 86,49.5C 82.531,52.9163 78.8644,53.2496 75,50.5C 74.8113,45.7492 74.1447,41.0826 73,36.5C 72.6667,40.8333 72.3333,45.1667 72,49.5C 67.864,53.6335 63.864,53.3002 60,48.5C 57.451,40.6185 54.451,32.9519 51,25.5C 47.2544,12.6517 51.9211,4.98508 65,2.5C 68.0049,2.48086 70.8382,3.14752 73.5,4.5C 85.2438,0.0787454 93.2438,3.74541 97.5,15.5 Z M 62.5,6.5 C 66.3963,6.61224 70.063,7.61224 73.5,9.5C 83.7522,4.29005 90.4189,7.29005 93.5,18.5C 89.4444,26.8327 86.2777,35.4993 84,44.5C 82.9717,46.3615 81.4717,47.6948 79.5,48.5C 78.6965,43.1607 77.8632,37.8274 77,32.5C 75.0966,29.0453 72.7632,28.712 70,31.5C 68.8938,36.7695 68.2272,42.1028 68,47.5C 65.9093,48.4996 64.2426,47.8329 63,45.5C 60.5198,36.2243 57.3531,27.2243 53.5,18.5C 54.2678,12.7434 57.2678,8.74341 62.5,6.5 Z"/></g>
<g><path style="opacity:0.771" fill="#353635" d="M 12.5,5.5 C 19.4102,5.75703 22.4102,9.4237 21.5,16.5C 22.0136,20.7248 20.8469,24.3914 18,27.5C 9.74583,31.29 5.57916,28.4567 5.5,19C 5.9004,13.3617 8.23373,8.86166 12.5,5.5 Z M 14.5,9.5 C 9.08599,14.4536 8.58599,19.7869 13,25.5C 16.2517,23.1632 17.7517,19.9966 17.5,16C 17.9588,13.0405 16.9588,10.8738 14.5,9.5 Z"/></g>
<g><path style="opacity:0.751" fill="#353635" d="M 82.5,9.5 C 90.4616,11.5494 92.295,15.8827 88,22.5C 86.8372,20.7148 86.1705,18.7148 86,16.5C 83.8416,15.1741 82.0082,13.5075 80.5,11.5C 81.2427,10.8182 81.9094,10.1515 82.5,9.5 Z"/></g>
<g><path style="opacity:0.787" fill="#353635" d="M 27.5,106.5 C 25.5,106.5 23.5,106.5 21.5,106.5C 19.836,103.134 19.0027,99.467 19,95.5C 18.7599,99.2519 18.2599,102.919 17.5,106.5C 15.1667,106.5 12.8333,106.5 10.5,106.5C 6.80218,101.096 4.30218,95.0964 3,88.5C 2.05898,86.2726 0.892318,84.2726 -0.5,82.5C -0.5,79.8333 -0.5,77.1667 -0.5,74.5C 3.73894,65.9201 10.2389,63.5867 19,67.5C 27.0982,63.3323 33.4316,65.3323 38,73.5C 38.6667,76.8333 38.6667,80.1667 38,83.5C 34.9045,89.5458 32.5712,95.8792 31,102.5C 29.6244,103.705 28.4577,105.038 27.5,106.5 Z M 31.5,72.5 C 29.0002,71.1104 26.6668,71.2771 24.5,73C 25.5955,74.6753 27.0955,75.842 29,76.5C 28.734,79.9008 30.234,81.5674 33.5,81.5C 31.2387,87.7836 29.072,94.117 27,100.5C 26.3109,101.357 25.4776,102.023 24.5,102.5C 23.8157,97.7924 22.9823,93.1258 22,88.5C 19.67,86.9683 17.67,87.3017 16,89.5C 15.2479,93.8517 14.4145,98.1851 13.5,102.5C 11.8539,101.221 10.6872,99.5547 10,97.5C 8.84941,91.5324 6.84941,85.8658 4,80.5C 4.5663,70.3774 9.5663,67.3774 19,71.5C 21.3333,70.8333 23.6667,70.1667 26,69.5C 28.3987,69.6132 30.2321,70.6132 31.5,72.5 Z M 32.5,73.5 C 34.0265,74.4919 34.6932,75.9919 34.5,78C 34.4857,79.3847 34.1524,80.5514 33.5,81.5C 33.5987,78.7628 33.2653,76.0961 32.5,73.5 Z"/></g>
<g><path style="opacity:0.759" fill="#353635" d="M 31.5,72.5 C 31.5,73.1667 31.8333,73.5 32.5,73.5C 33.2653,76.0961 33.5987,78.7628 33.5,81.5C 30.234,81.5674 28.734,79.9008 29,76.5C 27.0955,75.842 25.5955,74.6753 24.5,73C 26.6668,71.2771 29.0002,71.1104 31.5,72.5 Z"/></g>
</svg>
