<?xml version="1.0" encoding="UTF-8"?>
<!DOCTYPE svg PUBLIC "-//W3C//DTD SVG 1.1//EN" "http://www.w3.org/Graphics/SVG/1.1/DTD/svg11.dtd">
<svg xmlns="http://www.w3.org/2000/svg" version="1.1" width="96px" height="104px" style="shape-rendering:geometricPrecision; text-rendering:geometricPrecision; image-rendering:optimizeQuality; fill-rule:evenodd; clip-rule:evenodd" xmlns:xlink="http://www.w3.org/1999/xlink">
<g><path style="opacity:0.824" fill="#353635" d="M 34.5,-0.5 C 43.1667,-0.5 51.8333,-0.5 60.5,-0.5C 68.7552,4.41797 71.4219,11.5846 68.5,21C 72.4542,34.8019 68.9542,46.3019 58,55.5C 57.5017,58.8168 57.335,62.1501 57.5,65.5C 72.9973,62.1677 84.164,67.501 91,81.5C 92.0734,87.4052 93.5734,93.0719 95.5,98.5C 95.5,100.167 95.5,101.833 95.5,103.5C 63.5,103.5 31.5,103.5 -0.5,103.5C -0.5,101.5 -0.5,99.5 -0.5,97.5C 1.12836,91.9936 2.62836,86.3269 4,80.5C 10.9584,67.6095 21.7917,62.6095 36.5,65.5C 36.665,62.1501 36.4983,58.8168 36,55.5C 28.2366,48.8043 24.4033,40.3043 24.5,30C 25.0622,22.5042 25.5622,15.0042 26,7.5C 28.0982,3.89715 30.9315,1.23049 34.5,-0.5 Z M 35.5,3.5 C 43.1739,3.33365 50.8406,3.50031 58.5,4C 64.0939,6.68429 66.4272,11.1843 65.5,17.5C 53.5,17.5 41.5,17.5 29.5,17.5C 28.2682,11.3096 30.2682,6.64294 35.5,3.5 Z M 29.5,21.5 C 41.1714,21.3335 52.8381,21.5001 64.5,22C 65.432,25.0854 66.0986,28.2521 66.5,31.5C 53.8333,31.5 41.1667,31.5 28.5,31.5C 28.6159,28.1401 28.9492,24.8067 29.5,21.5 Z M 34.5,35.5 C 43.1667,35.5 51.8333,35.5 60.5,35.5C 62.166,48.6614 56.4993,54.8281 43.5,54C 36.0391,50.1658 33.0391,43.9992 34.5,35.5 Z M 40.5,57.5 C 44.6994,58.7398 48.8661,58.7398 53,57.5C 53.6667,62.8333 53.6667,68.1667 53,73.5C 48.1846,80.1444 44.1846,79.4778 41,71.5C 40.5008,66.8452 40.3342,62.1785 40.5,57.5 Z M 21.5,69.5 C 26.5,69.5 31.5,69.5 36.5,69.5C 38.4777,81.8615 44.6444,84.8615 55,78.5C 56.9076,75.7935 57.741,72.7935 57.5,69.5C 69.5446,67.0082 79.0446,70.6749 86,80.5C 88.0744,86.7069 89.5744,93.0402 90.5,99.5C 61.4981,99.6666 32.4981,99.5 3.5,99C 4.96816,91.9657 7.13482,85.1323 10,78.5C 13.1584,74.4933 16.9918,71.4933 21.5,69.5 Z"/></g>
<g><path style="opacity:0.599" fill="#353635" d="M 44.5,84.5 C 45.8333,84.5 47.1667,84.5 48.5,84.5C 48.7778,86.3464 48.1112,87.6798 46.5,88.5C 44.8888,87.6798 44.2222,86.3464 44.5,84.5 Z"/></g>
<g><path style="opacity:0.604" fill="#353635" d="M 45.5,94.5 C 47.9118,94.6941 48.9118,96.0274 48.5,98.5C 47.1667,98.5 45.8333,98.5 44.5,98.5C 44.4326,97.0413 44.7659,95.7079 45.5,94.5 Z"/></g>
</svg>
