<?xml version="1.0" encoding="UTF-8"?>
<!DOCTYPE svg PUBLIC "-//W3C//DTD SVG 1.1//EN" "http://www.w3.org/Graphics/SVG/1.1/DTD/svg11.dtd">
<svg xmlns="http://www.w3.org/2000/svg" version="1.1" width="105px" height="89px" style="shape-rendering:geometricPrecision; text-rendering:geometricPrecision; image-rendering:optimizeQuality; fill-rule:evenodd; clip-rule:evenodd" xmlns:xlink="http://www.w3.org/1999/xlink">
<g><path style="opacity:0.831" fill="#353635" d="M 4.5,-0.5 C 8.5,-0.5 12.5,-0.5 16.5,-0.5C 20.0002,2.05938 24.0002,3.55938 28.5,4C 44.1667,4.66667 59.8333,4.66667 75.5,4C 79.9998,3.55938 83.9998,2.05938 87.5,-0.5C 91.1667,-0.5 94.8333,-0.5 98.5,-0.5C 101.086,0.415309 103.086,2.08198 104.5,4.5C 104.5,6.5 104.5,8.5 104.5,10.5C 103.702,16.0788 100.869,20.4121 96,23.5C 95.7802,27.9192 94.2802,31.7526 91.5,35C 78.0536,36.2461 64.7203,37.4128 51.5,38.5C 37.8175,37.9116 24.1509,36.745 10.5,35C 8.23585,31.5526 6.90251,27.7192 6.5,23.5C 3.11339,20.0528 0.780054,16.0528 -0.5,11.5C -0.5,9.16667 -0.5,6.83333 -0.5,4.5C 0.833333,2.5 2.5,0.833333 4.5,-0.5 Z M 6.5,3.5 C 9.51838,3.33537 12.5184,3.50204 15.5,4C 19.2316,6.13274 23.2316,7.46607 27.5,8C 43.8333,8.66667 60.1667,8.66667 76.5,8C 82.0716,6.62282 87.5716,5.12282 93,3.5C 100.488,3.38305 102.488,6.71638 99,13.5C 98.6322,14.91 97.7989,15.91 96.5,16.5C 92.083,12.9654 87.4164,12.6321 82.5,15.5C 78.348,12.8716 74.1814,12.8716 70,15.5C 63.6201,10.1234 57.4534,10.4568 51.5,16.5C 45.3746,9.89975 39.208,9.89975 33,16.5C 31.1781,14.9546 29.0114,14.288 26.5,14.5C 23.9886,14.288 21.8219,14.9546 20,16.5C 19.5,16 19,15.5 18.5,15C 15.1667,14.3333 11.8333,14.3333 8.5,15C 7.25134,16.8241 6.08467,16.6574 5,14.5C 4.42115,12.3513 3.92115,10.1846 3.5,8C 3.55715,5.79108 4.55715,4.29108 6.5,3.5 Z M 41.5,15.5 C 45.0163,16.1785 47.5163,18.1785 49,21.5C 49.499,25.8206 49.6657,30.1539 49.5,34.5C 45.1667,34.5 40.8333,34.5 36.5,34.5C 36.0907,30.1524 35.9241,25.819 36,21.5C 36.6831,18.3212 38.5164,16.3212 41.5,15.5 Z M 60.5,15.5 C 63.6692,15.8386 65.8359,17.5052 67,20.5C 67.4614,25.1841 67.2947,29.8507 66.5,34.5C 62.2325,34.797 58.0659,34.4637 54,33.5C 53.2738,28.7613 53.6071,24.0947 55,19.5C 56.4998,17.5313 58.3331,16.198 60.5,15.5 Z M 74.5,17.5 C 77.2776,17.0217 79.2776,18.0217 80.5,20.5C 79.668,24.1546 78.8346,27.8212 78,31.5C 75.9592,32.4231 73.7925,32.7564 71.5,32.5C 71.3345,28.4862 71.5012,24.4862 72,20.5C 73.045,19.6266 73.8783,18.6266 74.5,17.5 Z M 87.5,17.5 C 89.1439,17.2865 90.6439,17.6198 92,18.5C 92.1961,22.8527 91.3628,27.0194 89.5,31C 87.5273,31.4955 85.5273,31.6621 83.5,31.5C 83.3354,28.4816 83.502,25.4816 84,22.5C 84.2572,20.0935 85.4238,18.4268 87.5,17.5 Z M 10.5,18.5 C 17.324,17.8266 20.324,20.9933 19.5,28C 18.86,32.9199 16.5267,33.7532 12.5,30.5C 11.189,26.6112 10.5224,22.6112 10.5,18.5 Z M 23.5,18.5 C 25.5273,18.3379 27.5273,18.5045 29.5,19C 31.699,23.524 32.0323,28.1907 30.5,33C 28.5594,33.7429 26.7261,33.5762 25,32.5C 23.7748,27.9147 23.2748,23.248 23.5,18.5 Z"/></g>
<g><path style="opacity:0.826" fill="#353635" d="M 104.5,54.5 C 104.5,56.8333 104.5,59.1667 104.5,61.5C 103.846,66.7182 101.18,70.7182 96.5,73.5C 95.9108,77.4665 94.5775,81.1332 92.5,84.5C 84.679,84.9084 77.0123,86.2418 69.5,88.5C 57.5,88.5 45.5,88.5 33.5,88.5C 30.3586,87.6787 27.0252,87.1787 23.5,87C 23,86.5 22.5,86 22,85.5C 18.5915,86.6219 15.0915,86.7886 11.5,86C 10.6667,85.1667 9.83333,84.3333 9,83.5C 8.57517,77.5363 6.24184,72.5363 2,68.5C 1.09774,66.0731 0.264404,63.7397 -0.5,61.5C -0.5,59.1667 -0.5,56.8333 -0.5,54.5C 0.316435,52.8564 1.64977,51.6897 3.5,51C 11.2358,49.6657 18.5691,50.6657 25.5,54C 43.1667,54.6667 60.8333,54.6667 78.5,54C 85.4668,50.6657 92.8001,49.6657 100.5,51C 102.35,51.6897 103.684,52.8564 104.5,54.5 Z M 5.5,54.5 C 9.18174,54.3347 12.8484,54.5014 16.5,55C 18.9573,56.5621 21.624,57.5621 24.5,58C 42.8333,58.6667 61.1667,58.6667 79.5,58C 83.821,56.0862 88.321,54.9196 93,54.5C 100.507,54.2947 102.507,57.628 99,64.5C 97.7051,68.0838 96.2051,68.2505 94.5,65C 90.6126,63.0903 86.7792,63.257 83,65.5C 78.3607,62.5839 74.0274,62.9173 70,66.5C 63.8686,61.1969 57.702,61.1969 51.5,66.5C 45.4291,61.2271 39.4291,61.2271 33.5,66.5C 29.1001,63.9012 24.7668,63.9012 20.5,66.5C 15.6374,63.5079 11.1374,63.8413 7,67.5C 3.68249,63.3122 3.18249,58.9789 5.5,54.5 Z M 39.5,66.5 C 42.8621,66.0695 45.6954,67.0695 48,69.5C 49.3254,74.4012 49.8254,79.4012 49.5,84.5C 45.1667,84.5 40.8333,84.5 36.5,84.5C 36.5429,81.1326 36.2096,77.7992 35.5,74.5C 35.7821,71.2691 37.1154,68.6024 39.5,66.5 Z M 58.5,66.5 C 62.3547,65.8454 65.1881,67.1788 67,70.5C 67.4614,75.1841 67.2947,79.8507 66.5,84.5C 62.1667,84.5 57.8333,84.5 53.5,84.5C 52.9896,78.928 53.8229,73.5947 56,68.5C 56.9947,67.9341 57.828,67.2674 58.5,66.5 Z M 75.5,67.5 C 77.8444,67.6748 79.511,68.8415 80.5,71C 79.7606,74.4871 78.9272,77.9871 78,81.5C 72.77,84.9539 70.6033,83.4539 71.5,77C 70.8356,72.8439 72.1689,69.6772 75.5,67.5 Z M 88.5,67.5 C 90.7503,67.9513 92.0836,69.2847 92.5,71.5C 91.8223,74.5443 90.989,77.5443 90,80.5C 87.3504,83.2174 84.8504,83.0507 82.5,80C 82.3943,74.7037 84.3943,70.537 88.5,67.5 Z M 11.5,68.5 C 13.8273,68.2471 15.8273,68.9137 17.5,70.5C 19.0033,74.3556 19.67,78.3556 19.5,82.5C 17.2075,82.7564 15.0408,82.4231 13,81.5C 10.9772,77.2545 10.4772,72.9211 11.5,68.5 Z M 24.5,68.5 C 27.3245,68.0807 29.4912,69.0807 31,71.5C 31.4988,75.4862 31.6655,79.4862 31.5,83.5C 29.2075,83.7564 27.0408,83.4231 25,82.5C 24.2164,78.9495 23.3831,75.4495 22.5,72C 23.305,70.8873 23.9717,69.7206 24.5,68.5 Z"/></g>
</svg>
