<?xml version="1.0" encoding="UTF-8"?>
<!DOCTYPE svg PUBLIC "-//W3C//DTD SVG 1.1//EN" "http://www.w3.org/Graphics/SVG/1.1/DTD/svg11.dtd">
<svg xmlns="http://www.w3.org/2000/svg" version="1.1" width="103px" height="104px" style="shape-rendering:geometricPrecision; text-rendering:geometricPrecision; image-rendering:optimizeQuality; fill-rule:evenodd; clip-rule:evenodd" xmlns:xlink="http://www.w3.org/1999/xlink">
<g><path style="opacity:0.793" fill="#353635" d="M 28.5,-0.5 C 29.8333,-0.5 31.1667,-0.5 32.5,-0.5C 36.8881,1.19124 41.2214,3.19124 45.5,5.5C 49.8943,3.38922 54.2277,1.38922 58.5,-0.5C 59.8333,-0.5 61.1667,-0.5 62.5,-0.5C 82.616,3.11428 92.116,15.1143 91,35.5C 89.1823,41.3026 86.6823,46.8026 83.5,52C 89.9508,58.1911 96.2841,64.3577 102.5,70.5C 102.5,72.8333 102.5,75.1667 102.5,77.5C 99.3657,82.1191 95.0324,83.6191 89.5,82C 85.6311,78.4662 82.1311,74.6328 79,70.5C 77.336,79.1586 74.6693,87.4919 71,95.5C 68.228,98.7834 65.0614,101.45 61.5,103.5C 59.1667,103.5 56.8333,103.5 54.5,103.5C 52.0303,101.918 50.5303,99.585 50,96.5C 49.6667,89.8333 49.3333,83.1667 49,76.5C 48.5963,72.5391 47.4296,68.8725 45.5,65.5C 43.398,69.9078 42.2314,74.5745 42,79.5C 41.6667,85.8333 41.3333,92.1667 41,98.5C 40.0027,100.323 38.8361,101.99 37.5,103.5C 34.8333,103.5 32.1667,103.5 29.5,103.5C 24.1332,100.627 20.2999,96.2937 18,90.5C 14.1994,78.2978 10.866,65.9645 8,53.5C 4.34369,47.0667 1.51035,40.4 -0.5,33.5C -0.5,30.8333 -0.5,28.1667 -0.5,25.5C 3.55119,10.6311 13.2179,1.96441 28.5,-0.5 Z M 30.5,3.5 C 35.6299,5.56509 40.6299,7.89843 45.5,10.5C 50.3438,7.91244 55.3438,5.5791 60.5,3.5C 86.9707,10.4184 93.4707,25.7517 80,49.5C 79.3076,48.9747 78.8076,48.3081 78.5,47.5C 83.4987,24.334 74.1653,13.5007 50.5,15C 37.0828,20.3289 31.9161,30.1622 35,44.5C 40.3118,57.0769 49.8118,62.2436 63.5,60C 64.7659,59.6905 65.9326,59.1905 67,58.5C 69.6667,61.1667 72.3333,63.8333 75,66.5C 74.1775,75.9747 71.5109,84.9747 67,93.5C 64.5803,97.6239 61.0803,99.4572 56.5,99C 55.2986,98.0975 54.4652,96.9308 54,95.5C 53.798,86.7904 53.1314,78.1237 52,69.5C 51.3196,61.6623 47.653,59.6623 41,63.5C 38.4894,75.0865 36.8227,86.7531 36,98.5C 31.6485,99.5085 27.9818,98.1752 25,94.5C 22.4491,90.0654 20.4491,85.3988 19,80.5C 16.4902,65.1211 11.8235,50.4544 5,36.5C 2.42287,24.1455 6.58954,14.6455 17.5,8C 21.7146,5.76318 26.048,4.26318 30.5,3.5 Z M 73.5,28.5 C 61.5801,21.1022 50.4134,22.1022 40,31.5C 40.8799,25.9699 44.0466,22.1366 49.5,20C 60.0268,16.2281 68.0268,19.0615 73.5,28.5 Z M 19.5,20.5 C 24.0408,20.8152 25.0408,22.6485 22.5,26C 17.7217,26.0734 16.7217,24.2401 19.5,20.5 Z M 55.5,27.5 C 64.0149,27.8439 67.5149,32.1772 66,40.5C 60.7147,47.1517 55.3813,47.1517 50,40.5C 48.5708,34.7001 50.4041,30.3668 55.5,27.5 Z M 43.5,33.5 C 44.7251,34.1522 45.3917,35.3189 45.5,37C 45.3333,38.1667 45.1667,39.3333 45,40.5C 41.3415,38.5936 40.8415,36.2603 43.5,33.5 Z M 70.5,33.5 C 75.6719,35.2394 75.8386,37.5727 71,40.5C 70.5034,38.1902 70.3367,35.8568 70.5,33.5 Z M 57.5,34.5 C 59.8519,35.5426 60.0185,36.8759 58,38.5C 56.2317,37.3181 56.0651,35.9848 57.5,34.5 Z M 38.5,40.5 C 50.1143,51.5875 62.281,52.2542 75,42.5C 72.6351,51.5041 66.6351,56.1708 57,56.5C 47.2907,55.2923 41.124,49.959 38.5,40.5 Z M 75.5,51.5 C 84.027,58.1945 91.6937,65.6945 98.5,74C 97.0254,78.3791 94.3587,79.3791 90.5,77C 84.1667,70 77.8333,63 71.5,56C 73.0414,54.6288 74.3747,53.1288 75.5,51.5 Z"/></g>
<g><path style="opacity:0.762" fill="#353635" d="M 17.5,16.5 C 27.5251,15.7314 30.5251,19.8981 26.5,29C 17.5984,32.6514 13.4317,29.8181 14,20.5C 14.6897,18.6498 15.8564,17.3164 17.5,16.5 Z M 19.5,20.5 C 16.7217,24.2401 17.7217,26.0734 22.5,26C 25.0408,22.6485 24.0408,20.8152 19.5,20.5 Z"/></g>
<g><path style="opacity:0.771" fill="#353635" d="M 55.5,30.5 C 62.9186,30.4902 65.252,33.9902 62.5,41C 54.7748,44.0657 51.6081,41.5657 53,33.5C 54.045,32.6266 54.8783,31.6266 55.5,30.5 Z M 57.5,34.5 C 56.0651,35.9848 56.2317,37.3181 58,38.5C 60.0185,36.8759 59.8519,35.5426 57.5,34.5 Z"/></g>
</svg>
