<?xml version="1.0" encoding="UTF-8"?>
<!DOCTYPE svg PUBLIC "-//W3C//DTD SVG 1.1//EN" "http://www.w3.org/Graphics/SVG/1.1/DTD/svg11.dtd">
<svg xmlns="http://www.w3.org/2000/svg" version="1.1" width="103px" height="103px" style="shape-rendering:geometricPrecision; text-rendering:geometricPrecision; image-rendering:optimizeQuality; fill-rule:evenodd; clip-rule:evenodd" xmlns:xlink="http://www.w3.org/1999/xlink">
<g><path style="opacity:0.809" fill="#353635" d="M 34.5,-0.5 C 41.5,-0.5 48.5,-0.5 55.5,-0.5C 59.6961,1.0317 62.0295,4.0317 62.5,8.5C 69.8409,8.33368 77.1742,8.50034 84.5,9C 89.9352,10.7694 93.7685,14.2694 96,19.5C 96.8972,45.3823 99.0639,71.049 102.5,96.5C 102.5,98.1667 102.5,99.8333 102.5,101.5C 101.833,101.5 101.5,101.833 101.5,102.5C 93.1667,102.5 84.8333,102.5 76.5,102.5C 77.0802,87.262 78.2468,71.9286 80,56.5C 80.8323,46.1506 80.6656,35.8172 79.5,25.5C 73.8955,24.5456 68.2289,24.2123 62.5,24.5C 62.3234,28.5257 60.3234,31.359 56.5,33C 48.8333,33.6667 41.1667,33.6667 33.5,33C 30.0317,30.068 26.3651,27.4013 22.5,25C 20.4376,23.4675 19.1043,21.4675 18.5,19C 12.0865,18.7932 5.75314,18.2932 -0.5,17.5C -0.5,16.8333 -0.5,16.1667 -0.5,15.5C 5.75314,14.7068 12.0865,14.2068 18.5,14C 19.5853,11.828 20.9186,9.82796 22.5,8C 26.6721,5.31488 30.6721,2.48155 34.5,-0.5 Z M 35.5,3.5 C 41.8421,3.33379 48.1754,3.50046 54.5,4C 55.9308,4.46524 57.0975,5.29857 58,6.5C 58.6667,13.1667 58.6667,19.8333 58,26.5C 57.5,27 57,27.5 56.5,28C 49.608,29.5906 42.608,29.9239 35.5,29C 34.0692,28.5348 32.9025,27.7014 32,26.5C 30.424,20.6123 30.0906,14.6123 31,8.5C 32.025,6.31305 33.525,4.64638 35.5,3.5 Z M 24.5,11.5 C 25.7868,12.8714 26.4535,14.7047 26.5,17C 26.5443,23.8126 25.211,23.8126 22.5,17C 23.0769,15.0999 23.7435,13.2666 24.5,11.5 Z M 62.5,12.5 C 69.175,12.3337 75.8417,12.5004 82.5,13C 88,14.5 91.5,18 93,23.5C 93.4998,33.4944 93.6665,43.4944 93.5,53.5C 90.5,53.5 87.5,53.5 84.5,53.5C 84.6665,43.4944 84.4998,33.4944 84,23.5C 82.8289,22.1068 81.3289,21.2735 79.5,21C 73.8431,20.5006 68.1764,20.3339 62.5,20.5C 62.5,17.8333 62.5,15.1667 62.5,12.5 Z M 83.5,57.5 C 87.1667,57.5 90.8333,57.5 94.5,57.5C 95.3266,71.0968 96.66,84.5968 98.5,98C 92.5092,98.4995 86.5092,98.6662 80.5,98.5C 81.5602,84.8378 82.5602,71.1712 83.5,57.5 Z"/></g>
<g><path style="opacity:0.782" fill="#353635" d="M 42.5,102.5 C 40.5,102.5 38.5,102.5 36.5,102.5C 33.0596,99.1677 32.0596,95.1677 33.5,90.5C 32.8974,86.4459 32.0641,82.4459 31,78.5C 29.8482,84.7697 29.1815,91.1031 29,97.5C 28.6339,99.4517 27.8005,101.118 26.5,102.5C 24.5,102.5 22.5,102.5 20.5,102.5C 16.1225,100.612 13.2892,97.2791 12,92.5C 8.83211,80.6905 4.99877,69.1905 0.5,58C 2.02102,45.6464 9.02102,38.8131 21.5,37.5C 24.9801,38.1586 28.1468,39.492 31,41.5C 41.161,35.9299 50.161,37.5965 58,46.5C 63,55.8524 62.3333,64.8524 56,73.5C 53.7562,82.1646 50.7562,90.4979 47,98.5C 45.6032,100.07 44.1032,101.404 42.5,102.5 Z M 20.5,41.5 C 23.9828,42.996 27.4828,44.3294 31,45.5C 40.9315,39.8974 49.2648,41.8974 56,51.5C 58,55.8333 58,60.1667 56,64.5C 51.2995,72.9507 47.9662,81.9507 46,91.5C 45.0343,94.9651 42.8677,97.2984 39.5,98.5C 36.469,96.4346 35.8023,93.7679 37.5,90.5C 36.8985,85.789 36.0652,81.1223 35,76.5C 32.3333,72.5 29.6667,72.5 27,76.5C 26.0121,83.5002 25.1787,90.5002 24.5,97.5C 23.635,98.5827 22.635,98.7494 21.5,98C 20,96.5 18.5,95 17,93.5C 14.5528,83.0386 10.8861,73.0386 6,63.5C 3.82422,57.3447 4.99088,51.8447 9.5,47C 12.9905,44.588 16.6571,42.7547 20.5,41.5 Z"/></g>
<g><path style="opacity:0.719" fill="#353635" d="M 42.5,47.5 C 48.9337,48.1004 52.6004,51.6004 53.5,58C 52.7213,62.9461 51.0546,63.4461 48.5,59.5C 49.2231,57.8361 48.8897,56.1694 47.5,54.5C 45.2902,53.2339 43.2902,51.7339 41.5,50C 41.7432,49.0979 42.0766,48.2646 42.5,47.5 Z"/></g>
</svg>
