<?xml version="1.0" encoding="UTF-8"?>
<!DOCTYPE svg PUBLIC "-//W3C//DTD SVG 1.1//EN" "http://www.w3.org/Graphics/SVG/1.1/DTD/svg11.dtd">
<svg xmlns="http://www.w3.org/2000/svg" version="1.1" width="107px" height="106px" style="shape-rendering:geometricPrecision; text-rendering:geometricPrecision; image-rendering:optimizeQuality; fill-rule:evenodd; clip-rule:evenodd" xmlns:xlink="http://www.w3.org/1999/xlink">
<g><path style="opacity:0.804" fill="#353635" d="M 19.5,-0.5 C 20.8333,-0.5 22.1667,-0.5 23.5,-0.5C 26.6546,5.13945 29.8212,10.8061 33,16.5C 41.2135,10.7347 48.8802,11.4013 56,18.5C 57.4659,16.6751 59.2992,16.1751 61.5,17C 64,19.5 66.5,22 69,24.5C 71.754,21.2379 74.9206,18.5712 78.5,16.5C 83.0586,18.5442 85.8919,21.8776 87,26.5C 84.3167,29.0159 81.8167,31.6826 79.5,34.5C 81.483,36.9837 83.6496,39.3171 86,41.5C 86.8249,43.7008 86.3249,45.5341 84.5,47C 92.1919,54.2737 93.5253,62.607 88.5,72C 94.0816,75.0403 99.5816,78.207 105,81.5C 105.832,85.1431 104.332,86.8098 100.5,86.5C 100.657,87.8734 100.49,89.2068 100,90.5C 95.6673,94.2135 91.334,97.8801 87,101.5C 86.5899,102.901 86.0899,104.234 85.5,105.5C 84.5,105.5 83.5,105.5 82.5,105.5C 79.021,100.553 76.021,95.2197 73.5,89.5C 73,89.1667 72.5,88.8333 72,88.5C 66.4109,91.7876 60.5775,92.2876 54.5,90C 41.3623,77.8629 28.5289,65.3629 16,52.5C 12.5676,45.751 12.7343,39.0844 16.5,32.5C 11.8247,29.1605 6.82472,26.3271 1.5,24C 0.934056,23.0053 0.267389,22.172 -0.5,21.5C -0.5,21.1667 -0.5,20.8333 -0.5,20.5C 0.88159,19.1995 2.54826,18.3661 4.5,18C 5.27575,14.0573 7.60908,11.5573 11.5,10.5C 12.5076,6.82577 14.8409,4.49244 18.5,3.5C 19.2458,2.26381 19.5792,0.930472 19.5,-0.5 Z M 21.5,6.5 C 24.3921,10.6021 27.0588,14.9355 29.5,19.5C 26.8011,23.0332 23.6345,26.0332 20,28.5C 15.4098,26.7916 11.2431,24.4583 7.5,21.5C 8.80638,20.0878 9.63971,18.4211 10,16.5C 13.6402,15.5265 15.9736,13.1932 17,9.5C 18.8778,8.94727 20.3778,7.94727 21.5,6.5 Z M 40.5,16.5 C 44.8751,16.3469 48.7084,17.6803 52,20.5C 51.6256,22.7687 51.6256,25.102 52,27.5C 54.1667,29.6667 56.3333,31.8333 58.5,34C 55.4489,36.7143 52.7822,39.7143 50.5,43C 52.7822,46.2857 55.4489,49.2857 58.5,52C 59.5,52.6667 60.5,52.6667 61.5,52C 64,49.5 66.5,47 69,44.5C 71.5,47 74,49.5 76.5,52C 78.6546,52.116 80.6546,51.7827 82.5,51C 87.645,55.5978 88.8117,61.0978 86,67.5C 80.5,74.3333 74.3333,80.5 67.5,86C 63.0132,88.0391 58.6798,87.7057 54.5,85C 41.6024,72.7715 29.4357,59.9382 18,46.5C 17.1834,43.0357 17.5167,39.7024 19,36.5C 25.7616,29.2326 32.9283,22.5659 40.5,16.5 Z M 58.5,21.5 C 61.8681,24.0354 65.3681,26.3688 69,28.5C 72.5295,26.985 75.5295,24.6517 78,21.5C 79.9827,22.7657 80.9827,24.4324 81,26.5C 78.2329,28.7583 76.0662,31.4249 74.5,34.5C 76.4185,37.7604 78.7518,40.7604 81.5,43.5C 80.5197,44.9814 79.353,46.3147 78,47.5C 75.2857,44.4489 72.2857,41.7822 69,39.5C 65.7143,41.7822 62.7143,44.4489 60,47.5C 58.0173,46.2343 57.0173,44.5676 57,42.5C 59.7671,40.2417 61.9338,37.5751 63.5,34.5C 61.4288,30.9206 58.7621,27.754 55.5,25C 56.7101,23.9609 57.7101,22.7942 58.5,21.5 Z M 84.5,75.5 C 89.2987,77.733 93.9654,80.233 98.5,83C 97.1341,84.5998 96.1341,86.4332 95.5,88.5C 91.4007,89.0311 89.4007,91.3645 89.5,95.5C 86.9009,95.5494 84.7342,96.5494 83,98.5C 80.5,94 78,89.5 75.5,85C 78.7044,81.9641 81.7044,78.7974 84.5,75.5 Z"/></g>
</svg>
