<?xml version="1.0" encoding="UTF-8"?>
<!DOCTYPE svg PUBLIC "-//W3C//DTD SVG 1.1//EN" "http://www.w3.org/Graphics/SVG/1.1/DTD/svg11.dtd">
<svg xmlns="http://www.w3.org/2000/svg" version="1.1" width="103px" height="103px" style="shape-rendering:geometricPrecision; text-rendering:geometricPrecision; image-rendering:optimizeQuality; fill-rule:evenodd; clip-rule:evenodd" xmlns:xlink="http://www.w3.org/1999/xlink">
<g><path style="opacity:0.78" fill="#353635" d="M 15.5,-0.5 C 17.1667,-0.5 18.8333,-0.5 20.5,-0.5C 32.6512,2.81897 40.3179,10.6523 43.5,23C 59.1735,24.5043 72.5068,30.8376 83.5,42C 91.7293,50.706 98.0626,60.5394 102.5,71.5C 102.5,73.8333 102.5,76.1667 102.5,78.5C 99.8992,82.0866 96.5658,82.92 92.5,81C 86.9312,65.1909 77.2645,52.5242 63.5,43C 58.7231,40.2772 53.7231,38.1105 48.5,36.5C 47.8077,42.0243 44.9744,46.0243 40,48.5C 38.627,50.6954 38.2937,53.0288 39,55.5C 48.0795,73.086 61.9129,85.086 80.5,91.5C 83.4703,95.9348 82.8036,99.6015 78.5,102.5C 76.5,102.5 74.5,102.5 72.5,102.5C 44.9386,92.1059 28.4386,72.4392 23,43.5C 10.6523,40.3179 2.81897,32.6512 -0.5,20.5C -0.5,18.8333 -0.5,17.1667 -0.5,15.5C 2.15929,11.4835 5.82596,10.4835 10.5,12.5C 11.8063,18.6078 14.8063,23.7744 19.5,28C 24.4626,32.008 28.1293,31.1747 30.5,25.5C 28.0666,17.5668 22.7333,13.0668 14.5,12C 13.3333,11.5 12.5,10.6667 12,9.5C 10.5812,5.08228 11.7478,1.74894 15.5,-0.5 Z M 17.5,3.5 C 29.3591,5.69117 36.6925,12.6912 39.5,24.5C 37.9547,25.4519 36.288,25.7852 34.5,25.5C 32.8108,14.9782 26.6441,8.97822 16,7.5C 15.516,5.80666 16.016,4.47332 17.5,3.5 Z M 4.5,15.5 C 5.82207,15.33 6.98873,15.6634 8,16.5C 9.38007,26.88 15.2134,33.0467 25.5,35C 24.6634,36.0113 24.33,37.1779 24.5,38.5C 11.2506,36.2673 4.58398,28.6007 4.5,15.5 Z M 43.5,28.5 C 48.1555,27.3248 52.8222,27.8248 57.5,30C 72.4593,36.9583 84.2926,47.4583 93,61.5C 95.8933,66.1798 97.56,71.1798 98,76.5C 96.8173,77.731 95.6507,77.731 94.5,76.5C 86.2319,53.2313 70.2319,38.2313 46.5,31.5C 45.8118,30.1451 44.8118,29.1451 43.5,28.5 Z M 35.5,29.5 C 43.0931,30.588 45.2597,34.588 42,41.5C 34.1804,46.5107 32.5138,53.1774 37,61.5C 46.2298,77.0582 59.3965,87.8916 76.5,94C 77.8333,95.3333 77.8333,96.6667 76.5,98C 53.3485,91.1878 37.5152,76.3545 29,53.5C 25.3838,43.7158 27.5504,35.7158 35.5,29.5 Z"/></g>
<g><path style="opacity:0.641" fill="#353635" d="M 35.5,35.5 C 36.5,35.5 37.5,35.5 38.5,35.5C 38.5,36.5 38.5,37.5 38.5,38.5C 37.5,38.5 36.5,38.5 35.5,38.5C 35.5,37.5 35.5,36.5 35.5,35.5 Z"/></g>
</svg>
