<?xml version="1.0" encoding="UTF-8"?>
<!DOCTYPE svg PUBLIC "-//W3C//DTD SVG 1.1//EN" "http://www.w3.org/Graphics/SVG/1.1/DTD/svg11.dtd">
<svg xmlns="http://www.w3.org/2000/svg" version="1.1" width="105px" height="105px" style="shape-rendering:geometricPrecision; text-rendering:geometricPrecision; image-rendering:optimizeQuality; fill-rule:evenodd; clip-rule:evenodd" xmlns:xlink="http://www.w3.org/1999/xlink">
<g><path style="opacity:0.798" fill="#353635" d="M 34.5,-0.5 C 38.8333,-0.5 43.1667,-0.5 47.5,-0.5C 57.579,4.12167 63.4123,12.1217 65,23.5C 69.255,31.0092 73.255,38.6759 77,46.5C 77.7991,51.0868 77.6324,55.5868 76.5,60C 86.4307,69.4264 95.7641,79.2598 104.5,89.5C 104.5,94.1667 104.5,98.8333 104.5,103.5C 103.833,103.5 103.5,103.833 103.5,104.5C 99.1667,104.5 94.8333,104.5 90.5,104.5C 79.8202,96.3308 69.8202,87.1642 60.5,77C 55.4851,77.9341 50.4851,77.6008 45.5,76C 34.4502,69.3083 22.7835,63.975 10.5,60C 4.9922,56.4497 1.32553,51.6164 -0.5,45.5C -0.5,42.1667 -0.5,38.8333 -0.5,35.5C 1.17428,29.3314 4.50762,24.1647 9.5,20C 12.1667,19.3333 14.8333,18.6667 17.5,18C 18.7702,14.0947 20.2702,10.2613 22,6.5C 25.7386,3.21853 29.9053,0.885194 34.5,-0.5 Z M 35.5,3.5 C 43.9541,2.14911 50.7874,4.81577 56,11.5C 58.9646,20.5639 62.7979,29.2306 67.5,37.5C 57.8477,47.6525 48.0143,57.6525 38,67.5C 28.8599,62.2315 19.3599,57.7315 9.5,54C 1.53545,44.5488 1.53545,35.0488 9.5,25.5C 12.954,23.5493 16.6206,22.0493 20.5,21C 22.2489,17.2707 23.9156,13.4373 25.5,9.5C 28.5982,6.95743 31.9315,4.95743 35.5,3.5 Z M 69.5,41.5 C 73.0876,46.1999 74.2543,51.5332 73,57.5C 67.8017,63.033 62.3017,68.1996 56.5,73C 51.8522,73.883 47.5188,73.0496 43.5,70.5C 42.479,69.9984 42.3123,69.3317 43,68.5C 52.0356,59.6317 60.869,50.6317 69.5,41.5 Z M 73.5,63.5 C 78.6624,67.309 77.6624,68.4757 70.5,67C 71.7101,65.9609 72.7101,64.7942 73.5,63.5 Z M 65.5,71.5 C 71.1764,71.3339 76.8431,71.5006 82.5,72C 83.5,73 84.5,74 85.5,75C 78.8333,75.6667 72.1667,75.6667 65.5,75C 64.3157,73.8545 64.3157,72.6879 65.5,71.5 Z M 70.5,80.5 C 76.987,79.346 83.6536,79.1794 90.5,80C 91.5,81 92.5,82 93.5,83C 86.8333,83.6667 80.1667,83.6667 73.5,83C 72.6266,81.955 71.6266,81.1217 70.5,80.5 Z M 78.5,88.5 C 84.987,87.346 91.6536,87.1794 98.5,88C 98.9574,88.414 99.2907,88.914 99.5,89.5C 93.1928,90.6639 86.8595,90.8306 80.5,90C 79.9558,89.2828 79.2891,88.7828 78.5,88.5 Z M 85.5,95.5 C 90.3054,94.5128 95.3054,94.1795 100.5,94.5C 100.5,96.5 100.5,98.5 100.5,100.5C 94.4679,101.625 89.4679,99.9586 85.5,95.5 Z"/></g>
<g><path style="opacity:0.739" fill="#353635" d="M 38.5,9.5 C 42.4629,9.08892 46.1295,9.92225 49.5,12C 51.0163,13.897 51.683,16.0637 51.5,18.5C 48.204,16.8986 44.8706,15.2319 41.5,13.5C 38.6727,14.9322 35.6727,15.5988 32.5,15.5C 32.3505,14.448 32.5172,13.448 33,12.5C 34.8761,11.3913 36.7095,10.3913 38.5,9.5 Z"/></g>
</svg>
