<?xml version="1.0" encoding="UTF-8"?>
<!DOCTYPE svg PUBLIC "-//W3C//DTD SVG 1.1//EN" "http://www.w3.org/Graphics/SVG/1.1/DTD/svg11.dtd">
<svg xmlns="http://www.w3.org/2000/svg" version="1.1" width="105px" height="104px" style="shape-rendering:geometricPrecision; text-rendering:geometricPrecision; image-rendering:optimizeQuality; fill-rule:evenodd; clip-rule:evenodd" xmlns:xlink="http://www.w3.org/1999/xlink">
<g><path style="opacity:0.823" fill="#353635" d="M 31.5,-0.5 C 34.8333,-0.5 38.1667,-0.5 41.5,-0.5C 44.7699,1.47409 48.1032,3.47409 51.5,5.5C 54.8968,3.47409 58.2301,1.47409 61.5,-0.5C 65.1667,-0.5 68.8333,-0.5 72.5,-0.5C 93.682,6.86455 100.682,21.1979 93.5,42.5C 97.2039,43.2332 100.871,43.8998 104.5,44.5C 104.5,63.8333 104.5,83.1667 104.5,102.5C 103.833,102.5 103.5,102.833 103.5,103.5C 69.1667,103.5 34.8333,103.5 0.5,103.5C 0.5,102.833 0.166667,102.5 -0.5,102.5C -0.5,83.1667 -0.5,63.8333 -0.5,44.5C 2.8004,43.907 6.13373,43.2403 9.5,42.5C 2.28215,20.6007 9.61549,6.26738 31.5,-0.5 Z M 32.5,3.5 C 34.8568,3.33669 37.1902,3.50335 39.5,4C 43.4014,6.11849 47.4014,7.95182 51.5,9.5C 55.5679,7.96848 59.5679,6.13514 63.5,4C 83.8621,4.6947 93.3621,15.1947 92,35.5C 84.4942,49.0166 79.1609,63.3499 76,78.5C 74.7178,84.1135 71.5512,88.2801 66.5,91C 63.4718,92.1397 61.3051,91.3064 60,88.5C 59.6667,81.8333 59.3333,75.1667 59,68.5C 58.3357,63.8356 57.169,59.3356 55.5,55C 52.5706,54.2228 49.7372,54.3895 47,55.5C 44.2318,66.3192 42.8985,77.3192 43,88.5C 41.6949,91.3064 39.5282,92.1397 36.5,91C 32.2115,88.7083 29.3782,85.2083 28,80.5C 24.4441,65.4982 19.1108,51.1649 12,37.5C 8.63902,20.0263 15.4724,8.69301 32.5,3.5 Z M 27.5,18.5 C 31.4866,18.6518 32.9866,20.6518 32,24.5C 28.7358,27.3036 26.2358,26.6369 24.5,22.5C 25.1716,20.8405 26.1716,19.5072 27.5,18.5 Z M 3.5,47.5 C 4.55198,47.3505 5.55198,47.5172 6.5,48C 3.67206,53.3709 4.00539,58.5376 7.5,63.5C 5.08611,69.896 6.75278,74.896 12.5,78.5C 14.234,88.5457 20.234,93.0457 30.5,92C 36.771,98.4318 42.271,97.9318 47,90.5C 47.3333,84.1667 47.6667,77.8333 48,71.5C 49.9417,54.979 52.275,54.6457 55,70.5C 55.3333,76.8333 55.6667,83.1667 56,89.5C 60.1889,97.8136 65.6889,98.647 72.5,92C 82.3879,92.7312 88.0546,88.2312 89.5,78.5C 92.4695,77.5734 94.3028,75.5734 95,72.5C 95.7835,69.2397 95.6168,66.0731 94.5,63C 98.0642,58.2455 98.3976,53.2455 95.5,48C 97.1341,47.5065 98.8008,47.3398 100.5,47.5C 100.5,64.8333 100.5,82.1667 100.5,99.5C 68.1667,99.5 35.8333,99.5 3.5,99.5C 3.5,82.1667 3.5,64.8333 3.5,47.5 Z M 11.5,48.5 C 12.3764,48.3691 13.0431,48.7025 13.5,49.5C 14.2357,51.5405 15.0691,53.5405 16,55.5C 18.5054,66.365 22.0054,76.865 26.5,87C 21.8707,87.3333 18.8707,85.1666 17.5,80.5C 19.0192,76.814 17.6859,74.6473 13.5,74C 9.96287,70.4706 9.62954,66.6372 12.5,62.5C 7.67663,58.082 7.3433,53.4153 11.5,48.5 Z M 89.5,49.5 C 92.1381,50.2415 93.4714,52.0749 93.5,55C 93.0857,57.9956 91.7523,60.4956 89.5,62.5C 93.2868,69.1101 91.6201,73.7768 84.5,76.5C 84.869,79.5981 84.0357,82.5981 82,85.5C 80.4006,87.0356 78.5672,87.5356 76.5,87C 78.3824,84.022 79.8824,80.8553 81,77.5C 83.2189,67.9523 86.0522,58.6189 89.5,49.5 Z"/></g>
<g><path style="opacity:0.759" fill="#353635" d="M 68.5,9.5 C 80.1696,10.3385 86.8363,16.5052 88.5,28C 88.6243,30.59 87.9577,32.9233 86.5,35C 84.7627,35.6123 83.7627,34.9457 83.5,33C 85.262,26.6183 83.5954,21.2849 78.5,17C 75.2801,15.2229 71.9467,13.7229 68.5,12.5C 67.2086,11.4728 67.2086,10.4728 68.5,9.5 Z"/></g>
<g><path style="opacity:0.778" fill="#353635" d="M 25.5,14.5 C 33.6559,13.8211 37.1559,17.4878 36,25.5C 32.9138,30.7522 28.7471,31.7522 23.5,28.5C 19.3544,23.0958 20.0211,18.4291 25.5,14.5 Z M 27.5,18.5 C 26.1716,19.5072 25.1716,20.8405 24.5,22.5C 26.2358,26.6369 28.7358,27.3036 32,24.5C 32.9866,20.6518 31.4866,18.6518 27.5,18.5 Z"/></g>
</svg>
