<?xml version="1.0" standalone="no"?>
<!DOCTYPE svg PUBLIC "-//W3C//DTD SVG 20010904//EN"
 "http://www.w3.org/TR/2001/REC-SVG-20010904/DTD/svg10.dtd">
<svg version="1.0" xmlns="http://www.w3.org/2000/svg"
 width="2102.000000pt" height="2039.000000pt" viewBox="0 0 2102.000000 2039.000000"
 preserveAspectRatio="xMidYMid meet">

<g transform="translate(0.000000,2039.000000) scale(0.100000,-0.100000)"
fill="#000000" stroke="none">
<path d="M14668 18980 c-31 -5 -84 -16 -118 -25 -34 -9 -599 -220 -1256 -470
l-1193 -455 -52 56 c-115 121 -291 221 -464 265 -123 30 -294 31 -418 1 -178
-44 -339 -134 -458 -259 -168 -175 -247 -359 -258 -602 l-6 -124 -139 -53
-140 -53 -85 41 c-46 22 -144 60 -218 84 -410 135 -834 148 -1258 38 -71 -18
-159 -41 -195 -50 -36 -9 -105 -27 -155 -40 -141 -36 -199 -44 -336 -44 -295
0 -500 71 -821 286 -334 223 -602 333 -941 385 -168 26 -504 32 -652 11 -414
-59 -762 -190 -1122 -423 -314 -204 -584 -296 -802 -273 -42 4 -79 7 -83 6 -4
-1 -29 8 -55 19 -153 66 -379 131 -583 169 -147 28 -467 38 -620 21 -509 -59
-970 -281 -1330 -641 -237 -237 -422 -527 -533 -835 -71 -199 -105 -343 -134
-576 -24 -202 -24 -741 0 -989 76 -755 246 -1436 526 -2107 71 -171 580 -1283
660 -1443 37 -74 115 -216 174 -316 118 -201 159 -293 187 -422 36 -165 41
-268 50 -907 5 -352 13 -719 19 -815 79 -1288 286 -2249 637 -2949 339 -677
813 -1056 1349 -1078 120 -5 134 -4 183 17 66 28 118 87 138 157 14 48 13 64
-5 205 -12 84 -28 188 -36 231 -45 235 -20 1143 51 1847 201 1996 836 3428
1566 3529 660 91 1280 -942 1592 -2654 132 -723 205 -1617 193 -2361 -4 -265
-8 -316 -31 -449 -15 -82 -29 -191 -33 -240 -5 -80 -3 -97 16 -140 37 -83 88
-123 187 -145 100 -23 359 21 528 89 277 111 565 368 779 696 410 628 680
1632 782 2905 27 343 37 593 45 1200 9 633 15 730 60 904 25 97 85 225 180
381 40 66 103 179 141 250 69 134 587 1256 683 1483 191 447 345 954 438 1436
l13 69 194 73 c106 41 199 74 205 74 7 0 33 -29 59 -64 197 -269 536 -419 851
-377 329 44 598 239 735 533 50 106 70 184 85 326 l11 114 260 99 c143 54 263
99 267 99 4 0 127 -363 274 -807 146 -445 313 -943 371 -1108 147 -423 196
-600 261 -935 84 -431 132 -947 147 -1590 7 -281 17 -390 46 -510 12 -47 195
-539 406 -1095 212 -555 395 -1038 408 -1071 l23 -62 -176 -66 c-195 -74 -265
-115 -317 -186 -87 -119 -119 -236 -119 -445 0 -269 68 -541 209 -830 92 -189
170 -302 299 -431 92 -91 125 -118 192 -151 93 -47 191 -68 267 -59 28 4 133
38 232 75 122 46 182 65 187 57 3 -6 261 -682 573 -1501 312 -820 580 -1512
596 -1540 116 -205 379 -336 594 -295 36 7 68 10 71 7 3 -2 58 -144 123 -315
65 -171 128 -324 140 -341 46 -65 160 -108 238 -91 88 20 1568 591 1603 618
19 16 48 53 63 83 47 90 40 123 -96 479 -64 168 -117 309 -117 312 0 4 26 25
58 47 199 135 299 375 251 603 -13 60 -2711 7153 -2764 7265 -52 111 -108 192
-266 383 -462 559 -838 1104 -1136 1645 -85 154 -260 506 -326 655 -101 230
-757 1777 -757 1786 0 5 53 29 118 53 253 95 353 154 492 287 148 143 250 315
307 520 26 92 28 112 27 284 0 156 -3 197 -21 260 -27 95 -605 1614 -645 1695
-110 218 -328 421 -557 516 -134 56 -251 80 -401 84 -74 2 -161 0 -192 -5z
m287 -495 c39 -8 108 -33 155 -56 108 -54 209 -151 262 -254 46 -90 602 -1553
617 -1623 33 -158 -15 -364 -112 -486 l-23 -29 -35 18 c-53 28 -200 129 -270
186 -429 350 -717 880 -779 1434 -15 133 -12 377 5 512 14 106 50 286 62 306
6 11 39 8 118 -8z m-676 -257 c-17 -129 -17 -470 0 -603 65 -517 267 -995 588
-1395 89 -111 277 -298 382 -380 46 -36 92 -72 103 -80 18 -14 -59 -45 -999
-403 -560 -213 -1022 -387 -1028 -387 -8 0 -1000 2587 -1000 2607 0 6 1959
752 1964 747 2 -2 -3 -49 -10 -106z m-2835 -348 c126 -20 262 -113 318 -217
31 -57 1174 -3056 1188 -3116 67 -293 -204 -577 -502 -528 -138 23 -271 118
-328 235 -51 107 -1163 3038 -1178 3106 -49 226 109 465 341 515 77 17 88 17
161 5z m-5474 -391 c325 -29 538 -110 860 -324 197 -131 329 -200 498 -258
l119 -42 -130 -104 -130 -104 -41 11 c-391 113 -653 149 -1000 139 -223 -6
-399 -29 -594 -77 -232 -57 -530 -164 -719 -258 -127 -64 -110 -68 -231 50
-113 109 -243 221 -353 304 -36 27 -67 53 -70 57 -2 4 43 28 100 53 132 56
224 107 378 206 424 273 862 389 1313 347z m-3239 -495 c406 -56 836 -253
1234 -565 100 -78 230 -189 222 -189 -2 0 -28 -5 -58 -10 -169 -32 -383 -30
-523 5 -34 8 -108 39 -166 67 -95 48 -111 53 -170 53 -186 -1 -297 -183 -215
-350 32 -67 72 -99 200 -160 190 -91 370 -128 615 -128 352 1 689 88 1135 295
334 155 592 238 880 285 170 28 565 25 739 -5 312 -54 493 -115 816 -277 366
-183 643 -306 893 -396 127 -46 149 -50 208 -47 128 7 216 93 226 220 4 52 1
74 -17 116 -34 79 -80 112 -223 162 -156 54 -412 163 -644 275 -154 74 -181
90 -171 103 29 34 335 227 468 295 233 118 424 185 660 230 96 18 152 21 332
22 141 0 221 -4 228 -11 7 -7 -96 -51 -356 -149 -305 -116 -371 -145 -401
-174 -45 -44 -63 -87 -63 -151 0 -66 19 -109 78 -179 188 -220 413 -576 578
-916 279 -577 436 -1177 472 -1802 8 -137 11 -155 36 -196 40 -69 106 -107
187 -107 24 0 176 53 430 149 216 83 395 148 397 146 12 -12 -113 -459 -192
-693 -88 -256 -160 -425 -456 -1072 -321 -701 -366 -792 -494 -1009 -147 -247
-183 -328 -229 -506 -64 -248 -77 -423 -87 -1195 -8 -626 -13 -740 -46 -1110
-69 -784 -216 -1489 -421 -2015 -158 -407 -384 -752 -606 -923 -65 -49 -204
-132 -223 -132 -9 0 -9 12 0 48 15 67 14 992 -2 1247 -83 1305 -277 2318 -604
3144 -221 557 -491 967 -806 1221 -470 380 -1059 381 -1536 1 -95 -76 -264
-255 -353 -375 -559 -754 -943 -2133 -1058 -3806 -35 -521 -43 -1259 -15
-1419 5 -30 8 -57 6 -59 -2 -2 -30 10 -62 26 -412 210 -745 775 -962 1637
-136 539 -220 1129 -262 1855 -6 102 -15 471 -20 820 -5 349 -14 673 -20 720
-44 351 -99 512 -280 815 -46 77 -107 185 -136 240 -50 95 -541 1163 -646
1405 -278 640 -447 1311 -520 2055 -16 170 -16 686 0 834 28 249 80 442 171
636 188 398 516 716 911 883 149 64 247 89 480 125 69 11 340 6 441 -9z m7898
-214 c36 -93 63 -171 60 -173 -3 -3 -1277 -487 -1324 -504 -6 -2 -58 67 -115
154 -57 86 -100 158 -95 160 6 2 321 122 700 268 380 145 695 264 700 264 6 1
39 -75 74 -169z m284 -746 c44 -114 61 -171 53 -175 -17 -10 -1226 -469 -1235
-469 -4 0 -42 74 -84 166 -66 143 -74 166 -59 172 343 132 1258 479 1259 478
1 -1 31 -78 66 -172z m287 -752 c34 -90 60 -165 59 -167 -3 -2 -1077 -412
-1266 -482 -7 -3 -16 13 -23 39 -6 23 -29 103 -52 176 -22 73 -39 134 -37 136
15 13 1245 473 1251 468 3 -4 34 -80 68 -170z m3889 -199 c7 -16 177 -415 378
-888 406 -954 441 -1034 585 -1318 338 -666 831 -1402 1348 -2012 105 -124
144 -179 184 -266 50 -107 2719 -7118 2724 -7155 5 -40 -21 -90 -56 -108 -15
-7 -438 -170 -940 -361 -983 -374 -949 -363 -1003 -312 -17 15 -89 193 -241
592 -120 314 -222 584 -228 601 -11 31 -9 34 57 101 188 191 306 471 360 853
23 170 24 584 0 795 -151 1349 -847 2819 -1657 3497 -275 231 -552 360 -805
375 l-100 6 -68 181 c-37 99 -72 201 -77 226 -6 25 -15 176 -20 335 -40 1244
-138 1855 -428 2685 -209 596 -657 1959 -647 1968 9 10 588 230 606 231 9 1
21 -11 28 -26z m-3609 -538 c34 -90 62 -167 62 -171 -1 -7 -1413 -547 -1417
-542 0 2 -11 82 -24 178 -13 96 -24 179 -24 184 -2 9 1302 514 1329 515 7 1
40 -73 74 -164z m4521 -5628 c138 -69 243 -151 419 -327 221 -220 390 -442
580 -761 328 -549 600 -1273 715 -1901 96 -525 97 -984 3 -1303 -22 -77 -77
-205 -87 -205 -6 0 -1731 4517 -1731 4533 0 13 15 7 101 -36z m303 -2407 c124
-325 206 -554 200 -559 -5 -5 -67 -32 -137 -60 l-128 -52 -27 20 c-85 60 -183
197 -267 374 -95 200 -150 408 -162 612 l-6 100 149 57 c82 31 154 57 159 57
6 1 104 -247 219 -549z m3788 -3968 c36 -97 63 -180 60 -183 -11 -11 -1022
-393 -1026 -388 -8 8 -136 353 -132 356 4 5 1018 392 1026 393 3 0 35 -80 72
-178z"/>
<path d="M7546 14715 c-728 -119 -1173 -841 -942 -1529 148 -441 530 -744
1004 -797 222 -25 491 34 692 151 259 151 445 384 535 670 53 169 66 339 41
510 -38 250 -147 471 -320 648 -174 179 -370 287 -613 337 -111 23 -289 28
-397 10z m345 -500 c111 -29 215 -90 305 -180 68 -68 89 -97 127 -176 57 -120
72 -180 72 -304 0 -124 -15 -184 -72 -304 -73 -152 -213 -277 -377 -337 -288
-104 -624 5 -792 258 -95 143 -135 307 -114 466 21 160 81 283 195 397 105
105 236 173 375 195 74 12 203 5 281 -15z"/>
<path d="M8045 11756 c-454 -91 -746 -510 -661 -948 112 -571 742 -848 1234
-542 172 108 299 281 354 485 33 124 31 300 -6 422 -14 49 -38 112 -52 140
-81 161 -225 302 -387 377 -140 66 -343 93 -482 66z m282 -516 c113 -56 177
-160 177 -290 0 -126 -67 -230 -183 -287 -48 -24 -68 -28 -141 -28 -73 0 -92
4 -137 28 -66 34 -116 84 -150 150 -24 45 -28 64 -28 137 0 99 20 152 81 219
100 111 243 138 381 71z"/>
</g>
</svg>
