<?xml version="1.0" encoding="UTF-8"?>
<!DOCTYPE svg PUBLIC "-//W3C//DTD SVG 1.1//EN" "http://www.w3.org/Graphics/SVG/1.1/DTD/svg11.dtd">
<svg xmlns="http://www.w3.org/2000/svg" version="1.1" width="105px" height="127px" style="shape-rendering:geometricPrecision; text-rendering:geometricPrecision; image-rendering:optimizeQuality; fill-rule:evenodd; clip-rule:evenodd" xmlns:xlink="http://www.w3.org/1999/xlink">
<g><path style="opacity:0.909" fill="#0d0d0d" d="M 24.5,-0.5 C 27.8333,-0.5 31.1667,-0.5 34.5,-0.5C 47.8833,7.49342 61.2167,7.49342 74.5,-0.5C 76.5,-0.5 78.5,-0.5 80.5,-0.5C 93.6853,3.35289 101.685,12.0196 104.5,25.5C 104.5,29.8333 104.5,34.1667 104.5,38.5C 103.475,42.0793 102.309,45.7459 101,49.5C 97.3969,55.7068 94.0636,62.0402 91,68.5C 90.6667,78.5 90.3333,88.5 90,98.5C 89.2784,106.664 86.9451,114.331 83,121.5C 81.2703,123.402 79.437,125.069 77.5,126.5C 76.1667,126.5 74.8333,126.5 73.5,126.5C 69.8174,124.17 67.3174,120.837 66,116.5C 64.0583,105.064 60.7249,94.0636 56,83.5C 53,79.5 50,79.5 47,83.5C 46.3333,84.8333 45.6667,86.1667 45,87.5C 42.196,99.3353 38.8627,111.002 35,122.5C 30.1196,126.618 25.4529,126.284 21,121.5C 17.2959,116.058 14.9626,110.058 14,103.5C 12.8233,91.2028 12.1566,78.8695 12,66.5C 6.13577,57.4513 1.9691,47.7847 -0.5,37.5C -0.5,33.5 -0.5,29.5 -0.5,25.5C 2.3871,11.6126 10.7204,2.94596 24.5,-0.5 Z"/></g>
<g><path style="opacity:1" fill="#fcfcfc" d="M 21.5,4.5 C 25.8461,4.33432 30.1794,4.50098 34.5,5C 40.6751,8.00198 47.1751,9.83531 54,10.5C 62.4449,9.51364 70.6116,7.51364 78.5,4.5C 89.1901,6.01895 96.0234,12.019 99,22.5C 99.9492,30.9736 99.4492,39.3069 97.5,47.5C 87.8333,47.5 78.1667,47.5 68.5,47.5C 68.8025,42.57 68.4692,37.7367 67.5,33C 56.8385,32.5002 46.1719,32.3335 35.5,32.5C 35.5,37.5 35.5,42.5 35.5,47.5C 26.1429,47.8316 16.8096,47.4983 7.5,46.5C 4.65975,38.4141 3.82641,30.0807 5,21.5C 8.01911,13.3156 13.5191,7.64896 21.5,4.5 Z"/></g>
<g><path style="opacity:1" fill="#f0f0f0" d="M 37.5,35.5 C 46.8333,35.5 56.1667,35.5 65.5,35.5C 65.5,39.5 65.5,43.5 65.5,47.5C 63.8333,47.5 62.1667,47.5 60.5,47.5C 60.5,45.1667 60.5,42.8333 60.5,40.5C 54.8333,40.5 49.1667,40.5 43.5,40.5C 43.5,42.8333 43.5,45.1667 43.5,47.5C 41.5,47.5 39.5,47.5 37.5,47.5C 37.5,43.5 37.5,39.5 37.5,35.5 Z"/></g>
<g><path style="opacity:1" fill="#efefef" d="M 45.5,43.5 C 49.5,43.5 53.5,43.5 57.5,43.5C 57.5,44.8333 57.5,46.1667 57.5,47.5C 53.5,47.5 49.5,47.5 45.5,47.5C 45.5,46.1667 45.5,44.8333 45.5,43.5 Z"/></g>
<g><path style="opacity:1" fill="#ababab" d="M 35.5,64.5 C 34.5151,60.3656 34.1818,56.0323 34.5,51.5C 26.1667,51.5 17.8333,51.5 9.5,51.5C 17.4136,50.501 26.0803,50.1676 35.5,50.5C 35.5,55.1667 35.5,59.8333 35.5,64.5 Z"/></g>
<g><path style="opacity:1" fill="#fbfbfb" d="M 9.5,51.5 C 17.8333,51.5 26.1667,51.5 34.5,51.5C 34.1818,56.0323 34.5151,60.3656 35.5,64.5C 46.3206,65.4946 57.3206,65.8279 68.5,65.5C 68.5,60.5 68.5,55.5 68.5,50.5C 77.5062,50.3336 86.5062,50.5002 95.5,51C 92.0362,55.4223 89.2029,60.2557 87,65.5C 86.8151,77.8655 86.1484,90.1989 85,102.5C 84.2916,106.249 83.2916,109.916 82,113.5C 80.6916,116.792 78.6916,119.459 76,121.5C 73.6794,120.513 72.0128,118.846 71,116.5C 69.0027,103.509 65.0027,91.1752 59,79.5C 54.9944,74.8341 50.4944,74.3341 45.5,78C 43.2879,80.9212 41.4545,84.0879 40,87.5C 37.4911,97.8687 34.8244,108.202 32,118.5C 31.221,119.728 30.221,120.728 29,121.5C 26.7194,120.224 24.7194,118.557 23,116.5C 20.5654,111.764 18.8987,106.764 18,101.5C 17.6667,89.8333 17.3333,78.1667 17,66.5C 14.489,61.478 11.989,56.478 9.5,51.5 Z"/></g>
<g><path style="opacity:1" fill="#e4e4e4" d="M 37.5,50.5 C 39.5,50.5 41.5,50.5 43.5,50.5C 43.5,52.8333 43.5,55.1667 43.5,57.5C 49.1667,57.5 54.8333,57.5 60.5,57.5C 60.5,55.1667 60.5,52.8333 60.5,50.5C 62.1667,50.5 63.8333,50.5 65.5,50.5C 65.5,54.5 65.5,58.5 65.5,62.5C 56.1667,62.5 46.8333,62.5 37.5,62.5C 37.5,58.5 37.5,54.5 37.5,50.5 Z"/></g>
<g><path style="opacity:1" fill="#eeeeee" d="M 46.5,50.5 C 50.1667,50.5 53.8333,50.5 57.5,50.5C 57.5,51.8333 57.5,53.1667 57.5,54.5C 53.8333,54.5 50.1667,54.5 46.5,54.5C 46.5,53.1667 46.5,51.8333 46.5,50.5 Z"/></g>
<g><path style="opacity:1" fill="#787878" d="M 46.5,50.5 C 46.5,51.8333 46.5,53.1667 46.5,54.5C 50.1667,54.5 53.8333,54.5 57.5,54.5C 53.7016,55.4834 49.7016,55.8168 45.5,55.5C 45.2155,53.5853 45.5489,51.9187 46.5,50.5 Z"/></g>
</svg>
