<?xml version="1.0" encoding="UTF-8"?>
<!DOCTYPE svg PUBLIC "-//W3C//DTD SVG 1.1//EN" "http://www.w3.org/Graphics/SVG/1.1/DTD/svg11.dtd">
<svg xmlns="http://www.w3.org/2000/svg" version="1.1" width="201px" height="127px" style="shape-rendering:geometricPrecision; text-rendering:geometricPrecision; image-rendering:optimizeQuality; fill-rule:evenodd; clip-rule:evenodd" xmlns:xlink="http://www.w3.org/1999/xlink">
<g><path style="opacity:0.82" fill="#000000" d="M 18.5,-0.5 C 21.8333,-0.5 25.1667,-0.5 28.5,-0.5C 31.4671,1.65036 34.8004,3.31703 38.5,4.5C 41.7182,3.06147 44.7182,1.39481 47.5,-0.5C 50.5,-0.5 53.5,-0.5 56.5,-0.5C 62.399,2.22955 66.899,6.56289 70,12.5C 72.0322,6.34457 75.8656,2.01124 81.5,-0.5C 84.8333,-0.5 88.1667,-0.5 91.5,-0.5C 94.3137,1.40905 97.3137,3.07572 100.5,4.5C 103.771,3.20831 106.771,1.54164 109.5,-0.5C 112.5,-0.5 115.5,-0.5 118.5,-0.5C 125.083,1.58154 129.583,5.91487 132,12.5C 134.327,6.6822 138.16,2.34887 143.5,-0.5C 146.833,-0.5 150.167,-0.5 153.5,-0.5C 156.384,1.52717 159.55,3.19383 163,4.5C 165.993,2.98596 168.826,1.3193 171.5,-0.5C 174.5,-0.5 177.5,-0.5 180.5,-0.5C 191.999,3.81745 196.832,12.1508 195,24.5C 194.066,28.6366 192.732,32.6366 191,36.5C 190.502,39.4816 190.335,42.4816 190.5,45.5C 181.236,46.133 172.069,47.4664 163,49.5C 154.962,47.4886 146.795,46.3219 138.5,46C 137.584,45.6258 136.75,45.1258 136,44.5C 136.038,38.5022 134.705,32.8355 132,27.5C 129.421,33.0942 127.921,38.9276 127.5,45C 118.622,46.2614 109.789,47.7614 101,49.5C 92.6515,47.3186 84.1515,46.152 75.5,46C 74.1027,40.14 72.2694,34.3067 70,28.5C 67.2411,33.4342 65.7411,38.7675 65.5,44.5C 56.532,46.3252 47.532,47.9918 38.5,49.5C 30.2752,47.5926 21.9419,46.426 13.5,46C 11.5849,39.5449 9.41825,33.0449 7,26.5C 4.87078,14.7765 8.70411,5.77654 18.5,-0.5 Z M 19.5,4.5 C 22.1873,4.33591 24.854,4.50258 27.5,5C 32.0978,7.27015 36.4311,9.93682 40.5,13C 42.8333,13.6667 45.1667,13.6667 47.5,13C 48.3366,11.9887 48.67,10.8221 48.5,9.5C 46.1432,9.66331 43.8098,9.49665 41.5,9C 54.6057,1.38075 62.9391,5.04741 66.5,20C 63.8973,26.9691 62.2306,34.1358 61.5,41.5C 53.7574,41.8479 46.0907,42.8479 38.5,44.5C 31.2439,42.8514 23.9106,41.8514 16.5,41.5C 15.0315,34.4332 13.3649,27.4332 11.5,20.5C 11.5504,13.7321 14.2171,8.39874 19.5,4.5 Z M 82.5,4.5 C 89.7574,3.9615 95.7574,6.4615 100.5,12C 104.523,14.3054 108.189,13.9721 111.5,11C 109.377,9.80633 107.043,9.13966 104.5,9C 112.406,2.50828 119.573,3.34161 126,11.5C 127.441,14.155 128.274,16.9883 128.5,20C 128.005,25.1482 126.505,29.9816 124,34.5C 123.503,36.8098 123.337,39.1432 123.5,41.5C 115.909,41.7846 108.409,42.7846 101,44.5C 93.5911,42.7846 86.0911,41.7846 78.5,41.5C 77.4477,34.3454 75.7811,27.3454 73.5,20.5C 73.9378,13.6147 76.9378,8.2814 82.5,4.5 Z M 144.5,4.5 C 147.187,4.33591 149.854,4.50258 152.5,5C 157.001,7.41588 161.334,10.0825 165.5,13C 167.833,13.6667 170.167,13.6667 172.5,13C 173.337,11.9887 173.67,10.8221 173.5,9.5C 171.143,9.66331 168.81,9.49665 166.5,9C 175.225,2.19509 182.725,3.36175 189,12.5C 190.434,16.4065 190.767,20.4065 190,24.5C 187.404,29.8865 185.904,35.5532 185.5,41.5C 177.935,41.9316 170.435,42.9316 163,44.5C 155.615,42.6116 148.115,41.6116 140.5,41.5C 139.74,34.3031 138.073,27.3031 135.5,20.5C 136.052,13.6546 139.052,8.32131 144.5,4.5 Z"/></g>
<g><path style="opacity:0.825" fill="#000000" d="M 200.5,77.5 C 200.5,78.1667 200.5,78.8333 200.5,79.5C 199.733,80.172 199.066,81.0053 198.5,82C 196.444,82.3108 194.444,82.8108 192.5,83.5C 191.53,86.7737 190.03,89.7737 188,92.5C 187.89,99.8384 187.89,107.172 188,114.5C 187.341,120.187 184.508,124.187 179.5,126.5C 177.833,126.5 176.167,126.5 174.5,126.5C 173.199,125.118 172.366,123.452 172,121.5C 171.877,113.455 169.21,106.455 164,100.5C 161.867,102.091 160.201,104.091 159,106.5C 156.712,112.317 155.046,118.317 154,124.5C 152.698,125.085 151.531,125.751 150.5,126.5C 149.833,126.5 149.167,126.5 148.5,126.5C 143.517,125.014 140.35,121.681 139,116.5C 139.43,104.537 137.93,92.8703 134.5,81.5C 123.598,82.7137 112.765,84.3803 102,86.5C 90.0945,85.2097 78.2612,83.543 66.5,81.5C 66.6633,83.8568 66.4966,86.1902 66,88.5C 64.2174,91.0777 63.0508,93.911 62.5,97C 63.6433,103.418 63.81,109.918 63,116.5C 61.7108,121.279 58.8775,124.612 54.5,126.5C 52.8333,126.5 51.1667,126.5 49.5,126.5C 47.2553,120.001 45.422,113.334 44,106.5C 40.2794,98.4545 36.946,98.7878 34,107.5C 31.9266,113.053 30.2599,118.72 29,124.5C 27.6976,125.085 26.531,125.751 25.5,126.5C 24.8333,126.5 24.1667,126.5 23.5,126.5C 14.6101,121.359 11.6101,113.693 14.5,103.5C 13.8913,96.3393 12.5579,89.3393 10.5,82.5C 6.4678,82.5768 2.80113,81.5768 -0.5,79.5C -0.5,78.8333 -0.5,78.1667 -0.5,77.5C 3.42544,76.2341 7.25877,76.5674 11,78.5C 15.3333,75.1667 19.6667,71.8333 24,68.5C 26.705,56.0755 33.8717,51.9089 45.5,56C 49.7211,59.6052 52.5545,64.1052 54,69.5C 57.7413,71.2379 60.908,73.7379 63.5,77C 76.1992,78.1718 88.8659,79.6718 101.5,81.5C 113.355,78.8961 125.355,77.3961 137.5,77C 144.176,73.6618 148.676,68.4951 151,61.5C 157.95,51.8385 165.617,51.1718 174,59.5C 175.667,62.8333 177.333,66.1667 179,69.5C 183.079,71.5751 186.579,74.4084 189.5,78C 193.129,77.8903 196.796,77.7236 200.5,77.5 Z M 37.5,58.5 C 41.9115,59.0701 45.0782,61.4034 47,65.5C 48.3356,71.5009 51.8356,75.6676 57.5,78C 50.1772,79.2312 42.8439,80.3979 35.5,81.5C 29.7591,81.06 24.0924,80.2267 18.5,79C 25.554,75.6106 30.054,70.1106 32,62.5C 33.8121,61.0229 35.6455,59.6896 37.5,58.5 Z M 161.5,58.5 C 164.226,58.2639 166.559,59.0972 168.5,61C 171.319,64.8048 173.486,68.9715 175,73.5C 178.089,74.9596 180.922,76.793 183.5,79C 170.391,82.5689 157.391,82.2355 144.5,78C 147,76.1667 149.5,74.3333 152,72.5C 153.461,66.5497 156.627,61.8831 161.5,58.5 Z M 56.5,82.5 C 58.604,82.2011 60.604,82.5344 62.5,83.5C 61.8064,86.0876 60.6398,88.421 59,90.5C 58.6667,98.8333 58.3333,107.167 58,115.5C 57.2645,118.32 55.5978,120.32 53,121.5C 51.6813,117.263 50.6813,112.929 50,108.5C 49.2411,105.215 47.9078,102.215 46,99.5C 40.967,95.2207 36.3003,95.5541 32,100.5C 28.4684,107.095 26.135,114.095 25,121.5C 21.936,120.101 19.936,117.768 19,114.5C 18.6667,107.167 18.3333,99.8333 18,92.5C 17.7896,89.7658 16.9563,87.2658 15.5,85C 25.4785,85.4619 35.4785,85.4619 45.5,85C 49.3474,84.3666 53.014,83.5333 56.5,82.5 Z M 139.5,82.5 C 154.965,86.0598 170.465,86.3932 186,83.5C 185.586,86.9512 184.586,90.2845 183,93.5C 182.61,98.5039 182.777,103.504 183.5,108.5C 184.181,114.145 182.181,118.478 177.5,121.5C 176.171,114.707 174.338,108.041 172,101.5C 167.76,95.7042 162.76,95.0375 157,99.5C 153.672,105.817 151.339,112.484 150,119.5C 147.135,120.041 145.135,118.707 144,115.5C 143.667,108.833 143.333,102.167 143,95.5C 142.887,90.8485 141.72,86.5152 139.5,82.5 Z"/></g>
<g><path style="opacity:0.826" fill="#000000" d="M 100.5,54.5 C 101.117,54.6107 101.617,54.944 102,55.5C 102.333,60.1667 102.667,64.8333 103,69.5C 104.571,67.0771 106.737,65.7438 109.5,65.5C 108.459,70.3948 105.626,74.0615 101,76.5C 96.8285,74.1728 93.9952,70.8395 92.5,66.5C 95.3245,66.0807 97.4912,67.0807 99,69.5C 99.2186,64.4176 99.7186,59.4176 100.5,54.5 Z"/></g>
</svg>
