<?xml version="1.0" encoding="UTF-8"?>
<!DOCTYPE svg PUBLIC "-//W3C//DTD SVG 1.1//EN" "http://www.w3.org/Graphics/SVG/1.1/DTD/svg11.dtd">
<svg xmlns="http://www.w3.org/2000/svg" version="1.1" width="105px" height="127px" style="shape-rendering:geometricPrecision; text-rendering:geometricPrecision; image-rendering:optimizeQuality; fill-rule:evenodd; clip-rule:evenodd" xmlns:xlink="http://www.w3.org/1999/xlink">
<g><path style="opacity:0.886" fill="#0b0b0b" d="M 28.5,-0.5 C 30.5,-0.5 32.5,-0.5 34.5,-0.5C 47.5401,7.45766 60.5401,7.45766 73.5,-0.5C 76.1667,-0.5 78.8333,-0.5 81.5,-0.5C 94.5688,3.90188 102.235,12.9019 104.5,26.5C 104.5,30.5 104.5,34.5 104.5,38.5C 103.475,42.0793 102.309,45.7459 101,49.5C 97.23,55.6034 93.8967,61.9367 91,68.5C 91.0549,82.2596 90.0549,95.9263 88,109.5C 86.4899,116.544 82.9899,122.211 77.5,126.5C 76.1667,126.5 74.8333,126.5 73.5,126.5C 69.8174,124.17 67.3174,120.837 66,116.5C 64.0583,105.064 60.7249,94.0636 56,83.5C 53,79.5 50,79.5 47,83.5C 46,85.5 45,87.5 44,89.5C 41.6526,99.9194 38.986,110.253 36,120.5C 34.5639,123.442 32.3972,125.442 29.5,126.5C 29.1667,126.5 28.8333,126.5 28.5,126.5C 21.1925,123.292 16.6925,117.626 15,109.5C 14.2255,105.853 13.5588,102.186 13,98.5C 12.6667,87.8333 12.3333,77.1667 12,66.5C 10.0657,62.2406 7.73232,58.2406 5,54.5C 3.23024,49.0205 1.39691,43.6872 -0.5,38.5C -0.5,35.5 -0.5,32.5 -0.5,29.5C 0.551344,25.2781 3.21801,22.4447 7.5,21C 13.7934,21.1462 19.7934,19.9795 25.5,17.5C 27.0649,11.6043 28.0649,5.60433 28.5,-0.5 Z"/></g>
<g><path style="opacity:1" fill="#fcfcfc" d="M 31.5,4.5 C 35.9106,5.69275 40.2439,7.19275 44.5,9C 51.1667,9.66667 57.8333,9.66667 64.5,9C 79.3728,0.514275 90.5395,4.01427 98,19.5C 99.557,26.7527 99.8903,34.086 99,41.5C 95.548,49.7374 91.548,57.7374 87,65.5C 87.556,81.7548 85.8894,97.7548 82,113.5C 80.6561,116.994 78.4894,119.661 75.5,121.5C 73.9121,120.99 72.7455,119.99 72,118.5C 68.8038,109.005 66.1371,99.338 64,89.5C 62.3333,86.1667 60.6667,82.8333 59,79.5C 54,74.1667 49,74.1667 44,79.5C 41.4491,83.9346 39.4491,88.6012 38,93.5C 36.6007,102.857 34.1007,111.857 30.5,120.5C 29.635,121.583 28.635,121.749 27.5,121C 22.09,116.014 18.9234,109.847 18,102.5C 17.6667,90.8333 17.3333,79.1667 17,67.5C 15.4443,62.7202 13.1109,58.3869 10,54.5C 5.86656,46.2602 4.19989,37.5936 5,28.5C 8.4233,24.5661 12.59,23.5661 17.5,25.5C 20.7318,24.0512 24.0651,22.8845 27.5,22C 29.4875,20.6811 30.6541,18.8477 31,16.5C 31.4988,12.5138 31.6655,8.51383 31.5,4.5 Z"/></g>
<g><path style="opacity:1" fill="#111111" d="M 77.5,12.5 C 84.4554,13.2798 89.2888,16.9465 92,23.5C 92.6667,27.8333 92.6667,32.1667 92,36.5C 90.9887,37.3366 89.8221,37.67 88.5,37.5C 91.1407,27.1177 87.6407,19.7844 78,15.5C 77.5172,14.552 77.3505,13.552 77.5,12.5 Z"/></g>
</svg>
