<?xml version="1.0" encoding="UTF-8"?>
<!DOCTYPE svg PUBLIC "-//W3C//DTD SVG 1.1//EN" "http://www.w3.org/Graphics/SVG/1.1/DTD/svg11.dtd">
<svg xmlns="http://www.w3.org/2000/svg" version="1.1" width="105px" height="135px" style="shape-rendering:geometricPrecision; text-rendering:geometricPrecision; image-rendering:optimizeQuality; fill-rule:evenodd; clip-rule:evenodd" xmlns:xlink="http://www.w3.org/1999/xlink">
<g><path style="opacity:0.878" fill="#070707" d="M 26.5,-0.5 C 28.8333,-0.5 31.1667,-0.5 33.5,-0.5C 47.7959,8.3138 62.1292,8.3138 76.5,-0.5C 76.8333,-0.5 77.1667,-0.5 77.5,-0.5C 92.8183,2.15161 101.818,11.1516 104.5,26.5C 104.5,30.5 104.5,34.5 104.5,38.5C 103.475,42.0793 102.309,45.7459 101,49.5C 97.3969,55.7068 94.0636,62.0402 91,68.5C 90.838,80.5363 90.1713,92.5363 89,104.5C 88.0259,112.947 84.5259,120.114 78.5,126C 76.5,126.667 74.5,126.667 72.5,126C 71,124.5 69.5,123 68,121.5C 64.9238,113.379 62.5905,105.046 61,96.5C 61.5503,103.923 62.8836,111.256 65,118.5C 67.1284,123.801 70.7951,127.467 76,129.5C 83.1574,127.005 87.4908,122.005 89,114.5C 90.2563,109.552 91.2563,104.552 92,99.5C 94.7205,98.2892 96.2205,99.2892 96.5,102.5C 95.5094,110.972 93.0094,118.972 89,126.5C 85.8883,130.298 82.0549,132.964 77.5,134.5C 76.1667,134.5 74.8333,134.5 73.5,134.5C 66.8173,131.642 62.3173,126.642 60,119.5C 58.255,110.775 56.255,102.109 54,93.5C 52.3333,86.8333 50.6667,86.8333 49,93.5C 47.6382,103.731 45.3049,113.731 42,123.5C 38.9144,131.792 33.0811,134.959 24.5,133C 15.1374,127.472 9.30407,119.306 7,108.5C 5.8756,105.558 5.54227,102.558 6,99.5C 7.58738,98.273 8.92071,98.6063 10,100.5C 11.7361,110.807 16.2361,119.64 23.5,127C 25.3506,127.837 27.1839,128.671 29,129.5C 33.3651,127.465 36.3651,124.131 38,119.5C 40.958,112.084 42.2913,104.417 42,96.5C 40.8022,105.497 38.4689,114.164 35,122.5C 29.5287,127.666 24.5287,126.999 20,120.5C 16.892,115.611 14.892,110.278 14,104.5C 12.8233,92.2028 12.1566,79.8695 12,67.5C 9.93566,63.039 7.60232,58.7057 5,54.5C 3.23024,49.0205 1.39691,43.6872 -0.5,38.5C -0.5,33.8333 -0.5,29.1667 -0.5,24.5C 3.0335,10.301 12.0335,1.96765 26.5,-0.5 Z M 54.5,82.5 C 52.5,82.5 50.5,82.5 48.5,82.5C 50.5,79.8333 52.5,79.8333 54.5,82.5 Z"/></g>
<g><path style="opacity:1" fill="#fcfcfc" d="M 22.5,4.5 C 26.1817,4.3347 29.8484,4.50137 33.5,5C 42.2216,10.0489 51.555,11.7156 61.5,10C 84.4284,-0.194433 97.4284,7.30557 100.5,32.5C 99.6433,38.7353 97.9766,44.7353 95.5,50.5C 85.1881,51.4986 74.8548,51.8319 64.5,51.5C 66.9569,42.827 63.9569,37.4937 55.5,35.5C 47.441,37.5836 43.441,42.9169 43.5,51.5C 31.4143,52.1331 19.581,51.4665 8,49.5C 2.59402,38.6133 2.26069,27.6133 7,16.5C 11.0197,10.9194 16.1864,6.91937 22.5,4.5 Z"/></g>
<g><path style="opacity:1" fill="#fbfbfb" d="M 61.5,56.5 C 71.1667,57.1667 80.8333,57.8333 90.5,58.5C 89.3466,60.8068 88.1799,63.1401 87,65.5C 87.628,81.773 85.9613,97.773 82,113.5C 80.8004,117.246 78.6338,120.246 75.5,122.5C 73.5414,121.252 72.0414,119.585 71,117.5C 68.7005,107.408 66.0338,97.4077 63,87.5C 61.5455,84.0879 59.7121,80.9212 57.5,78C 51.6431,75.1648 46.8098,76.3315 43,81.5C 40.7813,85.2707 39.1146,89.2707 38,93.5C 36.8903,102.049 34.8903,110.382 32,118.5C 30.272,122.176 27.9386,122.509 25,119.5C 22.4728,115.779 20.4728,111.779 19,107.5C 17.7628,94.2133 17.0962,80.8799 17,67.5C 15.8189,63.6371 13.9856,60.1371 11.5,57C 23.1667,56.6667 34.8333,56.3333 46.5,56C 47.7014,55.0975 48.5348,53.9308 49,52.5C 48.3405,46.8097 50.5072,42.8097 55.5,40.5C 57.0293,40.5288 58.196,41.1955 59,42.5C 59.354,47.3893 60.1873,52.056 61.5,56.5 Z M 54.5,82.5 C 52.5,82.5 50.5,82.5 48.5,82.5C 50.5,79.8333 52.5,79.8333 54.5,82.5 Z"/></g>
<g><path style="opacity:1" fill="#848484" d="M 61.5,56.5 C 71.5222,56.1681 81.5222,56.5015 91.5,57.5C 91.3764,58.1067 91.0431,58.44 90.5,58.5C 80.8333,57.8333 71.1667,57.1667 61.5,56.5 Z"/></g>
</svg>
