<?xml version="1.0" encoding="UTF-8"?>
<!DOCTYPE svg PUBLIC "-//W3C//DTD SVG 1.1//EN" "http://www.w3.org/Graphics/SVG/1.1/DTD/svg11.dtd">
<svg xmlns="http://www.w3.org/2000/svg" version="1.1" width="153px" height="130px" style="shape-rendering:geometricPrecision; text-rendering:geometricPrecision; image-rendering:optimizeQuality; fill-rule:evenodd; clip-rule:evenodd" xmlns:xlink="http://www.w3.org/1999/xlink">
<g><path style="opacity:0.828" fill="#000000" d="M 33.5,-0.5 C 41.1667,-0.5 48.8333,-0.5 56.5,-0.5C 63.2058,0.904729 69.7058,3.23806 76,6.5C 84.6509,2.96398 93.4843,0.630648 102.5,-0.5C 106.5,-0.5 110.5,-0.5 114.5,-0.5C 127.037,0.621561 138.87,4.28823 150,10.5C 150.838,16.6466 151.671,22.6466 152.5,28.5C 152.5,29.1667 152.5,29.8333 152.5,30.5C 151.196,31.9869 150.03,33.6536 149,35.5C 149.248,43.7551 147.248,51.4218 143,58.5C 138.945,62.3652 134.778,62.3652 130.5,58.5C 125.971,59.4895 122.138,58.1562 119,54.5C 113.225,57.086 107.392,57.086 101.5,54.5C 93.2547,59.5002 84.7547,59.8335 76,55.5C 66.8125,59.7549 57.8125,59.4215 49,54.5C 43.8204,55.8097 38.6537,55.8097 33.5,54.5C 29.9994,58.3536 25.8328,59.6869 21,58.5C 16.7746,62.3338 12.7746,62.0005 9,57.5C 6.63355,51.2008 5.13355,44.7008 4.5,38C 3.01303,35.6816 1.34636,33.515 -0.5,31.5C -0.5,28.5 -0.5,25.5 -0.5,22.5C 0.323821,18.6877 0.823821,14.6877 1,10.5C 1.5,10 2,9.5 2.5,9C 12.6174,4.72694 22.9507,1.56027 33.5,-0.5 Z M 44.5,3.5 C 55.6988,3.60443 66.0321,6.60443 75.5,12.5C 98.4544,1.9529 121.454,1.9529 144.5,12.5C 145.192,13.0253 145.692,13.6919 146,14.5C 146.253,19.039 146.753,23.539 147.5,28C 147.355,28.772 147.022,29.4387 146.5,30C 144.112,30.3034 141.945,31.1367 140,32.5C 139.377,25.8606 135.877,23.0273 129.5,24C 126.244,25.4589 123.577,27.6255 121.5,30.5C 114.676,19.8829 107.843,19.8829 101,30.5C 96.2271,20.2414 89.0605,18.0748 79.5,24C 78.3333,25.8333 77.1667,27.6667 76,29.5C 71.3414,20.3191 64.5081,18.1525 55.5,23C 53.3834,24.7309 51.8834,26.8976 51,29.5C 44.2084,19.0681 37.375,19.0681 30.5,29.5C 27.9783,27.144 25.3116,24.9773 22.5,23C 15.1036,21.5505 11.4369,24.7172 11.5,32.5C 9.05135,32.02 6.88469,31.02 5,29.5C 4.53142,23.8185 4.69809,18.1518 5.5,12.5C 18.2133,7.73614 31.2133,4.73614 44.5,3.5 Z M 60.5,25.5 C 62.5273,25.3379 64.5273,25.5045 66.5,26C 72.9345,32.9794 75.1012,41.146 73,50.5C 66.4669,54.4698 59.9669,54.4698 53.5,50.5C 51.532,40.8668 53.8654,32.5335 60.5,25.5 Z M 86.5,25.5 C 93.0263,26.1899 96.8597,29.8566 98,36.5C 102.896,48.9327 98.7297,54.4327 85.5,53C 83.1116,52.6966 80.9449,51.8633 79,50.5C 77.9021,43.6154 78.5687,36.9487 81,30.5C 82.7297,28.5981 84.563,26.9314 86.5,25.5 Z M 39.5,26.5 C 41.9032,26.393 43.7365,27.393 45,29.5C 48.6318,35.8847 49.2984,42.5514 47,49.5C 37.7512,53.6709 33.5845,50.8375 34.5,41C 33.4411,35.1277 35.1078,30.2944 39.5,26.5 Z M 17.5,27.5 C 22.6018,28.7565 26.4351,31.7565 29,36.5C 29.6667,41.5 29.6667,46.5 29,51.5C 27.0541,53.9944 24.7207,54.6611 22,53.5C 18.1003,45.2817 16.6003,36.615 17.5,27.5 Z M 109.5,27.5 C 112.263,27.7438 114.429,29.0771 116,31.5C 118.394,37.2757 119.061,43.2757 118,49.5C 113.333,53.5 108.667,53.5 104,49.5C 102.128,41.153 103.961,33.8197 109.5,27.5 Z M 130.5,28.5 C 132.124,28.3601 133.29,29.0267 134,30.5C 135.157,38.0408 133.99,45.2075 130.5,52C 127.719,55.0098 125.053,54.6764 122.5,51C 123.305,46.2512 123.805,41.4179 124,36.5C 126.001,33.6693 128.167,31.0026 130.5,28.5 Z M 143.5,35.5 C 144.032,40.0538 143.532,44.7205 142,49.5C 140.985,52.2101 139.485,54.5434 137.5,56.5C 135.616,55.3073 135.116,53.6406 136,51.5C 137.399,48.6366 138.399,45.6366 139,42.5C 140.75,40.2657 142.25,37.9324 143.5,35.5 Z M 9.5,38.5 C 10.7942,39.2899 11.9609,40.2899 13,41.5C 13.6235,45.8286 14.7902,49.9953 16.5,54C 16.3699,55.0588 15.8699,55.8921 15,56.5C 11.6258,51.0112 9.79246,45.0112 9.5,38.5 Z"/></g>
<g><path style="opacity:0.825" fill="#000000" d="M 152.5,98.5 C 152.5,99.1667 152.5,99.8333 152.5,100.5C 151.583,106.341 150.75,112.341 150,118.5C 125.728,130.514 101.062,131.514 76,121.5C 67.9906,126.116 59.4906,128.783 50.5,129.5C 47.5,129.5 44.5,129.5 41.5,129.5C 28.1122,128.215 15.1122,124.882 2.5,119.5C 1.80762,118.975 1.30762,118.308 1,117.5C 0.823821,113.312 0.323821,109.312 -0.5,105.5C -0.5,102.5 -0.5,99.5 -0.5,96.5C 1.12879,95.3747 2.62879,94.0414 4,92.5C 5,87.1667 6,81.8333 7,76.5C 7.84845,73.3022 9.34845,70.4689 11.5,68C 17.2052,68.0045 22.8719,68.6712 28.5,70C 31.837,73.831 35.837,74.6644 40.5,72.5C 43.6663,72.4492 46.6663,73.1159 49.5,74.5C 58.0899,68.2508 66.9232,67.9175 76,73.5C 84.6218,69.5415 93.2885,69.5415 102,73.5C 107.713,70.8976 113.379,70.8976 119,73.5C 122.412,70.1211 126.578,68.6211 131.5,69C 138.848,64.9155 143.681,67.0822 146,75.5C 147.851,81.0083 148.851,86.675 149,92.5C 150.459,94.4319 151.625,96.4319 152.5,98.5 Z M 136.5,71.5 C 138.453,72.6258 139.953,74.2925 141,76.5C 143.026,81.6951 144.026,87.0284 144,92.5C 142.667,91.1667 141.333,89.8333 140,88.5C 138.558,83.5052 136.724,78.6719 134.5,74C 135.381,73.2917 136.047,72.4584 136.5,71.5 Z M 14.5,72.5 C 15.4972,72.4701 16.1639,72.9701 16.5,74C 14.7902,78.0047 13.6235,82.1714 13,86.5C 12.3848,88.1161 11.3848,89.4495 10,90.5C 9.93592,84.0897 11.4359,78.0897 14.5,72.5 Z M 23.5,73.5 C 25.7346,74.2279 27.5679,75.5612 29,77.5C 29.6667,82.1667 29.6667,86.8333 29,91.5C 18.7635,105.965 15.0968,104.298 18,86.5C 18.7491,81.6729 20.5824,77.3396 23.5,73.5 Z M 59.5,74.5 C 64.3147,74.1627 68.8147,75.1627 73,77.5C 74.6086,85.8271 73.1086,93.4937 68.5,100.5C 64.6283,103.87 60.7949,103.537 57,99.5C 53.6202,92.8875 52.2869,85.8875 53,78.5C 55.0129,76.7518 57.1795,75.4185 59.5,74.5 Z M 87.5,74.5 C 92.4484,74.5497 96.4484,76.3831 99.5,80C 99.9858,88.5478 97.3191,95.8811 91.5,102C 84.253,103.103 80.0863,99.9368 79,92.5C 78.3333,87.5 78.3333,82.5 79,77.5C 81.8705,76.3068 84.7038,75.3068 87.5,74.5 Z M 125.5,74.5 C 127.144,74.2865 128.644,74.6198 130,75.5C 133.885,82.3712 135.218,89.7045 134,97.5C 132.512,99.8202 130.679,99.9869 128.5,98C 126.877,95.9205 125.377,93.7538 124,91.5C 123.333,86.5 123.333,81.5 124,76.5C 124.717,75.9558 125.217,75.2891 125.5,74.5 Z M 107.5,76.5 C 111.516,75.8999 115.016,76.8999 118,79.5C 120.44,88.5277 118.107,95.8611 111,101.5C 104.197,95.3085 101.864,87.6418 104,78.5C 105.302,77.9152 106.469,77.2485 107.5,76.5 Z M 36.5,77.5 C 39.909,77.2493 43.2423,77.5827 46.5,78.5C 49.4685,85.421 48.9685,92.0877 45,98.5C 40.4422,102.582 37.1088,101.582 35,95.5C 33.9501,89.2155 34.4501,83.2155 36.5,77.5 Z M 11.5,95.5 C 13.0627,106.779 18.396,108.946 27.5,102C 28.2106,100.745 29.044,99.5786 30,98.5C 36.6656,108.697 43.6656,109.03 51,99.5C 55.5058,107.444 62.0058,109.611 70.5,106C 72.5299,104.104 74.1966,101.937 75.5,99.5C 80.817,107.708 87.817,109.541 96.5,105C 98.3773,102.749 99.8773,100.249 101,97.5C 107.253,109.081 114.087,109.414 121.5,98.5C 124.466,102.234 128.299,104.567 133,105.5C 134.473,105.097 135.806,104.43 137,103.5C 138,100.833 139,98.1667 140,95.5C 141.826,97.0738 143.993,97.9071 146.5,98C 147.022,98.5613 147.355,99.228 147.5,100C 146.86,104.848 146.194,109.681 145.5,114.5C 130.798,122.285 115.132,125.118 98.5,123C 90.5726,121.746 82.9059,119.58 75.5,116.5C 59.9556,124.756 43.6223,126.589 26.5,122C 19.5997,120.533 12.933,118.367 6.5,115.5C 4.70756,109.95 4.20756,104.283 5,98.5C 7.16335,97.864 9.33002,96.864 11.5,95.5 Z"/></g>
</svg>
