<?xml version="1.0" encoding="UTF-8"?>
<!DOCTYPE svg PUBLIC "-//W3C//DTD SVG 1.1//EN" "http://www.w3.org/Graphics/SVG/1.1/DTD/svg11.dtd">
<svg xmlns="http://www.w3.org/2000/svg" version="1.1" width="105px" height="159px" style="shape-rendering:geometricPrecision; text-rendering:geometricPrecision; image-rendering:optimizeQuality; fill-rule:evenodd; clip-rule:evenodd" xmlns:xlink="http://www.w3.org/1999/xlink">
<g><path style="opacity:0.664" fill="#000000" d="M 52.5,-0.5 C 52.8333,-0.5 53.1667,-0.5 53.5,-0.5C 54.2534,5.18257 54.7534,10.8492 55,16.5C 53.9887,15.6634 52.8221,15.33 51.5,15.5C 51.162,17.854 50.662,20.1873 50,22.5C 48.7338,18.6049 48.2338,14.6049 48.5,10.5C 50.1238,10.6399 51.2904,9.97326 52,8.5C 52.498,5.51838 52.6646,2.51838 52.5,-0.5 Z"/></g>
<g><path style="opacity:0.721" fill="#000000" d="M 12.5,4.5 C 13.3764,4.36912 14.0431,4.70245 14.5,5.5C 16.0795,8.9939 17.9128,12.3272 20,15.5C 21.1011,13.6061 22.4345,12.9394 24,13.5C 25.4843,17.7536 26.151,22.0869 26,26.5C 24.6924,24.3586 23.1924,22.3586 21.5,20.5C 20.086,21.624 18.586,22.624 17,23.5C 15.1792,17.2266 13.6792,10.8932 12.5,4.5 Z"/></g>
<g><path style="opacity:0.666" fill="#000000" d="M 89.5,9.5 C 90.1449,14.287 89.1449,18.9536 86.5,23.5C 85.5,22.8333 84.5,22.1667 83.5,21.5C 81.8513,22.6477 80.3513,23.981 79,25.5C 78.9421,21.7285 80.1087,18.3952 82.5,15.5C 83.4776,15.9767 84.3109,16.6433 85,17.5C 86.7653,14.9679 88.2653,12.3013 89.5,9.5 Z"/></g>
<g><path style="opacity:0.884" fill="#060606" d="M 104.5,60.5 C 104.5,62.5 104.5,64.5 104.5,66.5C 103.661,71.1091 102.494,75.7758 101,80.5C 97.23,86.6034 93.8967,92.9367 91,99.5C 91.2419,114.329 89.9086,128.996 87,143.5C 85.7204,150.457 81.8871,155.124 75.5,157.5C 72.8887,157.444 70.722,156.444 69,154.5C 66.7813,150.729 65.1146,146.729 64,142.5C 62.6989,132.293 59.6989,122.626 55,113.5C 52.0337,110.735 49.367,111.068 47,114.5C 46,116.5 45,118.5 44,120.5C 41.5038,131.653 38.5038,142.653 35,153.5C 30.4927,158.619 25.826,158.619 21,153.5C 16.358,146.909 13.6913,139.576 13,131.5C 12.6667,120.5 12.3333,109.5 12,98.5C 6.42193,89.687 2.25526,80.3536 -0.5,70.5C -0.5,65.1667 -0.5,59.8333 -0.5,54.5C 3.83855,39.3489 14.0052,31.3489 30,30.5C 37.5584,33.7416 45.3917,36.0749 53.5,37.5C 61.9484,36.4011 70.115,34.4011 78,31.5C 88.7689,32.3837 96.4355,37.717 101,47.5C 102.583,51.8602 103.75,56.1936 104.5,60.5 Z"/></g>
<g><path style="opacity:1" fill="#fcfcfc" d="M 22.5,35.5 C 26.1817,35.3347 29.8484,35.5014 33.5,36C 47.1427,43.2475 60.8093,43.2475 74.5,36C 85.7738,35.733 93.6071,40.8996 98,51.5C 100.686,62.2073 99.6855,72.5406 95,82.5C 91.8276,86.8409 89.1609,91.5076 87,96.5C 86.946,110.244 85.946,123.91 84,137.5C 82.9456,143.87 80.1123,149.204 75.5,153.5C 72.7443,151.909 70.911,149.576 70,146.5C 68.3396,134.188 64.6729,122.522 59,111.5C 53.3134,105.96 47.98,106.294 43,112.5C 41.6667,115.167 40.3333,117.833 39,120.5C 37.2473,131.182 34.4139,141.516 30.5,151.5C 29.277,152.614 27.9437,152.781 26.5,152C 23.8941,150.062 22.0608,147.562 21,144.5C 19.2429,139.963 17.9095,135.296 17,130.5C 16.6667,119.167 16.3333,107.833 16,96.5C 10.6555,88.1404 6.65548,79.1404 4,69.5C 1.08601,52.9812 7.25268,41.6479 22.5,35.5 Z"/></g>
<g><path style="opacity:1" fill="#181818" d="M 74.5,39.5 C 75.8333,39.5 77.1667,39.5 78.5,39.5C 78.8841,41.6648 78.2174,43.3315 76.5,44.5C 74.7826,43.3315 74.1159,41.6648 74.5,39.5 Z"/></g>
<g><path style="opacity:1" fill="#0d0d0d" d="M 81.5,40.5 C 82.8333,40.5 84.1667,40.5 85.5,40.5C 85.5,41.8333 85.5,43.1667 85.5,44.5C 84.1667,44.5 82.8333,44.5 81.5,44.5C 81.5,43.1667 81.5,41.8333 81.5,40.5 Z"/></g>
<g><path style="opacity:1" fill="#101010" d="M 84.5,46.5 C 85.8333,46.5 87.1667,46.5 88.5,46.5C 88.5,47.8333 88.5,49.1667 88.5,50.5C 87.1667,50.5 85.8333,50.5 84.5,50.5C 84.5,49.1667 84.5,47.8333 84.5,46.5 Z"/></g>
</svg>
