<?xml version="1.0" encoding="UTF-8"?>
<!DOCTYPE svg PUBLIC "-//W3C//DTD SVG 1.1//EN" "http://www.w3.org/Graphics/SVG/1.1/DTD/svg11.dtd">
<svg xmlns="http://www.w3.org/2000/svg" version="1.1" width="128px" height="154px" style="shape-rendering:geometricPrecision; text-rendering:geometricPrecision; image-rendering:optimizeQuality; fill-rule:evenodd; clip-rule:evenodd" xmlns:xlink="http://www.w3.org/1999/xlink">
<g><path style="opacity:0.743" fill="#000000" d="M 70.5,-0.5 C 71.1667,-0.5 71.8333,-0.5 72.5,-0.5C 74.5391,5.67853 76.2057,12.0119 77.5,18.5C 75.5742,22.4875 74.0742,22.1541 73,17.5C 71.4511,11.5912 70.6178,5.5912 70.5,-0.5 Z"/></g>
<g><path style="opacity:0.753" fill="#000000" d="M 92.5,1.5 C 93.5,1.5 94.5,1.5 95.5,1.5C 94.9931,7.20407 94.1597,12.8707 93,18.5C 92.2323,22.8277 90.7323,23.3277 88.5,20C 89.6482,13.7563 90.9815,7.58962 92.5,1.5 Z"/></g>
<g><path style="opacity:0.707" fill="#000000" d="M 82.5,10.5 C 83.4959,10.4142 84.3292,10.7476 85,11.5C 85.3876,14.8492 85.2209,18.1825 84.5,21.5C 82.6536,21.7778 81.3202,21.1112 80.5,19.5C 81.1686,16.4701 81.8353,13.4701 82.5,10.5 Z"/></g>
<g><path style="opacity:0.717" fill="#000000" d="M 116.5,12.5 C 117.5,12.5 118.5,12.5 119.5,12.5C 119.657,13.8734 119.49,15.2068 119,16.5C 114.312,20.6886 109.479,24.6886 104.5,28.5C 102.717,27.6518 102.217,26.3185 103,24.5C 107.694,20.6346 112.194,16.6346 116.5,12.5 Z"/></g>
<g><path style="opacity:0.687" fill="#000000" d="M 99.5,13.5 C 101.252,13.4176 102.252,14.2509 102.5,16C 101.82,19.2411 100.486,22.0745 98.5,24.5C 97.1195,24.0004 96.4528,23.0004 96.5,21.5C 97.5067,18.8103 98.5067,16.1437 99.5,13.5 Z"/></g>
<g><path style="opacity:0.893" fill="#080808" d="M 76.5,153.5 C 75.8333,153.5 75.1667,153.5 74.5,153.5C 70.1225,151.612 67.2892,148.279 66,143.5C 63.9201,134.434 61.5867,125.434 59,116.5C 57.6921,112.194 55.1921,108.861 51.5,106.5C 48.4326,107.947 46.2659,110.28 45,113.5C 41.9836,125.28 38.6503,136.947 35,148.5C 30.4927,153.619 25.826,153.619 21,148.5C 16.1512,141.621 13.4845,133.955 13,125.5C 12.6667,114.833 12.3333,104.167 12,93.5C 6.42193,84.687 2.25526,75.3536 -0.5,65.5C -0.5,60.5 -0.5,55.5 -0.5,50.5C 4.56056,32.4482 16.5606,24.6149 35.5,27C 47.8886,34.3241 60.222,34.3241 72.5,27C 91.5969,26.0865 102.097,35.2532 104,54.5C 104.551,59.5445 104.218,64.5445 103,69.5C 99.7856,78.2605 95.7856,86.5938 91,94.5C 91.0212,108.255 90.0212,121.922 88,135.5C 86.3834,143.101 82.55,149.101 76.5,153.5 Z"/></g>
<g><path style="opacity:0.704" fill="#000000" d="M 113.5,29.5 C 116.39,29.5268 117.39,30.6935 116.5,33C 113.274,34.1989 109.941,34.6989 106.5,34.5C 106.33,33.1779 106.663,32.0113 107.5,31C 109.708,30.8091 111.708,30.3091 113.5,29.5 Z"/></g>
<g><path style="opacity:1" fill="#fbfbfb" d="M 23.5,30.5 C 26.8499,30.335 30.1832,30.5017 33.5,31C 37.2707,33.2187 41.2707,34.8854 45.5,36C 52.2423,36.2656 58.909,36.4323 65.5,36.5C 60.6967,51.2622 65.03,62.4288 78.5,70C 84.4653,71.736 90.4653,71.9027 96.5,70.5C 96.8333,71 97.1667,71.5 97.5,72C 94.1345,78.5638 90.6345,85.0638 87,91.5C 86.6667,101.5 86.3333,111.5 86,121.5C 85.0826,129.918 82.7493,137.918 79,145.5C 75.5301,149.469 72.8634,148.802 71,143.5C 68.6244,132.665 65.6244,121.999 62,111.5C 57.2792,101.357 50.9458,100.023 43,107.5C 38.4694,116.287 35.8027,125.621 35,135.5C 33.9523,140.327 31.9523,144.66 29,148.5C 25.2771,146.443 22.6104,143.443 21,139.5C 19.4616,134.552 18.1283,129.552 17,124.5C 16.6667,113.167 16.3333,101.833 16,90.5C 6.56593,77.5499 2.89926,63.2166 5,47.5C 8.83289,39.1621 14.9996,33.4954 23.5,30.5 Z"/></g>
<g><path style="opacity:1" fill="#fbfbfb" d="M 73.5,31.5 C 87.6687,30.8266 96.1687,37.4933 99,51.5C 99.6667,55.8333 99.6667,60.1667 99,64.5C 98.6258,65.4162 98.1258,66.2496 97.5,67C 83.3416,71.3347 73.1749,66.8347 67,53.5C 65.6695,46.7149 66.6695,40.3815 70,34.5C 71.5185,33.8366 72.6851,32.8366 73.5,31.5 Z"/></g>
<g><path style="opacity:0.753" fill="#000000" d="M 127.5,39.5 C 127.5,40.1667 127.5,40.8333 127.5,41.5C 120.892,42.347 114.225,42.1803 107.5,41C 106.167,40 106.167,39 107.5,38C 114.222,37.7723 120.889,38.2723 127.5,39.5 Z"/></g>
<g><path style="opacity:1" fill="#171717" d="M 25.5,38.5 C 27.5,38.5 29.5,38.5 31.5,38.5C 31.5,39.5 31.5,40.5 31.5,41.5C 20.3454,43.3292 14.3454,49.9959 13.5,61.5C 12.5,61.5 11.5,61.5 10.5,61.5C 11.2667,50.9422 16.2667,43.2755 25.5,38.5 Z"/></g>
</svg>
