<?xml version="1.0" encoding="UTF-8"?>
<!DOCTYPE svg PUBLIC "-//W3C//DTD SVG 1.1//EN" "http://www.w3.org/Graphics/SVG/1.1/DTD/svg11.dtd">
<svg xmlns="http://www.w3.org/2000/svg" version="1.1" width="105px" height="137px" style="shape-rendering:geometricPrecision; text-rendering:geometricPrecision; image-rendering:optimizeQuality; fill-rule:evenodd; clip-rule:evenodd" xmlns:xlink="http://www.w3.org/1999/xlink">
<g><path style="opacity:0.869" fill="#070707" d="M 25.5,-0.5 C 28.1667,-0.5 30.8333,-0.5 33.5,-0.5C 47.4075,8.03753 61.4075,8.03753 75.5,-0.5C 76.8333,-0.5 78.1667,-0.5 79.5,-0.5C 93.6837,3.01907 102.017,12.0191 104.5,26.5C 104.5,30.5 104.5,34.5 104.5,38.5C 103.475,42.0793 102.309,45.7459 101,49.5C 97.3969,55.7068 94.0636,62.0402 91,68.5C 90.5001,85.1633 90.3334,101.83 90.5,118.5C 64.8247,118.833 39.158,118.5 13.5,117.5C 12.6806,100.544 12.1806,83.544 12,66.5C 6.15326,57.4819 1.98659,47.8152 -0.5,37.5C -0.5,33.1667 -0.5,28.8333 -0.5,24.5C 2.9234,10.7437 11.5901,2.41041 25.5,-0.5 Z M 17.5,74.5 C 40.4651,78.4693 63.4651,78.4693 86.5,74.5C 86.5,87.5 86.5,100.5 86.5,113.5C 63.5,113.5 40.5,113.5 17.5,113.5C 17.5,100.5 17.5,87.5 17.5,74.5 Z"/></g>
<g><path style="opacity:1" fill="#fdfdfd" d="M 22.5,4.5 C 26.5138,4.33449 30.5138,4.50115 34.5,5C 43.9271,10.5242 53.9271,11.8576 64.5,9C 81.5275,0.784993 93.0275,5.61833 99,23.5C 99.6667,29.5 99.6667,35.5 99,41.5C 95.8894,49.9442 91.8894,57.9442 87,65.5C 86.51,66.7932 86.3433,68.1266 86.5,69.5C 63.5767,74.3381 40.5767,74.6715 17.5,70.5C 16.3761,64.5825 13.8761,59.2492 10,54.5C 4.99073,44.0008 3.32407,33.0008 5,21.5C 8.08386,12.915 13.9172,7.24829 22.5,4.5 Z"/></g>
<g><path style="opacity:0.745" fill="#000000" d="M 21.5,78.5 C 41.8361,78.3334 62.1694,78.5 82.5,79C 85.1667,80.3333 85.1667,81.6667 82.5,83C 62.1667,83.6667 41.8333,83.6667 21.5,83C 19.0688,81.5682 19.0688,80.0682 21.5,78.5 Z"/></g>
<g><path style="opacity:0.745" fill="#000000" d="M 21.5,84.5 C 41.8361,84.3334 62.1694,84.5 82.5,85C 85.1667,86.3333 85.1667,87.6667 82.5,89C 62.1667,89.6667 41.8333,89.6667 21.5,89C 19.0688,87.5682 19.0688,86.0682 21.5,84.5 Z"/></g>
<g><path style="opacity:0.91" fill="#000000" d="M 20.5,90.5 C 41.5026,90.3334 62.5026,90.5 83.5,91C 84.8333,92 84.8333,93 83.5,94C 62.5,94.6667 41.5,94.6667 20.5,94C 19.3157,92.8545 19.3157,91.6879 20.5,90.5 Z"/></g>
<g><path style="opacity:0.91" fill="#000000" d="M 20.5,96.5 C 41.5026,96.3334 62.5026,96.5 83.5,97C 84.8333,98 84.8333,99 83.5,100C 62.5,100.667 41.5,100.667 20.5,100C 19.3157,98.8545 19.3157,97.6879 20.5,96.5 Z"/></g>
<g><path style="opacity:0.745" fill="#000000" d="M 21.5,101.5 C 41.8361,101.333 62.1694,101.5 82.5,102C 85.1667,103.333 85.1667,104.667 82.5,106C 62.1667,106.667 41.8333,106.667 21.5,106C 19.0688,104.568 19.0688,103.068 21.5,101.5 Z"/></g>
<g><path style="opacity:0.742" fill="#000000" d="M 20.5,107.5 C 41.1694,107.333 61.836,107.5 82.5,108C 83.8333,109.333 83.8333,110.667 82.5,112C 62.1667,112.667 41.8333,112.667 21.5,112C 19.4523,110.774 19.119,109.274 20.5,107.5 Z"/></g>
<g><path style="opacity:0.923" fill="#000000" d="M 25.5,120.5 C 43.1698,120.333 60.8365,120.5 78.5,121C 79.8333,122 79.8333,123 78.5,124C 60.8333,124.667 43.1667,124.667 25.5,124C 24.3157,122.855 24.3157,121.688 25.5,120.5 Z"/></g>
<g><path style="opacity:0.739" fill="#000000" d="M 25.5,125.5 C 42.8365,125.333 60.1699,125.5 77.5,126C 79.3937,127.079 79.727,128.413 78.5,130C 60.8333,130.667 43.1667,130.667 25.5,130C 23.0688,128.568 23.0688,127.068 25.5,125.5 Z"/></g>
<g><path style="opacity:0.734" fill="#000000" d="M 74.5,136.5 C 59.5,136.5 44.5,136.5 29.5,136.5C 27.0688,134.932 27.0688,133.432 29.5,132C 44.5,131.333 59.5,131.333 74.5,132C 75.7279,133.49 75.7279,134.99 74.5,136.5 Z"/></g>
</svg>
