<?xml version="1.0" encoding="UTF-8"?>
<!DOCTYPE svg PUBLIC "-//W3C//DTD SVG 1.1//EN" "http://www.w3.org/Graphics/SVG/1.1/DTD/svg11.dtd">
<svg xmlns="http://www.w3.org/2000/svg" version="1.1" width="153px" height="127px" style="shape-rendering:geometricPrecision; text-rendering:geometricPrecision; image-rendering:optimizeQuality; fill-rule:evenodd; clip-rule:evenodd" xmlns:xlink="http://www.w3.org/1999/xlink">
<g><path style="opacity:0.822" fill="#000000" d="M 62.5,-0.5 C 64.8333,-0.5 67.1667,-0.5 69.5,-0.5C 74.5563,0.311709 79.3897,1.97838 84,4.5C 105.818,-1.68193 113.485,5.98473 107,27.5C 105.579,30.0094 103.912,32.3428 102,34.5C 102.527,46.9299 98.3601,57.4299 89.5,66C 83.0203,69.0491 79.687,66.8824 79.5,59.5C 80.8615,54.4113 80.5282,49.4113 78.5,44.5C 76.8539,45.7786 75.6872,47.4453 75,49.5C 73.3973,54.1412 71.8973,58.8079 70.5,63.5C 64.6489,64.863 60.8156,62.5296 59,56.5C 56.0046,47.2098 55.838,37.8764 58.5,28.5C 56.1906,20.5192 56.0239,12.5192 58,4.5C 59.0591,2.34079 60.5591,0.674125 62.5,-0.5 Z M 64.5,4.5 C 71.1677,4.46428 77.3344,6.13094 83,9.5C 89.555,7.11165 96.055,7.11165 102.5,9.5C 105.747,18.2825 103.913,25.9491 97,32.5C 97.8212,44.1829 94.1545,54.1829 86,62.5C 84.7493,56.2752 84.0827,49.9418 84,43.5C 82.3867,35.7354 79.0533,34.7354 74,40.5C 70.8154,46.2219 68.3154,52.2219 66.5,58.5C 65.2011,57.91 64.3678,56.91 64,55.5C 60.5083,46.4184 60.675,37.4184 64.5,28.5C 61.7615,21.7399 60.9282,14.7399 62,7.5C 63.045,6.62656 63.8783,5.62656 64.5,4.5 Z"/></g>
<g><path style="opacity:0.762" fill="#000000" d="M 39.5,27.5 C 41.1439,27.2865 42.6439,27.6198 44,28.5C 46.3333,32.8333 48.6667,37.1667 51,41.5C 51.0453,45.8237 49.3786,46.4904 46,43.5C 42.9751,38.4591 40.8084,33.1258 39.5,27.5 Z"/></g>
<g><path style="opacity:0.756" fill="#000000" d="M 22.5,30.5 C 26.0681,30.7593 27.4015,32.7593 26.5,36.5C 21.7398,36.7993 20.4064,34.7993 22.5,30.5 Z"/></g>
<g><path style="opacity:0.756" fill="#000000" d="M 114.5,35.5 C 113.831,31.3241 115.331,29.9907 119,31.5C 119.494,33.1341 119.66,34.8008 119.5,36.5C 117.708,36.634 116.042,36.3007 114.5,35.5 Z"/></g>
<g><path style="opacity:0.762" fill="#000000" d="M 28.5,35.5 C 32.1267,36.2796 35.46,37.7796 38.5,40C 43.1183,44.1448 42.4516,45.8115 36.5,45C 32.8609,43.3635 29.8609,41.0302 27.5,38C 27.7432,37.0979 28.0766,36.2646 28.5,35.5 Z"/></g>
<g><path style="opacity:0.772" fill="#000000" d="M 114.5,35.5 C 114.302,41.3641 111.302,44.6974 105.5,45.5C 105.34,43.8008 105.506,42.1341 106,40.5C 108.506,38.1365 111.339,36.4698 114.5,35.5 Z"/></g>
<g><path style="opacity:0.767" fill="#000000" d="M 118.5,44.5 C 121.073,44.1485 123.406,44.6485 125.5,46C 124.953,46.9246 124.287,47.7579 123.5,48.5C 119.833,49.8333 116.167,51.1667 112.5,52.5C 109.847,51.715 109.18,50.215 110.5,48C 113.309,46.9066 115.976,45.7399 118.5,44.5 Z"/></g>
<g><path style="opacity:0.809" fill="#000000" d="M 135.5,54.5 C 138.85,54.335 142.183,54.5017 145.5,55C 150.239,57.3073 152.239,61.1406 151.5,66.5C 151.598,71.1081 150.598,75.4415 148.5,79.5C 146.41,80.7908 145.076,80.1242 144.5,77.5C 146.351,72.3034 146.851,66.9701 146,61.5C 144.352,59.9716 142.352,59.3049 140,59.5C 134.941,60.1811 129.941,61.1811 125,62.5C 118.62,60.6037 112.12,60.1037 105.5,61C 103.98,62.8847 102.98,65.0514 102.5,67.5C 104.469,71.8913 104.636,76.2246 103,80.5C 100.676,79.1927 99.343,77.1927 99,74.5C 96.0642,58.4363 102.564,52.2697 118.5,56C 124.461,57.9145 130.128,57.4145 135.5,54.5 Z"/></g>
<g><path style="opacity:0.808" fill="#000000" d="M 6.5,55.5 C 14.1193,55.0554 21.6193,55.7221 29,57.5C 50.3114,50.1526 57.9781,57.1526 52,78.5C 50.6764,79.8802 49.3431,80.2135 48,79.5C 47.8389,75.458 48.3389,71.458 49.5,67.5C 49.4441,64.8887 48.4441,62.722 46.5,61C 40.5617,60.2368 34.7283,60.7368 29,62.5C 22.0369,60.3904 15.0369,60.0571 8,61.5C 5.58792,66.4045 5.42125,71.5712 7.5,77C 7.15255,81.0173 5.65255,81.5173 3,78.5C 0.0556347,70.0527 1.2223,62.386 6.5,55.5 Z"/></g>
<g><path style="opacity:0.809" fill="#000000" d="M -0.5,81.5 C 18.5,81.5 37.5,81.5 56.5,81.5C 54.5021,92.8559 55.6688,103.856 60,114.5C 61.5615,116.973 63.5615,118.973 66,120.5C 67.0575,115.448 68.3909,110.448 70,105.5C 73.4776,99.2729 77.4776,98.9395 82,104.5C 84.2828,109.628 85.9495,114.962 87,120.5C 92.0863,115.594 95.0863,109.594 96,102.5C 96.7948,95.7823 96.6282,89.1157 95.5,82.5C 114.488,81.5004 133.488,81.1671 152.5,81.5C 152.5,83.1667 152.5,84.8333 152.5,86.5C 135.5,86.5 118.5,86.5 101.5,86.5C 102.728,98.1937 100.561,109.194 95,119.5C 92.6041,122.067 90.1041,124.4 87.5,126.5C 86.5,126.5 85.5,126.5 84.5,126.5C 81.6144,121.254 79.7811,115.588 79,109.5C 78.3848,107.884 77.3848,106.551 76,105.5C 73.456,111.905 71.2893,118.405 69.5,125C 64.7672,125.962 60.9339,124.462 58,120.5C 54.91,116.318 52.91,111.651 52,106.5C 51.5004,99.8417 51.3337,93.175 51.5,86.5C 34.1667,86.5 16.8333,86.5 -0.5,86.5C -0.5,84.8333 -0.5,83.1667 -0.5,81.5 Z"/></g>
</svg>
