<?xml version="1.0" encoding="UTF-8"?>
<!DOCTYPE svg PUBLIC "-//W3C//DTD SVG 1.1//EN" "http://www.w3.org/Graphics/SVG/1.1/DTD/svg11.dtd">
<svg xmlns="http://www.w3.org/2000/svg" version="1.1" width="153px" height="85px" style="shape-rendering:geometricPrecision; text-rendering:geometricPrecision; image-rendering:optimizeQuality; fill-rule:evenodd; clip-rule:evenodd" xmlns:xlink="http://www.w3.org/1999/xlink">
<g><path style="opacity:0.882" fill="#070707" d="M 83.5,84.5 C 76.8333,84.5 70.1667,84.5 63.5,84.5C 32.7974,79.8165 11.4641,63.1498 -0.5,34.5C -0.5,32.1667 -0.5,29.8333 -0.5,27.5C 0.363622,26.3117 1.36362,25.1451 2.5,24C 17.0577,18.0545 31.0577,11.0545 44.5,3C 55.4289,-0.969725 65.9289,-0.136392 76,5.5C 84.2657,0.383226 93.099,-0.783441 102.5,2C 118.231,9.86437 134.231,17.1977 150.5,24C 151.626,27.7436 151.793,31.577 151,35.5C 138.181,65.15 115.681,81.4834 83.5,84.5 Z"/></g>
<g><path style="opacity:1" fill="#fbfbfb" d="M 52.5,4.5 C 60.9796,3.99104 68.8129,5.99104 76,10.5C 84.5446,5.23592 93.7112,4.06925 103.5,7C 117.473,14.487 131.806,21.1537 146.5,27C 147.576,28.7261 147.743,30.5594 147,32.5C 140.013,52.1553 126.846,65.9886 107.5,74C 82.5291,83.5771 58.1958,82.2438 34.5,70C 19.3289,61.1398 9.32894,48.3065 4.5,31.5C 4.55074,29.9002 4.88407,28.4002 5.5,27C 9.24319,25.8635 12.9099,24.5302 16.5,23C 28.2068,16.0931 40.2068,9.92643 52.5,4.5 Z"/></g>
<g><path style="opacity:1" fill="#101010" d="M 12.5,31.5 C 50.1681,31.3333 87.8348,31.5 125.5,32C 128.5,32.3333 131.5,32.6667 134.5,33C 135.337,34.0113 135.67,35.1779 135.5,36.5C 123.592,42.1961 111.258,47.0294 98.5,51C 67.7829,56.5134 39.1163,51.18 12.5,35C 11.3157,33.8545 11.3157,32.6879 12.5,31.5 Z"/></g>
<g><path style="opacity:1" fill="#5b5b5b" d="M 27.5,35.5 C 25.2646,35.2053 23.2646,35.5386 21.5,36.5C 20.7109,36.2172 20.0442,35.7172 19.5,35C 22.367,34.1993 25.0336,34.3659 27.5,35.5 Z"/></g>
<g><path style="opacity:1" fill="#fefffe" d="M 51.5,34.5 C 52.5,34.5 53.5,34.5 54.5,34.5C 54.5,38.8333 54.5,43.1667 54.5,47.5C 53.5,47.5 52.5,47.5 51.5,47.5C 51.5,43.1667 51.5,38.8333 51.5,34.5 Z"/></g>
<g><path style="opacity:1" fill="#dfdfdf" d="M 74.5,34.5 C 75.8333,34.5 77.1667,34.5 78.5,34.5C 78.6659,39.5111 78.4993,44.5111 78,49.5C 76.9887,50.3366 75.8221,50.67 74.5,50.5C 74.5,45.1667 74.5,39.8333 74.5,34.5 Z"/></g>
<g><path style="opacity:1" fill="#fefffe" d="M 97.5,34.5 C 98.8001,36.223 99.4668,38.3897 99.5,41C 99.1667,43.1667 98.8333,45.3333 98.5,47.5C 97.5078,43.2172 97.1744,38.8839 97.5,34.5 Z"/></g>
<g><path style="opacity:1" fill="#d8d8d8" d="M 21.5,36.5 C 23.2646,35.5386 25.2646,35.2053 27.5,35.5C 28.782,36.7082 28.782,38.0416 27.5,39.5C 25.4734,38.4867 23.4734,37.4867 21.5,36.5 Z"/></g>
<g><path style="opacity:1" fill="#f6f6f6" d="M 33.5,34.5 C 33.8016,37.0593 33.4682,39.3926 32.5,41.5C 31.8476,40.5514 31.5143,39.3847 31.5,38C 31.6083,36.3189 32.2749,35.1522 33.5,34.5 Z"/></g>
<g><path style="opacity:1" fill="#777777" d="M 33.5,34.5 C 34.8003,37.0241 34.8003,39.6908 33.5,42.5C 32.8933,42.3764 32.56,42.0431 32.5,41.5C 33.4682,39.3926 33.8016,37.0593 33.5,34.5 Z"/></g>
<g><path style="opacity:1" fill="#efefef" d="M 37.5,35.5 C 40.8333,35.5 44.1667,35.5 47.5,35.5C 47.5,39.1667 47.5,42.8333 47.5,46.5C 44.0601,45.9094 40.7268,44.9094 37.5,43.5C 36.1997,40.6908 36.1997,38.0241 37.5,35.5 Z"/></g>
<g><path style="opacity:1" fill="#a8a8a8" d="M 37.5,35.5 C 40.9619,34.5184 44.6286,34.185 48.5,34.5C 48.8168,38.7016 48.4834,42.7016 47.5,46.5C 47.5,42.8333 47.5,39.1667 47.5,35.5C 44.1667,35.5 40.8333,35.5 37.5,35.5 Z"/></g>
<g><path style="opacity:1" fill="#f4f4f4" d="M 71.5,35.5 C 72.1031,40.6186 71.4364,45.2853 69.5,49.5C 65.4659,49.4955 61.4659,49.1621 57.5,48.5C 57.5,43.8333 57.5,39.1667 57.5,34.5C 62.3633,34.1805 67.03,34.5139 71.5,35.5 Z"/></g>
<g><path style="opacity:1" fill="#444444" d="M 71.5,35.5 C 72.4872,40.3054 72.8205,45.3054 72.5,50.5C 71.209,50.7373 70.209,50.404 69.5,49.5C 71.4364,45.2853 72.1031,40.6186 71.5,35.5 Z"/></g>
<g><path style="opacity:1" fill="#fefefe" d="M 81.5,35.5 C 85.5,35.5 89.5,35.5 93.5,35.5C 93.5,39.8333 93.5,44.1667 93.5,48.5C 90.1933,49.0508 86.8599,49.3841 83.5,49.5C 81.744,48.4479 81.0773,46.7812 81.5,44.5C 81.5,41.5 81.5,38.5 81.5,35.5 Z"/></g>
<g><path style="opacity:1" fill="#a8a8a8" d="M 81.5,35.5 C 85.6344,34.5151 89.9677,34.1818 94.5,34.5C 94.8195,39.3633 94.4861,44.03 93.5,48.5C 93.5,44.1667 93.5,39.8333 93.5,35.5C 89.5,35.5 85.5,35.5 81.5,35.5 Z"/></g>
<g><path style="opacity:1" fill="#a0a0a0" d="M 112.5,35.5 C 109.5,35.5 106.5,35.5 103.5,35.5C 103.187,39.0419 103.521,42.3752 104.5,45.5C 104.44,46.0431 104.107,46.3764 103.5,46.5C 102.509,42.5546 102.176,38.5546 102.5,34.5C 106.042,34.1872 109.375,34.5206 112.5,35.5 Z"/></g>
<g><path style="opacity:1" fill="#fcfcfc" d="M 112.5,35.5 C 112.5,38.1667 112.5,40.8333 112.5,43.5C 109.673,43.5838 107.006,44.2504 104.5,45.5C 103.521,42.3752 103.187,39.0419 103.5,35.5C 106.5,35.5 109.5,35.5 112.5,35.5 Z"/></g>
<g><path style="opacity:1" fill="#c2c2c2" d="M 115.5,34.5 C 116.5,34.5 117.5,34.5 118.5,34.5C 118.5,36.8333 118.5,39.1667 118.5,41.5C 117.5,41.5 116.5,41.5 115.5,41.5C 115.5,39.1667 115.5,36.8333 115.5,34.5 Z"/></g>
<g><path style="opacity:1" fill="#e7e7e7" d="M 121.5,35.5 C 123.857,35.3367 126.19,35.5034 128.5,36C 126.254,37.0395 124.087,38.2062 122,39.5C 121.51,38.2068 121.343,36.8734 121.5,35.5 Z"/></g>
<g><path style="opacity:1" fill="#797979" d="M 81.5,44.5 C 81.0773,46.7812 81.744,48.4479 83.5,49.5C 82.791,50.404 81.791,50.7373 80.5,50.5C 80.2053,48.2646 80.5386,46.2646 81.5,44.5 Z"/></g>
</svg>
