<?xml version="1.0" encoding="UTF-8"?>
<!DOCTYPE svg PUBLIC "-//W3C//DTD SVG 1.1//EN" "http://www.w3.org/Graphics/SVG/1.1/DTD/svg11.dtd">
<svg xmlns="http://www.w3.org/2000/svg" version="1.1" width="105px" height="127px" style="shape-rendering:geometricPrecision; text-rendering:geometricPrecision; image-rendering:optimizeQuality; fill-rule:evenodd; clip-rule:evenodd" xmlns:xlink="http://www.w3.org/1999/xlink">
<g><path style="opacity:0.952" fill="#050505" d="M 23.5,-0.5 C 27.1667,-0.5 30.8333,-0.5 34.5,-0.5C 47.5125,7.49823 60.5125,7.49823 73.5,-0.5C 76.1667,-0.5 78.8333,-0.5 81.5,-0.5C 95.4474,4.12084 103.114,13.7875 104.5,28.5C 104.5,30.8333 104.5,33.1667 104.5,35.5C 103.519,39.7476 102.352,44.0809 101,48.5C 97.3969,54.7068 94.0636,61.0402 91,67.5C 91.2419,82.3293 89.9086,96.9959 87,111.5C 85.3053,117.584 82.1386,122.584 77.5,126.5C 76.1667,126.5 74.8333,126.5 73.5,126.5C 69.8174,124.17 67.3174,120.837 66,116.5C 63.6342,104.066 59.3009,92.399 53,81.5C 52.4387,80.9781 51.772,80.6448 51,80.5C 48.3084,82.5411 46.3084,85.2078 45,88.5C 41.7811,96.9273 39.4478,105.594 38,114.5C 35.1185,126.522 29.1185,128.522 20,120.5C 16.0782,114.068 13.7448,107.068 13,99.5C 12.6667,88.8333 12.3333,78.1667 12,67.5C 6.35979,58.3947 2.19313,48.7281 -0.5,38.5C -0.5,33.1667 -0.5,27.8333 -0.5,22.5C 2.90861,10.0923 10.9086,2.42559 23.5,-0.5 Z"/></g>
<g><path style="opacity:1" fill="#f9f9f9" d="M 24.5,3.5 C 27.1873,3.33591 29.854,3.50258 32.5,4C 46.0088,10.9216 59.6755,11.2549 73.5,5C 85.5316,3.93799 93.6983,9.10465 98,20.5C 100.107,29.2374 99.7737,37.904 97,46.5C 93.6667,52.5 90.3333,58.5 87,64.5C 87.5802,80.9687 85.7469,97.1354 81.5,113C 80.7221,115.39 79.5555,117.557 78,119.5C 76.4213,107.892 76.088,96.2249 77,84.5C 78.2208,72.2313 80.0542,60.0647 82.5,48C 82.5298,41.0524 79.1964,36.7191 72.5,35C 69.1667,34.3333 65.8333,34.3333 62.5,35C 59.844,36.9104 57.0107,38.4104 54,39.5C 50.0078,38.5874 46.5078,36.7541 43.5,34C 34.9475,31.862 28.7808,34.6953 25,42.5C 24.8333,44.8333 24.6667,47.1667 24.5,49.5C 25.2348,57.9067 26.4015,66.2401 28,74.5C 28.6667,79.8333 28.6667,85.1667 28,90.5C 26.3372,99.769 25.1705,109.102 24.5,118.5C 20.726,112.349 18.226,105.682 17,98.5C 16.6667,87.1667 16.3333,75.8333 16,64.5C 8.95971,54.2114 4.79305,42.8781 3.5,30.5C 4.17972,16.4966 11.1797,7.49659 24.5,3.5 Z"/></g>
<g><path style="opacity:1" fill="#ededed" d="M 71.5,109.5 C 71.8016,112.059 71.4682,114.393 70.5,116.5C 68.8305,106.826 65.9972,97.4927 62,88.5C 59.9488,83.7856 57.1155,79.6189 53.5,76C 49.3283,75.1316 46.1617,76.6316 44,80.5C 41.778,84.5007 39.9447,88.6674 38.5,93C 36.7321,102.058 34.2321,110.892 31,119.5C 30.4351,104.89 33.1017,90.8904 39,77.5C 47.9022,67.8291 56.2355,68.1624 64,78.5C 67.9152,88.494 70.4152,98.8273 71.5,109.5 Z"/></g>
<g><path style="opacity:1" fill="#676767" d="M 71.5,109.5 C 72.6378,112.304 72.8045,115.304 72,118.5C 71.2828,117.956 70.7828,117.289 70.5,116.5C 71.4682,114.393 71.8016,112.059 71.5,109.5 Z"/></g>
</svg>
