<?xml version="1.0" encoding="UTF-8"?>
<!DOCTYPE svg PUBLIC "-//W3C//DTD SVG 1.1//EN" "http://www.w3.org/Graphics/SVG/1.1/DTD/svg11.dtd">
<svg xmlns="http://www.w3.org/2000/svg" version="1.1" width="105px" height="127px" style="shape-rendering:geometricPrecision; text-rendering:geometricPrecision; image-rendering:optimizeQuality; fill-rule:evenodd; clip-rule:evenodd" xmlns:xlink="http://www.w3.org/1999/xlink">
<g><path style="opacity:0.877" fill="#090909" d="M 25.5,-0.5 C 28.5,-0.5 31.5,-0.5 34.5,-0.5C 47.9867,7.98146 61.6534,7.98146 75.5,-0.5C 76.8333,-0.5 78.1667,-0.5 79.5,-0.5C 87.6054,0.806671 94.1054,4.80667 99,11.5C 101.349,15.7415 103.182,20.0748 104.5,24.5C 104.5,29.8333 104.5,35.1667 104.5,40.5C 103.269,43.6867 102.103,47.02 101,50.5C 97.5995,55.5773 94.5995,60.9107 92,66.5C 91.9889,81.3015 90.6555,95.9682 88,110.5C 86.5806,117.026 83.4139,122.36 78.5,126.5C 76.8333,126.5 75.1667,126.5 73.5,126.5C 70.6452,124.494 68.4785,121.828 67,118.5C 64.6219,107.654 61.6219,96.9871 58,86.5C 52.7704,78.325 48.437,78.9917 45,88.5C 42.2515,99.5796 39.2515,110.58 36,121.5C 34.5945,123.744 32.7611,125.41 30.5,126.5C 29.5,126.5 28.5,126.5 27.5,126.5C 21.7744,123.094 17.9411,118.094 16,111.5C 13.01,97.6231 12.01,83.6231 13,69.5C 11.2227,63.7225 8.55603,58.3892 5,53.5C 2.6729,47.1718 0.839566,40.8384 -0.5,34.5C -0.5,32.5 -0.5,30.5 -0.5,28.5C 1.12531,12.5404 9.79198,2.87378 25.5,-0.5 Z"/></g>
<g><path style="opacity:1" fill="#fbfbfb" d="M 22.5,4.5 C 30.0501,3.54305 37.0501,5.04305 43.5,9C 54.3532,11.78 64.6865,10.4467 74.5,5C 86.8722,4.01028 95.0389,9.51028 99,21.5C 101.562,31.5291 100.562,41.1958 96,50.5C 92.4934,55.5095 89.4934,60.8428 87,66.5C 86.8699,78.8744 86.2032,91.2077 85,103.5C 84.0741,110.077 81.5741,115.911 77.5,121C 74.3386,121.203 72.1719,119.703 71,116.5C 68.7584,107.139 66.4251,97.8054 64,88.5C 62.2869,84.1266 59.7869,80.2933 56.5,77C 51.4744,75.5063 47.3077,76.6729 44,80.5C 39.319,88.5433 36.6523,97.21 36,106.5C 34.9278,111.383 33.2612,116.05 31,120.5C 29.9505,121.517 28.7839,121.684 27.5,121C 21.6285,114.74 18.4618,107.24 18,98.5C 17.6667,87.8333 17.3333,77.1667 17,66.5C 15.4443,61.7202 13.1109,57.3869 10,53.5C 6.81695,46.1256 4.98362,38.4589 4.5,30.5C 4.61211,17.7264 10.6121,9.05973 22.5,4.5 Z"/></g>
<g><path style="opacity:1" fill="#050505" d="M 24.5,25.5 C 31.9629,28.0401 39.6296,29.8734 47.5,31C 48.5704,33.7417 50.0704,36.2417 52,38.5C 52.7112,40.3668 52.2112,41.8668 50.5,43C 47.854,43.4974 45.1873,43.6641 42.5,43.5C 42.5,44.8333 42.5,46.1667 42.5,47.5C 47.2845,48.1608 51.6178,47.1608 55.5,44.5C 57.3615,45.5283 58.6948,47.0283 59.5,49C 60.448,49.4828 61.448,49.6495 62.5,49.5C 60.3718,43.9257 57.2051,38.9257 53,34.5C 52.5065,32.8659 52.3398,31.1992 52.5,29.5C 61.6057,29.8898 70.439,28.5564 79,25.5C 79.5,25.8333 80,26.1667 80.5,26.5C 76.0097,38.1393 71.0097,49.4727 65.5,60.5C 56.1067,56.5601 46.7734,56.5601 37.5,60.5C 35.6655,51.4941 32.1655,43.1607 27,35.5C 25.6476,32.2799 24.8143,28.9466 24.5,25.5 Z"/></g>
</svg>
