<?xml version="1.0" encoding="UTF-8"?>
<!DOCTYPE svg PUBLIC "-//W3C//DTD SVG 1.1//EN" "http://www.w3.org/Graphics/SVG/1.1/DTD/svg11.dtd">
<svg xmlns="http://www.w3.org/2000/svg" version="1.1" width="105px" height="127px" style="shape-rendering:geometricPrecision; text-rendering:geometricPrecision; image-rendering:optimizeQuality; fill-rule:evenodd; clip-rule:evenodd" xmlns:xlink="http://www.w3.org/1999/xlink">
<g><path style="opacity:0.882" fill="#090909" d="M 23.5,-0.5 C 27.5,-0.5 31.5,-0.5 35.5,-0.5C 44.7104,5.48542 54.7104,6.98542 65.5,4C 68.6844,3.24579 71.3511,1.74579 73.5,-0.5C 76.1667,-0.5 78.8333,-0.5 81.5,-0.5C 94.3595,3.02718 102.026,11.3605 104.5,24.5C 104.5,29.5 104.5,34.5 104.5,39.5C 101.473,48.8946 97.3068,57.8946 92,66.5C 91.8879,81.2936 90.5546,95.9602 88,110.5C 86.2359,117.074 82.7359,122.408 77.5,126.5C 76.5,126.5 75.5,126.5 74.5,126.5C 70.4463,123.927 67.613,120.26 66,115.5C 64.3695,103.976 61.0361,92.9764 56,82.5C 51.5461,79.3304 48.2127,80.3304 46,85.5C 42.6504,97.9396 38.9837,110.273 35,122.5C 32.7897,125.29 29.9563,126.123 26.5,125C 19.1137,119.403 14.947,111.903 14,102.5C 12.5231,91.1731 12.1898,79.8398 13,68.5C 10,62.5 7,56.5 4,50.5C 2.16036,45.1258 0.660356,39.7925 -0.5,34.5C -0.5,32.1667 -0.5,29.8333 -0.5,27.5C 1.39282,12.94 9.39282,3.60663 23.5,-0.5 Z"/></g>
<g><path style="opacity:1" fill="#fcfcfc" d="M 25.5,3.5 C 28.1873,3.33591 30.854,3.50258 33.5,4C 46.9821,10.9521 60.6488,11.2854 74.5,5C 88.9752,4.79173 97.4752,11.9584 100,26.5C 101.034,33.7969 100.034,40.7969 97,47.5C 93.4118,53.6754 90.0785,60.0087 87,66.5C 86.8085,78.5323 86.1418,90.5323 85,102.5C 84.0568,109.337 81.5568,115.503 77.5,121C 73.937,121.123 71.7703,119.29 71,115.5C 69.0299,103.282 65.3632,91.6153 60,80.5C 53.9137,73.6551 48.2471,73.9884 43,81.5C 38.8752,94.4537 34.8752,107.454 31,120.5C 29.4931,121.535 27.9931,121.368 26.5,120C 21.472,113.74 18.6387,106.573 18,98.5C 17.6667,87.5 17.3333,76.5 17,65.5C 9.65844,54.8099 5.49178,42.9766 4.5,30C 4.66898,15.6722 11.669,6.8389 25.5,3.5 Z"/></g>
<g><path style="opacity:1" fill="#121212" d="M 82.5,13.5 C 88.6311,13.6584 92.7978,16.6584 95,22.5C 95.498,25.4816 95.6646,28.4816 95.5,31.5C 94.1667,31.5 92.8333,31.5 91.5,31.5C 92.7603,24.3516 90.0936,19.3516 83.5,16.5C 82.8728,15.5832 82.5394,14.5832 82.5,13.5 Z"/></g>
<g><path style="opacity:1" fill="#0b0b0b" d="M 27.5,16.5 C 30.1644,20.0688 33.4977,23.0688 37.5,25.5C 33.5248,27.6418 30.3581,30.6418 28,34.5C 26.1667,30 23,26.8333 18.5,25C 22.6791,23.3186 25.6791,20.4853 27.5,16.5 Z"/></g>
<g><path style="opacity:1" fill="#1e1e1e" d="M 35.5,34.5 C 40.3862,35.8568 40.5529,37.5234 36,39.5C 33.1143,37.8298 32.9476,36.1631 35.5,34.5 Z"/></g>
<g><path style="opacity:1" fill="#121212" d="M 22.5,39.5 C 25.9679,41.0438 26.1346,42.7104 23,44.5C 22.0975,43.2986 20.9308,42.4652 19.5,42C 20.9423,41.6232 21.9423,40.7899 22.5,39.5 Z"/></g>
</svg>
