<?xml version="1.0" encoding="UTF-8"?>
<!DOCTYPE svg PUBLIC "-//W3C//DTD SVG 1.1//EN" "http://www.w3.org/Graphics/SVG/1.1/DTD/svg11.dtd">
<svg xmlns="http://www.w3.org/2000/svg" version="1.1" width="133px" height="143px" style="shape-rendering:geometricPrecision; text-rendering:geometricPrecision; image-rendering:optimizeQuality; fill-rule:evenodd; clip-rule:evenodd" xmlns:xlink="http://www.w3.org/1999/xlink">
<g><path style="opacity:0.876" fill="#090909" d="M 63.5,-0.5 C 64.8333,-0.5 66.1667,-0.5 67.5,-0.5C 88.5349,4.23767 108.202,12.4043 126.5,24C 128.734,26.0627 130.734,28.2294 132.5,30.5C 132.5,34.5 132.5,38.5 132.5,42.5C 132.231,69.2358 124.397,93.5692 109,115.5C 97.9536,128.422 84.4536,137.422 68.5,142.5C 66.8333,142.5 65.1667,142.5 63.5,142.5C 32.0195,131.178 12.1862,109.178 4,76.5C 2.26248,68.0637 0.762483,59.7304 -0.5,51.5C -0.5,44.5 -0.5,37.5 -0.5,30.5C 8.35771,21.7172 18.691,14.8838 30.5,10C 41.2658,5.35404 52.2658,1.85404 63.5,-0.5 Z"/></g>
<g><path style="opacity:1" fill="#f9f9f9" d="M 59.5,4.5 C 84.4454,6.97909 106.945,15.6458 127,30.5C 129.672,61.4646 122.005,89.4646 104,114.5C 94.0499,126.389 81.5499,134.055 66.5,137.5C 40.1759,129.346 22.0093,112.346 12,86.5C 5.3357,68.3546 3.16903,49.6879 5.5,30.5C 21.7198,18.0562 39.7198,9.38953 59.5,4.5 Z"/></g>
<g><path style="opacity:1" fill="#121212" d="M 40.5,20.5 C 44.8461,20.3343 49.1794,20.501 53.5,21C 62.8123,26.8744 72.1457,26.8744 81.5,21C 94.5213,19.5375 102.855,25.0375 106.5,37.5C 107.833,37.5 109.167,37.5 110.5,37.5C 110.5,39.1667 110.5,40.8333 110.5,42.5C 111.833,42.5 113.167,42.5 114.5,42.5C 114.5,45.1667 114.5,47.8333 114.5,50.5C 113.167,50.5 111.833,50.5 110.5,50.5C 110.5,51.8333 110.5,53.1667 110.5,54.5C 109.022,54.238 107.689,54.5713 106.5,55.5C 103.861,62.1122 100.694,68.4455 97,74.5C 96.6667,83.5 96.3333,92.5 96,101.5C 94.9941,107.518 92.9941,113.184 90,118.5C 85.9386,122.737 82.272,122.403 79,117.5C 75.8765,108.639 73.2098,99.639 71,90.5C 67.3333,82.5 63.6667,82.5 60,90.5C 57.8821,100.011 55.2155,109.345 52,118.5C 48.1174,122.463 44.4507,122.13 41,117.5C 37.6272,112.355 35.6272,106.689 35,100.5C 34.6667,91.5 34.3333,82.5 34,73.5C 25.9688,62.0412 22.9688,49.3746 25,35.5C 28.1058,28.2253 33.2724,23.2253 40.5,20.5 Z"/></g>
<g><path style="opacity:1" fill="#fcfcfc" d="M 42.5,24.5 C 48.5629,23.8377 54.2296,25.0044 59.5,28C 67.8389,29.3151 75.8389,28.3151 83.5,25C 95.4363,24.105 101.436,29.605 101.5,41.5C 100.167,41.5 98.8333,41.5 97.5,41.5C 97.5,44.5 97.5,47.5 97.5,50.5C 98.8333,50.5 100.167,50.5 101.5,50.5C 101.357,52.2624 101.691,53.9291 102.5,55.5C 99.9213,60.9918 97.088,66.3252 94,71.5C 93.6828,80.8601 93.0162,90.1934 92,99.5C 91.2592,105.132 89.5926,110.465 87,115.5C 86.3109,116.357 85.4776,117.023 84.5,117.5C 82.8539,116.221 81.6872,114.555 81,112.5C 79.212,103.216 76.5453,94.2162 73,85.5C 67.9646,78.9558 62.9646,78.9558 58,85.5C 54.8316,94.6659 52.1649,103.999 50,113.5C 47.8724,117.376 45.5391,117.376 43,113.5C 41.8035,110.911 40.8035,108.244 40,105.5C 38.8161,94.5419 38.1495,83.5419 38,72.5C 30.2825,61.6806 27.2825,49.6806 29,36.5C 31.8657,30.457 36.3657,26.457 42.5,24.5 Z"/></g>
<g><path style="opacity:1" fill="#ebebeb" d="M 103.5,39.5 C 105.167,39.5 106.833,39.5 108.5,39.5C 108.5,40.8333 108.5,42.1667 108.5,43.5C 109.833,43.5 111.167,43.5 112.5,43.5C 112.5,45.1667 112.5,46.8333 112.5,48.5C 111.167,48.5 109.833,48.5 108.5,48.5C 108.5,49.8333 108.5,51.1667 108.5,52.5C 106.833,52.5 105.167,52.5 103.5,52.5C 103.5,51.1667 103.5,49.8333 103.5,48.5C 102.167,48.5 100.833,48.5 99.5,48.5C 99.5,46.8333 99.5,45.1667 99.5,43.5C 100.833,43.5 102.167,43.5 103.5,43.5C 103.5,42.1667 103.5,40.8333 103.5,39.5 Z"/></g>
</svg>
