<?xml version="1.0" encoding="UTF-8"?>
<!DOCTYPE svg PUBLIC "-//W3C//DTD SVG 1.1//EN" "http://www.w3.org/Graphics/SVG/1.1/DTD/svg11.dtd">
<svg xmlns="http://www.w3.org/2000/svg" version="1.1" width="127px" height="126px" style="shape-rendering:geometricPrecision; text-rendering:geometricPrecision; image-rendering:optimizeQuality; fill-rule:evenodd; clip-rule:evenodd" xmlns:xlink="http://www.w3.org/1999/xlink">
<g><path style="opacity:0.812" fill="#000000" d="M 51.5,-0.5 C 58.1667,-0.5 64.8333,-0.5 71.5,-0.5C 87.497,0.204819 102.83,4.03815 117.5,11C 123.472,14.1319 126.472,18.9653 126.5,25.5C 126.5,27.8333 126.5,30.1667 126.5,32.5C 125.672,37.3572 124.838,42.3572 124,47.5C 122.644,48.3802 121.144,48.7135 119.5,48.5C 120.673,56.1029 117.673,60.9362 110.5,63C 107.183,63.4983 103.85,63.665 100.5,63.5C 100.963,69.1811 101.63,74.8477 102.5,80.5C 103.086,80.7093 103.586,81.0426 104,81.5C 104.5,96.1629 104.667,110.83 104.5,125.5C 99.8333,125.5 95.1667,125.5 90.5,125.5C 90.7282,113.822 90.8949,102.155 91,90.5C 90.0975,89.2986 88.9308,88.4652 87.5,88C 83.8333,87.6667 80.1667,87.3333 76.5,87C 73.8976,86.1166 71.7309,84.6166 70,82.5C 68.5299,76.96 68.0299,71.46 68.5,66C 66.4127,65.2078 64.5793,64.0412 63,62.5C 52.8863,69.4208 43.0529,69.0875 33.5,61.5C 26.5882,63.9551 19.5882,64.4551 12.5,63C 7.8696,59.3668 5.8696,54.5335 6.5,48.5C 4.83333,48.5 3.16667,48.5 1.5,48.5C 1.28256,40.9797 0.615891,33.6464 -0.5,26.5C -0.5,25.1667 -0.5,23.8333 -0.5,22.5C 1.8858,15.2846 6.8858,10.4513 14.5,8C 26.5947,3.5514 38.928,0.718062 51.5,-0.5 Z M 49.5,4.5 C 63.2456,4.09642 76.9122,4.92975 90.5,7C 100.733,8.51921 110.066,12.1859 118.5,18C 119.893,19.1711 120.727,20.6711 121,22.5C 121.907,29.7297 121.24,36.7297 119,43.5C 116.564,30.0047 109.064,25.5047 96.5,30C 93.8941,31.9384 92.0608,34.4384 91,37.5C 85.1647,27.0042 76.9981,24.8376 66.5,31C 64.6411,32.5578 63.1411,34.3911 62,36.5C 56.8728,27.5171 49.7062,25.3504 40.5,30C 38.2911,31.8734 36.4578,34.04 35,36.5C 27.7326,25.5719 19.7326,24.9052 11,34.5C 9.4725,37.4167 8.13917,40.4167 7,43.5C 5.34234,36.2765 4.67567,28.9432 5,21.5C 9.73095,15.5416 15.8976,11.7083 23.5,10C 32.1879,7.61347 40.8545,5.78014 49.5,4.5 Z M 20.5,32.5 C 26.5896,33.0811 30.423,36.4145 32,42.5C 32.5883,47.5276 32.4216,52.5276 31.5,57.5C 12.1952,62.6044 6.69524,55.9377 15,37.5C 16.7297,35.5981 18.563,33.9314 20.5,32.5 Z M 46.5,32.5 C 50.4257,32.0466 53.5923,33.3799 56,36.5C 60.2371,43.3451 61.4037,50.6784 59.5,58.5C 51.7718,63.9936 44.2718,63.6602 37,57.5C 36.4613,50.1418 37.7947,43.1418 41,36.5C 42.8121,35.0229 44.6455,33.6896 46.5,32.5 Z M 73.5,32.5 C 77.4006,31.8571 80.734,32.8571 83.5,35.5C 86.5763,39.3148 88.243,43.6481 88.5,48.5C 78.6495,47.5088 72.4828,51.8421 70,61.5C 68.4878,60.7433 67.1545,59.7433 66,58.5C 64.8737,50.9546 65.5404,43.6212 68,36.5C 69.8121,35.0229 71.6455,33.6896 73.5,32.5 Z M 102.5,32.5 C 107.84,32.665 111.34,35.3317 113,40.5C 118.798,54.6811 114.298,60.5144 99.5,58C 98.2774,55.056 96.4441,52.556 94,50.5C 94.3364,45.7794 95.3364,41.1127 97,36.5C 98.8121,35.0229 100.645,33.6896 102.5,32.5 Z M 81.5,53.5 C 84.5184,53.3354 87.5184,53.502 90.5,54C 91.3333,54.8333 92.1667,55.6667 93,56.5C 95.2491,62.9924 96.7491,69.6591 97.5,76.5C 97.0004,77.8805 96.0004,78.5472 94.5,78.5C 88.5623,76.6788 82.5623,75.5121 76.5,75C 79.9895,77.9113 83.6562,80.578 87.5,83C 83.3042,83.6191 79.3042,82.9525 75.5,81C 74.0423,78.9233 73.3757,76.59 73.5,74C 74.0272,68.3641 75.1938,62.8641 77,57.5C 78.3968,55.9297 79.8968,54.5964 81.5,53.5 Z M 90.5,81.5 C 91.4971,80.2875 92.4971,80.4542 93.5,82C 92.4232,82.4696 91.4232,82.3029 90.5,81.5 Z M 99.5,83.5 C 101.481,96.1237 102.148,109.124 101.5,122.5C 100.167,122.5 98.8333,122.5 97.5,122.5C 97.3335,110.162 97.5001,97.8288 98,85.5C 98.7172,84.9558 99.2172,84.2891 99.5,83.5 Z M 92.5,88.5 C 92.56,87.9569 92.8933,87.6236 93.5,87.5C 94.6659,99.1524 94.8325,110.819 94,122.5C 93.8306,110.993 93.3306,99.6593 92.5,88.5 Z"/></g>
<g><path style="opacity:0.725" fill="#000000" d="M 104.5,39.5 C 106.606,39.679 108.272,40.679 109.5,42.5C 108.147,43.5237 107.48,44.857 107.5,46.5C 106.5,46.5 105.5,46.5 104.5,46.5C 104.52,44.857 103.853,43.5237 102.5,42.5C 103.612,41.7348 104.279,40.7348 104.5,39.5 Z"/></g>
<g><path style="opacity:0.725" fill="#000000" d="M 83.5,58.5 C 84.5,58.5 85.5,58.5 86.5,58.5C 86.4802,60.143 87.1468,61.4763 88.5,62.5C 86.1667,66.5 83.8333,66.5 81.5,62.5C 82.8532,61.4763 83.5198,60.143 83.5,58.5 Z"/></g>
<g><path style="opacity:0.638" fill="#000000" d="M 58.5,70.5 C 64.1004,71.9433 64.6004,74.2766 60,77.5C 58.5,76.6667 57.3333,75.5 56.5,74C 57.4295,72.9231 58.0962,71.7564 58.5,70.5 Z"/></g>
<g><path style="opacity:0.673" fill="#000000" d="M 66.5,93.5 C 67.5,93.5 68.5,93.5 69.5,93.5C 69.4802,95.143 70.1468,96.4763 71.5,97.5C 70.1468,98.5237 69.4802,99.857 69.5,101.5C 68.5,101.5 67.5,101.5 66.5,101.5C 66.5198,99.857 65.8532,98.5237 64.5,97.5C 65.8532,96.4763 66.5198,95.143 66.5,93.5 Z"/></g>
</svg>
