<?xml version="1.0" encoding="UTF-8"?>
<!DOCTYPE svg PUBLIC "-//W3C//DTD SVG 1.1//EN" "http://www.w3.org/Graphics/SVG/1.1/DTD/svg11.dtd">
<svg xmlns="http://www.w3.org/2000/svg" version="1.1" width="102px" height="105px" style="shape-rendering:geometricPrecision; text-rendering:geometricPrecision; image-rendering:optimizeQuality; fill-rule:evenodd; clip-rule:evenodd" xmlns:xlink="http://www.w3.org/1999/xlink">
<g><path style="opacity:0.97" fill="#eaeaea" d="M 47.5,12.5 C 45.5356,29.5958 44.8689,46.9292 45.5,64.5C 42.4087,66.5526 40.9087,69.5526 41,73.5C 39.8686,82.1237 39.202,90.7904 39,99.5C 37.975,101.687 36.475,103.354 34.5,104.5C 33.5,104.5 32.5,104.5 31.5,104.5C 26.8782,102.594 23.0449,99.5943 20,95.5C 15.736,84.3744 12.0694,73.041 9,61.5C 5.76141,54.3691 2.59474,47.3691 -0.5,40.5C -0.5,37.1667 -0.5,33.8333 -0.5,30.5C 5.5326,12.8108 17.8659,5.31082 36.5,8C 39.7197,10.7508 43.3863,12.2508 47.5,12.5 Z"/></g>
<g><path style="opacity:1" fill="#e7e7e7" d="M 84.5,17.5 C 82.877,20.2153 82.2104,23.2153 82.5,26.5C 80.8333,26.5 79.1667,26.5 77.5,26.5C 77.5,42.8333 77.5,59.1667 77.5,75.5C 76.3882,77.5994 75.7215,79.9327 75.5,82.5C 72.9873,83.2257 72.3207,84.5591 73.5,86.5C 72.1459,95.1757 67.4792,101.176 59.5,104.5C 58.5,104.5 57.5,104.5 56.5,104.5C 53.2798,103.453 51.4465,101.119 51,97.5C 51.0427,87.3772 50.0427,77.3772 48,67.5C 47.3021,66.3094 46.4687,65.3094 45.5,64.5C 44.8689,46.9292 45.5356,29.5958 47.5,12.5C 56.5963,5.05701 66.263,4.55701 76.5,11C 79.3307,13.0007 81.9974,15.1673 84.5,17.5 Z"/></g>
<g><path style="opacity:1" fill="#3c4961" d="M 86.5,-0.5 C 86.8333,-0.5 87.1667,-0.5 87.5,-0.5C 88.2932,5.75314 88.7932,12.0865 89,18.5C 91.2031,20.6688 92.0365,23.3354 91.5,26.5C 88.5,26.5 85.5,26.5 82.5,26.5C 82.2104,23.2153 82.877,20.2153 84.5,17.5C 84.334,12.1563 84.5006,6.82294 85,1.5C 85.7172,0.955796 86.2172,0.28913 86.5,-0.5 Z"/></g>
<g><path style="opacity:1" fill="#fdfefe" d="M 18.5,22.5 C 27.3058,22.464 29.6391,26.2974 25.5,34C 19.5566,36.9111 15.8899,35.0778 14.5,28.5C 15.3469,26.1291 16.6802,24.1291 18.5,22.5 Z"/></g>
<g><path style="opacity:0.988" fill="#6fb5f4" d="M 82.5,26.5 C 83.5676,27.4345 84.901,27.7678 86.5,27.5C 86.5,45.8333 86.5,64.1667 86.5,82.5C 83.5,82.5 80.5,82.5 77.5,82.5C 77.5,80.1667 77.5,77.8333 77.5,75.5C 77.5,59.1667 77.5,42.8333 77.5,26.5C 79.1667,26.5 80.8333,26.5 82.5,26.5 Z"/></g>
<g><path style="opacity:1" fill="#6a9dd1" d="M 82.5,26.5 C 85.5,26.5 88.5,26.5 91.5,26.5C 92.8333,26.5 94.1667,26.5 95.5,26.5C 95.5,45.1667 95.5,63.8333 95.5,82.5C 89.5,83.8333 83.5,83.8333 77.5,82.5C 80.5,82.5 83.5,82.5 86.5,82.5C 86.5,64.1667 86.5,45.8333 86.5,27.5C 84.901,27.7678 83.5676,27.4345 82.5,26.5 Z"/></g>
<g><path style="opacity:1" fill="#bad1ea" d="M 88.5,31.5 C 90.5,31.5 92.5,31.5 94.5,31.5C 94.5,32.8333 94.5,34.1667 94.5,35.5C 92.5,35.5 90.5,35.5 88.5,35.5C 88.5,34.1667 88.5,32.8333 88.5,31.5 Z"/></g>
<g><path style="opacity:1" fill="#fdfffe" d="M 89.5,32.5 C 90.9778,32.238 92.3112,32.5713 93.5,33.5C 92.8333,33.8333 92.1667,34.1667 91.5,34.5C 90.2867,34.2528 89.62,33.5862 89.5,32.5 Z"/></g>
<g><path style="opacity:1" fill="#f4f8fc" d="M 90.5,39.5 C 91.5,39.5 92.5,39.5 93.5,39.5C 93.5,40.5 93.5,41.5 93.5,42.5C 92.5,42.5 91.5,42.5 90.5,42.5C 90.5,41.5 90.5,40.5 90.5,39.5 Z"/></g>
<g><path style="opacity:1" fill="#bad1ea" d="M 88.5,46.5 C 90.5,46.5 92.5,46.5 94.5,46.5C 94.5,47.8333 94.5,49.1667 94.5,50.5C 92.5,50.5 90.5,50.5 88.5,50.5C 88.5,49.1667 88.5,47.8333 88.5,46.5 Z"/></g>
<g><path style="opacity:1" fill="#fdfffe" d="M 89.5,47.5 C 90.9778,47.238 92.3112,47.5713 93.5,48.5C 92.8333,48.8333 92.1667,49.1667 91.5,49.5C 90.2867,49.2528 89.62,48.5862 89.5,47.5 Z"/></g>
<g><path style="opacity:1" fill="#f4f8fc" d="M 90.5,54.5 C 91.5,54.5 92.5,54.5 93.5,54.5C 93.5,55.5 93.5,56.5 93.5,57.5C 92.5,57.5 91.5,57.5 90.5,57.5C 90.5,56.5 90.5,55.5 90.5,54.5 Z"/></g>
<g><path style="opacity:1" fill="#bad1ea" d="M 88.5,61.5 C 90.5,61.5 92.5,61.5 94.5,61.5C 94.5,62.8333 94.5,64.1667 94.5,65.5C 92.5,65.5 90.5,65.5 88.5,65.5C 88.5,64.1667 88.5,62.8333 88.5,61.5 Z"/></g>
<g><path style="opacity:1" fill="#fdfffe" d="M 89.5,62.5 C 90.9778,62.238 92.3112,62.5713 93.5,63.5C 92.8333,63.8333 92.1667,64.1667 91.5,64.5C 90.2867,64.2528 89.62,63.5862 89.5,62.5 Z"/></g>
<g><path style="opacity:1" fill="#d1e1f1" d="M 90.5,68.5 C 91.8333,68.5 93.1667,68.5 94.5,68.5C 94.5,69.8333 94.5,71.1667 94.5,72.5C 93.1667,72.5 91.8333,72.5 90.5,72.5C 90.5,71.1667 90.5,69.8333 90.5,68.5 Z"/></g>
<g><path style="opacity:1" fill="#f7fafd" d="M 88.5,76.5 C 90.1667,76.5 91.8333,76.5 93.5,76.5C 93.5,77.5 93.5,78.5 93.5,79.5C 91.8333,79.5 90.1667,79.5 88.5,79.5C 88.5,78.5 88.5,77.5 88.5,76.5 Z"/></g>
<g><path style="opacity:1" fill="#3b4860" d="M 75.5,82.5 C 76.1667,82.5 76.8333,82.5 77.5,82.5C 83.5,83.8333 89.5,83.8333 95.5,82.5C 97.6208,82.3253 99.6208,82.6586 101.5,83.5C 101.5,84.5 101.5,85.5 101.5,86.5C 97.8333,86.5 94.1667,86.5 90.5,86.5C 90.5,90.5 90.5,94.5 90.5,98.5C 92.8568,98.3367 95.1902,98.5034 97.5,99C 98.4506,99.7175 98.6172,100.551 98,101.5C 94.4168,102.149 90.7501,102.483 87,102.5C 82.9863,102.634 79.1529,102.134 75.5,101C 77.6688,98.7969 80.3354,97.9635 83.5,98.5C 83.5,94.5 83.5,90.5 83.5,86.5C 80.1667,86.5 76.8333,86.5 73.5,86.5C 72.3207,84.5591 72.9873,83.2257 75.5,82.5 Z"/></g>
</svg>
