<?xml version="1.0" encoding="UTF-8"?>
<!DOCTYPE svg PUBLIC "-//W3C//DTD SVG 1.1//EN" "http://www.w3.org/Graphics/SVG/1.1/DTD/svg11.dtd">
<svg xmlns="http://www.w3.org/2000/svg" version="1.1" width="106px" height="101px" style="shape-rendering:geometricPrecision; text-rendering:geometricPrecision; image-rendering:optimizeQuality; fill-rule:evenodd; clip-rule:evenodd" xmlns:xlink="http://www.w3.org/1999/xlink">
<g><path style="opacity:0.969" fill="#eaeaea" d="M 29.5,-0.5 C 32.8333,-0.5 36.1667,-0.5 39.5,-0.5C 43.5543,2.87745 48.221,4.87745 53.5,5.5C 51.5751,13.8993 50.9085,22.566 51.5,31.5C 45.7905,30.8672 43.7905,33.2005 45.5,38.5C 47.396,39.4656 49.396,39.7989 51.5,39.5C 51.5,42.1667 51.5,44.8333 51.5,47.5C 47.3181,45.6654 44.6515,46.9988 43.5,51.5C 44.4691,54.9869 46.8024,56.3202 50.5,55.5C 51.4345,56.5676 51.7678,57.901 51.5,59.5C 48.8318,60.4567 47.3318,62.4567 47,65.5C 45.0963,73.617 44.5963,81.7837 45.5,90C 45.3885,94.3611 43.7218,97.8611 40.5,100.5C 38.8333,100.5 37.1667,100.5 35.5,100.5C 31.9915,98.8093 28.8249,96.476 26,93.5C 21.3937,83.514 17.8937,73.1806 15.5,62.5C 15.56,61.9569 15.8933,61.6236 16.5,61.5C 18.3733,63.721 20.7067,65.0543 23.5,65.5C 26.3329,64.8437 28.8329,63.5104 31,61.5C 32.7748,62.2703 34.2748,63.437 35.5,65C 36.7932,65.49 38.1266,65.6567 39.5,65.5C 39.719,64.325 39.3857,63.325 38.5,62.5C 36.4835,61.8257 34.8168,60.6591 33.5,59C 29.4971,58.1646 26.1637,59.3312 23.5,62.5C 20.8379,59.5027 17.5046,58.1694 13.5,58.5C 13.7373,57.209 13.404,56.209 12.5,55.5C 12.7598,53.405 13.9264,52.0717 16,51.5C 18.1042,53.279 20.4376,54.6123 23,55.5C 26.0884,54.9558 28.755,53.6225 31,51.5C 33,52.8333 35,54.1667 37,55.5C 38.2798,55.3865 39.1131,54.7199 39.5,53.5C 34.3897,47.4167 29.0564,47.0834 23.5,52.5C 19.7563,48.0428 15.423,47.3761 10.5,50.5C 10.1075,48.7162 9.4408,47.0495 8.5,45.5C 11.3526,44.8108 13.8526,43.4775 16,41.5C 18.245,43.6225 20.9116,44.9558 24,45.5C 26.5624,44.6123 28.8958,43.279 31,41.5C 32.7748,42.2703 34.2748,43.437 35.5,45C 36.7932,45.49 38.1266,45.6567 39.5,45.5C 35.9051,37.834 30.5718,36.5007 23.5,41.5C 21.2937,39.8006 18.7937,38.8006 16,38.5C 13.2063,38.8006 10.7063,39.8006 8.5,41.5C 6.55668,41.2133 5.22335,40.2133 4.5,38.5C 1.51021,18.13 9.84354,5.12996 29.5,-0.5 Z"/></g>
<g><path style="opacity:1" fill="#e6e6e6" d="M 62.5,-0.5 C 65.8333,-0.5 69.1667,-0.5 72.5,-0.5C 78.5438,1.68971 84.2104,4.68971 89.5,8.5C 89.6309,9.37644 89.2975,10.0431 88.5,10.5C 83.5,5.16667 78.5,5.16667 73.5,10.5C 71.72,8.55622 69.5533,7.22289 67,6.5C 65.9412,6.63008 65.1079,7.13008 64.5,8C 67.1594,10.5137 70.1594,12.347 73.5,13.5C 76.3329,12.8437 78.8329,11.5104 81,9.5C 82.7748,10.2703 84.2748,11.437 85.5,13C 87.8848,13.5564 90.2181,13.3897 92.5,12.5C 93.6005,13.6049 94.2671,14.9382 94.5,16.5C 92.2459,17.4151 90.2459,18.7484 88.5,20.5C 86.4956,18.2477 83.9956,16.9143 81,16.5C 78.4376,17.3877 76.1042,18.721 74,20.5C 71.9243,18.7669 69.5909,17.4335 67,16.5C 65.9412,16.6301 65.1079,17.1301 64.5,18C 67.1594,20.5137 70.1594,22.347 73.5,23.5C 76.3329,22.8437 78.8329,21.5104 81,19.5C 83.1671,21.5104 85.6671,22.8437 88.5,23.5C 91.2933,23.0543 93.6267,21.721 95.5,19.5C 96.1067,19.6236 96.44,19.9569 96.5,20.5C 96.5,21.1667 96.8333,21.5 97.5,21.5C 98.9943,26.8753 98.8276,32.2087 97,37.5C 89.414,51.3404 84.0807,66.0071 81,81.5C 78.8556,90.1138 74.0223,96.4471 66.5,100.5C 64.8333,100.5 63.1667,100.5 61.5,100.5C 59.3041,99.1459 57.8041,97.1459 57,94.5C 57.1756,83.4968 56.009,72.6634 53.5,62C 52.9444,60.9889 52.2778,60.1556 51.5,59.5C 51.7678,57.901 51.4345,56.5676 50.5,55.5C 52.5516,53.0242 52.8849,50.3576 51.5,47.5C 51.5,44.8333 51.5,42.1667 51.5,39.5C 52.8333,36.8333 52.8333,34.1667 51.5,31.5C 50.9085,22.566 51.5751,13.8993 53.5,5.5C 56.328,3.25192 59.328,1.25192 62.5,-0.5 Z"/></g>
<g><path style="opacity:0.872" fill="#f9e483" d="M 105.5,11.5 C 105.5,11.8333 105.5,12.1667 105.5,12.5C 103.598,13.5109 101.598,13.6776 99.5,13C 97.3262,9.87892 94.9928,9.71225 92.5,12.5C 90.2181,13.3897 87.8848,13.5564 85.5,13C 84.2748,11.437 82.7748,10.2703 81,9.5C 78.8329,11.5104 76.3329,12.8437 73.5,13.5C 70.1594,12.347 67.1594,10.5137 64.5,8C 65.1079,7.13008 65.9412,6.63008 67,6.5C 69.5533,7.22289 71.72,8.55622 73.5,10.5C 78.5,5.16667 83.5,5.16667 88.5,10.5C 89.2975,10.0431 89.6309,9.37644 89.5,8.5C 91.5806,7.3773 93.7473,6.3773 96,5.5C 99.3074,7.31338 102.474,9.31338 105.5,11.5 Z"/></g>
<g><path style="opacity:1" fill="#fdfefe" d="M 24.5,15.5 C 32.8961,17.1166 34.5628,21.2832 29.5,28C 22.1699,29.6662 19.0032,26.8329 20,19.5C 21.3968,17.9297 22.8968,16.5964 24.5,15.5 Z"/></g>
<g><path style="opacity:0.921" fill="#f9e484" d="M 94.5,16.5 C 96.1992,16.3398 97.8659,16.5065 99.5,17C 101.351,18.7524 103.351,20.2524 105.5,21.5C 105.5,21.8333 105.5,22.1667 105.5,22.5C 102.701,24.8184 100.034,24.4851 97.5,21.5C 96.8333,21.5 96.5,21.1667 96.5,20.5C 96.44,19.9569 96.1067,19.6236 95.5,19.5C 93.6267,21.721 91.2933,23.0543 88.5,23.5C 85.6671,22.8437 83.1671,21.5104 81,19.5C 78.8329,21.5104 76.3329,22.8437 73.5,23.5C 70.1594,22.347 67.1594,20.5137 64.5,18C 65.1079,17.1301 65.9412,16.6301 67,16.5C 69.5909,17.4335 71.9243,18.7669 74,20.5C 76.1042,18.721 78.4376,17.3877 81,16.5C 83.9956,16.9143 86.4956,18.2477 88.5,20.5C 90.2459,18.7484 92.2459,17.4151 94.5,16.5 Z"/></g>
<g><path style="opacity:1" fill="#3e4a62" d="M 51.5,31.5 C 52.8333,34.1667 52.8333,36.8333 51.5,39.5C 49.396,39.7989 47.396,39.4656 45.5,38.5C 43.7905,33.2005 45.7905,30.8672 51.5,31.5 Z"/></g>
<g><path style="opacity:0.934" fill="#f9e487" d="M 4.5,38.5 C 5.22335,40.2133 6.55668,41.2133 8.5,41.5C 10.7063,39.8006 13.2063,38.8006 16,38.5C 18.7937,38.8006 21.2937,39.8006 23.5,41.5C 30.5718,36.5007 35.9051,37.834 39.5,45.5C 38.1266,45.6567 36.7932,45.49 35.5,45C 34.2748,43.437 32.7748,42.2703 31,41.5C 28.8958,43.279 26.5624,44.6123 24,45.5C 20.9116,44.9558 18.245,43.6225 16,41.5C 13.8526,43.4775 11.3526,44.8108 8.5,45.5C 7.44802,45.6495 6.44802,45.4828 5.5,45C 3.90525,42.8981 1.90525,41.3981 -0.5,40.5C -0.5,39.8333 -0.5,39.1667 -0.5,38.5C 1.16667,37.1667 2.83333,37.1667 4.5,38.5 Z"/></g>
<g><path style="opacity:1" fill="#404c64" d="M 57.5,44.5 C 64.1584,43.3445 66.1584,45.8445 63.5,52C 57.2583,52.9235 55.2583,50.4235 57.5,44.5 Z"/></g>
<g><path style="opacity:0.899" fill="#f9e484" d="M 10.5,50.5 C 15.423,47.3761 19.7563,48.0428 23.5,52.5C 29.0564,47.0834 34.3897,47.4167 39.5,53.5C 39.1131,54.7199 38.2798,55.3865 37,55.5C 35,54.1667 33,52.8333 31,51.5C 28.755,53.6225 26.0884,54.9558 23,55.5C 20.4376,54.6123 18.1042,53.279 16,51.5C 13.9264,52.0717 12.7598,53.405 12.5,55.5C 10.1432,55.6633 7.80982,55.4966 5.5,55C 3.93662,53.0527 1.93662,51.886 -0.5,51.5C -0.5,50.5 -0.5,49.5 -0.5,48.5C 2.56177,47.5728 5.22844,48.4061 7.5,51C 8.74943,51.7401 9.74943,51.5735 10.5,50.5 Z"/></g>
<g><path style="opacity:1" fill="#434f66" d="M 51.5,47.5 C 52.8849,50.3576 52.5516,53.0242 50.5,55.5C 46.8024,56.3202 44.4691,54.9869 43.5,51.5C 44.6515,46.9988 47.3181,45.6654 51.5,47.5 Z"/></g>
<g><path style="opacity:0.864" fill="#f9e483" d="M -0.5,58.5 C 3.09194,58.2157 6.2586,59.2157 9,61.5C 10.6434,60.6854 12.1434,59.6854 13.5,58.5C 17.5046,58.1694 20.8379,59.5027 23.5,62.5C 26.1637,59.3312 29.4971,58.1646 33.5,59C 34.8168,60.6591 36.4835,61.8257 38.5,62.5C 39.3857,63.325 39.719,64.325 39.5,65.5C 38.1266,65.6567 36.7932,65.49 35.5,65C 34.2748,63.437 32.7748,62.2703 31,61.5C 28.8329,63.5104 26.3329,64.8437 23.5,65.5C 20.7067,65.0543 18.3733,63.721 16.5,61.5C 15.8933,61.6236 15.56,61.9569 15.5,62.5C 13.6413,64.5729 11.308,65.9063 8.5,66.5C 5.24804,65.2391 2.24804,63.5725 -0.5,61.5C -0.5,60.5 -0.5,59.5 -0.5,58.5 Z"/></g>
</svg>
