<?xml version="1.0" encoding="UTF-8"?>
<!DOCTYPE svg PUBLIC "-//W3C//DTD SVG 1.1//EN" "http://www.w3.org/Graphics/SVG/1.1/DTD/svg11.dtd">
<svg xmlns="http://www.w3.org/2000/svg" version="1.1" width="102px" height="99px" style="shape-rendering:geometricPrecision; text-rendering:geometricPrecision; image-rendering:optimizeQuality; fill-rule:evenodd; clip-rule:evenodd" xmlns:xlink="http://www.w3.org/1999/xlink">
<g><path style="opacity:0.986" fill="#69b4f4" d="M 2.5,-0.5 C 18.1667,-0.5 33.8333,-0.5 49.5,-0.5C 49.5,8.83333 49.5,18.1667 49.5,27.5C 48.1667,27.5 46.8333,27.5 45.5,27.5C 43.7012,10.5989 34.7012,4.76561 18.5,10C 11.8158,15.2126 9.14911,22.0459 10.5,30.5C 6.33435,31.0561 2.66769,30.0561 -0.5,27.5C -0.5,19.1667 -0.5,10.8333 -0.5,2.5C 0.5,1.5 1.5,0.5 2.5,-0.5 Z"/></g>
<g><path style="opacity:1" fill="#699cd1" d="M 49.5,-0.5 C 65.8333,-0.5 82.1667,-0.5 98.5,-0.5C 99.5,0.5 100.5,1.5 101.5,2.5C 101.5,10.5 101.5,18.5 101.5,26.5C 98.8047,30.0106 95.1381,31.3439 90.5,30.5C 90.4696,11.6218 81.4696,4.78843 63.5,10C 57.1299,14.5729 54.4632,20.7396 55.5,28.5C 52.1667,28.5 48.8333,28.5 45.5,28.5C 45.5,28.1667 45.5,27.8333 45.5,27.5C 46.8333,27.5 48.1667,27.5 49.5,27.5C 49.5,18.1667 49.5,8.83333 49.5,-0.5 Z"/></g>
<g><path style="opacity:0.994" fill="#e6e7e8" d="M 45.5,27.5 C 45.5,27.8333 45.5,28.1667 45.5,28.5C 41.5,28.5 37.5,28.5 33.5,28.5C 33.5,26.8333 33.5,25.1667 33.5,23.5C 29.8333,23.5 26.1667,23.5 22.5,23.5C 22.5,27.1667 22.5,30.8333 22.5,34.5C 26.1667,34.5 29.8333,34.5 33.5,34.5C 33.5,33.5 33.5,32.5 33.5,31.5C 37.5,31.5 41.5,31.5 45.5,31.5C 45.6655,35.5138 45.4988,39.5138 45,43.5C 44.5,44 44,44.5 43.5,45C 32.8333,45.6667 22.1667,45.6667 11.5,45C 10.5308,40.2633 10.1975,35.43 10.5,30.5C 9.14911,22.0459 11.8158,15.2126 18.5,10C 34.7012,4.76561 43.7012,10.5989 45.5,27.5 Z"/></g>
<g><path style="opacity:1" fill="#e6e7e7" d="M 90.5,30.5 C 90.6657,34.8461 90.499,39.1794 90,43.5C 89.5,44 89,44.5 88.5,45C 77.8333,45.6667 67.1667,45.6667 56.5,45C 55.5333,40.5986 55.2,36.0986 55.5,31.5C 59.5,31.5 63.5,31.5 67.5,31.5C 67.5,32.5 67.5,33.5 67.5,34.5C 71.1667,34.5 74.8333,34.5 78.5,34.5C 78.5,30.8333 78.5,27.1667 78.5,23.5C 74.7016,22.5166 70.7016,22.1832 66.5,22.5C 66.5,24.5 66.5,26.5 66.5,28.5C 62.8333,28.5 59.1667,28.5 55.5,28.5C 54.4632,20.7396 57.1299,14.5729 63.5,10C 81.4696,4.78843 90.4696,11.6218 90.5,30.5 Z"/></g>
<g><path style="opacity:1" fill="#8c93a0" d="M 78.5,23.5 C 74.8333,23.5 71.1667,23.5 67.5,23.5C 67.7845,25.4147 67.4511,27.0813 66.5,28.5C 66.5,26.5 66.5,24.5 66.5,22.5C 70.7016,22.1832 74.7016,22.5166 78.5,23.5 Z"/></g>
<g><path style="opacity:1" fill="#3b4961" d="M 45.5,28.5 C 48.8333,28.5 52.1667,28.5 55.5,28.5C 59.1667,28.5 62.8333,28.5 66.5,28.5C 67.4511,27.0813 67.7845,25.4147 67.5,23.5C 71.1667,23.5 74.8333,23.5 78.5,23.5C 78.5,27.1667 78.5,30.8333 78.5,34.5C 74.8333,34.5 71.1667,34.5 67.5,34.5C 67.5,33.5 67.5,32.5 67.5,31.5C 63.5,31.5 59.5,31.5 55.5,31.5C 52.1667,31.5 48.8333,31.5 45.5,31.5C 41.5,31.5 37.5,31.5 33.5,31.5C 33.5,32.5 33.5,33.5 33.5,34.5C 29.8333,34.5 26.1667,34.5 22.5,34.5C 22.5,30.8333 22.5,27.1667 22.5,23.5C 26.1667,23.5 29.8333,23.5 33.5,23.5C 33.5,25.1667 33.5,26.8333 33.5,28.5C 37.5,28.5 41.5,28.5 45.5,28.5 Z"/></g>
<g><path style="opacity:0.988" fill="#69b4f4" d="M 49.5,52.5 C 49.5,61.8333 49.5,71.1667 49.5,80.5C 48.1667,80.5 46.8333,80.5 45.5,80.5C 45.4637,68.4638 39.4637,61.7971 27.5,60.5C 14.5577,62.777 8.89101,70.4437 10.5,83.5C 6.33435,84.0561 2.66769,83.0561 -0.5,80.5C -0.5,72.1667 -0.5,63.8333 -0.5,55.5C 0.626561,54.8783 1.62656,54.045 2.5,53C 18.1631,52.5001 33.8298,52.3334 49.5,52.5 Z"/></g>
<g><path style="opacity:1" fill="#699cd1" d="M 49.5,52.5 C 65.8367,52.3334 82.1701,52.5001 98.5,53C 99.3734,54.045 100.373,54.8783 101.5,55.5C 101.5,63.8333 101.5,72.1667 101.5,80.5C 98.3323,83.0561 94.6656,84.0561 90.5,83.5C 91.4347,70.0063 85.2681,62.3396 72,60.5C 60.8149,62.5154 55.3149,69.1821 55.5,80.5C 55.5,80.8333 55.5,81.1667 55.5,81.5C 52.1667,81.5 48.8333,81.5 45.5,81.5C 45.5,81.1667 45.5,80.8333 45.5,80.5C 46.8333,80.5 48.1667,80.5 49.5,80.5C 49.5,71.1667 49.5,61.8333 49.5,52.5 Z"/></g>
<g><path style="opacity:0.995" fill="#e6e6e7" d="M 45.5,80.5 C 45.5,80.8333 45.5,81.1667 45.5,81.5C 41.5,81.5 37.5,81.5 33.5,81.5C 33.5,79.8333 33.5,78.1667 33.5,76.5C 29.8333,76.5 26.1667,76.5 22.5,76.5C 22.5,80.1667 22.5,83.8333 22.5,87.5C 26.1667,87.5 29.8333,87.5 33.5,87.5C 33.5,86.5 33.5,85.5 33.5,84.5C 37.5,84.5 41.5,84.5 45.5,84.5C 46.038,89.4671 45.3713,94.1338 43.5,98.5C 32.8333,98.5 22.1667,98.5 11.5,98.5C 10.5546,93.5947 10.2213,88.5947 10.5,83.5C 8.89101,70.4437 14.5577,62.777 27.5,60.5C 39.4637,61.7971 45.4637,68.4638 45.5,80.5 Z"/></g>
<g><path style="opacity:1" fill="#e5e6e7" d="M 90.5,83.5 C 90.6657,87.8461 90.499,92.1794 90,96.5C 89.2828,97.0442 88.7828,97.7109 88.5,98.5C 77.8333,98.5 67.1667,98.5 56.5,98.5C 55.559,93.9296 55.2256,89.263 55.5,84.5C 59.5,84.5 63.5,84.5 67.5,84.5C 67.5,85.5 67.5,86.5 67.5,87.5C 71.1667,87.5 74.8333,87.5 78.5,87.5C 78.5,83.8333 78.5,80.1667 78.5,76.5C 74.8333,76.5 71.1667,76.5 67.5,76.5C 66.5655,77.5676 66.2322,78.901 66.5,80.5C 62.8333,80.5 59.1667,80.5 55.5,80.5C 55.3149,69.1821 60.8149,62.5154 72,60.5C 85.2681,62.3396 91.4347,70.0063 90.5,83.5 Z"/></g>
<g><path style="opacity:1" fill="#3b4961" d="M 45.5,81.5 C 48.8333,81.5 52.1667,81.5 55.5,81.5C 59.5,81.5 63.5,81.5 67.5,81.5C 67.5,79.8333 67.5,78.1667 67.5,76.5C 71.1667,76.5 74.8333,76.5 78.5,76.5C 78.5,80.1667 78.5,83.8333 78.5,87.5C 74.8333,87.5 71.1667,87.5 67.5,87.5C 67.5,86.5 67.5,85.5 67.5,84.5C 63.5,84.5 59.5,84.5 55.5,84.5C 52.1667,84.5 48.8333,84.5 45.5,84.5C 41.5,84.5 37.5,84.5 33.5,84.5C 33.5,85.5 33.5,86.5 33.5,87.5C 29.8333,87.5 26.1667,87.5 22.5,87.5C 22.5,83.8333 22.5,80.1667 22.5,76.5C 26.1667,76.5 29.8333,76.5 33.5,76.5C 33.5,78.1667 33.5,79.8333 33.5,81.5C 37.5,81.5 41.5,81.5 45.5,81.5 Z"/></g>
<g><path style="opacity:1" fill="#b4b8c1" d="M 67.5,76.5 C 67.5,78.1667 67.5,79.8333 67.5,81.5C 63.5,81.5 59.5,81.5 55.5,81.5C 55.5,81.1667 55.5,80.8333 55.5,80.5C 59.1667,80.5 62.8333,80.5 66.5,80.5C 66.2322,78.901 66.5655,77.5676 67.5,76.5 Z"/></g>
</svg>
