<?xml version="1.0" encoding="UTF-8"?>
<!DOCTYPE svg PUBLIC "-//W3C//DTD SVG 1.1//EN" "http://www.w3.org/Graphics/SVG/1.1/DTD/svg11.dtd">
<svg xmlns="http://www.w3.org/2000/svg" version="1.1" width="96px" height="101px" style="shape-rendering:geometricPrecision; text-rendering:geometricPrecision; image-rendering:optimizeQuality; fill-rule:evenodd; clip-rule:evenodd" xmlns:xlink="http://www.w3.org/1999/xlink">
<g><path style="opacity:1" fill="#e8e8e8" d="M 24.5,-0.5 C 28.5,-0.5 32.5,-0.5 36.5,-0.5C 39.9816,1.74265 43.6483,3.74265 47.5,5.5C 51.3517,3.74265 55.0184,1.74265 58.5,-0.5C 62.5,-0.5 66.5,-0.5 70.5,-0.5C 84.0557,3.72046 92.3891,12.7205 95.5,26.5C 95.5,28.5 95.5,30.5 95.5,32.5C 91.6762,42.5011 87.5095,52.5011 83,62.5C 80.8594,73.7481 77.1927,84.4148 72,94.5C 69.8859,97.1208 67.3859,99.1208 64.5,100.5C 61.8333,100.5 59.1667,100.5 56.5,100.5C 55.6799,98.8599 54.8466,97.1932 54,95.5C 53.962,85.0641 52.962,74.7308 51,64.5C 50.3282,60.9704 48.1616,59.6371 44.5,60.5C 42.1725,72.0337 41.0058,83.7004 41,95.5C 40.1534,97.1932 39.3201,98.8599 38.5,100.5C 35.8333,100.5 33.1667,100.5 30.5,100.5C 25.8566,98.0212 22.3566,94.3545 20,89.5C 16.1806,77.8916 12.514,66.2249 9,54.5C 5.22975,47.637 2.06308,40.637 -0.5,33.5C -0.5,31.1667 -0.5,28.8333 -0.5,26.5C 2.61094,12.7205 10.9443,3.72046 24.5,-0.5 Z"/></g>
<g><path style="opacity:1" fill="#36435b" d="M 34.5,30.5 C 34.5,31.5 34.5,32.5 34.5,33.5C 33.8826,33.3893 33.3826,33.056 33,32.5C 32.5045,34.4727 32.3379,36.4727 32.5,38.5C 28.2709,40.1402 23.9376,41.3069 19.5,42C 15.813,38.6046 14.313,34.4379 15,29.5C 16.5557,24.7202 18.8891,20.3869 22,16.5C 23.7073,15.5415 25.5406,14.8748 27.5,14.5C 33.1227,18.243 35.456,23.5763 34.5,30.5 Z"/></g>
<g><path style="opacity:1" fill="#64aae8" d="M 25.5,21.5 C 26.4972,21.4701 27.1639,21.9701 27.5,23C 28.0441,25.3997 28.7108,27.733 29.5,30C 27.3171,32.3504 24.9837,34.517 22.5,36.5C 20.8058,33.3355 20.3058,30.0022 21,26.5C 22.7073,24.9625 24.2073,23.2959 25.5,21.5 Z"/></g>
<g><path style="opacity:1" fill="#48556d" d="M 34.5,30.5 C 35.456,23.5763 33.1227,18.243 27.5,14.5C 25.5406,14.8748 23.7073,15.5415 22,16.5C 18.8891,20.3869 16.5557,24.7202 15,29.5C 14.313,34.4379 15.813,38.6046 19.5,42C 23.9376,41.3069 28.2709,40.1402 32.5,38.5C 32.3379,36.4727 32.5045,34.4727 33,32.5C 33.3826,33.056 33.8826,33.3893 34.5,33.5C 34.3259,35.861 33.9926,38.1944 33.5,40.5C 28.6501,41.5887 23.9835,43.2553 19.5,45.5C 15.5813,42.0072 12.9146,37.6739 11.5,32.5C 13.8875,26.057 17.0541,20.057 21,14.5C 30.6141,10.7356 35.4474,14.2356 35.5,25C 35.4944,27.0326 35.1611,28.866 34.5,30.5 Z"/></g>
</svg>
