<?xml version="1.0" encoding="UTF-8"?>
<!DOCTYPE svg PUBLIC "-//W3C//DTD SVG 1.1//EN" "http://www.w3.org/Graphics/SVG/1.1/DTD/svg11.dtd">
<svg xmlns="http://www.w3.org/2000/svg" version="1.1" width="95px" height="101px" style="shape-rendering:geometricPrecision; text-rendering:geometricPrecision; image-rendering:optimizeQuality; fill-rule:evenodd; clip-rule:evenodd" xmlns:xlink="http://www.w3.org/1999/xlink">
<g><path style="opacity:0.941" fill="#eaeaea" d="M 24.5,-0.5 C 26.1667,-0.5 27.8333,-0.5 29.5,-0.5C 27.2874,1.86034 24.6207,3.69368 21.5,5C 19.4857,7.67749 17.4857,10.3442 15.5,13C 16.34,14.7674 17.6734,16.1007 19.5,17C 22.6392,17.7543 25.6392,18.7543 28.5,20C 23.4689,22.5156 18.4689,25.0156 13.5,27.5C 16.6153,32.227 20.9486,35.227 26.5,36.5C 20.8124,38.0681 18.979,41.7348 21,47.5C 23.7883,50.6517 27.2883,51.8184 31.5,51C 28.6883,49.4511 25.6883,48.6178 22.5,48.5C 22.5,45.5 22.5,42.5 22.5,39.5C 25.8502,39.4944 28.8502,38.4944 31.5,36.5C 28.4279,34.7276 25.0946,33.561 21.5,33C 19.7923,31.4905 18.1256,29.9905 16.5,28.5C 22.1368,25.68 27.4701,22.3467 32.5,18.5C 28.8876,17.4532 25.2209,16.6198 21.5,16C 19.6969,15.3632 18.3636,14.1965 17.5,12.5C 21.9711,7.45018 26.9711,3.11685 32.5,-0.5C 33.5,-0.5 34.5,-0.5 35.5,-0.5C 39.5543,2.87745 44.221,4.87745 49.5,5.5C 47.5342,23.2637 46.8675,41.2637 47.5,59.5C 46.5,59.5 45.5,59.5 44.5,59.5C 41.6812,70.3672 40.5145,81.3672 41,92.5C 40.5494,95.7776 39.0494,98.4442 36.5,100.5C 34.8333,100.5 33.1667,100.5 31.5,100.5C 26.3286,98.3137 22.4952,94.647 20,89.5C 16.0493,79.0317 12.716,68.3651 10,57.5C 6.42855,49.7022 2.92855,42.0355 -0.5,34.5C -0.5,31.1667 -0.5,27.8333 -0.5,24.5C 3.49132,11.842 11.8247,3.50868 24.5,-0.5 Z"/></g>
<g><path style="opacity:0.604" fill="#e9e9e9" d="M 58.5,0.5 C 57.4863,1.67373 56.153,2.3404 54.5,2.5C 55.287,0.895779 56.6203,0.229113 58.5,0.5 Z"/></g>
<g><path style="opacity:1" fill="#e7e7e7" d="M 58.5,-0.5 C 61.8333,-0.5 65.1667,-0.5 68.5,-0.5C 69.8333,0.166667 71.1667,0.833333 72.5,1.5C 74.8485,3.341 77.5152,4.67433 80.5,5.5C 81.5846,7.58689 83.2512,8.92022 85.5,9.5C 85.7376,11.4044 86.7376,12.7377 88.5,13.5C 90.1361,14.7489 91.3028,16.4156 92,18.5C 92.7823,21.3102 93.6156,23.9768 94.5,26.5C 94.5,28.5 94.5,30.5 94.5,32.5C 93.4807,37.5491 91.4807,42.2157 88.5,46.5C 86.8958,47.287 86.2291,48.6203 86.5,50.5C 85.7362,53.0177 84.7362,55.351 83.5,57.5C 81.9261,59.1016 81.2594,61.1016 81.5,63.5C 79.7194,73.6232 76.5527,83.2898 72,92.5C 69.228,95.7834 66.0614,98.4501 62.5,100.5C 60.8333,100.5 59.1667,100.5 57.5,100.5C 57.5,100.167 57.5,99.8333 57.5,99.5C 56.8333,98.1667 55.8333,97.1667 54.5,96.5C 53.7321,95.7375 53.2321,94.7375 53,93.5C 52.8463,83.0949 52.013,72.7616 50.5,62.5C 50.7148,60.8212 50.0481,59.8212 48.5,59.5C 48.1667,59.5 47.8333,59.5 47.5,59.5C 46.8675,41.2637 47.5342,23.2637 49.5,5.5C 51.0269,5.57298 52.0269,4.90632 52.5,3.5C 52.8417,2.66175 53.5084,2.32842 54.5,2.5C 56.153,2.3404 57.4863,1.67373 58.5,0.5C 58.5,0.166667 58.5,-0.166667 58.5,-0.5 Z"/></g>
<g><path style="opacity:0.518" fill="#e9e9e9" d="M 72.5,1.5 C 75.7541,1.79362 78.4208,3.12695 80.5,5.5C 77.5152,4.67433 74.8485,3.341 72.5,1.5 Z"/></g>
<g><path style="opacity:0.5" fill="#e9e9e9" d="M 52.5,3.5 C 52.0269,4.90632 51.0269,5.57298 49.5,5.5C 49.9731,4.09368 50.9731,3.42702 52.5,3.5 Z"/></g>
<g><path style="opacity:0.538" fill="#e9e9e9" d="M 80.5,5.5 C 82.7488,6.07978 84.4154,7.41311 85.5,9.5C 83.2512,8.92022 81.5846,7.58689 80.5,5.5 Z"/></g>
<g><path style="opacity:0.558" fill="#e9e9e9" d="M 85.5,9.5 C 87.2624,10.2623 88.2624,11.5956 88.5,13.5C 86.7376,12.7377 85.7376,11.4044 85.5,9.5 Z"/></g>
<g><path style="opacity:0.504" fill="#e9e9e9" d="M 88.5,46.5 C 88.3404,48.153 87.6737,49.4863 86.5,50.5C 86.2291,48.6203 86.8958,47.287 88.5,46.5 Z"/></g>
<g><path style="opacity:0.47" fill="#e9e9e9" d="M 83.5,57.5 C 83.405,59.7857 82.7384,61.7857 81.5,63.5C 81.2594,61.1016 81.9261,59.1016 83.5,57.5 Z"/></g>
<g><path style="opacity:0.425" fill="#e9e9e9" d="M 48.5,59.5 C 50.0481,59.8212 50.7148,60.8212 50.5,62.5C 49.5987,61.7095 48.9321,60.7095 48.5,59.5 Z"/></g>
<g><path style="opacity:0.493" fill="#e9e9e9" d="M 54.5,96.5 C 55.8333,97.1667 56.8333,98.1667 57.5,99.5C 55.5,99.5 54.5,98.5 54.5,96.5 Z"/></g>
</svg>
