<?xml version="1.0" encoding="UTF-8"?>
<!DOCTYPE svg PUBLIC "-//W3C//DTD SVG 1.1//EN" "http://www.w3.org/Graphics/SVG/1.1/DTD/svg11.dtd">
<svg xmlns="http://www.w3.org/2000/svg" version="1.1" width="102px" height="80px" style="shape-rendering:geometricPrecision; text-rendering:geometricPrecision; image-rendering:optimizeQuality; fill-rule:evenodd; clip-rule:evenodd" xmlns:xlink="http://www.w3.org/1999/xlink">
<g><path style="opacity:0.915" fill="#6ab4f4" d="M 2.5,-0.5 C 6.83333,-0.5 11.1667,-0.5 15.5,-0.5C 17.4927,1.16319 19.8261,2.32986 22.5,3C 39.8301,3.49994 57.1635,3.66661 74.5,3.5C 66.3501,4.49272 58.0168,4.82605 49.5,4.5C 49.5,8.83333 49.5,13.1667 49.5,17.5C 42.5558,9.03169 36.7224,9.69835 32,19.5C 30.8088,16.4659 28.6421,14.7993 25.5,14.5C 22.6755,14.0807 20.5088,15.0807 19,17.5C 16.0913,14.6061 12.5913,13.7728 8.5,15C 6.96317,16.1096 6.2965,17.6096 6.5,19.5C 2.67448,17.173 0.341147,13.8397 -0.5,9.5C -0.5,7.16667 -0.5,4.83333 -0.5,2.5C 0.833333,1.83333 1.83333,0.833333 2.5,-0.5 Z"/></g>
<g><path style="opacity:1" fill="#5faaf2" d="M 85.5,-0.5 C 89.5,-0.5 93.5,-0.5 97.5,-0.5C 99.1667,0.5 100.5,1.83333 101.5,3.5C 101.5,5.16667 101.5,6.83333 101.5,8.5C 100.981,13.7184 98.3139,17.385 93.5,19.5C 91.9935,13.4358 88.3268,11.9358 82.5,15C 81.8742,15.7504 81.3742,16.5838 81,17.5C 76.2049,11.9106 71.8715,12.2439 68,18.5C 64.7535,12.3882 59.9201,10.8882 53.5,14C 52.3333,15.8333 51.1667,17.6667 50,19.5C 49.5357,18.9056 49.369,18.2389 49.5,17.5C 49.5,13.1667 49.5,8.83333 49.5,4.5C 58.0168,4.82605 66.3501,4.49272 74.5,3.5C 78.6734,3.3333 82.3401,1.99997 85.5,-0.5 Z"/></g>
<g><path style="opacity:0.928" fill="#e7e8e9" d="M 49.5,17.5 C 49.369,18.2389 49.5357,18.9056 50,19.5C 51.1667,17.6667 52.3333,15.8333 53.5,14C 59.9201,10.8882 64.7535,12.3882 68,18.5C 71.8715,12.2439 76.2049,11.9106 81,17.5C 81.3742,16.5838 81.8742,15.7504 82.5,15C 88.3268,11.9358 91.9935,13.4358 93.5,19.5C 92.8596,22.8649 92.0262,26.1983 91,29.5C 90.5,30.6667 89.6667,31.5 88.5,32C 85.438,32.7415 82.438,32.5748 79.5,31.5C 75.8539,33.7009 72.0206,34.0342 68,32.5C 67.6258,33.4162 67.1258,34.2496 66.5,35C 63.8333,35.1667 61.1667,35.3333 58.5,35.5C 50.3045,35.2718 41.9711,35.1051 33.5,35C 32.9498,32.8424 31.9498,32.3424 30.5,33.5C 29.5,33.5 28.5,33.5 27.5,33.5C 26.8333,27.1667 26.1667,20.8333 25.5,14.5C 28.6421,14.7993 30.8088,16.4659 32,19.5C 36.7224,9.69835 42.5558,9.03169 49.5,17.5 Z"/></g>
<g><path style="opacity:0.941" fill="#eaeaea" d="M 25.5,14.5 C 26.1667,20.8333 26.8333,27.1667 27.5,33.5C 28.5,33.5 29.5,33.5 30.5,33.5C 26.8088,35.1588 23.4755,34.4921 20.5,31.5C 17.0177,33.9342 13.351,34.1009 9.5,32C 7.63904,28.0556 6.63904,23.8889 6.5,19.5C 6.2965,17.6096 6.96317,16.1096 8.5,15C 12.5913,13.7728 16.0913,14.6061 19,17.5C 20.5088,15.0807 22.6755,14.0807 25.5,14.5 Z"/></g>
<g><path style="opacity:0.953" fill="#69b4f4" d="M 49.5,48.5 C 49.5,53.1667 49.5,57.8333 49.5,62.5C 46.2527,56.7144 41.586,55.2144 35.5,58C 33.9588,59.5793 32.7922,61.4127 32,63.5C 29.3351,58.5656 25.5018,57.3989 20.5,60C 19.8742,60.7504 19.3742,61.5838 19,62.5C 15.5518,58.2091 11.5518,57.5424 7,60.5C 6.51722,61.448 6.35055,62.448 6.5,63.5C 2.48186,61.7914 0.14853,58.7914 -0.5,54.5C -0.5,52.1667 -0.5,49.8333 -0.5,47.5C 0.309426,46.5313 1.30943,45.6979 2.5,45C 10.18,43.7367 17.5133,44.7367 24.5,48C 32.8267,48.4997 41.16,48.6664 49.5,48.5 Z"/></g>
<g><path style="opacity:1" fill="#6b9cd1" d="M 101.5,47.5 C 101.5,49.5 101.5,51.5 101.5,53.5C 100.548,58.4016 97.8809,62.0683 93.5,64.5C 93.528,62.4176 92.8613,60.5843 91.5,59C 87.4087,57.7728 83.9087,58.6061 81,61.5C 78.4406,58.6508 75.2739,57.8175 71.5,59C 69.741,60.008 68.5743,61.508 68,63.5C 65.9699,57.5697 62.1366,55.5697 56.5,57.5C 53.1783,58.6582 51.0117,60.9916 50,64.5C 49.5357,63.9056 49.369,63.2389 49.5,62.5C 49.5,57.8333 49.5,53.1667 49.5,48.5C 58.5062,48.6664 67.5062,48.4998 76.5,48C 83.4867,44.7367 90.82,43.7367 98.5,45C 99.3734,46.045 100.373,46.8783 101.5,47.5 Z"/></g>
<g><path style="opacity:0.925" fill="#e7e7e7" d="M 56.5,57.5 C 62.1366,55.5697 65.9699,57.5697 68,63.5C 68.5743,61.508 69.741,60.008 71.5,59C 75.2739,57.8175 78.4406,58.6508 81,61.5C 83.9087,58.6061 87.4087,57.7728 91.5,59C 92.8613,60.5843 93.528,62.4176 93.5,64.5C 92.8488,68.6229 91.5155,72.4562 89.5,76C 85.8084,78.1592 82.3084,77.9925 79,75.5C 76.0393,78.6163 72.5393,79.2829 68.5,77.5C 67.7025,77.9569 67.3691,78.6236 67.5,79.5C 64.8333,79.5 62.1667,79.5 59.5,79.5C 59.5,72.1667 59.5,64.8333 59.5,57.5C 58.5,57.5 57.5,57.5 56.5,57.5 Z"/></g>
<g><path style="opacity:0.965" fill="#e8e9e9" d="M 49.5,62.5 C 49.369,63.2389 49.5357,63.9056 50,64.5C 51.0117,60.9916 53.1783,58.6582 56.5,57.5C 57.5,57.5 58.5,57.5 59.5,57.5C 59.5,64.8333 59.5,72.1667 59.5,79.5C 56.5,79.5 53.5,79.5 50.5,79.5C 50.1667,78.1667 49.8333,78.1667 49.5,79.5C 44.1667,79.5 38.8333,79.5 33.5,79.5C 33.2172,78.7109 32.7172,78.0442 32,77.5C 27.9794,79.0342 24.1461,78.7009 20.5,76.5C 17.227,77.5851 13.8936,77.7517 10.5,77C 7.72611,72.9913 6.39277,68.4913 6.5,63.5C 6.35055,62.448 6.51722,61.448 7,60.5C 11.5518,57.5424 15.5518,58.2091 19,62.5C 19.3742,61.5838 19.8742,60.7504 20.5,60C 25.5018,57.3989 29.3351,58.5656 32,63.5C 32.7922,61.4127 33.9588,59.5793 35.5,58C 41.586,55.2144 46.2527,56.7144 49.5,62.5 Z"/></g>
</svg>
