<?xml version="1.0" encoding="UTF-8"?>
<!DOCTYPE svg PUBLIC "-//W3C//DTD SVG 1.1//EN" "http://www.w3.org/Graphics/SVG/1.1/DTD/svg11.dtd">
<svg xmlns="http://www.w3.org/2000/svg" version="1.1" width="100px" height="103px" style="shape-rendering:geometricPrecision; text-rendering:geometricPrecision; image-rendering:optimizeQuality; fill-rule:evenodd; clip-rule:evenodd" xmlns:xlink="http://www.w3.org/1999/xlink">
<g><path style="opacity:0.971" fill="#69b4f4" d="M -0.5,1.5 C 26.8333,1.5 54.1667,1.5 81.5,1.5C 81.8312,28.6718 81.4979,55.6718 80.5,82.5C 74.69,81.5104 68.69,81.1771 62.5,81.5C 62.5,87.8333 62.5,94.1667 62.5,100.5C 56.5,100.5 50.5,100.5 44.5,100.5C 44.5,91.5 44.5,82.5 44.5,73.5C 53.6822,73.8266 62.6822,73.4933 71.5,72.5C 72.404,71.791 72.7373,70.791 72.5,69.5C 63.1667,69.5 53.8333,69.5 44.5,69.5C 44.5,67.5 44.5,65.5 44.5,63.5C 53.6822,63.8266 62.6822,63.4933 71.5,62.5C 72.404,61.791 72.7373,60.791 72.5,59.5C 63.1667,59.5 53.8333,59.5 44.5,59.5C 44.5,40.5 44.5,21.5 44.5,2.5C 29.8333,2.5 15.1667,2.5 0.5,2.5C 0.5,35.1667 0.5,67.8333 0.5,100.5C 0.166667,100.5 -0.166667,100.5 -0.5,100.5C -0.5,67.5 -0.5,34.5 -0.5,1.5 Z"/></g>
<g><path style="opacity:0.979" fill="#39465f" d="M 92.5,-0.5 C 92.8333,-0.5 93.1667,-0.5 93.5,-0.5C 94.1667,2.5 94.8333,5.5 95.5,8.5C 93.5,8.5 91.5,8.5 89.5,8.5C 89.9049,5.28537 90.9049,2.28537 92.5,-0.5 Z"/></g>
<g><path style="opacity:0.997" fill="#76bff6" d="M 44.5,59.5 C 32.8286,59.3335 21.1619,59.5001 9.5,60C 8.16667,60.6667 8.16667,61.3333 9.5,62C 30.164,62.5 50.8306,62.6666 71.5,62.5C 62.6822,63.4933 53.6822,63.8266 44.5,63.5C 44.5,65.5 44.5,67.5 44.5,69.5C 32.8286,69.3335 21.1619,69.5001 9.5,70C 8.16667,70.6667 8.16667,71.3333 9.5,72C 30.164,72.5 50.8306,72.6666 71.5,72.5C 62.6822,73.4933 53.6822,73.8266 44.5,73.5C 44.5,82.5 44.5,91.5 44.5,100.5C 29.8333,100.5 15.1667,100.5 0.5,100.5C 0.5,67.8333 0.5,35.1667 0.5,2.5C 15.1667,2.5 29.8333,2.5 44.5,2.5C 44.5,21.5 44.5,40.5 44.5,59.5 Z"/></g>
<g><path style="opacity:0.996" fill="#f2de7e" d="M 89.5,8.5 C 91.5,8.5 93.5,8.5 95.5,8.5C 97.0252,11.0791 98.3586,13.7458 99.5,16.5C 99.5,17.5 99.5,18.5 99.5,19.5C 94.8333,19.5 90.1667,19.5 85.5,19.5C 86.4588,15.617 87.7922,11.9503 89.5,8.5 Z"/></g>
<g><path style="opacity:1" fill="#e5e7e8" d="M 15.5,14.5 C 18.4353,14.7167 21.2687,15.3834 24,16.5C 31.1856,13.3416 36.519,15.3416 40,22.5C 40.6667,24.5 40.6667,26.5 40,28.5C 36.7557,34.1421 34.4224,40.1421 33,46.5C 31.2141,49.3616 28.8808,50.0283 26,48.5C 25.5012,44.5138 25.3345,40.5138 25.5,36.5C 23.8762,36.3601 22.7096,37.0267 22,38.5C 21.5014,42.1516 21.3347,45.8183 21.5,49.5C 19.1727,49.7529 17.1727,49.0863 15.5,47.5C 13.298,40.7281 10.798,34.0615 8,27.5C 7.33333,25.5 7.33333,23.5 8,21.5C 10.0147,18.5883 12.5147,16.255 15.5,14.5 Z"/></g>
<g><path style="opacity:1" fill="#61adf3" d="M 85.5,19.5 C 90.1667,19.5 94.8333,19.5 99.5,19.5C 99.5,44.5 99.5,69.5 99.5,94.5C 99.1667,94.5 98.8333,94.5 98.5,94.5C 94.5,93.1667 90.5,93.1667 86.5,94.5C 85.5023,69.6722 85.169,44.6722 85.5,19.5 Z"/></g>
<g><path style="opacity:1" fill="#fbfdfe" d="M 50.5,32.5 C 57.8333,32.5 65.1667,32.5 72.5,32.5C 72.5,33.5 72.5,34.5 72.5,35.5C 65.1667,35.5 57.8333,35.5 50.5,35.5C 50.5,34.5 50.5,33.5 50.5,32.5 Z"/></g>
<g><path style="opacity:1" fill="#fafdfe" d="M 50.5,42.5 C 58.3401,42.036 66.0068,42.536 73.5,44C 66.0068,45.464 58.3401,45.964 50.5,45.5C 50.5,44.5 50.5,43.5 50.5,42.5 Z"/></g>
<g><path style="opacity:1" fill="#fdfefe" d="M 44.5,59.5 C 53.8333,59.5 63.1667,59.5 72.5,59.5C 72.7373,60.791 72.404,61.791 71.5,62.5C 50.8306,62.6666 30.164,62.5 9.5,62C 8.16667,61.3333 8.16667,60.6667 9.5,60C 21.1619,59.5001 32.8286,59.3335 44.5,59.5 Z"/></g>
<g><path style="opacity:1" fill="#fdfefe" d="M 44.5,69.5 C 53.8333,69.5 63.1667,69.5 72.5,69.5C 72.7373,70.791 72.404,71.791 71.5,72.5C 50.8306,72.6666 30.164,72.5 9.5,72C 8.16667,71.3333 8.16667,70.6667 9.5,70C 21.1619,69.5001 32.8286,69.3335 44.5,69.5 Z"/></g>
<g><path style="opacity:0.909" fill="#3f4e67" d="M 80.5,82.5 C 74.8333,88.8333 68.8333,94.8333 62.5,100.5C 62.5,94.1667 62.5,87.8333 62.5,81.5C 68.69,81.1771 74.69,81.5104 80.5,82.5 Z"/></g>
<g><path style="opacity:0.879" fill="#f4e07f" d="M 98.5,94.5 C 98.9844,97.7882 97.9844,100.455 95.5,102.5C 93.5,102.5 91.5,102.5 89.5,102.5C 87.0156,100.455 86.0156,97.7882 86.5,94.5C 90.5,93.1667 94.5,93.1667 98.5,94.5 Z"/></g>
</svg>
