<?xml version="1.0" encoding="UTF-8"?>
<!DOCTYPE svg PUBLIC "-//W3C//DTD SVG 1.1//EN" "http://www.w3.org/Graphics/SVG/1.1/DTD/svg11.dtd">
<svg xmlns="http://www.w3.org/2000/svg" version="1.1" width="94px" height="101px" style="shape-rendering:geometricPrecision; text-rendering:geometricPrecision; image-rendering:optimizeQuality; fill-rule:evenodd; clip-rule:evenodd" xmlns:xlink="http://www.w3.org/1999/xlink">
<g><path style="opacity:0.979" fill="#69b4f5" d="M 33.5,-0.5 C 37.8333,-0.5 42.1667,-0.5 46.5,-0.5C 46.5,5.5 46.5,11.5 46.5,17.5C 39.8333,17.5 33.1667,17.5 26.5,17.5C 26.3345,13.4862 26.5012,9.48617 27,5.5C 28.4936,2.68648 30.6603,0.686482 33.5,-0.5 Z"/></g>
<g><path style="opacity:1" fill="#5da9f3" d="M 46.5,-0.5 C 51.1667,-0.5 55.8333,-0.5 60.5,-0.5C 66.9275,4.44852 68.9275,10.7819 66.5,18.5C 60.021,17.5093 53.3543,17.176 46.5,17.5C 46.5,11.5 46.5,5.5 46.5,-0.5 Z"/></g>
<g><path style="opacity:0.99" fill="#fae584" d="M 26.5,17.5 C 33.1667,17.5 39.8333,17.5 46.5,17.5C 53.3543,17.176 60.021,17.5093 66.5,18.5C 67.436,22.7352 67.7693,27.0685 67.5,31.5C 65.5,31.5 63.5,31.5 61.5,31.5C 51.8333,31.5 42.1667,31.5 32.5,31.5C 29.7628,31.4013 27.0961,31.7347 24.5,32.5C 24.1828,27.3241 24.8495,22.3241 26.5,17.5 Z"/></g>
<g><path style="opacity:0.754" fill="#75b8f0" d="M 61.5,31.5 C 63.5,31.5 65.5,31.5 67.5,31.5C 71.5,32.8333 71.5,34.1667 67.5,35.5C 65.7354,34.5386 63.7354,34.2053 61.5,34.5C 61.5,33.5 61.5,32.5 61.5,31.5 Z"/></g>
<g><path style="opacity:1" fill="#91c4f0" d="M 32.5,31.5 C 32.5,32.5 32.5,33.5 32.5,34.5C 30.1667,34.5 27.8333,34.5 25.5,34.5C 24.6618,34.1583 24.3284,33.4916 24.5,32.5C 27.0961,31.7347 29.7628,31.4013 32.5,31.5 Z"/></g>
<g><path style="opacity:1" fill="#fcfdfb" d="M 32.5,31.5 C 42.1667,31.5 51.8333,31.5 61.5,31.5C 61.5,32.5 61.5,33.5 61.5,34.5C 63.7354,34.2053 65.7354,34.5386 67.5,35.5C 65.5,35.5 63.5,35.5 61.5,35.5C 62.3477,46.3224 57.3477,52.3224 46.5,53.5C 36.2021,51.8697 31.5354,45.8697 32.5,35.5C 30.1667,35.5 27.8333,35.5 25.5,35.5C 25.5,35.1667 25.5,34.8333 25.5,34.5C 27.8333,34.5 30.1667,34.5 32.5,34.5C 32.5,33.5 32.5,32.5 32.5,31.5 Z"/></g>
<g><path style="opacity:0.937" fill="#f9e78d" d="M 25.5,35.5 C 27.8333,35.5 30.1667,35.5 32.5,35.5C 31.5354,45.8697 36.2021,51.8697 46.5,53.5C 57.3477,52.3224 62.3477,46.3224 61.5,35.5C 63.5,35.5 65.5,35.5 67.5,35.5C 66.1818,43.1617 62.1818,48.8284 55.5,52.5C 50.3324,54.7075 44.9991,55.0408 39.5,53.5C 38.5052,58.7921 38.1718,64.1254 38.5,69.5C 37.5655,68.4324 37.2322,67.099 37.5,65.5C 37.6655,61.4862 37.4988,57.4862 37,53.5C 30.5447,49.2045 26.7113,43.2045 25.5,35.5 Z"/></g>
<g><path style="opacity:1" fill="#f7de74" d="M 55.5,52.5 C 55.5,56.8333 55.5,61.1667 55.5,65.5C 56.1534,72.5665 53.1534,76.8998 46.5,78.5C 41.7527,77.4161 39.086,74.4161 38.5,69.5C 38.1718,64.1254 38.5052,58.7921 39.5,53.5C 44.9991,55.0408 50.3324,54.7075 55.5,52.5 Z"/></g>
<g><path style="opacity:0.972" fill="#69b4f4" d="M 37.5,65.5 C 37.2322,67.099 37.5655,68.4324 38.5,69.5C 39.086,74.4161 41.7527,77.4161 46.5,78.5C 46.3253,80.6208 46.6586,82.6208 47.5,84.5C 45.4482,85.0527 45.1148,86.0527 46.5,87.5C 46.2786,90.2788 46.612,92.9455 47.5,95.5C 45.4482,96.0527 45.1148,97.0527 46.5,98.5C 46.5,99.1667 46.5,99.8333 46.5,100.5C 30.8333,100.5 15.1667,100.5 -0.5,100.5C -0.5,100.167 -0.5,99.8333 -0.5,99.5C 1.46144,92.6599 3.29477,85.6599 5,78.5C 12.365,66.0994 23.1984,61.7661 37.5,65.5 Z"/></g>
<g><path style="opacity:1" fill="#59adef" d="M 55.5,65.5 C 70.9399,61.5707 82.1066,66.5707 89,80.5C 90.3273,86.3429 91.8273,92.0096 93.5,97.5C 93.5,98.5 93.5,99.5 93.5,100.5C 77.8333,100.5 62.1667,100.5 46.5,100.5C 46.5,99.8333 46.5,99.1667 46.5,98.5C 48.3818,97.779 48.7152,96.779 47.5,95.5C 46.612,92.9455 46.2786,90.2788 46.5,87.5C 48.5518,86.9473 48.8852,85.9473 47.5,84.5C 46.6586,82.6208 46.3253,80.6208 46.5,78.5C 53.1534,76.8998 56.1534,72.5665 55.5,65.5 Z"/></g>
<g><path style="opacity:1" fill="#e7f3fc" d="M 47.5,84.5 C 48.8852,85.9473 48.5518,86.9473 46.5,87.5C 45.1148,86.0527 45.4482,85.0527 47.5,84.5 Z"/></g>
<g><path style="opacity:1" fill="#e4f1fc" d="M 47.5,95.5 C 48.7152,96.779 48.3818,97.779 46.5,98.5C 45.1148,97.0527 45.4482,96.0527 47.5,95.5 Z"/></g>
</svg>
