<?xml version="1.0" encoding="UTF-8"?>
<!DOCTYPE svg PUBLIC "-//W3C//DTD SVG 1.1//EN" "http://www.w3.org/Graphics/SVG/1.1/DTD/svg11.dtd">
<svg xmlns="http://www.w3.org/2000/svg" version="1.1" width="100px" height="104px" style="shape-rendering:geometricPrecision; text-rendering:geometricPrecision; image-rendering:optimizeQuality; fill-rule:evenodd; clip-rule:evenodd" xmlns:xlink="http://www.w3.org/1999/xlink">
<g><path style="opacity:0.739" fill="#3f4d66" d="M 6.5,-0.5 C 7.83333,-0.5 9.16667,-0.5 10.5,-0.5C 14.7791,3.96788 14.2791,7.96788 9,11.5C 8.50335,13.8098 8.33669,16.1432 8.5,18.5C 12.5138,18.3345 16.5138,18.5012 20.5,19C 27.3685,26.0359 34.3685,32.8693 41.5,39.5C 40.8333,40.5 40.1667,41.5 39.5,42.5C 38.8333,42.8333 38.1667,43.1667 37.5,43.5C 31.036,36.5351 24.3693,29.7018 17.5,23C 13.1126,22.774 8.7793,22.274 4.5,21.5C 3.67312,17.6084 4.00645,13.7751 5.5,10C 2.61495,6.05624 2.94828,2.55624 6.5,-0.5 Z"/></g>
<g><path style="opacity:0.753" fill="#414f67" d="M 47.5,-0.5 C 49.5,-0.5 51.5,-0.5 53.5,-0.5C 57.8124,7.79001 56.1457,14.9567 48.5,21C 54.7028,27.0352 60.7028,33.2019 66.5,39.5C 66.1667,40.1667 65.8333,40.8333 65.5,41.5C 64.8333,41.8333 64.1667,42.1667 63.5,42.5C 55.1716,35.0047 47.3383,27.0047 40,18.5C 38.6447,10.5571 41.1447,4.22377 47.5,-0.5 Z"/></g>
<g><path style="opacity:1" fill="#e1e2e3" d="M 49.5,2.5 C 50.4959,2.41423 51.3292,2.74756 52,3.5C 53.2187,8.89805 51.7187,13.398 47.5,17C 45.8659,17.4935 44.1992,17.6602 42.5,17.5C 41.9046,11.0286 44.238,6.02855 49.5,2.5 Z"/></g>
<g><path style="opacity:0.793" fill="#3f4d66" d="M 32.5,61.5 C 32.4431,62.609 32.1098,63.609 31.5,64.5C 30.8333,64.5 30.1667,64.5 29.5,64.5C 24.0362,58.5353 18.3696,52.7019 12.5,47C 8.06809,46.9444 3.73476,46.7777 -0.5,46.5C -0.5,41.5 -0.5,36.5 -0.5,31.5C 0.880401,30.2935 2.04707,30.6269 3,32.5C 3.49834,35.8168 3.66501,39.1501 3.5,42.5C 6.44753,42.7771 9.28086,42.4438 12,41.5C 19.3376,47.6712 26.1709,54.3379 32.5,61.5 Z"/></g>
<g><path style="opacity:1" fill="#5eaaf3" d="M 66.5,39.5 C 68.6547,39.372 70.6547,39.872 72.5,41C 81.4219,50.0902 90.4219,58.9236 99.5,67.5C 99.5,68.5 99.5,69.5 99.5,70.5C 98.5,71.1667 97.5,71.8333 96.5,72.5C 85.8333,62.5 75.5,52.1667 65.5,41.5C 65.8333,40.8333 66.1667,40.1667 66.5,39.5 Z"/></g>
<g><path style="opacity:1" fill="#5da9f2" d="M 41.5,39.5 C 44.5641,39.1437 47.2307,39.9771 49.5,42C 60.6958,53.5299 72.1958,64.6965 84,75.5C 86.3363,78.8068 85.8363,81.4734 82.5,83.5C 81.7611,83.631 81.0944,83.4643 80.5,83C 66.9652,69.2981 53.2985,55.7981 39.5,42.5C 40.1667,41.5 40.8333,40.5 41.5,39.5 Z"/></g>
<g><path style="opacity:0.911" fill="#68b3f4" d="M 39.5,42.5 C 53.2985,55.7981 66.9652,69.2981 80.5,83C 81.0944,83.4643 81.7611,83.631 82.5,83.5C 80.4371,87.5996 77.4371,88.4329 73.5,86C 62.0297,73.529 50.1964,61.3624 38,49.5C 37.5045,47.5273 37.3379,45.5273 37.5,43.5C 38.1667,43.1667 38.8333,42.8333 39.5,42.5 Z"/></g>
<g><path style="opacity:0.887" fill="#68b3f4" d="M 65.5,41.5 C 75.5,52.1667 85.8333,62.5 96.5,72.5C 95.5944,74.9137 93.9278,75.747 91.5,75C 82.3333,65.8333 73.1667,56.6667 64,47.5C 63.5065,45.8659 63.3398,44.1992 63.5,42.5C 64.1667,42.1667 64.8333,41.8333 65.5,41.5 Z"/></g>
<g><path style="opacity:1" fill="#5eaaf3" d="M 32.5,61.5 C 34.5273,61.3379 36.5273,61.5045 38.5,62C 49.6374,72.1366 60.4707,82.6366 71,93.5C 71.6667,95.5 71.6667,97.5 71,99.5C 70.6174,100.056 70.1174,100.389 69.5,100.5C 68.7611,100.631 68.0944,100.464 67.5,100C 55.6318,87.9647 43.6318,76.1313 31.5,64.5C 32.1098,63.609 32.4431,62.609 32.5,61.5 Z"/></g>
<g><path style="opacity:0.896" fill="#68b3f4" d="M 29.5,64.5 C 30.1667,64.5 30.8333,64.5 31.5,64.5C 43.6318,76.1313 55.6318,87.9647 67.5,100C 68.0944,100.464 68.7611,100.631 69.5,100.5C 68.8333,101.5 68.1667,102.5 67.5,103.5C 65.8333,103.5 64.1667,103.5 62.5,103.5C 51.5058,92.3387 40.6725,81.0054 30,69.5C 29.5065,67.8659 29.3398,66.1992 29.5,64.5 Z"/></g>
</svg>
