<?xml version="1.0" encoding="UTF-8"?>
<!DOCTYPE svg PUBLIC "-//W3C//DTD SVG 1.1//EN" "http://www.w3.org/Graphics/SVG/1.1/DTD/svg11.dtd">
<svg xmlns="http://www.w3.org/2000/svg" version="1.1" width="95px" height="105px" style="shape-rendering:geometricPrecision; text-rendering:geometricPrecision; image-rendering:optimizeQuality; fill-rule:evenodd; clip-rule:evenodd" xmlns:xlink="http://www.w3.org/1999/xlink">
<g><path style="opacity:0.888" fill="#404e67" d="M 11.5,-0.5 C 12.8333,-0.5 14.1667,-0.5 15.5,-0.5C 22.0826,2.65163 25.0826,7.98496 24.5,15.5C 24.7816,22.1041 22.4482,27.6041 17.5,32C 27.6937,40.6986 37.6937,49.532 47.5,58.5C 46.8333,59.5 46.1667,60.5 45.5,61.5C 45.1667,62.5 44.5,63.1667 43.5,63.5C 31.2901,52.4574 18.6234,41.9574 5.5,32C 2.60473,29.6782 0.60473,26.8448 -0.5,23.5C -0.5,20.1667 -0.5,16.8333 -0.5,13.5C 0.990492,6.67659 4.99049,2.00992 11.5,-0.5 Z"/></g>
<g><path style="opacity:0.943" fill="#ebebeb" d="M 73.5,5.5 C 71.1869,13.9802 70.8536,22.6469 72.5,31.5C 70.955,32.2297 70.1216,33.563 70,35.5C 69.8814,40.2824 69.2148,44.9491 68,49.5C 63.233,51.1258 59.8996,49.4592 58,44.5C 56.5211,36.7296 53.8545,29.3963 50,22.5C 47.546,11.123 52.046,4.45635 63.5,2.5C 66.8445,3.5081 70.1779,4.5081 73.5,5.5 Z"/></g>
<g><path style="opacity:1" fill="#e7e7e7" d="M 94.5,14.5 C 94.5,16.5 94.5,18.5 94.5,20.5C 89.8413,29.6199 85.8413,39.1199 82.5,49C 80.0446,50.6305 77.5446,50.7972 75,49.5C 74.6256,43.4145 73.7923,37.4145 72.5,31.5C 70.8536,22.6469 71.1869,13.9802 73.5,5.5C 76.9753,2.09193 80.9753,1.59193 85.5,4C 89.8325,6.4888 92.8325,9.9888 94.5,14.5 Z"/></g>
<g><path style="opacity:1" fill="#f8fafa" d="M 11.5,6.5 C 16.576,6.60774 18.9093,9.27441 18.5,14.5C 18.3785,17.6979 17.5451,20.6979 16,23.5C 9.18777,28.6389 6.02111,26.8055 6.5,18C 6.13167,13.2406 7.79833,9.40722 11.5,6.5 Z"/></g>
<g><path style="opacity:1" fill="#5ea9f2" d="M 47.5,58.5 C 49.9892,58.2978 52.3225,58.7978 54.5,60C 65.9822,69.9052 77.6489,79.5719 89.5,89C 94.2772,92.311 94.6106,95.811 90.5,99.5C 75.5,86.8333 60.5,74.1667 45.5,61.5C 46.1667,60.5 46.8333,59.5 47.5,58.5 Z"/></g>
<g><path style="opacity:0.913" fill="#68b3f4" d="M 45.5,61.5 C 60.5,74.1667 75.5,86.8333 90.5,99.5C 88.483,103.589 85.483,104.422 81.5,102C 69.0172,91.0181 56.6839,79.8515 44.5,68.5C 43.6906,66.9291 43.3573,65.2624 43.5,63.5C 44.5,63.1667 45.1667,62.5 45.5,61.5 Z"/></g>
<g><path style="opacity:0.928" fill="#ebebeb" d="M 20.5,67.5 C 20.189,68.4778 19.5223,69.1445 18.5,69.5C 17.1275,77.2751 17.4608,84.9418 19.5,92.5C 18.8423,91.6016 18.1757,90.6016 17.5,89.5C 16.0424,94.4296 15.0424,99.4296 14.5,104.5C 13.5,104.5 12.5,104.5 11.5,104.5C 10.3117,103.636 9.14508,102.636 8,101.5C 6.02316,94.0506 3.18982,87.0506 -0.5,80.5C -0.5,78.8333 -0.5,77.1667 -0.5,75.5C 3.00756,67.0874 9.00756,64.7541 17.5,68.5C 18.4168,67.8728 19.4168,67.5394 20.5,67.5 Z"/></g>
<g><path style="opacity:1" fill="#e7e7e7" d="M 23.5,104.5 C 22.5,104.5 21.5,104.5 20.5,104.5C 19.5701,100.6 19.2367,96.6002 19.5,92.5C 17.4608,84.9418 17.1275,77.2751 18.5,69.5C 19.5223,69.1445 20.189,68.4778 20.5,67.5C 28.8286,65.5133 33.8286,68.8466 35.5,77.5C 33.0607,84.0531 30.894,90.7198 29,97.5C 28.0332,100.621 26.1999,102.954 23.5,104.5 Z"/></g>
</svg>
