<?xml version="1.0" encoding="UTF-8"?>
<!DOCTYPE svg PUBLIC "-//W3C//DTD SVG 1.1//EN" "http://www.w3.org/Graphics/SVG/1.1/DTD/svg11.dtd">
<svg xmlns="http://www.w3.org/2000/svg" version="1.1" width="104px" height="103px" style="shape-rendering:geometricPrecision; text-rendering:geometricPrecision; image-rendering:optimizeQuality; fill-rule:evenodd; clip-rule:evenodd" xmlns:xlink="http://www.w3.org/1999/xlink">
<g><path style="opacity:0.798" fill="#eaeaeb" d="M 85.5,-0.5 C 88.8333,-0.5 92.1667,-0.5 95.5,-0.5C 99.3043,1.966 101.971,5.29934 103.5,9.5C 103.5,29.5 103.5,49.5 103.5,69.5C 101.365,76.9589 96.3649,81.2922 88.5,82.5C 87.2801,82.1131 86.6135,81.2798 86.5,80C 88.7888,78.0781 91.4555,76.7448 94.5,76C 96.8936,74.0478 98.3936,71.5478 99,68.5C 99.6667,49.1667 99.6667,29.8333 99,10.5C 97.1426,4.82162 93.3093,2.65495 87.5,4C 85,5.16667 83.1667,7 82,9.5C 81.5001,24.8297 81.3334,40.163 81.5,55.5C 80.2026,51.2667 78.8693,46.9334 77.5,42.5C 77.3335,31.1618 77.5001,19.8284 78,8.5C 79.268,4.40474 81.768,1.40474 85.5,-0.5 Z"/></g>
<g><path style="opacity:0.978" fill="#69b3f4" d="M 40.5,20.5 C 40.5,27.5 40.5,34.5 40.5,41.5C 41.791,41.2627 42.791,41.596 43.5,42.5C 41.5714,42.2308 39.9047,42.7308 38.5,44C 39.0442,44.7172 39.7109,45.2172 40.5,45.5C 40.5,56.1667 40.5,66.8333 40.5,77.5C 34.8597,77.4295 30.3597,75.0961 27,70.5C 25.7903,66.9129 24.2903,63.5795 22.5,60.5C 22.1407,74.469 29.1407,81.1356 43.5,80.5C 42.791,81.404 41.791,81.7373 40.5,81.5C 40.5,88.5 40.5,95.5 40.5,102.5C 37.5,102.5 34.5,102.5 31.5,102.5C 15.1667,97.5 4.5,86.8333 -0.5,70.5C -0.5,64.5 -0.5,58.5 -0.5,52.5C 5.5438,32.1281 19.2105,21.4614 40.5,20.5 Z"/></g>
<g><path style="opacity:1" fill="#5da9f2" d="M 40.5,20.5 C 57.0275,20.9252 69.3609,28.2585 77.5,42.5C 78.8693,46.9334 80.2026,51.2667 81.5,55.5C 82.6019,79.3665 71.9353,95.0332 49.5,102.5C 46.5,102.5 43.5,102.5 40.5,102.5C 40.5,95.5 40.5,88.5 40.5,81.5C 41.791,81.7373 42.791,81.404 43.5,80.5C 56.1544,76.9794 61.3211,68.6461 59,55.5C 56.2878,48.2289 51.1211,43.8955 43.5,42.5C 42.791,41.596 41.791,41.2627 40.5,41.5C 40.5,34.5 40.5,27.5 40.5,20.5 Z"/></g>
<g><path style="opacity:1" fill="#40506b" d="M 36.5,32.5 C 38.337,32.6395 38.6704,33.3061 37.5,34.5C 36.7025,34.0431 36.3691,33.3764 36.5,32.5 Z"/></g>
<g><path style="opacity:1" fill="#435a7a" d="M 47.5,33.5 C 50.5476,33.494 51.0476,34.494 49,36.5C 47.9614,35.7562 47.4614,34.7562 47.5,33.5 Z"/></g>
<g><path style="opacity:1" fill="#486283" d="M 24.5,35.5 C 25.5,35.5 26.5,35.5 27.5,35.5C 27.5,36.5 27.5,37.5 27.5,38.5C 26.5,38.5 25.5,38.5 24.5,38.5C 24.5,37.5 24.5,36.5 24.5,35.5 Z"/></g>
<g><path style="opacity:1" fill="#3f4d66" d="M 58.5,39.5 C 60.337,39.6395 60.6704,40.3061 59.5,41.5C 58.7025,41.0431 58.3691,40.3764 58.5,39.5 Z"/></g>
<g><path style="opacity:1" fill="#f5fafe" d="M 43.5,42.5 C 51.1211,43.8955 56.2878,48.2289 59,55.5C 61.3211,68.6461 56.1544,76.9794 43.5,80.5C 29.1407,81.1356 22.1407,74.469 22.5,60.5C 24.2903,63.5795 25.7903,66.9129 27,70.5C 30.3597,75.0961 34.8597,77.4295 40.5,77.5C 50.1357,76.531 55.469,71.1977 56.5,61.5C 55.4752,51.8085 50.1419,46.4752 40.5,45.5C 39.7109,45.2172 39.0442,44.7172 38.5,44C 39.9047,42.7308 41.5714,42.2308 43.5,42.5 Z"/></g>
<g><path style="opacity:1" fill="#425470" d="M 16.5,43.5 C 18.4646,43.9483 18.7979,44.9483 17.5,46.5C 16.6143,45.675 16.281,44.675 16.5,43.5 Z"/></g>
<g><path style="opacity:1" fill="#60aaf3" d="M 40.5,45.5 C 50.1419,46.4752 55.4752,51.8085 56.5,61.5C 55.469,71.1977 50.1357,76.531 40.5,77.5C 40.5,66.8333 40.5,56.1667 40.5,45.5 Z"/></g>
<g><path style="opacity:1" fill="#445b7c" d="M 65.5,48.5 C 67.4646,48.9483 67.7979,49.9483 66.5,51.5C 65.6143,50.675 65.281,49.675 65.5,48.5 Z"/></g>
<g><path style="opacity:1" fill="#465f7f" d="M 11.5,54.5 C 14.6741,54.9522 15.0075,55.9522 12.5,57.5C 11.6143,56.675 11.281,55.675 11.5,54.5 Z"/></g>
<g><path style="opacity:1" fill="#425572" d="M 68.5,59.5 C 69.7759,60.3864 69.7759,61.3864 68.5,62.5C 67.4376,61.5754 67.4376,60.5754 68.5,59.5 Z"/></g>
<g><path style="opacity:1" fill="#3f4e67" d="M 11.5,66.5 C 13.337,66.6395 13.6704,67.3061 12.5,68.5C 11.7025,68.0431 11.3691,67.3764 11.5,66.5 Z"/></g>
<g><path style="opacity:1" fill="#435878" d="M 65.5,71.5 C 67.4646,71.9483 67.7979,72.9483 66.5,74.5C 65.6143,73.675 65.281,72.675 65.5,71.5 Z"/></g>
<g><path style="opacity:1" fill="#3f4d66" d="M 16.5,77.5 C 18.337,77.6395 18.6704,78.3061 17.5,79.5C 16.7025,79.0431 16.3691,78.3764 16.5,77.5 Z"/></g>
<g><path style="opacity:1" fill="#425775" d="M 58.5,81.5 C 60.4646,81.9483 60.7979,82.9483 59.5,84.5C 58.6143,83.675 58.281,82.675 58.5,81.5 Z"/></g>
<g><path style="opacity:1" fill="#455c7a" d="M 25.5,84.5 C 27.4646,84.9483 27.7979,85.9483 26.5,87.5C 25.6143,86.675 25.281,85.675 25.5,84.5 Z"/></g>
<g><path style="opacity:1" fill="#435877" d="M 47.5,87.5 C 48.675,87.281 49.675,87.6143 50.5,88.5C 48.9483,89.7979 47.9483,89.4646 47.5,87.5 Z"/></g>
<g><path style="opacity:1" fill="#41516c" d="M 36.5,88.5 C 38.337,88.6395 38.6704,89.3061 37.5,90.5C 36.7025,90.0431 36.3691,89.3764 36.5,88.5 Z"/></g>
</svg>
