<?xml version="1.0" encoding="UTF-8"?>
<!DOCTYPE svg PUBLIC "-//W3C//DTD SVG 1.1//EN" "http://www.w3.org/Graphics/SVG/1.1/DTD/svg11.dtd">
<svg xmlns="http://www.w3.org/2000/svg" version="1.1" width="100px" height="100px" style="shape-rendering:geometricPrecision; text-rendering:geometricPrecision; image-rendering:optimizeQuality; fill-rule:evenodd; clip-rule:evenodd" xmlns:xlink="http://www.w3.org/1999/xlink">
<g><path style="opacity:0.494" fill="#5485b5" d="M -0.5,0.5 C -0.5,0.166667 -0.5,-0.166667 -0.5,-0.5C 32.8333,-0.5 66.1667,-0.5 99.5,-0.5C 99.5,3.83333 99.5,8.16667 99.5,12.5C 99.1667,12.5 98.8333,12.5 98.5,12.5C 98.5,8.5 98.5,4.5 98.5,0.5C 81.8333,0.5 65.1667,0.5 48.5,0.5C 32.1667,0.5 15.8333,0.5 -0.5,0.5 Z"/></g>
<g><path style="opacity:1" fill="#69b3f4" d="M -0.5,0.5 C 15.8333,0.5 32.1667,0.5 48.5,0.5C 48.5,4.5 48.5,8.5 48.5,12.5C 32.1667,12.5 15.8333,12.5 -0.5,12.5C -0.5,8.5 -0.5,4.5 -0.5,0.5 Z"/></g>
<g><path style="opacity:1" fill="#5da9f3" d="M 48.5,0.5 C 65.1667,0.5 81.8333,0.5 98.5,0.5C 98.5,4.5 98.5,8.5 98.5,12.5C 81.8333,12.5 65.1667,12.5 48.5,12.5C 48.5,8.5 48.5,4.5 48.5,0.5 Z"/></g>
<g><path style="opacity:1" fill="#e7f3fd" d="M 6.5,5.5 C 7.5,5.5 8.5,5.5 9.5,5.5C 8.75419,9.30997 7.75419,9.30997 6.5,5.5 Z"/></g>
<g><path style="opacity:1" fill="#edf6fd" d="M 18.5,5.5 C 21.2933,5.74001 21.7933,6.74001 20,8.5C 18.9614,7.75618 18.4614,6.75618 18.5,5.5 Z"/></g>
<g><path style="opacity:1" fill="#e8f3fd" d="M 29.5,5.5 C 30.5,5.5 31.5,5.5 32.5,5.5C 31.7542,9.30997 30.7542,9.30997 29.5,5.5 Z"/></g>
<g><path style="opacity:0.988" fill="#404e67" d="M -0.5,12.5 C 15.8333,12.5 32.1667,12.5 48.5,12.5C 48.5,33.8333 48.5,55.1667 48.5,76.5C 63.3428,76.1707 78.0095,76.504 92.5,77.5C 65.8333,77.5 39.1667,77.5 12.5,77.5C 11.8333,77.5 11.1667,77.5 10.5,77.5C 9.52333,80.2869 9.19,83.2869 9.5,86.5C 22.5,86.5 35.5,86.5 48.5,86.5C 48.5,90.8333 48.5,95.1667 48.5,99.5C 32.1667,99.5 15.8333,99.5 -0.5,99.5C -0.5,70.5 -0.5,41.5 -0.5,12.5 Z"/></g>
<g><path style="opacity:1" fill="#36425a" d="M 48.5,12.5 C 65.1667,12.5 81.8333,12.5 98.5,12.5C 98.8333,12.5 99.1667,12.5 99.5,12.5C 99.5,41.5 99.5,70.5 99.5,99.5C 82.5,99.5 65.5,99.5 48.5,99.5C 48.5,95.1667 48.5,90.8333 48.5,86.5C 63.5,86.5 78.5,86.5 93.5,86.5C 93.81,83.2869 93.4767,80.2869 92.5,77.5C 78.0095,76.504 63.3428,76.1707 48.5,76.5C 48.5,55.1667 48.5,33.8333 48.5,12.5 Z"/></g>
<g><path style="opacity:1" fill="#e6e6e6" d="M 14.5,21.5 C 18.2746,21.0719 21.7746,21.7386 25,23.5C 37.3546,19.3283 43.3546,23.6616 43,36.5C 39.4499,43.9072 36.2833,51.4072 33.5,59C 31.3209,60.9869 29.4876,60.8202 28,58.5C 27.6489,53.8024 27.1489,49.1358 26.5,44.5C 25.5,44.5 24.5,44.5 23.5,44.5C 22.9108,49.4805 22.4108,54.4805 22,59.5C 18.2416,60.152 15.5749,58.4853 14,54.5C 11.9934,46.9799 9.49344,39.6466 6.5,32.5C 7.63039,27.7048 10.2971,24.0381 14.5,21.5 Z"/></g>
<g><path style="opacity:1" fill="#5ca6ef" d="M 54.5,24.5 C 67.3226,23.5045 80.3226,23.1712 93.5,23.5C 93.5,26.5 93.5,29.5 93.5,32.5C 92.5,32.5 91.5,32.5 90.5,32.5C 78.7511,29.2145 66.7511,26.5478 54.5,24.5 Z"/></g>
<g><path style="opacity:1" fill="#68b3f4" d="M 54.5,24.5 C 66.7511,26.5478 78.7511,29.2145 90.5,32.5C 78.5,32.5 66.5,32.5 54.5,32.5C 54.5,29.8333 54.5,27.1667 54.5,24.5 Z"/></g>
<g><path style="opacity:1" fill="#68b3f4" d="M 54.5,41.5 C 55.5,41.5 56.5,41.5 57.5,41.5C 67.7954,44.3238 78.1287,46.9905 88.5,49.5C 77.1667,49.5 65.8333,49.5 54.5,49.5C 54.5,46.8333 54.5,44.1667 54.5,41.5 Z"/></g>
<g><path style="opacity:1" fill="#5da9f3" d="M 57.5,41.5 C 69.1667,41.5 80.8333,41.5 92.5,41.5C 92.5,44.1667 92.5,46.8333 92.5,49.5C 91.1667,49.5 89.8333,49.5 88.5,49.5C 78.1287,46.9905 67.7954,44.3238 57.5,41.5 Z"/></g>
<g><path style="opacity:1" fill="#4e79a7" d="M 54.5,41.5 C 67.3226,40.5045 80.3226,40.1712 93.5,40.5C 93.5,43.8333 93.5,47.1667 93.5,50.5C 80.3226,50.8288 67.3226,50.4955 54.5,49.5C 65.8333,49.5 77.1667,49.5 88.5,49.5C 89.8333,49.5 91.1667,49.5 92.5,49.5C 92.5,46.8333 92.5,44.1667 92.5,41.5C 80.8333,41.5 69.1667,41.5 57.5,41.5C 56.5,41.5 55.5,41.5 54.5,41.5 Z"/></g>
<g><path style="opacity:1" fill="#5ca6ef" d="M 54.5,59.5 C 67.3226,58.5045 80.3226,58.1712 93.5,58.5C 93.5,61.5 93.5,64.5 93.5,67.5C 92.5,67.5 91.5,67.5 90.5,67.5C 78.7473,64.2315 66.7473,61.5648 54.5,59.5 Z"/></g>
<g><path style="opacity:1" fill="#68b3f4" d="M 54.5,59.5 C 66.7473,61.5648 78.7473,64.2315 90.5,67.5C 78.5,67.5 66.5,67.5 54.5,67.5C 54.5,64.8333 54.5,62.1667 54.5,59.5 Z"/></g>
<g><path style="opacity:1" fill="#5a95cb" d="M 10.5,77.5 C 10.5,80.1667 10.5,82.8333 10.5,85.5C 33.5,85.5 56.5,85.5 79.5,85.5C 83.8333,85.5 88.1667,85.5 92.5,85.5C 92.5,82.8333 92.5,80.1667 92.5,77.5C 93.4767,80.2869 93.81,83.2869 93.5,86.5C 78.5,86.5 63.5,86.5 48.5,86.5C 35.5,86.5 22.5,86.5 9.5,86.5C 9.19,83.2869 9.52333,80.2869 10.5,77.5 Z"/></g>
<g><path style="opacity:1" fill="#5da9f3" d="M 12.5,77.5 C 39.1667,77.5 65.8333,77.5 92.5,77.5C 92.5,80.1667 92.5,82.8333 92.5,85.5C 88.1667,85.5 83.8333,85.5 79.5,85.5C 57.1667,82.8333 34.8333,80.1667 12.5,77.5 Z"/></g>
<g><path style="opacity:1" fill="#68b3f4" d="M 10.5,77.5 C 11.1667,77.5 11.8333,77.5 12.5,77.5C 34.8333,80.1667 57.1667,82.8333 79.5,85.5C 56.5,85.5 33.5,85.5 10.5,85.5C 10.5,82.8333 10.5,80.1667 10.5,77.5 Z"/></g>
</svg>
