<?xml version="1.0" encoding="UTF-8"?>
<!DOCTYPE svg PUBLIC "-//W3C//DTD SVG 1.1//EN" "http://www.w3.org/Graphics/SVG/1.1/DTD/svg11.dtd">
<svg xmlns="http://www.w3.org/2000/svg" version="1.1" width="101px" height="82px" style="shape-rendering:geometricPrecision; text-rendering:geometricPrecision; image-rendering:optimizeQuality; fill-rule:evenodd; clip-rule:evenodd" xmlns:xlink="http://www.w3.org/1999/xlink">
<g><path style="opacity:0.946" fill="#ebebeb" d="M 48.5,-0.5 C 50.8333,-0.5 53.1667,-0.5 55.5,-0.5C 57.6845,1.5848 60.3511,2.5848 63.5,2.5C 62.2218,7.25248 61.5551,12.2525 61.5,17.5C 61.6958,23.6016 62.3625,29.6016 63.5,35.5C 62.8423,34.6016 62.1757,33.6016 61.5,32.5C 60.914,32.7093 60.414,33.0426 60,33.5C 58.8613,39.4361 58.1946,45.4361 58,51.5C 56.7109,54.0743 54.8776,54.741 52.5,53.5C 53.072,52.0267 53.9054,50.6934 55,49.5C 55.6667,47.8333 55.6667,46.1667 55,44.5C 51.9433,45.4505 48.7766,45.7839 45.5,45.5C 42.8586,35.4087 39.5252,25.5753 35.5,16C 36.7068,7.96755 41.0402,2.46755 48.5,-0.5 Z"/></g>
<g><path style="opacity:1" fill="#e7e7e7" d="M 66.5,-0.5 C 68.8333,-0.5 71.1667,-0.5 73.5,-0.5C 84.104,3.02998 88.2706,10.3633 86,21.5C 81.6217,31.6482 77.4551,41.8149 73.5,52C 70.6772,54.7058 67.8439,54.8724 65,52.5C 64.5545,46.8202 64.0545,41.1535 63.5,35.5C 62.3625,29.6016 61.6958,23.6016 61.5,17.5C 61.5551,12.2525 62.2218,7.25248 63.5,2.5C 64.3065,1.27187 65.3065,0.271873 66.5,-0.5 Z"/></g>
<g><path style="opacity:0.962" fill="#f8e380" d="M 45.5,45.5 C 48.7766,45.7839 51.9433,45.4505 55,44.5C 55.6667,46.1667 55.6667,47.8333 55,49.5C 53.9054,50.6934 53.072,52.0267 52.5,53.5C 47.7448,55.4861 42.7448,56.6527 37.5,57C 44.1934,59.8976 51.0267,62.3976 58,64.5C 69.29,61.3441 80.6233,58.3441 92,55.5C 95.4497,55.804 97.9497,57.4707 99.5,60.5C 85.4676,64.8049 71.6343,69.8049 58,75.5C 44.3043,72.164 30.6376,68.8307 17,65.5C 15.872,67.3453 15.372,69.3453 15.5,71.5C 14.1667,63.1667 14.1667,54.8333 15.5,46.5C 18.7831,43.1939 22.7831,41.5273 27.5,41.5C 33.347,43.4174 39.347,44.7507 45.5,45.5 Z"/></g>
<g><path style="opacity:1" fill="#6b9cd1" d="M -0.5,42.5 C 2.16667,42.5 4.83333,42.5 7.5,42.5C 7.5,53.5 7.5,64.5 7.5,75.5C 4.83333,75.5 2.16667,75.5 -0.5,75.5C -0.5,64.5 -0.5,53.5 -0.5,42.5 Z"/></g>
<g><path style="opacity:0.975" fill="#69b3f3" d="M 7.5,42.5 C 10.1667,42.5 12.8333,42.5 15.5,42.5C 15.5,43.8333 15.5,45.1667 15.5,46.5C 14.1667,54.8333 14.1667,63.1667 15.5,71.5C 15.5,71.8333 15.5,72.1667 15.5,72.5C 15.5,73.5 15.5,74.5 15.5,75.5C 12.8333,75.5 10.1667,75.5 7.5,75.5C 7.5,64.5 7.5,53.5 7.5,42.5 Z"/></g>
<g><path style="opacity:0.996" fill="#f9df74" d="M 99.5,60.5 C 99.5,61.1667 99.8333,61.5 100.5,61.5C 100.5,62.5 100.5,63.5 100.5,64.5C 87.2927,70.5657 73.9594,76.2324 60.5,81.5C 57.8333,81.5 55.1667,81.5 52.5,81.5C 40.3892,78.0563 28.0558,75.0563 15.5,72.5C 15.5,72.1667 15.5,71.8333 15.5,71.5C 15.372,69.3453 15.872,67.3453 17,65.5C 30.6376,68.8307 44.3043,72.164 58,75.5C 71.6343,69.8049 85.4676,64.8049 99.5,60.5 Z"/></g>
</svg>
