<?xml version="1.0" encoding="UTF-8"?>
<!DOCTYPE svg PUBLIC "-//W3C//DTD SVG 1.1//EN" "http://www.w3.org/Graphics/SVG/1.1/DTD/svg11.dtd">
<svg xmlns="http://www.w3.org/2000/svg" version="1.1" width="94px" height="101px" style="shape-rendering:geometricPrecision; text-rendering:geometricPrecision; image-rendering:optimizeQuality; fill-rule:evenodd; clip-rule:evenodd" xmlns:xlink="http://www.w3.org/1999/xlink">
<g><path style="opacity:0.968" fill="#eaeaea" d="M 28.5,-0.5 C 29.8333,-0.5 31.1667,-0.5 32.5,-0.5C 37.3113,2.0702 42.3113,4.40353 47.5,6.5C 46.5975,9.39147 46.2641,12.3915 46.5,15.5C 35.6949,16.4725 29.6949,22.3059 28.5,33C 28.6848,43.2565 33.6848,49.4232 43.5,51.5C 44.209,52.404 45.209,52.7373 46.5,52.5C 46.5,54.8333 46.5,57.1667 46.5,59.5C 48.1788,59.2852 49.1788,59.9519 49.5,61.5C 47.6612,60.2475 45.8278,60.2475 44,61.5C 41.1421,72.6398 39.8087,83.9731 40,95.5C 39.6339,97.4517 38.8005,99.1184 37.5,100.5C 34.8333,100.5 32.1667,100.5 29.5,100.5C 23.734,97.5545 19.9007,92.8879 18,86.5C 15,76.5 12,66.5 9,56.5C 5.50722,49.8533 2.34055,43.1866 -0.5,36.5C -0.5,32.1667 -0.5,27.8333 -0.5,23.5C 4.31366,9.69021 13.9803,1.69021 28.5,-0.5 Z"/></g>
<g><path style="opacity:1" fill="#e6e6e6" d="M 60.5,-0.5 C 61.8333,-0.5 63.1667,-0.5 64.5,-0.5C 79.0197,1.69021 88.6863,9.69021 93.5,23.5C 93.5,28.1667 93.5,32.8333 93.5,37.5C 84.897,52.7953 78.7303,69.1287 75,86.5C 73.0993,92.8879 69.266,97.5545 63.5,100.5C 60.8333,100.5 58.1667,100.5 55.5,100.5C 54.1995,99.1184 53.3661,97.4517 53,95.5C 53.0272,84.0218 51.8606,72.6885 49.5,61.5C 49.1788,59.9519 48.1788,59.2852 46.5,59.5C 46.5,57.1667 46.5,54.8333 46.5,52.5C 45.209,52.7373 44.209,52.404 43.5,51.5C 44.5,51.5 45.5,51.5 46.5,51.5C 58.3512,51.1478 64.3512,44.9811 64.5,33C 63.3216,22.3227 57.3216,16.4893 46.5,15.5C 46.2641,12.3915 46.5975,9.39147 47.5,6.5C 51.6498,3.64975 55.9831,1.31642 60.5,-0.5 Z"/></g>
<g><path style="opacity:1" fill="#414f68" d="M 46.5,15.5 C 46.5,17.5 46.5,19.5 46.5,21.5C 45.1667,21.5 43.8333,21.5 42.5,21.5C 42.5,24.5 42.5,27.5 42.5,30.5C 39.8333,30.5 37.1667,30.5 34.5,30.5C 34.5,32.8333 34.5,35.1667 34.5,37.5C 37.1667,37.5 39.8333,37.5 42.5,37.5C 42.5,40.1667 42.5,42.8333 42.5,45.5C 43.8333,45.5 45.1667,45.5 46.5,45.5C 46.5,47.5 46.5,49.5 46.5,51.5C 45.5,51.5 44.5,51.5 43.5,51.5C 33.6848,49.4232 28.6848,43.2565 28.5,33C 29.6949,22.3059 35.6949,16.4725 46.5,15.5 Z"/></g>
<g><path style="opacity:1" fill="#38445c" d="M 46.5,15.5 C 57.3216,16.4893 63.3216,22.3227 64.5,33C 64.3512,44.9811 58.3512,51.1478 46.5,51.5C 46.5,49.5 46.5,47.5 46.5,45.5C 47.8333,45.5 49.1667,45.5 50.5,45.5C 50.5,42.8333 50.5,40.1667 50.5,37.5C 53.1667,37.5 55.8333,37.5 58.5,37.5C 58.5,35.1667 58.5,32.8333 58.5,30.5C 55.8333,30.5 53.1667,30.5 50.5,30.5C 50.5,27.5 50.5,24.5 50.5,21.5C 49.1667,21.5 47.8333,21.5 46.5,21.5C 46.5,19.5 46.5,17.5 46.5,15.5 Z"/></g>
<g><path style="opacity:1" fill="#66aeed" d="M 46.5,22.5 C 46.5,30.1667 46.5,37.8333 46.5,45.5C 45.1667,45.5 43.8333,45.5 42.5,45.5C 42.5,42.8333 42.5,40.1667 42.5,37.5C 39.8333,37.5 37.1667,37.5 34.5,37.5C 34.5,35.1667 34.5,32.8333 34.5,30.5C 37.1667,30.5 39.8333,30.5 42.5,30.5C 43.4731,28.0521 43.8064,25.3854 43.5,22.5C 44.5,22.5 45.5,22.5 46.5,22.5 Z"/></g>
<g><path style="opacity:1" fill="#5ba4ec" d="M 46.5,22.5 C 47.5,22.5 48.5,22.5 49.5,22.5C 49.1936,25.3854 49.5269,28.0521 50.5,30.5C 53.1667,30.5 55.8333,30.5 58.5,30.5C 58.5,32.8333 58.5,35.1667 58.5,37.5C 55.8333,37.5 53.1667,37.5 50.5,37.5C 50.5,40.1667 50.5,42.8333 50.5,45.5C 49.1667,45.5 47.8333,45.5 46.5,45.5C 46.5,37.8333 46.5,30.1667 46.5,22.5 Z"/></g>
<g><path style="opacity:1" fill="#4d78a6" d="M 46.5,21.5 C 47.8333,21.5 49.1667,21.5 50.5,21.5C 50.5,24.5 50.5,27.5 50.5,30.5C 49.5269,28.0521 49.1936,25.3854 49.5,22.5C 48.5,22.5 47.5,22.5 46.5,22.5C 45.5,22.5 44.5,22.5 43.5,22.5C 43.8064,25.3854 43.4731,28.0521 42.5,30.5C 42.5,27.5 42.5,24.5 42.5,21.5C 43.8333,21.5 45.1667,21.5 46.5,21.5 Z"/></g>
</svg>
