<?xml version="1.0" encoding="UTF-8"?>
<!DOCTYPE svg PUBLIC "-//W3C//DTD SVG 1.1//EN" "http://www.w3.org/Graphics/SVG/1.1/DTD/svg11.dtd">
<svg xmlns="http://www.w3.org/2000/svg" version="1.1" width="102px" height="101px" style="shape-rendering:geometricPrecision; text-rendering:geometricPrecision; image-rendering:optimizeQuality; fill-rule:evenodd; clip-rule:evenodd" xmlns:xlink="http://www.w3.org/1999/xlink">
<g><path style="opacity:0.829" fill="#3f4d66" d="M 76.5,-0.5 C 84.5,-0.5 92.5,-0.5 100.5,-0.5C 100.5,0.166667 100.833,0.5 101.5,0.5C 101.5,1.16667 101.5,1.83333 101.5,2.5C 100.711,2.78281 100.044,3.28281 99.5,4C 92.5,4.33333 85.5,4.66667 78.5,5C 74.9753,7.69804 71.6419,10.5314 68.5,13.5C 66.9382,13.2671 65.6049,12.6005 64.5,11.5C 64.5,10.8333 64.5,10.1667 64.5,9.5C 68.817,6.51364 72.817,3.1803 76.5,-0.5 Z"/></g>
<g><path style="opacity:0.887" fill="#68b3f4" d="M 64.5,9.5 C 64.5,10.1667 64.5,10.8333 64.5,11.5C 61.6644,14.5127 59.3311,17.846 57.5,21.5C 52.3078,17.49 48.1411,12.8233 45,7.5C 52.052,2.00463 58.552,2.6713 64.5,9.5 Z"/></g>
<g><path style="opacity:1" fill="#5eaaf3" d="M 64.5,11.5 C 65.6049,12.6005 66.9382,13.2671 68.5,13.5C 74.28,19.466 74.9466,25.966 70.5,33C 65.5117,30.1949 61.1784,26.3616 57.5,21.5C 59.3311,17.846 61.6644,14.5127 64.5,11.5 Z"/></g>
<g><path style="opacity:0.69" fill="#f9e47f" d="M 41.5,17.5 C 42.8333,17.5 44.1667,17.5 45.5,17.5C 45.118,21.8964 42.7847,24.8964 38.5,26.5C 37.3691,24.9255 37.2025,23.2588 38,21.5C 39.3756,20.2949 40.5423,18.9616 41.5,17.5 Z"/></g>
<g><path style="opacity:0.681" fill="#f9e47f" d="M 47.5,23.5 C 48.8333,23.5 50.1667,23.5 51.5,23.5C 50.9575,28.3764 48.2908,31.3764 43.5,32.5C 43.3398,30.8008 43.5065,29.1341 44,27.5C 45.3756,26.2949 46.5423,24.9616 47.5,23.5 Z"/></g>
<g><path style="opacity:0.931" fill="#3f4d66" d="M 2.5,30.5 C 6.43687,29.1198 10.4369,29.2864 14.5,31C 18.5388,36.242 22.2055,41.742 25.5,47.5C 35.8173,48.3323 46.1506,48.8323 56.5,49C 58.0429,50.8783 59.8762,52.3783 62,53.5C 63.2542,57.1114 62.0876,58.6114 58.5,58C 57.1218,56.2866 55.4552,54.9533 53.5,54C 45.5,53.3333 37.5,53.3333 29.5,54C 30.7079,56.2503 32.0413,58.417 33.5,60.5C 47.5558,61.0514 61.5558,61.8847 75.5,63C 82.6169,67.7825 89.4503,72.9492 96,78.5C 96.6667,80.8333 96.6667,83.1667 96,85.5C 95.6174,86.056 95.1174,86.3893 94.5,86.5C 87.6855,80.2043 80.3521,74.371 72.5,69C 59.8412,69.2771 47.1745,69.2771 34.5,69C 32.0481,68.7105 29.7148,68.0438 27.5,67C 20.0371,55.9129 13.2037,44.4129 7,32.5C 5.89037,30.9632 4.39037,30.2965 2.5,30.5 Z"/></g>
<g><path style="opacity:0.779" fill="#f9e47f" d="M 54.5,29.5 C 55.5,29.5 56.5,29.5 57.5,29.5C 56.9575,34.3764 54.2908,37.3764 49.5,38.5C 49.3433,37.1266 49.51,35.7932 50,34.5C 51.7073,32.9625 53.2073,31.2959 54.5,29.5 Z"/></g>
<g><path style="opacity:1" fill="#475873" d="M 2.5,30.5 C 4.39037,30.2965 5.89037,30.9632 7,32.5C 13.2037,44.4129 20.0371,55.9129 27.5,67C 29.7148,68.0438 32.0481,68.7105 34.5,69C 47.1745,69.2771 59.8412,69.2771 72.5,69C 80.3521,74.371 87.6855,80.2043 94.5,86.5C 92.1189,87.8303 89.7856,87.6636 87.5,86C 82.2675,80.5649 76.2675,76.3983 69.5,73.5C 57.1667,73.5 44.8333,73.5 32.5,73.5C 27.1004,74.2151 22.6004,72.5485 19,68.5C 12.7258,56.9409 6.22579,45.6076 -0.5,34.5C -0.5,33.5 -0.5,32.5 -0.5,31.5C 0.391047,30.8902 1.39105,30.5569 2.5,30.5 Z"/></g>
<g><path style="opacity:1" fill="#5da9f3" d="M 32.5,73.5 C 44.8333,73.5 57.1667,73.5 69.5,73.5C 69.5,77.8333 69.5,82.1667 69.5,86.5C 57.1667,87.8333 44.8333,87.8333 32.5,86.5C 32.5,82.1667 32.5,77.8333 32.5,73.5 Z"/></g>
<g><path style="opacity:0.934" fill="#69b4f5" d="M 32.5,86.5 C 44.8333,87.8333 57.1667,87.8333 69.5,86.5C 73.6049,86.2338 77.6049,86.7338 81.5,88C 83.4388,89.4321 84.7721,91.2654 85.5,93.5C 59.1667,93.5 32.8333,93.5 6.5,93.5C 6.44431,90.4392 7.77764,88.2725 10.5,87C 17.8258,86.5003 25.1591,86.3337 32.5,86.5 Z"/></g>
<g><path style="opacity:1" fill="#6a9dd2" d="M 6.5,93.5 C 32.8333,93.5 59.1667,93.5 85.5,93.5C 85.8342,96.188 85.1675,98.5214 83.5,100.5C 58.5,100.5 33.5,100.5 8.5,100.5C 7.06054,98.412 6.39387,96.0786 6.5,93.5 Z"/></g>
</svg>
