<?xml version="1.0" encoding="UTF-8"?>
<!DOCTYPE svg PUBLIC "-//W3C//DTD SVG 1.1//EN" "http://www.w3.org/Graphics/SVG/1.1/DTD/svg11.dtd">
<svg xmlns="http://www.w3.org/2000/svg" version="1.1" width="108px" height="101px" style="shape-rendering:geometricPrecision; text-rendering:geometricPrecision; image-rendering:optimizeQuality; fill-rule:evenodd; clip-rule:evenodd" xmlns:xlink="http://www.w3.org/1999/xlink">
<g><path style="opacity:0.971" fill="#e9e9e9" d="M 25.5,-0.5 C 28.8333,-0.5 32.1667,-0.5 35.5,-0.5C 39.0955,1.88177 42.9289,3.88177 47,5.5C 51.0711,3.88177 54.9045,1.88177 58.5,-0.5C 61.8333,-0.5 65.1667,-0.5 68.5,-0.5C 93.7416,8.88414 100.075,25.5508 87.5,49.5C 85.8333,48.1667 84.1667,46.8333 82.5,45.5C 83.3705,42.8877 84.0372,40.221 84.5,37.5C 85.4458,22.5973 78.2792,14.5973 63,13.5C 53.2536,14.2298 46.5869,19.2298 43,28.5C 42.5045,30.4727 42.3379,32.4727 42.5,34.5C 43.1568,47.6559 49.9902,54.6559 63,55.5C 66.986,55.5675 70.8193,54.9008 74.5,53.5C 77.1379,56.4744 79.8046,59.4744 82.5,62.5C 79.9352,72.7218 76.4352,82.7218 72,92.5C 69.3054,95.7587 66.1388,98.4254 62.5,100.5C 60.8333,100.5 59.1667,100.5 57.5,100.5C 55.3041,99.1459 53.8041,97.1459 53,94.5C 53.1756,83.4968 52.009,72.6634 49.5,62C 47.3235,58.5063 45.4901,58.673 44,62.5C 41.31,72.3727 40.31,82.3727 41,92.5C 40.5128,95.8007 39.0128,98.4674 36.5,100.5C 34.8333,100.5 33.1667,100.5 31.5,100.5C 25.5459,98.0433 21.3792,93.7099 19,87.5C 15.8676,78.6368 13.2009,69.6368 11,60.5C 7.36829,51.5852 3.53495,42.9185 -0.5,34.5C -0.5,31.1667 -0.5,27.8333 -0.5,24.5C 3.5977,11.4021 12.2644,3.06875 25.5,-0.5 Z"/></g>
<g><path style="opacity:1" fill="#6eb5f4" d="M 84.5,37.5 C 84.7373,36.209 84.404,35.209 83.5,34.5C 70.1667,19.8333 56.8333,19.8333 43.5,34.5C 43.1667,34.5 42.8333,34.5 42.5,34.5C 42.3379,32.4727 42.5045,30.4727 43,28.5C 46.5869,19.2298 53.2536,14.2298 63,13.5C 78.2792,14.5973 85.4458,22.5973 84.5,37.5 Z"/></g>
<g><path style="opacity:1" fill="#fdfefe" d="M 20.5,15.5 C 28.8961,17.1166 30.5628,21.2832 25.5,28C 18.1699,29.6662 15.0032,26.8329 16,19.5C 17.3968,17.9297 18.8968,16.5964 20.5,15.5 Z"/></g>
<g><path style="opacity:1" fill="#f5fafe" d="M 83.5,34.5 C 70.1667,49.1667 56.8333,49.1667 43.5,34.5C 56.8333,19.8333 70.1667,19.8333 83.5,34.5 Z"/></g>
<g><path style="opacity:1" fill="#66adf1" d="M 60.5,24.5 C 70.5032,24.0016 74.6698,28.6683 73,38.5C 70.2588,43.4186 66.0921,45.2519 60.5,44C 51.234,37.4526 51.234,30.9526 60.5,24.5 Z"/></g>
<g><path style="opacity:1" fill="#3a4862" d="M 57.5,34.5 C 58.5,34.5 59.5,34.5 60.5,34.5C 60.5674,33.0413 60.2341,31.7079 59.5,30.5C 62.9152,27.6105 66.0819,27.9438 69,31.5C 70.378,37.7876 67.878,40.6209 61.5,40C 59.0718,38.9817 57.7385,37.1483 57.5,34.5 Z"/></g>
<g><path style="opacity:1" fill="#edf2f5" d="M 59.5,30.5 C 60.2341,31.7079 60.5674,33.0413 60.5,34.5C 59.5,34.5 58.5,34.5 57.5,34.5C 55.9976,32.1707 56.6643,30.8373 59.5,30.5 Z"/></g>
<g><path style="opacity:1" fill="#5faaf2" d="M 42.5,34.5 C 42.8333,34.5 43.1667,34.5 43.5,34.5C 56.8333,49.1667 70.1667,49.1667 83.5,34.5C 84.404,35.209 84.7373,36.209 84.5,37.5C 84.0372,40.221 83.3705,42.8877 82.5,45.5C 81.5116,46.795 80.5116,48.1283 79.5,49.5C 77.8089,50.8637 76.1423,52.197 74.5,53.5C 70.8193,54.9008 66.986,55.5675 63,55.5C 49.9902,54.6559 43.1568,47.6559 42.5,34.5 Z"/></g>
<g><path style="opacity:0.995" fill="#37435b" d="M 82.5,45.5 C 84.1667,46.8333 85.8333,48.1667 87.5,49.5C 93.8683,55.8702 100.535,61.8702 107.5,67.5C 107.5,69.5 107.5,71.5 107.5,73.5C 106.833,74.1667 106.167,74.8333 105.5,75.5C 96.5,67.1667 87.8333,58.5 79.5,49.5C 80.5116,48.1283 81.5116,46.795 82.5,45.5 Z"/></g>
<g><path style="opacity:0.931" fill="#3f4d66" d="M 79.5,49.5 C 87.8333,58.5 96.5,67.1667 105.5,75.5C 102.68,78.7608 99.3463,79.2608 95.5,77C 91.3297,71.9977 86.9964,67.1644 82.5,62.5C 79.8046,59.4744 77.1379,56.4744 74.5,53.5C 76.1423,52.197 77.8089,50.8637 79.5,49.5 Z"/></g>
</svg>
