<?xml version="1.0" encoding="UTF-8"?>
<!DOCTYPE svg PUBLIC "-//W3C//DTD SVG 1.1//EN" "http://www.w3.org/Graphics/SVG/1.1/DTD/svg11.dtd">
<svg xmlns="http://www.w3.org/2000/svg" version="1.1" width="101px" height="102px" style="shape-rendering:geometricPrecision; text-rendering:geometricPrecision; image-rendering:optimizeQuality; fill-rule:evenodd; clip-rule:evenodd" xmlns:xlink="http://www.w3.org/1999/xlink">
<g><path style="opacity:0.999" fill="#36435b" d="M 32.5,-0.5 C 40.1667,-0.5 47.8333,-0.5 55.5,-0.5C 58.7969,1.13348 60.4636,3.80015 60.5,7.5C 60.5,12.1667 60.5,16.8333 60.5,21.5C 60.7406,23.8984 60.0739,25.8984 58.5,27.5C 48.8397,19.1726 39.5064,10.5059 30.5,1.5C 31.1667,0.833333 31.8333,0.166667 32.5,-0.5 Z"/></g>
<g><path style="opacity:0.949" fill="#3e4c65" d="M 30.5,1.5 C 39.5064,10.5059 48.8397,19.1726 58.5,27.5C 57.158,28.793 55.4913,29.6264 53.5,30C 46.086,30.8903 38.7527,30.557 31.5,29C 29.5612,27.5679 28.2279,25.7346 27.5,23.5C 28.4896,17.69 28.8229,11.69 28.5,5.5C 28.2291,3.6203 28.8958,2.28696 30.5,1.5 Z"/></g>
<g><path style="opacity:0.896" fill="#67b0f0" d="M 28.5,5.5 C 28.8229,11.69 28.4896,17.69 27.5,23.5C 22.9559,23.2881 20.2892,20.9548 19.5,16.5C 19.5,15.1667 19.5,13.8333 19.5,12.5C 21.0458,8.28655 24.0458,5.95321 28.5,5.5 Z"/></g>
<g><path style="opacity:0.93" fill="#69b4f5" d="M 60.5,7.5 C 67.175,7.33375 73.8417,7.50042 80.5,8C 88.2196,9.38583 93.0529,13.8858 95,21.5C 95.4998,32.1615 95.6665,42.8281 95.5,53.5C 90.8333,53.5 86.1667,53.5 81.5,53.5C 81.6665,43.4944 81.4998,33.4944 81,23.5C 80.5,23 80,22.5 79.5,22C 73.1754,21.5005 66.8421,21.3338 60.5,21.5C 60.5,16.8333 60.5,12.1667 60.5,7.5 Z"/></g>
<g><path style="opacity:0.794" fill="#3f4d66" d="M 19.5,12.5 C 19.5,13.8333 19.5,15.1667 19.5,16.5C 12.7446,16.7934 6.07794,16.4601 -0.5,15.5C -0.5,15.1667 -0.5,14.8333 -0.5,14.5C 0.28913,14.2172 0.955796,13.7172 1.5,13C 7.49076,12.5005 13.4908,12.3338 19.5,12.5 Z"/></g>
<g><path style="opacity:0.956" fill="#ebebeb" d="M 32.5,39.5 C 31.2111,45.2588 30.5444,51.2588 30.5,57.5C 30.5444,63.7412 31.2111,69.7412 32.5,75.5C 31.1667,75.5 29.8333,75.5 28.5,75.5C 27.2348,83.4442 26.4014,91.4442 26,99.5C 25.0053,100.066 24.172,100.733 23.5,101.5C 22.5,101.5 21.5,101.5 20.5,101.5C 17.2424,100.079 14.7424,97.7457 13,94.5C 9.74181,81.8745 5.24181,69.8745 -0.5,58.5C -0.5,56.5 -0.5,54.5 -0.5,52.5C 2.45198,42.3978 9.28531,36.7311 20,35.5C 24.0954,37.105 28.262,38.4383 32.5,39.5 Z"/></g>
<g><path style="opacity:1" fill="#e7e7e7" d="M 40.5,101.5 C 39.5,101.5 38.5,101.5 37.5,101.5C 36.828,100.733 35.9947,100.066 35,99.5C 34.5986,91.4442 33.7652,83.4442 32.5,75.5C 31.2111,69.7412 30.5444,63.7412 30.5,57.5C 30.5444,51.2588 31.2111,45.2588 32.5,39.5C 34.7373,37.1315 37.5706,35.7981 41,35.5C 52.9781,36.9788 59.8114,43.6455 61.5,55.5C 56.3131,68.2261 51.8131,81.2261 48,94.5C 46.2576,97.7457 43.7576,100.079 40.5,101.5 Z"/></g>
<g><path style="opacity:1" fill="#fdfefe" d="M 12.5,46.5 C 17.9836,46.4809 19.6503,48.9809 17.5,54C 10.3691,55.2112 8.7024,52.7112 12.5,46.5 Z"/></g>
<g><path style="opacity:0.929" fill="#3f4d67" d="M 81.5,53.5 C 86.1667,53.5 90.8333,53.5 95.5,53.5C 93.3926,54.4682 91.0593,54.8016 88.5,54.5C 88.5,69.1667 88.5,83.8333 88.5,98.5C 92.649,99.0803 96.3157,98.4136 99.5,96.5C 99.8333,96.5 100.167,96.5 100.5,96.5C 100.5,97.5 100.5,98.5 100.5,99.5C 92.5,99.5 84.5,99.5 76.5,99.5C 77.9367,84.0023 79.6034,68.669 81.5,53.5 Z"/></g>
<g><path style="opacity:0.999" fill="#36425a" d="M 95.5,53.5 C 97.5418,67.6233 98.8752,81.9566 99.5,96.5C 96.3157,98.4136 92.649,99.0803 88.5,98.5C 88.5,83.8333 88.5,69.1667 88.5,54.5C 91.0593,54.8016 93.3926,54.4682 95.5,53.5 Z"/></g>
</svg>
