<?xml version="1.0" encoding="UTF-8"?>
<!DOCTYPE svg PUBLIC "-//W3C//DTD SVG 1.1//EN" "http://www.w3.org/Graphics/SVG/1.1/DTD/svg11.dtd">
<svg xmlns="http://www.w3.org/2000/svg" version="1.1" width="103px" height="104px" style="shape-rendering:geometricPrecision; text-rendering:geometricPrecision; image-rendering:optimizeQuality; fill-rule:evenodd; clip-rule:evenodd" xmlns:xlink="http://www.w3.org/1999/xlink">
<g><path style="opacity:0.927" fill="#63b1f2" d="M 19.5,-0.5 C 20.1667,-0.5 20.8333,-0.5 21.5,-0.5C 23.975,5.78342 26.975,11.7834 30.5,17.5C 30.6495,18.552 30.4828,19.552 30,20.5C 28.2927,22.0375 26.7927,23.7041 25.5,25.5C 23.2034,27.2941 21.0367,29.2941 19,31.5C 18.6174,30.944 18.1174,30.6107 17.5,30.5C 11.5,27.5 5.5,24.5 -0.5,21.5C -0.5,20.8333 -0.5,20.1667 -0.5,19.5C 3.56517,19.2702 5.89851,17.1035 6.5,13C 7.83333,12.6667 9.16667,12.3333 10.5,12C 11.3295,10.1839 12.1628,8.35059 13,6.5C 17.4067,6.25959 19.5734,3.92625 19.5,-0.5 Z"/></g>
<g><path style="opacity:0.999" fill="#37425a" d="M 54.5,19.5 C 53.9524,21.3936 52.9524,23.0603 51.5,24.5C 54.1667,27.5 56.8333,30.5 59.5,33.5C 57.1833,36.3174 54.6833,38.9841 52,41.5C 53.0901,44.7852 55.2568,47.4519 58.5,49.5C 61.5211,47.1456 64.1877,44.4789 66.5,41.5C 70.0839,43.7394 73.4172,46.4061 76.5,49.5C 77.9397,48.0476 79.6064,47.0476 81.5,46.5C 89.5538,54.0456 90.5538,62.3789 84.5,71.5C 81.9066,72.7536 79.5732,74.4202 77.5,76.5C 60.1667,59.5 42.8333,42.5 25.5,25.5C 26.7927,23.7041 28.2927,22.0375 30,20.5C 30.4828,19.552 30.6495,18.552 30.5,17.5C 39.0416,11.6875 47.0416,12.3542 54.5,19.5 Z"/></g>
<g><path style="opacity:1" fill="#6dafee" d="M 66.5,25.5 C 67.8333,30.8333 67.8333,36.1667 66.5,41.5C 64.1877,44.4789 61.5211,47.1456 58.5,49.5C 55.2568,47.4519 53.0901,44.7852 52,41.5C 54.6833,38.9841 57.1833,36.3174 59.5,33.5C 56.8333,30.5 54.1667,27.5 51.5,24.5C 52.9524,23.0603 53.9524,21.3936 54.5,19.5C 55.8149,18.5244 57.1482,17.5244 58.5,16.5C 61.3993,19.3028 64.066,22.3028 66.5,25.5 Z"/></g>
<g><path style="opacity:1" fill="#7199cb" d="M 78.5,18.5 C 80.8122,20.1455 82.8122,22.1455 84.5,24.5C 81.8062,27.8605 78.8062,30.8605 75.5,33.5C 78.3172,36.8178 81.3172,39.9845 84.5,43C 83.2899,44.0391 82.2899,45.2058 81.5,46.5C 79.6064,47.0476 77.9397,48.0476 76.5,49.5C 73.4172,46.4061 70.0839,43.7394 66.5,41.5C 67.8333,36.1667 67.8333,30.8333 66.5,25.5C 66.8333,25.5 67.1667,25.5 67.5,25.5C 70.5628,23.9488 73.2295,21.7821 75.5,19C 76.448,18.5172 77.448,18.3505 78.5,18.5 Z"/></g>
<g><path style="opacity:0.969" fill="#9a8dae" d="M 78.5,18.5 C 77.448,18.3505 76.448,18.5172 75.5,19C 73.2295,21.7821 70.5628,23.9488 67.5,25.5C 69.9619,22.5361 72.6286,19.7028 75.5,17C 76.9976,16.4153 77.9976,16.9153 78.5,18.5 Z"/></g>
<g><path style="opacity:0.966" fill="#3e4c65" d="M 25.5,25.5 C 42.8333,42.5 60.1667,59.5 77.5,76.5C 77.5,76.8333 77.5,77.1667 77.5,77.5C 74.7573,79.2393 72.7573,81.5726 71.5,84.5C 64.9311,90.3087 57.9311,90.8087 50.5,86C 39,74.5 27.5,63 16,51.5C 12.3213,44.1427 12.8213,37.1427 17.5,30.5C 18.1174,30.6107 18.6174,30.944 19,31.5C 21.0367,29.2941 23.2034,27.2941 25.5,25.5 Z"/></g>
<g><path style="opacity:1" fill="#5da9f2" d="M 84.5,71.5 C 90.1426,75.3249 96.1426,78.6582 102.5,81.5C 102.5,82.1667 102.5,82.8333 102.5,83.5C 98.1135,83.3847 95.7801,85.5514 95.5,90C 94.2068,90.49 92.8734,90.6567 91.5,90.5C 86.8333,86.1667 82.1667,81.8333 77.5,77.5C 77.5,77.1667 77.5,76.8333 77.5,76.5C 79.5732,74.4202 81.9066,72.7536 84.5,71.5 Z"/></g>
<g><path style="opacity:0.925" fill="#68b3f4" d="M 77.5,77.5 C 82.1667,81.8333 86.8333,86.1667 91.5,90.5C 90.6964,94.7958 88.1964,97.4625 84,98.5C 83.3923,100.154 82.8923,101.821 82.5,103.5C 81.8333,103.5 81.1667,103.5 80.5,103.5C 77.7567,97.0148 74.7567,90.6814 71.5,84.5C 72.7573,81.5726 74.7573,79.2393 77.5,77.5 Z"/></g>
</svg>
