<?xml version="1.0" encoding="UTF-8"?>
<!DOCTYPE svg PUBLIC "-//W3C//DTD SVG 1.1//EN" "http://www.w3.org/Graphics/SVG/1.1/DTD/svg11.dtd">
<svg xmlns="http://www.w3.org/2000/svg" version="1.1" width="100px" height="100px" style="shape-rendering:geometricPrecision; text-rendering:geometricPrecision; image-rendering:optimizeQuality; fill-rule:evenodd; clip-rule:evenodd" xmlns:xlink="http://www.w3.org/1999/xlink">
<g><path style="opacity:1" fill="#e7e7e7" d="M 13.5,-0.5 C 15.8333,-0.5 18.1667,-0.5 20.5,-0.5C 31.868,3.53833 38.5347,11.5383 40.5,23.5C 39.596,24.209 39.2627,25.209 39.5,26.5C 35.9749,25.0058 32.6415,25.3391 29.5,27.5C 30.5037,20.3379 27.837,14.8379 21.5,11C 18.0779,10.3264 14.9112,9.15977 12,7.5C 10.2955,4.52651 10.7955,1.85984 13.5,-0.5 Z"/></g>
<g><path style="opacity:0.884" fill="#eaeaeb" d="M 27.5,29.5 C 25.6157,32.6035 24.2824,35.9368 23.5,39.5C 10.9293,38.2588 2.92935,31.5921 -0.5,19.5C -0.5,17.5 -0.5,15.5 -0.5,13.5C 2.02127,10.2879 5.02127,9.78786 8.5,12C 9.69974,21.53 14.8664,27.6966 24,30.5C 25.0113,29.6634 26.1779,29.33 27.5,29.5 Z"/></g>
<g><path style="opacity:0.904" fill="#69b4f4" d="M 40.5,23.5 C 52.8641,23.3455 63.8641,27.1788 73.5,35C 85.2408,44.6757 93.9075,56.509 99.5,70.5C 99.5,72.5 99.5,74.5 99.5,76.5C 96.9039,78.6261 94.0705,78.9594 91,77.5C 84.9197,58.7525 73.0864,44.9192 55.5,36C 51.9855,34.4383 48.3189,33.605 44.5,33.5C 43.5812,30.6733 41.9145,28.34 39.5,26.5C 39.2627,25.209 39.596,24.209 40.5,23.5 Z"/></g>
<g><path style="opacity:0.992" fill="#74bef6" d="M 39.5,26.5 C 41.9145,28.34 43.5812,30.6733 44.5,33.5C 44.7022,35.9892 44.2022,38.3225 43,40.5C 40.294,42.8706 37.9606,45.5372 36,48.5C 35.3333,50.5 35.3333,52.5 36,54.5C 45.3762,72.3787 59.5429,84.7121 78.5,91.5C 79.7483,95.0043 78.7483,97.671 75.5,99.5C 74.5,99.5 73.5,99.5 72.5,99.5C 50.8278,92 35.3278,77.6667 26,56.5C 23.9843,51.0117 23.151,45.345 23.5,39.5C 24.2824,35.9368 25.6157,32.6035 27.5,29.5C 27.8333,28.5 28.5,27.8333 29.5,27.5C 32.6415,25.3391 35.9749,25.0058 39.5,26.5 Z"/></g>
<g><path style="opacity:1" fill="#425470" d="M 34.5,33.5 C 36.4646,33.9483 36.7979,34.9483 35.5,36.5C 34.6143,35.675 34.281,34.675 34.5,33.5 Z"/></g>
</svg>
