<?xml version="1.0" encoding="UTF-8"?>
<!DOCTYPE svg PUBLIC "-//W3C//DTD SVG 1.1//EN" "http://www.w3.org/Graphics/SVG/1.1/DTD/svg11.dtd">
<svg xmlns="http://www.w3.org/2000/svg" version="1.1" width="104px" height="103px" style="shape-rendering:geometricPrecision; text-rendering:geometricPrecision; image-rendering:optimizeQuality; fill-rule:evenodd; clip-rule:evenodd" xmlns:xlink="http://www.w3.org/1999/xlink">
<g><path style="opacity:1" fill="#e6e6e6" d="M 37.5,-0.5 C 38.5,-0.5 39.5,-0.5 40.5,-0.5C 45.9464,0.304702 50.7798,2.63804 55,6.5C 58.97,17.2462 63.8033,27.5796 69.5,37.5C 63.8333,42.8333 58.1667,48.1667 52.5,53.5C 41.5354,42.0349 30.3687,30.7016 19,19.5C 19.1349,17.5753 19.3016,15.5753 19.5,13.5C 19.3459,9.97461 20.6792,7.14128 23.5,5C 27.8445,2.05741 32.5112,0.224079 37.5,-0.5 Z"/></g>
<g><path style="opacity:0.972" fill="#eaeaea" d="M 19.5,13.5 C 19.3016,15.5753 19.1349,17.5753 19,19.5C 30.3687,30.7016 41.5354,42.0349 52.5,53.5C 52.5,53.8333 52.5,54.1667 52.5,54.5C 47.1667,59.5 41.8333,64.5 36.5,69.5C 26.9121,64.2084 16.9121,59.7084 6.5,56C 3.04803,52.7435 0.7147,48.9101 -0.5,44.5C -0.5,41.1667 -0.5,37.8333 -0.5,34.5C 0.885194,29.9053 3.21853,25.7386 6.5,22C 10.1179,20.3474 13.7845,18.8474 17.5,17.5C 17.9943,15.9745 18.661,14.6412 19.5,13.5 Z"/></g>
<g><path style="opacity:0.999" fill="#36425a" d="M 69.5,37.5 C 74.2886,43.8332 75.6219,50.8332 73.5,58.5C 70.8202,61.0125 67.9868,63.3459 65,65.5C 60.6768,62.0101 56.5102,58.3434 52.5,54.5C 52.5,54.1667 52.5,53.8333 52.5,53.5C 58.1667,48.1667 63.8333,42.8333 69.5,37.5 Z"/></g>
<g><path style="opacity:1" fill="#43526c" d="M 52.5,54.5 C 56.5102,58.3434 60.6768,62.0101 65,65.5C 67.9868,63.3459 70.8202,61.0125 73.5,58.5C 78.1713,65.3376 84.0046,71.0043 91,75.5C 92.5,79.6667 95.3333,82.5 99.5,84C 99.1667,84.3333 98.8333,84.6667 98.5,85C 100.066,87.3256 101.732,89.4922 103.5,91.5C 103.5,91.8333 103.5,92.1667 103.5,92.5C 102.883,92.6107 102.383,92.944 102,93.5C 101.503,96.146 101.336,98.8127 101.5,101.5C 98.6146,101.194 95.9479,101.527 93.5,102.5C 92.1667,102.5 90.8333,102.5 89.5,102.5C 85.6591,99.5004 81.6591,96.6671 77.5,94C 76.1667,90 73.5,87.3333 69.5,86C 68.1667,82 65.5,79.3333 61.5,78C 60.9152,73.7059 58.9152,72.7059 55.5,75C 48.3323,75.8868 41.9989,74.0535 36.5,69.5C 41.8333,64.5 47.1667,59.5 52.5,54.5 Z"/></g>
</svg>
