<?xml version="1.0" encoding="UTF-8"?>
<!DOCTYPE svg PUBLIC "-//W3C//DTD SVG 1.1//EN" "http://www.w3.org/Graphics/SVG/1.1/DTD/svg11.dtd">
<svg xmlns="http://www.w3.org/2000/svg" version="1.1" width="103px" height="101px" style="shape-rendering:geometricPrecision; text-rendering:geometricPrecision; image-rendering:optimizeQuality; fill-rule:evenodd; clip-rule:evenodd" xmlns:xlink="http://www.w3.org/1999/xlink">
<g><path style="opacity:0.987" fill="#eaeaea" d="M 29.5,-0.5 C 33.5,-0.5 37.5,-0.5 41.5,-0.5C 44.5488,1.86266 47.8822,3.86266 51.5,5.5C 51.5,21.8333 51.5,38.1667 51.5,54.5C 51.1667,54.5 50.8333,54.5 50.5,54.5C 49.5041,54.4142 48.6708,54.7476 48,55.5C 45.109,66.2882 43.7757,77.2882 44,88.5C 41.0186,91.9371 37.5186,92.4371 33.5,90C 32.2949,88.6244 30.9616,87.4577 29.5,86.5C 24.53,77.0936 21.03,67.0936 19,56.5C 17.3145,51.7955 15.1479,47.4622 12.5,43.5C 2.52966,22.776 8.19633,8.10932 29.5,-0.5 Z"/></g>
<g><path style="opacity:1" fill="#e6e6e6" d="M 60.5,-0.5 C 64.5,-0.5 68.5,-0.5 72.5,-0.5C 93.9382,7.80938 99.9382,22.476 90.5,43.5C 89.5084,43.3284 88.8417,43.6618 88.5,44.5C 86.9235,47.3522 85.4235,50.3522 84,53.5C 81.4886,62.5456 78.8219,71.5456 76,80.5C 74.9879,83.2018 73.4879,85.5351 71.5,87.5C 68.0064,91.3085 63.8398,92.3085 59,90.5C 57.8671,81.2268 56.8671,71.8934 56,62.5C 55.4888,60.1218 54.8221,57.7885 54,55.5C 53.3292,54.7476 52.4959,54.4142 51.5,54.5C 51.5,38.1667 51.5,21.8333 51.5,5.5C 54.672,3.74808 57.672,1.74808 60.5,-0.5 Z"/></g>
<g><path style="opacity:1" fill="#fdfefe" d="M 25.5,14.5 C 33.5204,14.3918 35.8538,17.8918 32.5,25C 24.923,28.0898 21.7564,25.5898 23,17.5C 24.045,16.6266 24.8783,15.6266 25.5,14.5 Z"/></g>
<g><path style="opacity:0.931" fill="#6ab4f4" d="M -0.5,43.5 C 3.83333,43.5 8.16667,43.5 12.5,43.5C 4.62866,48.2287 3.62866,54.062 9.5,61C 5.85983,68.2155 7.85983,73.0489 15.5,75.5C 14.9008,85.8672 19.5675,89.5338 29.5,86.5C 30.9616,87.4577 32.2949,88.6244 33.5,90C 37.5186,92.4371 41.0186,91.9371 44,88.5C 43.7757,77.2882 45.109,66.2882 48,55.5C 48.6708,54.7476 49.5041,54.4142 50.5,54.5C 50.5,69.8333 50.5,85.1667 50.5,100.5C 33.5,100.5 16.5,100.5 -0.5,100.5C -0.5,81.5 -0.5,62.5 -0.5,43.5 Z"/></g>
<g><path style="opacity:1" fill="#6b91bf" d="M 12.5,43.5 C 15.1479,47.4622 17.3145,51.7955 19,56.5C 21.03,67.0936 24.53,77.0936 29.5,86.5C 19.5675,89.5338 14.9008,85.8672 15.5,75.5C 7.85983,73.0489 5.85983,68.2155 9.5,61C 3.62866,54.062 4.62866,48.2287 12.5,43.5 Z"/></g>
<g><path style="opacity:1" fill="#6b7fa4" d="M 88.5,44.5 C 96.45,48.6979 97.45,54.1979 91.5,61C 95.1248,67.5949 93.4581,72.4282 86.5,75.5C 85.8975,84.9704 80.8975,88.9704 71.5,87.5C 73.4879,85.5351 74.9879,83.2018 76,80.5C 78.8219,71.5456 81.4886,62.5456 84,53.5C 85.4235,50.3522 86.9235,47.3522 88.5,44.5 Z"/></g>
<g><path style="opacity:1" fill="#6b9dd1" d="M 88.5,44.5 C 88.8417,43.6618 89.5084,43.3284 90.5,43.5C 94.5,43.5 98.5,43.5 102.5,43.5C 102.5,62.5 102.5,81.5 102.5,100.5C 85.1667,100.5 67.8333,100.5 50.5,100.5C 50.5,85.1667 50.5,69.8333 50.5,54.5C 50.8333,54.5 51.1667,54.5 51.5,54.5C 52.4959,54.4142 53.3292,54.7476 54,55.5C 54.8221,57.7885 55.4888,60.1218 56,62.5C 56.8671,71.8934 57.8671,81.2268 59,90.5C 63.8398,92.3085 68.0064,91.3085 71.5,87.5C 80.8975,88.9704 85.8975,84.9704 86.5,75.5C 93.4581,72.4282 95.1248,67.5949 91.5,61C 97.45,54.1979 96.45,48.6979 88.5,44.5 Z"/></g>
</svg>
