<?xml version="1.0" encoding="UTF-8"?>
<!DOCTYPE svg PUBLIC "-//W3C//DTD SVG 1.1//EN" "http://www.w3.org/Graphics/SVG/1.1/DTD/svg11.dtd">
<svg xmlns="http://www.w3.org/2000/svg" version="1.1" width="104px" height="104px" style="shape-rendering:geometricPrecision; text-rendering:geometricPrecision; image-rendering:optimizeQuality; fill-rule:evenodd; clip-rule:evenodd" xmlns:xlink="http://www.w3.org/1999/xlink">
<g><path style="opacity:0.934" fill="#363636" d="M 87.5,-0.5 C 88.1667,-0.5 88.8333,-0.5 89.5,-0.5C 90.1273,5.44812 90.794,11.4481 91.5,17.5C 93.8493,19.2038 94.8493,21.5371 94.5,24.5C 95.8221,24.33 96.9887,24.6634 98,25.5C 98.4999,44.4971 98.6666,63.4971 98.5,82.5C 100.292,82.366 101.958,82.6993 103.5,83.5C 103.5,84.1667 103.5,84.8333 103.5,85.5C 99.9359,86.4227 96.2693,86.756 92.5,86.5C 92.5,90.5 92.5,94.5 92.5,98.5C 94.5273,98.3379 96.5273,98.5045 98.5,99C 99.3366,100.011 99.67,101.178 99.5,102.5C 92.1667,102.5 84.8333,102.5 77.5,102.5C 77.33,101.178 77.6634,100.011 78.5,99C 80.8098,98.5034 83.1432,98.3367 85.5,98.5C 85.5,94.5 85.5,90.5 85.5,86.5C 81.5,86.5 77.5,86.5 73.5,86.5C 73.1667,83.5 74.5,82.1667 77.5,82.5C 77.3334,63.4971 77.5001,44.4971 78,25.5C 79.3561,24.6198 80.8561,24.2865 82.5,24.5C 81.9066,21.4041 82.9066,19.0708 85.5,17.5C 86.206,11.4481 86.8727,5.44812 87.5,-0.5 Z M 87.5,21.5 C 88.9953,21.4148 89.9953,22.0815 90.5,23.5C 89.1667,24.8333 87.8333,24.8333 86.5,23.5C 86.8627,22.8165 87.1961,22.1499 87.5,21.5 Z"/></g>
<g><path style="opacity:0.781" fill="#353635" d="M 63.5,103.5 C 60.8333,103.5 58.1667,103.5 55.5,103.5C 53.4383,101.59 51.9383,99.2565 51,96.5C 50.6667,89.5 50.3333,82.5 50,75.5C 47.132,60.9669 44.7987,61.3002 43,76.5C 42.6667,83.5 42.3333,90.5 42,97.5C 41.1959,100.146 39.6959,102.146 37.5,103.5C 35.1667,103.5 32.8333,103.5 30.5,103.5C 24.8292,100.321 20.6626,95.6546 18,89.5C 15.1781,80.5456 12.5114,71.5456 10,62.5C 6.44522,54.7328 2.94522,47.0661 -0.5,39.5C -0.5,35.8333 -0.5,32.1667 -0.5,28.5C 5.16008,11.1606 17.1601,2.99396 35.5,4C 39.2925,5.63679 42.9591,7.47012 46.5,9.5C 58.504,1.41322 70.3374,1.74655 82,10.5C 82.7828,12.3185 82.2828,13.6518 80.5,14.5C 75.1203,10.5952 69.1203,8.26189 62.5,7.5C 57.0144,8.8557 51.8477,10.8557 47,13.5C 42.422,12.6282 38.2553,10.7949 34.5,8C 14.3059,8.19405 4.13926,18.3607 4,38.5C 6.98315,45.1361 9.98315,51.8028 13,58.5C 16.0523,70.0463 19.719,81.3796 24,92.5C 26.2047,95.0402 28.7047,97.2068 31.5,99C 33.7008,99.8249 35.5341,99.3249 37,97.5C 38.2635,90.2718 38.9301,82.9385 39,75.5C 39.3522,70.2432 40.8522,65.4098 43.5,61C 49.8178,59.3662 52.9845,61.8662 53,68.5C 53.9004,78.1997 54.9004,87.8663 56,97.5C 57.4659,99.3249 59.2992,99.8249 61.5,99C 65.3394,95.991 69.0061,92.8244 72.5,89.5C 73.8701,92.4847 73.3701,95.1514 71,97.5C 68.5216,99.6394 66.0216,101.639 63.5,103.5 Z"/></g>
<g><path style="opacity:0.892" fill="#353635" d="M 17.5,19.5 C 27.8427,18.9992 31.6761,23.6658 29,33.5C 23.3279,39.1016 17.9945,38.7683 13,32.5C 11.3794,26.9227 12.8794,22.5894 17.5,19.5 Z"/></g>
<g><path style="opacity:1" fill="#e4e2e1" d="M 89.5,31.5 C 91.5,31.5 93.5,31.5 95.5,31.5C 95.5,32.8333 95.5,34.1667 95.5,35.5C 93.4727,35.6621 91.4727,35.4955 89.5,35C 88.3157,33.8545 88.3157,32.6879 89.5,31.5 Z"/></g>
<g><path style="opacity:1" fill="#edebea" d="M 91.5,39.5 C 92.8333,39.5 94.1667,39.5 95.5,39.5C 95.5,40.5 95.5,41.5 95.5,42.5C 93.0274,42.9118 91.6941,41.9118 91.5,39.5 Z"/></g>
<g><path style="opacity:0.837" fill="#353635" d="M 18.5,42.5 C 26.4885,42.3191 28.8218,45.8191 25.5,53C 18.2445,55.6255 15.0778,53.1255 16,45.5C 16.6979,44.3094 17.5313,43.3094 18.5,42.5 Z"/></g>
<g><path style="opacity:1" fill="#e2e0df" d="M 89.5,46.5 C 91.5,46.5 93.5,46.5 95.5,46.5C 95.5,47.8333 95.5,49.1667 95.5,50.5C 93.4727,50.6621 91.4727,50.4955 89.5,50C 88.3157,48.8545 88.3157,47.6879 89.5,46.5 Z"/></g>
<g><path style="opacity:1" fill="#eeeceb" d="M 91.5,54.5 C 92.8333,54.5 94.1667,54.5 95.5,54.5C 95.5,55.5 95.5,56.5 95.5,57.5C 93.0274,57.9118 91.6941,56.9118 91.5,54.5 Z"/></g>
<g><path style="opacity:1" fill="#e2e0df" d="M 89.5,61.5 C 91.5,61.5 93.5,61.5 95.5,61.5C 95.5,62.8333 95.5,64.1667 95.5,65.5C 93.4727,65.6621 91.4727,65.4955 89.5,65C 88.3157,63.8545 88.3157,62.6879 89.5,61.5 Z"/></g>
<g><path style="opacity:1" fill="#cac8c7" d="M 92.5,68.5 C 93.5,68.5 94.5,68.5 95.5,68.5C 95.5,69.8333 95.5,71.1667 95.5,72.5C 92.0464,72.7332 91.0464,71.3999 92.5,68.5 Z"/></g>
<g><path style="opacity:1" fill="#f3f1f0" d="M 89.5,76.5 C 91.5,76.5 93.5,76.5 95.5,76.5C 95.5,77.5 95.5,78.5 95.5,79.5C 93.076,79.8076 90.7427,79.4742 88.5,78.5C 88.8627,77.8165 89.1961,77.1499 89.5,76.5 Z"/></g>
</svg>
