<?xml version="1.0" encoding="UTF-8"?>
<!DOCTYPE svg PUBLIC "-//W3C//DTD SVG 1.1//EN" "http://www.w3.org/Graphics/SVG/1.1/DTD/svg11.dtd">
<svg xmlns="http://www.w3.org/2000/svg" version="1.1" width="97px" height="101px" style="shape-rendering:geometricPrecision; text-rendering:geometricPrecision; image-rendering:optimizeQuality; fill-rule:evenodd; clip-rule:evenodd" xmlns:xlink="http://www.w3.org/1999/xlink">
<g><path style="opacity:0.936" fill="#353635" d="M 30.5,-0.5 C 32.8333,-0.5 35.1667,-0.5 37.5,-0.5C 41.437,1.80673 45.437,4.14006 49.5,6.5C 53.7675,3.86906 58.1008,1.53573 62.5,-0.5C 64.5,-0.5 66.5,-0.5 68.5,-0.5C 82.4639,2.13274 91.7973,10.1327 96.5,23.5C 96.5,27.8333 96.5,32.1667 96.5,36.5C 92.7749,43.6208 89.2749,50.9541 86,58.5C 83.284,69.3651 79.9507,80.0317 76,90.5C 73.1822,95.1612 69.3489,98.4945 64.5,100.5C 63.1667,100.5 61.8333,100.5 60.5,100.5C 58.3041,99.1459 56.8041,97.1459 56,94.5C 56.1913,82.968 54.858,71.6347 52,60.5C 49.9783,59.0091 48.3117,59.3424 47,61.5C 44.2684,72.6616 42.935,83.995 43,95.5C 41.975,97.687 40.475,99.3536 38.5,100.5C 37.5,100.5 36.5,100.5 35.5,100.5C 30.8782,98.5943 27.0449,95.5943 24,91.5C 20.0533,81.9917 16.72,72.325 14,62.5C 12.43,63.3578 10.7633,64.0245 9,64.5C 5.69262,62.6866 2.52595,60.6866 -0.5,58.5C -0.5,58.1667 -0.5,57.8333 -0.5,57.5C 3.49156,55.67 6.65823,56.67 9,60.5C 10.214,58.9512 11.714,57.7845 13.5,57C 12.1279,55.7581 11.1279,54.2581 10.5,52.5C 8.92226,51.7022 7.2556,51.2022 5.5,51C 3.90525,48.8981 1.90525,47.3981 -0.5,46.5C -0.5,45.8333 -0.5,45.1667 -0.5,44.5C 2.41025,43.1861 4.91025,43.8527 7,46.5C 5.92014,43.64 4.75348,40.64 3.5,37.5C 3.70931,36.914 4.04265,36.414 4.5,36C 3.15366,34.3308 1.487,33.1642 -0.5,32.5C -0.5,31.5 -0.5,30.5 -0.5,29.5C 0.991043,29.0986 2.65771,28.932 4.5,29C 3.57203,28.6121 2.90536,27.9454 2.5,27C 5.78529,11.547 15.1186,2.38034 30.5,-0.5 Z M 40.5,34.5 C 39.7109,34.2172 39.0442,33.7172 38.5,33C 39.816,32.4719 40.4827,32.9719 40.5,34.5 Z M 40.5,35.5 C 39.0879,39.1083 37.0879,39.4417 34.5,36.5C 36.6208,36.6747 38.6208,36.3414 40.5,35.5 Z M 12.5,36.5 C 10.3302,38.5763 7.99688,38.7429 5.5,37C 7.80982,36.5034 10.1432,36.3367 12.5,36.5 Z M 19.5,36.5 C 21.8333,36.5 24.1667,36.5 26.5,36.5C 24.2358,38.8907 21.9024,38.8907 19.5,36.5 Z M 33.5,43.5 C 35.4044,43.7376 36.7377,44.7376 37.5,46.5C 35.5956,46.2624 34.2623,45.2624 33.5,43.5 Z M 29.5,61.5 C 31.1284,60.1472 32.4617,60.4805 33.5,62.5C 32.1667,62.1667 30.8333,61.8333 29.5,61.5 Z M 19.5,63.5 C 21.5,63.8333 23.5,64.1667 25.5,64.5C 23.32,65.7944 21.32,65.4611 19.5,63.5 Z"/></g>
</svg>
