<?xml version="1.0" encoding="UTF-8"?>
<!DOCTYPE svg PUBLIC "-//W3C//DTD SVG 1.1//EN" "http://www.w3.org/Graphics/SVG/1.1/DTD/svg11.dtd">
<svg xmlns="http://www.w3.org/2000/svg" version="1.1" width="103px" height="101px" style="shape-rendering:geometricPrecision; text-rendering:geometricPrecision; image-rendering:optimizeQuality; fill-rule:evenodd; clip-rule:evenodd" xmlns:xlink="http://www.w3.org/1999/xlink">
<g><path style="opacity:0.925" fill="#353635" d="M 2.5,-0.5 C 34.8333,-0.5 67.1667,-0.5 99.5,-0.5C 100.512,0.871651 101.512,2.20498 102.5,3.5C 102.5,10.8333 102.5,18.1667 102.5,25.5C 100.317,29.2587 96.9832,30.9253 92.5,30.5C 95.1536,46.1349 88.6536,51.8016 73,47.5C 58.1119,51.7656 51.9453,46.4323 54.5,31.5C 52.1667,31.5 49.8333,31.5 47.5,31.5C 47.6655,35.5138 47.4988,39.5138 47,43.5C 46.6258,44.4162 46.1258,45.2496 45.5,46C 39.772,47.123 33.9387,47.623 28,47.5C 12.8257,51.484 6.32575,45.8174 8.5,30.5C 4.87072,30.5175 1.87072,29.1842 -0.5,26.5C -0.5,18.8333 -0.5,11.1667 -0.5,3.5C 0.488369,2.20498 1.48837,0.871651 2.5,-0.5 Z M 26.5,9.5 C 37.6884,10.3536 43.3551,16.3536 43.5,27.5C 40.5,27.5 37.5,27.5 34.5,27.5C 34.5,26.1667 34.5,24.8333 34.5,23.5C 30.5,23.5 26.5,23.5 22.5,23.5C 22.5,27.5 22.5,31.5 22.5,35.5C 26.5,35.5 30.5,35.5 34.5,35.5C 34.5,34.1667 34.5,32.8333 34.5,31.5C 37.5,31.5 40.5,31.5 43.5,31.5C 44.0436,35.6732 43.377,39.5065 41.5,43C 32.2553,43.817 23.0887,43.6503 14,42.5C 12.119,34.8816 12.119,27.2149 14,19.5C 16.918,14.3961 21.0846,11.0627 26.5,9.5 Z M 71.5,9.5 C 84.5045,11.3102 90.1712,18.8102 88.5,32C 88.1667,35.5 87.8333,39 87.5,42.5C 78.2145,43.6396 68.8812,43.8063 59.5,43C 58.5399,39.27 58.2065,35.4367 58.5,31.5C 61.5,31.5 64.5,31.5 67.5,31.5C 67.5,32.5 67.5,33.5 67.5,34.5C 71.5,34.5 75.5,34.5 79.5,34.5C 79.5,30.5 79.5,26.5 79.5,22.5C 75.5,22.5 71.5,22.5 67.5,22.5C 67.5,24.1667 67.5,25.8333 67.5,27.5C 64.5,27.5 61.5,27.5 58.5,27.5C 58.2341,18.1089 62.5674,12.1089 71.5,9.5 Z"/></g>
<g><path style="opacity:0.92" fill="#353635" d="M 102.5,56.5 C 102.5,63.8333 102.5,71.1667 102.5,78.5C 100.552,82.7532 97.2189,84.4199 92.5,83.5C 92.6657,87.8461 92.499,92.1794 92,96.5C 91.3103,98.3502 90.1436,99.6836 88.5,100.5C 78.1667,100.5 67.8333,100.5 57.5,100.5C 56.5313,99.6906 55.6979,98.6906 55,97.5C 54.501,93.1794 54.3343,88.8461 54.5,84.5C 52.1667,84.5 49.8333,84.5 47.5,84.5C 47.6655,88.5138 47.4988,92.5138 47,96.5C 46.3103,98.3502 45.1436,99.6836 43.5,100.5C 33.1667,100.5 22.8333,100.5 12.5,100.5C 10.8639,99.2511 9.69724,97.5844 9,95.5C 8.50115,91.5138 8.33449,87.5138 8.5,83.5C 4.54746,84.0193 1.54746,82.6859 -0.5,79.5C -0.5,71.8333 -0.5,64.1667 -0.5,56.5C 0.363622,55.3117 1.36362,54.1451 2.5,53C 34.8333,52.3333 67.1667,52.3333 99.5,53C 100.636,54.1451 101.636,55.3117 102.5,56.5 Z M 23.5,63.5 C 36.1601,62.1586 42.8268,67.8253 43.5,80.5C 40.5,80.5 37.5,80.5 34.5,80.5C 34.5,79.1667 34.5,77.8333 34.5,76.5C 30.5,76.5 26.5,76.5 22.5,76.5C 22.5,80.5 22.5,84.5 22.5,88.5C 26.5,88.5 30.5,88.5 34.5,88.5C 34.5,87.1667 34.5,85.8333 34.5,84.5C 37.5,84.5 40.5,84.5 43.5,84.5C 43.7935,88.4367 43.4601,92.27 42.5,96C 33.1667,96.6667 23.8333,96.6667 14.5,96C 14,95.5 13.5,95 13,94.5C 11.6636,85.8316 12.6636,77.4983 16,69.5C 18.1141,66.8792 20.6141,64.8792 23.5,63.5 Z M 68.5,63.5 C 78.0535,61.9084 84.5535,65.575 88,74.5C 88.6667,81.5 88.6667,88.5 88,95.5C 78.5777,96.6509 69.0777,96.8176 59.5,96C 58.5399,92.27 58.2065,88.4367 58.5,84.5C 61.5,84.5 64.5,84.5 67.5,84.5C 67.5,85.8333 67.5,87.1667 67.5,88.5C 71.5,88.5 75.5,88.5 79.5,88.5C 79.5,84.1667 79.5,79.8333 79.5,75.5C 75.5,75.5 71.5,75.5 67.5,75.5C 67.5,77.1667 67.5,78.8333 67.5,80.5C 64.5,80.5 61.5,80.5 58.5,80.5C 57.998,72.4951 61.3313,66.8284 68.5,63.5 Z"/></g>
</svg>
