<?xml version="1.0" encoding="UTF-8"?>
<!DOCTYPE svg PUBLIC "-//W3C//DTD SVG 1.1//EN" "http://www.w3.org/Graphics/SVG/1.1/DTD/svg11.dtd">
<svg xmlns="http://www.w3.org/2000/svg" version="1.1" width="95px" height="103px" style="shape-rendering:geometricPrecision; text-rendering:geometricPrecision; image-rendering:optimizeQuality; fill-rule:evenodd; clip-rule:evenodd" xmlns:xlink="http://www.w3.org/1999/xlink">
<g><path style="opacity:0.97" fill="#363636" d="M 30.5,-0.5 C 30.8333,-0.5 31.1667,-0.5 31.5,-0.5C 36.9217,1.12489 42.0883,3.45822 47,6.5C 51.6775,3.74389 56.5109,1.41055 61.5,-0.5C 62.1667,-0.5 62.8333,-0.5 63.5,-0.5C 78.9498,1.62749 89.2832,9.96083 94.5,24.5C 94.5,28.8333 94.5,33.1667 94.5,37.5C 90.7749,44.6208 87.2749,51.9541 84,59.5C 81.2569,71.1413 77.5903,82.4746 73,93.5C 69.817,97.5378 65.9836,100.538 61.5,102.5C 60.5,102.5 59.5,102.5 58.5,102.5C 56.8968,101.404 55.3968,100.07 54,98.5C 53.6048,88.2109 52.6048,77.8776 51,67.5C 51.0932,64.432 49.7599,62.432 47,61.5C 45.6739,61.7549 44.6739,62.4216 44,63.5C 41.3818,73.7248 40.3818,84.0581 41,94.5C 40.3751,98.1093 38.5418,100.776 35.5,102.5C 34.5,102.5 33.5,102.5 32.5,102.5C 27.8782,100.594 24.0449,97.5943 21,93.5C 16.4097,82.4746 12.7431,71.1413 10,59.5C 6.70898,51.9232 3.20898,44.5899 -0.5,37.5C -0.5,32.8333 -0.5,28.1667 -0.5,23.5C 5.17047,9.49816 15.5038,1.49816 30.5,-0.5 Z"/></g>
<g><path style="opacity:1" fill="#eeeceb" d="M 66.5,9.5 C 80.753,11.9079 87.253,20.2412 86,34.5C 84.615,38.4185 83.4484,38.4185 82.5,34.5C 84.0546,22.518 78.7212,15.3514 66.5,13C 65.3157,11.8545 65.3157,10.6879 66.5,9.5 Z"/></g>
<g><path style="opacity:1" fill="#edebea" d="M 23.5,11.5 C 25.8568,11.3367 28.1902,11.5034 30.5,12C 36.2613,17.2375 38.0947,23.7375 36,31.5C 35.3333,34.8333 34.6667,38.1667 34,41.5C 29.0173,43.8296 24.0173,46.163 19,48.5C 14.3546,44.5665 11.188,39.5665 9.5,33.5C 12.2221,24.6741 16.8888,17.3407 23.5,11.5 Z"/></g>
<g><path style="opacity:1" fill="#3c3c3c" d="M 22.5,15.5 C 29.4518,14.4499 33.1185,17.4499 33.5,24.5C 32.6272,29.5308 31.6272,34.5308 30.5,39.5C 26.7492,40.9729 23.0825,42.6396 19.5,44.5C 16.3679,41.4249 14.3679,37.7582 13.5,33.5C 15.6281,27.0458 18.6281,21.0458 22.5,15.5 Z"/></g>
<g><path style="opacity:1" fill="#f4f2f2" d="M 25.5,22.5 C 26.1174,22.6107 26.6174,22.944 27,23.5C 27.5788,25.6487 28.0788,27.8154 28.5,30C 26.7477,32.7598 24.5811,35.2598 22,37.5C 20.4303,34.3665 20.0969,31.0332 21,27.5C 22.7073,25.9625 24.2073,24.2959 25.5,22.5 Z"/></g>
</svg>
