<?xml version="1.0" encoding="UTF-8"?>
<!DOCTYPE svg PUBLIC "-//W3C//DTD SVG 1.1//EN" "http://www.w3.org/Graphics/SVG/1.1/DTD/svg11.dtd">
<svg xmlns="http://www.w3.org/2000/svg" version="1.1" width="96px" height="102px" style="shape-rendering:geometricPrecision; text-rendering:geometricPrecision; image-rendering:optimizeQuality; fill-rule:evenodd; clip-rule:evenodd" xmlns:xlink="http://www.w3.org/1999/xlink">
<g><path style="opacity:0.96" fill="#353635" d="M 28.5,-0.5 C 30.5,-0.5 32.5,-0.5 34.5,-0.5C 38.5076,1.92537 42.6742,4.2587 47,6.5C 51.4984,4.00203 55.9984,1.66869 60.5,-0.5C 62.5,-0.5 64.5,-0.5 66.5,-0.5C 82.0889,2.75638 91.7556,12.0897 95.5,27.5C 95.5,29.5 95.5,31.5 95.5,33.5C 92.8897,41.7366 89.3897,49.7366 85,57.5C 82,67.5 79,77.5 76,87.5C 73.7871,93.6465 69.9537,98.3132 64.5,101.5C 62.1667,101.5 59.8333,101.5 57.5,101.5C 55.8639,100.251 54.6972,98.5844 54,96.5C 54.1913,84.968 52.858,73.6347 50,62.5C 46.9507,59.5992 44.9507,60.2659 44,64.5C 42.0203,75.0643 41.0203,85.731 41,96.5C 40.0027,98.3231 38.8361,99.9897 37.5,101.5C 35.1667,101.5 32.8333,101.5 30.5,101.5C 25.8566,99.0212 22.3566,95.3545 20,90.5C 16.3591,79.9382 13.0257,69.2716 10,58.5C 6.44522,50.7328 2.94522,43.0661 -0.5,35.5C -0.5,32.1667 -0.5,28.8333 -0.5,25.5C 2.46951,15.1847 8.80284,7.51805 18.5,2.5C 18.8333,3 19.1667,3.5 19.5,4C 18.1005,8.12979 16.4338,12.1298 14.5,16C 15.354,17.0217 16.354,17.8551 17.5,18.5C 21.0583,16.5177 24.725,15.851 28.5,16.5C 22.5681,19.1989 16.9014,22.3655 11.5,26C 15.5353,30.4262 20.0353,34.2595 25,37.5C 24.4535,40.0933 22.9535,42.2599 20.5,44C 21.9771,46.4449 23.8104,48.6116 26,50.5C 25.5022,48.4731 25.6689,46.4731 26.5,44.5C 28.7913,42.8766 30.7913,41.0433 32.5,39C 28.531,34.7013 24.1977,30.7013 19.5,27C 25.6995,23.7374 31.6995,20.2374 37.5,16.5C 33.7814,11.9658 29.1147,10.2991 23.5,11.5C 22.9287,6.63426 24.5953,2.63426 28.5,-0.5 Z"/></g>
</svg>
