<?xml version="1.0" encoding="UTF-8"?>
<!DOCTYPE svg PUBLIC "-//W3C//DTD SVG 1.1//EN" "http://www.w3.org/Graphics/SVG/1.1/DTD/svg11.dtd">
<svg xmlns="http://www.w3.org/2000/svg" version="1.1" width="105px" height="103px" style="shape-rendering:geometricPrecision; text-rendering:geometricPrecision; image-rendering:optimizeQuality; fill-rule:evenodd; clip-rule:evenodd" xmlns:xlink="http://www.w3.org/1999/xlink">
<g><path style="opacity:0.926" fill="#363636" d="M 0.5,-0.5 C 35.1667,-0.5 69.8333,-0.5 104.5,-0.5C 104.5,33.5 104.5,67.5 104.5,101.5C 103.833,101.5 103.5,101.833 103.5,102.5C 69.1667,102.5 34.8333,102.5 0.5,102.5C 0.5,101.833 0.166667,101.5 -0.5,101.5C -0.5,67.8333 -0.5,34.1667 -0.5,0.5C 0.166667,0.5 0.5,0.166667 0.5,-0.5 Z M 3.5,22.5 C 35.8333,22.5 68.1667,22.5 100.5,22.5C 100.5,47.8333 100.5,73.1667 100.5,98.5C 68.1667,98.5 35.8333,98.5 3.5,98.5C 3.5,73.1667 3.5,47.8333 3.5,22.5 Z"/></g>
<g><path style="opacity:1" fill="#dad8d7" d="M 7.5,9.5 C 10.9571,9.66721 11.2904,10.6672 8.5,12.5C 7.61432,11.675 7.28099,10.675 7.5,9.5 Z"/></g>
<g><path style="opacity:1" fill="#d7d5d5" d="M 18.5,9.5 C 21.5476,9.49403 22.0476,10.494 20,12.5C 18.9614,11.7562 18.4614,10.7562 18.5,9.5 Z"/></g>
<g><path style="opacity:1" fill="#f8f6f5" d="M 29.5,9.5 C 30.675,9.28099 31.675,9.61432 32.5,10.5C 30.9483,11.7979 29.9483,11.4646 29.5,9.5 Z"/></g>
<g><path style="opacity:0.938" fill="#363636" d="M 19.5,39.5 C 23.3058,39.02 26.6391,40.02 29.5,42.5C 40.6566,37.4114 47.6566,40.9114 50.5,53C 46.624,61.5841 43.4573,70.4175 41,79.5C 38.8038,82.1252 35.9705,83.1252 32.5,82.5C 32.5704,76.8292 31.7371,71.1626 30,65.5C 28.883,66.9494 28.2163,68.6161 28,70.5C 27.6667,74.1667 27.3333,77.8333 27,81.5C 21.8238,83.0478 18.4905,81.0478 17,75.5C 15.4568,68.8699 13.1235,62.5366 10,56.5C 8.73871,48.2811 11.9054,42.6145 19.5,39.5 Z"/></g>
<g><path style="opacity:0.889" fill="#353635" d="M 56.5,39.5 C 69.1667,39.5 81.8333,39.5 94.5,39.5C 94.5,42.8333 94.5,46.1667 94.5,49.5C 81.8289,49.6666 69.1623,49.4999 56.5,49C 55.208,45.8347 55.208,42.668 56.5,39.5 Z"/></g>
<g><path style="opacity:1" fill="#e8e6e6" d="M 37.5,45.5 C 43.4533,46.1262 46.12,49.4595 45.5,55.5C 42.234,55.5674 40.734,53.9008 41,50.5C 39.2287,49.6959 37.7287,48.5292 36.5,47C 37.056,46.6174 37.3893,46.1174 37.5,45.5 Z"/></g>
<g><path style="opacity:0.982" fill="#353635" d="M 55.5,57.5 C 68.5,57.5 81.5,57.5 94.5,57.5C 94.5,60.5 94.5,63.5 94.5,66.5C 81.5,66.5 68.5,66.5 55.5,66.5C 55.5,63.5 55.5,60.5 55.5,57.5 Z"/></g>
<g><path style="opacity:0.889" fill="#353635" d="M 56.5,74.5 C 69.1667,74.5 81.8333,74.5 94.5,74.5C 94.5,77.8333 94.5,81.1667 94.5,84.5C 81.8289,84.6666 69.1623,84.4999 56.5,84C 55.208,80.8347 55.208,77.668 56.5,74.5 Z"/></g>
</svg>
