<?xml version="1.0" encoding="UTF-8"?>
<!DOCTYPE svg PUBLIC "-//W3C//DTD SVG 1.1//EN" "http://www.w3.org/Graphics/SVG/1.1/DTD/svg11.dtd">
<svg xmlns="http://www.w3.org/2000/svg" version="1.1" width="95px" height="102px" style="shape-rendering:geometricPrecision; text-rendering:geometricPrecision; image-rendering:optimizeQuality; fill-rule:evenodd; clip-rule:evenodd" xmlns:xlink="http://www.w3.org/1999/xlink">
<g><path style="opacity:0.967" fill="#363636" d="M 26.5,-0.5 C 29.1667,-0.5 31.8333,-0.5 34.5,-0.5C 38.4916,1.91831 42.6583,4.25164 47,6.5C 51.3417,4.25164 55.5084,1.91831 59.5,-0.5C 62.1667,-0.5 64.8333,-0.5 67.5,-0.5C 80.8909,2.55743 89.8909,10.5574 94.5,23.5C 94.5,27.8333 94.5,32.1667 94.5,36.5C 86.1046,52.1696 79.9379,68.8363 76,86.5C 73.7612,93.2279 69.5945,98.2279 63.5,101.5C 61.5,101.5 59.5,101.5 57.5,101.5C 52.6919,96.8372 51.3585,91.1706 53.5,84.5C 52.8097,76.3836 51.4764,68.3836 49.5,60.5C 47.8333,60.5 46.1667,60.5 44.5,60.5C 41.6812,71.3672 40.5145,82.3672 41,93.5C 40.7537,97.0047 39.2537,99.6714 36.5,101.5C 34.5,101.5 32.5,101.5 30.5,101.5C 24.4055,98.2279 20.2388,93.2279 18,86.5C 14.0735,68.8747 7.90685,52.208 -0.5,36.5C -0.5,32.1667 -0.5,27.8333 -0.5,23.5C 4.12104,10.5442 13.121,2.54421 26.5,-0.5 Z"/></g>
<g><path style="opacity:1" fill="#f2f0ef" d="M 65.5,9.5 C 73.2729,9.804 79.4396,13.1373 84,19.5C 86.6436,24.4364 87.1436,29.6031 85.5,35C 85.1501,36.2575 84.4835,36.5908 83.5,36C 85.1414,22.4891 79.1414,14.6558 65.5,12.5C 65.5,11.5 65.5,10.5 65.5,9.5 Z"/></g>
<g><path style="opacity:1" fill="#f6f4f3" d="M 39.5,14.5 C 50.8197,12.2437 58.9864,16.2437 64,26.5C 65.8877,44.8072 57.721,52.6405 39.5,50C 27.2356,43.3062 24.4023,33.8062 31,21.5C 33.4412,18.5464 36.2745,16.2131 39.5,14.5 Z"/></g>
<g><path style="opacity:1" fill="#353635" d="M 43.5,21.5 C 45.5,21.5 47.5,21.5 49.5,21.5C 49.5,24.1667 49.5,26.8333 49.5,29.5C 52.1667,29.5 54.8333,29.5 57.5,29.5C 57.5,31.5 57.5,33.5 57.5,35.5C 54.8333,35.5 52.1667,35.5 49.5,35.5C 49.5,38.1667 49.5,40.8333 49.5,43.5C 47.5,43.5 45.5,43.5 43.5,43.5C 43.5,40.8333 43.5,38.1667 43.5,35.5C 40.8333,35.5 38.1667,35.5 35.5,35.5C 35.5,33.5 35.5,31.5 35.5,29.5C 38.1667,29.5 40.8333,29.5 43.5,29.5C 43.5,26.8333 43.5,24.1667 43.5,21.5 Z"/></g>
</svg>
