<?xml version="1.0" encoding="UTF-8"?>
<!DOCTYPE svg PUBLIC "-//W3C//DTD SVG 1.1//EN" "http://www.w3.org/Graphics/SVG/1.1/DTD/svg11.dtd">
<svg xmlns="http://www.w3.org/2000/svg" version="1.1" width="102px" height="103px" style="shape-rendering:geometricPrecision; text-rendering:geometricPrecision; image-rendering:optimizeQuality; fill-rule:evenodd; clip-rule:evenodd" xmlns:xlink="http://www.w3.org/1999/xlink">
<g><path style="opacity:0.951" fill="#373737" d="M 83.5,-0.5 C 86.8333,-0.5 90.1667,-0.5 93.5,-0.5C 97.1667,1.16667 99.8333,3.83333 101.5,7.5C 101.5,28.8333 101.5,50.1667 101.5,71.5C 98.873,77.5113 94.2064,81.178 87.5,82.5C 86.354,81.8551 85.354,81.0217 84.5,80C 86.9562,78.2895 89.6229,76.9562 92.5,76C 94.3783,74.4571 95.8783,72.6238 97,70.5C 97.6667,50.1667 97.6667,29.8333 97,9.5C 94.0682,3.456 89.5682,1.956 83.5,5C 82.2986,5.90252 81.4652,7.06919 81,8.5C 80.6667,27.1667 80.3333,45.8333 80,64.5C 76.7799,85.8848 64.6133,98.5514 43.5,102.5C 41.1667,102.5 38.8333,102.5 36.5,102.5C 15.6192,99.2859 3.28587,87.2859 -0.5,66.5C -0.5,63.5 -0.5,60.5 -0.5,57.5C 5.86341,30.6309 22.8634,19.1309 50.5,23C 61.6537,26.4826 70.1537,33.3159 76,43.5C 76.3333,31.1667 76.6667,18.8333 77,6.5C 78.6941,3.64238 80.8607,1.30904 83.5,-0.5 Z"/></g>
<g><path style="opacity:1" fill="#cac8c8" d="M 36.5,31.5 C 38.8519,32.5426 39.0185,33.8759 37,35.5C 35.2317,34.3181 35.0651,32.9848 36.5,31.5 Z"/></g>
<g><path style="opacity:1" fill="#dbd9d9" d="M 47.5,33.5 C 50.6741,33.9522 51.0075,34.9522 48.5,36.5C 47.6143,35.675 47.281,34.675 47.5,33.5 Z"/></g>
<g><path style="opacity:1" fill="#f4f2f1" d="M 24.5,35.5 C 26.332,36.1405 26.6653,37.1405 25.5,38.5C 24.6143,37.675 24.281,36.675 24.5,35.5 Z"/></g>
<g><path style="opacity:1" fill="#cfcecd" d="M 57.5,39.5 C 58.5,39.5 59.5,39.5 60.5,39.5C 60.5,40.5 60.5,41.5 60.5,42.5C 59.5,42.5 58.5,42.5 57.5,42.5C 57.5,41.5 57.5,40.5 57.5,39.5 Z"/></g>
<g><path style="opacity:1" fill="#efeeed" d="M 39.5,42.5 C 55.5955,44.6899 61.7622,53.6899 58,69.5C 54.2705,77.5357 47.9372,81.5357 39,81.5C 28.8559,80.1902 22.6893,74.5235 20.5,64.5C 20.477,62.9334 20.977,61.6001 22,60.5C 23.5546,69.0542 28.3879,74.8875 36.5,78C 51.4567,77.711 57.6234,70.211 55,55.5C 51.7246,49.2271 46.5579,45.7271 39.5,45C 38.4019,44.2303 38.4019,43.397 39.5,42.5 Z"/></g>
<g><path style="opacity:1" fill="#fefdfb" d="M 15.5,44.5 C 17.337,44.6395 17.6704,45.3061 16.5,46.5C 15.7025,46.0431 15.3691,45.3764 15.5,44.5 Z"/></g>
<g><path style="opacity:1" fill="#dbdad9" d="M 65.5,48.5 C 67.6246,49.3676 67.7913,50.3676 66,51.5C 64.3167,50.8235 64.1501,49.8235 65.5,48.5 Z"/></g>
<g><path style="opacity:1" fill="#e3e2e1" d="M 11.5,54.5 C 14.1247,55.4657 14.1247,56.4657 11.5,57.5C 10.4376,56.5754 10.4376,55.5754 11.5,54.5 Z"/></g>
<g><path style="opacity:1" fill="#e0dfde" d="M 67.5,60.5 C 70.6741,60.9522 71.0075,61.9522 68.5,63.5C 67.6143,62.675 67.281,61.675 67.5,60.5 Z"/></g>
<g><path style="opacity:1" fill="#e1dfde" d="M 10.5,66.5 C 13.6741,66.9522 14.0075,67.9522 11.5,69.5C 10.6143,68.675 10.281,67.675 10.5,66.5 Z"/></g>
<g><path style="opacity:1" fill="#dedcdb" d="M 64.5,72.5 C 67.5476,72.494 68.0476,73.494 66,75.5C 64.9614,74.7562 64.4614,73.7562 64.5,72.5 Z"/></g>
<g><path style="opacity:1" fill="#eeeceb" d="M 15.5,77.5 C 17.4646,77.9483 17.7979,78.9483 16.5,80.5C 15.6143,79.675 15.281,78.675 15.5,77.5 Z"/></g>
<g><path style="opacity:1" fill="#c2c1c0" d="M 57.5,81.5 C 58.5,81.5 59.5,81.5 60.5,81.5C 60.5,82.5 60.5,83.5 60.5,84.5C 59.5,84.5 58.5,84.5 57.5,84.5C 57.5,83.5 57.5,82.5 57.5,81.5 Z"/></g>
<g><path style="opacity:1" fill="#ecebea" d="M 24.5,85.5 C 26.4646,85.9483 26.7979,86.9483 25.5,88.5C 24.6143,87.675 24.281,86.675 24.5,85.5 Z"/></g>
<g><path style="opacity:1" fill="#d8d6d6" d="M 47.5,87.5 C 50.6741,87.9522 51.0075,88.9522 48.5,90.5C 47.6143,89.675 47.281,88.675 47.5,87.5 Z"/></g>
<g><path style="opacity:1" fill="#d0cece" d="M 36.5,88.5 C 38.8519,89.5426 39.0185,90.8759 37,92.5C 35.2317,91.3181 35.0651,89.9848 36.5,88.5 Z"/></g>
</svg>
