<?xml version="1.0" encoding="UTF-8"?>
<!DOCTYPE svg PUBLIC "-//W3C//DTD SVG 1.1//EN" "http://www.w3.org/Graphics/SVG/1.1/DTD/svg11.dtd">
<svg xmlns="http://www.w3.org/2000/svg" version="1.1" width="102px" height="88px" style="shape-rendering:geometricPrecision; text-rendering:geometricPrecision; image-rendering:optimizeQuality; fill-rule:evenodd; clip-rule:evenodd" xmlns:xlink="http://www.w3.org/1999/xlink">
<g><path style="opacity:0.896" fill="#353635" d="M 3.5,-0.5 C 7.5,-0.5 11.5,-0.5 15.5,-0.5C 17.8577,1.12857 20.5243,2.29523 23.5,3C 41.8333,3.66667 60.1667,3.66667 78.5,3C 81.1739,2.32986 83.5073,1.16319 85.5,-0.5C 89.8333,-0.5 94.1667,-0.5 98.5,-0.5C 99.5,0.5 100.5,1.5 101.5,2.5C 101.5,5.16667 101.5,7.83333 101.5,10.5C 100.199,13.9965 98.1991,17.1632 95.5,20C 94.6671,23.4975 93.8337,26.9975 93,30.5C 92.1667,31.3333 91.3333,32.1667 90.5,33C 84.694,33.1206 79.0274,33.9539 73.5,35.5C 71.2573,34.474 69.2573,34.6407 67.5,36C 52.4741,36.7835 37.4741,36.4502 22.5,35C 22,34.5 21.5,34 21,33.5C 17.5915,34.6219 14.0915,34.7886 10.5,34C 8.95118,32.786 7.78451,31.286 7,29.5C 6.2255,25.853 5.55884,22.1864 5,18.5C 1.91322,15.3741 0.0798843,11.7074 -0.5,7.5C -0.5,6.16667 -0.5,4.83333 -0.5,3.5C 0.5,1.83333 1.83333,0.5 3.5,-0.5 Z M 38.5,14.5 C 41.8621,14.0695 44.6954,15.0695 47,17.5C 48.3254,22.4012 48.8254,27.4012 48.5,32.5C 44.1667,32.5 39.8333,32.5 35.5,32.5C 34.8333,27.8405 34.6666,23.1738 35,18.5C 35.6897,16.6498 36.8564,15.3164 38.5,14.5 Z M 56.5,14.5 C 63.0003,13.3996 66.3337,16.0663 66.5,22.5C 65.9469,25.8167 65.6135,29.15 65.5,32.5C 61.1667,32.5 56.8333,32.5 52.5,32.5C 52.3345,28.4862 52.5012,24.4862 53,20.5C 53.5637,18.1133 54.7304,16.1133 56.5,14.5 Z M 73.5,15.5 C 77.2622,15.3064 78.9288,17.1398 78.5,21C 78.3632,23.898 77.8632,26.7314 77,29.5C 74.3504,32.2174 71.8504,32.0507 69.5,29C 70.2931,25.5894 70.7931,22.0894 71,18.5C 72.045,17.6266 72.8783,16.6266 73.5,15.5 Z M 86.5,15.5 C 88.3904,15.2965 89.8904,15.9632 91,17.5C 91.0672,21.4945 90.2339,25.3278 88.5,29C 86.5,29.6667 84.5,29.6667 82.5,29C 82.0426,28.586 81.7093,28.086 81.5,27.5C 82.2305,24.8908 82.7305,22.2241 83,19.5C 83.6897,17.6498 84.8564,16.3164 86.5,15.5 Z M 10.5,16.5 C 12.8273,16.2471 14.8273,16.9137 16.5,18.5C 17.811,22.3888 18.4776,26.3888 18.5,30.5C 16.2075,30.7564 14.0408,30.4231 12,29.5C 9.73939,25.2922 9.23939,20.9588 10.5,16.5 Z M 22.5,16.5 C 25.0444,16.1043 27.2111,16.771 29,18.5C 30.3674,22.6996 30.8674,27.0329 30.5,31.5C 28.2075,31.7564 26.0408,31.4231 24,30.5C 22.4,25.8301 21.9,21.1634 22.5,16.5 Z"/></g>
<g><path style="opacity:0.899" fill="#353635" d="M 101.5,52.5 C 101.5,55.1667 101.5,57.8333 101.5,60.5C 100.4,64.6858 98.2334,68.3525 95,71.5C 94.5242,75.5763 93.3575,79.4096 91.5,83C 87.7059,84.7197 83.8725,84.8863 80,83.5C 75.3919,84.792 70.8919,86.1253 66.5,87.5C 61.5,87.5 56.5,87.5 51.5,87.5C 50.8333,86.1667 50.1667,86.1667 49.5,87.5C 44.5,87.5 39.5,87.5 34.5,87.5C 32.5629,85.2443 30.2295,84.911 27.5,86.5C 21.5851,85.0617 15.5851,84.0617 9.5,83.5C 6.81149,78.9187 5.31149,73.9187 5,68.5C 2.12106,65.6558 0.287725,62.3225 -0.5,58.5C -0.5,56.8333 -0.5,55.1667 -0.5,53.5C 2.09218,50.5441 5.42551,49.2108 9.5,49.5C 15.3238,50.4122 20.9905,51.9122 26.5,54C 42.8333,54.6667 59.1667,54.6667 75.5,54C 81.0235,51.9016 86.6902,50.4016 92.5,49.5C 96.0096,49.1402 99.0096,50.1402 101.5,52.5 Z M 38.5,64.5 C 42.2727,63.8224 45.106,65.1558 47,68.5C 48.3885,73.3722 48.8885,78.3722 48.5,83.5C 44.2325,83.797 40.0659,83.4637 36,82.5C 33.2457,75.8502 34.0791,69.8502 38.5,64.5 Z M 57.5,64.5 C 61.6826,63.8456 64.516,65.5123 66,69.5C 66.5283,74.1313 66.0283,78.6313 64.5,83C 60.577,83.7927 56.7436,83.626 53,82.5C 52.3333,78.5 52.3333,74.5 53,70.5C 53.9793,68.0324 55.4793,66.0324 57.5,64.5 Z M 11.5,66.5 C 13.9032,66.393 15.7365,67.393 17,69.5C 17.9358,73.1135 18.4358,76.7802 18.5,80.5C 11.4351,81.0947 8.43512,77.7614 9.5,70.5C 9.80288,68.8857 10.4695,67.5523 11.5,66.5 Z M 23.5,66.5 C 26.5608,66.4443 28.7275,67.7776 30,70.5C 30.8253,74.2113 30.6586,77.878 29.5,81.5C 25.7854,82.982 23.6187,81.6487 23,77.5C 21.5364,73.5876 21.7031,69.921 23.5,66.5 Z M 72.5,66.5 C 76.9225,65.4249 78.9225,67.0916 78.5,71.5C 78.3184,74.2263 77.8184,76.8929 77,79.5C 74.415,82.1283 71.915,82.1283 69.5,79.5C 70.2618,75.8889 70.7618,72.2222 71,68.5C 71.7172,67.9558 72.2172,67.2891 72.5,66.5 Z M 85.5,66.5 C 87.1992,66.3398 88.8659,66.5065 90.5,67C 91.0757,70.8354 90.5757,74.6687 89,78.5C 86.415,81.1283 83.915,81.1283 81.5,78.5C 81.8317,74.0945 83.165,70.0945 85.5,66.5 Z"/></g>
</svg>
