<?xml version="1.0" encoding="UTF-8"?>
<!DOCTYPE svg PUBLIC "-//W3C//DTD SVG 1.1//EN" "http://www.w3.org/Graphics/SVG/1.1/DTD/svg11.dtd">
<svg xmlns="http://www.w3.org/2000/svg" version="1.1" width="97px" height="105px" style="shape-rendering:geometricPrecision; text-rendering:geometricPrecision; image-rendering:optimizeQuality; fill-rule:evenodd; clip-rule:evenodd" xmlns:xlink="http://www.w3.org/1999/xlink">
<g><path style="opacity:0.946" fill="#353635" d="M 35.5,-0.5 C 43.8333,-0.5 52.1667,-0.5 60.5,-0.5C 63.9497,0.989347 66.783,3.32268 69,6.5C 70.1078,14.4067 70.6078,22.24 70.5,30C 71.1129,40.6009 67.2796,49.1009 59,55.5C 58.5017,58.8168 58.335,62.1501 58.5,65.5C 72.7406,62.7424 83.574,67.4091 91,79.5C 92.8608,86.2888 94.6942,92.9554 96.5,99.5C 96.5,100.833 96.5,102.167 96.5,103.5C 95.5084,103.328 94.8417,103.662 94.5,104.5C 63.5,104.5 32.5,104.5 1.5,104.5C 0.744213,93.4608 3.24421,83.1275 9,73.5C 17.1015,66.2632 26.6015,63.5965 37.5,65.5C 37.665,62.1501 37.4983,58.8168 37,55.5C 28.8436,49.1855 25.0103,40.8522 25.5,30.5C 26.0415,22.8361 26.5415,15.1694 27,7.5C 29.0738,3.92315 31.9072,1.25648 35.5,-0.5 Z M 30.5,21.5 C 42.1857,21.1678 53.8523,21.5011 65.5,22.5C 66.4066,25.4212 66.7399,28.4212 66.5,31.5C 54.1667,31.5 41.8333,31.5 29.5,31.5C 29.4595,28.1194 29.7929,24.7861 30.5,21.5 Z M 29.5,36.5 C 29.56,35.9569 29.8933,35.6236 30.5,35.5C 31.6139,36.723 31.7805,38.0563 31,39.5C 30.7679,38.2625 30.2679,37.2625 29.5,36.5 Z M 41.5,57.5 C 45.7352,58.436 50.0685,58.7693 54.5,58.5C 54.6659,63.5111 54.4993,68.5111 54,73.5C 49.5632,80.3704 45.5632,80.037 42,72.5C 41.5007,67.5111 41.3341,62.5111 41.5,57.5 Z"/></g>
</svg>
