<?xml version="1.0" encoding="UTF-8"?>
<!DOCTYPE svg PUBLIC "-//W3C//DTD SVG 1.1//EN" "http://www.w3.org/Graphics/SVG/1.1/DTD/svg11.dtd">
<svg xmlns="http://www.w3.org/2000/svg" version="1.1" width="101px" height="104px" style="shape-rendering:geometricPrecision; text-rendering:geometricPrecision; image-rendering:optimizeQuality; fill-rule:evenodd; clip-rule:evenodd" xmlns:xlink="http://www.w3.org/1999/xlink">
<g><path style="opacity:0.825" fill="#353635" d="M 6.5,-0.5 C 7.83333,-0.5 9.16667,-0.5 10.5,-0.5C 13.3872,1.71794 14.2205,4.71794 13,8.5C 11.9887,9.33663 10.8221,9.66997 9.5,9.5C 9.29619,12.5176 8.96286,15.5176 8.5,18.5C 12.5138,18.3345 16.5138,18.5012 20.5,19C 27.1667,25.6667 33.8333,32.3333 40.5,39C 44.2875,39.1596 47.9542,39.8263 51.5,41C 62.6667,52.1667 73.8333,63.3333 85,74.5C 88.6659,79.4944 88.1659,83.9944 83.5,88C 80.0357,88.8166 76.7024,88.4833 73.5,87C 62,75.5 50.5,64 39,52.5C 37.3396,49.2302 37.0062,45.8969 38,42.5C 31.5,36 25,29.5 18.5,23C 14.1126,22.774 9.7793,22.274 5.5,21.5C 4.36987,18.021 4.36987,14.521 5.5,11C 4.83333,9 4.16667,7 3.5,5C 3.86269,2.80771 4.86269,0.974377 6.5,-0.5 Z M 55.5,52.5 C 62.3498,58.1713 68.1832,64.5047 73,71.5C 71.6667,72.8333 70.3333,74.1667 69,75.5C 63.3333,69.8333 57.6667,64.1667 52,58.5C 51.3333,57.8333 51.3333,57.1667 52,56.5C 53.3756,55.2949 54.5423,53.9616 55.5,52.5 Z"/></g>
<g><path style="opacity:0.875" fill="#353635" d="M 100.5,67.5 C 100.5,68.8333 100.5,70.1667 100.5,71.5C 98.2511,75.2522 94.9177,76.4188 90.5,75C 81.6667,66.1667 72.8333,57.3333 64,48.5C 63.6667,46.1667 63.3333,43.8333 63,41.5C 55.3333,33.8333 47.6667,26.1667 40,18.5C 37.9845,9.85927 41.1511,4.1926 49.5,1.5C 53.958,3.42049 55.458,6.75383 54,11.5C 52.9114,15.1861 50.7447,18.0194 47.5,20C 53.5,26 59.5,32 65.5,38C 67.8333,38.3333 70.1667,38.6667 72.5,39C 82.0629,48.3951 91.3962,57.8951 100.5,67.5 Z M 76.5,49.5 C 80.9645,53.4632 85.2978,57.6298 89.5,62C 88.5342,63.6779 87.2009,64.3446 85.5,64C 82,60.5 78.5,57 75,53.5C 74.7003,51.9343 75.2003,50.601 76.5,49.5 Z"/></g>
<g><path style="opacity:0.854" fill="#353635" d="M 65.5,103.5 C 64.8333,103.5 64.1667,103.5 63.5,103.5C 52.6168,94.1221 42.1168,84.1221 32,73.5C 30.8732,70.6229 30.2065,67.6229 30,64.5C 24.1667,58.6667 18.3333,52.8333 12.5,47C 8.06809,46.9444 3.73476,46.7777 -0.5,46.5C -0.5,41.8333 -0.5,37.1667 -0.5,32.5C 0.151487,31.9094 0.818153,31.2427 1.5,30.5C 2.08605,30.7093 2.58605,31.0426 3,31.5C 3.49863,35.1516 3.6653,38.8183 3.5,42.5C 6.92045,42.4832 10.2538,42.3165 13.5,42C 19.8333,48.3333 26.1667,54.6667 32.5,61C 35.1667,61.3333 37.8333,61.6667 40.5,62C 50.6667,72.1667 60.8333,82.3333 71,92.5C 72.8172,98.201 70.9839,101.868 65.5,103.5 Z M 44.5,73.5 C 49.7405,77.233 54.5738,81.5663 59,86.5C 58.9827,88.5676 57.9827,90.2343 56,91.5C 51.1667,86.6667 46.3333,81.8333 41.5,77C 42.7101,75.9609 43.7101,74.7942 44.5,73.5 Z"/></g>
</svg>
