<?xml version="1.0" encoding="UTF-8"?>
<!DOCTYPE svg PUBLIC "-//W3C//DTD SVG 1.1//EN" "http://www.w3.org/Graphics/SVG/1.1/DTD/svg11.dtd">
<svg xmlns="http://www.w3.org/2000/svg" version="1.1" width="103px" height="101px" style="shape-rendering:geometricPrecision; text-rendering:geometricPrecision; image-rendering:optimizeQuality; fill-rule:evenodd; clip-rule:evenodd" xmlns:xlink="http://www.w3.org/1999/xlink">
<g><path style="opacity:0.957" fill="#363636" d="M 57.5,-0.5 C 59.1667,-0.5 60.8333,-0.5 62.5,-0.5C 64.6451,1.07526 66.9785,2.4086 69.5,3.5C 72.4474,2.50953 75.114,1.17619 77.5,-0.5C 79.1667,-0.5 80.8333,-0.5 82.5,-0.5C 91.9658,2.30531 97.6325,8.63865 99.5,18.5C 94.4483,30.4879 90.2816,42.8213 87,55.5C 85.1128,59.4005 82.1128,61.7338 78,62.5C 76.3419,62.3248 75.0086,61.6582 74,60.5C 73.6635,54.4611 72.9968,48.4611 72,42.5C 69.9015,35.8469 68.2349,36.1802 67,43.5C 66.912,49.6098 66.2453,55.6098 65,61.5C 60.6313,63.2679 56.9646,62.2679 54,58.5C 50.5756,46.7878 46.2422,35.4545 41,24.5C 38.7402,10.9432 44.2402,2.60983 57.5,-0.5 Z"/></g>
<g><path style="opacity:1" fill="#f5f4f3" d="M 53.5,9.5 C 60.6275,9.70634 62.2942,12.873 58.5,19C 52.5069,20.6683 50.0069,18.5017 51,12.5C 51.6979,11.3094 52.5313,10.3094 53.5,9.5 Z"/></g>
<g><path style="opacity:1" fill="#f1efee" d="M 81.5,8.5 C 89.102,10.1038 92.4353,14.7705 91.5,22.5C 90.5,22.5 89.5,22.5 88.5,22.5C 89.0068,16.8321 86.5068,13.1655 81,11.5C 80.5304,10.4232 80.6971,9.42317 81.5,8.5 Z"/></g>
<g><path style="opacity:0.935" fill="#353635" d="M 102.5,78.5 C 102.5,80.1667 102.5,81.8333 102.5,83.5C 88.7151,88.981 75.0484,94.6477 61.5,100.5C 60.1667,100.5 58.8333,100.5 57.5,100.5C 44.3152,97.0573 30.9819,93.724 17.5,90.5C 16.1667,81.8333 16.1667,73.1667 17.5,64.5C 25.332,58.0239 33.332,57.8572 41.5,64C 46.1786,64.1637 50.8453,64.1637 55.5,64C 56.856,67.6531 55.856,70.6531 52.5,73C 49.0433,74.7435 45.3767,75.7435 41.5,76C 47.6836,78.5045 53.8502,81.0045 60,83.5C 69.4132,80.4743 78.9132,77.641 88.5,75C 93.9899,73.4963 98.6566,74.663 102.5,78.5 Z"/></g>
<g><path style="opacity:0.928" fill="#353635" d="M -0.5,92.5 C -0.5,82.5 -0.5,72.5 -0.5,62.5C 14.6813,57.179 20.0146,62.3456 15.5,78C 19.8443,94.1675 14.5109,99.0008 -0.5,92.5 Z"/></g>
</svg>
