<?xml version="1.0" encoding="UTF-8"?>
<!DOCTYPE svg PUBLIC "-//W3C//DTD SVG 1.1//EN" "http://www.w3.org/Graphics/SVG/1.1/DTD/svg11.dtd">
<svg xmlns="http://www.w3.org/2000/svg" version="1.1" width="96px" height="105px" style="shape-rendering:geometricPrecision; text-rendering:geometricPrecision; image-rendering:optimizeQuality; fill-rule:evenodd; clip-rule:evenodd" xmlns:xlink="http://www.w3.org/1999/xlink">
<g><path style="opacity:0.86" fill="#353635" d="M 11.5,-0.5 C 12.8333,-0.5 14.1667,-0.5 15.5,-0.5C 22.3086,2.41221 25.6419,7.74554 25.5,15.5C 25.3427,22.3128 22.676,27.8128 17.5,32C 27.1667,40.3333 36.8333,48.6667 46.5,57C 48.4432,56.6948 50.4432,56.6948 52.5,57C 67.312,68.385 81.6453,80.2183 95.5,92.5C 95.5,94.1667 95.5,95.8333 95.5,97.5C 93.5293,99.8082 91.5293,102.142 89.5,104.5C 87.1667,104.5 84.8333,104.5 82.5,104.5C 69.529,92.3658 56.3623,80.3658 43,68.5C 42.662,63.1358 40.162,58.9691 35.5,56C 24.6667,47.1667 13.8333,38.3333 3,29.5C -0.783861,20.4728 -0.117194,11.8061 5,3.5C 7.09481,1.87527 9.26148,0.541935 11.5,-0.5 Z M 11.5,5.5 C 13.4672,5.26057 15.3005,5.59391 17,6.5C 20.8411,13.9328 20.0077,20.7661 14.5,27C 12.1047,29.1451 9.93804,28.9784 8,26.5C 4.51618,18.7594 5.68285,11.7594 11.5,5.5 Z M 61.5,70.5 C 68.083,75.0716 74.4164,80.0716 80.5,85.5C 78.8333,87.5 77.1667,89.5 75.5,91.5C 69.5194,86.6872 63.6861,81.6872 58,76.5C 57.3333,75.8333 57.3333,75.1667 58,74.5C 59.3756,73.2949 60.5423,71.9616 61.5,70.5 Z"/></g>
<g><path style="opacity:0.944" fill="#363636" d="M 63.5,2.5 C 66.462,3.06093 69.2953,4.06093 72,5.5C 80.3111,1.1599 87.3111,2.82657 93,10.5C 94.4049,14.0721 94.7383,17.7387 94,21.5C 90.0142,29.1235 87.0142,37.1235 85,45.5C 82.6433,50.3664 79.3099,51.3664 75,48.5C 74.8797,42.7059 74.0463,37.0393 72.5,31.5C 70.8693,33.0588 70.036,35.0588 70,37.5C 69.6667,41.5 69.3333,45.5 69,49.5C 66.2886,50.9256 63.7886,50.5923 61.5,48.5C 58.1524,40.1189 54.6524,31.7855 51,23.5C 47.9856,12.1925 52.1522,5.19246 63.5,2.5 Z"/></g>
<g><path style="opacity:1" fill="#eae8e8" d="M 80.5,9.5 C 86.5012,10.3227 89.3345,13.6561 89,19.5C 87.9887,20.3366 86.8221,20.67 85.5,20.5C 85.6621,18.4727 85.4955,16.4727 85,14.5C 83.082,13.4582 81.2487,12.2915 79.5,11C 80.056,10.6174 80.3893,10.1174 80.5,9.5 Z"/></g>
<g><path style="opacity:0.924" fill="#363636" d="M 25.5,104.5 C 23.8333,104.5 22.1667,104.5 20.5,104.5C 19.1016,84.772 17.4349,84.772 15.5,104.5C 13.8333,104.5 12.1667,104.5 10.5,104.5C 9.16394,102.99 7.99728,101.323 7,99.5C 5.35855,92.3963 2.85855,85.7296 -0.5,79.5C -0.5,78.1667 -0.5,76.8333 -0.5,75.5C 3.11885,66.6219 9.45218,63.9553 18.5,67.5C 30.1397,63.97 35.9731,68.3034 36,80.5C 32.9095,86.5107 30.5761,92.844 29,99.5C 28.0027,101.323 26.8361,102.99 25.5,104.5 Z"/></g>
<g><path style="opacity:1" fill="#e4e2e1" d="M 25.5,70.5 C 30.9686,71.6201 32.9686,74.7868 31.5,80C 30.8333,80.6667 30.1667,80.6667 29.5,80C 29.208,76.9545 27.708,74.7879 25,73.5C 24.5304,72.4232 24.6971,71.4232 25.5,70.5 Z"/></g>
</svg>
