<?xml version="1.0" encoding="UTF-8"?>
<!DOCTYPE svg PUBLIC "-//W3C//DTD SVG 1.1//EN" "http://www.w3.org/Graphics/SVG/1.1/DTD/svg11.dtd">
<svg xmlns="http://www.w3.org/2000/svg" version="1.1" width="102px" height="101px" style="shape-rendering:geometricPrecision; text-rendering:geometricPrecision; image-rendering:optimizeQuality; fill-rule:evenodd; clip-rule:evenodd" xmlns:xlink="http://www.w3.org/1999/xlink">
<g><path style="opacity:0.879" fill="#353635" d="M 77.5,-0.5 C 85.1667,-0.5 92.8333,-0.5 100.5,-0.5C 100.5,0.166667 100.833,0.5 101.5,0.5C 101.5,1.16667 101.5,1.83333 101.5,2.5C 94.2456,3.29903 86.9123,3.79903 79.5,4C 76.1667,6.66667 72.8333,9.33333 69.5,12C 74.2114,16.1396 75.7114,21.3062 74,27.5C 73.0267,29.64 71.5267,31.3067 69.5,32.5C 61.0142,24.5145 52.6809,16.3478 44.5,8C 51.9398,0.647074 59.2731,0.81374 66.5,8.5C 70.5011,5.82483 74.1677,2.82483 77.5,-0.5 Z"/></g>
<g><path style="opacity:0.706" fill="#353635" d="M 42.5,17.5 C 43.8333,17.5 45.1667,17.5 46.5,17.5C 45.1667,22.1667 42.1667,25.1667 37.5,26.5C 37.3433,25.1266 37.51,23.7932 38,22.5C 39.7073,20.9625 41.2073,19.2959 42.5,17.5 Z"/></g>
<g><path style="opacity:0.71" fill="#353635" d="M 48.5,23.5 C 49.8333,23.5 51.1667,23.5 52.5,23.5C 51.1667,28.1667 48.1667,31.1667 43.5,32.5C 43.3433,31.1266 43.51,29.7932 44,28.5C 45.7073,26.9625 47.2073,25.2959 48.5,23.5 Z"/></g>
<g><path style="opacity:0.918" fill="#353635" d="M 83.5,100.5 C 58.8333,100.5 34.1667,100.5 9.5,100.5C 6.87014,96.3322 6.87014,92.1656 9.5,88C 16.7194,86.5714 24.0528,86.0714 31.5,86.5C 31.5,82.1667 31.5,77.8333 31.5,73.5C 27.2256,73.7427 23.5589,72.4094 20.5,69.5C 13.4734,57.437 6.47339,45.437 -0.5,33.5C -0.5,32.8333 -0.5,32.1667 -0.5,31.5C 5.99326,28.2955 11.9933,28.9621 17.5,33.5C 20.6253,38.2495 23.6253,43.0828 26.5,48C 36.1667,48.3333 45.8333,48.6667 55.5,49C 59.1813,50.8369 61.5147,53.6702 62.5,57.5C 61.1266,57.6567 59.7932,57.49 58.5,57C 57.1218,55.2866 55.4552,53.9533 53.5,53C 45.4792,52.1684 37.4792,52.3351 29.5,53.5C 31.0426,56.086 32.7093,58.586 34.5,61C 48.5684,61.0522 62.5684,61.7188 76.5,63C 83.4248,68.38 90.2581,73.88 97,79.5C 97.5842,86.1252 94.7508,88.2919 88.5,86C 83.0234,82.0242 77.6901,77.8575 72.5,73.5C 71.5078,77.7828 71.1744,82.1161 71.5,86.5C 76.0321,86.074 80.1988,87.074 84,89.5C 86.1336,93.3529 85.967,97.0195 83.5,100.5 Z M 35.5,73.5 C 46.1667,73.5 56.8333,73.5 67.5,73.5C 67.5,77.8333 67.5,82.1667 67.5,86.5C 56.8333,86.5 46.1667,86.5 35.5,86.5C 35.5,82.1667 35.5,77.8333 35.5,73.5 Z"/></g>
<g><path style="opacity:0.729" fill="#353635" d="M 54.5,29.5 C 55.8333,29.5 57.1667,29.5 58.5,29.5C 57.1667,34.1667 54.1667,37.1667 49.5,38.5C 49.3433,37.1266 49.51,35.7932 50,34.5C 51.7073,32.9625 53.2073,31.2959 54.5,29.5 Z"/></g>
</svg>
