<?xml version="1.0" encoding="UTF-8"?>
<!DOCTYPE svg PUBLIC "-//W3C//DTD SVG 1.1//EN" "http://www.w3.org/Graphics/SVG/1.1/DTD/svg11.dtd">
<svg xmlns="http://www.w3.org/2000/svg" version="1.1" width="104px" height="104px" style="shape-rendering:geometricPrecision; text-rendering:geometricPrecision; image-rendering:optimizeQuality; fill-rule:evenodd; clip-rule:evenodd" xmlns:xlink="http://www.w3.org/1999/xlink">
<g><path style="opacity:0.82" fill="#353635" d="M 94.5,-0.5 C 95.1667,-0.5 95.8333,-0.5 96.5,-0.5C 98.8531,5.57059 101.186,11.5706 103.5,17.5C 103.5,42.5 103.5,67.5 103.5,92.5C 102.9,96.3661 101.566,100.033 99.5,103.5C 96.8333,103.5 94.1667,103.5 91.5,103.5C 90.8783,102.373 90.045,101.373 89,100.5C 88.8823,97.6287 88.2156,94.962 87,92.5C 86.3333,67.8333 86.3333,43.1667 87,18.5C 89.2233,11.9853 91.7233,5.65199 94.5,-0.5 Z M 93.5,13.5 C 94.8333,13.5 96.1667,13.5 97.5,13.5C 97.33,14.8221 97.6634,15.9887 98.5,17C 96.5273,17.4955 94.5273,17.6621 92.5,17.5C 92.4326,16.0413 92.7659,14.7079 93.5,13.5 Z M 90.5,21.5 C 93.5,21.5 96.5,21.5 99.5,21.5C 99.5,44.1667 99.5,66.8333 99.5,89.5C 96.5,89.5 93.5,89.5 90.5,89.5C 90.5,66.8333 90.5,44.1667 90.5,21.5 Z M 92.5,93.5 C 94.5,93.5 96.5,93.5 98.5,93.5C 99.1449,98.3148 97.3115,99.9814 93,98.5C 92.5065,96.8659 92.3398,95.1992 92.5,93.5 Z"/></g>
<g><path style="opacity:0.972" fill="#373737" d="M -0.5,101.5 C -0.5,68.1667 -0.5,34.8333 -0.5,1.5C 27.428,0.342634 55.428,0.175967 83.5,1C 84.6613,28.0946 84.8279,55.2612 84,82.5C 78.5323,88.9689 72.699,95.1356 66.5,101C 55.2596,102.146 43.9263,102.646 32.5,102.5C 21.4261,102.489 10.4261,102.156 -0.5,101.5 Z M 65.5,83.5 C 69.1817,83.3347 72.8484,83.5014 76.5,84C 73,87.5 69.5,91 66,94.5C 65.5014,90.8484 65.3347,87.1817 65.5,83.5 Z"/></g>
<g><path style="opacity:1" fill="#f9f7f6" d="M 17.5,17.5 C 20.9477,17.1079 24.1143,17.7746 27,19.5C 38.1123,15.8876 43.1123,19.8876 42,31.5C 39.4051,36.951 37.4051,42.6177 36,48.5C 34.5402,51.2098 32.5402,51.8765 30,50.5C 29.4987,46.4899 28.9987,42.4899 28.5,38.5C 27.5,38.5 26.5,38.5 25.5,38.5C 25.797,42.7675 25.4637,46.9341 24.5,51C 23.1667,51.6667 21.8333,51.6667 20.5,51C 18.4372,48.4894 16.9372,45.656 16,42.5C 14.4898,37.4859 12.9898,32.4859 11.5,27.5C 11.5153,25.3659 12.0153,23.3659 13,21.5C 14.6667,20.2668 16.1667,18.9335 17.5,17.5 Z"/></g>
<g><path style="opacity:1" fill="#424241" d="M 33.5,21.5 C 39.0351,22.3657 40.7018,25.3657 38.5,30.5C 37.1944,27.6613 35.1944,25.3279 32.5,23.5C 32.8627,22.8165 33.1961,22.1499 33.5,21.5 Z"/></g>
<g><path style="opacity:1" fill="#fefcfb" d="M 52.5,32.5 C 60.0084,32.0378 67.3417,32.5378 74.5,34C 67.3346,35.6268 60.0012,35.9601 52.5,35C 51.4019,34.2303 51.4019,33.397 52.5,32.5 Z"/></g>
<g><path style="opacity:1" fill="#fdfbfa" d="M 52.5,42.5 C 60.0084,42.0378 67.3417,42.5378 74.5,44C 67.3346,45.6268 60.0012,45.9601 52.5,45C 51.4019,44.2303 51.4019,43.397 52.5,42.5 Z"/></g>
<g><path style="opacity:1" fill="#fefcfb" d="M 11.5,59.5 C 32.1694,59.3334 52.836,59.5 73.5,60C 73.9574,60.414 74.2907,60.914 74.5,61.5C 53.1667,62.8333 31.8333,62.8333 10.5,61.5C 10.8627,60.8165 11.1961,60.1499 11.5,59.5 Z"/></g>
<g><path style="opacity:1" fill="#fefcfb" d="M 11.5,69.5 C 32.6512,69.0122 53.6512,69.5122 74.5,71C 63.8201,72.1574 52.9868,72.6574 42,72.5C 31.5,72.1667 21,71.8333 10.5,71.5C 10.8627,70.8165 11.1961,70.1499 11.5,69.5 Z"/></g>
</svg>
