<?xml version="1.0" encoding="UTF-8"?>
<!DOCTYPE svg PUBLIC "-//W3C//DTD SVG 1.1//EN" "http://www.w3.org/Graphics/SVG/1.1/DTD/svg11.dtd">
<svg xmlns="http://www.w3.org/2000/svg" version="1.1" width="101px" height="101px" style="shape-rendering:geometricPrecision; text-rendering:geometricPrecision; image-rendering:optimizeQuality; fill-rule:evenodd; clip-rule:evenodd" xmlns:xlink="http://www.w3.org/1999/xlink">
<g><path style="opacity:0.938" fill="#363636" d="M 24.5,-0.5 C 27.1667,-0.5 29.8333,-0.5 32.5,-0.5C 35.9816,1.74265 39.6483,3.74265 43.5,5.5C 47.5556,3.4722 51.5556,1.4722 55.5,-0.5C 57.8333,-0.5 60.1667,-0.5 62.5,-0.5C 88.4517,8.67419 94.4517,25.3409 80.5,49.5C 87.2135,55.8826 93.8802,62.216 100.5,68.5C 100.5,70.5 100.5,72.5 100.5,74.5C 97.9466,80.065 93.6133,81.8984 87.5,80C 83.6937,76.1937 79.8604,72.3604 76,68.5C 73.7946,77.116 70.7946,85.4494 67,93.5C 64.5588,96.4536 61.7255,98.7869 58.5,100.5C 56.5,100.5 54.5,100.5 52.5,100.5C 48.9618,95.6739 47.9618,90.3406 49.5,84.5C 48.9045,77.4021 47.7379,70.4021 46,63.5C 43.9783,62.0091 42.3117,62.3424 41,64.5C 38.5112,73.0526 37.6779,81.7193 38.5,90.5C 38.1343,94.2723 36.801,97.6057 34.5,100.5C 32.5,100.5 30.5,100.5 28.5,100.5C 23.1332,97.627 19.2999,93.2937 17,87.5C 13.2874,75.2709 9.95406,62.9375 7,50.5C 4.63501,45.339 2.13501,40.339 -0.5,35.5C -0.5,30.8333 -0.5,26.1667 -0.5,21.5C 4.07481,9.92682 12.4081,2.59349 24.5,-0.5 Z M 37.5,29.5 C 40.4483,21.4284 46.2816,17.0951 55,16.5C 63.7053,16.6495 69.372,20.6495 72,28.5C 60.2889,19.0277 48.7889,19.3611 37.5,29.5 Z M 47.5,28.5 C 45.8636,33.0806 46.1969,37.4139 48.5,41.5C 37.2886,37.5141 36.9552,33.1808 47.5,28.5 Z M 64.5,40.5 C 65.6518,36.1858 65.6518,32.1858 64.5,28.5C 67.4735,30.1468 70.1401,32.1468 72.5,34.5C 70.527,37.4803 67.8603,39.4803 64.5,40.5 Z M 36.5,39.5 C 48.4654,49.6668 60.6321,50.0002 73,40.5C 70.6184,49.5241 64.6184,54.1908 55,54.5C 45.1035,54.1038 38.9369,49.1038 36.5,39.5 Z M 73.5,49.5 C 81.4315,55.9279 88.9315,62.9279 96,70.5C 96.0171,74.8118 93.8504,76.6452 89.5,76C 82.8845,69.2624 76.3845,62.429 70,55.5C 69.3333,54.8333 69.3333,54.1667 70,53.5C 71.3756,52.2949 72.5423,50.9616 73.5,49.5 Z"/></g>
<g><path style="opacity:1" fill="#f4f2f1" d="M 14.5,14.5 C 21.3002,14.4594 23.6335,17.6261 21.5,24C 14.7525,26.9093 11.5858,24.7426 12,17.5C 13.045,16.6266 13.8783,15.6266 14.5,14.5 Z"/></g>
<g><path style="opacity:1" fill="#efeded" d="M 54.5,30.5 C 59.2624,31.0925 60.5957,33.5925 58.5,38C 53.5023,39.3297 51.3357,37.4964 52,32.5C 52.9947,31.9341 53.828,31.2674 54.5,30.5 Z"/></g>
</svg>
