<?xml version="1.0" encoding="UTF-8"?>
<!DOCTYPE svg PUBLIC "-//W3C//DTD SVG 1.1//EN" "http://www.w3.org/Graphics/SVG/1.1/DTD/svg11.dtd">
<svg xmlns="http://www.w3.org/2000/svg" version="1.1" width="103px" height="102px" style="shape-rendering:geometricPrecision; text-rendering:geometricPrecision; image-rendering:optimizeQuality; fill-rule:evenodd; clip-rule:evenodd" xmlns:xlink="http://www.w3.org/1999/xlink">
<g><path style="opacity:0.926" fill="#353635" d="M 31.5,-0.5 C 40.1667,-0.5 48.8333,-0.5 57.5,-0.5C 60.6663,1.15398 62.333,3.82065 62.5,7.5C 69.5079,7.33371 76.5079,7.50038 83.5,8C 89.3649,9.51088 93.5316,13.0109 96,18.5C 96.9907,45.0521 99.1574,71.3854 102.5,97.5C 102.5,98.5 102.5,99.5 102.5,100.5C 101.833,100.5 101.5,100.833 101.5,101.5C 93.1667,101.5 84.8333,101.5 76.5,101.5C 77.021,85.9125 78.1877,70.2458 80,54.5C 80.6667,44.8333 80.6667,35.1667 80,25.5C 74.2588,24.5251 68.4254,24.1918 62.5,24.5C 61.8566,27.9875 59.8566,30.4875 56.5,32C 48.5,32.6667 40.5,32.6667 32.5,32C 29.8333,30.6667 27.8333,28.6667 26.5,26C 22.724,24.7252 20.0573,22.2252 18.5,18.5C 12.2015,17.5037 5.86818,17.1703 -0.5,17.5C -0.5,16.5 -0.5,15.5 -0.5,14.5C 5.75314,13.7068 12.0865,13.2068 18.5,13C 20.0164,8.65154 23.0164,5.8182 27.5,4.5C 28.8569,2.81439 30.1902,1.14772 31.5,-0.5 Z M 24.5,10.5 C 25.7868,11.8714 26.4535,13.7047 26.5,16C 26.2794,22.7449 24.9461,22.5782 22.5,15.5C 22.9024,13.6998 23.5691,12.0332 24.5,10.5 Z M 62.5,11.5 C 69.175,11.3337 75.8417,11.5004 82.5,12C 87.7575,14.2563 91.2575,18.0896 93,23.5C 93.4998,33.4944 93.6665,43.4944 93.5,53.5C 90.5,53.5 87.5,53.5 84.5,53.5C 84.8093,43.1143 84.476,32.781 83.5,22.5C 82.9747,21.8076 82.3081,21.3076 81.5,21C 75.1754,20.5005 68.8421,20.3338 62.5,20.5C 62.5,17.5 62.5,14.5 62.5,11.5 Z"/></g>
<g><path style="opacity:0.955" fill="#363636" d="M 17.5,38.5 C 22.5748,37.9574 27.0748,39.2907 31,42.5C 39.1042,37.0318 46.9376,37.5318 54.5,44C 59.1445,49.3487 60.6445,55.5154 59,62.5C 54.4777,71.3997 51.1443,80.7331 49,90.5C 47.1307,97.5706 42.7974,100.571 36,99.5C 34.8083,91.533 33.6416,83.533 32.5,75.5C 31.5,75.5 30.5,75.5 29.5,75.5C 28.0531,82.7452 27.2198,90.0785 27,97.5C 23.2832,101.448 19.6166,101.115 16,96.5C 12.5689,89.1138 9.90218,81.4471 8,73.5C 2.44504,65.834 1.1117,57.5006 4,48.5C 7.5308,43.795 12.0308,40.4617 17.5,38.5 Z"/></g>
<g><path style="opacity:1" fill="#f0eeee" d="M 42.5,47.5 C 51.5212,48.8923 54.1878,53.559 50.5,61.5C 50.3089,55.2762 47.3089,51.1095 41.5,49C 42.056,48.6174 42.3893,48.1174 42.5,47.5 Z"/></g>
<g><path style="opacity:1" fill="#edebea" d="M 15.5,48.5 C 22.8211,49.3193 24.1545,52.486 19.5,58C 14.1408,59.1428 11.9741,56.9762 13,51.5C 14.045,50.6266 14.8783,49.6266 15.5,48.5 Z"/></g>
</svg>
