<?xml version="1.0" encoding="UTF-8"?>
<!DOCTYPE svg PUBLIC "-//W3C//DTD SVG 1.1//EN" "http://www.w3.org/Graphics/SVG/1.1/DTD/svg11.dtd">
<svg xmlns="http://www.w3.org/2000/svg" version="1.1" width="107px" height="106px" style="shape-rendering:geometricPrecision; text-rendering:geometricPrecision; image-rendering:optimizeQuality; fill-rule:evenodd; clip-rule:evenodd" xmlns:xlink="http://www.w3.org/1999/xlink">
<g><path style="opacity:0.936" fill="#353635" d="M 19.5,-0.5 C 20.8333,-0.5 22.1667,-0.5 23.5,-0.5C 26.1476,5.46243 29.3143,11.1291 33,16.5C 41.1178,10.9828 48.7845,11.6495 56,18.5C 57.4659,16.6751 59.2992,16.1751 61.5,17C 64,19.5 66.5,22 69,24.5C 71.7143,21.4489 74.7143,18.7822 78,16.5C 82.1912,19.0106 85.1912,22.344 87,26.5C 84.3167,29.0159 81.8167,31.6826 79.5,34.5C 81.483,36.9837 83.6496,39.3171 86,41.5C 86.8249,43.7008 86.3249,45.5341 84.5,47C 92.1919,54.2737 93.5253,62.607 88.5,72C 93.5095,75.5066 98.8428,78.5066 104.5,81C 105.059,81.7247 105.392,82.5581 105.5,83.5C 102.412,85.4642 100.078,88.2975 98.5,92C 96.9194,92.7065 95.4194,93.5399 94,94.5C 93.0265,98.1402 90.6932,100.474 87,101.5C 86.5899,102.901 86.0899,104.234 85.5,105.5C 84.1667,105.5 82.8333,105.5 81.5,105.5C 78.3853,100.107 75.3853,94.6071 72.5,89C 69.1454,90.4913 65.4788,91.3246 61.5,91.5C 58.2054,91.7048 55.2054,90.8715 52.5,89C 40.3333,76.8333 28.1667,64.6667 16,52.5C 12.5731,45.7141 12.7398,39.0474 16.5,32.5C 10.9379,29.2199 5.27119,26.2199 -0.5,23.5C -0.5,22.1667 -0.5,20.8333 -0.5,19.5C 3.63668,19.5716 5.97001,17.5716 6.5,13.5C 10.3725,10.7596 14.0392,7.7596 17.5,4.5C 18.562,2.97832 19.2287,1.31166 19.5,-0.5 Z M 21.5,6.5 C 24.5183,10.6891 27.1849,15.1891 29.5,20C 26.3333,23.1667 23.1667,26.3333 20,29.5C 15.7418,26.6196 11.2418,24.1196 6.5,22C 8.04116,20.4207 9.20783,18.5873 10,16.5C 11.0674,15.8095 12.2341,15.3095 13.5,15C 15.3577,11.3117 18.0243,8.47835 21.5,6.5 Z M 59.5,21.5 C 61.9635,23.4611 64.2968,25.6278 66.5,28C 68.1667,28.6667 69.8333,28.6667 71.5,28C 73.6667,25.8333 75.8333,23.6667 78,21.5C 79.9827,22.7657 80.9827,24.4324 81,26.5C 78.3167,29.0159 75.8167,31.6826 73.5,34.5C 76.1667,37.5 78.8333,40.5 81.5,43.5C 80.5197,44.9814 79.353,46.3147 78,47.5C 75.2857,44.4489 72.2857,41.7822 69,39.5C 65.6982,41.9653 62.5315,44.632 59.5,47.5C 58.0186,46.5197 56.6853,45.353 55.5,44C 58.7621,41.246 61.4288,38.0794 63.5,34.5C 61.4288,30.9206 58.7621,27.754 55.5,25C 57.0931,24.0513 58.4264,22.8846 59.5,21.5 Z M 84.5,75.5 C 89.2987,77.733 93.9654,80.233 98.5,83C 97.1068,84.1711 96.2735,85.6711 96,87.5C 94.5587,88.87 92.892,89.87 91,90.5C 90.3498,94.2359 88.1831,96.4026 84.5,97C 83.8742,97.7504 83.3742,98.5838 83,99.5C 80.6276,94.5882 78.1276,89.7549 75.5,85C 78.7044,81.9641 81.7044,78.7974 84.5,75.5 Z"/></g>
</svg>
