<?xml version="1.0" encoding="UTF-8"?>
<!DOCTYPE svg PUBLIC "-//W3C//DTD SVG 1.1//EN" "http://www.w3.org/Graphics/SVG/1.1/DTD/svg11.dtd">
<svg xmlns="http://www.w3.org/2000/svg" version="1.1" width="102px" height="101px" style="shape-rendering:geometricPrecision; text-rendering:geometricPrecision; image-rendering:optimizeQuality; fill-rule:evenodd; clip-rule:evenodd" xmlns:xlink="http://www.w3.org/1999/xlink">
<g><path style="opacity:0.897" fill="#363636" d="M 12.5,-0.5 C 15.5,-0.5 18.5,-0.5 21.5,-0.5C 33.3955,4.92065 39.5622,14.254 40,27.5C 40.49,26.2068 40.6567,24.8734 40.5,23.5C 55.0309,23.5094 67.6975,28.3427 78.5,38C 89.2698,47.5717 96.9364,59.0717 101.5,72.5C 101.5,73.5 101.5,74.5 101.5,75.5C 99.0457,79.104 96.0457,79.7706 92.5,77.5C 86.0496,58.8809 74.0496,45.0476 56.5,36C 52.9855,34.4383 49.3189,33.605 45.5,33.5C 45.5806,39.3405 43.0806,43.6739 38,46.5C 35.6754,49.7423 35.3421,53.0757 37,56.5C 46.107,74.2782 60.107,86.2782 79,92.5C 79.9772,95.8173 79.1438,98.484 76.5,100.5C 75.1667,100.5 73.8333,100.5 72.5,100.5C 51.0595,92.2292 35.5595,77.5625 26,56.5C 24.003,50.544 23.3364,44.544 24,38.5C 15.8994,39.1241 9.23277,36.1241 4,29.5C 2.20496,26.9007 0.704964,24.2341 -0.5,21.5C -0.5,18.5 -0.5,15.5 -0.5,12.5C 1.49566,10.6668 3.829,10.1668 6.5,11C 8.28362,16.4469 10.9503,21.4469 14.5,26C 18.4015,29.2053 22.7349,30.0386 27.5,28.5C 30.1178,24.4803 29.9511,20.4803 27,16.5C 22.951,11.1439 17.6177,8.14393 11,7.5C 10.1093,4.5024 10.6093,1.83574 12.5,-0.5 Z"/></g>
<g><path style="opacity:1" fill="#c1bfbf" d="M 34.5,34.5 C 35.5,34.5 36.5,34.5 37.5,34.5C 37.5,35.5 37.5,36.5 37.5,37.5C 36.5,37.5 35.5,37.5 34.5,37.5C 34.5,36.5 34.5,35.5 34.5,34.5 Z"/></g>
</svg>
