<?xml version="1.0" encoding="UTF-8"?>
<!DOCTYPE svg PUBLIC "-//W3C//DTD SVG 1.1//EN" "http://www.w3.org/Graphics/SVG/1.1/DTD/svg11.dtd">
<svg xmlns="http://www.w3.org/2000/svg" version="1.1" width="105px" height="105px" style="shape-rendering:geometricPrecision; text-rendering:geometricPrecision; image-rendering:optimizeQuality; fill-rule:evenodd; clip-rule:evenodd" xmlns:xlink="http://www.w3.org/1999/xlink">
<g><path style="opacity:0.933" fill="#363636" d="M 34.5,-0.5 C 38.5,-0.5 42.5,-0.5 46.5,-0.5C 51.5343,1.1179 55.7009,4.1179 59,8.5C 61.5294,14.4213 63.8628,20.4213 66,26.5C 69.3333,32.5 72.6667,38.5 76,44.5C 77.6068,49.8204 77.9401,55.1538 77,60.5C 86.7642,69.7598 95.9309,79.4265 104.5,89.5C 104.5,94.1667 104.5,98.8333 104.5,103.5C 103.833,103.5 103.5,103.833 103.5,104.5C 98.8333,104.5 94.1667,104.5 89.5,104.5C 79.4265,95.9309 69.7598,86.7642 60.5,77C 56.2426,77.5317 51.9092,77.5317 47.5,77C 40.0583,74.1131 33.0583,70.4464 26.5,66C 21.9093,64.1363 17.2426,62.4696 12.5,61C 6.16411,57.8375 1.83077,53.0042 -0.5,46.5C -0.5,42.5 -0.5,38.5 -0.5,34.5C 0.931677,30.2005 3.09834,26.2005 6,22.5C 9.51177,20.2175 13.3451,18.7175 17.5,18C 18.6002,14.0368 20.1002,10.2035 22,6.5C 25.8629,3.43545 30.0295,1.10211 34.5,-0.5 Z M 69.5,42.5 C 73.157,46.813 74.3237,51.813 73,57.5C 67.8333,62.6667 62.6667,67.8333 57.5,73C 52.0599,74.1737 47.0599,73.1737 42.5,70C 51.7023,60.965 60.7023,51.7984 69.5,42.5 Z M 73.5,63.5 C 78.6624,67.309 77.6624,68.4757 70.5,67C 71.7101,65.9609 72.7101,64.7942 73.5,63.5 Z M 65.5,71.5 C 71.1764,71.3339 76.8431,71.5006 82.5,72C 83.5,73 84.5,74 85.5,75C 78.5,75.6667 71.5,75.6667 64.5,75C 64.1667,74.6667 63.8333,74.3333 63.5,74C 64.3805,73.2917 65.0472,72.4584 65.5,71.5 Z M 69.5,80.5 C 76.3209,79.3454 83.3209,79.1787 90.5,80C 91.5,81 92.5,82 93.5,83C 86.5,83.6667 79.5,83.6667 72.5,83C 71.6266,81.955 70.6266,81.1217 69.5,80.5 Z M 77.5,88.5 C 84.344,87.1812 91.344,87.1812 98.5,88.5C 98.8333,89.1667 99.1667,89.8333 99.5,90.5C 93.1928,91.6639 86.8595,91.8306 80.5,91C 79.6266,89.955 78.6266,89.1217 77.5,88.5 Z M 85.5,96.5 C 90.3054,95.5128 95.3054,95.1795 100.5,95.5C 100.5,97.1667 100.5,98.8333 100.5,100.5C 94.8471,101.327 89.8471,99.9933 85.5,96.5 Z"/></g>
<g><path style="opacity:1" fill="#f0eeee" d="M 36.5,10.5 C 41.2845,9.83917 45.6178,10.8392 49.5,13.5C 51.9572,15.3324 51.9572,16.9991 49.5,18.5C 48.1552,17.6533 47.1552,16.4866 46.5,15C 44.7216,14.296 42.8882,13.796 41,13.5C 38.5284,14.3219 36.0284,14.9886 33.5,15.5C 33.31,13.0411 34.31,11.3745 36.5,10.5 Z"/></g>
</svg>
