<?xml version="1.0" encoding="UTF-8"?>
<!DOCTYPE svg PUBLIC "-//W3C//DTD SVG 1.1//EN" "http://www.w3.org/Graphics/SVG/1.1/DTD/svg11.dtd">
<svg xmlns="http://www.w3.org/2000/svg" version="1.1" width="106px" height="102px" style="shape-rendering:geometricPrecision; text-rendering:geometricPrecision; image-rendering:optimizeQuality; fill-rule:evenodd; clip-rule:evenodd" xmlns:xlink="http://www.w3.org/1999/xlink">
<g><path style="opacity:0.942" fill="#363636" d="M 30.5,-0.5 C 34.5,-0.5 38.5,-0.5 42.5,-0.5C 45.7699,1.47409 49.1032,3.47409 52.5,5.5C 55.8968,3.47409 59.2301,1.47409 62.5,-0.5C 66.5,-0.5 70.5,-0.5 74.5,-0.5C 94.0648,7.46194 100.065,21.2953 92.5,41C 96.9171,41.2275 101.25,41.7275 105.5,42.5C 105.5,61.8333 105.5,81.1667 105.5,100.5C 104.833,100.5 104.5,100.833 104.5,101.5C 69.8333,101.5 35.1667,101.5 0.5,101.5C 0.5,100.833 0.166667,100.5 -0.5,100.5C -0.5,81.5 -0.5,62.5 -0.5,43.5C 3.54324,41.8022 7.87658,40.9689 12.5,41C 4.93524,21.2953 10.9352,7.46194 30.5,-0.5 Z M 3.5,45.5 C 4.87344,45.3433 6.20677,45.51 7.5,46C 4.60244,51.2455 4.93577,56.2455 8.5,61C 5.84441,68.0854 7.67774,73.5854 14,77.5C 15.5951,87.395 21.4284,91.5617 31.5,90C 37.7788,96.4722 43.2788,95.9722 48,88.5C 48.3333,81.8333 48.6667,75.1667 49,68.5C 51.725,52.6457 54.0583,52.979 56,69.5C 56.3333,75.8333 56.6667,82.1667 57,88.5C 61.7212,95.9722 67.2212,96.4722 73.5,90C 83.4284,90.9078 89.095,86.4078 90.5,76.5C 96.2488,72.9872 97.9154,67.9872 95.5,61.5C 99.0514,56.7443 99.3847,51.7443 96.5,46.5C 98.0453,45.5481 99.712,45.2148 101.5,45.5C 101.5,62.8333 101.5,80.1667 101.5,97.5C 68.8333,97.5 36.1667,97.5 3.5,97.5C 3.5,80.1667 3.5,62.8333 3.5,45.5 Z M 11.5,47.5 C 14.0495,47.5608 15.5495,48.8941 16,51.5C 18.644,59.4095 20.9774,67.4095 23,75.5C 24.1176,78.8553 25.6176,82.022 27.5,85C 20.883,85.3874 18.2163,82.3874 19.5,76C 16.7832,74.1802 14.2832,72.0135 12,69.5C 11.2018,66.2893 11.7018,63.2893 13.5,60.5C 9.19798,56.6669 8.53131,52.3335 11.5,47.5 Z M 90.5,47.5 C 92.7401,48.5868 94.0734,50.4202 94.5,53C 93.9558,56.0884 92.6225,58.755 90.5,61C 94.3422,67.7115 92.5088,72.2115 85,74.5C 85.9059,79.6849 83.9059,83.3516 79,85.5C 82.1091,73.1695 85.9425,60.5028 90.5,47.5 Z"/></g>
<g><path style="opacity:1" fill="#e8e6e5" d="M 70.5,7.5 C 85.0033,10.4503 90.6699,18.9503 87.5,33C 87.1667,33.1667 86.8333,33.3333 86.5,33.5C 87.4037,21.4501 82.0704,13.9501 70.5,11C 69.3157,9.85453 69.3157,8.68787 70.5,7.5 Z"/></g>
<g><path style="opacity:1" fill="#f7f5f4" d="M 26.5,14.5 C 35.8176,14.6546 37.8176,18.488 32.5,26C 27.1066,27.6083 24.1066,25.6083 23.5,20C 23.8627,17.8077 24.8627,15.9744 26.5,14.5 Z"/></g>
</svg>
