<?xml version="1.0" encoding="UTF-8"?>
<!DOCTYPE svg PUBLIC "-//W3C//DTD SVG 1.1//EN" "http://www.w3.org/Graphics/SVG/1.1/DTD/svg11.dtd">
<svg xmlns="http://www.w3.org/2000/svg" version="1.1" width="142px" height="139px" style="shape-rendering:geometricPrecision; text-rendering:geometricPrecision; image-rendering:optimizeQuality; fill-rule:evenodd; clip-rule:evenodd" xmlns:xlink="http://www.w3.org/1999/xlink">
<g><path style="opacity:0.938" fill="#f7e27f" d="M 65.5,-0.5 C 67.1667,-0.5 68.8333,-0.5 70.5,-0.5C 70.5,1.83333 70.5,4.16667 70.5,6.5C 72.099,6.23219 73.4324,6.56552 74.5,7.5C 72.1667,7.5 69.8333,7.5 67.5,7.5C 67.5,10.1667 67.5,12.8333 67.5,15.5C 64.8333,15.5 62.1667,15.5 59.5,15.5C 59.5,17.8333 59.5,20.1667 59.5,22.5C 62.1667,22.5 64.8333,22.5 67.5,22.5C 67.5,25.1667 67.5,27.8333 67.5,30.5C 69.8333,30.5 72.1667,30.5 74.5,30.5C 73.4324,31.4345 72.099,31.7678 70.5,31.5C 70.5,33.8333 70.5,36.1667 70.5,38.5C 61.0995,38.0549 54.9328,33.3883 52,24.5C 49.7604,12.3009 54.2604,3.96754 65.5,-0.5 Z"/></g>
<g><path style="opacity:0.998" fill="#f8de73" d="M 70.5,-0.5 C 72.5,-0.5 74.5,-0.5 76.5,-0.5C 87.7396,3.96754 92.2396,12.3009 90,24.5C 86.8007,33.6892 80.3007,38.3559 70.5,38.5C 70.5,36.1667 70.5,33.8333 70.5,31.5C 72.099,31.7678 73.4324,31.4345 74.5,30.5C 74.5,27.8333 74.5,25.1667 74.5,22.5C 77.1667,22.5 79.8333,22.5 82.5,22.5C 82.5,20.1667 82.5,17.8333 82.5,15.5C 79.8333,15.5 77.1667,15.5 74.5,15.5C 74.5,12.8333 74.5,10.1667 74.5,7.5C 73.4324,6.56552 72.099,6.23219 70.5,6.5C 70.5,4.16667 70.5,1.83333 70.5,-0.5 Z"/></g>
<g><path style="opacity:1" fill="#38455e" d="M 74.5,7.5 C 74.5,10.1667 74.5,12.8333 74.5,15.5C 77.1667,15.5 79.8333,15.5 82.5,15.5C 82.5,17.8333 82.5,20.1667 82.5,22.5C 79.8333,22.5 77.1667,22.5 74.5,22.5C 74.5,25.1667 74.5,27.8333 74.5,30.5C 72.1667,30.5 69.8333,30.5 67.5,30.5C 67.5,27.8333 67.5,25.1667 67.5,22.5C 64.8333,22.5 62.1667,22.5 59.5,22.5C 59.5,20.1667 59.5,17.8333 59.5,15.5C 62.1667,15.5 64.8333,15.5 67.5,15.5C 67.5,12.8333 67.5,10.1667 67.5,7.5C 69.8333,7.5 72.1667,7.5 74.5,7.5 Z"/></g>
<g><path style="opacity:0.999" fill="#3c4961" d="M 127.5,13.5 C 118.833,14.8333 110.167,14.8333 101.5,13.5C 98.0815,8.13998 99.0815,3.97331 104.5,1C 111.5,0.333333 118.5,0.333333 125.5,1C 126.931,1.46524 128.097,2.29857 129,3.5C 129.963,7.14868 129.463,10.482 127.5,13.5 Z"/></g>
<g><path style="opacity:0.818" fill="#3d4b64" d="M 41.5,18.5 C 38.0878,19.0421 35.0878,20.3754 32.5,22.5C 29.0078,23.4097 26.0078,25.0764 23.5,27.5C 21.6208,28.3414 19.6208,28.6747 17.5,28.5C 17.33,27.1779 17.6634,26.0113 18.5,25C 21.5032,23.8338 24.1698,22.1672 26.5,20C 24.8749,16.5801 22.8749,13.4134 20.5,10.5C 17.9771,12.408 15.3104,12.7414 12.5,11.5C 12.8333,10.8333 13.1667,10.1667 13.5,9.5C 18.5,6.66667 23.5,3.83333 28.5,1C 30.1341,0.506489 31.8008,0.339822 33.5,0.5C 33.6495,1.55198 33.4828,2.55198 33,3.5C 31.082,4.54181 29.2487,5.70848 27.5,7C 29.5534,10.2834 31.7201,13.45 34,16.5C 37.3488,14.5598 40.8488,13.3931 44.5,13C 44.8333,13.3333 45.1667,13.6667 45.5,14C 44.6426,16.0188 43.3092,17.5188 41.5,18.5 Z"/></g>
<g><path style="opacity:0.998" fill="#dededf" d="M 101.5,13.5 C 110.167,14.8333 118.833,14.8333 127.5,13.5C 130.753,14.2508 132.92,16.2508 134,19.5C 134.5,27.1594 134.666,34.8261 134.5,42.5C 132.5,42.5 130.5,42.5 128.5,42.5C 126.846,35.3469 122.346,31.6803 115,31.5C 106.997,31.0635 102.497,34.7302 101.5,42.5C 99.5,42.5 97.5,42.5 95.5,42.5C 95.3336,34.4931 95.5003,26.4931 96,18.5C 97.0545,15.9441 98.8878,14.2775 101.5,13.5 Z"/></g>
<g><path style="opacity:0.939" fill="#69b3f4" d="M 41.5,18.5 C 49.885,35.6028 58.5517,52.6028 67.5,69.5C 66.4231,70.7051 65.0898,71.3718 63.5,71.5C 62.1667,72.1667 60.8333,72.8333 59.5,73.5C 50.2453,56.6583 41.2453,39.6583 32.5,22.5C 35.0878,20.3754 38.0878,19.0421 41.5,18.5 Z"/></g>
<g><path style="opacity:0.993" fill="#78bff6" d="M 32.5,22.5 C 41.2453,39.6583 50.2453,56.6583 59.5,73.5C 57.7697,74.0256 56.4363,75.0256 55.5,76.5C 53.8583,77.8675 52.1916,78.2008 50.5,77.5C 41.9801,60.4526 32.9801,43.7859 23.5,27.5C 26.0078,25.0764 29.0078,23.4097 32.5,22.5 Z"/></g>
<g><path style="opacity:1" fill="#f2f9fe" d="M 30.5,26.5 C 31.9221,26.7496 32.9221,27.583 33.5,29C 32.0337,29.6355 30.7003,30.4688 29.5,31.5C 28.5,31.1667 27.8333,30.5 27.5,29.5C 28.3398,28.265 29.3398,27.265 30.5,26.5 Z"/></g>
<g><path style="opacity:1" fill="#6fb5f3" d="M 128.5,42.5 C 128.5,44.1667 128.5,45.8333 128.5,47.5C 126.497,54.507 121.83,58.1737 114.5,58.5C 107.39,58.0535 103.057,54.3868 101.5,47.5C 101.5,45.8333 101.5,44.1667 101.5,42.5C 102.497,34.7302 106.997,31.0635 115,31.5C 122.346,31.6803 126.846,35.3469 128.5,42.5 Z"/></g>
<g><path style="opacity:1" fill="#ecf6fd" d="M 31.5,34.5 C 32.5,34.5 33.5,34.5 34.5,34.5C 34.7778,36.3464 34.1112,37.6798 32.5,38.5C 31.5713,37.3112 31.238,35.9778 31.5,34.5 Z"/></g>
<g><path style="opacity:1" fill="#d3d6d9" d="M 110.5,36.5 C 119.658,34.8346 123.825,38.5013 123,47.5C 119.086,54.0961 114.086,55.0961 108,50.5C 105.418,45.1198 106.251,40.4531 110.5,36.5 Z"/></g>
<g><path style="opacity:1" fill="#44516a" d="M 112.5,39.5 C 114.167,39.5 115.833,39.5 117.5,39.5C 117.5,40.5 117.5,41.5 117.5,42.5C 118.5,42.5 119.5,42.5 120.5,42.5C 120.5,44.1667 120.5,45.8333 120.5,47.5C 119.5,47.5 118.5,47.5 117.5,47.5C 117.5,48.5 117.5,49.5 117.5,50.5C 115.833,50.5 114.167,50.5 112.5,50.5C 112.5,49.5 112.5,48.5 112.5,47.5C 111.5,47.5 110.5,47.5 109.5,47.5C 109.5,45.8333 109.5,44.1667 109.5,42.5C 110.5,42.5 111.5,42.5 112.5,42.5C 112.5,41.5 112.5,40.5 112.5,39.5 Z"/></g>
<g><path style="opacity:1" fill="#eef7fe" d="M 38.5,39.5 C 41.2381,42.967 40.2381,44.467 35.5,44C 35.0426,43.586 34.7093,43.086 34.5,42.5C 35.9014,41.4793 37.2347,40.4793 38.5,39.5 Z"/></g>
<g><path style="opacity:1" fill="#4a5870" d="M 95.5,42.5 C 97.5,42.5 99.5,42.5 101.5,42.5C 101.5,44.1667 101.5,45.8333 101.5,47.5C 99.5,47.5 97.5,47.5 95.5,47.5C 95.5,45.8333 95.5,44.1667 95.5,42.5 Z"/></g>
<g><path style="opacity:1" fill="#4a576e" d="M 128.5,42.5 C 130.5,42.5 132.5,42.5 134.5,42.5C 134.5,44.1667 134.5,45.8333 134.5,47.5C 132.5,47.5 130.5,47.5 128.5,47.5C 128.5,45.8333 128.5,44.1667 128.5,42.5 Z"/></g>
<g><path style="opacity:0.783" fill="#3f4d66" d="M 72.5,43.5 C 82.1583,41.9934 86.325,45.9934 85,55.5C 82.5976,61.092 78.4309,62.9253 72.5,61C 67.8451,58.1034 66.3451,53.9367 68,48.5C 69.025,46.313 70.525,44.6464 72.5,43.5 Z M 73.5,47.5 C 79.168,46.6712 81.668,49.0045 81,54.5C 76.4468,58.9034 73.2802,58.0701 71.5,52C 71.5186,50.167 72.1852,48.667 73.5,47.5 Z"/></g>
<g><path style="opacity:0.922" fill="#f6e07f" d="M 22.5,46.5 C 21.1667,46.5 19.8333,46.5 18.5,46.5C 18.5,48.8333 18.5,51.1667 18.5,53.5C 17.5,53.5 16.5,53.5 15.5,53.5C 15.5,56.5 15.5,59.5 15.5,62.5C 12.8333,62.5 10.1667,62.5 7.5,62.5C 7.5,64.5 7.5,66.5 7.5,68.5C 10.1667,68.5 12.8333,68.5 15.5,68.5C 15.5,71.5 15.5,74.5 15.5,77.5C 16.5,77.5 17.5,77.5 18.5,77.5C 18.5,79.8333 18.5,82.1667 18.5,84.5C 19.8333,84.5 21.1667,84.5 22.5,84.5C 11.5683,86.1956 3.90159,81.8623 -0.5,71.5C -0.5,67.5 -0.5,63.5 -0.5,59.5C 3.90159,49.1377 11.5683,44.8044 22.5,46.5 Z"/></g>
<g><path style="opacity:0.998" fill="#f8de73" d="M 22.5,46.5 C 32.826,48.5014 38.1593,54.8347 38.5,65.5C 38.1593,76.1653 32.826,82.4986 22.5,84.5C 21.1667,84.5 19.8333,84.5 18.5,84.5C 18.5,82.1667 18.5,79.8333 18.5,77.5C 19.8333,77.5 21.1667,77.5 22.5,77.5C 22.5,74.8333 22.5,72.1667 22.5,69.5C 25.1667,69.5 27.8333,69.5 30.5,69.5C 30.5,66.8333 30.5,64.1667 30.5,61.5C 27.8333,61.5 25.1667,61.5 22.5,61.5C 22.5,58.8333 22.5,56.1667 22.5,53.5C 21.1667,53.5 19.8333,53.5 18.5,53.5C 18.5,51.1667 18.5,48.8333 18.5,46.5C 19.8333,46.5 21.1667,46.5 22.5,46.5 Z"/></g>
<g><path style="opacity:0.945" fill="#e2e2e3" d="M 95.5,47.5 C 97.5,47.5 99.5,47.5 101.5,47.5C 103.057,54.3868 107.39,58.0535 114.5,58.5C 114.5,64.1667 114.5,69.8333 114.5,75.5C 119.167,75.5 123.833,75.5 128.5,75.5C 124.18,76.1658 119.68,76.4991 115,76.5C 109.42,76.591 103.92,76.091 98.5,75C 97.2986,74.0975 96.4652,72.9308 96,71.5C 95.5003,63.5069 95.3336,55.5069 95.5,47.5 Z"/></g>
<g><path style="opacity:0.997" fill="#dddede" d="M 128.5,47.5 C 130.5,47.5 132.5,47.5 134.5,47.5C 134.666,55.1739 134.5,62.8406 134,70.5C 132.924,73.079 131.091,74.7457 128.5,75.5C 123.833,75.5 119.167,75.5 114.5,75.5C 114.5,69.8333 114.5,64.1667 114.5,58.5C 121.83,58.1737 126.497,54.507 128.5,47.5 Z"/></g>
<g><path style="opacity:1" fill="#eef7fe" d="M 39.5,47.5 C 40.5862,47.62 41.2528,48.2867 41.5,49.5C 40.6964,51.9573 39.6964,51.9573 38.5,49.5C 38.8627,48.8165 39.1961,48.1499 39.5,47.5 Z"/></g>
<g><path style="opacity:1" fill="#f1f8fe" d="M 44.5,53.5 C 45.9953,53.4148 46.9953,54.0815 47.5,55.5C 45.4593,58.7472 43.4593,58.9139 41.5,56C 42.5707,55.1482 43.5707,54.3149 44.5,53.5 Z"/></g>
<g><path style="opacity:1" fill="#3f4a5e" d="M 18.5,53.5 C 19.8333,53.5 21.1667,53.5 22.5,53.5C 22.5,56.1667 22.5,58.8333 22.5,61.5C 25.1667,61.5 27.8333,61.5 30.5,61.5C 30.5,64.1667 30.5,66.8333 30.5,69.5C 27.8333,69.5 25.1667,69.5 22.5,69.5C 22.5,72.1667 22.5,74.8333 22.5,77.5C 21.1667,77.5 19.8333,77.5 18.5,77.5C 17.5,77.5 16.5,77.5 15.5,77.5C 15.5,74.5 15.5,71.5 15.5,68.5C 12.8333,68.5 10.1667,68.5 7.5,68.5C 7.5,66.5 7.5,64.5 7.5,62.5C 10.1667,62.5 12.8333,62.5 15.5,62.5C 15.5,59.5 15.5,56.5 15.5,53.5C 16.5,53.5 17.5,53.5 18.5,53.5 Z"/></g>
<g><path style="opacity:1" fill="#f0f8fe" d="M 46.5,61.5 C 50.1232,62.4114 50.2899,63.7447 47,65.5C 45.2317,64.3181 45.0651,62.9848 46.5,61.5 Z"/></g>
<g><path style="opacity:1" fill="#f8fcfe" d="M 51.5,67.5 C 52.9953,67.4148 53.9953,68.0815 54.5,69.5C 53.1502,70.9501 51.4835,71.6168 49.5,71.5C 49.5271,69.8007 50.1938,68.4674 51.5,67.5 Z"/></g>
<g><path style="opacity:0.758" fill="#69b4f5" d="M 81.5,70.5 C 90.174,70.006 93.674,74.006 92,82.5C 88.8487,87.327 84.6821,88.4937 79.5,86C 74.0794,80.0827 74.7461,74.916 81.5,70.5 Z M 83.5,74.5 C 89.6222,76.8648 89.9555,79.8648 84.5,83.5C 79.5843,80.937 79.251,77.937 83.5,74.5 Z"/></g>
<g><path style="opacity:0.776" fill="#3c4b65" d="M 63.5,71.5 C 64.8443,79.5205 67.8443,86.8538 72.5,93.5C 72.8432,95.4832 72.1765,96.8166 70.5,97.5C 69.607,95.703 68.2737,94.3696 66.5,93.5C 65.1808,88.3358 62.5141,84.1691 58.5,81C 57.1175,79.7292 56.1175,78.2292 55.5,76.5C 56.4363,75.0256 57.7697,74.0256 59.5,73.5C 60.8333,72.8333 62.1667,72.1667 63.5,71.5 Z"/></g>
<g><path style="opacity:0.949" fill="#69b4f4" d="M 66.5,93.5 C 68.2737,94.3696 69.607,95.703 70.5,97.5C 70.5,104.5 70.5,111.5 70.5,118.5C 69.8333,118.5 69.1667,118.5 68.5,118.5C 69.572,104.237 63.2387,97.9032 49.5,99.5C 41.8342,102.484 38.5009,108.151 39.5,116.5C 38.1667,116.5 36.8333,116.5 35.5,116.5C 36.1113,110.566 35.278,104.9 33,99.5C 27.5493,94.8403 21.716,94.3403 15.5,98C 12.3672,102.054 10.7006,106.554 10.5,111.5C 8.41764,111.528 6.5843,110.861 5,109.5C 3.29993,103.667 1.4666,98.0002 -0.5,92.5C -0.5,91.5 -0.5,90.5 -0.5,89.5C 0.744083,87.1995 2.74408,85.8662 5.5,85.5C 25.566,90.211 45.8994,92.8777 66.5,93.5 Z"/></g>
<g><path style="opacity:1" fill="#60aaf2" d="M 141.5,88.5 C 141.5,90.5 141.5,92.5 141.5,94.5C 139.698,99.3382 138.032,104.338 136.5,109.5C 135.423,110.705 134.09,111.372 132.5,111.5C 131.609,97.223 124.609,92.8897 111.5,98.5C 110.139,100.028 108.972,101.695 108,103.5C 107.501,107.821 107.334,112.154 107.5,116.5C 106.167,116.5 104.833,116.5 103.5,116.5C 103.687,106.342 98.6874,100.342 88.5,98.5C 87.2739,98.5195 86.2739,98.8529 85.5,99.5C 81.4734,100.007 78.3067,102.007 76,105.5C 74.9589,109.906 74.1256,114.239 73.5,118.5C 72.5,118.5 71.5,118.5 70.5,118.5C 70.5,111.5 70.5,104.5 70.5,97.5C 72.1765,96.8166 72.8432,95.4832 72.5,93.5C 94.1131,93.072 115.446,90.4054 136.5,85.5C 138.692,85.7573 140.359,86.7573 141.5,88.5 Z"/></g>
<g><path style="opacity:0.99" fill="#dfdfdf" d="M 35.5,116.5 C 35.7892,120.106 35.4558,123.606 34.5,127C 27.9427,128.586 21.276,128.92 14.5,128C 12.2769,127.348 11.1102,125.848 11,123.5C 10.5012,119.514 10.3345,115.514 10.5,111.5C 10.7006,106.554 12.3672,102.054 15.5,98C 21.716,94.3403 27.5493,94.8403 33,99.5C 35.278,104.9 36.1113,110.566 35.5,116.5 Z"/></g>
<g><path style="opacity:0.989" fill="#dedfdf" d="M 132.5,111.5 C 132.825,116.599 132.325,121.599 131,126.5C 130.25,127.126 129.416,127.626 128.5,128C 122.115,128.793 115.782,128.626 109.5,127.5C 108.808,126.975 108.308,126.308 108,125.5C 107.502,122.518 107.335,119.518 107.5,116.5C 107.334,112.154 107.501,107.821 108,103.5C 108.972,101.695 110.139,100.028 111.5,98.5C 124.609,92.8897 131.609,97.223 132.5,111.5 Z"/></g>
<g><path style="opacity:0.999" fill="#ddddde" d="M 49.5,99.5 C 63.2387,97.9032 69.572,104.237 68.5,118.5C 68.666,123.844 68.4994,129.177 68,134.5C 67.4115,136.863 65.9115,137.863 63.5,137.5C 60.1667,137.5 56.8333,137.5 53.5,137.5C 53.5,124.833 53.5,112.167 53.5,99.5C 52.1667,99.5 50.8333,99.5 49.5,99.5 Z"/></g>
<g><path style="opacity:0.966" fill="#e2e2e3" d="M 49.5,99.5 C 50.8333,99.5 52.1667,99.5 53.5,99.5C 53.5,112.167 53.5,124.833 53.5,137.5C 56.8333,137.5 60.1667,137.5 63.5,137.5C 63.5,137.833 63.5,138.167 63.5,138.5C 57.1667,138.5 50.8333,138.5 44.5,138.5C 42.7499,137.527 41.2499,136.193 40,134.5C 39.5005,128.509 39.3338,122.509 39.5,116.5C 38.5009,108.151 41.8342,102.484 49.5,99.5 Z"/></g>
<g><path style="opacity:0.952" fill="#e2e2e2" d="M 85.5,99.5 C 86.5,99.5 87.5,99.5 88.5,99.5C 88.5,112.167 88.5,124.833 88.5,137.5C 91.8333,137.5 95.1667,137.5 98.5,137.5C 98.5,137.833 98.5,138.167 98.5,138.5C 91.8333,138.5 85.1667,138.5 78.5,138.5C 76.525,137.354 75.025,135.687 74,133.5C 73.5007,128.511 73.3341,123.511 73.5,118.5C 74.1256,114.239 74.9589,109.906 76,105.5C 78.3067,102.007 81.4734,100.007 85.5,99.5 Z"/></g>
<g><path style="opacity:0.999" fill="#ddddde" d="M 85.5,99.5 C 86.2739,98.8529 87.2739,98.5195 88.5,98.5C 98.6874,100.342 103.687,106.342 103.5,116.5C 103.666,122.176 103.499,127.843 103,133.5C 102.252,135.751 100.752,137.084 98.5,137.5C 95.1667,137.5 91.8333,137.5 88.5,137.5C 88.5,124.833 88.5,112.167 88.5,99.5C 87.5,99.5 86.5,99.5 85.5,99.5 Z"/></g>
</svg>
