<?xml version="1.0" encoding="UTF-8"?>
<!DOCTYPE svg PUBLIC "-//W3C//DTD SVG 1.1//EN" "http://www.w3.org/Graphics/SVG/1.1/DTD/svg11.dtd">
<svg xmlns="http://www.w3.org/2000/svg" version="1.1" width="143px" height="140px" style="shape-rendering:geometricPrecision; text-rendering:geometricPrecision; image-rendering:optimizeQuality; fill-rule:evenodd; clip-rule:evenodd" xmlns:xlink="http://www.w3.org/1999/xlink">
<g><path style="opacity:0.988" fill="#e1e2e2" d="M 47.5,-0.5 C 50.1667,-0.5 52.8333,-0.5 55.5,-0.5C 60.5266,2.67999 65.86,5.34666 71.5,7.5C 70.5116,29.0913 70.1783,50.758 70.5,72.5C 69.1779,72.33 68.0113,72.6634 67,73.5C 65.8443,77.1228 64.8443,80.7894 64,84.5C 63.181,95.8791 62.181,107.212 61,118.5C 58.0913,121.394 54.5913,122.227 50.5,121C 48.6125,119.606 46.6125,118.44 44.5,117.5C 42.2622,114.701 40.2622,111.701 38.5,108.5C 42.9822,107.833 47.3155,107.166 51.5,106.5C 51.5,105.5 51.5,104.5 51.5,103.5C 46.5,103.5 41.5,103.5 36.5,103.5C 35.0364,99.9806 34.0364,96.3139 33.5,92.5C 37.5,92.5 41.5,92.5 45.5,92.5C 45.5,91.5 45.5,90.5 45.5,89.5C 40.8333,89.5 36.1667,89.5 31.5,89.5C 31.0352,84.9027 29.7019,80.5693 27.5,76.5C 33.352,76.9494 39.0187,76.4494 44.5,75C 38.6234,73.1957 32.6234,73.0291 26.5,74.5C 25.9561,70.534 24.6228,66.8674 22.5,63.5C 28.6792,62.8334 35.0125,62.1668 41.5,61.5C 41.2907,60.914 40.9574,60.414 40.5,60C 34.1754,59.5005 27.8421,59.3338 21.5,59.5C 18.7417,56.322 16.7417,52.6553 15.5,48.5C 22.0119,47.8334 28.6786,47.1667 35.5,46.5C 35.2907,45.914 34.9574,45.414 34.5,45C 27.5079,44.5004 20.5079,44.3337 13.5,44.5C 13.5,40.8333 13.5,37.1667 13.5,33.5C 17.1817,33.6653 20.8484,33.4986 24.5,33C 24.9574,32.586 25.2907,32.086 25.5,31.5C 21.5546,30.5091 17.5546,30.1758 13.5,30.5C 14.5,27.1667 15.5,23.8333 16.5,20.5C 20.7799,21.5396 25.1132,21.7062 29.5,21C 30.8333,20.3333 30.8333,19.6667 29.5,19C 25.8484,18.5014 22.1817,18.3347 18.5,18.5C 21.9057,12.7592 26.5724,8.42588 32.5,5.5C 37.1024,2.43626 42.1024,0.436257 47.5,-0.5 Z"/></g>
<g><path style="opacity:0.998" fill="#dddddd" d="M 86.5,-0.5 C 89.1667,-0.5 91.8333,-0.5 94.5,-0.5C 119.313,5.48205 130.146,21.1487 127,46.5C 121.405,56.357 116.905,66.6904 113.5,77.5C 109.911,87.768 106.411,98.1013 103,108.5C 101.389,111.938 99.2226,114.938 96.5,117.5C 91.6989,121.746 86.5323,122.413 81,119.5C 80.1376,117.913 79.4709,116.246 79,114.5C 79.0366,102.399 78.0366,90.3991 76,78.5C 76.1851,74.4887 74.3518,72.4887 70.5,72.5C 70.1783,50.758 70.5116,29.0913 71.5,7.5C 76.3806,4.56038 81.3806,1.89372 86.5,-0.5 Z"/></g>
<g><path style="opacity:1" fill="#566277" d="M 32.5,5.5 C 36.5138,5.33449 40.5138,5.50115 44.5,6C 45.8333,7 45.8333,8 44.5,9C 40.5,9.66667 36.5,9.66667 32.5,9C 31.3157,7.85453 31.3157,6.68787 32.5,5.5 Z"/></g>
<g><path style="opacity:1" fill="#4d5a71" d="M 94.5,11.5 C 108.218,13.8846 116.218,21.8846 118.5,35.5C 118.924,38.7914 117.924,41.4581 115.5,43.5C 116.653,27.8384 109.653,18.3384 94.5,15C 93.3157,13.8545 93.3157,12.6879 94.5,11.5 Z"/></g>
<g><path style="opacity:0.973" fill="#425068" d="M 18.5,18.5 C 22.1817,18.3347 25.8484,18.5014 29.5,19C 30.8333,19.6667 30.8333,20.3333 29.5,21C 25.1132,21.7062 20.7799,21.5396 16.5,20.5C 16.8333,19.5 17.5,18.8333 18.5,18.5 Z"/></g>
<g><path style="opacity:1" fill="#fdfefe" d="M 40.5,19.5 C 48.6417,19.4807 51.8084,23.4807 50,31.5C 45.2391,36.8119 40.5724,36.8119 36,31.5C 34.3087,26.1311 35.8087,22.1311 40.5,19.5 Z"/></g>
<g><path style="opacity:0.934" fill="#404e67" d="M 13.5,30.5 C 17.5546,30.1758 21.5546,30.5091 25.5,31.5C 25.2907,32.086 24.9574,32.586 24.5,33C 20.8484,33.4986 17.1817,33.6653 13.5,33.5C 10.8333,32.5 10.8333,31.5 13.5,30.5 Z"/></g>
<g><path style="opacity:1" fill="#fcfdfd" d="M 44.5,42.5 C 51.5636,42.3516 52.8969,44.8516 48.5,50C 43.6325,49.7108 42.2991,47.2108 44.5,42.5 Z"/></g>
<g><path style="opacity:0.958" fill="#404d66" d="M 13.5,44.5 C 20.5079,44.3337 27.5079,44.5004 34.5,45C 34.9574,45.414 35.2907,45.914 35.5,46.5C 28.6786,47.1667 22.0119,47.8334 15.5,48.5C 13.8958,47.713 13.2291,46.3797 13.5,44.5 Z"/></g>
<g><path style="opacity:0.964" fill="#404e67" d="M 21.5,59.5 C 27.8421,59.3338 34.1754,59.5005 40.5,60C 40.9574,60.414 41.2907,60.914 41.5,61.5C 35.0125,62.1668 28.6792,62.8334 22.5,63.5C 20.3796,62.5967 20.0462,61.2633 21.5,59.5 Z"/></g>
<g><path style="opacity:1" fill="#6a9dd1" d="M 26.5,75.5 C 26.5,76.1667 26.8333,76.5 27.5,76.5C 29.7019,80.5693 31.0352,84.9027 31.5,89.5C 30.3264,91.3678 30.9931,92.3678 33.5,92.5C 34.0364,96.3139 35.0364,99.9806 36.5,103.5C 36.1961,104.15 35.8627,104.817 35.5,105.5C 40.7921,106.495 46.1254,106.828 51.5,106.5C 47.3155,107.166 42.9822,107.833 38.5,108.5C 40.2622,111.701 42.2622,114.701 44.5,117.5C 38.0622,118.711 32.8955,116.377 29,110.5C 26.276,104.995 23.9426,99.328 22,93.5C 15.378,86.0325 7.87799,84.6992 -0.5,89.5C -0.5,83.8333 -0.5,78.1667 -0.5,72.5C 1.43952,69.1668 4.43952,67.5001 8.5,67.5C 15.5164,68.0542 21.5164,70.7209 26.5,75.5 Z"/></g>
<g><path style="opacity:1" fill="#6a9dd2" d="M 142.5,74.5 C 142.5,79.8333 142.5,85.1667 142.5,90.5C 133.013,84.2473 124.846,85.914 118,95.5C 116.501,101.499 114.168,107.166 111,112.5C 106.884,117.007 102.051,118.674 96.5,117.5C 99.2226,114.938 101.389,111.938 103,108.5C 106.411,98.1013 109.911,87.768 113.5,77.5C 120.096,69.5344 128.429,66.701 138.5,69C 140.469,70.4998 141.802,72.3331 142.5,74.5 Z"/></g>
<g><path style="opacity:0.985" fill="#69b3f3" d="M 70.5,72.5 C 74.3518,72.4887 76.1851,74.4887 76,78.5C 78.0366,90.3991 79.0366,102.399 79,114.5C 79.4709,116.246 80.1376,117.913 81,119.5C 86.5323,122.413 91.6989,121.746 96.5,117.5C 102.051,118.674 106.884,117.007 111,112.5C 114.168,107.166 116.501,101.499 118,95.5C 124.846,85.914 133.013,84.2473 142.5,90.5C 142.5,106.833 142.5,123.167 142.5,139.5C 94.8333,139.5 47.1667,139.5 -0.5,139.5C -0.5,122.833 -0.5,106.167 -0.5,89.5C 7.87799,84.6992 15.378,86.0325 22,93.5C 23.9426,99.328 26.276,104.995 29,110.5C 32.8955,116.377 38.0622,118.711 44.5,117.5C 46.6125,118.44 48.6125,119.606 50.5,121C 54.5913,122.227 58.0913,121.394 61,118.5C 62.181,107.212 63.181,95.8791 64,84.5C 64.8443,80.7894 65.8443,77.1228 67,73.5C 68.0113,72.6634 69.1779,72.33 70.5,72.5 Z"/></g>
<g><path style="opacity:0.984" fill="#404d66" d="M 27.5,76.5 C 26.8333,76.5 26.5,76.1667 26.5,75.5C 26.5,75.1667 26.5,74.8333 26.5,74.5C 32.6234,73.0291 38.6234,73.1957 44.5,75C 39.0187,76.4494 33.352,76.9494 27.5,76.5 Z"/></g>
<g><path style="opacity:1" fill="#414f67" d="M 31.5,89.5 C 36.1667,89.5 40.8333,89.5 45.5,89.5C 45.5,90.5 45.5,91.5 45.5,92.5C 41.5,92.5 37.5,92.5 33.5,92.5C 30.9931,92.3678 30.3264,91.3678 31.5,89.5 Z"/></g>
<g><path style="opacity:1" fill="#49566e" d="M 36.5,103.5 C 41.5,103.5 46.5,103.5 51.5,103.5C 51.5,104.5 51.5,105.5 51.5,106.5C 46.1254,106.828 40.7921,106.495 35.5,105.5C 35.8627,104.817 36.1961,104.15 36.5,103.5 Z"/></g>
</svg>
