<?xml version="1.0" encoding="UTF-8"?>
<!DOCTYPE svg PUBLIC "-//W3C//DTD SVG 1.1//EN" "http://www.w3.org/Graphics/SVG/1.1/DTD/svg11.dtd">
<svg xmlns="http://www.w3.org/2000/svg" version="1.1" width="144px" height="142px" style="shape-rendering:geometricPrecision; text-rendering:geometricPrecision; image-rendering:optimizeQuality; fill-rule:evenodd; clip-rule:evenodd" xmlns:xlink="http://www.w3.org/1999/xlink">
<g><path style="opacity:0.753" fill="#69b4f5" d="M 0.5,-0.5 C 2.16667,-0.5 3.83333,-0.5 5.5,-0.5C 7.10317,0.596413 8.60317,1.92975 10,3.5C 11.3756,2.29493 12.5423,0.961599 13.5,-0.5C 16.1667,-0.5 18.8333,-0.5 21.5,-0.5C 22.4577,0.961599 23.6244,2.29493 25,3.5C 26.3968,1.92975 27.8968,0.596413 29.5,-0.5C 31.8333,-0.5 34.1667,-0.5 36.5,-0.5C 38.1728,1.83943 40.1728,3.83943 42.5,5.5C 42.1131,6.71986 41.2798,7.38652 40,7.5C 37.4091,6.56647 35.0757,5.23313 33,3.5C 30.8636,5.45923 28.3636,6.79256 25.5,7.5C 22.5881,6.57111 19.9214,5.23778 17.5,3.5C 10.0669,9.1269 4.40022,7.79356 0.5,-0.5 Z"/></g>
<g><path style="opacity:0.978" fill="#3f4e67" d="M 80.5,-0.5 C 84.1667,-0.5 87.8333,-0.5 91.5,-0.5C 91.5,5.5 91.5,11.5 91.5,17.5C 77.9537,10.1705 66.1204,12.5039 56,24.5C 52.9788,29.0621 51.4788,34.0621 51.5,39.5C 52.8333,39.5 54.1667,39.5 55.5,39.5C 56.771,25.3972 64.6044,17.7305 79,16.5C 83.2449,17.8962 87.4116,19.5628 91.5,21.5C 91.5,24.1667 91.5,26.8333 91.5,29.5C 89.9835,31.1857 88.6502,33.019 87.5,35C 89.5,37.6667 91.5,40.3333 93.5,43C 91.3691,45.9676 89.0358,48.801 86.5,51.5C 88.1897,53.5193 89.8564,55.5193 91.5,57.5C 91.5,58.5 91.5,59.5 91.5,60.5C 88.9505,60.5608 87.4505,61.8941 87,64.5C 85.1935,72.9571 84.0268,81.4571 83.5,90C 79.0479,90.8603 75.5479,89.3603 73,85.5C 70.5595,81.071 68.7262,76.4043 67.5,71.5C 66.675,70.6143 65.675,70.281 64.5,70.5C 65.4251,76.4425 67.2584,82.1091 70,87.5C 73.3465,92.258 77.8465,94.4246 83.5,94C 85.8147,92.8906 87.3147,91.0573 88,88.5C 88.3333,82.5 88.6667,76.5 89,70.5C 89.2401,68.1484 90.0735,66.1484 91.5,64.5C 91.5,85.1667 91.5,105.833 91.5,126.5C 84.8333,126.5 78.1667,126.5 71.5,126.5C 71.5,122.833 71.5,119.167 71.5,115.5C 64.1591,115.666 56.8258,115.5 49.5,115C 46.2268,114.06 44.3935,111.893 44,108.5C 43.5026,105.854 43.3359,103.187 43.5,100.5C 47.1817,100.665 50.8484,100.499 54.5,100C 57.1667,98 57.1667,96 54.5,94C 50.8484,93.5014 47.1817,93.3347 43.5,93.5C 43.5,90.5 43.5,87.5 43.5,84.5C 39.8183,84.6653 36.1516,84.4986 32.5,84C 30.5218,81.5027 30.0218,78.6693 31,75.5C 36.1116,67.1103 40.2782,58.277 43.5,49C 41.6399,21.7141 53.9732,5.21409 80.5,-0.5 Z"/></g>
<g><path style="opacity:0.999" fill="#37435a" d="M 91.5,-0.5 C 95.1667,-0.5 98.8333,-0.5 102.5,-0.5C 125.397,3.39748 139.064,16.7308 143.5,39.5C 143.5,44.5 143.5,49.5 143.5,54.5C 140.336,65.5013 135.502,75.8347 129,85.5C 124.153,98.741 122.32,112.408 123.5,126.5C 112.833,126.5 102.167,126.5 91.5,126.5C 91.5,105.833 91.5,85.1667 91.5,64.5C 93.3974,66.2688 94.564,68.6021 95,71.5C 95.0779,78.274 95.7446,84.9406 97,91.5C 100.955,95.3203 105.122,95.487 109.5,92C 112.273,89.6166 114.439,86.7833 116,83.5C 118.514,70.9565 123.18,59.2899 130,48.5C 134.655,27.5385 126.155,15.5385 104.5,12.5C 100.014,13.915 95.6812,15.5816 91.5,17.5C 91.5,11.5 91.5,5.5 91.5,-0.5 Z"/></g>
<g><path style="opacity:0.756" fill="#69b4f5" d="M 1.5,9.5 C 2.87344,9.34332 4.20677,9.50999 5.5,10C 8.5,14.6667 11.5,14.6667 14.5,10C 16.5,9.33333 18.5,9.33333 20.5,10C 21.7252,11.563 23.2252,12.7297 25,13.5C 31.4206,7.87101 37.254,8.53768 42.5,15.5C 42.0004,16.8805 41.0004,17.5472 39.5,17.5C 36.7154,16.9415 34.3821,15.6082 32.5,13.5C 27.5767,18.7434 22.5767,18.7434 17.5,13.5C 14.6731,17.1713 11.0064,18.338 6.5,17C 4.9571,15.1217 3.12377,13.6217 1,12.5C 0.530417,11.4232 0.697084,10.4232 1.5,9.5 Z"/></g>
<g><path style="opacity:1" fill="#e9ecee" d="M 91.5,17.5 C 95.6812,15.5816 100.014,13.915 104.5,12.5C 126.155,15.5385 134.655,27.5385 130,48.5C 123.18,59.2899 118.514,70.9565 116,83.5C 114.439,86.7833 112.273,89.6166 109.5,92C 105.122,95.487 100.955,95.3203 97,91.5C 95.7446,84.9406 95.0779,78.274 95,71.5C 94.564,68.6021 93.3974,66.2688 91.5,64.5C 90.0735,66.1484 89.2401,68.1484 89,70.5C 88.6667,76.5 88.3333,82.5 88,88.5C 87.3147,91.0573 85.8147,92.8906 83.5,94C 77.8465,94.4246 73.3465,92.258 70,87.5C 67.2584,82.1091 65.4251,76.4425 64.5,70.5C 65.675,70.281 66.675,70.6143 67.5,71.5C 68.7262,76.4043 70.5595,81.071 73,85.5C 75.5479,89.3603 79.0479,90.8603 83.5,90C 84.0268,81.4571 85.1935,72.9571 87,64.5C 87.4505,61.8941 88.9505,60.5608 91.5,60.5C 94.7301,60.561 96.5635,62.2277 97,65.5C 97.926,73.5435 98.926,81.5435 100,89.5C 106.466,90.7594 110.799,88.0928 113,81.5C 115.735,69.0342 120.402,57.3676 127,46.5C 130.738,33.1413 126.238,23.6413 113.5,18C 109.594,16.566 105.594,16.2327 101.5,17C 98.46,19.2204 95.1267,20.7204 91.5,21.5C 87.4116,19.5628 83.2449,17.8962 79,16.5C 64.6044,17.7305 56.771,25.3972 55.5,39.5C 54.1667,39.5 52.8333,39.5 51.5,39.5C 51.4788,34.0621 52.9788,29.0621 56,24.5C 66.1204,12.5039 77.9537,10.1705 91.5,17.5 Z"/></g>
<g><path style="opacity:1" fill="#39465e" d="M 91.5,60.5 C 91.5,59.5 91.5,58.5 91.5,57.5C 94.7673,55.5727 97.7673,53.2394 100.5,50.5C 103.731,52.2199 106.564,54.5532 109,57.5C 111.018,55.6499 112.851,53.6499 114.5,51.5C 112.167,48.8333 109.833,46.1667 107.5,43.5C 109.483,41.0163 111.65,38.6829 114,36.5C 114.01,33.1484 112.344,30.8151 109,29.5C 106.013,31.6541 103.18,33.9875 100.5,36.5C 97.7673,33.7606 94.7673,31.4273 91.5,29.5C 91.5,26.8333 91.5,24.1667 91.5,21.5C 95.1267,20.7204 98.46,19.2204 101.5,17C 105.594,16.2327 109.594,16.566 113.5,18C 126.238,23.6413 130.738,33.1413 127,46.5C 120.402,57.3676 115.735,69.0342 113,81.5C 110.799,88.0928 106.466,90.7594 100,89.5C 98.926,81.5435 97.926,73.5435 97,65.5C 96.5635,62.2277 94.7301,60.561 91.5,60.5 Z"/></g>
<g><path style="opacity:0.746" fill="#69b4f5" d="M 1.5,19.5 C 4.76296,19.9738 7.59629,21.3072 10,23.5C 12.133,21.5464 14.633,20.213 17.5,19.5C 20.367,20.213 22.867,21.5464 25,23.5C 27.133,21.5464 29.633,20.213 32.5,19.5C 36.217,21.0454 39.5503,23.2121 42.5,26C 41.6667,26.8333 40.8333,27.6667 40,28.5C 37.4192,27.5828 35.0859,26.2495 33,24.5C 30.4884,26.0892 27.8217,27.4225 25,28.5C 22.3613,27.3456 19.8613,26.0122 17.5,24.5C 15.1387,26.0122 12.6387,27.3456 10,28.5C 6.78633,27.4473 3.953,25.7806 1.5,23.5C 0.374368,22.1916 0.374368,20.8583 1.5,19.5 Z"/></g>
<g><path style="opacity:1" fill="#eaecef" d="M 107.5,21.5 C 110.686,21.8954 113.686,22.8954 116.5,24.5C 117.386,25.325 117.719,26.325 117.5,27.5C 113.938,27.0348 110.605,25.8681 107.5,24C 106.402,23.2303 106.402,22.397 107.5,21.5 Z"/></g>
<g><path style="opacity:1" fill="#f0f1f3" d="M 118.5,28.5 C 121.292,28.4521 123.125,29.7854 124,32.5C 124.667,35.8333 124.667,39.1667 124,42.5C 122.989,43.3366 121.822,43.67 120.5,43.5C 120.827,41.5122 121.16,39.5122 121.5,37.5C 120.752,34.3547 119.752,31.3547 118.5,28.5 Z"/></g>
<g><path style="opacity:1" fill="#67b0f0" d="M 91.5,29.5 C 94.7673,31.4273 97.7673,33.7606 100.5,36.5C 100.5,41.1667 100.5,45.8333 100.5,50.5C 97.7673,53.2394 94.7673,55.5727 91.5,57.5C 89.8564,55.5193 88.1897,53.5193 86.5,51.5C 89.0358,48.801 91.3691,45.9676 93.5,43C 91.5,40.3333 89.5,37.6667 87.5,35C 88.6502,33.019 89.9835,31.1857 91.5,29.5 Z"/></g>
<g><path style="opacity:1" fill="#5ca7ef" d="M 100.5,50.5 C 100.5,45.8333 100.5,41.1667 100.5,36.5C 103.18,33.9875 106.013,31.6541 109,29.5C 112.344,30.8151 114.01,33.1484 114,36.5C 111.65,38.6829 109.483,41.0163 107.5,43.5C 109.833,46.1667 112.167,48.8333 114.5,51.5C 112.851,53.6499 111.018,55.6499 109,57.5C 106.564,54.5532 103.731,52.2199 100.5,50.5 Z"/></g>
<g><path style="opacity:0.882" fill="#68b3f4" d="M 25.5,38.5 C 22.853,40.8109 20.1864,43.1442 17.5,45.5C 16.5067,50.1196 16.1734,54.7863 16.5,59.5C 14.205,62.2971 11.705,64.9638 9,67.5C 7,65.5 5,63.5 3,61.5C 2.33333,60.5 2.33333,59.5 3,58.5C 5.16667,56.3333 7.33333,54.1667 9.5,52C 7.33333,49.8333 5.16667,47.6667 3,45.5C 3.29304,41.9975 5.12637,39.3308 8.5,37.5C 11.1667,39.8333 13.8333,42.1667 16.5,44.5C 18.9837,42.517 21.3171,40.3504 23.5,38C 24.4368,37.3083 25.1034,37.475 25.5,38.5 Z"/></g>
<g><path style="opacity:1" fill="#5eaaf3" d="M 25.5,38.5 C 27.8122,40.1455 29.8122,42.1455 31.5,44.5C 29.1667,47.1667 26.8333,49.8333 24.5,52.5C 26.8333,55.1667 29.1667,57.8333 31.5,60.5C 29.517,62.9837 27.3504,65.3171 25,67.5C 22.2972,64.6286 19.4639,61.9619 16.5,59.5C 16.1734,54.7863 16.5067,50.1196 17.5,45.5C 20.1864,43.1442 22.853,40.8109 25.5,38.5 Z"/></g>
<g><path style="opacity:1" fill="#66adeb" d="M 52.5,44.5 C 55.0991,44.5494 57.2658,45.5494 59,47.5C 62.8725,43.5537 66.7058,43.5537 70.5,47.5C 75.4871,43.2276 79.8204,43.8942 83.5,49.5C 82.8333,49.8333 82.1667,50.1667 81.5,50.5C 79.8333,49.8333 78.1667,49.1667 76.5,48.5C 72.3288,51.4965 68.4955,51.1632 65,47.5C 60.0597,51.7169 55.5597,51.2169 51.5,46C 52.056,45.6174 52.3893,45.1174 52.5,44.5 Z"/></g>
<g><path style="opacity:1" fill="#66adeb" d="M 52.5,52.5 C 55.0991,52.5494 57.2658,53.5494 59,55.5C 62.8725,51.5537 66.7058,51.5537 70.5,55.5C 75.3281,51.1916 79.6615,51.6916 83.5,57C 82.8921,57.8699 82.0588,58.3699 81,58.5C 79.6043,57.6057 78.1043,56.9391 76.5,56.5C 72.3288,59.4965 68.4955,59.1632 65,55.5C 60.0597,59.7169 55.5597,59.2169 51.5,54C 52.056,53.6174 52.3893,53.1174 52.5,52.5 Z"/></g>
<g><path style="opacity:1" fill="#66adeb" d="M 52.5,60.5 C 55.0895,60.3962 57.4229,61.0629 59.5,62.5C 61.2387,61.6002 63.072,60.9335 65,60.5C 66.928,60.9335 68.7613,61.6002 70.5,62.5C 75.6087,59.2405 79.9421,60.0739 83.5,65C 82.8921,65.8699 82.0588,66.3699 81,66.5C 79.3745,65.7113 77.8745,64.7113 76.5,63.5C 72.5771,67.3927 68.5771,67.3927 64.5,63.5C 59.7615,67.6598 55.4282,67.1598 51.5,62C 52.056,61.6174 52.3893,61.1174 52.5,60.5 Z"/></g>
<g><path style="opacity:0.771" fill="#69b4f5" d="M -0.5,90.5 C -0.5,89.8333 -0.5,89.1667 -0.5,88.5C 0.264561,88.0766 1.09789,87.7432 2,87.5C 4.26233,88.3825 6.429,89.3825 8.5,90.5C 10.6869,89.242 13.0202,88.242 15.5,87.5C 17.9798,88.242 20.3131,89.242 22.5,90.5C 24.6869,89.242 27.0202,88.242 29.5,87.5C 32.2787,88.3888 34.9454,89.5555 37.5,91C 38.3366,92.0113 38.67,93.1779 38.5,94.5C 35.1379,94.9305 32.3046,93.9305 30,91.5C 25.1315,95.466 20.2982,95.466 15.5,91.5C 9.93016,95.6391 4.59683,95.3058 -0.5,90.5 Z"/></g>
<g><path style="opacity:0.739" fill="#69b4f5" d="M -0.5,99.5 C -0.5,98.5 -0.5,97.5 -0.5,96.5C 0.264561,96.0766 1.09789,95.7432 2,95.5C 4.26233,96.3825 6.429,97.3825 8.5,98.5C 10.6869,97.242 13.0202,96.242 15.5,95.5C 17.9798,96.242 20.3131,97.242 22.5,98.5C 28.5815,94.1306 33.9148,94.9639 38.5,101C 38.3865,102.28 37.7199,103.113 36.5,103.5C 33.8121,102.995 31.6454,101.662 30,99.5C 27.9141,101.249 25.5808,102.583 23,103.5C 20.341,102.783 17.841,101.783 15.5,100.5C 13.2886,101.685 10.9553,102.685 8.5,103.5C 5.48619,102.141 2.48619,100.808 -0.5,99.5 Z"/></g>
<g><path style="opacity:0.996" fill="#f9e37f" d="M 71.5,126.5 C 78.1667,126.5 84.8333,126.5 91.5,126.5C 102.167,126.5 112.833,126.5 123.5,126.5C 129.833,126.5 136.167,126.5 142.5,126.5C 142.5,128.833 142.5,131.167 142.5,133.5C 95.8333,133.5 49.1667,133.5 2.5,133.5C 2.5,135.833 2.5,138.167 2.5,140.5C 49.1667,140.5 95.8333,140.5 142.5,140.5C 142.5,140.833 142.5,141.167 142.5,141.5C 95.5,141.5 48.5,141.5 1.5,141.5C 1.5,136.5 1.5,131.5 1.5,126.5C 24.8333,126.5 48.1667,126.5 71.5,126.5 Z"/></g>
<g><path style="opacity:1" fill="#f8de70" d="M 142.5,133.5 C 142.5,135.833 142.5,138.167 142.5,140.5C 95.8333,140.5 49.1667,140.5 2.5,140.5C 2.5,138.167 2.5,135.833 2.5,133.5C 49.1667,133.5 95.8333,133.5 142.5,133.5 Z"/></g>
</svg>
