<?xml version="1.0" encoding="UTF-8"?>
<!DOCTYPE svg PUBLIC "-//W3C//DTD SVG 1.1//EN" "http://www.w3.org/Graphics/SVG/1.1/DTD/svg11.dtd">
<svg xmlns="http://www.w3.org/2000/svg" version="1.1" width="155px" height="140px" style="shape-rendering:geometricPrecision; text-rendering:geometricPrecision; image-rendering:optimizeQuality; fill-rule:evenodd; clip-rule:evenodd" xmlns:xlink="http://www.w3.org/1999/xlink">
<g><path style="opacity:0.975" fill="#69b4f4" d="M 6.5,-0.5 C 12.1667,-0.5 17.8333,-0.5 23.5,-0.5C 27.2136,2.69025 31.5469,4.85692 36.5,6C 49.7921,7.3574 63.1254,7.8574 76.5,7.5C 76.5,15.5 76.5,23.5 76.5,31.5C 72.0915,21.1299 64.7582,18.2966 54.5,23C 52.2879,25.9212 50.4545,29.0879 49,32.5C 46.3074,24.827 41.1407,22.327 33.5,25C 31.981,26.3513 30.6477,27.8513 29.5,29.5C 27.6841,28.1851 26.0175,26.6851 24.5,25C 19.9733,22.7741 15.8066,23.2741 12,26.5C 10.872,28.3453 10.372,30.3453 10.5,32.5C 8.20337,30.7059 6.0367,28.7059 4,26.5C 2.17326,21.4784 0.673264,16.4784 -0.5,11.5C -0.5,10.1667 -0.5,8.83333 -0.5,7.5C 0.409824,5.98123 1.24316,4.31456 2,2.5C 3.65161,1.60064 5.15161,0.60064 6.5,-0.5 Z"/></g>
<g><path style="opacity:1" fill="#5ea9f2" d="M 131.5,-0.5 C 137.167,-0.5 142.833,-0.5 148.5,-0.5C 150.475,1.13696 152.475,2.80363 154.5,4.5C 154.5,8.5 154.5,12.5 154.5,16.5C 153.901,24.357 149.901,29.6903 142.5,32.5C 143.155,28.6453 141.821,25.8119 138.5,24C 132.11,22.0578 127.277,23.8912 124,29.5C 121.185,23.8309 116.685,21.9976 110.5,24C 107.667,25.5 105.5,27.6667 104,30.5C 101.053,22.3182 95.5534,19.3182 87.5,21.5C 84.8045,21.933 82.6379,23.2663 81,25.5C 79.6667,28.1667 78.3333,30.8333 77,33.5C 76.5357,32.9056 76.369,32.2389 76.5,31.5C 76.5,23.5 76.5,15.5 76.5,7.5C 90.5406,7.86558 104.541,7.36558 118.5,6C 123.453,4.85692 127.786,2.69025 131.5,-0.5 Z"/></g>
<g><path style="opacity:0.947" fill="#dededf" d="M 76.5,31.5 C 76.369,32.2389 76.5357,32.9056 77,33.5C 78.3333,30.8333 79.6667,28.1667 81,25.5C 82.6379,23.2663 84.8045,21.933 87.5,21.5C 88.8333,21.5 90.1667,21.5 91.5,21.5C 91.693,25.5662 91.3597,29.5662 90.5,33.5C 88.4727,33.3379 86.4727,33.5045 84.5,34C 83.944,34.3826 83.6107,34.8826 83.5,35.5C 82.596,36.209 82.2627,37.209 82.5,38.5C 78.5,38.5 74.5,38.5 70.5,38.5C 70.7135,36.8561 70.3802,35.3561 69.5,34C 65.5,33.3333 61.5,33.3333 57.5,34C 56.5939,35.6995 56.2606,37.5328 56.5,39.5C 52.5,39.5 48.5,39.5 44.5,39.5C 44.67,38.1779 44.3366,37.0113 43.5,36C 40.5184,35.502 37.5184,35.3354 34.5,35.5C 34.5,36.8333 34.5,38.1667 34.5,39.5C 31.5,39.5 28.5,39.5 25.5,39.5C 25.6247,36.1075 23.958,34.7741 20.5,35.5C 16.5,34.8333 14.8333,36.5 15.5,40.5C 15.5507,42.0998 15.8841,43.5998 16.5,45C 19.4816,45.498 22.4816,45.6646 25.5,45.5C 25.5,44.5 25.5,43.5 25.5,42.5C 28.5,42.5 31.5,42.5 34.5,42.5C 34.5,43.5 34.5,44.5 34.5,45.5C 41.5119,43.6707 48.8452,42.6707 56.5,42.5C 56.2865,44.1439 56.6198,45.6439 57.5,47C 61.5,47.6667 65.5,47.6667 69.5,47C 70.3802,45.6439 70.7135,44.1439 70.5,42.5C 74.8333,42.5 79.1667,42.5 83.5,42.5C 83.2155,44.4147 83.5489,46.0813 84.5,47.5C 86.2646,48.4614 88.2646,48.7947 90.5,48.5C 90.5,51.8333 90.5,55.1667 90.5,58.5C 85.6778,59.0653 81.1778,58.3987 77,56.5C 72.9228,57.7977 68.5894,58.4644 64,58.5C 59.8333,58.1667 55.6667,57.8333 51.5,57.5C 50.9017,56.2054 50.4017,54.8721 50,53.5C 48.2076,56.3343 45.5409,57.6676 42,57.5C 37.2845,57.7146 33.9512,55.7146 32,51.5C 31.5,53.3333 30.3333,54.5 28.5,55C 25.1667,55.6667 21.8333,55.6667 18.5,55C 16.3333,54.1667 14.8333,52.6667 14,50.5C 12.2545,44.6059 11.0878,38.6059 10.5,32.5C 10.372,30.3453 10.872,28.3453 12,26.5C 15.8066,23.2741 19.9733,22.7741 24.5,25C 26.0175,26.6851 27.6841,28.1851 29.5,29.5C 30.6477,27.8513 31.981,26.3513 33.5,25C 41.1407,22.327 46.3074,24.827 49,32.5C 50.4545,29.0879 52.2879,25.9212 54.5,23C 64.7582,18.2966 72.0915,21.1299 76.5,31.5 Z"/></g>
<g><path style="opacity:1" fill="#425069" d="M 70.5,38.5 C 74.6344,39.4849 78.9677,39.8182 83.5,39.5C 83.5,38.1667 83.5,36.8333 83.5,35.5C 83.6107,34.8826 83.944,34.3826 84.5,34C 86.4727,33.5045 88.4727,33.3379 90.5,33.5C 92.6208,33.3253 94.6208,33.6586 96.5,34.5C 96.5,36.1667 96.5,37.8333 96.5,39.5C 100.5,39.5 104.5,39.5 108.5,39.5C 108.5,38.5 108.5,37.5 108.5,36.5C 111.408,35.4309 114.408,35.2642 117.5,36C 118.337,37.0113 118.67,38.1779 118.5,39.5C 121.167,39.5 123.833,39.5 126.5,39.5C 126.33,38.1779 126.663,37.0113 127.5,36C 130.167,35.3333 132.833,35.3333 135.5,36C 136.451,39.0567 136.784,42.2234 136.5,45.5C 133.482,45.6646 130.482,45.498 127.5,45C 124.167,41.6667 120.833,41.6667 117.5,45C 114.518,45.498 111.518,45.6646 108.5,45.5C 108.5,44.5 108.5,43.5 108.5,42.5C 104.5,42.5 100.5,42.5 96.5,42.5C 96.5,44.1667 96.5,45.8333 96.5,47.5C 92.5,47.5 88.5,47.5 84.5,47.5C 83.5489,46.0813 83.2155,44.4147 83.5,42.5C 79.1667,42.5 74.8333,42.5 70.5,42.5C 70.7135,44.1439 70.3802,45.6439 69.5,47C 65.5,47.6667 61.5,47.6667 57.5,47C 56.6198,45.6439 56.2865,44.1439 56.5,42.5C 48.8452,42.6707 41.5119,43.6707 34.5,45.5C 34.5,44.5 34.5,43.5 34.5,42.5C 31.5,42.5 28.5,42.5 25.5,42.5C 25.5,43.5 25.5,44.5 25.5,45.5C 22.4816,45.6646 19.4816,45.498 16.5,45C 15.8841,43.5998 15.5507,42.0998 15.5,40.5C 14.8333,36.5 16.5,34.8333 20.5,35.5C 23.958,34.7741 25.6247,36.1075 25.5,39.5C 28.5,39.5 31.5,39.5 34.5,39.5C 34.5,38.1667 34.5,36.8333 34.5,35.5C 37.5184,35.3354 40.5184,35.502 43.5,36C 44.3366,37.0113 44.67,38.1779 44.5,39.5C 48.5,39.5 52.5,39.5 56.5,39.5C 56.2606,37.5328 56.5939,35.6995 57.5,34C 61.5,33.3333 65.5,33.3333 69.5,34C 70.3802,35.3561 70.7135,36.8561 70.5,38.5 Z"/></g>
<g><path style="opacity:1" fill="#6bb2ed" d="M 59.5,36.5 C 62.1667,36.5 64.8333,36.5 67.5,36.5C 67.5,39.1667 67.5,41.8333 67.5,44.5C 64.8333,44.5 62.1667,44.5 59.5,44.5C 59.5,41.8333 59.5,39.1667 59.5,36.5 Z"/></g>
<g><path style="opacity:1" fill="#6ab0eb" d="M 93.5,36.5 C 93.5,39.1667 93.5,41.8333 93.5,44.5C 91.1667,44.5 88.8333,44.5 86.5,44.5C 86.5,43.5 86.5,42.5 86.5,41.5C 85.6993,39.9582 85.366,38.2915 85.5,36.5C 88.1667,36.5 90.8333,36.5 93.5,36.5 Z"/></g>
<g><path style="opacity:1" fill="#6db7f4" d="M 37.5,38.5 C 38.8333,38.5 40.1667,38.5 41.5,38.5C 41.5,39.8333 41.5,41.1667 41.5,42.5C 41.5,41.1667 41.5,39.8333 41.5,38.5C 40.1667,38.5 38.8333,38.5 37.5,38.5 Z"/></g>
<g><path style="opacity:1" fill="#aeb2ba" d="M 83.5,35.5 C 83.5,36.8333 83.5,38.1667 83.5,39.5C 78.9677,39.8182 74.6344,39.4849 70.5,38.5C 74.5,38.5 78.5,38.5 82.5,38.5C 82.2627,37.209 82.596,36.209 83.5,35.5 Z"/></g>
<g><path style="opacity:0.995" fill="#abafb8" d="M 96.5,34.5 C 97.4345,35.5676 97.7678,36.901 97.5,38.5C 101.502,38.9643 105.169,38.2976 108.5,36.5C 108.5,37.5 108.5,38.5 108.5,39.5C 104.5,39.5 100.5,39.5 96.5,39.5C 96.5,37.8333 96.5,36.1667 96.5,34.5 Z"/></g>
<g><path style="opacity:1" fill="#67a8e0" d="M 110.5,38.5 C 112.167,38.5 113.833,38.5 115.5,38.5C 115.5,40.1667 115.5,41.8333 115.5,43.5C 113.712,43.7852 112.045,43.4519 110.5,42.5C 111.363,41.2736 111.363,39.9403 110.5,38.5 Z"/></g>
<g><path style="opacity:1" fill="#70baf5" d="M 133.5,38.5 C 133.5,39.8333 133.5,41.1667 133.5,42.5C 132.167,42.5 130.833,42.5 129.5,42.5C 129.5,41.1667 129.5,39.8333 129.5,38.5C 130.833,38.5 132.167,38.5 133.5,38.5 Z"/></g>
<g><path style="opacity:1" fill="#70baf6" d="M 22.5,38.5 C 22.5,39.8333 22.5,41.1667 22.5,42.5C 21.1667,42.5 19.8333,42.5 18.5,42.5C 18.5,41.1667 18.5,39.8333 18.5,38.5C 19.8333,38.5 21.1667,38.5 22.5,38.5 Z"/></g>
<g><path style="opacity:1" fill="#5682ad" d="M 22.5,38.5 C 23.4511,39.9187 23.7845,41.5853 23.5,43.5C 21.5853,43.7845 19.9187,43.4511 18.5,42.5C 19.8333,42.5 21.1667,42.5 22.5,42.5C 22.5,41.1667 22.5,39.8333 22.5,38.5 Z"/></g>
<g><path style="opacity:1" fill="#5884af" d="M 37.5,38.5 C 37.5,39.8333 37.5,41.1667 37.5,42.5C 38.8333,42.5 40.1667,42.5 41.5,42.5C 40.0813,43.4511 38.4147,43.7845 36.5,43.5C 36.2155,41.5853 36.5489,39.9187 37.5,38.5 Z"/></g>
<g><path style="opacity:0.985" fill="#dcdcdd" d="M 87.5,21.5 C 95.5534,19.3182 101.053,22.3182 104,30.5C 105.5,27.6667 107.667,25.5 110.5,24C 116.685,21.9976 121.185,23.8309 124,29.5C 127.277,23.8912 132.11,22.0578 138.5,24C 141.821,25.8119 143.155,28.6453 142.5,32.5C 141.992,37.5431 141.158,42.5431 140,47.5C 138.466,52.6892 134.966,55.0226 129.5,54.5C 126.139,54.8881 123.306,53.8881 121,51.5C 118.972,55.1337 115.806,56.8003 111.5,56.5C 108.486,56.7415 105.986,55.7415 104,53.5C 103.598,54.8721 103.098,56.2054 102.5,57.5C 98.5546,58.4909 94.5546,58.8242 90.5,58.5C 90.5,55.1667 90.5,51.8333 90.5,48.5C 88.2646,48.7947 86.2646,48.4614 84.5,47.5C 88.5,47.5 92.5,47.5 96.5,47.5C 96.5,45.8333 96.5,44.1667 96.5,42.5C 100.5,42.5 104.5,42.5 108.5,42.5C 108.5,43.5 108.5,44.5 108.5,45.5C 111.518,45.6646 114.518,45.498 117.5,45C 120.833,41.6667 124.167,41.6667 127.5,45C 130.482,45.498 133.482,45.6646 136.5,45.5C 136.784,42.2234 136.451,39.0567 135.5,36C 132.833,35.3333 130.167,35.3333 127.5,36C 126.663,37.0113 126.33,38.1779 126.5,39.5C 123.833,39.5 121.167,39.5 118.5,39.5C 118.67,38.1779 118.337,37.0113 117.5,36C 114.408,35.2642 111.408,35.4309 108.5,36.5C 105.169,38.2976 101.502,38.9643 97.5,38.5C 97.7678,36.901 97.4345,35.5676 96.5,34.5C 94.6208,33.6586 92.6208,33.3253 90.5,33.5C 91.3597,29.5662 91.693,25.5662 91.5,21.5C 90.1667,21.5 88.8333,21.5 87.5,21.5 Z"/></g>
<g><path style="opacity:1" fill="#5885b1" d="M 133.5,38.5 C 134.451,39.9187 134.784,41.5853 134.5,43.5C 132.585,43.7845 130.919,43.4511 129.5,42.5C 130.833,42.5 132.167,42.5 133.5,42.5C 133.5,41.1667 133.5,39.8333 133.5,38.5 Z"/></g>
<g><path style="opacity:1" fill="#507299" d="M 93.5,36.5 C 94.4767,39.2869 94.81,42.2869 94.5,45.5C 91.5,45.5 88.5,45.5 85.5,45.5C 85.2322,43.901 85.5655,42.5676 86.5,41.5C 86.5,42.5 86.5,43.5 86.5,44.5C 88.8333,44.5 91.1667,44.5 93.5,44.5C 93.5,41.8333 93.5,39.1667 93.5,36.5 Z"/></g>
<g><path style="opacity:0.976" fill="#6ab2f1" d="M 76.5,76.5 C 76.5,89.5 76.5,102.5 76.5,115.5C 74.1667,115.5 71.8333,115.5 69.5,115.5C 69.5959,95.3663 59.5959,86.533 39.5,89C 27.0387,94.7389 21.372,104.572 22.5,118.5C 16.8419,119.589 12.3419,117.922 9,113.5C 8.33333,102.833 8.33333,92.1667 9,81.5C 9.46524,80.0692 10.2986,78.9025 11.5,78C 33.0754,76.5221 54.7421,76.0221 76.5,76.5 Z"/></g>
<g><path style="opacity:1" fill="#6a9bcf" d="M 76.5,76.5 C 98.5911,76.0218 120.591,76.5218 142.5,78C 144.317,79.7998 145.484,81.9664 146,84.5C 146.667,93.1667 146.667,101.833 146,110.5C 145.573,114.527 143.406,117.027 139.5,118C 136.518,118.498 133.518,118.665 130.5,118.5C 132.436,100.659 124.602,90.6595 107,88.5C 90.8768,90.131 83.0435,99.131 83.5,115.5C 81.1667,115.5 78.8333,115.5 76.5,115.5C 76.5,102.5 76.5,89.5 76.5,76.5 Z"/></g>
<g><path style="opacity:0.958" fill="#e0e0e0" d="M 69.5,115.5 C 64.5,115.5 59.5,115.5 54.5,115.5C 54.7947,113.265 54.4614,111.265 53.5,109.5C 48.5,109.5 43.5,109.5 38.5,109.5C 38.5,114.5 38.5,119.5 38.5,124.5C 43.5,124.5 48.5,124.5 53.5,124.5C 54.4345,123.432 54.7678,122.099 54.5,120.5C 59.5,120.5 64.5,120.5 69.5,120.5C 69.8333,120.5 70.1667,120.5 70.5,120.5C 70.6658,125.179 70.4992,129.845 70,134.5C 68.975,136.687 67.475,138.354 65.5,139.5C 52.5,139.5 39.5,139.5 26.5,139.5C 24.8564,138.684 23.6897,137.35 23,135.5C 22.5006,129.843 22.3339,124.176 22.5,118.5C 21.372,104.572 27.0387,94.7389 39.5,89C 59.5959,86.533 69.5959,95.3663 69.5,115.5 Z"/></g>
<g><path style="opacity:0.999" fill="#dddede" d="M 130.5,118.5 C 130.666,124.509 130.499,130.509 130,136.5C 128.855,137.636 127.688,138.636 126.5,139.5C 113.5,139.5 100.5,139.5 87.5,139.5C 86.3117,138.636 85.1451,137.636 84,136.5C 83.5006,131.177 83.334,125.844 83.5,120.5C 88.6405,119.512 93.9738,119.179 99.5,119.5C 99.5,120.833 99.5,122.167 99.5,123.5C 104.5,123.5 109.5,123.5 114.5,123.5C 114.5,118.5 114.5,113.5 114.5,108.5C 109.5,108.5 104.5,108.5 99.5,108.5C 99.5,110.833 99.5,113.167 99.5,115.5C 94.1667,115.5 88.8333,115.5 83.5,115.5C 83.0435,99.131 90.8768,90.131 107,88.5C 124.602,90.6595 132.436,100.659 130.5,118.5 Z"/></g>
<g><path style="opacity:0.973" fill="#404d66" d="M 83.5,120.5 C 79.1667,120.5 74.8333,120.5 70.5,120.5C 70.1667,120.5 69.8333,120.5 69.5,120.5C 64.6946,119.513 59.6946,119.179 54.5,119.5C 54.5,118.5 54.5,117.5 54.5,116.5C 59.6946,116.821 64.6946,116.487 69.5,115.5C 71.8333,115.5 74.1667,115.5 76.5,115.5C 78.8333,115.5 81.1667,115.5 83.5,115.5C 88.8333,115.5 94.1667,115.5 99.5,115.5C 99.5,113.167 99.5,110.833 99.5,108.5C 104.5,108.5 109.5,108.5 114.5,108.5C 114.5,113.5 114.5,118.5 114.5,123.5C 109.5,123.5 104.5,123.5 99.5,123.5C 99.5,122.167 99.5,120.833 99.5,119.5C 93.9738,119.179 88.6405,119.512 83.5,120.5 Z"/></g>
<g><path style="opacity:1" fill="#3e4b63" d="M 53.5,109.5 C 53.5,114.5 53.5,119.5 53.5,124.5C 48.5,124.5 43.5,124.5 38.5,124.5C 38.5,119.5 38.5,114.5 38.5,109.5C 43.5,109.5 48.5,109.5 53.5,109.5 Z"/></g>
<g><path style="opacity:1" fill="#6d7688" d="M 53.5,109.5 C 54.4614,111.265 54.7947,113.265 54.5,115.5C 59.5,115.5 64.5,115.5 69.5,115.5C 64.6946,116.487 59.6946,116.821 54.5,116.5C 54.5,117.5 54.5,118.5 54.5,119.5C 59.6946,119.179 64.6946,119.513 69.5,120.5C 64.5,120.5 59.5,120.5 54.5,120.5C 54.7678,122.099 54.4345,123.432 53.5,124.5C 53.5,119.5 53.5,114.5 53.5,109.5 Z"/></g>
</svg>
