<?xml version="1.0" encoding="UTF-8"?>
<!DOCTYPE svg PUBLIC "-//W3C//DTD SVG 1.1//EN" "http://www.w3.org/Graphics/SVG/1.1/DTD/svg11.dtd">
<svg xmlns="http://www.w3.org/2000/svg" version="1.1" width="142px" height="142px" style="shape-rendering:geometricPrecision; text-rendering:geometricPrecision; image-rendering:optimizeQuality; fill-rule:evenodd; clip-rule:evenodd" xmlns:xlink="http://www.w3.org/1999/xlink">
<g><path style="opacity:0.993" fill="#dfdfde" d="M 47.5,-0.5 C 51.8333,-0.5 56.1667,-0.5 60.5,-0.5C 63.8559,1.59934 67.3559,3.59934 71,5.5C 74.1467,3.35033 77.3133,1.35033 80.5,-0.5C 84.8333,-0.5 89.1667,-0.5 93.5,-0.5C 106.813,2.64077 115.98,10.6408 121,23.5C 121.667,28.5 121.667,33.5 121,38.5C 117.077,46.0142 113.41,53.6809 110,61.5C 108.69,65.0704 107.857,68.737 107.5,72.5C 106.833,72.5 106.5,72.8333 106.5,73.5C 104.085,88.7394 100.585,103.739 96,118.5C 94.0609,125.096 89.8942,129.429 83.5,131.5C 78.6476,130.813 75.481,128.146 74,123.5C 73.6667,112.833 73.3333,102.167 73,91.5C 72.967,84.6701 72.1337,78.6701 70.5,73.5C 69.6862,75.631 69.1862,77.9644 69,80.5C 68.0481,95.1532 67.3814,109.82 67,124.5C 64.1849,130.169 59.6849,132.002 53.5,130C 50.3712,126.248 47.8712,122.081 46,117.5C 41.5913,102.946 37.758,88.2792 34.5,73.5C 33.4671,68.3703 31.9671,63.3703 30,58.5C 26.3938,51.6214 23.0605,44.6214 20,37.5C 17.5376,24.9302 21.3709,14.7635 31.5,7C 36.5424,3.64258 41.8757,1.14258 47.5,-0.5 Z"/></g>
<g><path style="opacity:1" fill="#f7e180" d="M 70.5,12.5 C 70.5,28.5 70.5,44.5 70.5,60.5C 71.791,60.2627 72.791,60.596 73.5,61.5C 71.1432,61.3367 68.8098,61.5034 66.5,62C 65.1509,62.7724 64.3176,63.9391 64,65.5C 61.4727,84.4094 60.1393,103.409 60,122.5C 59.3333,123.167 58.6667,123.833 58,124.5C 54.9175,120.6 52.5841,116.266 51,111.5C 47.4111,96.8884 44.0778,82.2218 41,67.5C 38.3559,57.8801 34.3559,48.8801 29,40.5C 24.2936,23.4995 30.4603,12.3329 47.5,7C 51.1667,6.33333 54.8333,6.33333 58.5,7C 62.4413,9.14572 66.4413,10.979 70.5,12.5 Z"/></g>
<g><path style="opacity:1" fill="#f8de74" d="M 73.5,61.5 C 72.791,60.596 71.791,60.2627 70.5,60.5C 70.5,44.5 70.5,28.5 70.5,12.5C 74.8672,11.4833 78.8672,9.65 82.5,7C 94.3489,5.94511 103.849,10.1118 111,19.5C 114.938,26.3732 115.271,33.3732 112,40.5C 107.531,47.7711 103.865,55.4377 101,63.5C 98.4746,78.6006 95.4746,93.6006 92,108.5C 90.4293,114.141 87.9293,119.307 84.5,124C 82.5911,124.448 81.4244,123.615 81,121.5C 81.2257,102.04 79.8924,82.7065 77,63.5C 76.1841,62.1772 75.0174,61.5106 73.5,61.5 Z"/></g>
<g><path style="opacity:1" fill="#485366" d="M 88.5,12.5 C 92.8127,12.2689 96.4794,13.6022 99.5,16.5C 98.8333,16.8333 98.1667,17.1667 97.5,17.5C 94.5804,16.4144 91.5804,15.7477 88.5,15.5C 88.5,14.5 88.5,13.5 88.5,12.5 Z"/></g>
<g><path style="opacity:1" fill="#435067" d="M 54.5,90.5 C 54.8016,93.0593 54.4682,95.3926 53.5,97.5C 49.7029,80.9298 46.2029,64.2632 43,47.5C 41.5787,44.9906 39.9121,42.6572 38,40.5C 33.202,32.7207 33.702,25.2207 39.5,18C 43.4963,16.2499 47.6629,15.0832 52,14.5C 54.2806,15.7763 56.2806,17.4429 58,19.5C 57.5935,27.8496 57.5935,36.1829 58,44.5C 54.411,48.2633 52.5776,52.7633 52.5,58C 53.8025,68.7965 54.4692,79.6299 54.5,90.5 Z"/></g>
<g><path style="opacity:1" fill="#535b67" d="M 102.5,19.5 C 103.822,19.33 104.989,19.6634 106,20.5C 109.03,24.3871 110.03,28.7205 109,33.5C 108.804,35.2861 107.971,36.6195 106.5,37.5C 105.673,33.5408 105.173,29.5408 105,25.5C 103.441,23.7834 102.608,21.7834 102.5,19.5 Z"/></g>
<g><path style="opacity:1" fill="#65abe9" d="M 48.5,23.5 C 49.3764,23.3691 50.0431,23.7025 50.5,24.5C 51.2651,26.2951 51.9318,28.1284 52.5,30C 50.7019,32.9659 48.3686,35.4659 45.5,37.5C 44.5815,35.2424 43.9148,32.9091 43.5,30.5C 44.7695,27.895 46.4361,25.5616 48.5,23.5 Z"/></g>
<g><path style="opacity:0.981" fill="#6bb4f4" d="M 34.5,73.5 C 37.758,88.2792 41.5913,102.946 46,117.5C 47.8712,122.081 50.3712,126.248 53.5,130C 59.6849,132.002 64.1849,130.169 67,124.5C 67.3814,109.82 68.0481,95.1532 69,80.5C 69.1862,77.9644 69.6862,75.631 70.5,73.5C 70.5,96.1667 70.5,118.833 70.5,141.5C 46.8333,141.5 23.1667,141.5 -0.5,141.5C -0.5,120.5 -0.5,99.5 -0.5,78.5C 1.31481,74.5212 4.31481,71.6878 8.5,70C 15.1667,69.3333 21.8333,69.3333 28.5,70C 30.8867,70.5637 32.8867,71.7304 34.5,73.5 Z"/></g>
<g><path style="opacity:1" fill="#6b9dd1" d="M 141.5,77.5 C 141.5,98.8333 141.5,120.167 141.5,141.5C 117.833,141.5 94.1667,141.5 70.5,141.5C 70.5,118.833 70.5,96.1667 70.5,73.5C 72.1337,78.6701 72.967,84.6701 73,91.5C 73.3333,102.167 73.6667,112.833 74,123.5C 75.481,128.146 78.6476,130.813 83.5,131.5C 89.8942,129.429 94.0609,125.096 96,118.5C 100.585,103.739 104.085,88.7394 106.5,73.5C 107.167,73.5 107.5,73.1667 107.5,72.5C 108.882,71.1995 110.548,70.3661 112.5,70C 120.246,69.1041 127.913,69.4375 135.5,71C 137.734,73.0627 139.734,75.2294 141.5,77.5 Z"/></g>
<g><path style="opacity:1" fill="#f2f9fe" d="M 14.5,79.5 C 22.6612,78.1715 26.4946,81.5048 26,89.5C 21.2832,96.1517 16.6165,96.1517 12,89.5C 11.0239,85.673 11.8572,82.3396 14.5,79.5 Z"/></g>
<g><path style="opacity:1" fill="#eef4fa" d="M 112.5,79.5 C 118.183,78.1688 121.849,80.1688 123.5,85.5C 121.084,92.8046 116.918,94.138 111,89.5C 108.925,85.7942 109.425,82.4609 112.5,79.5 Z"/></g>
<g><path style="opacity:1" fill="#70b7f5" d="M 16.5,82.5 C 22.3133,82.062 23.98,84.562 21.5,90C 14.745,90.7558 13.0783,88.2558 16.5,82.5 Z"/></g>
<g><path style="opacity:1" fill="#6e9fd2" d="M 114.5,82.5 C 119.159,82.0146 120.492,83.848 118.5,88C 113.728,88.8104 112.395,86.9771 114.5,82.5 Z"/></g>
<g><path style="opacity:1" fill="#77796e" d="M 54.5,90.5 C 55.647,94.6463 55.8136,98.9796 55,103.5C 54.187,101.564 53.687,99.5643 53.5,97.5C 54.4682,95.3926 54.8016,93.0593 54.5,90.5 Z"/></g>
<g><path style="opacity:1" fill="#f0f6fa" d="M 120.5,100.5 C 127.141,100.639 129.974,103.972 129,110.5C 125.385,115.423 121.385,115.756 117,111.5C 115.518,106.774 116.685,103.107 120.5,100.5 Z"/></g>
<g><path style="opacity:1" fill="#f6fbfe" d="M 24.5,102.5 C 34.8176,102.322 37.1509,106.489 31.5,115C 25.6481,117.04 22.3148,115.04 21.5,109C 21.8402,106.489 22.8402,104.322 24.5,102.5 Z"/></g>
<g><path style="opacity:1" fill="#73a2d3" d="M 120.5,104.5 C 124.691,103.869 126.525,105.535 126,109.5C 120.42,111.752 118.587,110.085 120.5,104.5 Z"/></g>
<g><path style="opacity:1" fill="#72b8f5" d="M 26.5,105.5 C 30.713,105.699 32.0464,107.699 30.5,111.5C 24.787,112.452 23.4537,110.452 26.5,105.5 Z"/></g>
<g><path style="opacity:1" fill="#f1f8fe" d="M 12.5,118.5 C 20.5581,118.373 23.3915,122.04 21,129.5C 16.5216,133.731 12.5216,133.398 9,128.5C 8.33333,126.5 8.33333,124.5 9,122.5C 10.3756,121.295 11.5423,119.962 12.5,118.5 Z"/></g>
<g><path style="opacity:1" fill="#f7fafc" d="M 102.5,121.5 C 109.934,121.2 111.934,124.366 108.5,131C 100.424,131.805 98.424,128.638 102.5,121.5 Z"/></g>
<g><path style="opacity:1" fill="#73b8f5" d="M 12.5,122.5 C 18.5548,121.942 19.8881,124.109 16.5,129C 11.7954,129.106 10.4621,126.939 12.5,122.5 Z"/></g>
<g><path style="opacity:1" fill="#f6fbfe" d="M 38.5,122.5 C 43.3247,122.488 45.4914,124.821 45,129.5C 43.1799,132.203 40.6799,133.036 37.5,132C 34.5512,128.296 34.8845,125.129 38.5,122.5 Z"/></g>
<g><path style="opacity:1" fill="#f6f9fc" d="M 125.5,122.5 C 134.823,122.741 136.823,126.574 131.5,134C 122.096,134.141 120.096,130.308 125.5,122.5 Z"/></g>
<g><path style="opacity:1" fill="#7faad7" d="M 103.5,124.5 C 105.346,124.222 106.68,124.889 107.5,126.5C 106.68,128.111 105.346,128.778 103.5,128.5C 103.5,127.167 103.5,125.833 103.5,124.5 Z"/></g>
<g><path style="opacity:1" fill="#8dc5f7" d="M 39.5,125.5 C 42.8606,126.203 43.1939,127.537 40.5,129.5C 38.3576,128.563 38.0243,127.23 39.5,125.5 Z"/></g>
<g><path style="opacity:1" fill="#78a5d5" d="M 127.5,125.5 C 132.229,126.926 132.562,128.926 128.5,131.5C 124.854,130.2 124.52,128.2 127.5,125.5 Z"/></g>
</svg>
