<?xml version="1.0" encoding="UTF-8"?>
<!DOCTYPE svg PUBLIC "-//W3C//DTD SVG 1.1//EN" "http://www.w3.org/Graphics/SVG/1.1/DTD/svg11.dtd">
<svg xmlns="http://www.w3.org/2000/svg" version="1.1" width="144px" height="144px" style="shape-rendering:geometricPrecision; text-rendering:geometricPrecision; image-rendering:optimizeQuality; fill-rule:evenodd; clip-rule:evenodd" xmlns:xlink="http://www.w3.org/1999/xlink">
<g><path style="opacity:0.789" fill="#3f4d66" d="M 4.5,-0.5 C 6.5,-0.5 8.5,-0.5 10.5,-0.5C 17.6522,4.07487 18.3188,9.57487 12.5,16C 7.32649,17.4606 2.99316,16.2939 -0.5,12.5C -0.5,9.83333 -0.5,7.16667 -0.5,4.5C 0.833333,2.5 2.5,0.833333 4.5,-0.5 Z M 6.5,3.5 C 12.2381,4.38054 13.5714,7.21387 10.5,12C 5,13.1667 2.83333,11 4,5.5C 4.9947,4.93406 5.82803,4.26739 6.5,3.5 Z"/></g>
<g><path style="opacity:0.988" fill="#e1e1e2" d="M 128.5,54.5 C 124.581,53.8652 120.581,53.5319 116.5,53.5C 112.321,53.364 108.321,53.864 104.5,55C 111.993,56.464 119.66,56.964 127.5,56.5C 125.308,59.5498 123.642,62.8832 122.5,66.5C 114.328,66.0343 106.328,66.5343 98.5,68C 105.846,69.1325 113.179,69.9658 120.5,70.5C 119.167,73.8333 117.833,77.1667 116.5,80.5C 112.749,79.8668 108.915,79.5335 105,79.5C 100.986,79.3657 97.1529,79.8657 93.5,81C 100.658,82.4622 107.992,82.9622 115.5,82.5C 115.5,83.1667 115.5,83.8333 115.5,84.5C 114.304,87.4214 113.304,90.4214 112.5,93.5C 104.992,93.0378 97.6583,93.5378 90.5,95C 97.3233,96.4602 104.323,96.9602 111.5,96.5C 111.074,100.902 109.74,104.902 107.5,108.5C 101.491,108.334 95.4908,108.501 89.5,109C 88.1667,110 88.1667,111 89.5,112C 95.1569,112.499 100.824,112.666 106.5,112.5C 103.065,121.1 96.8986,126.767 88,129.5C 83.267,128.384 80.6003,125.384 80,120.5C 80.3299,109.218 78.8299,98.2182 75.5,87.5C 73.8333,87.5 72.1667,87.5 70.5,87.5C 71.4904,61.5743 71.8237,35.5743 71.5,9.5C 77.7789,5.27811 84.6122,2.27811 92,0.5C 119.695,4.1803 132.695,19.847 131,47.5C 130.256,49.8997 129.423,52.233 128.5,54.5 Z"/></g>
<g><path style="opacity:0.779" fill="#3f4d66" d="M 132.5,0.5 C 142.032,1.55507 144.865,6.55507 141,15.5C 133.093,20.6311 127.927,18.6311 125.5,9.5C 126.027,4.98534 128.36,1.98534 132.5,0.5 Z M 133.5,4.5 C 137.779,5.61052 139.279,8.27719 138,12.5C 134.304,15.085 131.47,14.2517 129.5,10C 130.007,7.45475 131.341,5.62142 133.5,4.5 Z"/></g>
<g><path style="opacity:1" fill="#e7e7e7" d="M 71.5,9.5 C 71.8237,35.5743 71.4904,61.5743 70.5,87.5C 69.5041,87.4142 68.6708,87.7476 68,88.5C 66.5117,92.7869 65.1783,97.1203 64,101.5C 63.8972,109.244 63.2305,116.911 62,124.5C 60.7343,127.635 58.401,129.302 55,129.5C 45.7821,126.617 39.4488,120.617 36,111.5C 32.8528,102.24 30.0195,92.907 27.5,83.5C 27.5,82.8333 27.1667,82.5 26.5,82.5C 23.3799,71.2588 18.8799,60.5921 13,50.5C 8.47649,29.2146 15.9765,13.8812 35.5,4.5C 37.9212,6.17563 38.0879,8.17563 36,10.5C 32.5046,12.6217 30.8379,15.6217 31,19.5C 35.8316,24.3321 41.6649,27.1655 48.5,28C 42.6092,32.1127 36.2758,35.4461 29.5,38C 28.6433,38.6891 27.9767,39.5224 27.5,40.5C 32.3757,47.8858 39.0424,52.7191 47.5,55C 43.3739,57.1402 39.5406,59.6402 36,62.5C 35.3333,66.5 35.3333,70.5 36,74.5C 38.3333,77.5 40.6667,80.5 43,83.5C 42.031,78.5993 41.1977,73.5993 40.5,68.5C 40.8333,66.8333 41.1667,65.1667 41.5,63.5C 46.5851,61.36 51.5851,59.0266 56.5,56.5C 57.8304,54.6531 57.497,53.1531 55.5,52C 50.8333,50.6667 46.1667,49.3333 41.5,48C 39.1251,45.8241 36.7918,43.6574 34.5,41.5C 42.1667,37.3333 49.8333,33.1667 57.5,29C 59.1305,25.9377 58.1305,24.271 54.5,24C 49.9041,22.7139 45.2374,21.8806 40.5,21.5C 42.178,13.3325 46.5113,6.83246 53.5,2C 54.8333,1.33333 56.1667,1.33333 57.5,2C 62.3526,4.25809 67.0193,6.75809 71.5,9.5 Z"/></g>
<g><path style="opacity:1" fill="#4b586f" d="M 95.5,13.5 C 101.957,13.8089 107.29,16.3089 111.5,21C 110.167,21.6667 108.833,21.6667 107.5,21C 104.508,18.8899 101.175,17.5566 97.5,17C 96.0267,16.2904 95.3601,15.1238 95.5,13.5 Z"/></g>
<g><path style="opacity:1" fill="#505c73" d="M 113.5,23.5 C 117.636,25.3712 120.136,28.7046 121,33.5C 121.667,36.8333 121.667,40.1667 121,43.5C 120.632,44.91 119.799,45.91 118.5,46.5C 117.671,41.5329 117.171,36.5329 117,31.5C 115.007,29.1825 113.841,26.5158 113.5,23.5 Z"/></g>
<g><path style="opacity:1" fill="#3f4d66" d="M 128.5,54.5 C 128.672,55.4916 128.338,56.1583 127.5,56.5C 119.66,56.964 111.993,56.464 104.5,55C 108.321,53.864 112.321,53.364 116.5,53.5C 120.581,53.5319 124.581,53.8652 128.5,54.5 Z"/></g>
<g><path style="opacity:0.816" fill="#3f4d66" d="M 143.5,59.5 C 143.5,61.5 143.5,63.5 143.5,65.5C 140.048,69.8806 135.882,70.5473 131,67.5C 127.678,58.9562 130.511,55.1229 139.5,56C 141.35,56.6897 142.684,57.8564 143.5,59.5 Z M 134.5,59.5 C 139.159,59.0146 140.492,60.848 138.5,65C 133.728,65.8104 132.395,63.9771 134.5,59.5 Z"/></g>
<g><path style="opacity:0.765" fill="#3f4d66" d="M -0.5,68.5 C -0.5,67.1667 -0.5,65.8333 -0.5,64.5C 0.218865,62.9087 1.21886,61.4087 2.5,60C 9.11219,57.8 13.1122,59.9666 14.5,66.5C 12.6176,72.9411 8.61757,74.7744 2.5,72C 1.36362,70.8549 0.363622,69.6883 -0.5,68.5 Z M 4.5,63.5 C 11.1379,64.0694 11.8045,66.0694 6.5,69.5C 4.0272,67.9285 3.36053,65.9285 4.5,63.5 Z"/></g>
<g><path style="opacity:0.973" fill="#3f4d66" d="M 122.5,66.5 C 122.771,68.3797 122.104,69.713 120.5,70.5C 113.179,69.9658 105.846,69.1325 98.5,68C 106.328,66.5343 114.328,66.0343 122.5,66.5 Z"/></g>
<g><path style="opacity:0.977" fill="#69b3f3" d="M 26.5,82.5 C 27.1667,82.5 27.5,82.8333 27.5,83.5C 30.0195,92.907 32.8528,102.24 36,111.5C 39.4488,120.617 45.7821,126.617 55,129.5C 58.401,129.302 60.7343,127.635 62,124.5C 63.2305,116.911 63.8972,109.244 64,101.5C 65.1783,97.1203 66.5117,92.7869 68,88.5C 68.6708,87.7476 69.5041,87.4142 70.5,87.5C 72.1667,87.5 73.8333,87.5 75.5,87.5C 78.8299,98.2182 80.3299,109.218 80,120.5C 80.6003,125.384 83.267,128.384 88,129.5C 96.8986,126.767 103.065,121.1 106.5,112.5C 108.62,111.597 108.954,110.263 107.5,108.5C 109.74,104.902 111.074,100.902 111.5,96.5C 112.404,95.791 112.737,94.791 112.5,93.5C 113.304,90.4214 114.304,87.4214 115.5,84.5C 116.338,84.1583 116.672,83.4916 116.5,82.5C 119.168,80.4995 122.168,78.9995 125.5,78C 130.823,77.5006 136.156,77.334 141.5,77.5C 141.5,99.5 141.5,121.5 141.5,143.5C 94.8333,143.5 48.1667,143.5 1.5,143.5C 1.5,121.5 1.5,99.5 1.5,77.5C 10.5497,76.2367 18.883,77.9034 26.5,82.5 Z"/></g>
<g><path style="opacity:1" fill="#425068" d="M 116.5,80.5 C 116.5,81.1667 116.5,81.8333 116.5,82.5C 116.167,82.5 115.833,82.5 115.5,82.5C 107.992,82.9622 100.658,82.4622 93.5,81C 97.1529,79.8657 100.986,79.3657 105,79.5C 108.915,79.5335 112.749,79.8668 116.5,80.5 Z"/></g>
<g><path style="opacity:1" fill="#424f68" d="M 112.5,93.5 C 112.737,94.791 112.404,95.791 111.5,96.5C 104.323,96.9602 97.3233,96.4602 90.5,95C 97.6583,93.5378 104.992,93.0378 112.5,93.5 Z"/></g>
<g><path style="opacity:1" fill="#576379" d="M 107.5,108.5 C 108.954,110.263 108.62,111.597 106.5,112.5C 100.824,112.666 95.1569,112.499 89.5,112C 88.1667,111 88.1667,110 89.5,109C 95.4908,108.501 101.491,108.334 107.5,108.5 Z"/></g>
</svg>
