<?xml version="1.0" encoding="UTF-8"?>
<!DOCTYPE svg PUBLIC "-//W3C//DTD SVG 1.1//EN" "http://www.w3.org/Graphics/SVG/1.1/DTD/svg11.dtd">
<svg xmlns="http://www.w3.org/2000/svg" version="1.1" width="141px" height="146px" style="shape-rendering:geometricPrecision; text-rendering:geometricPrecision; image-rendering:optimizeQuality; fill-rule:evenodd; clip-rule:evenodd" xmlns:xlink="http://www.w3.org/1999/xlink">
<g><path style="opacity:0.99" fill="#e0e0e0" d="M 81.5,-0.5 C 82.5,-0.5 83.5,-0.5 84.5,-0.5C 88.4521,3.3048 92.4521,3.3048 96.5,-0.5C 97.5,-0.5 98.5,-0.5 99.5,-0.5C 110.121,2.73978 113.954,9.73978 111,20.5C 107.569,29.092 104.069,37.592 100.5,46C 97.7838,48.1511 95.2838,47.9845 93,45.5C 91.2538,23.0378 89.2538,23.0378 87,45.5C 85.951,47.1066 84.451,47.7733 82.5,47.5C 82.1667,47.5 81.8333,47.5 81.5,47.5C 79.832,45.66 78.332,43.66 77,41.5C 74.5252,32.2414 71.3585,23.2414 67.5,14.5C 68.775,6.22795 73.4416,1.22795 81.5,-0.5 Z"/></g>
<g><path style="opacity:0.988" fill="#e0e0e0" d="M -0.5,18.5 C -0.5,16.1667 -0.5,13.8333 -0.5,11.5C 4.35688,1.38113 11.8569,-1.28554 22,3.5C 33.8498,-1.65781 41.3498,2.17552 44.5,15C 40.7421,23.9396 37.5754,33.1063 35,42.5C 32.8189,47.6136 29.4856,48.9469 25,46.5C 22.7155,24.0222 20.7155,24.0222 19,46.5C 15.5517,48.9884 12.5517,48.3218 10,44.5C 7.3935,35.3346 3.8935,26.6679 -0.5,18.5 Z"/></g>
<g><path style="opacity:0.771" fill="#69b4f5" d="M 121.5,1.5 C 131.077,2.06075 134.077,6.72742 130.5,15.5C 124.536,20.0738 119.703,19.0738 116,12.5C 115.176,7.48183 117.009,3.81517 121.5,1.5 Z M 123.5,5.5 C 129.905,8.20158 130.071,11.2016 124,14.5C 118.291,11.6723 118.125,8.67227 123.5,5.5 Z"/></g>
<g><path style="opacity:0.793" fill="#3f4d66" d="M 62.5,23.5 C 60.7839,23.6287 59.1172,23.962 57.5,24.5C 49.018,24.2347 45.8513,19.9013 48,11.5C 50.8966,6.84511 55.0633,5.34511 60.5,7C 66.2694,11.8851 66.936,17.3851 62.5,23.5 Z M 54.5,10.5 C 61.8211,11.3193 63.1545,14.486 58.5,20C 52.4983,20.9931 50.3317,18.4931 52,12.5C 52.9947,11.9341 53.828,11.2674 54.5,10.5 Z"/></g>
<g><path style="opacity:0.878" fill="#e2e2e2" d="M 113.5,85.5 C 112.406,80.8701 111.072,76.2034 109.5,71.5C 109.333,58.1625 109.5,44.8292 110,31.5C 114.96,21.4387 122.46,18.9387 132.5,24C 135.135,25.9605 136.969,28.4605 138,31.5C 138.667,55.8333 138.667,80.1667 138,104.5C 135.204,111.49 130.037,115.49 122.5,116.5C 119.604,115.976 118.937,114.476 120.5,112C 128.113,111.715 132.613,107.881 134,100.5C 134.667,78.5 134.667,56.5 134,34.5C 129.078,24.1879 122.745,23.1879 115,31.5C 113.554,49.4444 113.054,67.4444 113.5,85.5 Z M 122.5,40.5 C 129.668,42.4898 130.168,45.4898 124,49.5C 118.998,47.0688 118.498,44.0688 122.5,40.5 Z M 122.5,64.5 C 127.049,64.9323 127.549,66.5989 124,69.5C 121.676,68.2247 121.176,66.558 122.5,64.5 Z"/></g>
<g><path style="opacity:0.792" fill="#68b3f4" d="M 62.5,23.5 C 69.1094,24.2584 71.2761,27.9251 69,34.5C 65.6983,37.7122 61.865,38.3788 57.5,36.5C 56.8333,35.1667 56.1667,33.8333 55.5,32.5C 55.2826,29.5794 55.9493,26.9128 57.5,24.5C 59.1172,23.962 60.7839,23.6287 62.5,23.5 Z M 60.5,27.5 C 65.1585,27.0146 66.4919,28.848 64.5,33C 60.2716,33.2717 58.9383,31.4383 60.5,27.5 Z"/></g>
<g><path style="opacity:0.795" fill="#3f4d66" d="M 55.5,32.5 C 56.1667,33.8333 56.8333,35.1667 57.5,36.5C 57.8341,44.3223 54.1675,47.1556 46.5,45C 42.5,40.6667 42.5,36.3333 46.5,32C 49.5547,31.3658 52.5547,31.5325 55.5,32.5 Z M 48.5,35.5 C 53.1585,35.0146 54.4919,36.848 52.5,41C 47.7282,41.8104 46.3948,39.9771 48.5,35.5 Z"/></g>
<g><path style="opacity:0.777" fill="#3f4d66" d="M 121.5,36.5 C 130.563,36.645 133.73,40.9783 131,49.5C 127.861,53.5765 124.028,54.4099 119.5,52C 113.859,46.0356 114.526,40.8689 121.5,36.5 Z M 122.5,40.5 C 118.498,44.0688 118.998,47.0688 124,49.5C 130.168,45.4898 129.668,42.4898 122.5,40.5 Z"/></g>
<g><path style="opacity:0.974" fill="#7dde9b" d="M 66.5,45.5 C 66.5,51.1667 66.5,56.8333 66.5,62.5C 67.791,62.2627 68.791,62.596 69.5,63.5C 66.5065,63.1457 65.5065,64.1457 66.5,66.5C 66.5,70.1667 66.5,73.8333 66.5,77.5C 57.7137,73.7272 52.3804,76.5605 50.5,86C 53.0399,93.0146 55.2066,100.181 57,107.5C 58.5246,110.77 60.8579,111.77 64,110.5C 64.3333,106.833 64.6667,103.167 65,99.5C 65.2784,98.5842 65.7784,97.9175 66.5,97.5C 66.5,105.167 66.5,112.833 66.5,120.5C 61.2335,119.963 56.2335,118.63 51.5,116.5C 51.6263,119.595 53.293,121.428 56.5,122C 60.7305,123.29 65.0638,123.79 69.5,123.5C 68.791,124.404 67.791,124.737 66.5,124.5C 66.5,129.5 66.5,134.5 66.5,139.5C 67.8333,139.5 69.1667,139.5 70.5,139.5C 48.6756,140.661 32.8422,131.327 23,111.5C 15.1206,87.8113 20.9539,68.3113 40.5,53C 48.506,48.1641 57.1727,45.6641 66.5,45.5 Z"/></g>
<g><path style="opacity:1" fill="#71d890" d="M 66.5,45.5 C 71.6133,45.4307 76.6133,46.0974 81.5,47.5C 81.8333,47.5 82.1667,47.5 82.5,47.5C 94.1946,52.5069 103.195,60.5069 109.5,71.5C 111.072,76.2034 112.406,80.8701 113.5,85.5C 115.983,111.037 105.316,128.537 81.5,138C 77.9137,139.108 74.247,139.608 70.5,139.5C 69.1667,139.5 67.8333,139.5 66.5,139.5C 66.5,134.5 66.5,129.5 66.5,124.5C 67.791,124.737 68.791,124.404 69.5,123.5C 86.7431,120.923 96.0764,110.923 97.5,93.5C 97.8903,86.3584 95.557,80.3584 90.5,75.5C 90.1667,76.1667 89.8333,76.8333 89.5,77.5C 97.7591,93.2243 94.7591,106.391 80.5,117C 76.0637,119.109 71.3971,120.276 66.5,120.5C 66.5,112.833 66.5,105.167 66.5,97.5C 68.2219,101.427 69.2219,105.761 69.5,110.5C 70.723,111.614 72.0563,111.781 73.5,111C 75.7375,108.97 77.2375,106.47 78,103.5C 79.5503,97.4031 81.3836,91.4031 83.5,85.5C 82.4265,79.4303 78.7598,76.097 72.5,75.5C 70.484,76.1776 68.484,76.8443 66.5,77.5C 66.5,73.8333 66.5,70.1667 66.5,66.5C 72.6098,66.7761 78.2765,68.4428 83.5,71.5C 84.1667,71.1667 84.8333,70.8333 85.5,70.5C 81.062,66.2386 75.7286,63.9053 69.5,63.5C 68.791,62.596 67.791,62.2627 66.5,62.5C 66.5,56.8333 66.5,51.1667 66.5,45.5 Z"/></g>
<g><path style="opacity:1" fill="#415167" d="M 63.5,56.5 C 65.7602,57.2376 65.9269,58.2376 64,59.5C 62.2716,58.6477 62.105,57.6477 63.5,56.5 Z"/></g>
<g><path style="opacity:1" fill="#435969" d="M 74.5,57.5 C 77.2933,57.74 77.7933,58.74 76,60.5C 74.9614,59.7562 74.4614,58.7562 74.5,57.5 Z"/></g>
<g><path style="opacity:1" fill="#64aef3" d="M -0.5,72.5 C -0.5,70.1667 -0.5,67.8333 -0.5,65.5C 2.41421,59.0512 7.41421,56.8845 14.5,59C 18.8019,60.9351 20.8019,64.2684 20.5,69C 18.374,79.7237 12.374,82.3904 2.5,77C 1.60064,75.3484 0.60064,73.8484 -0.5,72.5 Z"/></g>
<g><path style="opacity:1" fill="#435669" d="M 51.5,59.5 C 53.2252,59.8425 53.7252,60.8425 53,62.5C 51.9614,61.7562 51.4614,60.7562 51.5,59.5 Z"/></g>
<g><path style="opacity:0.761" fill="#69b4f5" d="M 120.5,60.5 C 129.745,59.8991 132.411,63.7324 128.5,72C 122.949,74.3903 119.282,72.7236 117.5,67C 117.84,64.4887 118.84,62.322 120.5,60.5 Z M 122.5,64.5 C 121.176,66.558 121.676,68.2247 124,69.5C 127.549,66.5989 127.049,64.9323 122.5,64.5 Z"/></g>
<g><path style="opacity:1" fill="#3f4d66" d="M 85.5,62.5 C 87.337,62.6395 87.6704,63.3061 86.5,64.5C 85.7025,64.0431 85.3691,63.3764 85.5,62.5 Z"/></g>
<g><path style="opacity:1" fill="#f4fcf7" d="M 69.5,63.5 C 75.7286,63.9053 81.062,66.2386 85.5,70.5C 84.8333,70.8333 84.1667,71.1667 83.5,71.5C 78.2765,68.4428 72.6098,66.7761 66.5,66.5C 65.5065,64.1457 66.5065,63.1457 69.5,63.5 Z"/></g>
<g><path style="opacity:1" fill="#ebf5fd" d="M 4.5,64.5 C 7.56879,64.963 8.06879,66.2963 6,68.5C 4.81181,67.4366 4.31181,66.1033 4.5,64.5 Z"/></g>
<g><path style="opacity:1" fill="#547c77" d="M 41.5,65.5 C 42.5,65.5 43.5,65.5 44.5,65.5C 44.5,66.5 44.5,67.5 44.5,68.5C 43.5,68.5 42.5,68.5 41.5,68.5C 41.5,67.5 41.5,66.5 41.5,65.5 Z"/></g>
<g><path style="opacity:1" fill="#eff7fd" d="M 15.5,67.5 C 17.0743,70.4304 16.4076,72.9304 13.5,75C 12.0563,75.7805 10.723,75.6139 9.5,74.5C 12.5877,73.0803 14.5877,70.747 15.5,67.5 Z"/></g>
<g><path style="opacity:1" fill="#3f4d66" d="M 94.5,70.5 C 96.337,70.6395 96.6704,71.3061 95.5,72.5C 94.7025,72.0431 94.3691,71.3764 94.5,70.5 Z"/></g>
<g><path style="opacity:1" fill="#dee0de" d="M 66.5,77.5 C 68.484,76.8443 70.484,76.1776 72.5,75.5C 78.7598,76.097 82.4265,79.4303 83.5,85.5C 81.3836,91.4031 79.5503,97.4031 78,103.5C 77.2375,106.47 75.7375,108.97 73.5,111C 72.0563,111.781 70.723,111.614 69.5,110.5C 69.2219,105.761 68.2219,101.427 66.5,97.5C 65.7784,97.9175 65.2784,98.5842 65,99.5C 64.6667,103.167 64.3333,106.833 64,110.5C 60.8579,111.77 58.5246,110.77 57,107.5C 55.2066,100.181 53.0399,93.0146 50.5,86C 52.3804,76.5605 57.7137,73.7272 66.5,77.5 Z"/></g>
<g><path style="opacity:1" fill="#f4fcf7" d="M 69.5,123.5 C 65.0638,123.79 60.7305,123.29 56.5,122C 53.293,121.428 51.6263,119.595 51.5,116.5C 56.2335,118.63 61.2335,119.963 66.5,120.5C 71.3971,120.276 76.0637,119.109 80.5,117C 94.7591,106.391 97.7591,93.2243 89.5,77.5C 89.8333,76.8333 90.1667,76.1667 90.5,75.5C 95.557,80.3584 97.8903,86.3584 97.5,93.5C 96.0764,110.923 86.7431,120.923 69.5,123.5 Z"/></g>
<g><path style="opacity:1" fill="#4a666f" d="M 34.5,75.5 C 37.6741,75.9522 38.0075,76.9522 35.5,78.5C 34.6143,77.675 34.281,76.675 34.5,75.5 Z"/></g>
<g><path style="opacity:1" fill="#445a6a" d="M 100.5,80.5 C 102.973,80.9473 103.14,81.9473 101,83.5C 99.2716,82.6477 99.105,81.6477 100.5,80.5 Z"/></g>
<g><path style="opacity:0.761" fill="#3f4d66" d="M 120.5,80.5 C 129.745,79.8991 132.411,83.7324 128.5,92C 122.949,94.3903 119.282,92.7236 117.5,87C 117.84,84.4887 118.84,82.322 120.5,80.5 Z M 122.5,84.5 C 127.049,84.9323 127.549,86.5989 124,89.5C 121.676,88.2247 121.176,86.558 122.5,84.5 Z"/></g>
<g><path style="opacity:0.747" fill="#3f4d66" d="M 6.5,84.5 C 14.8448,84.6908 17.1781,88.5241 13.5,96C 5.24629,99.0813 1.74629,96.2479 3,87.5C 4.14508,86.3636 5.31174,85.3636 6.5,84.5 Z M 7.5,88.5 C 12.0165,89.6253 12.3498,91.292 8.5,93.5C 6.29572,92.218 5.96238,90.5514 7.5,88.5 Z"/></g>
<g><path style="opacity:1" fill="#465d6c" d="M 30.5,86.5 C 33.2933,86.74 33.7933,87.74 32,89.5C 30.9614,88.7562 30.4614,87.7562 30.5,86.5 Z"/></g>
<g><path style="opacity:1" fill="#f4fcf7" d="M 37.5,92.5 C 38.5,92.5 39.5,92.5 40.5,92.5C 40.4571,95.9099 40.9571,99.2432 42,102.5C 44.1101,106.422 45.9434,110.422 47.5,114.5C 43.164,112.649 40.3307,109.315 39,104.5C 37.7338,100.605 37.2338,96.6049 37.5,92.5 Z"/></g>
<g><path style="opacity:1" fill="#49686e" d="M 102.5,91.5 C 104.852,92.5426 105.019,93.8759 103,95.5C 101.232,94.3181 101.065,92.9848 102.5,91.5 Z"/></g>
<g><path style="opacity:1" fill="#4c6c71" d="M 31.5,97.5 C 33.8519,98.5426 34.0185,99.8759 32,101.5C 30.2317,100.318 30.0651,98.9848 31.5,97.5 Z"/></g>
<g><path style="opacity:0.799" fill="#69b4f5" d="M 5.5,100.5 C 11.0284,99.0693 14.3617,101.069 15.5,106.5C 14.3493,112.091 11.016,113.925 5.5,112C 1.56732,108.124 1.56732,104.29 5.5,100.5 Z M 7.5,104.5 C 10.1662,104.066 11.3329,105.066 11,107.5C 7.40344,109.066 6.23678,108.066 7.5,104.5 Z"/></g>
<g><path style="opacity:1" fill="#455e6b" d="M 100.5,103.5 C 102.332,104.14 102.665,105.14 101.5,106.5C 99.4807,105.867 99.1474,104.867 100.5,103.5 Z"/></g>
<g><path style="opacity:1" fill="#4a656f" d="M 34.5,109.5 C 37.5476,109.494 38.0476,110.494 36,112.5C 34.9614,111.756 34.4614,110.756 34.5,109.5 Z"/></g>
<g><path style="opacity:1" fill="#3f4d66" d="M 94.5,114.5 C 96.337,114.639 96.6704,115.306 95.5,116.5C 94.7025,116.043 94.3691,115.376 94.5,114.5 Z"/></g>
<g><path style="opacity:0.93" fill="#6bb4f5" d="M 12.5,117.5 C 12.5,123.833 12.5,130.167 12.5,136.5C 11.375,137.652 11.375,138.652 12.5,139.5C 12.5,140.833 12.5,142.167 12.5,143.5C 13.8333,143.5 15.1667,143.5 16.5,143.5C 9.25137,145.385 3.5847,143.052 -0.5,136.5C -0.5,132.833 -0.5,129.167 -0.5,125.5C 2.28556,120.392 6.6189,117.725 12.5,117.5 Z"/></g>
<g><path style="opacity:0.916" fill="#6ab4f5" d="M 129.5,118.5 C 128.5,118.5 127.5,118.5 126.5,118.5C 126.177,124.69 126.51,130.69 127.5,136.5C 125.862,137.705 125.529,139.038 126.5,140.5C 126.157,142.483 126.824,143.817 128.5,144.5C 128.5,144.833 128.5,145.167 128.5,145.5C 127.5,145.5 126.5,145.5 125.5,145.5C 116.244,143.061 112.411,137.061 114,127.5C 116.858,120.163 122.025,117.163 129.5,118.5 Z"/></g>
<g><path style="opacity:1" fill="#60aaf3" d="M 12.5,117.5 C 21.2307,117.73 25.8974,122.23 26.5,131C 25.8539,137.465 22.5205,141.632 16.5,143.5C 15.1667,143.5 13.8333,143.5 12.5,143.5C 12.5,142.167 12.5,140.833 12.5,139.5C 17.1459,139.024 20.1459,136.524 21.5,132C 21.3699,130.941 20.8699,130.108 20,129.5C 18.9429,133.391 16.4429,135.724 12.5,136.5C 12.5,130.167 12.5,123.833 12.5,117.5 Z"/></g>
<g><path style="opacity:1" fill="#517675" d="M 41.5,118.5 C 42.5,118.5 43.5,118.5 44.5,118.5C 44.5,119.5 44.5,120.5 44.5,121.5C 43.5,121.5 42.5,121.5 41.5,121.5C 41.5,120.5 41.5,119.5 41.5,118.5 Z"/></g>
<g><path style="opacity:1" fill="#60aaf3" d="M 129.5,118.5 C 134.979,119.392 138.645,122.392 140.5,127.5C 140.5,130.167 140.5,132.833 140.5,135.5C 138.235,140.759 134.235,143.759 128.5,144.5C 126.824,143.817 126.157,142.483 126.5,140.5C 132.657,139.699 135.324,136.366 134.5,130.5C 133.08,132.22 131.747,134.054 130.5,136C 129.552,136.483 128.552,136.649 127.5,136.5C 126.51,130.69 126.177,124.69 126.5,118.5C 127.5,118.5 128.5,118.5 129.5,118.5 Z"/></g>
<g><path style="opacity:1" fill="#405067" d="M 85.5,122.5 C 87.337,122.639 87.6704,123.306 86.5,124.5C 85.7025,124.043 85.3691,123.376 85.5,122.5 Z"/></g>
<g><path style="opacity:1" fill="#f7fbfe" d="M 5.5,125.5 C 8.5,125.167 9.83333,126.5 9.5,129.5C 5.55995,130.234 4.22662,128.901 5.5,125.5 Z"/></g>
<g><path style="opacity:1" fill="#4a666f" d="M 52.5,124.5 C 54.6246,125.368 54.7913,126.368 53,127.5C 51.3167,126.824 51.1501,125.824 52.5,124.5 Z"/></g>
<g><path style="opacity:1" fill="#f5fafe" d="M 120.5,125.5 C 123.389,125.999 124.056,127.499 122.5,130C 121.552,130.483 120.552,130.649 119.5,130.5C 119.366,128.708 119.699,127.042 120.5,125.5 Z"/></g>
<g><path style="opacity:1" fill="#465f6b" d="M 75.5,126.5 C 78.1247,127.466 78.1247,128.466 75.5,129.5C 74.4376,128.575 74.4376,127.575 75.5,126.5 Z"/></g>
<g><path style="opacity:1" fill="#48616d" d="M 63.5,127.5 C 65.332,128.14 65.6653,129.14 64.5,130.5C 62.4807,129.867 62.1474,128.867 63.5,127.5 Z"/></g>
<g><path style="opacity:0.757" fill="#3f4d66" d="M 100.5,129.5 C 109.523,129.062 112.189,132.895 108.5,141C 102.35,143.925 98.6834,142.092 97.5,135.5C 97.6284,133.045 98.6284,131.045 100.5,129.5 Z M 102.5,133.5 C 106.595,134.326 107.095,135.993 104,138.5C 101.491,137.347 100.991,135.68 102.5,133.5 Z"/></g>
<g><path style="opacity:1" fill="#f4fafe" d="M 12.5,139.5 C 11.375,138.652 11.375,137.652 12.5,136.5C 16.4429,135.724 18.9429,133.391 20,129.5C 20.8699,130.108 21.3699,130.941 21.5,132C 20.1459,136.524 17.1459,139.024 12.5,139.5 Z"/></g>
<g><path style="opacity:1" fill="#f1f8fe" d="M 126.5,140.5 C 125.529,139.038 125.862,137.705 127.5,136.5C 128.552,136.649 129.552,136.483 130.5,136C 131.747,134.054 133.08,132.22 134.5,130.5C 135.324,136.366 132.657,139.699 126.5,140.5 Z"/></g>
</svg>
