<?xml version="1.0" encoding="UTF-8"?>
<!DOCTYPE svg PUBLIC "-//W3C//DTD SVG 1.1//EN" "http://www.w3.org/Graphics/SVG/1.1/DTD/svg11.dtd">
<svg xmlns="http://www.w3.org/2000/svg" version="1.1" width="153px" height="152px" style="shape-rendering:geometricPrecision; text-rendering:geometricPrecision; image-rendering:optimizeQuality; fill-rule:evenodd; clip-rule:evenodd" xmlns:xlink="http://www.w3.org/1999/xlink">
<g><path style="opacity:0.866" fill="#3f4d66" d="M 116.5,-0.5 C 128.167,-0.5 139.833,-0.5 151.5,-0.5C 151.328,0.491622 151.662,1.15829 152.5,1.5C 152.5,2.5 152.5,3.5 152.5,4.5C 151.711,4.78281 151.044,5.28281 150.5,6C 140.167,6.33333 129.833,6.66667 119.5,7C 113.271,12.233 106.771,17.0663 100,21.5C 97.0191,20.5572 96.0191,18.5572 97,15.5C 103.689,10.3024 110.189,4.96911 116.5,-0.5 Z"/></g>
<g><path style="opacity:0.921" fill="#69b1f1" d="M 134.5,27.5 C 131.5,28.8333 128.5,28.8333 125.5,27.5C 123.078,26.9148 121.411,25.4148 120.5,23C 118.833,22.3333 117.167,22.3333 115.5,23C 110.801,26.0203 106.467,29.5203 102.5,33.5C 109.65,40.992 110.316,48.992 104.5,57.5C 93.9204,48.4242 83.7537,38.7576 74,28.5C 73.5172,27.552 73.3505,26.552 73.5,25.5C 81.6823,19.7046 89.349,20.3713 96.5,27.5C 101.312,23.8556 105.979,20.0223 110.5,16C 113.711,14.8468 117.044,14.1802 120.5,14C 123.766,8.83338 128.433,7.16672 134.5,9C 136.833,10 138.5,11.6667 139.5,14C 140.793,14.49 142.127,14.6567 143.5,14.5C 143.5,17.1667 143.5,19.8333 143.5,22.5C 142.127,22.3433 140.793,22.51 139.5,23C 138.589,25.4148 136.922,26.9148 134.5,27.5 Z"/></g>
<g><path style="opacity:0.791" fill="#3f4d66" d="M 28.5,15.5 C 24.8333,15.5 21.1667,15.5 17.5,15.5C 21.1667,8.83333 24.8333,8.83333 28.5,15.5 Z"/></g>
<g><path style="opacity:1" fill="#edf6fd" d="M 129.5,14.5 C 134.668,15.3385 135.668,17.8385 132.5,22C 130.559,22.7429 128.726,22.5762 127,21.5C 126.251,20.365 126.417,19.365 127.5,18.5C 128.891,19.6446 130.224,19.6446 131.5,18.5C 130.37,17.3777 129.703,16.0443 129.5,14.5 Z"/></g>
<g><path style="opacity:0.778" fill="#42ccdb" d="M 17.5,15.5 C 21.1667,15.5 24.8333,15.5 28.5,15.5C 33.7616,15.1953 38.9283,15.5286 44,16.5C 44.6667,24.5 44.6667,32.5 44,40.5C 43.5,41 43,41.5 42.5,42C 29.5,42.6667 16.5,42.6667 3.5,42C 3,41.5 2.5,41 2,40.5C 1.33333,32.8333 1.33333,25.1667 2,17.5C 2.5,17 3,16.5 3.5,16C 8.1548,15.5008 12.8215,15.3342 17.5,15.5 Z"/></g>
<g><path style="opacity:1" fill="#75da96" d="M 5.5,18.5 C 17.1667,18.5 28.8333,18.5 40.5,18.5C 40.5,25.1667 40.5,31.8333 40.5,38.5C 28.8333,38.5 17.1667,38.5 5.5,38.5C 5.5,31.8333 5.5,25.1667 5.5,18.5 Z"/></g>
<g><path style="opacity:1" fill="#f5fcf8" d="M 25.5,21.5 C 26.675,21.281 27.675,21.6143 28.5,22.5C 29.6254,26.8093 32.1254,29.8093 36,31.5C 36.6172,32.4491 36.4506,33.2825 35.5,34C 27.1733,34.4997 18.84,34.6664 10.5,34.5C 12.4649,30.6032 14.9649,26.9366 18,23.5C 19.353,24.6853 20.5197,26.0186 21.5,27.5C 23.013,25.6454 24.3463,23.6454 25.5,21.5 Z"/></g>
<g><path style="opacity:0.916" fill="#3f4d66" d="M 73.5,25.5 C 73.3505,26.552 73.5172,27.552 74,28.5C 83.7537,38.7576 93.9204,48.4242 104.5,57.5C 105.812,58.1451 106.812,59.1451 107.5,60.5C 106.185,62.3159 104.685,63.9825 103,65.5C 90.1246,52.9589 77.6246,40.1256 65.5,27C 67.6783,23.2074 70.3449,22.7074 73.5,25.5 Z"/></g>
<g><path style="opacity:1" fill="#84de9e" d="M 25.5,26.5 C 27.1207,26.7869 28.1207,27.7869 28.5,29.5C 27.277,30.6139 25.9437,30.7805 24.5,30C 25.3366,28.9887 25.67,27.8221 25.5,26.5 Z"/></g>
<g><path style="opacity:1" fill="#3f4e68" d="M 125.5,27.5 C 128.5,28.8333 131.5,28.8333 134.5,27.5C 134.5,29.1667 134.5,30.8333 134.5,32.5C 126.5,33.5 126.5,34.5 134.5,35.5C 134.5,37.5 134.5,39.5 134.5,41.5C 132.833,41.5 131.167,41.5 129.5,41.5C 129.384,44.9103 131.05,46.2436 134.5,45.5C 134.5,47.5 134.5,49.5 134.5,51.5C 126.5,52.5 126.5,53.5 134.5,54.5C 134.5,56.5 134.5,58.5 134.5,60.5C 132.833,60.5 131.167,60.5 129.5,60.5C 129.384,63.9103 131.05,65.2436 134.5,64.5C 134.5,66.5 134.5,68.5 134.5,70.5C 126.5,71.5 126.5,72.5 134.5,73.5C 134.5,75.5 134.5,77.5 134.5,79.5C 132.833,79.5 131.167,79.5 129.5,79.5C 129.384,82.9103 131.05,84.2436 134.5,83.5C 134.5,85.5 134.5,87.5 134.5,89.5C 132.833,89.5 131.167,89.5 129.5,89.5C 129.5,90.5 129.5,91.5 129.5,92.5C 131.167,92.5 132.833,92.5 134.5,92.5C 134.5,94.5 134.5,96.5 134.5,98.5C 126.5,99.5 126.5,100.5 134.5,101.5C 134.5,104.5 134.5,107.5 134.5,110.5C 130.808,108.467 127.808,105.8 125.5,102.5C 125.5,77.5 125.5,52.5 125.5,27.5 Z"/></g>
<g><path style="opacity:0.9" fill="#66aeec" d="M 134.5,32.5 C 135.833,33.5 135.833,34.5 134.5,35.5C 126.5,34.5 126.5,33.5 134.5,32.5 Z"/></g>
<g><path style="opacity:0.717" fill="#69b4f5" d="M 71.5,39.5 C 75.6099,41.7458 75.2765,43.0792 70.5,43.5C 70.4326,42.0413 70.7659,40.7079 71.5,39.5 Z"/></g>
<g><path style="opacity:0.875" fill="#63a5e0" d="M 134.5,41.5 C 135.686,42.7054 135.686,44.0387 134.5,45.5C 131.05,46.2436 129.384,44.9103 129.5,41.5C 131.167,41.5 132.833,41.5 134.5,41.5 Z"/></g>
<g><path style="opacity:0.961" fill="#69b4f4" d="M 7.5,45.5 C 13.1205,43.7674 18.4538,44.6008 23.5,48C 29.217,55.9389 34.5503,64.1056 39.5,72.5C 35.7747,72.7796 34.608,74.7796 36,78.5C 38.3806,79.435 40.8806,79.7683 43.5,79.5C 45.943,83.7832 48.6097,87.9498 51.5,92C 70.5,92.3333 89.5,92.6667 108.5,93C 111.244,93.8035 113.911,94.8035 116.5,96C 119.206,98.6756 122.206,100.842 125.5,102.5C 127.808,105.8 130.808,108.467 134.5,110.5C 137.726,112.702 140.893,115.035 144,117.5C 146.125,121.394 145.958,125.061 143.5,128.5C 132.057,120.6 120.724,112.433 109.5,104C 89.8408,104.374 70.1741,104.374 50.5,104C 45.1017,103.611 40.935,101.111 38,96.5C 29.3333,81.1667 20.6667,65.8333 12,50.5C 10.9331,48.3083 9.43309,46.6417 7.5,45.5 Z"/></g>
<g><path style="opacity:0.997" fill="#74bef6" d="M 7.5,45.5 C 9.43309,46.6417 10.9331,48.3083 12,50.5C 20.6667,65.8333 29.3333,81.1667 38,96.5C 40.935,101.111 45.1017,103.611 50.5,104C 70.1741,104.374 89.8408,104.374 109.5,104C 120.724,112.433 132.057,120.6 143.5,128.5C 141.074,130.218 138.407,130.718 135.5,130C 132.536,127.19 129.202,125.024 125.5,123.5C 120.064,119.24 114.731,114.74 109.5,110C 108.207,109.51 106.873,109.343 105.5,109.5C 86.8333,109.5 68.1667,109.5 49.5,109.5C 43.0697,110.396 37.2364,109.063 32,105.5C 21.6444,86.7738 10.811,68.4405 -0.5,50.5C -0.5,49.8333 -0.5,49.1667 -0.5,48.5C 1.95354,46.9402 4.62021,45.9402 7.5,45.5 Z"/></g>
<g><path style="opacity:0.738" fill="#69b4f5" d="M 64.5,46.5 C 65.5,46.5 66.5,46.5 67.5,46.5C 67.5,47.5 67.5,48.5 67.5,49.5C 66.5,49.5 65.5,49.5 64.5,49.5C 64.5,48.5 64.5,47.5 64.5,46.5 Z"/></g>
<g><path style="opacity:0.683" fill="#69b4f5" d="M 76.5,47.5 C 77.8333,47.5 79.1667,47.5 80.5,47.5C 80.5,48.5 80.5,49.5 80.5,50.5C 78.0274,50.9118 76.6941,49.9118 76.5,47.5 Z"/></g>
<g><path style="opacity:0.9" fill="#66aeec" d="M 134.5,51.5 C 135.833,52.5 135.833,53.5 134.5,54.5C 126.5,53.5 126.5,52.5 134.5,51.5 Z"/></g>
<g><path style="opacity:0.729" fill="#69b4f5" d="M 58.5,52.5 C 59.5,52.5 60.5,52.5 61.5,52.5C 61.3352,56.8638 60.0019,57.3638 57.5,54C 58.056,53.6174 58.3893,53.1174 58.5,52.5 Z"/></g>
<g><path style="opacity:0.737" fill="#69b4f5" d="M 71.5,53.5 C 72.5,53.5 73.5,53.5 74.5,53.5C 74.5,54.5 74.5,55.5 74.5,56.5C 73.5,56.5 72.5,56.5 71.5,56.5C 71.5,55.5 71.5,54.5 71.5,53.5 Z"/></g>
<g><path style="opacity:0.462" fill="#69b4f5" d="M 83.5,53.5 C 84.8333,53.5 86.1667,53.5 87.5,53.5C 87.5,54.8333 87.5,56.1667 87.5,57.5C 86.1667,57.5 84.8333,57.5 83.5,57.5C 83.5,56.1667 83.5,54.8333 83.5,53.5 Z"/></g>
<g><path style="opacity:0.652" fill="#69b4f5" d="M 64.5,59.5 C 65.8333,59.5 67.1667,59.5 68.5,59.5C 68.5,60.5 68.5,61.5 68.5,62.5C 67.1667,62.5 65.8333,62.5 64.5,62.5C 64.5,61.5 64.5,60.5 64.5,59.5 Z"/></g>
<g><path style="opacity:0.415" fill="#69b4f5" d="M 77.5,59.5 C 78.8333,59.5 80.1667,59.5 81.5,59.5C 81.5,60.8333 81.5,62.1667 81.5,63.5C 80.1667,63.5 78.8333,63.5 77.5,63.5C 77.5,62.1667 77.5,60.8333 77.5,59.5 Z"/></g>
<g><path style="opacity:0.855" fill="#63a4e0" d="M 134.5,60.5 C 135.686,61.7054 135.686,63.0387 134.5,64.5C 131.05,65.2436 129.384,63.9103 129.5,60.5C 131.167,60.5 132.833,60.5 134.5,60.5 Z"/></g>
<g><path style="opacity:0.586" fill="#69b4f5" d="M 71.5,65.5 C 73.3464,65.2222 74.6798,65.8888 75.5,67.5C 74.6798,69.1112 73.3464,69.7778 71.5,69.5C 71.5,68.1667 71.5,66.8333 71.5,65.5 Z"/></g>
<g><path style="opacity:0.884" fill="#66adec" d="M 134.5,70.5 C 135.833,71.5 135.833,72.5 134.5,73.5C 126.5,72.5 126.5,71.5 134.5,70.5 Z"/></g>
<g><path style="opacity:0.911" fill="#3f4d66" d="M 39.5,72.5 C 54.1705,72.3334 68.8371,72.5001 83.5,73C 87.0916,75.7135 90.5916,78.5468 94,81.5C 95.5,86.6667 93.6667,88.5 88.5,87C 86.1294,84.294 83.4628,81.9606 80.5,80C 68.1712,79.5001 55.8378,79.3335 43.5,79.5C 40.8806,79.7683 38.3806,79.435 36,78.5C 34.608,74.7796 35.7747,72.7796 39.5,72.5 Z"/></g>
<g><path style="opacity:0.855" fill="#63a5e0" d="M 134.5,79.5 C 135.686,80.7054 135.686,82.0387 134.5,83.5C 131.05,84.2436 129.384,82.9103 129.5,79.5C 131.167,79.5 132.833,79.5 134.5,79.5 Z"/></g>
<g><path style="opacity:0.855" fill="#66acea" d="M 134.5,89.5 C 135.833,90.5 135.833,91.5 134.5,92.5C 132.833,92.5 131.167,92.5 129.5,92.5C 129.5,91.5 129.5,90.5 129.5,89.5C 131.167,89.5 132.833,89.5 134.5,89.5 Z"/></g>
<g><path style="opacity:0.884" fill="#66adec" d="M 134.5,98.5 C 135.833,99.5 135.833,100.5 134.5,101.5C 126.5,100.5 126.5,99.5 134.5,98.5 Z"/></g>
<g><path style="opacity:0.929" fill="#6ab6f5" d="M 24.5,123.5 C 18.8333,123.5 13.1667,123.5 7.5,123.5C 7.5,117.5 7.5,111.5 7.5,105.5C 13.1667,105.5 18.8333,105.5 24.5,105.5C 24.5,111.5 24.5,117.5 24.5,123.5 Z"/></g>
<g><path style="opacity:1" fill="#5fa8f1" d="M 49.5,109.5 C 68.1667,109.5 86.8333,109.5 105.5,109.5C 105.5,114.167 105.5,118.833 105.5,123.5C 104.527,125.948 104.194,128.615 104.5,131.5C 86.5,131.5 68.5,131.5 50.5,131.5C 50.8064,128.615 50.4731,125.948 49.5,123.5C 49.5,118.833 49.5,114.167 49.5,109.5 Z"/></g>
<g><path style="opacity:0.925" fill="#f8e381" d="M 7.5,123.5 C 13.1667,123.5 18.8333,123.5 24.5,123.5C 32.8333,123.5 41.1667,123.5 49.5,123.5C 49.5,126.167 49.5,128.833 49.5,131.5C 38.1618,131.333 26.8284,131.5 15.5,132C 11.4672,135.857 10.4672,140.357 12.5,145.5C 12.8588,147.371 13.8588,148.871 15.5,150C 51.8333,150.667 88.1667,150.667 124.5,150C 126.141,148.871 127.141,147.371 127.5,145.5C 128.783,138.392 125.783,133.725 118.5,131.5C 114.366,130.515 110.032,130.182 105.5,130.5C 105.5,128.167 105.5,125.833 105.5,123.5C 112.167,123.5 118.833,123.5 125.5,123.5C 129.202,125.024 132.536,127.19 135.5,130C 138.407,130.718 141.074,130.218 143.5,128.5C 143.5,136.167 143.5,143.833 143.5,151.5C 96.5,151.5 49.5,151.5 2.5,151.5C 2.5,142.167 2.5,132.833 2.5,123.5C 4.16667,123.5 5.83333,123.5 7.5,123.5 Z"/></g>
<g><path style="opacity:1" fill="#ddecfc" d="M 54.5,124.5 C 55.9953,124.415 56.9953,125.081 57.5,126.5C 56.1667,127.833 54.8333,127.833 53.5,126.5C 53.8627,125.817 54.1961,125.15 54.5,124.5 Z"/></g>
<g><path style="opacity:1" fill="#f6fafe" d="M 65.5,125.5 C 67.337,125.639 67.6704,126.306 66.5,127.5C 65.7025,127.043 65.3691,126.376 65.5,125.5 Z"/></g>
<g><path style="opacity:1" fill="#f6fafe" d="M 76.5,125.5 C 78.337,125.639 78.6704,126.306 77.5,127.5C 76.7025,127.043 76.3691,126.376 76.5,125.5 Z"/></g>
<g><path style="opacity:1" fill="#fbfdfe" d="M 97.5,125.5 C 98.675,125.281 99.675,125.614 100.5,126.5C 98.9483,127.798 97.9483,127.465 97.5,125.5 Z"/></g>
<g><path style="opacity:1" fill="#c9d2a5" d="M 105.5,123.5 C 105.5,125.833 105.5,128.167 105.5,130.5C 110.032,130.182 114.366,130.515 118.5,131.5C 113.833,131.5 109.167,131.5 104.5,131.5C 104.194,128.615 104.527,125.948 105.5,123.5 Z"/></g>
<g><path style="opacity:1" fill="#6ab3f3" d="M 49.5,123.5 C 50.4731,125.948 50.8064,128.615 50.5,131.5C 68.5,131.5 86.5,131.5 104.5,131.5C 109.167,131.5 113.833,131.5 118.5,131.5C 125.783,133.725 128.783,138.392 127.5,145.5C 127.5,144.167 127.5,142.833 127.5,141.5C 89.1667,141.5 50.8333,141.5 12.5,141.5C 12.5,142.833 12.5,144.167 12.5,145.5C 10.4672,140.357 11.4672,135.857 15.5,132C 26.8284,131.5 38.1618,131.333 49.5,131.5C 49.5,128.833 49.5,126.167 49.5,123.5 Z"/></g>
<g><path style="opacity:1" fill="#5da5ed" d="M 127.5,145.5 C 127.141,147.371 126.141,148.871 124.5,150C 88.1667,150.667 51.8333,150.667 15.5,150C 13.8588,148.871 12.8588,147.371 12.5,145.5C 12.5,144.167 12.5,142.833 12.5,141.5C 50.8333,141.5 89.1667,141.5 127.5,141.5C 127.5,142.833 127.5,144.167 127.5,145.5 Z"/></g>
</svg>
