<?xml version="1.0" encoding="UTF-8"?>
<!DOCTYPE svg PUBLIC "-//W3C//DTD SVG 1.1//EN" "http://www.w3.org/Graphics/SVG/1.1/DTD/svg11.dtd">
<svg xmlns="http://www.w3.org/2000/svg" version="1.1" width="143px" height="133px" style="shape-rendering:geometricPrecision; text-rendering:geometricPrecision; image-rendering:optimizeQuality; fill-rule:evenodd; clip-rule:evenodd" xmlns:xlink="http://www.w3.org/1999/xlink">
<g><path style="opacity:0.851" fill="#67b1f4" d="M 37.5,-0.5 C 39.5,-0.5 41.5,-0.5 43.5,-0.5C 49.2794,3.56379 49.9461,8.39713 45.5,14C 38.6511,17.0005 34.3177,14.8338 32.5,7.5C 33.1789,4.12704 34.8455,1.46037 37.5,-0.5 Z"/></g>
<g><path style="opacity:0.849" fill="#6ab4f5" d="M 68.5,-0.5 C 70.1667,-0.5 71.8333,-0.5 73.5,-0.5C 73.5,-0.166667 73.5,0.166667 73.5,0.5C 72.5,0.5 71.5,0.5 70.5,0.5C 70.5,3.83333 70.5,7.16667 70.5,10.5C 70.5,11.8333 71.1667,12.5 72.5,12.5C 72.0825,13.2216 71.4158,13.7216 70.5,14C 71.056,14.3826 71.3893,14.8826 71.5,15.5C 64.8918,14.7146 62.3918,11.048 64,4.5C 65.025,2.31305 66.525,0.646381 68.5,-0.5 Z"/></g>
<g><path style="opacity:0.841" fill="#68b2f4" d="M 99.5,-0.5 C 100.833,-0.5 102.167,-0.5 103.5,-0.5C 110.61,3.67736 111.277,8.84403 105.5,15C 95.4879,16.3205 91.9879,12.1538 95,2.5C 96.6516,1.60064 98.1516,0.60064 99.5,-0.5 Z"/></g>
<g><path style="opacity:1" fill="#62acf3" d="M 73.5,0.5 C 79.1474,2.81259 80.6474,6.81259 78,12.5C 76.2658,14.4506 74.0991,15.4506 71.5,15.5C 71.3893,14.8826 71.056,14.3826 70.5,14C 71.4158,13.7216 72.0825,13.2216 72.5,12.5C 75.3805,11.6776 76.3805,10.0109 75.5,7.5C 74.5791,9.75605 72.9124,10.756 70.5,10.5C 70.5,7.16667 70.5,3.83333 70.5,0.5C 71.5,0.5 72.5,0.5 73.5,0.5 Z"/></g>
<g><path style="opacity:1" fill="#eff7fd" d="M 36.5,4.5 C 38.337,4.63945 38.6704,5.30612 37.5,6.5C 36.7025,6.04311 36.3691,5.37644 36.5,4.5 Z"/></g>
<g><path style="opacity:1" fill="#e8f4fd" d="M 67.5,4.5 C 69.7602,5.23764 69.9269,6.23764 68,7.5C 66.2716,6.64767 66.105,5.64767 67.5,4.5 Z"/></g>
<g><path style="opacity:1" fill="#edf6fd" d="M 97.5,4.5 C 99.337,4.63945 99.6704,5.30612 98.5,6.5C 97.7025,6.04311 97.3691,5.37644 97.5,4.5 Z"/></g>
<g><path style="opacity:1" fill="#e8f3fd" d="M 44.5,6.5 C 46.1113,9.33163 45.278,11.3316 42,12.5C 41.5,12.1667 41,11.8333 40.5,11.5C 42.5522,10.3892 43.8855,8.72254 44.5,6.5 Z"/></g>
<g><path style="opacity:1" fill="#e9f4fd" d="M 104.5,7.5 C 106.981,8.69619 106.981,10.1962 104.5,12C 103.167,12.6667 101.833,12.6667 100.5,12C 102.635,11.1237 103.969,9.62373 104.5,7.5 Z"/></g>
<g><path style="opacity:1" fill="#edf6fd" d="M 72.5,12.5 C 71.1667,12.5 70.5,11.8333 70.5,10.5C 72.9124,10.756 74.5791,9.75605 75.5,7.5C 76.3805,10.0109 75.3805,11.6776 72.5,12.5 Z"/></g>
<g><path style="opacity:0.972" fill="#69b4f4" d="M 70.5,20.5 C 70.5,27.5 70.5,34.5 70.5,41.5C 66.9202,32.798 60.5868,29.9647 51.5,33C 48.1309,35.3649 45.9643,38.5315 45,42.5C 42.1884,35.0162 37.0217,32.8495 29.5,36C 28.5399,37.4194 27.7065,38.9194 27,40.5C 22.9698,34.2402 17.6365,32.9069 11,36.5C 9.99136,38.0249 9.49136,39.6916 9.5,41.5C 7.26544,40.7721 5.43211,39.4388 4,37.5C 2.18027,33.5039 0.680267,29.5039 -0.5,25.5C -0.5,23.5 -0.5,21.5 -0.5,19.5C 2.68115,14.9813 7.18115,13.3146 13,14.5C 16.1667,14.6667 19.3333,14.8333 22.5,15C 27.1332,17.7422 32.1332,19.4089 37.5,20C 48.495,20.4998 59.495,20.6665 70.5,20.5 Z"/></g>
<g><path style="opacity:1" fill="#6a9cd1" d="M 142.5,18.5 C 142.5,21.5 142.5,24.5 142.5,27.5C 141.698,34.4455 138.031,39.1122 131.5,41.5C 130.715,34.8918 127.048,32.3918 120.5,34C 117.417,34.786 115.251,36.6193 114,39.5C 111.917,34.0965 108.084,32.2632 102.5,34C 99.6667,35.5 97.5,37.6667 96,40.5C 93.128,32.9534 87.9613,30.2867 80.5,32.5C 75.483,34.0182 72.3164,37.3516 71,42.5C 70.6012,42.2716 70.4346,41.9382 70.5,41.5C 70.5,34.5 70.5,27.5 70.5,20.5C 82.1714,20.6665 93.8381,20.4999 105.5,20C 110.553,19.3164 115.22,17.6497 119.5,15C 125.833,14.3333 132.167,14.3333 138.5,15C 140.35,15.6897 141.684,16.8564 142.5,18.5 Z"/></g>
<g><path style="opacity:0.997" fill="#dedede" d="M 80.5,32.5 C 87.9613,30.2867 93.128,32.9534 96,40.5C 97.5,37.6667 99.6667,35.5 102.5,34C 108.084,32.2632 111.917,34.0965 114,39.5C 115.251,36.6193 117.417,34.786 120.5,34C 127.048,32.3918 130.715,34.8918 131.5,41.5C 130.8,47.0021 129.467,52.3354 127.5,57.5C 123.608,60.3255 119.275,61.1588 114.5,60C 113.333,59.5 112.5,58.6667 112,57.5C 110.833,58.6667 109.667,59.8333 108.5,61C 104.833,61.6667 101.167,61.6667 97.5,61C 95.976,59.2988 94.976,59.7988 94.5,62.5C 90.8927,63.4892 87.226,63.8226 83.5,63.5C 83.5,53.1667 83.5,42.8333 83.5,32.5C 82.5,32.5 81.5,32.5 80.5,32.5 Z"/></g>
<g><path style="opacity:0.966" fill="#e1e1e1" d="M 70.5,41.5 C 70.4346,41.9382 70.6012,42.2716 71,42.5C 72.3164,37.3516 75.483,34.0182 80.5,32.5C 81.5,32.5 82.5,32.5 83.5,32.5C 83.5,42.8333 83.5,53.1667 83.5,63.5C 71.6412,63.2757 59.6412,63.109 47.5,63C 46.9371,58.8855 45.6038,58.5522 43.5,62C 37.9245,63.4716 33.0911,62.3049 29,58.5C 28.5,59 28,59.5 27.5,60C 23.5,60.6667 19.5,60.6667 15.5,60C 13.9512,58.786 12.7845,57.286 12,55.5C 10.8436,50.878 10.0103,46.2113 9.5,41.5C 9.49136,39.6916 9.99136,38.0249 11,36.5C 17.6365,32.9069 22.9698,34.2402 27,40.5C 27.7065,38.9194 28.5399,37.4194 29.5,36C 37.0217,32.8495 42.1884,35.0162 45,42.5C 45.9643,38.5315 48.1309,35.3649 51.5,33C 60.5868,29.9647 66.9202,32.798 70.5,41.5 Z"/></g>
<g><path style="opacity:0.982" fill="#dfdfe0" d="M 127.5,98.5 C 128.174,103.826 125.841,106.159 120.5,105.5C 118.833,105.333 117.167,105.167 115.5,105C 114.315,103.647 112.981,102.48 111.5,101.5C 110.618,102.76 109.618,103.926 108.5,105C 102.013,107.067 97.1801,105.234 94,99.5C 89.5435,108.82 83.0435,110.653 74.5,105C 73.2921,102.75 71.9587,100.583 70.5,98.5C 69.5748,99.3569 68.9081,100.357 68.5,101.5C 63.3142,109.142 56.9808,110.308 49.5,105C 47.9315,102.696 46.7648,100.196 46,97.5C 43.6802,105.136 38.8469,107.303 31.5,104C 30.1068,102.829 29.2735,101.329 29,99.5C 26.0812,105.025 21.5812,106.858 15.5,105C 13.372,103.208 12.0387,101.042 11.5,98.5C 12.6568,93.8726 13.8235,89.2059 15,84.5C 15.5,82.6667 16.6667,81.5 18.5,81C 22.1667,80.3333 25.8333,80.3333 29.5,81C 30.1258,81.7504 30.6258,82.5838 31,83.5C 31.8333,81.3333 33.3333,79.8333 35.5,79C 39.9094,77.7382 43.7428,78.5715 47,81.5C 47.3095,80.2341 47.8095,79.0674 48.5,78C 52,77.8333 55.5,77.6667 59,77.5C 70.0883,77.7387 81.2549,77.9054 92.5,78C 93.1905,79.0674 93.6905,80.2341 94,81.5C 94.5,81 95,80.5 95.5,80C 98.8333,79.3333 102.167,79.3333 105.5,80C 107.333,80.5 108.5,81.6667 109,83.5C 114.609,79.284 119.942,79.6173 125,84.5C 126.286,89.0959 127.119,93.7626 127.5,98.5 Z"/></g>
<g><path style="opacity:0.967" fill="#69b4f4" d="M 68.5,101.5 C 69.4889,106.975 69.8222,112.642 69.5,118.5C 59.4944,118.334 49.4944,118.5 39.5,119C 34.0688,119.477 29.0688,121.144 24.5,124C 18.8333,124.667 13.1667,124.667 7.5,124C 4.29457,122.585 2.6279,120.085 2.5,116.5C 2.9011,109.03 5.9011,103.03 11.5,98.5C 12.0387,101.042 13.372,103.208 15.5,105C 21.5812,106.858 26.0812,105.025 29,99.5C 29.2735,101.329 30.1068,102.829 31.5,104C 38.8469,107.303 43.6802,105.136 46,97.5C 46.7648,100.196 47.9315,102.696 49.5,105C 56.9808,110.308 63.3142,109.142 68.5,101.5 Z"/></g>
<g><path style="opacity:1" fill="#6b9cd1" d="M 127.5,98.5 C 132.737,99.2351 135.904,102.235 137,107.5C 138.244,111.779 138.577,116.112 138,120.5C 136.833,121.667 135.667,122.833 134.5,124C 128.833,124.667 123.167,124.667 117.5,124C 112.898,121.133 107.898,119.466 102.5,119C 91.505,118.5 80.505,118.333 69.5,118.5C 69.8222,112.642 69.4889,106.975 68.5,101.5C 68.9081,100.357 69.5748,99.3569 70.5,98.5C 71.9587,100.583 73.2921,102.75 74.5,105C 83.0435,110.653 89.5435,108.82 94,99.5C 97.1801,105.234 102.013,107.067 108.5,105C 109.618,103.926 110.618,102.76 111.5,101.5C 112.981,102.48 114.315,103.647 115.5,105C 117.167,105.167 118.833,105.333 120.5,105.5C 125.841,106.159 128.174,103.826 127.5,98.5 Z"/></g>
<g><path style="opacity:1" fill="#64aff4" d="M 50.5,132.5 C 49.1667,132.5 47.8333,132.5 46.5,132.5C 42.5513,130.255 41.5513,126.922 43.5,122.5C 48.8948,119.111 52.5614,120.445 54.5,126.5C 54.063,129.225 52.7296,131.225 50.5,132.5 Z"/></g>
<g><path style="opacity:1" fill="#66aff4" d="M 72.5,132.5 C 70.8333,132.5 69.1667,132.5 67.5,132.5C 64.7636,130.142 63.9302,127.142 65,123.5C 67.6786,120.165 70.8453,119.665 74.5,122C 77.3977,126.234 76.7311,129.734 72.5,132.5 Z"/></g>
<g><path style="opacity:1" fill="#68b0f4" d="M 95.5,132.5 C 93.5,132.5 91.5,132.5 89.5,132.5C 86.7636,130.142 85.9302,127.142 87,123.5C 92.3379,118.959 96.1712,119.959 98.5,126.5C 98.0163,128.801 97.0163,130.801 95.5,132.5 Z"/></g>
<g><path style="opacity:1" fill="#e2f0fd" d="M 44.5,125.5 C 45.0768,124.227 45.7435,124.227 46.5,125.5C 46.0302,126.463 45.3635,126.463 44.5,125.5 Z"/></g>
<g><path style="opacity:1" fill="#e4f1fd" d="M 50.5,125.5 C 51.8699,127.707 51.2032,129.374 48.5,130.5C 48.1667,130.167 47.8333,129.833 47.5,129.5C 49.2882,128.717 50.2882,127.384 50.5,125.5 Z"/></g>
<g><path style="opacity:1" fill="#d5e8fc" d="M 72.5,126.5 C 73.7047,128.41 73.038,129.743 70.5,130.5C 70.1667,130.167 69.8333,129.833 69.5,129.5C 70.7701,128.712 71.7701,127.712 72.5,126.5 Z"/></g>
<g><path style="opacity:1" fill="#cce4fb" d="M 94.5,126.5 C 95.9284,128.377 95.4284,129.711 93,130.5C 92.5,130.167 92,129.833 91.5,129.5C 92.9935,128.859 93.9935,127.859 94.5,126.5 Z"/></g>
</svg>
