<?xml version="1.0" encoding="UTF-8"?>
<!DOCTYPE svg PUBLIC "-//W3C//DTD SVG 1.1//EN" "http://www.w3.org/Graphics/SVG/1.1/DTD/svg11.dtd">
<svg xmlns="http://www.w3.org/2000/svg" version="1.1" width="144px" height="142px" style="shape-rendering:geometricPrecision; text-rendering:geometricPrecision; image-rendering:optimizeQuality; fill-rule:evenodd; clip-rule:evenodd" xmlns:xlink="http://www.w3.org/1999/xlink">
<g><path style="opacity:0.939" fill="#69b4f5" d="M 11.5,-0.5 C 13.5,-0.5 15.5,-0.5 17.5,-0.5C 17.1743,7.68413 17.5076,15.6841 18.5,23.5C 17.5707,24.3149 16.5707,25.1482 15.5,26C 17.2495,27.3186 19.2495,27.8186 21.5,27.5C 20.4324,28.4345 19.099,28.7678 17.5,28.5C 17.5,30.1667 17.5,31.8333 17.5,33.5C 18.5,33.5 19.5,33.5 20.5,33.5C 11.1577,35.2386 4.65775,31.5719 1,22.5C -1.41486,12.0031 2.08514,4.33647 11.5,-0.5 Z"/></g>
<g><path style="opacity:1" fill="#5eaaf3" d="M 17.5,-0.5 C 19.5,-0.5 21.5,-0.5 23.5,-0.5C 35.2909,5.97801 38.1243,15.3113 32,27.5C 29.0455,31.2269 25.2121,33.2269 20.5,33.5C 19.5,33.5 18.5,33.5 17.5,33.5C 17.5,31.8333 17.5,30.1667 17.5,28.5C 19.099,28.7678 20.4324,28.4345 21.5,27.5C 27.7919,24.9277 29.6252,20.5944 27,14.5C 25.1129,16.0261 24.1129,18.0261 24,20.5C 22.7365,22.607 20.9032,23.607 18.5,23.5C 17.5076,15.6841 17.1743,7.68413 17.5,-0.5 Z"/></g>
<g><path style="opacity:0.832" fill="#3f4f69" d="M 143.5,22.5 C 143.5,27.1667 143.5,31.8333 143.5,36.5C 142.245,40.3429 140.412,44.0095 138,47.5C 130.632,55.0358 123.132,62.3692 115.5,69.5C 113.086,70.9108 111.419,72.9108 110.5,75.5C 104.035,81.4639 97.7019,87.6306 91.5,94C 90.1667,94.6667 88.8333,94.6667 87.5,94C 75.2985,81.6313 62.9651,69.4647 50.5,57.5C 50.2624,55.5956 49.2624,54.2623 47.5,53.5C 34.3111,41.6335 32.1444,27.9668 41,12.5C 49.0137,2.94985 59.1804,-0.550152 71.5,2C 78.7563,4.54547 84.9229,8.71214 90,14.5C 102.977,-0.22573 117.811,-2.3924 134.5,8C 138.415,12.3435 141.415,17.1768 143.5,22.5 Z"/></g>
<g><path style="opacity:1" fill="#6ab3f2" d="M 88.5,18.5 C 89.388,21.0545 89.7214,23.7212 89.5,26.5C 87.5767,26.205 85.9101,25.3717 84.5,24C 79.3242,23.3315 74.8242,24.8315 71,28.5C 68.7187,31.0632 67.5521,34.0632 67.5,37.5C 71.2133,46.941 74.3799,56.6077 77,66.5C 78.8805,70.6111 81.8805,71.9445 86,70.5C 86.3333,66.5 86.6667,62.5 87,58.5C 87.0367,56.0261 87.87,54.0261 89.5,52.5C 89.8286,65.0113 89.4952,77.3446 88.5,89.5C 73.8681,75.3685 59.3681,61.0352 45,46.5C 38.0162,36.0544 37.6829,25.3877 44,14.5C 52.6702,4.38895 63.1702,1.88895 75.5,7C 80.6213,9.95536 84.9546,13.7887 88.5,18.5 Z"/></g>
<g><path style="opacity:1" fill="#58aced" d="M 88.5,89.5 C 89.4952,77.3446 89.8286,65.0113 89.5,52.5C 90.9311,52.8807 91.7645,53.8807 92,55.5C 92.3333,59.8333 92.6667,64.1667 93,68.5C 93.9492,71.1997 95.7825,72.033 98.5,71C 99.6667,69.8333 100.833,68.6667 102,67.5C 104.255,58.8683 107.255,50.535 111,42.5C 113.015,31.6651 108.515,25.3318 97.5,23.5C 94.8172,24.5103 92.1505,25.5103 89.5,26.5C 89.7214,23.7212 89.388,21.0545 88.5,18.5C 93.1502,16.3714 97.1502,13.2048 100.5,9C 117.051,0.741285 129.884,4.57462 139,20.5C 141.426,28.8968 140.426,36.8968 136,44.5C 120.833,59.6667 105.667,74.8333 90.5,90C 89.5632,90.6917 88.8966,90.525 88.5,89.5 Z"/></g>
<g><path style="opacity:1" fill="#f4fafe" d="M 8.5,9.5 C 13.1585,9.01463 14.4919,10.848 12.5,15C 7.72816,15.8104 6.39483,13.9771 8.5,9.5 Z"/></g>
<g><path style="opacity:1" fill="#f2f9fe" d="M 52.5,11.5 C 59.6686,10.5131 63.1686,13.5131 63,20.5C 59.1709,26.7026 54.8376,27.0359 50,21.5C 48.8613,17.5789 49.6946,14.2456 52.5,11.5 Z"/></g>
<g><path style="opacity:1" fill="#72b8f5" d="M 54.5,14.5 C 59.3276,14.3852 60.6609,16.5519 58.5,21C 52.6815,21.5262 51.3481,19.3595 54.5,14.5 Z"/></g>
<g><path style="opacity:1" fill="#eff6fd" d="M 21.5,27.5 C 19.2495,27.8186 17.2495,27.3186 15.5,26C 16.5707,25.1482 17.5707,24.3149 18.5,23.5C 20.9032,23.607 22.7365,22.607 24,20.5C 24.1129,18.0261 25.1129,16.0261 27,14.5C 29.6252,20.5944 27.7919,24.9277 21.5,27.5 Z"/></g>
<g><path style="opacity:1" fill="#dedfe0" d="M 89.5,26.5 C 92.1505,25.5103 94.8172,24.5103 97.5,23.5C 108.515,25.3318 113.015,31.6651 111,42.5C 107.255,50.535 104.255,58.8683 102,67.5C 100.833,68.6667 99.6667,69.8333 98.5,71C 95.7825,72.033 93.9492,71.1997 93,68.5C 92.6667,64.1667 92.3333,59.8333 92,55.5C 91.7645,53.8807 90.9311,52.8807 89.5,52.5C 87.87,54.0261 87.0367,56.0261 87,58.5C 86.6667,62.5 86.3333,66.5 86,70.5C 81.8805,71.9445 78.8805,70.6111 77,66.5C 74.3799,56.6077 71.2133,46.941 67.5,37.5C 67.5521,34.0632 68.7187,31.0632 71,28.5C 74.8242,24.8315 79.3242,23.3315 84.5,24C 85.9101,25.3717 87.5767,26.205 89.5,26.5 Z"/></g>
<g><path style="opacity:1" fill="#f3f9fe" d="M 47.5,24.5 C 55.3033,24.7887 57.3033,28.2887 53.5,35C 44.0508,35.8661 42.0508,32.3661 47.5,24.5 Z"/></g>
<g><path style="opacity:1" fill="#73b8f5" d="M 48.5,28.5 C 51.1662,28.0658 52.3329,29.0658 52,31.5C 48.4034,33.0661 47.2368,32.0661 48.5,28.5 Z"/></g>
<g><path style="opacity:0.773" fill="#68b3f4" d="M 47.5,53.5 C 49.2624,54.2623 50.2624,55.5956 50.5,57.5C 45.5417,74.4905 34.2084,81.6571 16.5,79C 7.01931,75.6943 1.35265,69.1943 -0.5,59.5C -0.5,57.8333 -0.5,56.1667 -0.5,54.5C 3.65846,39.9195 12.9918,35.0861 27.5,40C 35.4278,46.824 36.4278,54.4907 30.5,63C 24.5091,67.7926 18.6758,67.626 13,62.5C 9.05979,56.0986 10.2265,50.932 16.5,47C 22.3394,45.5838 26.0061,47.7504 27.5,53.5C 27.5472,55.0004 26.8805,56.0004 25.5,56.5C 24.0803,54.7798 22.747,52.9465 21.5,51C 17.8008,50.1766 15.4675,51.6766 14.5,55.5C 19.4236,64.5039 24.5903,64.5039 30,55.5C 30.4511,47.4412 26.6178,42.7746 18.5,41.5C 5.60284,44.9612 1.43617,52.9612 6,65.5C 14.7238,76.6954 25.2238,78.5288 37.5,71C 43.0392,66.4209 46.3726,60.5876 47.5,53.5 Z"/></g>
<g><path style="opacity:0.776" fill="#68b3f4" d="M 110.5,75.5 C 111.419,72.9108 113.086,70.9108 115.5,69.5C 113.182,76.5342 114.516,82.7009 119.5,88C 125.389,91.6343 130.889,91.1343 136,86.5C 138.101,82.5493 137.934,78.716 135.5,75C 134.833,74.3333 134.167,74.3333 133.5,75C 137.168,83.9769 134.168,87.6436 124.5,86C 122.667,85.5 121.5,84.3333 121,82.5C 120.143,69.7 125.643,65.8667 137.5,71C 142.208,76.7883 142.708,82.9549 139,89.5C 134.078,94.2019 128.245,95.7019 121.5,94C 113.347,90.5302 109.68,84.3636 110.5,75.5 Z M 124.5,78.5 C 125.937,79.7221 127.437,79.7221 129,78.5C 131.341,79.0069 131.841,80.1735 130.5,82C 127.128,83.1215 125.128,81.9549 124.5,78.5 Z"/></g>
<g><path style="opacity:0.999" fill="#fae88c" d="M 58.5,107.5 C 65.5787,112.621 73.412,116.287 82,118.5C 98.393,114.861 114.56,110.527 130.5,105.5C 139.805,104.951 142.472,108.785 138.5,117C 120.167,124 101.833,131 83.5,138C 81.1667,138.667 78.8333,138.667 76.5,138C 58.1883,133.672 39.8549,129.505 21.5,125.5C 21.5,124.833 21.1667,124.5 20.5,124.5C 20.1881,112.42 20.5214,100.42 21.5,88.5C 24.1161,87.5202 26.4494,86.0202 28.5,84C 35.1515,80.7943 41.8182,80.7943 48.5,84C 51.3832,86.6092 54.7166,88.4425 58.5,89.5C 64.451,88.5344 70.451,87.8678 76.5,87.5C 75.9844,95.3646 71.9844,100.531 64.5,103C 60.1667,103.333 55.8333,103.667 51.5,104C 53.8599,105.18 56.1932,106.347 58.5,107.5 Z"/></g>
<g><path style="opacity:0.925" fill="#3e4c65" d="M -0.5,85.5 C 7.01905,85.175 14.3524,85.5084 21.5,86.5C 17.8333,86.5 14.1667,86.5 10.5,86.5C 10.5,101.5 10.5,116.5 10.5,131.5C 13.8333,131.5 17.1667,131.5 20.5,131.5C 20.5,129.167 20.5,126.833 20.5,124.5C 21.1667,124.5 21.5,124.833 21.5,125.5C 21.5,127.833 21.5,130.167 21.5,132.5C 14.1667,132.5 6.83333,132.5 -0.5,132.5C -0.5,116.833 -0.5,101.167 -0.5,85.5 Z"/></g>
<g><path style="opacity:1" fill="#36425a" d="M 21.5,86.5 C 21.5,87.1667 21.5,87.8333 21.5,88.5C 20.5214,100.42 20.1881,112.42 20.5,124.5C 20.5,126.833 20.5,129.167 20.5,131.5C 17.1667,131.5 13.8333,131.5 10.5,131.5C 10.5,116.5 10.5,101.5 10.5,86.5C 14.1667,86.5 17.8333,86.5 21.5,86.5 Z"/></g>
<g><path style="opacity:0.976" fill="#f9e27c" d="M 130.5,105.5 C 114.56,110.527 98.393,114.861 82,118.5C 73.412,116.287 65.5787,112.621 58.5,107.5C 73.6713,103.945 88.8379,100.278 104,96.5C 107.637,96.4869 110.637,97.8202 113,100.5C 118.553,97.5322 123.886,97.8656 129,101.5C 129.791,102.745 130.291,104.078 130.5,105.5 Z"/></g>
<g><path style="opacity:0.781" fill="#69b4f5" d="M 137.5,141.5 C 134.833,141.5 132.167,141.5 129.5,141.5C 123.389,136.34 123.056,130.84 128.5,125C 137.95,122.116 142.45,125.616 142,135.5C 141.021,137.968 139.521,139.968 137.5,141.5 Z M 132.5,127.5 C 136.847,128.001 138.68,130.334 138,134.5C 133.818,138.83 130.651,138.163 128.5,132.5C 129.127,130.213 130.46,128.546 132.5,127.5 Z"/></g>
<g><path style="opacity:0.775" fill="#69b4f5" d="M 117.5,141.5 C 116.167,141.5 114.833,141.5 113.5,141.5C 110.613,139.282 109.779,136.282 111,132.5C 115.713,129.203 119.213,130.203 121.5,135.5C 121.063,138.225 119.73,140.225 117.5,141.5 Z M 114.5,134.5 C 116.337,134.639 116.67,135.306 115.5,136.5C 114.702,136.043 114.369,135.376 114.5,134.5 Z"/></g>
</svg>
