<?xml version="1.0" encoding="UTF-8"?>
<!DOCTYPE svg PUBLIC "-//W3C//DTD SVG 1.1//EN" "http://www.w3.org/Graphics/SVG/1.1/DTD/svg11.dtd">
<svg xmlns="http://www.w3.org/2000/svg" version="1.1" width="143px" height="139px" style="shape-rendering:geometricPrecision; text-rendering:geometricPrecision; image-rendering:optimizeQuality; fill-rule:evenodd; clip-rule:evenodd" xmlns:xlink="http://www.w3.org/1999/xlink">
<g><path style="opacity:0.897" fill="#6bb4f3" d="M 51.5,-0.5 C 57.5,-0.5 63.5,-0.5 69.5,-0.5C 69.5,7.5 69.5,15.5 69.5,23.5C 78.6822,23.1734 87.6822,23.5067 96.5,24.5C 78.5,24.5 60.5,24.5 42.5,24.5C 41.6787,21.3586 41.1787,18.0252 41,14.5C 38.8471,16.4439 36.3471,16.9439 33.5,16C 37.4023,12.9467 36.569,11.78 31,12.5C 21.5653,12.2068 15.5653,16.5401 13,25.5C 12.3333,32.1667 12.3333,38.8333 13,45.5C 15.1194,42.5226 16.2861,42.856 16.5,46.5C 16.5635,48.5139 15.8968,50.1806 14.5,51.5C 12.9557,51.7031 11.6223,52.3698 10.5,53.5C 9.58317,52.8728 8.58317,52.5394 7.5,52.5C 4.5885,50.0421 3.92183,47.0421 5.5,43.5C 6.47758,43.9767 7.31091,44.6433 8,45.5C 8.33333,38.1667 8.66667,30.8333 9,23.5C 10.6748,17.1587 14.5082,12.6587 20.5,10C 25.7504,8.82597 31.0838,8.1593 36.5,8C 32.8329,4.63667 33.8329,3.63667 39.5,5C 40.354,6.02173 41.354,6.85506 42.5,7.5C 44.9257,4.06774 47.9257,1.40107 51.5,-0.5 Z"/></g>
<g><path style="opacity:1" fill="#5da9f3" d="M 69.5,-0.5 C 75.8333,-0.5 82.1667,-0.5 88.5,-0.5C 92.5582,1.22687 95.2249,4.22687 96.5,8.5C 96.5569,9.60895 96.8902,10.609 97.5,11.5C 97.8182,16.0323 97.4849,20.3656 96.5,24.5C 87.6822,23.5067 78.6822,23.1734 69.5,23.5C 69.5,15.5 69.5,7.5 69.5,-0.5 Z"/></g>
<g><path style="opacity:0.764" fill="#69b3f4" d="M 134.5,52.5 C 133.417,52.5394 132.417,52.8728 131.5,53.5C 130.378,52.3698 129.044,51.7031 127.5,51.5C 125.488,49.4329 125.154,47.0996 126.5,44.5C 127.478,44.9767 128.311,45.6433 129,46.5C 129.667,39.5 129.667,32.5 129,25.5C 125.187,15.0044 117.687,10.8377 106.5,13C 107.357,13.6891 108.023,14.5224 108.5,15.5C 106.579,16.641 104.579,16.8077 102.5,16C 100.963,14.2927 99.2959,12.7927 97.5,11.5C 96.8902,10.609 96.5569,9.60895 96.5,8.5C 97.1174,8.61071 97.6174,8.94404 98,9.5C 99.8781,6.76988 102.378,5.10321 105.5,4.5C 109.144,4.71389 109.477,5.88055 106.5,8C 120.049,6.34025 128.882,11.8403 133,24.5C 133.333,31.8333 133.667,39.1667 134,46.5C 135.881,43.6491 136.715,43.9825 136.5,47.5C 136.563,49.5139 135.897,51.1806 134.5,52.5 Z"/></g>
<g><path style="opacity:0.977" fill="#f6e283" d="M 42.5,24.5 C 60.5,24.5 78.5,24.5 96.5,24.5C 98.0226,27.6297 98.6893,30.963 98.5,34.5C 96.3926,35.4682 94.0593,35.8016 91.5,35.5C 91.7035,33.6096 91.0368,32.1096 89.5,31C 84.5,30.3333 79.5,30.3333 74.5,31C 73.4804,32.5557 72.147,33.7224 70.5,34.5C 68.7099,33.2137 67.0432,31.7137 65.5,30C 60.8333,29.3333 56.1667,29.3333 51.5,30C 49.393,31.2635 48.393,33.0968 48.5,35.5C 45.6146,35.8064 42.9479,35.4731 40.5,34.5C 41.1667,31.1667 41.8333,27.8333 42.5,24.5 Z"/></g>
<g><path style="opacity:0.984" fill="#485469" d="M 98.5,34.5 C 100.404,34.7376 101.738,35.7376 102.5,37.5C 98.8282,38.0206 95.1616,38.6872 91.5,39.5C 91.032,41.1338 90.032,42.3005 88.5,43C 83.8333,43.6667 79.1667,43.6667 74.5,43C 72.9632,41.8904 72.2965,40.3904 72.5,38.5C 70.8333,38.5 69.1667,38.5 67.5,38.5C 67.67,39.8221 67.3366,40.9887 66.5,42C 61.1667,42.6667 55.8333,42.6667 50.5,42C 49.6634,40.9887 49.33,39.8221 49.5,38.5C 45.7307,38.756 42.0641,38.4227 38.5,37.5C 38.427,35.9731 39.0937,34.9731 40.5,34.5C 42.9479,35.4731 45.6146,35.8064 48.5,35.5C 48.393,33.0968 49.393,31.2635 51.5,30C 56.1667,29.3333 60.8333,29.3333 65.5,30C 67.0432,31.7137 68.7099,33.2137 70.5,34.5C 72.147,33.7224 73.4804,32.5557 74.5,31C 79.5,30.3333 84.5,30.3333 89.5,31C 91.0368,32.1096 91.7035,33.6096 91.5,35.5C 94.0593,35.8016 96.3926,35.4682 98.5,34.5 Z"/></g>
<g><path style="opacity:1" fill="#dadbda" d="M 52.5,32.5 C 56.5138,32.3345 60.5138,32.5012 64.5,33C 65.9817,35.5918 65.6483,37.9251 63.5,40C 60.1667,40.6667 56.8333,40.6667 53.5,40C 51.2854,37.7585 50.9521,35.2585 52.5,32.5 Z"/></g>
<g><path style="opacity:1" fill="#e0e1e1" d="M 75.5,33.5 C 79.8333,33.5 84.1667,33.5 88.5,33.5C 88.5,35.8333 88.5,38.1667 88.5,40.5C 84.1667,40.5 79.8333,40.5 75.5,40.5C 75.5,38.1667 75.5,35.8333 75.5,33.5 Z"/></g>
<g><path style="opacity:1" fill="#f7e386" d="M 38.5,37.5 C 42.0641,38.4227 45.7307,38.756 49.5,38.5C 49.33,39.8221 49.6634,40.9887 50.5,42C 55.8333,42.6667 61.1667,42.6667 66.5,42C 67.3366,40.9887 67.67,39.8221 67.5,38.5C 69.1667,38.5 70.8333,38.5 72.5,38.5C 72.2965,40.3904 72.9632,41.8904 74.5,43C 79.1667,43.6667 83.8333,43.6667 88.5,43C 90.032,42.3005 91.032,41.1338 91.5,39.5C 95.1616,38.6872 98.8282,38.0206 102.5,37.5C 107.442,43.7997 106.108,48.1331 98.5,50.5C 97.8333,50.1667 97.1667,49.8333 96.5,49.5C 78.5,48.1667 60.5,48.1667 42.5,49.5C 41.8333,49.8333 41.1667,50.1667 40.5,50.5C 34.9076,49.3751 33.0742,46.0418 35,40.5C 35.7202,38.9443 36.8868,37.9443 38.5,37.5 Z"/></g>
<g><path style="opacity:0.902" fill="#69b4f4" d="M 42.5,49.5 C 44.8333,49.5 47.1667,49.5 49.5,49.5C 49.5,50.5 49.5,51.5 49.5,52.5C 46.9407,52.1984 44.6074,52.5318 42.5,53.5C 41.0937,53.0269 40.427,52.0269 40.5,50.5C 41.1667,50.1667 41.8333,49.8333 42.5,49.5 Z"/></g>
<g><path style="opacity:1" fill="#fbfcfa" d="M 42.5,49.5 C 60.5,48.1667 78.5,48.1667 96.5,49.5C 93.8333,49.5 91.1667,49.5 88.5,49.5C 88.5,50.5 88.5,51.5 88.5,52.5C 91.3854,52.1936 94.0521,52.5269 96.5,53.5C 93.8333,53.5 91.1667,53.5 88.5,53.5C 89.2434,60.2575 87.5767,66.2575 83.5,71.5C 75.2479,77.1913 66.5812,77.858 57.5,73.5C 55.8333,72.5 54.5,71.1667 53.5,69.5C 50.9304,64.515 49.9304,59.1817 50.5,53.5C 47.8333,53.5 45.1667,53.5 42.5,53.5C 44.6074,52.5318 46.9407,52.1984 49.5,52.5C 49.5,51.5 49.5,50.5 49.5,49.5C 47.1667,49.5 44.8333,49.5 42.5,49.5 Z"/></g>
<g><path style="opacity:0.961" fill="#69b4f4" d="M 96.5,49.5 C 97.1667,49.8333 97.8333,50.1667 98.5,50.5C 98.573,52.0269 97.9063,53.0269 96.5,53.5C 94.0521,52.5269 91.3854,52.1936 88.5,52.5C 88.5,51.5 88.5,50.5 88.5,49.5C 91.1667,49.5 93.8333,49.5 96.5,49.5 Z"/></g>
<g><path style="opacity:0.989" fill="#e0e0e0" d="M 14.5,51.5 C 15.915,52.2894 17.415,52.9561 19,53.5C 27.1369,49.733 33.4702,51.733 38,59.5C 38.6667,62.5 38.6667,65.5 38,68.5C 34.4679,75.9317 31.6346,83.5984 29.5,91.5C 28.8333,91.5 28.5,91.8333 28.5,92.5C 28.1667,92.5 27.8333,92.5 27.5,92.5C 26.8333,92.5 26.5,92.8333 26.5,93.5C 26.1667,93.5 25.8333,93.5 25.5,93.5C 24.1779,93.67 23.0113,93.3366 22,92.5C 21.7273,87.9872 21.0606,83.3205 20,78.5C 19.586,78.0426 19.086,77.7093 18.5,77.5C 17.0116,82.3731 16.1782,87.3731 16,92.5C 13.7904,93.7488 11.6237,93.5822 9.5,92C 6.3851,83.9916 3.05177,76.1582 -0.5,68.5C -0.5,65.5 -0.5,62.5 -0.5,59.5C 1.54327,56.4569 4.20994,54.1236 7.5,52.5C 8.58317,52.5394 9.58317,52.8728 10.5,53.5C 11.6223,52.3698 12.9557,51.7031 14.5,51.5 Z"/></g>
<g><path style="opacity:0.989" fill="#e0e0e0" d="M 127.5,51.5 C 129.044,51.7031 130.378,52.3698 131.5,53.5C 132.417,52.8728 133.417,52.5394 134.5,52.5C 137.79,54.1236 140.457,56.4569 142.5,59.5C 142.5,62.5 142.5,65.5 142.5,68.5C 138.948,76.1582 135.615,83.9916 132.5,92C 130.376,93.5822 128.21,93.7488 126,92.5C 124.004,72.5044 122.004,72.5044 120,92.5C 117.501,93.7978 115.167,93.4644 113,91.5C 110.395,83.6866 107.395,76.02 104,68.5C 101.937,60.4588 104.77,54.9588 112.5,52C 116.186,51.1933 119.686,51.6933 123,53.5C 124.585,52.9561 126.085,52.2894 127.5,51.5 Z"/></g>
<g><path style="opacity:0.992" fill="#fbe990" d="M 42.5,53.5 C 45.1667,53.5 47.8333,53.5 50.5,53.5C 49.9304,59.1817 50.9304,64.515 53.5,69.5C 48.3669,65.3346 44.7003,60.0013 42.5,53.5 Z"/></g>
<g><path style="opacity:0.852" fill="#fae481" d="M 96.5,53.5 C 94.5932,61.3363 90.2599,67.3363 83.5,71.5C 87.5767,66.2575 89.2434,60.2575 88.5,53.5C 91.1667,53.5 93.8333,53.5 96.5,53.5 Z"/></g>
<g><path style="opacity:1" fill="#f8df74" d="M 83.5,71.5 C 82.5422,77.7436 82.2088,84.077 82.5,90.5C 82.4266,96.8676 80.0933,102.368 75.5,107C 73.5643,107.813 71.5643,108.313 69.5,108.5C 60.6139,105.933 56.6139,99.9334 57.5,90.5C 57.5,84.8333 57.5,79.1667 57.5,73.5C 66.5812,77.858 75.2479,77.1913 83.5,71.5 Z"/></g>
<g><path style="opacity:0.984" fill="#69b4f4" d="M 57.5,90.5 C 56.6139,99.9334 60.6139,105.933 69.5,108.5C 69.5,111.167 69.5,113.833 69.5,116.5C 67.8958,117.287 67.2291,118.62 67.5,120.5C 68.5,120.5 69.5,120.5 70.5,120.5C 68.8905,124.744 69.2238,128.744 71.5,132.5C 66.6905,132.686 66.3571,133.686 70.5,135.5C 69.8902,136.391 69.5569,137.391 69.5,138.5C 48.1667,138.5 26.8333,138.5 5.5,138.5C 7.1903,128.738 9.35697,119.071 12,109.5C 15.2674,103.071 19.7674,97.7375 25.5,93.5C 25.8333,93.5 26.1667,93.5 26.5,93.5C 27.1667,93.5 27.5,93.1667 27.5,92.5C 27.8333,92.5 28.1667,92.5 28.5,92.5C 29.1667,92.5 29.5,92.1667 29.5,91.5C 38.8006,90.6126 48.1339,90.2792 57.5,90.5 Z"/></g>
<g><path style="opacity:1" fill="#59adee" d="M 82.5,90.5 C 90.1739,90.3336 97.8406,90.5003 105.5,91C 115.663,93.1644 122.83,98.9978 127,108.5C 129.817,118.434 132.317,128.434 134.5,138.5C 112.833,138.5 91.1667,138.5 69.5,138.5C 69.5569,137.391 69.8902,136.391 70.5,135.5C 71.404,134.791 71.7373,133.791 71.5,132.5C 69.2238,128.744 68.8905,124.744 70.5,120.5C 71.1239,120.083 71.4573,119.416 71.5,118.5C 71.2528,117.287 70.5862,116.62 69.5,116.5C 69.5,113.833 69.5,111.167 69.5,108.5C 71.5643,108.313 73.5643,107.813 75.5,107C 80.0933,102.368 82.4266,96.8676 82.5,90.5 Z"/></g>
<g><path style="opacity:1" fill="#f0f7fd" d="M 69.5,116.5 C 70.5862,116.62 71.2528,117.287 71.5,118.5C 71.4573,119.416 71.1239,120.083 70.5,120.5C 69.5,120.5 68.5,120.5 67.5,120.5C 67.2291,118.62 67.8958,117.287 69.5,116.5 Z"/></g>
<g><path style="opacity:1" fill="#f7fbfe" d="M 71.5,132.5 C 71.7373,133.791 71.404,134.791 70.5,135.5C 66.3571,133.686 66.6905,132.686 71.5,132.5 Z"/></g>
</svg>
