<?xml version="1.0" encoding="UTF-8"?>
<!DOCTYPE svg PUBLIC "-//W3C//DTD SVG 1.1//EN" "http://www.w3.org/Graphics/SVG/1.1/DTD/svg11.dtd">
<svg xmlns="http://www.w3.org/2000/svg" version="1.1" width="147px" height="146px" style="shape-rendering:geometricPrecision; text-rendering:geometricPrecision; image-rendering:optimizeQuality; fill-rule:evenodd; clip-rule:evenodd" xmlns:xlink="http://www.w3.org/1999/xlink">
<g><path style="opacity:0.954" fill="#e3e3e3" d="M 14.5,-0.5 C 17.8333,-0.5 21.1667,-0.5 24.5,-0.5C 26.4632,0.820176 28.4632,2.15351 30.5,3.5C 30.1881,15.5803 30.5214,27.5803 31.5,39.5C 30.6236,39.3691 29.9569,39.7025 29.5,40.5C 27.9223,47.7225 27.0889,55.0558 27,62.5C 25.6661,66.1044 23.1661,67.271 19.5,66C 15.9421,64.1083 13.4421,61.2749 12,57.5C 9.48043,45.7609 5.31376,34.7609 -0.5,24.5C -0.5,21.1667 -0.5,17.8333 -0.5,14.5C 2.16667,7.16667 7.16667,2.16667 14.5,-0.5 Z"/></g>
<g><path style="opacity:0.994" fill="#dedede" d="M 37.5,-0.5 C 40.8333,-0.5 44.1667,-0.5 47.5,-0.5C 56.6869,2.67883 61.6869,9.17883 62.5,19C 57.3204,32.2112 52.8204,45.7112 49,59.5C 45.9241,65.3807 41.5908,67.0474 36,64.5C 34.7608,58.9445 34.0941,53.2778 34,47.5C 33.7206,44.5432 32.8873,41.8766 31.5,39.5C 30.5214,27.5803 30.1881,15.5803 30.5,3.5C 33.0041,2.41613 35.3374,1.0828 37.5,-0.5 Z"/></g>
<g><path style="opacity:0.783" fill="#3f4d66" d="M 70.5,0.5 C 77.8261,-0.679215 82.1594,2.32079 83.5,9.5C 80.1831,18.1094 74.6831,19.776 67,14.5C 64.4295,8.84186 65.5962,4.17519 70.5,0.5 Z M 72.5,4.5 C 78.6426,5.02621 79.9759,7.85954 76.5,13C 69.3445,12.8565 68.0111,10.0231 72.5,4.5 Z"/></g>
<g><path style="opacity:0.805" fill="#3f4d66" d="M 100.5,67.5 C 99.5,67.5 98.5,67.5 97.5,67.5C 96.8333,67.5 96.1667,67.5 95.5,67.5C 95.6666,54.8289 95.4999,42.1623 95,29.5C 90.941,25.9441 87.441,21.9441 84.5,17.5C 87.8514,14.1518 91.5181,11.1518 95.5,8.5C 97.1013,0.948285 101.268,-1.05172 108,2.5C 110.707,7.30406 109.54,10.8041 104.5,13C 99.0881,12.0333 94.7548,13.8666 91.5,18.5C 94.1504,21.6511 96.9838,24.6511 100,27.5C 100.5,40.8292 100.667,54.1625 100.5,67.5 Z M 101.5,5.5 C 104.293,5.74001 104.793,6.74001 103,8.5C 101.961,7.75618 101.461,6.75618 101.5,5.5 Z"/></g>
<g><path style="opacity:0.906" fill="#69b4f5" d="M 128.5,2.5 C 127.5,2.5 126.5,2.5 125.5,2.5C 124.877,9.25471 125.544,15.588 127.5,21.5C 126.192,22.2323 124.858,23.0656 123.5,24C 124.056,24.3826 124.389,24.8826 124.5,25.5C 124.5,27.1667 124.5,28.8333 124.5,30.5C 113.985,29.1718 109.485,23.1718 111,12.5C 113.956,3.77925 119.789,0.445919 128.5,2.5 Z"/></g>
<g><path style="opacity:1" fill="#5eaaf3" d="M 128.5,2.5 C 137.359,5.2018 140.859,11.2018 139,20.5C 136.512,27.1655 131.679,30.4988 124.5,30.5C 124.5,28.8333 124.5,27.1667 124.5,25.5C 131.914,24.9574 134.747,21.2907 133,14.5C 131.428,17.1074 129.594,19.4407 127.5,21.5C 125.544,15.588 124.877,9.25471 125.5,2.5C 126.5,2.5 127.5,2.5 128.5,2.5 Z"/></g>
<g><path style="opacity:1" fill="#fcfdfd" d="M 9.5,10.5 C 15.6426,11.0262 16.9759,13.8595 13.5,19C 8.50365,19.6643 6.67031,17.4977 8,12.5C 8.71719,11.9558 9.21719,11.2891 9.5,10.5 Z"/></g>
<g><path style="opacity:1" fill="#f2f9fe" d="M 117.5,10.5 C 118.833,10.5 120.167,10.5 121.5,10.5C 121.99,12.9484 121.157,14.615 119,15.5C 116.389,14.5001 115.889,12.8334 117.5,10.5 Z"/></g>
<g><path style="opacity:1" fill="#eef6fd" d="M 124.5,25.5 C 124.389,24.8826 124.056,24.3826 123.5,24C 124.858,23.0656 126.192,22.2323 127.5,21.5C 129.594,19.4407 131.428,17.1074 133,14.5C 134.747,21.2907 131.914,24.9574 124.5,25.5 Z"/></g>
<g><path style="opacity:0.787" fill="#3f4d66" d="M 74.5,79.5 C 73.5,79.5 72.5,79.5 71.5,79.5C 70.8333,79.5 70.1667,79.5 69.5,79.5C 69.8322,68.1471 69.4988,56.8138 68.5,45.5C 64.7482,42.9587 61.4148,39.9587 58.5,36.5C 61.6084,31.8885 65.275,27.7218 69.5,24C 70.7932,23.51 72.1266,23.3433 73.5,23.5C 72.7528,28.7753 70.0861,32.942 65.5,36C 68.0518,38.8529 70.8851,41.3529 74,43.5C 74.4999,55.4954 74.6665,67.4954 74.5,79.5 Z"/></g>
<g><path style="opacity:0.779" fill="#3f4d66" d="M 107.5,30.5 C 114.665,29.4966 117.498,32.4966 116,39.5C 112.333,43.5 108.667,43.5 105,39.5C 103.93,35.8579 104.764,32.8579 107.5,30.5 Z M 109.5,34.5 C 112.861,35.2032 113.194,36.5365 110.5,38.5C 108.358,37.5629 108.024,36.2296 109.5,34.5 Z"/></g>
<g><path style="opacity:0.759" fill="#3f4d66" d="M 79.5,32.5 C 86.7933,33.0829 88.96,36.7496 86,43.5C 78.0114,46.8292 74.6781,44.1625 76,35.5C 77.1451,34.3636 78.3117,33.3636 79.5,32.5 Z M 79.5,37.5 C 83.8638,37.6648 84.3638,38.9981 81,41.5C 79.8118,40.4366 79.3118,39.1033 79.5,37.5 Z"/></g>
<g><path style="opacity:0.837" fill="#414f68" d="M 146.5,40.5 C 146.5,42.8333 146.5,45.1667 146.5,47.5C 140.855,54.65 133.522,57.3167 124.5,55.5C 123.501,66.8138 123.168,78.1471 123.5,89.5C 122.5,89.5 121.5,89.5 120.5,89.5C 119.833,89.5 119.167,89.5 118.5,89.5C 118.033,74.4033 118.533,59.4033 120,44.5C 127.978,36.3307 136.812,34.9974 146.5,40.5 Z"/></g>
<g><path style="opacity:1" fill="#ddddde" d="M 130.5,41.5 C 134.182,41.3347 137.848,41.5014 141.5,42C 142.556,46.6721 140.556,49.6721 135.5,51C 131.5,51.6667 127.5,51.6667 123.5,51C 122.483,49.9505 122.316,48.7839 123,47.5C 125.114,44.8792 127.614,42.8792 130.5,41.5 Z"/></g>
<g><path style="opacity:0.779" fill="#3f4d66" d="M 54.5,61.5 C 63.6584,60.4906 67.4918,64.4906 66,73.5C 65.2155,75.286 64.0488,76.786 62.5,78C 52.8365,80.0005 48.6698,76.1672 50,66.5C 51.025,64.313 52.525,62.6464 54.5,61.5 Z M 56.5,65.5 C 62.3347,66.333 63.6681,69.1663 60.5,74C 55.5023,75.3297 53.3357,73.4964 54,68.5C 54.6979,67.3094 55.5313,66.3094 56.5,65.5 Z"/></g>
<g><path style="opacity:0.944" fill="#69b4f5" d="M 95.5,67.5 C 96.1667,67.5 96.8333,67.5 97.5,67.5C 97.5,92.1667 97.5,116.833 97.5,141.5C 94.6354,141.945 92.1354,141.278 90,139.5C 89.3481,116.155 89.6814,92.8212 91,69.5C 92.1096,67.9632 93.6096,67.2965 95.5,67.5 Z"/></g>
<g><path style="opacity:1" fill="#5da9f3" d="M 97.5,67.5 C 98.5,67.5 99.5,67.5 100.5,67.5C 102.39,67.2965 103.89,67.9632 105,69.5C 105.905,91.727 106.738,113.894 107.5,136C 106.059,140.979 102.726,142.812 97.5,141.5C 97.5,116.833 97.5,92.1667 97.5,67.5 Z"/></g>
<g><path style="opacity:0.958" fill="#e3e3e3" d="M 32.5,81.5 C 31.1667,93.8333 31.1667,106.167 32.5,118.5C 31.5,118.5 30.5,118.5 29.5,118.5C 28.1472,126.433 27.3139,134.433 27,142.5C 25.955,143.373 25.1217,144.373 24.5,145.5C 23.5,145.5 22.5,145.5 21.5,145.5C 16.7933,143.285 13.6266,139.618 12,134.5C 9.28248,122.502 5.11581,111.169 -0.5,100.5C -0.5,98.8333 -0.5,97.1667 -0.5,95.5C 2.16282,84.6401 9.16282,78.6401 20.5,77.5C 24.6997,78.3991 28.6997,79.7324 32.5,81.5 Z"/></g>
<g><path style="opacity:0.993" fill="#dedede" d="M 41.5,145.5 C 40.5,145.5 39.5,145.5 38.5,145.5C 37.5313,144.691 36.6979,143.691 36,142.5C 35.9231,134.284 34.7564,126.284 32.5,118.5C 31.1667,106.167 31.1667,93.8333 32.5,81.5C 43.2872,75.4855 52.4539,77.4855 60,87.5C 61.7911,90.7839 62.9577,94.2839 63.5,98C 58.3479,109.789 54.1812,121.955 51,134.5C 49.3734,139.618 46.2067,143.285 41.5,145.5 Z"/></g>
<g><path style="opacity:0.921" fill="#68b3f4" d="M 69.5,79.5 C 70.1667,79.5 70.8333,79.5 71.5,79.5C 71.5,101.167 71.5,122.833 71.5,144.5C 73.1667,144.5 74.8333,144.5 76.5,144.5C 76.5,144.833 76.5,145.167 76.5,145.5C 73.5,145.5 70.5,145.5 67.5,145.5C 66.828,144.733 65.9947,144.066 65,143.5C 64.0975,122.47 64.4309,101.47 66,80.5C 67.0113,79.6634 68.1779,79.33 69.5,79.5 Z"/></g>
<g><path style="opacity:1" fill="#5da9f3" d="M 71.5,79.5 C 72.5,79.5 73.5,79.5 74.5,79.5C 76.1238,79.3601 77.2904,80.0267 78,81.5C 79.4535,102.148 79.7868,122.814 79,143.5C 78.3292,144.252 77.4959,144.586 76.5,144.5C 74.8333,144.5 73.1667,144.5 71.5,144.5C 71.5,122.833 71.5,101.167 71.5,79.5 Z"/></g>
<g><path style="opacity:1" fill="#fcfdfd" d="M 9.5,89.5 C 16.004,89.1377 17.6707,91.6377 14.5,97C 7.745,97.7558 6.07833,95.2558 9.5,89.5 Z"/></g>
<g><path style="opacity:0.919" fill="#69b4f5" d="M 118.5,89.5 C 119.167,89.5 119.833,89.5 120.5,89.5C 120.5,107.833 120.5,126.167 120.5,144.5C 118.234,144.859 116.401,144.192 115,142.5C 114.271,125.147 114.604,107.814 116,90.5C 116.671,89.7476 117.504,89.4142 118.5,89.5 Z"/></g>
<g><path style="opacity:1" fill="#5eaaf3" d="M 120.5,89.5 C 121.5,89.5 122.5,89.5 123.5,89.5C 124.496,89.4142 125.329,89.7476 126,90.5C 127.511,108.14 127.844,125.806 127,143.5C 124.959,144.423 122.792,144.756 120.5,144.5C 120.5,126.167 120.5,107.833 120.5,89.5 Z"/></g>
</svg>
