<?xml version="1.0" encoding="UTF-8"?>
<!DOCTYPE svg PUBLIC "-//W3C//DTD SVG 1.1//EN" "http://www.w3.org/Graphics/SVG/1.1/DTD/svg11.dtd">
<svg xmlns="http://www.w3.org/2000/svg" version="1.1" width="147px" height="148px" style="shape-rendering:geometricPrecision; text-rendering:geometricPrecision; image-rendering:optimizeQuality; fill-rule:evenodd; clip-rule:evenodd" xmlns:xlink="http://www.w3.org/1999/xlink">
<g><path style="opacity:0.927" fill="#6eb5f4" d="M 18.5,-0.5 C 19.1667,-0.5 19.8333,-0.5 20.5,-0.5C 20.5,6.5 20.5,13.5 20.5,20.5C 13.5,20.5 6.5,20.5 -0.5,20.5C -0.5,20.1667 -0.5,19.8333 -0.5,19.5C 5.82432,12.8752 12.1577,6.20857 18.5,-0.5 Z"/></g>
<g><path style="opacity:0.971" fill="#e2e3e3" d="M 20.5,-0.5 C 50.8333,-0.5 81.1667,-0.5 111.5,-0.5C 111.5,6.83333 111.5,14.1667 111.5,21.5C 105.833,21.5 100.167,21.5 94.5,21.5C 94.5,19.8333 94.5,18.1667 94.5,16.5C 91.1667,16.5 87.8333,16.5 84.5,16.5C 83.4845,9.99122 79.6512,6.99122 73,7.5C 66.8686,7.46663 63.3686,10.4666 62.5,16.5C 59.1667,16.5 55.8333,16.5 52.5,16.5C 52.5,18.1667 52.5,19.8333 52.5,21.5C 43.8333,21.5 35.1667,21.5 26.5,21.5C 26.5,58.5 26.5,95.5 26.5,132.5C 17.5,132.5 8.5,132.5 -0.5,132.5C -0.5,95.1667 -0.5,57.8333 -0.5,20.5C 6.5,20.5 13.5,20.5 20.5,20.5C 20.5,13.5 20.5,6.5 20.5,-0.5 Z"/></g>
<g><path style="opacity:0.911" fill="#6bb4f4" d="M 135.5,1.5 C 140.486,1.82926 144.153,4.1626 146.5,8.5C 146.5,10.5 146.5,12.5 146.5,14.5C 142.833,14.5 139.167,14.5 135.5,14.5C 135.5,10.1667 135.5,5.83333 135.5,1.5 Z"/></g>
<g><path style="opacity:1" fill="#6c9dd1" d="M 135.5,1.5 C 135.5,5.83333 135.5,10.1667 135.5,14.5C 131.833,14.5 128.167,14.5 124.5,14.5C 124.203,6.79813 127.869,2.46479 135.5,1.5 Z"/></g>
<g><path style="opacity:1" fill="#f0dd84" d="M 94.5,21.5 C 94.5,22.8333 94.5,24.1667 94.5,25.5C 96.7925,25.2436 98.9592,25.5769 101,26.5C 101.498,29.4816 101.665,32.4816 101.5,35.5C 101.5,36.8333 101.5,38.1667 101.5,39.5C 98.3314,39.6617 96.3314,41.3284 95.5,44.5C 80.8333,45.8333 66.1667,45.8333 51.5,44.5C 49.4256,41.8227 47.4256,39.156 45.5,36.5C 45.5,36.1667 45.5,35.8333 45.5,35.5C 45.3354,32.4816 45.502,29.4816 46,26.5C 48.0408,25.5769 50.2075,25.2436 52.5,25.5C 52.5,24.1667 52.5,22.8333 52.5,21.5C 52.5,19.8333 52.5,18.1667 52.5,16.5C 55.8333,16.5 59.1667,16.5 62.5,16.5C 63.3686,10.4666 66.8686,7.46663 73,7.5C 79.6512,6.99122 83.4845,9.99122 84.5,16.5C 87.8333,16.5 91.1667,16.5 94.5,16.5C 94.5,18.1667 94.5,19.8333 94.5,21.5 Z"/></g>
<g><path style="opacity:1" fill="#e9e7e1" d="M 70.5,13.5 C 77.536,12.6026 79.2027,15.1026 75.5,21C 69.7853,21.401 68.1187,18.901 70.5,13.5 Z"/></g>
<g><path style="opacity:0.978" fill="#e1e1e1" d="M 124.5,14.5 C 128.167,14.5 131.833,14.5 135.5,14.5C 139.167,14.5 142.833,14.5 146.5,14.5C 146.5,18.1667 146.5,21.8333 146.5,25.5C 139.167,25.5 131.833,25.5 124.5,25.5C 124.5,21.8333 124.5,18.1667 124.5,14.5 Z"/></g>
<g><path style="opacity:0.99" fill="#6db5f4" d="M 52.5,21.5 C 52.5,22.8333 52.5,24.1667 52.5,25.5C 50.2075,25.2436 48.0408,25.5769 46,26.5C 45.502,29.4816 45.3354,32.4816 45.5,35.5C 42.1667,35.5 38.8333,35.5 35.5,35.5C 35.5,66.1667 35.5,96.8333 35.5,127.5C 48.1667,127.5 60.8333,127.5 73.5,127.5C 73.5,132.167 73.5,136.833 73.5,141.5C 57.8333,141.5 42.1667,141.5 26.5,141.5C 26.5,138.5 26.5,135.5 26.5,132.5C 26.5,95.5 26.5,58.5 26.5,21.5C 35.1667,21.5 43.8333,21.5 52.5,21.5 Z"/></g>
<g><path style="opacity:1" fill="#699acf" d="M 94.5,21.5 C 100.167,21.5 105.833,21.5 111.5,21.5C 114.5,21.5 117.5,21.5 120.5,21.5C 120.5,61.5 120.5,101.5 120.5,141.5C 104.833,141.5 89.1667,141.5 73.5,141.5C 73.5,136.833 73.5,132.167 73.5,127.5C 80.3543,127.824 87.021,127.491 93.5,126.5C 93.5,120.833 93.5,115.167 93.5,109.5C 99.1667,109.5 104.833,109.5 110.5,109.5C 110.5,84.8333 110.5,60.1667 110.5,35.5C 107.5,35.5 104.5,35.5 101.5,35.5C 101.665,32.4816 101.498,29.4816 101,26.5C 98.9592,25.5769 96.7925,25.2436 94.5,25.5C 94.5,24.1667 94.5,22.8333 94.5,21.5 Z"/></g>
<g><path style="opacity:1" fill="#fdf8e2" d="M 55.5,24.5 C 56.5,24.5 57.5,24.5 58.5,24.5C 58.5,25.5 58.5,26.5 58.5,27.5C 57.5,27.5 56.5,27.5 55.5,27.5C 55.5,26.5 55.5,25.5 55.5,24.5 Z"/></g>
<g><path style="opacity:1" fill="#fdfaea" d="M 88.5,24.5 C 90.4646,24.9483 90.7979,25.9483 89.5,27.5C 87.4807,26.8671 87.1474,25.8671 88.5,24.5 Z"/></g>
<g><path style="opacity:1" fill="#f9e17a" d="M 124.5,26.5 C 129.167,26.5 133.833,26.5 138.5,26.5C 138.5,56.8333 138.5,87.1667 138.5,117.5C 133.833,117.5 129.167,117.5 124.5,117.5C 124.5,87.1667 124.5,56.8333 124.5,26.5 Z"/></g>
<g><path style="opacity:1" fill="#fae88c" d="M 124.5,26.5 C 124.5,26.1667 124.5,25.8333 124.5,25.5C 131.833,25.5 139.167,25.5 146.5,25.5C 146.5,25.8333 146.5,26.1667 146.5,26.5C 145.167,26.5 143.833,26.5 142.5,26.5C 142.5,56.8333 142.5,87.1667 142.5,117.5C 141.167,117.5 139.833,117.5 138.5,117.5C 138.5,87.1667 138.5,56.8333 138.5,26.5C 133.833,26.5 129.167,26.5 124.5,26.5 Z"/></g>
<g><path style="opacity:0.938" fill="#f9e47f" d="M 146.5,26.5 C 146.5,56.8333 146.5,87.1667 146.5,117.5C 145.167,117.5 143.833,117.5 142.5,117.5C 142.5,87.1667 142.5,56.8333 142.5,26.5C 143.833,26.5 145.167,26.5 146.5,26.5 Z"/></g>
<g><path style="opacity:1" fill="#69b3f4" d="M 73.5,31.5 C 73.5,32.8333 73.5,34.1667 73.5,35.5C 65.1667,35.5 56.8333,35.5 48.5,35.5C 48.5,33.5 48.5,31.5 48.5,29.5C 56.7023,31.2329 65.0356,31.8995 73.5,31.5 Z"/></g>
<g><path style="opacity:1" fill="#6e9dce" d="M 97.5,36.5 C 89.6841,35.5076 81.6841,35.1743 73.5,35.5C 73.5,34.1667 73.5,32.8333 73.5,31.5C 80.5,31.5 87.5,31.5 94.5,31.5C 94.5,30.5 94.5,29.5 94.5,28.5C 95.8333,28.5 97.1667,28.5 98.5,28.5C 98.8064,31.3854 98.4731,34.0521 97.5,36.5 Z"/></g>
<g><path style="opacity:1" fill="#496588" d="M 45.5,35.5 C 45.5,35.8333 45.5,36.1667 45.5,36.5C 42.5,36.5 39.5,36.5 36.5,36.5C 36.5,66.5 36.5,96.5 36.5,126.5C 55.5,126.5 74.5,126.5 93.5,126.5C 87.021,127.491 80.3543,127.824 73.5,127.5C 60.8333,127.5 48.1667,127.5 35.5,127.5C 35.5,96.8333 35.5,66.1667 35.5,35.5C 38.8333,35.5 42.1667,35.5 45.5,35.5 Z"/></g>
<g><path style="opacity:1" fill="#414f67" d="M 101.5,35.5 C 104.5,35.5 107.5,35.5 110.5,35.5C 110.5,60.1667 110.5,84.8333 110.5,109.5C 104.833,109.5 99.1667,109.5 93.5,109.5C 93.5,115.167 93.5,120.833 93.5,126.5C 74.5,126.5 55.5,126.5 36.5,126.5C 36.5,96.5 36.5,66.5 36.5,36.5C 39.5,36.5 42.5,36.5 45.5,36.5C 47.4256,39.156 49.4256,41.8227 51.5,44.5C 66.1667,45.8333 80.8333,45.8333 95.5,44.5C 96.3314,41.3284 98.3314,39.6617 101.5,39.5C 101.5,38.1667 101.5,36.8333 101.5,35.5 Z"/></g>
<g><path style="opacity:1" fill="#41506a" d="M 48.5,35.5 C 56.8333,35.5 65.1667,35.5 73.5,35.5C 81.6841,35.1743 89.6841,35.5076 97.5,36.5C 95.882,37.4511 94.5487,38.7844 93.5,40.5C 80.1792,41.666 66.8458,41.8327 53.5,41C 52.1111,38.7609 50.4444,36.9276 48.5,35.5 Z"/></g>
<g><path style="opacity:1" fill="#6bb2f3" d="M 9.5,36.5 C 12.8333,36.5 16.1667,36.5 19.5,36.5C 19.5,39.8333 19.5,43.1667 19.5,46.5C 16.1667,46.5 12.8333,46.5 9.5,46.5C 9.5,43.1667 9.5,39.8333 9.5,36.5 Z"/></g>
<g><path style="opacity:1" fill="#dddddd" d="M 49.5,49.5 C 53.1977,49.1944 56.6977,49.861 60,51.5C 66.4768,48.0481 71.8101,49.3814 76,55.5C 76.6667,58.1667 76.6667,60.8333 76,63.5C 73.0298,70.0498 70.3631,76.7165 68,83.5C 66,84.8333 64,84.8333 62,83.5C 61.6667,79.5 61.3333,75.5 61,71.5C 60.586,71.0426 60.086,70.7093 59.5,70.5C 57.7832,74.9907 57.1165,79.6574 57.5,84.5C 54.9556,84.8957 52.7889,84.229 51,82.5C 49.2486,76.2413 46.9153,70.2413 44,64.5C 42.0867,57.9698 43.92,52.9698 49.5,49.5 Z"/></g>
<g><path style="opacity:1" fill="#e9ecee" d="M 78.5,52.5 C 79.675,52.281 80.675,52.6143 81.5,53.5C 79.9483,54.7979 78.9483,54.4646 78.5,52.5 Z"/></g>
<g><path style="opacity:1" fill="#dbdfe3" d="M 90.5,52.5 C 91.675,52.281 92.675,52.6143 93.5,53.5C 91.9483,54.7979 90.9483,54.4646 90.5,52.5 Z"/></g>
<g><path style="opacity:1" fill="#dcdfe3" d="M 102.5,51.5 C 106.31,52.7542 106.31,53.7542 102.5,54.5C 102.5,53.5 102.5,52.5 102.5,51.5 Z"/></g>
<g><path style="opacity:1" fill="#6eb3f3" d="M 9.5,54.5 C 12.8333,54.5 16.1667,54.5 19.5,54.5C 19.5,58.1667 19.5,61.8333 19.5,65.5C 16.1667,65.5 12.8333,65.5 9.5,65.5C 9.5,61.8333 9.5,58.1667 9.5,54.5 Z"/></g>
<g><path style="opacity:1" fill="#dee1e5" d="M 80.5,63.5 C 88.5069,63.3336 96.5069,63.5003 104.5,64C 105.833,65 105.833,66 104.5,67C 96.1667,67.6667 87.8333,67.6667 79.5,67C 79.1667,66.6667 78.8333,66.3333 78.5,66C 79.3805,65.2917 80.0472,64.4584 80.5,63.5 Z"/></g>
<g><path style="opacity:1" fill="#fafbfc" d="M 79.5,73.5 C 88.3362,73.0314 97.0028,73.5314 105.5,75C 96.9967,76.6333 88.3301,76.9667 79.5,76C 78.4019,75.2303 78.4019,74.397 79.5,73.5 Z"/></g>
<g><path style="opacity:1" fill="#70b4f2" d="M 9.5,73.5 C 12.8333,73.5 16.1667,73.5 19.5,73.5C 19.5,77.1667 19.5,80.8333 19.5,84.5C 16.1667,84.5 12.8333,84.5 9.5,84.5C 9.5,80.8333 9.5,77.1667 9.5,73.5 Z"/></g>
<g><path style="opacity:1" fill="#fcfdfd" d="M 44.5,89.5 C 64.985,89.0126 85.3183,89.5126 105.5,91C 85.3156,92.6531 64.9823,92.9864 44.5,92C 43.4019,91.2303 43.4019,90.397 44.5,89.5 Z"/></g>
<g><path style="opacity:1" fill="#6ab2f3" d="M 9.5,92.5 C 12.8333,92.5 16.1667,92.5 19.5,92.5C 19.5,95.8333 19.5,99.1667 19.5,102.5C 16.1667,102.5 12.8333,102.5 9.5,102.5C 9.5,99.1667 9.5,95.8333 9.5,92.5 Z"/></g>
<g><path style="opacity:1" fill="#fcfdfe" d="M 44.5,98.5 C 64.985,98.0126 85.3183,98.5126 105.5,100C 85.3183,101.487 64.985,101.987 44.5,101.5C 44.5,100.5 44.5,99.5 44.5,98.5 Z"/></g>
<g><path style="opacity:1" fill="#69b3f3" d="M 94.5,110.5 C 99.8437,110.334 105.177,110.501 110.5,111C 105.652,116.015 100.652,120.848 95.5,125.5C 94.5059,120.544 94.1725,115.544 94.5,110.5 Z"/></g>
<g><path style="opacity:1" fill="#6ab2f3" d="M 9.5,111.5 C 12.8333,111.5 16.1667,111.5 19.5,111.5C 19.5,114.833 19.5,118.167 19.5,121.5C 16.1667,121.5 12.8333,121.5 9.5,121.5C 9.5,118.167 9.5,114.833 9.5,111.5 Z"/></g>
<g><path style="opacity:0.943" fill="#e1e1e1" d="M 124.5,117.5 C 129.167,117.5 133.833,117.5 138.5,117.5C 139.833,117.5 141.167,117.5 142.5,117.5C 143.833,117.5 145.167,117.5 146.5,117.5C 146.5,118.5 146.5,119.5 146.5,120.5C 144.461,124.266 142.795,128.266 141.5,132.5C 137.5,132.5 133.5,132.5 129.5,132.5C 127.55,127.598 125.883,122.598 124.5,117.5 Z"/></g>
<g><path style="opacity:0.842" fill="#3c4962" d="M 129.5,132.5 C 133.5,132.5 137.5,132.5 141.5,132.5C 139.633,137.433 137.967,142.433 136.5,147.5C 135.833,147.5 135.167,147.5 134.5,147.5C 133.031,142.426 131.364,137.426 129.5,132.5 Z"/></g>
</svg>
