<?xml version="1.0" encoding="UTF-8"?>
<!DOCTYPE svg PUBLIC "-//W3C//DTD SVG 1.1//EN" "http://www.w3.org/Graphics/SVG/1.1/DTD/svg11.dtd">
<svg xmlns="http://www.w3.org/2000/svg" version="1.1" width="142px" height="142px" style="shape-rendering:geometricPrecision; text-rendering:geometricPrecision; image-rendering:optimizeQuality; fill-rule:evenodd; clip-rule:evenodd" xmlns:xlink="http://www.w3.org/1999/xlink">
<g><path style="opacity:0.973" fill="#69b4f4" d="M -0.5,-0.5 C 22.1667,-0.5 44.8333,-0.5 67.5,-0.5C 67.5,1.83333 67.5,4.16667 67.5,6.5C 68.5,6.5 69.5,6.5 70.5,6.5C 70.5,12.5 70.5,18.5 70.5,24.5C 66.3302,22.7706 61.9969,22.2706 57.5,23C 54.2729,25.1118 50.9396,26.9451 47.5,28.5C 31.9363,19.1742 19.4363,22.5075 10,38.5C 8.5615,43.7625 8.22816,49.0958 9,54.5C 16.1944,68.133 21.5278,82.4663 25,97.5C 27.9181,103.777 32.7514,106.611 39.5,106C 40.7014,105.097 41.5348,103.931 42,102.5C 41.9257,92.6935 42.9257,83.0269 45,73.5C 45.6708,72.7476 46.5041,72.4142 47.5,72.5C 48.4959,72.4142 49.3292,72.7476 50,73.5C 50.539,76.5285 51.2057,79.5285 52,82.5C 52.0699,89.9385 52.7365,97.2718 54,104.5C 60.892,107.485 66.0586,105.485 69.5,98.5C 70.4889,103.975 70.8222,109.642 70.5,115.5C 50.1667,115.5 29.8333,115.5 9.5,115.5C 9.18325,119.702 9.51658,123.702 10.5,127.5C 30.5,127.5 50.5,127.5 70.5,127.5C 70.5,132.167 70.5,136.833 70.5,141.5C 46.8333,141.5 23.1667,141.5 -0.5,141.5C -0.5,94.1667 -0.5,46.8333 -0.5,-0.5 Z"/></g>
<g><path style="opacity:1" fill="#5eafe1" d="M 67.5,-0.5 C 92.1667,-0.5 116.833,-0.5 141.5,-0.5C 141.5,39.1667 141.5,78.8333 141.5,118.5C 134.5,118.5 127.5,118.5 120.5,118.5C 120.5,126.167 120.5,133.833 120.5,141.5C 103.833,141.5 87.1667,141.5 70.5,141.5C 70.5,136.833 70.5,132.167 70.5,127.5C 78.5,127.5 86.5,127.5 94.5,127.5C 94.5,123.833 94.5,120.167 94.5,116.5C 86.6841,115.508 78.6841,115.174 70.5,115.5C 70.8222,109.642 70.4889,103.975 69.5,98.5C 73.0778,90.5292 75.5778,82.1958 77,73.5C 79.3935,67.7126 82.0602,62.0459 85,56.5C 89.1052,41.7142 84.2718,31.0476 70.5,24.5C 70.5,18.5 70.5,12.5 70.5,6.5C 69.5,6.5 68.5,6.5 67.5,6.5C 67.5,4.16667 67.5,1.83333 67.5,-0.5 Z"/></g>
<g><path style="opacity:1" fill="#41526d" d="M 110.5,25.5 C 107.833,25.5 105.167,25.5 102.5,25.5C 103.985,21.859 105.485,18.1924 107,14.5C 108.674,18.0207 109.84,21.6873 110.5,25.5 Z"/></g>
<g><path style="opacity:1" fill="#425874" d="M 123.5,22.5 C 127.182,22.3347 130.848,22.5014 134.5,23C 137.825,32.6758 134.492,36.3425 124.5,34C 123.54,30.27 123.207,26.4367 123.5,22.5 Z"/></g>
<g><path style="opacity:1" fill="#e3e4e4" d="M 47.5,28.5 C 47.5,43.1667 47.5,57.8333 47.5,72.5C 46.5041,72.4142 45.6708,72.7476 45,73.5C 42.9257,83.0269 41.9257,92.6935 42,102.5C 41.5348,103.931 40.7014,105.097 39.5,106C 32.7514,106.611 27.9181,103.777 25,97.5C 21.5278,82.4663 16.1944,68.133 9,54.5C 8.22816,49.0958 8.5615,43.7625 10,38.5C 19.4363,22.5075 31.9363,19.1742 47.5,28.5 Z"/></g>
<g><path style="opacity:1" fill="#dcdddd" d="M 70.5,24.5 C 84.2718,31.0476 89.1052,41.7142 85,56.5C 82.0602,62.0459 79.3935,67.7126 77,73.5C 75.5778,82.1958 73.0778,90.5292 69.5,98.5C 66.0586,105.485 60.892,107.485 54,104.5C 52.7365,97.2718 52.0699,89.9385 52,82.5C 51.2057,79.5285 50.539,76.5285 50,73.5C 49.3292,72.7476 48.4959,72.4142 47.5,72.5C 47.5,57.8333 47.5,43.1667 47.5,28.5C 50.9396,26.9451 54.2729,25.1118 57.5,23C 61.9969,22.2706 66.3302,22.7706 70.5,24.5 Z"/></g>
<g><path style="opacity:1" fill="#5eafe2" d="M 126.5,25.5 C 128.167,25.5 129.833,25.5 131.5,25.5C 131.5,27.1667 131.5,28.8333 131.5,30.5C 129.833,30.5 128.167,30.5 126.5,30.5C 126.5,28.8333 126.5,27.1667 126.5,25.5 Z"/></g>
<g><path style="opacity:1" fill="#f4e081" d="M 102.5,25.5 C 105.167,25.5 107.833,25.5 110.5,25.5C 112.601,28.7966 113.935,32.4632 114.5,36.5C 109.156,36.666 103.823,36.4994 98.5,36C 100.254,32.6594 101.587,29.1594 102.5,25.5 Z"/></g>
<g><path style="opacity:1" fill="#546076" d="M 63.5,30.5 C 76.053,32.5267 81.3863,39.6934 79.5,52C 79.2335,42.018 73.9002,35.6847 63.5,33C 62.4019,32.2303 62.4019,31.397 63.5,30.5 Z"/></g>
<g><path style="opacity:1" fill="#68b0ed" d="M 103.5,37.5 C 104.167,126.833 104.833,126.833 105.5,37.5C 106.5,37.5 107.5,37.5 108.5,37.5C 109.167,126.833 109.833,126.833 110.5,37.5C 112.167,37.5 113.833,37.5 115.5,37.5C 115.667,60.5024 115.5,83.5024 115,106.5C 112.116,112.543 107.616,114.043 101.5,111C 100.299,110.097 99.4652,108.931 99,107.5C 98.5,84.169 98.3334,60.8357 98.5,37.5C 100.167,37.5 101.833,37.5 103.5,37.5 Z"/></g>
<g><path style="opacity:1" fill="#699cd1" d="M 108.5,37.5 C 109.167,37.5 109.833,37.5 110.5,37.5C 109.833,126.833 109.167,126.833 108.5,37.5 Z"/></g>
<g><path style="opacity:1" fill="#699cd1" d="M 103.5,37.5 C 104.167,37.5 104.833,37.5 105.5,37.5C 104.833,126.833 104.167,126.833 103.5,37.5 Z"/></g>
<g><path style="opacity:1" fill="#ecf5fb" d="M 123.5,39.5 C 127.31,40.7542 127.31,41.7542 123.5,42.5C 123.5,41.5 123.5,40.5 123.5,39.5 Z"/></g>
<g><path style="opacity:1" fill="#e5f1fa" d="M 132.5,39.5 C 134.048,39.8212 134.715,40.8212 134.5,42.5C 131.752,42.5983 131.086,41.5983 132.5,39.5 Z"/></g>
<g><path style="opacity:1" fill="#edf6fb" d="M 123.5,48.5 C 124.5,48.5 125.5,48.5 126.5,48.5C 126.5,49.5 126.5,50.5 126.5,51.5C 125.5,51.5 124.5,51.5 123.5,51.5C 123.5,50.5 123.5,49.5 123.5,48.5 Z"/></g>
<g><path style="opacity:1" fill="#f7fbfd" d="M 132.5,48.5 C 134.465,48.9483 134.798,49.9483 133.5,51.5C 131.481,50.8671 131.147,49.8671 132.5,48.5 Z"/></g>
<g><path style="opacity:1" fill="#40506a" d="M 124.5,57.5 C 127.833,57.5 131.167,57.5 134.5,57.5C 134.665,61.1817 134.499,64.8484 134,68.5C 123.692,71.5436 120.525,67.8769 124.5,57.5 Z"/></g>
<g><path style="opacity:1" fill="#5aa4d4" d="M 126.5,60.5 C 128.167,60.5 129.833,60.5 131.5,60.5C 131.5,62.5 131.5,64.5 131.5,66.5C 129.833,66.5 128.167,66.5 126.5,66.5C 126.5,64.5 126.5,62.5 126.5,60.5 Z"/></g>
<g><path style="opacity:1" fill="#eff7fc" d="M 123.5,75.5 C 126.957,75.6672 127.29,76.6672 124.5,78.5C 123.614,77.675 123.281,76.675 123.5,75.5 Z"/></g>
<g><path style="opacity:1" fill="#e9f4fb" d="M 131.5,75.5 C 132.5,75.5 133.5,75.5 134.5,75.5C 133.754,79.31 132.754,79.31 131.5,75.5 Z"/></g>
<g><path style="opacity:1" fill="#f6fafd" d="M 123.5,84.5 C 124.675,84.281 125.675,84.6143 126.5,85.5C 124.948,86.7979 123.948,86.4646 123.5,84.5 Z"/></g>
<g><path style="opacity:1" fill="#e6f2fa" d="M 132.5,83.5 C 134.048,83.8212 134.715,84.8212 134.5,86.5C 131.752,86.5983 131.086,85.5983 132.5,83.5 Z"/></g>
<g><path style="opacity:1" fill="#66b2f0" d="M 124.5,92.5 C 134.491,90.6543 137.824,94.4877 134.5,104C 123.767,106.797 120.433,102.964 124.5,92.5 Z"/></g>
<g><path style="opacity:1" fill="#d8ebfb" d="M 70.5,115.5 C 78.6841,115.174 86.6841,115.508 94.5,116.5C 66.5,116.5 38.5,116.5 10.5,116.5C 10.5,120.167 10.5,123.833 10.5,127.5C 9.51658,123.702 9.18325,119.702 9.5,115.5C 29.8333,115.5 50.1667,115.5 70.5,115.5 Z"/></g>
<g><path style="opacity:1" fill="#fcfdfe" d="M 94.5,116.5 C 94.5,120.167 94.5,123.833 94.5,127.5C 86.5,127.5 78.5,127.5 70.5,127.5C 50.5,127.5 30.5,127.5 10.5,127.5C 10.5,123.833 10.5,120.167 10.5,116.5C 38.5,116.5 66.5,116.5 94.5,116.5 Z"/></g>
<g><path style="opacity:0.93" fill="#68b4f4" d="M 141.5,118.5 C 141.5,118.833 141.5,119.167 141.5,119.5C 134.492,126.508 127.826,133.842 121.5,141.5C 121.167,141.5 120.833,141.5 120.5,141.5C 120.5,133.833 120.5,126.167 120.5,118.5C 127.5,118.5 134.5,118.5 141.5,118.5 Z"/></g>
<g><path style="opacity:1" fill="#616c81" d="M 13.5,120.5 C 16.5476,120.494 17.0476,121.494 15,123.5C 13.9614,122.756 13.4614,121.756 13.5,120.5 Z"/></g>
<g><path style="opacity:1" fill="#616c81" d="M 25.5,120.5 C 28.5476,120.494 29.0476,121.494 27,123.5C 25.9614,122.756 25.4614,121.756 25.5,120.5 Z"/></g>
<g><path style="opacity:1" fill="#616c81" d="M 37.5,120.5 C 40.5476,120.494 41.0476,121.494 39,123.5C 37.9614,122.756 37.4614,121.756 37.5,120.5 Z"/></g>
<g><path style="opacity:1" fill="#616c81" d="M 49.5,120.5 C 52.5476,120.494 53.0476,121.494 51,123.5C 49.9614,122.756 49.4614,121.756 49.5,120.5 Z"/></g>
<g><path style="opacity:1" fill="#616c81" d="M 61.5,120.5 C 64.5476,120.494 65.0476,121.494 63,123.5C 61.9614,122.756 61.4614,121.756 61.5,120.5 Z"/></g>
<g><path style="opacity:1" fill="#616c81" d="M 73.5,120.5 C 76.5476,120.494 77.0476,121.494 75,123.5C 73.9614,122.756 73.4614,121.756 73.5,120.5 Z"/></g>
<g><path style="opacity:1" fill="#616c81" d="M 85.5,120.5 C 88.5476,120.494 89.0476,121.494 87,123.5C 85.9614,122.756 85.4614,121.756 85.5,120.5 Z"/></g>
</svg>
