<?xml version="1.0" encoding="UTF-8"?>
<!DOCTYPE svg PUBLIC "-//W3C//DTD SVG 1.1//EN" "http://www.w3.org/Graphics/SVG/1.1/DTD/svg11.dtd">
<svg xmlns="http://www.w3.org/2000/svg" version="1.1" width="145px" height="147px" style="shape-rendering:geometricPrecision; text-rendering:geometricPrecision; image-rendering:optimizeQuality; fill-rule:evenodd; clip-rule:evenodd" xmlns:xlink="http://www.w3.org/1999/xlink">
<g><path style="opacity:0.898" fill="#3f4d66" d="M 20.5,-0.5 C 21.8333,-0.5 23.1667,-0.5 24.5,-0.5C 33.9723,3.22187 38.639,10.3885 38.5,21C 38.5506,30.5621 34.8839,38.2288 27.5,44C 41.3445,56.4104 55.3445,68.5771 69.5,80.5C 68.925,82.4113 67.925,84.078 66.5,85.5C 65.8333,86.1667 65.1667,86.8333 64.5,87.5C 45.1912,71.2728 26.0246,54.9395 7,38.5C 1.49074,26.0829 2.99074,14.5829 11.5,4C 14.324,1.92117 17.324,0.421175 20.5,-0.5 Z"/></g>
<g><path style="opacity:0.964" fill="#e3e3e2" d="M 88.5,-0.5 C 90.8333,-0.5 93.1667,-0.5 95.5,-0.5C 98.672,1.25192 101.672,3.25192 104.5,5.5C 104.5,20.1667 104.5,34.8333 104.5,49.5C 105.791,49.2627 106.791,49.596 107.5,50.5C 105.856,50.2865 104.356,50.6198 103,51.5C 101.043,60.7186 100.043,70.0519 100,79.5C 97.1103,83.8277 93.2769,84.661 88.5,82C 85.9061,79.9135 83.9061,77.4135 82.5,74.5C 86.1817,74.6653 89.8484,74.4986 93.5,74C 94.8333,73 94.8333,72 93.5,71C 89.4126,70.2375 85.4126,70.4042 81.5,71.5C 80.5,68.8333 79.5,66.1667 78.5,63.5C 83.032,63.9308 87.3654,63.4308 91.5,62C 87.2256,59.1665 82.5589,58.6665 77.5,60.5C 77.2444,57.4021 76.5778,54.4021 75.5,51.5C 79.1817,51.6653 82.8484,51.4986 86.5,51C 87.8333,50 87.8333,49 86.5,48C 82.4126,47.2375 78.4126,47.4042 74.5,48.5C 73.1084,45.9933 72.1084,43.3267 71.5,40.5C 75.7032,40.9239 79.7032,40.4239 83.5,39C 78.9568,35.8466 74.2901,35.6799 69.5,38.5C 68.1084,35.9933 67.1084,33.3267 66.5,30.5C 70.5,30.5 74.5,30.5 78.5,30.5C 78.5,29.5 78.5,28.5 78.5,27.5C 74.1667,27.5 69.8333,27.5 65.5,27.5C 65.298,25.0504 65.6314,22.717 66.5,20.5C 71.032,20.9308 75.3654,20.4308 79.5,19C 75.7032,17.5761 71.7032,17.0761 67.5,17.5C 67.6878,14.7939 68.6878,12.4605 70.5,10.5C 74.7471,11.6018 79.0804,11.7684 83.5,11C 84.8333,10.3333 84.8333,9.66667 83.5,9C 79.9748,8.82129 76.6414,8.32129 73.5,7.5C 77.8117,3.51125 82.8117,0.844587 88.5,-0.5 Z"/></g>
<g><path style="opacity:0.995" fill="#dedede" d="M 115.5,-0.5 C 117.833,-0.5 120.167,-0.5 122.5,-0.5C 132.906,2.2374 140.24,8.57074 144.5,18.5C 144.5,22.5 144.5,26.5 144.5,30.5C 137.162,44.3307 131.662,58.9974 128,74.5C 124.95,81.2203 119.784,84.0537 112.5,83C 111.874,82.2496 111.374,81.4162 111,80.5C 110.667,70.495 109.5,60.495 107.5,50.5C 106.791,49.596 105.791,49.2627 104.5,49.5C 104.5,34.8333 104.5,20.1667 104.5,5.5C 108.208,3.43026 111.875,1.43026 115.5,-0.5 Z"/></g>
<g><path style="opacity:0.901" fill="#6ab4f5" d="M 51.5,2.5 C 51.5,6.83333 51.5,11.1667 51.5,15.5C 51.5,16.5 51.5,17.5 51.5,18.5C 51.5,19.5 51.5,20.5 51.5,21.5C 42.6239,20.0894 39.7905,15.0894 43,6.5C 45.1413,3.67919 47.9746,2.34586 51.5,2.5 Z"/></g>
<g><path style="opacity:1" fill="#62abf3" d="M 51.5,2.5 C 58.2198,2.1085 61.5532,5.27517 61.5,12C 61.5532,18.7248 58.2198,21.8915 51.5,21.5C 51.5,20.5 51.5,19.5 51.5,18.5C 56.0188,18.0047 57.6855,15.6714 56.5,11.5C 55.9955,14.3418 54.3289,15.6751 51.5,15.5C 51.5,11.1667 51.5,6.83333 51.5,2.5 Z"/></g>
<g><path style="opacity:1" fill="#e2e2e3" d="M 19.5,6.5 C 28.3852,6.35418 32.3852,10.8542 31.5,20C 31.6243,25.6283 30.1243,30.7949 27,35.5C 22.5301,41.3545 17.8635,41.6878 13,36.5C 8.06959,24.8109 10.2363,14.8109 19.5,6.5 Z"/></g>
<g><path style="opacity:0.945" fill="#f9e382" d="M 73.5,7.5 C 76.6414,8.32129 79.9748,8.82129 83.5,9C 84.8333,9.66667 84.8333,10.3333 83.5,11C 79.0804,11.7684 74.7471,11.6018 70.5,10.5C 70.5,8.5 71.5,7.5 73.5,7.5 Z"/></g>
<g><path style="opacity:1" fill="#e0effc" d="M 47.5,7.5 C 50.1402,8.79363 50.1402,10.127 47.5,11.5C 46.3744,10.1916 46.3744,8.85832 47.5,7.5 Z"/></g>
<g><path style="opacity:1" fill="#fbfcfc" d="M 122.5,9.5 C 133.47,11.4782 137.137,17.4782 133.5,27.5C 133.54,19.7089 129.873,14.8756 122.5,13C 121.316,11.8545 121.316,10.6879 122.5,9.5 Z"/></g>
<g><path style="opacity:1" fill="#ebf4fd" d="M 51.5,18.5 C 51.5,17.5 51.5,16.5 51.5,15.5C 54.3289,15.6751 55.9955,14.3418 56.5,11.5C 57.6855,15.6714 56.0188,18.0047 51.5,18.5 Z"/></g>
<g><path style="opacity:1" fill="#fdfefe" d="M 85.5,15.5 C 93.5238,14.2649 95.5238,17.0982 91.5,24C 84.7813,24.7259 82.7813,21.8925 85.5,15.5 Z"/></g>
<g><path style="opacity:0.983" fill="#f9e381" d="M 67.5,17.5 C 71.7032,17.0761 75.7032,17.5761 79.5,19C 75.3654,20.4308 71.032,20.9308 66.5,20.5C 65.1854,19.1054 65.5188,18.1054 67.5,17.5 Z"/></g>
<g><path style="opacity:0.973" fill="#f9e382" d="M 65.5,27.5 C 69.8333,27.5 74.1667,27.5 78.5,27.5C 78.5,28.5 78.5,29.5 78.5,30.5C 74.5,30.5 70.5,30.5 66.5,30.5C 65.596,29.791 65.2627,28.791 65.5,27.5 Z"/></g>
<g><path style="opacity:0.894" fill="#6ab4f5" d="M 52.5,29.5 C 52.1818,34.0323 52.5151,38.3656 53.5,42.5C 52.9094,43.1515 52.2427,43.8182 51.5,44.5C 51.6236,45.1067 51.9569,45.44 52.5,45.5C 52.2852,47.1788 52.9519,48.1788 54.5,48.5C 43.7631,49.0994 40.2631,44.0994 44,33.5C 46.1413,30.6792 48.9746,29.3459 52.5,29.5 Z"/></g>
<g><path style="opacity:1" fill="#61abf3" d="M 52.5,29.5 C 61.3761,30.9106 64.2095,35.9106 61,44.5C 59.4293,46.9229 57.2626,48.2562 54.5,48.5C 52.9519,48.1788 52.2852,47.1788 52.5,45.5C 56.9373,44.9232 58.604,42.5899 57.5,38.5C 56.5905,40.3747 55.2572,41.708 53.5,42.5C 52.5151,38.3656 52.1818,34.0323 52.5,29.5 Z"/></g>
<g><path style="opacity:1" fill="#f2f8fe" d="M 47.5,35.5 C 49.9732,35.9473 50.1399,36.9473 48,38.5C 46.2716,37.6477 46.105,36.6477 47.5,35.5 Z"/></g>
<g><path style="opacity:0.965" fill="#f8e38a" d="M 71.5,40.5 C 70.1667,40.5 69.5,39.8333 69.5,38.5C 74.2901,35.6799 78.9568,35.8466 83.5,39C 79.7032,40.4239 75.7032,40.9239 71.5,40.5 Z"/></g>
<g><path style="opacity:1" fill="#f1f8fe" d="M 52.5,45.5 C 51.9569,45.44 51.6236,45.1067 51.5,44.5C 52.2427,43.8182 52.9094,43.1515 53.5,42.5C 55.2572,41.708 56.5905,40.3747 57.5,38.5C 58.604,42.5899 56.9373,44.9232 52.5,45.5 Z"/></g>
<g><path style="opacity:0.918" fill="#f7e38a" d="M 75.5,51.5 C 73.6182,50.779 73.2848,49.779 74.5,48.5C 78.4126,47.4042 82.4126,47.2375 86.5,48C 87.8333,49 87.8333,50 86.5,51C 82.8484,51.4986 79.1817,51.6653 75.5,51.5 Z"/></g>
<g><path style="opacity:0.847" fill="#68b1f4" d="M 60.5,52.5 C 65.7027,51.1891 69.036,53.0224 70.5,58C 68.1414,64.6131 64.3081,65.7798 59,61.5C 58.068,58.1769 58.568,55.1769 60.5,52.5 Z"/></g>
<g><path style="opacity:0.913" fill="#69b4f5" d="M 13.5,55.5 C 12.8872,61.2709 13.5539,66.6042 15.5,71.5C 14.1917,72.2323 12.8584,73.0656 11.5,74C 12.056,74.3826 12.3893,74.8826 12.5,75.5C 12.4326,76.9587 12.7659,78.2921 13.5,79.5C 5.80243,78.9713 1.46909,74.8047 0.5,67C 1.28415,59.0447 5.61749,55.2113 13.5,55.5 Z"/></g>
<g><path style="opacity:1" fill="#60abf3" d="M 13.5,55.5 C 20.8767,55.7084 24.8767,59.5417 25.5,67C 25.196,74.806 21.196,78.9726 13.5,79.5C 12.7659,78.2921 12.4326,76.9587 12.5,75.5C 18.3823,74.9768 20.7156,71.9768 19.5,66.5C 18.3875,68.4192 17.0542,70.0858 15.5,71.5C 13.5539,66.6042 12.8872,61.2709 13.5,55.5 Z"/></g>
<g><path style="opacity:1" fill="#ddeefc" d="M 60.5,55.5 C 62.337,55.6395 62.6704,56.3061 61.5,57.5C 60.7025,57.0431 60.3691,56.3764 60.5,55.5 Z"/></g>
<g><path style="opacity:1" fill="#f3f9fe" d="M 66.5,57.5 C 68.0173,60.4947 67.0173,61.6614 63.5,61C 65.4257,60.5776 66.4257,59.4109 66.5,57.5 Z"/></g>
<g><path style="opacity:0.957" fill="#f8e38a" d="M 78.5,63.5 C 77.8902,62.609 77.5569,61.609 77.5,60.5C 82.5589,58.6665 87.2256,59.1665 91.5,62C 87.3654,63.4308 83.032,63.9308 78.5,63.5 Z"/></g>
<g><path style="opacity:1" fill="#eff7fe" d="M 6.5,62.5 C 9.16619,62.0658 10.3329,63.0658 10,65.5C 6.40344,67.0661 5.23678,66.0661 6.5,62.5 Z"/></g>
<g><path style="opacity:1" fill="#f0f7fd" d="M 12.5,75.5 C 12.3893,74.8826 12.056,74.3826 11.5,74C 12.8584,73.0656 14.1917,72.2323 15.5,71.5C 17.0542,70.0858 18.3875,68.4192 19.5,66.5C 20.7156,71.9768 18.3823,74.9768 12.5,75.5 Z"/></g>
<g><path style="opacity:1" fill="#64aef4" d="M 29.5,69.5 C 38.4867,68.665 40.8201,72.165 36.5,80C 31.4306,82.1326 28.0972,80.466 26.5,75C 27.1242,72.9149 28.1242,71.0816 29.5,69.5 Z"/></g>
<g><path style="opacity:0.938" fill="#f8e38a" d="M 82.5,74.5 C 80.6182,73.779 80.2848,72.779 81.5,71.5C 85.4126,70.4042 89.4126,70.2375 93.5,71C 94.8333,72 94.8333,73 93.5,74C 89.8484,74.4986 86.1817,74.6653 82.5,74.5 Z"/></g>
<g><path style="opacity:1" fill="#d9ecfc" d="M 29.5,72.5 C 31.337,72.6395 31.6704,73.3061 30.5,74.5C 29.7025,74.0431 29.3691,73.3764 29.5,72.5 Z"/></g>
<g><path style="opacity:1" fill="#e8f3fd" d="M 35.5,74.5 C 37.0173,77.4947 36.0173,78.6614 32.5,78C 34.0557,77.2798 35.0557,76.1132 35.5,74.5 Z"/></g>
<g><path style="opacity:1" fill="#6a9cd1" d="M 69.5,80.5 C 71.8568,80.3367 74.1902,80.5034 76.5,81C 95.2776,96.143 113.778,111.643 132,127.5C 133.419,131.872 132.252,135.206 128.5,137.5C 109.678,121.577 91.0113,105.411 72.5,89C 70.5952,87.5787 68.5952,86.412 66.5,85.5C 67.925,84.078 68.925,82.4113 69.5,80.5 Z"/></g>
<g><path style="opacity:0.956" fill="#e4e4e2" d="M 31.5,87.5 C 29.556,98.5798 28.8893,109.913 29.5,121.5C 28.2237,123.562 27.3903,125.896 27,128.5C 26.6667,133.5 26.3333,138.5 26,143.5C 25.4867,144.527 24.9867,145.527 24.5,146.5C 22.5,146.5 20.5,146.5 18.5,146.5C 16.1402,145.135 14.4735,143.135 13.5,140.5C 16.0277,139.834 18.6944,139.168 21.5,138.5C 18.2317,137.513 14.8984,137.18 11.5,137.5C 11.1667,135.5 10.8333,133.5 10.5,131.5C 13.5719,131.817 16.5719,131.484 19.5,130.5C 19.2907,129.914 18.9574,129.414 18.5,129C 15.408,128.264 12.408,128.431 9.5,129.5C 8.83333,127.167 8.16667,124.833 7.5,122.5C 10.5719,122.817 13.5719,122.484 16.5,121.5C 16.2907,120.914 15.9574,120.414 15.5,120C 12.408,119.264 9.40803,119.431 6.5,120.5C 5.83333,118.5 5.16667,116.5 4.5,114.5C 7.57186,114.817 10.5719,114.484 13.5,113.5C 13.2907,112.914 12.9574,112.414 12.5,112C 9.40803,111.264 6.40803,111.431 3.5,112.5C 2.06873,111.22 1.40206,109.553 1.5,107.5C 4.72159,107.892 7.72159,107.392 10.5,106C 7.27805,104.182 3.94472,104.016 0.5,105.5C 0.5,103.5 0.5,101.5 0.5,99.5C 3.89838,99.8204 7.23171,99.487 10.5,98.5C 7.57186,97.5159 4.57186,97.1826 1.5,97.5C 1.89254,95.7162 2.5592,94.0495 3.5,92.5C 6.74306,93.58 10.0764,93.7466 13.5,93C 14.8333,92.3333 14.8333,91.6667 13.5,91C 11.1902,90.5034 8.85684,90.3367 6.5,90.5C 10.9813,85.2709 16.648,83.4376 23.5,85C 25.9088,86.7068 28.5755,87.5402 31.5,87.5 Z"/></g>
<g><path style="opacity:0.991" fill="#dedede" d="M 41.5,146.5 C 39.1667,146.5 36.8333,146.5 34.5,146.5C 33.7945,139.508 32.9612,132.508 32,125.5C 31.7996,123.68 30.9663,122.347 29.5,121.5C 28.8893,109.913 29.556,98.5798 31.5,87.5C 40.8458,82.5432 49.0125,84.2098 56,92.5C 57.855,95.9352 59.0217,99.6019 59.5,103.5C 54.2465,115.093 50.0798,127.093 47,139.5C 45.3335,141.996 43.5002,144.329 41.5,146.5 Z"/></g>
<g><path style="opacity:0.926" fill="#68b3f4" d="M 66.5,85.5 C 68.5952,86.412 70.5952,87.5787 72.5,89C 91.0113,105.411 109.678,121.577 128.5,137.5C 126.151,142.477 122.485,143.644 117.5,141C 100.284,124.816 82.7835,108.983 65,93.5C 64.5045,91.5273 64.3379,89.5273 64.5,87.5C 65.1667,86.8333 65.8333,86.1667 66.5,85.5 Z"/></g>
<g><path style="opacity:0.928" fill="#69b4f5" d="M 127.5,86.5 C 127.5,93.1667 127.5,99.8333 127.5,106.5C 126.167,107.833 126.167,109.167 127.5,110.5C 127.5,111.833 127.5,113.167 127.5,114.5C 128.833,114.5 130.167,114.5 131.5,114.5C 123.284,116.474 117.45,113.474 114,105.5C 111.862,96.9475 114.695,90.7808 122.5,87C 124.134,86.5065 125.801,86.3398 127.5,86.5 Z"/></g>
<g><path style="opacity:1" fill="#5faaf3" d="M 127.5,86.5 C 141.048,88.9225 145.214,96.5891 140,109.5C 137.971,112.596 135.138,114.262 131.5,114.5C 130.167,114.5 128.833,114.5 127.5,114.5C 127.5,113.167 127.5,111.833 127.5,110.5C 132.488,109.683 135.822,106.849 137.5,102C 137.387,100.72 136.72,99.8869 135.5,99.5C 134.094,101.566 132.76,103.732 131.5,106C 130.207,106.49 128.873,106.657 127.5,106.5C 127.5,99.8333 127.5,93.1667 127.5,86.5 Z"/></g>
<g><path style="opacity:1" fill="#f5e392" d="M 6.5,90.5 C 8.85684,90.3367 11.1902,90.5034 13.5,91C 14.8333,91.6667 14.8333,92.3333 13.5,93C 10.0764,93.7466 6.74306,93.58 3.5,92.5C 3.97306,91.0937 4.97306,90.427 6.5,90.5 Z"/></g>
<g><path style="opacity:1" fill="#fafbfb" d="M 42.5,91.5 C 50.2035,93.0138 53.2035,97.5138 51.5,105C 51.1667,105.167 50.8333,105.333 50.5,105.5C 49.6858,103.234 49.1858,100.9 49,98.5C 46.7664,96.3002 44.2664,94.4669 41.5,93C 42.056,92.6174 42.3893,92.1174 42.5,91.5 Z"/></g>
<g><path style="opacity:1" fill="#f0f7fe" d="M 120.5,94.5 C 124.161,94.3501 125.161,95.8501 123.5,99C 122.207,99.49 120.873,99.6567 119.5,99.5C 119.366,97.7085 119.699,96.0418 120.5,94.5 Z"/></g>
<g><path style="opacity:1" fill="#f9e381" d="M 1.5,97.5 C 4.57186,97.1826 7.57186,97.5159 10.5,98.5C 7.23171,99.487 3.89838,99.8204 0.5,99.5C 0.32842,98.5084 0.661754,97.8417 1.5,97.5 Z"/></g>
<g><path style="opacity:1" fill="#ecf5fd" d="M 127.5,110.5 C 126.167,109.167 126.167,107.833 127.5,106.5C 128.873,106.657 130.207,106.49 131.5,106C 132.76,103.732 134.094,101.566 135.5,99.5C 136.72,99.8869 137.387,100.72 137.5,102C 135.822,106.849 132.488,109.683 127.5,110.5 Z"/></g>
<g><path style="opacity:1" fill="#f8e386" d="M 1.5,107.5 C 0.833333,107.167 0.166667,106.833 -0.5,106.5C -0.5,106.167 -0.5,105.833 -0.5,105.5C -0.166667,105.5 0.166667,105.5 0.5,105.5C 3.94472,104.016 7.27805,104.182 10.5,106C 7.72159,107.392 4.72159,107.892 1.5,107.5 Z"/></g>
<g><path style="opacity:1" fill="#f7e38d" d="M 4.5,114.5 C 3.66175,114.158 3.32842,113.492 3.5,112.5C 6.40803,111.431 9.40803,111.264 12.5,112C 12.9574,112.414 13.2907,112.914 13.5,113.5C 10.5719,114.484 7.57186,114.817 4.5,114.5 Z"/></g>
<g><path style="opacity:0.937" fill="#6ab4f5" d="M 69.5,115.5 C 69.5,122.167 69.5,128.833 69.5,135.5C 68.0857,137.598 68.7524,138.598 71.5,138.5C 70.6091,139.261 69.9424,140.261 69.5,141.5C 69.7472,142.713 70.4138,143.38 71.5,143.5C 61.6822,144.367 56.3489,139.701 55.5,129.5C 55.8402,120.493 60.5068,115.827 69.5,115.5 Z"/></g>
<g><path style="opacity:1" fill="#5faaf3" d="M 69.5,115.5 C 78.2957,115.959 83.2957,120.625 84.5,129.5C 83.7752,137.67 79.4419,142.337 71.5,143.5C 70.4138,143.38 69.7472,142.713 69.5,141.5C 69.9424,140.261 70.6091,139.261 71.5,138.5C 77.1134,137.267 79.1134,133.934 77.5,128.5C 76.1024,130.797 74.4357,132.963 72.5,135C 71.552,135.483 70.552,135.649 69.5,135.5C 69.5,128.833 69.5,122.167 69.5,115.5 Z"/></g>
<g><path style="opacity:0.956" fill="#f7e38c" d="M 7.5,122.5 C 6.66175,122.158 6.32842,121.492 6.5,120.5C 9.40803,119.431 12.408,119.264 15.5,120C 15.9574,120.414 16.2907,120.914 16.5,121.5C 13.5719,122.484 10.5719,122.817 7.5,122.5 Z"/></g>
<g><path style="opacity:1" fill="#eff7fe" d="M 61.5,123.5 C 65.6759,122.831 67.0093,124.331 65.5,128C 64.2068,128.49 62.8734,128.657 61.5,128.5C 61.5,126.833 61.5,125.167 61.5,123.5 Z"/></g>
<g><path style="opacity:1" fill="#f7e38f" d="M 10.5,131.5 C 9.66175,131.158 9.32842,130.492 9.5,129.5C 12.408,128.431 15.408,128.264 18.5,129C 18.9574,129.414 19.2907,129.914 19.5,130.5C 16.5719,131.484 13.5719,131.817 10.5,131.5 Z"/></g>
<g><path style="opacity:1" fill="#f4fafe" d="M 71.5,138.5 C 68.7524,138.598 68.0857,137.598 69.5,135.5C 70.552,135.649 71.552,135.483 72.5,135C 74.4357,132.963 76.1024,130.797 77.5,128.5C 79.1134,133.934 77.1134,137.267 71.5,138.5 Z"/></g>
<g><path style="opacity:0.931" fill="#f9e381" d="M 11.5,137.5 C 14.8984,137.18 18.2317,137.513 21.5,138.5C 18.6944,139.168 16.0277,139.834 13.5,140.5C 12.0937,140.027 11.427,139.027 11.5,137.5 Z"/></g>
</svg>
