<?xml version="1.0" encoding="UTF-8"?>
<!DOCTYPE svg PUBLIC "-//W3C//DTD SVG 1.1//EN" "http://www.w3.org/Graphics/SVG/1.1/DTD/svg11.dtd">
<svg xmlns="http://www.w3.org/2000/svg" version="1.1" width="146px" height="141px" style="shape-rendering:geometricPrecision; text-rendering:geometricPrecision; image-rendering:optimizeQuality; fill-rule:evenodd; clip-rule:evenodd" xmlns:xlink="http://www.w3.org/1999/xlink">
<g><path style="opacity:0.987" fill="#e2e2e3" d="M 43.5,-0.5 C 46.8333,-0.5 50.1667,-0.5 53.5,-0.5C 57.7384,1.95936 62.0717,4.45936 66.5,7C 67.7932,7.49001 69.1266,7.65668 70.5,7.5C 68.6007,13.8824 67.9341,20.5491 68.5,27.5C 65.1193,32.2703 63.4526,37.6036 63.5,43.5C 63.7539,49.5939 65.4206,55.2605 68.5,60.5C 68.7787,65.5947 68.4454,70.5947 67.5,75.5C 66.2502,75.5774 65.4169,76.244 65,77.5C 63.7458,81.7703 62.7458,86.1036 62,90.5C 61.6667,99.5 61.3333,108.5 61,117.5C 57.0852,127.62 50.9185,129.12 42.5,122C 40.2911,120.127 38.4578,117.96 37,115.5C 32.2153,103.684 28.0487,91.6841 24.5,79.5C 20.8221,68.4786 16.3221,57.812 11,47.5C 7.3147,31.5563 11.8147,18.3896 24.5,8C 30.4411,4.02425 36.7744,1.19092 43.5,-0.5 Z"/></g>
<g><path style="opacity:0.993" fill="#ddddde" d="M 84.5,-0.5 C 87.8333,-0.5 91.1667,-0.5 94.5,-0.5C 117.607,5.10357 128.773,19.7702 128,43.5C 126.565,50.3159 124.065,56.6492 120.5,62.5C 117.907,61.2464 115.573,59.5798 113.5,57.5C 115.681,53.0975 117.014,48.4308 117.5,43.5C 114.233,23.0108 102.233,14.5108 81.5,18C 76.3989,20.2893 72.0656,23.456 68.5,27.5C 67.9341,20.5491 68.6007,13.8824 70.5,7.5C 75.234,4.80419 79.9007,2.13752 84.5,-0.5 Z"/></g>
<g><path style="opacity:1" fill="#6cb5f4" d="M 117.5,43.5 C 116.833,43.5 116.167,43.5 115.5,43.5C 110.173,37.1659 103.506,32.8325 95.5,30.5C 92.1667,29.1667 88.8333,29.1667 85.5,30.5C 77.2593,32.4066 70.5927,36.7399 65.5,43.5C 64.8333,43.5 64.1667,43.5 63.5,43.5C 63.4526,37.6036 65.1193,32.2703 68.5,27.5C 72.0656,23.456 76.3989,20.2893 81.5,18C 102.233,14.5108 114.233,23.0108 117.5,43.5 Z"/></g>
<g><path style="opacity:1" fill="#fdfefe" d="M 33.5,20.5 C 42.6571,19.4892 46.4904,23.4892 45,32.5C 40,37.8333 35,37.8333 30,32.5C 28.7452,27.7378 29.9119,23.7378 33.5,20.5 Z"/></g>
<g><path style="opacity:1" fill="#c7e2fb" d="M 85.5,30.5 C 88.8333,29.1667 92.1667,29.1667 95.5,30.5C 94.5084,30.3284 93.8417,30.6618 93.5,31.5C 92.5,31.5 91.5,31.5 90.5,31.5C 89.5,31.5 88.5,31.5 87.5,31.5C 87.1583,30.6618 86.4916,30.3284 85.5,30.5 Z"/></g>
<g><path style="opacity:1" fill="#f7fbfe" d="M 85.5,30.5 C 86.4916,30.3284 87.1583,30.6618 87.5,31.5C 77.4905,35.2046 74.9905,41.8712 80,51.5C 83.864,55.6277 88.364,56.961 93.5,55.5C 102.426,51.8961 104.926,45.5627 101,36.5C 99.1433,33.8002 96.6433,32.1335 93.5,31.5C 93.8417,30.6618 94.5084,30.3284 95.5,30.5C 103.506,32.8325 110.173,37.1659 115.5,43.5C 98.8013,62.1108 82.1347,62.1108 65.5,43.5C 70.5927,36.7399 77.2593,32.4066 85.5,30.5 Z"/></g>
<g><path style="opacity:1" fill="#5fa7ed" d="M 90.5,31.5 C 91.5,31.5 92.5,31.5 93.5,31.5C 96.6433,32.1335 99.1433,33.8002 101,36.5C 104.926,45.5627 102.426,51.8961 93.5,55.5C 92.5,55.5 91.5,55.5 90.5,55.5C 90.5,54.1667 90.5,52.8333 90.5,51.5C 89.209,51.7373 88.209,51.404 87.5,50.5C 96.8178,50.7083 99.4845,46.5416 95.5,38C 93.3225,36.7978 90.9892,36.2978 88.5,36.5C 89.968,35.2209 90.6347,33.5542 90.5,31.5 Z"/></g>
<g><path style="opacity:1" fill="#70b6f3" d="M 87.5,31.5 C 88.5,31.5 89.5,31.5 90.5,31.5C 90.6347,33.5542 89.968,35.2209 88.5,36.5C 86.9382,36.7329 85.6049,37.3995 84.5,38.5C 83.5041,38.4142 82.6708,38.7476 82,39.5C 81.235,41.0657 81.4017,42.3991 82.5,43.5C 83.0102,46.6743 84.6769,49.0077 87.5,50.5C 88.209,51.404 89.209,51.7373 90.5,51.5C 90.5,52.8333 90.5,54.1667 90.5,55.5C 91.5,55.5 92.5,55.5 93.5,55.5C 88.364,56.961 83.864,55.6277 80,51.5C 74.9905,41.8712 77.4905,35.2046 87.5,31.5 Z"/></g>
<g><path style="opacity:1" fill="#3a4860" d="M 88.5,36.5 C 90.9892,36.2978 93.3225,36.7978 95.5,38C 99.4845,46.5416 96.8178,50.7083 87.5,50.5C 84.6769,49.0077 83.0102,46.6743 82.5,43.5C 86.8111,43.2153 87.4778,41.5487 84.5,38.5C 85.6049,37.3995 86.9382,36.7329 88.5,36.5 Z"/></g>
<g><path style="opacity:1" fill="#edf3f8" d="M 84.5,38.5 C 87.4778,41.5487 86.8111,43.2153 82.5,43.5C 81.4017,42.3991 81.235,41.0657 82,39.5C 82.6708,38.7476 83.5041,38.4142 84.5,38.5 Z"/></g>
<g><path style="opacity:1" fill="#6b9dd1" d="M 63.5,43.5 C 64.1667,43.5 64.8333,43.5 65.5,43.5C 82.1347,62.1108 98.8013,62.1108 115.5,43.5C 116.167,43.5 116.833,43.5 117.5,43.5C 117.014,48.4308 115.681,53.0975 113.5,57.5C 112.248,59.0009 111.248,60.6675 110.5,62.5C 108.46,64.177 106.46,65.8437 104.5,67.5C 90.8116,73.2649 78.8116,70.9316 68.5,60.5C 65.4206,55.2605 63.7539,49.5939 63.5,43.5 Z"/></g>
<g><path style="opacity:0.998" fill="#36435b" d="M 113.5,57.5 C 115.573,59.5798 117.907,61.2464 120.5,62.5C 123.167,65.1667 125.833,67.8333 128.5,70.5C 133.125,74.8241 137.792,79.1574 142.5,83.5C 143.728,84.3065 144.728,85.3065 145.5,86.5C 145.5,88.5 145.5,90.5 145.5,92.5C 144.728,93.6935 143.728,94.6935 142.5,95.5C 131.113,85.1141 120.446,74.1141 110.5,62.5C 111.248,60.6675 112.248,59.0009 113.5,57.5 Z"/></g>
<g><path style="opacity:1" fill="#dcdddd" d="M 68.5,60.5 C 78.8116,70.9316 90.8116,73.2649 104.5,67.5C 107.996,71.172 110.996,75.172 113.5,79.5C 110.242,91.7716 106.076,103.772 101,115.5C 97.2076,121.397 91.8743,125.064 85,126.5C 80.6188,125.114 77.9521,122.114 77,117.5C 77.3402,103.971 76.0069,90.6374 73,77.5C 71.951,75.8934 70.451,75.2267 68.5,75.5C 68.1667,75.5 67.8333,75.5 67.5,75.5C 68.4454,70.5947 68.7787,65.5947 68.5,60.5 Z"/></g>
<g><path style="opacity:0.996" fill="#404e67" d="M 110.5,62.5 C 120.446,74.1141 131.113,85.1141 142.5,95.5C 142.5,95.8333 142.5,96.1667 142.5,96.5C 139.355,98.1908 136.021,98.6908 132.5,98C 126.468,92.3021 120.801,86.3021 115.5,80C 114.906,79.5357 114.239,79.369 113.5,79.5C 110.996,75.172 107.996,71.172 104.5,67.5C 106.46,65.8437 108.46,64.177 110.5,62.5 Z"/></g>
<g><path style="opacity:0.965" fill="#69b3f3" d="M -0.5,70.5 C 9.55805,68.9618 17.8914,71.9618 24.5,79.5C 28.0487,91.6841 32.2153,103.684 37,115.5C 38.4578,117.96 40.2911,120.127 42.5,122C 50.9185,129.12 57.0852,127.62 61,117.5C 61.3333,108.5 61.6667,99.5 62,90.5C 62.7458,86.1036 63.7458,81.7703 65,77.5C 65.4169,76.244 66.2502,75.5774 67.5,75.5C 67.8333,75.5 68.1667,75.5 68.5,75.5C 68.5,97.1667 68.5,118.833 68.5,140.5C 45.5,140.5 22.5,140.5 -0.5,140.5C -0.5,117.167 -0.5,93.8333 -0.5,70.5 Z"/></g>
<g><path style="opacity:1" fill="#689ace" d="M 128.5,70.5 C 133.167,70.5 137.833,70.5 142.5,70.5C 142.5,74.8333 142.5,79.1667 142.5,83.5C 137.792,79.1574 133.125,74.8241 128.5,70.5 Z"/></g>
<g><path style="opacity:1" fill="#6a9bcf" d="M 68.5,75.5 C 70.451,75.2267 71.951,75.8934 73,77.5C 76.0069,90.6374 77.3402,103.971 77,117.5C 77.9521,122.114 80.6188,125.114 85,126.5C 91.8743,125.064 97.2076,121.397 101,115.5C 106.076,103.772 110.242,91.7716 113.5,79.5C 114.239,79.369 114.906,79.5357 115.5,80C 120.801,86.3021 126.468,92.3021 132.5,98C 136.021,98.6908 139.355,98.1908 142.5,96.5C 142.5,111.167 142.5,125.833 142.5,140.5C 117.833,140.5 93.1667,140.5 68.5,140.5C 68.5,118.833 68.5,97.1667 68.5,75.5 Z"/></g>
</svg>
