<?xml version="1.0" encoding="UTF-8"?>
<!DOCTYPE svg PUBLIC "-//W3C//DTD SVG 1.1//EN" "http://www.w3.org/Graphics/SVG/1.1/DTD/svg11.dtd">
<svg xmlns="http://www.w3.org/2000/svg" version="1.1" width="144px" height="144px" style="shape-rendering:geometricPrecision; text-rendering:geometricPrecision; image-rendering:optimizeQuality; fill-rule:evenodd; clip-rule:evenodd" xmlns:xlink="http://www.w3.org/1999/xlink">
<g><path style="opacity:0.776" fill="#69b4f5" d="M 7.5,-0.5 C 8.83333,-0.5 10.1667,-0.5 11.5,-0.5C 20.0982,3.04912 22.2649,9.04912 18,17.5C 10.8141,22.205 4.64746,21.205 -0.5,14.5C -0.5,11.8333 -0.5,9.16667 -0.5,6.5C 1.57257,3.42355 4.23924,1.09021 7.5,-0.5 Z M 9.5,3.5 C 16.8096,6.24968 17.8096,10.4163 12.5,16C 5.66667,17.1667 2.83333,14.3333 4,7.5C 5.49981,5.5313 7.33314,4.19796 9.5,3.5 Z"/></g>
<g><path style="opacity:0.769" fill="#69b4f5" d="M 29.5,0.5 C 36.0969,0.678779 38.5969,4.01211 37,10.5C 34.4406,13.3492 31.2739,14.1825 27.5,13C 23.0776,7.95244 23.7442,3.78577 29.5,0.5 Z M 30.5,4.5 C 34.0164,6.11829 34.1831,7.78496 31,9.5C 27.927,8.25163 27.7603,6.58496 30.5,4.5 Z"/></g>
<g><path style="opacity:0.783" fill="#69b4f5" d="M 106.5,1.5 C 112.631,-0.154764 116.298,2.0119 117.5,8C 116.977,12.5233 114.477,15.0233 110,15.5C 104.108,14.0534 102.108,10.3868 104,4.5C 104.698,3.30943 105.531,2.30943 106.5,1.5 Z M 108.5,5.5 C 112.023,5.18799 113.356,6.52133 112.5,9.5C 108.14,11.1403 106.807,9.80699 108.5,5.5 Z"/></g>
<g><path style="opacity:0.783" fill="#69b4f5" d="M 143.5,8.5 C 143.5,9.5 143.5,10.5 143.5,11.5C 140.99,19.0835 135.99,21.2502 128.5,18C 123.553,13.3154 123.22,8.31542 127.5,3C 134.902,-0.418939 140.235,1.41439 143.5,8.5 Z M 131.5,5.5 C 138.19,5.42236 140.19,8.2557 137.5,14C 132.749,16.7245 129.749,15.3912 128.5,10C 128.957,8.05979 129.957,6.55979 131.5,5.5 Z"/></g>
<g><path style="opacity:0.999" fill="#36435c" d="M 88.5,17.5 C 87.1927,23.9324 87.1927,30.2657 88.5,36.5C 88.5848,39.6489 87.5848,42.3155 85.5,44.5C 81.8726,42.2065 78.5393,39.5398 75.5,36.5C 79.1999,36.5403 79.8665,35.5403 77.5,33.5C 75.369,32.6862 73.0356,32.1862 70.5,32C 69.6195,31.2917 68.9528,30.4584 68.5,29.5C 72.3751,29.9155 76.0418,29.4155 79.5,28C 78.9558,27.2828 78.2891,26.7828 77.5,26.5C 73.0181,25.6745 68.3514,25.1745 63.5,25C 62.0577,24.6232 61.0577,23.7899 60.5,22.5C 66.5092,22.6662 72.5092,22.4995 78.5,22C 79.566,20.841 79.2327,20.0076 77.5,19.5C 70.3448,18.6712 63.0115,18.1712 55.5,18C 54.6195,17.2917 53.9528,16.4584 53.5,15.5C 62.3362,15.9686 71.0028,15.4686 79.5,14C 75.0065,12.8585 70.3399,12.3585 65.5,12.5C 60.9866,12.5009 56.6533,12.8343 52.5,13.5C 49.2033,13.3683 47.5367,11.7016 47.5,8.5C 48.4734,8.01328 49.4734,7.51328 50.5,7C 60.8333,6.33333 71.1667,6.33333 81.5,7C 86.0479,9.04398 88.3812,12.544 88.5,17.5 Z"/></g>
<g><path style="opacity:0.977" fill="#40506a" d="M 47.5,8.5 C 47.5367,11.7016 49.2033,13.3683 52.5,13.5C 52.8333,14.1667 53.1667,14.8333 53.5,15.5C 53.9528,16.4584 54.6195,17.2917 55.5,18C 63.0115,18.1712 70.3448,18.6712 77.5,19.5C 69.1401,19.1688 60.8068,19.5021 52.5,20.5C 52.7093,21.086 53.0426,21.586 53.5,22C 55.8098,22.4966 58.1432,22.6633 60.5,22.5C 61.0577,23.7899 62.0577,24.6232 63.5,25C 68.3514,25.1745 73.0181,25.6745 77.5,26.5C 69.1401,26.1688 60.8068,26.5021 52.5,27.5C 52.7093,28.086 53.0426,28.586 53.5,29C 58.4889,29.4993 63.4889,29.6659 68.5,29.5C 68.9528,30.4584 69.6195,31.2917 70.5,32C 73.0356,32.1862 75.369,32.6862 77.5,33.5C 69.1401,33.1688 60.8068,33.5021 52.5,34.5C 52.7093,35.086 53.0426,35.586 53.5,36C 60.8258,36.4997 68.1591,36.6663 75.5,36.5C 78.5393,39.5398 81.8726,42.2065 85.5,44.5C 84.5707,45.3149 83.5707,46.1482 82.5,47C 71.5,47.6667 60.5,47.6667 49.5,47C 46.1828,45.5198 44.1828,43.0198 43.5,39.5C 43.5,31.5 43.5,23.5 43.5,15.5C 43.9977,12.6737 45.3311,10.3403 47.5,8.5 Z"/></g>
<g><path style="opacity:1" fill="#68b2f3" d="M 53.5,15.5 C 53.1667,14.8333 52.8333,14.1667 52.5,13.5C 56.6533,12.8343 60.9866,12.5009 65.5,12.5C 70.3399,12.3585 75.0065,12.8585 79.5,14C 71.0028,15.4686 62.3362,15.9686 53.5,15.5 Z"/></g>
<g><path style="opacity:0.924" fill="#68b3f4" d="M 43.5,15.5 C 43.5,23.5 43.5,31.5 43.5,39.5C 37.254,38.9177 33.5873,35.5844 32.5,29.5C 32.5,27.8333 32.5,26.1667 32.5,24.5C 33.4454,18.2244 37.1121,15.2244 43.5,15.5 Z"/></g>
<g><path style="opacity:0.959" fill="#6db5f4" d="M 88.5,17.5 C 97.5062,17.3336 106.506,17.5002 115.5,18C 125.376,19.5444 131.876,25.0444 135,34.5C 135.5,49.8297 135.667,65.163 135.5,80.5C 129.5,80.5 123.5,80.5 117.5,80.5C 117.965,66.4021 117.465,52.4021 116,38.5C 115.5,38 115,37.5 114.5,37C 105.84,36.5002 97.1731,36.3336 88.5,36.5C 87.1927,30.2657 87.1927,23.9324 88.5,17.5 Z"/></g>
<g><path style="opacity:1" fill="#68b2f3" d="M 77.5,19.5 C 79.2327,20.0076 79.566,20.841 78.5,22C 72.5092,22.4995 66.5092,22.6662 60.5,22.5C 58.1432,22.6633 55.8098,22.4966 53.5,22C 53.0426,21.586 52.7093,21.086 52.5,20.5C 60.8068,19.5021 69.1401,19.1688 77.5,19.5 Z"/></g>
<g><path style="opacity:0.834" fill="#3f4d66" d="M 32.5,24.5 C 32.5,26.1667 32.5,27.8333 32.5,29.5C 23.4938,29.6664 14.4938,29.4998 5.5,29C 4.28891,27.8869 4.28891,26.7202 5.5,25.5C 14.4754,24.5018 23.4754,24.1685 32.5,24.5 Z"/></g>
<g><path style="opacity:1" fill="#68b2f2" d="M 77.5,26.5 C 78.2891,26.7828 78.9558,27.2828 79.5,28C 76.0418,29.4155 72.3751,29.9155 68.5,29.5C 63.4889,29.6659 58.4889,29.4993 53.5,29C 53.0426,28.586 52.7093,28.086 52.5,27.5C 60.8068,26.5021 69.1401,26.1688 77.5,26.5 Z"/></g>
<g><path style="opacity:1" fill="#eaf4fd" d="M 91.5,26.5 C 94.9571,26.6672 95.2904,27.6672 92.5,29.5C 91.6143,28.675 91.281,27.675 91.5,26.5 Z"/></g>
<g><path style="opacity:0.791" fill="#69b4f5" d="M 15.5,31.5 C 21.1527,31.9441 22.9861,34.9441 21,40.5C 14.574,43.7475 11.574,41.7475 12,34.5C 13.1451,33.3636 14.3117,32.3636 15.5,31.5 Z"/></g>
<g><path style="opacity:1" fill="#68b2f2" d="M 77.5,33.5 C 79.8665,35.5403 79.1999,36.5403 75.5,36.5C 68.1591,36.6663 60.8258,36.4997 53.5,36C 53.0426,35.586 52.7093,35.086 52.5,34.5C 60.8068,33.5021 69.1401,33.1688 77.5,33.5 Z"/></g>
<g><path style="opacity:0.767" fill="#69b4f5" d="M 2.5,38.5 C 7.83333,39.1667 10.8333,42.1667 11.5,47.5C 6.83333,46.1667 3.83333,43.1667 2.5,38.5 Z"/></g>
<g><path style="opacity:1" fill="#62a4de" d="M 53.5,39.5 C 61.5069,39.3336 69.5069,39.5003 77.5,40C 78.1667,40.6667 78.8333,41.3333 79.5,42C 70.9967,43.6333 62.3301,43.9667 53.5,43C 52.3157,41.8545 52.3157,40.6879 53.5,39.5 Z"/></g>
<g><path style="opacity:0.671" fill="#69b4f5" d="M 21.5,42.5 C 25.8526,43.3186 29.3526,45.652 32,49.5C 32.7975,51.2588 32.6309,52.9255 31.5,54.5C 26.2442,51.9269 22.9109,47.9269 21.5,42.5 Z"/></g>
<g><path style="opacity:0.642" fill="#69b4f5" d="M 95.5,45.5 C 96.8333,45.5 98.1667,45.5 99.5,45.5C 99.6567,46.8734 99.49,48.2068 99,49.5C 96.1424,53.2138 92.6424,55.8805 88.5,57.5C 88.3398,55.8008 88.5065,54.1341 89,52.5C 91.3722,50.2968 93.5389,47.9635 95.5,45.5 Z"/></g>
<g><path style="opacity:0.775" fill="#69b4f5" d="M 104.5,48.5 C 111.057,49.8746 112.89,53.5413 110,59.5C 102.011,62.8292 98.6781,60.1625 100,51.5C 101.409,50.2189 102.909,49.2189 104.5,48.5 Z M 103.5,53.5 C 107.864,53.6648 108.364,54.9981 105,57.5C 103.812,56.4366 103.312,55.1033 103.5,53.5 Z"/></g>
<g><path style="opacity:0.784" fill="#69b4f5" d="M 15.5,49.5 C 22.5598,48.7253 25.0598,51.7253 23,58.5C 19.6667,62.5 16.3333,62.5 13,58.5C 11.9271,54.9003 12.7605,51.9003 15.5,49.5 Z M 17.5,53.5 C 19.6246,54.3676 19.7913,55.3676 18,56.5C 16.3167,55.8235 16.1501,54.8235 17.5,53.5 Z"/></g>
<g><path style="opacity:0.619" fill="#69b4f5" d="M 4.5,58.5 C 9.83333,59.1667 12.8333,62.1667 13.5,67.5C 8.16667,66.8333 5.16667,63.8333 4.5,58.5 Z"/></g>
<g><path style="opacity:0.998" fill="#dfdfdf" d="M 89.5,84.5 C 82.6719,97.8104 77.5052,111.81 74,126.5C 72.0157,131.246 68.5157,134.246 63.5,135.5C 61.6171,135.124 60.1171,134.124 59,132.5C 58.9737,123.708 57.9737,115.042 56,106.5C 54.8469,104.503 53.3469,104.17 51.5,105.5C 49.1346,114.321 47.968,123.321 48,132.5C 46.4749,135.087 44.3083,135.92 41.5,135C 38.0061,133.338 35.3394,130.838 33.5,127.5C 36.5184,127.665 39.5184,127.498 42.5,127C 43.8333,126 43.8333,125 42.5,124C 39.1832,123.502 35.8499,123.335 32.5,123.5C 31.2616,121.786 30.595,119.786 30.5,117.5C 33.8333,117.5 37.1667,117.5 40.5,117.5C 40.5,116.5 40.5,115.5 40.5,114.5C 36.8333,114.5 33.1667,114.5 29.5,114.5C 28.525,111.933 27.8583,109.267 27.5,106.5C 30.5184,106.665 33.5184,106.498 36.5,106C 37.4506,105.282 37.6172,104.449 37,103.5C 33.1675,102.2 29.3342,102.2 25.5,103.5C 25.1218,101.079 24.4552,98.7457 23.5,96.5C 26.5184,96.6646 29.5184,96.498 32.5,96C 33.4506,95.2825 33.6172,94.4491 33,93.5C 29.1675,92.1998 25.3342,92.1998 21.5,93.5C 20.5,91.5 19.5,89.5 18.5,87.5C 21.8499,87.665 25.1832,87.4983 28.5,87C 28.9574,86.586 29.2907,86.086 29.5,85.5C 25.5546,84.5091 21.5546,84.1758 17.5,84.5C 17.5,82.1667 17.5,79.8333 17.5,77.5C 21.6994,78.7398 25.8661,78.7398 30,77.5C 30.6172,76.5509 30.4506,75.7175 29.5,75C 26.1832,74.5017 22.8499,74.335 19.5,74.5C 19.8925,72.7162 20.5592,71.0495 21.5,69.5C 25.446,70.5269 29.446,70.6936 33.5,70C 34.8333,69 34.8333,68 33.5,67C 30.5184,66.502 27.5184,66.3354 24.5,66.5C 29.309,61.8493 35.1423,59.1826 42,58.5C 46.044,59.7742 49.8773,61.4408 53.5,63.5C 65.1454,56.6337 75.6454,58.3003 85,68.5C 88.2192,73.3274 89.7192,78.6607 89.5,84.5 Z"/></g>
<g><path style="opacity:0.69" fill="#69b4f5" d="M 95.5,61.5 C 96.5,61.5 97.5,61.5 98.5,61.5C 97.9575,66.3764 95.2908,69.3764 90.5,70.5C 90.3433,69.1266 90.51,67.7932 91,66.5C 92.7073,64.9625 94.2073,63.2959 95.5,61.5 Z"/></g>
<g><path style="opacity:0.927" fill="#f6e38f" d="M 24.5,66.5 C 27.5184,66.3354 30.5184,66.502 33.5,67C 34.8333,68 34.8333,69 33.5,70C 29.446,70.6936 25.446,70.5269 21.5,69.5C 21.5,67.5 22.5,66.5 24.5,66.5 Z"/></g>
<g><path style="opacity:0.746" fill="#69b4f5" d="M 106.5,66.5 C 107.833,66.5 109.167,66.5 110.5,66.5C 109.392,70.1311 107.226,73.1311 104,75.5C 102.56,74.0696 102.226,72.403 103,70.5C 104.376,69.2949 105.542,67.9616 106.5,66.5 Z"/></g>
<g><path style="opacity:0.935" fill="#f6e390" d="M 19.5,74.5 C 22.8499,74.335 26.1832,74.5017 29.5,75C 30.4506,75.7175 30.6172,76.5509 30,77.5C 25.8661,78.7398 21.6994,78.7398 17.5,77.5C 17.427,75.9731 18.0937,74.9731 19.5,74.5 Z"/></g>
<g><path style="opacity:1" fill="#f0f8fe" d="M 125.5,75.5 C 128.957,75.6672 129.29,76.6672 126.5,78.5C 125.614,77.675 125.281,76.675 125.5,75.5 Z"/></g>
<g><path style="opacity:0.975" fill="#6ab3f3" d="M 17.5,84.5 C 17.5569,85.609 17.8902,86.609 18.5,87.5C 19.5,89.5 20.5,91.5 21.5,93.5C 21.427,95.0269 22.0937,96.0269 23.5,96.5C 24.4552,98.7457 25.1218,101.079 25.5,103.5C 25.427,105.027 26.0937,106.027 27.5,106.5C 27.8583,109.267 28.525,111.933 29.5,114.5C 29.2627,115.791 29.596,116.791 30.5,117.5C 30.595,119.786 31.2616,121.786 32.5,123.5C 31.0462,125.263 31.3796,126.597 33.5,127.5C 35.3394,130.838 38.0061,133.338 41.5,135C 44.3083,135.92 46.4749,135.087 48,132.5C 47.968,123.321 49.1346,114.321 51.5,105.5C 53.3469,104.17 54.8469,104.503 56,106.5C 57.9737,115.042 58.9737,123.708 59,132.5C 60.1171,134.124 61.6171,135.124 63.5,135.5C 68.5157,134.246 72.0157,131.246 74,126.5C 77.5052,111.81 82.6719,97.8104 89.5,84.5C 93.8372,81.0542 98.8372,79.3875 104.5,79.5C 104.5,100.833 104.5,122.167 104.5,143.5C 70.5,143.5 36.5,143.5 2.5,143.5C 2.5,122.167 2.5,100.833 2.5,79.5C 8.13373,79.3779 13.1337,81.0446 17.5,84.5 Z"/></g>
<g><path style="opacity:0.963" fill="#3e4e69" d="M 117.5,80.5 C 123.5,80.5 129.5,80.5 135.5,80.5C 137.074,82.1016 137.741,84.1016 137.5,86.5C 130.167,86.5 122.833,86.5 115.5,86.5C 116.048,84.3736 116.715,82.3736 117.5,80.5 Z"/></g>
<g><path style="opacity:0.998" fill="#f9e382" d="M 17.5,84.5 C 21.5546,84.1758 25.5546,84.5091 29.5,85.5C 29.2907,86.086 28.9574,86.586 28.5,87C 25.1832,87.4983 21.8499,87.665 18.5,87.5C 17.8902,86.609 17.5569,85.609 17.5,84.5 Z"/></g>
<g><path style="opacity:0.956" fill="#f9e37f" d="M 115.5,86.5 C 122.833,86.5 130.167,86.5 137.5,86.5C 138.833,87.5 138.833,88.5 137.5,89.5C 130.167,89.5 122.833,89.5 115.5,89.5C 114.375,88.6522 114.375,87.6522 115.5,86.5 Z"/></g>
<g><path style="opacity:0.97" fill="#3d4a63" d="M 115.5,89.5 C 122.833,89.5 130.167,89.5 137.5,89.5C 137.674,91.861 138.007,94.1944 138.5,96.5C 134.5,96.5 130.5,96.5 126.5,96.5C 126.5,97.5 126.5,98.5 126.5,99.5C 130.5,99.5 134.5,99.5 138.5,99.5C 138.5,100.833 138.5,102.167 138.5,103.5C 134.297,103.076 130.297,103.576 126.5,105C 130.635,106.431 134.968,106.931 139.5,106.5C 139.5,107.833 139.5,109.167 139.5,110.5C 135.818,110.335 132.152,110.501 128.5,111C 127.167,112 127.167,113 128.5,114C 132.152,114.499 135.818,114.665 139.5,114.5C 140.434,115.568 140.768,116.901 140.5,118.5C 136.5,118.5 132.5,118.5 128.5,118.5C 128.5,119.5 128.5,120.5 128.5,121.5C 132.5,121.5 136.5,121.5 140.5,121.5C 140.5,122.833 140.5,124.167 140.5,125.5C 136.297,125.076 132.297,125.576 128.5,127C 132.635,128.431 136.968,128.931 141.5,128.5C 141.5,129.833 141.5,131.167 141.5,132.5C 137.818,132.335 134.152,132.501 130.5,133C 129.167,134 129.167,135 130.5,136C 134.152,136.499 137.818,136.665 141.5,136.5C 142.461,138.265 142.795,140.265 142.5,142.5C 131.833,142.5 121.167,142.5 110.5,142.5C 112.346,124.86 114.013,107.193 115.5,89.5 Z"/></g>
<g><path style="opacity:1" fill="#f6e38f" d="M 23.5,96.5 C 22.0937,96.0269 21.427,95.0269 21.5,93.5C 25.3342,92.1998 29.1675,92.1998 33,93.5C 33.6172,94.4491 33.4506,95.2825 32.5,96C 29.5184,96.498 26.5184,96.6646 23.5,96.5 Z"/></g>
<g><path style="opacity:0.963" fill="#67b1f1" d="M 138.5,96.5 C 139.625,97.3478 139.625,98.3478 138.5,99.5C 134.5,99.5 130.5,99.5 126.5,99.5C 126.5,98.5 126.5,97.5 126.5,96.5C 130.5,96.5 134.5,96.5 138.5,96.5 Z"/></g>
<g><path style="opacity:1" fill="#f5e390" d="M 27.5,106.5 C 26.0937,106.027 25.427,105.027 25.5,103.5C 29.3342,102.2 33.1675,102.2 37,103.5C 37.6172,104.449 37.4506,105.282 36.5,106C 33.5184,106.498 30.5184,106.665 27.5,106.5 Z"/></g>
<g><path style="opacity:0.96" fill="#68b2f2" d="M 138.5,103.5 C 140.481,104.105 140.815,105.105 139.5,106.5C 134.968,106.931 130.635,106.431 126.5,105C 130.297,103.576 134.297,103.076 138.5,103.5 Z"/></g>
<g><path style="opacity:0.969" fill="#61a2dd" d="M 139.5,110.5 C 140.833,111.833 140.833,113.167 139.5,114.5C 135.818,114.665 132.152,114.499 128.5,114C 127.167,113 127.167,112 128.5,111C 132.152,110.501 135.818,110.335 139.5,110.5 Z"/></g>
<g><path style="opacity:1" fill="#f8e387" d="M 29.5,114.5 C 33.1667,114.5 36.8333,114.5 40.5,114.5C 40.5,115.5 40.5,116.5 40.5,117.5C 37.1667,117.5 33.8333,117.5 30.5,117.5C 29.596,116.791 29.2627,115.791 29.5,114.5 Z"/></g>
<g><path style="opacity:0.941" fill="#68b1f2" d="M 140.5,118.5 C 141.833,119.5 141.833,120.5 140.5,121.5C 136.5,121.5 132.5,121.5 128.5,121.5C 128.5,120.5 128.5,119.5 128.5,118.5C 132.5,118.5 136.5,118.5 140.5,118.5 Z"/></g>
<g><path style="opacity:1" fill="#f3e290" d="M 32.5,123.5 C 35.8499,123.335 39.1832,123.502 42.5,124C 43.8333,125 43.8333,126 42.5,127C 39.5184,127.498 36.5184,127.665 33.5,127.5C 31.3796,126.597 31.0462,125.263 32.5,123.5 Z"/></g>
<g><path style="opacity:1" fill="#67b1f1" d="M 140.5,125.5 C 142.481,126.105 142.815,127.105 141.5,128.5C 136.968,128.931 132.635,128.431 128.5,127C 132.297,125.576 136.297,125.076 140.5,125.5 Z"/></g>
<g><path style="opacity:0.969" fill="#61a3de" d="M 141.5,132.5 C 142.833,133.833 142.833,135.167 141.5,136.5C 137.818,136.665 134.152,136.499 130.5,136C 129.167,135 129.167,134 130.5,133C 134.152,132.501 137.818,132.335 141.5,132.5 Z"/></g>
</svg>
