<?xml version="1.0" encoding="UTF-8"?>
<!DOCTYPE svg PUBLIC "-//W3C//DTD SVG 1.1//EN" "http://www.w3.org/Graphics/SVG/1.1/DTD/svg11.dtd">
<svg xmlns="http://www.w3.org/2000/svg" version="1.1" width="145px" height="145px" style="shape-rendering:geometricPrecision; text-rendering:geometricPrecision; image-rendering:optimizeQuality; fill-rule:evenodd; clip-rule:evenodd" xmlns:xlink="http://www.w3.org/1999/xlink">
<g><path style="opacity:0.85" fill="#62b4f4" d="M 70.5,-0.5 C 71.8333,-0.5 73.1667,-0.5 74.5,-0.5C 79.3757,2.36123 80.5424,6.36123 78,11.5C 77.1841,12.8228 76.0174,13.4894 74.5,13.5C 73.1667,13.5 71.8333,13.5 70.5,13.5C 66.8075,12.966 65.1408,10.7993 65.5,7C 65.4257,3.25608 67.0923,0.756084 70.5,-0.5 Z"/></g>
<g><path style="opacity:0.817" fill="#61b4f3" d="M 12.5,14.5 C 11.1667,14.5 9.83333,14.5 8.5,14.5C 5.14713,13.4876 3.48046,11.1542 3.5,7.5C 4.98707,0.614262 8.98707,-1.21907 15.5,2C 17.3933,4.91716 17.8933,8.08383 17,11.5C 15.871,13.1412 14.371,14.1412 12.5,14.5 Z"/></g>
<g><path style="opacity:0.836" fill="#61b4f3" d="M 32.5,14.5 C 31.1667,14.5 29.8333,14.5 28.5,14.5C 22.0489,11.646 21.0489,7.47931 25.5,2C 31.8381,-1.22412 35.8381,0.609209 37.5,7.5C 37.0369,10.7822 35.3702,13.1155 32.5,14.5 Z"/></g>
<g><path style="opacity:0.831" fill="#61b4f3" d="M 54.5,14.5 C 53.1667,14.5 51.8333,14.5 50.5,14.5C 44.3192,10.549 43.9859,6.049 49.5,1C 57.8905,-0.275021 61.0571,3.22498 59,11.5C 57.871,13.1412 56.371,14.1412 54.5,14.5 Z"/></g>
<g><path style="opacity:0.993" fill="#75bff7" d="M 112.5,4.5 C 114.276,10.902 115.443,17.5687 116,24.5C 116.297,21.086 116.964,17.7527 118,14.5C 118.667,13.1667 119.333,13.1667 120,14.5C 119.944,18.8493 119.444,23.1827 118.5,27.5C 113.167,27.5 107.833,27.5 102.5,27.5C 100.011,19.2111 97.6778,10.8778 95.5,2.5C 97.8273,2.24707 99.8273,2.91374 101.5,4.5C 105.311,1.90042 108.978,1.90042 112.5,4.5 Z"/></g>
<g><path style="opacity:0.931" fill="#69b4f5" d="M 124.5,27.5 C 124.167,27.5 123.833,27.5 123.5,27.5C 121.833,27.5 120.167,27.5 118.5,27.5C 119.444,23.1827 119.944,18.8493 120,14.5C 119.333,13.1667 118.667,13.1667 118,14.5C 116.964,17.7527 116.297,21.086 116,24.5C 115.443,17.5687 114.276,10.902 112.5,4.5C 116.838,1.94293 121.172,1.94293 125.5,4.5C 127.323,3.25279 129.323,2.58613 131.5,2.5C 129.37,10.8913 127.036,19.2246 124.5,27.5 Z"/></g>
<g><path style="opacity:0.81" fill="#414f68" d="M 8.5,14.5 C 9.83333,14.5 11.1667,14.5 12.5,14.5C 12.5,21.1667 12.5,27.8333 12.5,34.5C 11.9202,36.7488 10.5869,38.4154 8.5,39.5C 8.5,31.1667 8.5,22.8333 8.5,14.5 Z"/></g>
<g><path style="opacity:0.825" fill="#3f4d66" d="M 28.5,14.5 C 29.8333,14.5 31.1667,14.5 32.5,14.5C 32.5,18.1667 32.5,21.8333 32.5,25.5C 31.4324,26.4345 30.099,26.7678 28.5,26.5C 28.5,22.5 28.5,18.5 28.5,14.5 Z"/></g>
<g><path style="opacity:0.813" fill="#404e67" d="M 50.5,14.5 C 51.8333,14.5 53.1667,14.5 54.5,14.5C 54.5,20.5 54.5,26.5 54.5,32.5C 54.1583,33.3382 53.4916,33.6716 52.5,33.5C 51.5,33.1667 50.8333,32.5 50.5,31.5C 50.5,25.8333 50.5,20.1667 50.5,14.5 Z"/></g>
<g><path style="opacity:0.74" fill="#42506a" d="M 70.5,13.5 C 71.8333,13.5 73.1667,13.5 74.5,13.5C 74.5,17.8333 74.5,22.1667 74.5,26.5C 72.901,26.7678 71.5676,26.4345 70.5,25.5C 70.5,21.5 70.5,17.5 70.5,13.5 Z"/></g>
<g><path style="opacity:0.977" fill="#e2e3e3" d="M 32.5,25.5 C 35.6074,25.3512 38.6074,25.8512 41.5,27C 44.5531,28.5266 47.5531,30.0266 50.5,31.5C 50.8333,32.5 51.5,33.1667 52.5,33.5C 52.5,52.5 52.5,71.5 52.5,90.5C 51.8501,90.8039 51.1835,91.1373 50.5,91.5C 49.3591,94.0618 48.5257,96.7284 48,99.5C 46.8502,108.791 46.1835,118.124 46,127.5C 45.572,132.096 43.072,134.429 38.5,134.5C 35.1101,133.97 32.1101,132.637 29.5,130.5C 31.9479,129.527 34.6146,129.194 37.5,129.5C 37.5,128.5 37.5,127.5 37.5,126.5C 33.8333,126.5 30.1667,126.5 26.5,126.5C 24.127,124.421 22.7936,121.754 22.5,118.5C 25.5,118.5 28.5,118.5 31.5,118.5C 31.5,117.5 31.5,116.5 31.5,115.5C 27.8333,115.5 24.1667,115.5 20.5,115.5C 19.6766,112.539 19.01,109.539 18.5,106.5C 21.1873,106.664 23.854,106.497 26.5,106C 27.3366,104.989 27.67,103.822 27.5,102.5C 23.8333,102.5 20.1667,102.5 16.5,102.5C 16.3003,99.3704 15.6336,96.3704 14.5,93.5C 18.3751,93.9155 22.0418,93.4155 25.5,92C 21.7032,90.5761 17.7032,90.0761 13.5,90.5C 12.2163,87.5982 11.2163,84.5982 10.5,81.5C 13.7216,81.8919 16.7216,81.3919 19.5,80C 16.0418,78.5845 12.3751,78.0845 8.5,78.5C 6.57973,75.6612 4.91306,72.6612 3.5,69.5C 6.83333,69.5 10.1667,69.5 13.5,69.5C 13.67,68.1779 13.3366,67.0113 12.5,66C 9.07639,65.2534 5.74306,65.42 2.5,66.5C 2.03714,63.5176 1.70381,60.5176 1.5,57.5C 4.51838,57.6646 7.51838,57.498 10.5,57C 11.8333,56 11.8333,55 10.5,54C 7.85397,53.5026 5.1873,53.3359 2.5,53.5C 2.55975,50.6592 3.22642,47.9925 4.5,45.5C 8.37513,45.9155 12.0418,45.4155 15.5,44C 12.5,42.9261 9.49999,42.0928 6.5,41.5C 7.16667,40.8333 7.83333,40.1667 8.5,39.5C 10.5869,38.4154 11.9202,36.7488 12.5,34.5C 17.2754,30.7789 22.6088,28.1123 28.5,26.5C 30.099,26.7678 31.4324,26.4345 32.5,25.5 Z"/></g>
<g><path style="opacity:0.996" fill="#ddddde" d="M 70.5,25.5 C 71.5676,26.4345 72.901,26.7678 74.5,26.5C 79.5747,27.038 84.2414,28.7046 88.5,31.5C 87.8717,34.09 86.705,36.4234 85,38.5C 84.5065,40.1341 84.3398,41.8008 84.5,43.5C 80.1161,43.8256 75.7828,43.4922 71.5,42.5C 68.698,38.2514 65.0313,37.4181 60.5,40C 56.8311,48.3364 59.4978,52.003 68.5,51C 69.6872,49.9805 70.6872,48.8139 71.5,47.5C 75.7828,46.5078 80.1161,46.1744 84.5,46.5C 84.5,47.5 84.5,48.5 84.5,49.5C 82.1667,49.5 79.8333,49.5 77.5,49.5C 77.5,54.8333 77.5,60.1667 77.5,65.5C 76.5,65.5 75.5,65.5 74.5,65.5C 70.1667,65.5 65.8333,65.5 61.5,65.5C 61.5,69.8333 61.5,74.1667 61.5,78.5C 66.8333,78.5 72.1667,78.5 77.5,78.5C 77.5,78.8333 77.5,79.1667 77.5,79.5C 77.5,84.5 77.5,89.5 77.5,94.5C 79.5,94.5 81.5,94.5 83.5,94.5C 83.5,96.1667 83.5,97.8333 83.5,99.5C 82.1854,100.895 82.5188,101.895 84.5,102.5C 84.7556,105.598 85.4222,108.598 86.5,111.5C 84.4322,118.837 80.7655,125.337 75.5,131C 65.3528,137.701 59.6861,135.035 58.5,123C 59.5324,112.291 58.3657,101.791 55,91.5C 54.3292,90.7476 53.4959,90.4142 52.5,90.5C 52.5,71.5 52.5,52.5 52.5,33.5C 53.4916,33.6716 54.1583,33.3382 54.5,32.5C 59.0916,28.539 64.4249,26.2057 70.5,25.5 Z"/></g>
<g><path style="opacity:1" fill="#495c77" d="M 102.5,27.5 C 107.833,27.5 113.167,27.5 118.5,27.5C 120.167,27.5 121.833,27.5 123.5,27.5C 120.038,28.4816 116.371,28.815 112.5,28.5C 112.5,33.5 112.5,38.5 112.5,43.5C 110.824,42.8166 110.157,41.4832 110.5,39.5C 109.5,39.5 108.5,39.5 107.5,39.5C 107.5,40.8333 107.5,42.1667 107.5,43.5C 105.5,43.5 103.5,43.5 101.5,43.5C 101.5,42.1667 101.5,40.8333 101.5,39.5C 100.5,39.5 99.5,39.5 98.5,39.5C 98.5,40.8333 98.5,42.1667 98.5,43.5C 96.8333,43.5 95.1667,43.5 93.5,43.5C 93.5,42.1667 93.5,40.8333 93.5,39.5C 92.5,39.5 91.5,39.5 90.5,39.5C 90.5,40.8333 90.5,42.1667 90.5,43.5C 88.5,43.5 86.5,43.5 84.5,43.5C 84.3398,41.8008 84.5065,40.1341 85,38.5C 86.705,36.4234 87.8717,34.09 88.5,31.5C 90.7802,30.3599 93.1136,29.1932 95.5,28C 97.8098,27.5034 100.143,27.3367 102.5,27.5 Z"/></g>
<g><path style="opacity:0.965" fill="#3f4e67" d="M 123.5,27.5 C 123.833,27.5 124.167,27.5 124.5,27.5C 135.423,27.4528 141.756,32.7861 143.5,43.5C 141.5,43.5 139.5,43.5 137.5,43.5C 136.5,36.8333 135.5,36.8333 134.5,43.5C 132.5,43.5 130.5,43.5 128.5,43.5C 127.5,36.8333 126.5,36.8333 125.5,43.5C 123.5,43.5 121.5,43.5 119.5,43.5C 118.5,36.8333 117.5,36.8333 116.5,43.5C 115.167,43.5 113.833,43.5 112.5,43.5C 112.5,38.5 112.5,33.5 112.5,28.5C 116.371,28.815 120.038,28.4816 123.5,27.5 Z"/></g>
<g><path style="opacity:0.996" fill="#6ab3f2" d="M 84.5,43.5 C 86.5,43.5 88.5,43.5 90.5,43.5C 90.5,42.1667 90.5,40.8333 90.5,39.5C 91.5,39.5 92.5,39.5 93.5,39.5C 93.5,40.8333 93.5,42.1667 93.5,43.5C 95.1667,43.5 96.8333,43.5 98.5,43.5C 98.5,42.1667 98.5,40.8333 98.5,39.5C 99.5,39.5 100.5,39.5 101.5,39.5C 101.5,40.8333 101.5,42.1667 101.5,43.5C 103.5,43.5 105.5,43.5 107.5,43.5C 107.5,42.1667 107.5,40.8333 107.5,39.5C 108.5,39.5 109.5,39.5 110.5,39.5C 110.157,41.4832 110.824,42.8166 112.5,43.5C 113.833,43.5 115.167,43.5 116.5,43.5C 117.5,36.8333 118.5,36.8333 119.5,43.5C 121.5,43.5 123.5,43.5 125.5,43.5C 126.5,36.8333 127.5,36.8333 128.5,43.5C 130.5,43.5 132.5,43.5 134.5,43.5C 135.5,36.8333 136.5,36.8333 137.5,43.5C 139.5,43.5 141.5,43.5 143.5,43.5C 143.5,44.1667 143.833,44.5 144.5,44.5C 144.5,45.1667 144.5,45.8333 144.5,46.5C 144.167,46.5 143.833,46.5 143.5,46.5C 143.167,46.5 142.833,46.5 142.5,46.5C 123.167,46.5 103.833,46.5 84.5,46.5C 80.1161,46.1744 75.7828,46.5078 71.5,47.5C 70.6872,48.8139 69.6872,49.9805 68.5,51C 59.4978,52.003 56.8311,48.3364 60.5,40C 65.0313,37.4181 68.698,38.2514 71.5,42.5C 75.7828,43.4922 80.1161,43.8256 84.5,43.5 Z"/></g>
<g><path style="opacity:0.903" fill="#6bb4f4" d="M 6.5,41.5 C 9.49999,42.0928 12.5,42.9261 15.5,44C 12.0418,45.4155 8.37513,45.9155 4.5,45.5C 3.71087,45.2172 3.0442,44.7172 2.5,44C 3.47088,42.5187 4.80422,41.6854 6.5,41.5 Z"/></g>
<g><path style="opacity:1" fill="#d5dadf" d="M 63.5,41.5 C 67.9346,41.7521 69.268,43.9188 67.5,48C 61.7377,48.4178 60.4044,46.2511 63.5,41.5 Z"/></g>
<g><path style="opacity:1" fill="#fdfefe" d="M 17.5,44.5 C 27.3094,44.1383 29.9761,48.3049 25.5,57C 16.7379,59.9102 13.2379,56.7436 15,47.5C 16.045,46.6266 16.8783,45.6266 17.5,44.5 Z"/></g>
<g><path style="opacity:1" fill="#495c77" d="M 84.5,46.5 C 103.833,46.5 123.167,46.5 142.5,46.5C 133.014,47.4938 123.348,47.8271 113.5,47.5C 113.261,49.4672 113.594,51.3005 114.5,53C 114,53.5 113.5,54 113,54.5C 113.075,60.7059 112.908,66.8726 112.5,73C 112.376,75.59 113.042,77.9233 114.5,80C 114,80.5 113.5,81 113,81.5C 112.979,87.225 112.813,92.8917 112.5,98.5C 122.681,98.1726 132.681,98.506 142.5,99.5C 122.833,99.5 103.167,99.5 83.5,99.5C 83.5,97.8333 83.5,96.1667 83.5,94.5C 86.0593,94.8016 88.3926,94.4682 90.5,93.5C 90.5,88.5 90.5,83.5 90.5,78.5C 95.8333,78.5 101.167,78.5 106.5,78.5C 106.5,74.1667 106.5,69.8333 106.5,65.5C 101.167,65.5 95.8333,65.5 90.5,65.5C 90.5,60.1667 90.5,54.8333 90.5,49.5C 88.5,49.5 86.5,49.5 84.5,49.5C 84.5,48.5 84.5,47.5 84.5,46.5 Z"/></g>
<g><path style="opacity:0.972" fill="#3f4e67" d="M 142.5,46.5 C 142.833,46.5 143.167,46.5 143.5,46.5C 143.5,64.1667 143.5,81.8333 143.5,99.5C 143.167,99.5 142.833,99.5 142.5,99.5C 132.681,98.506 122.681,98.1726 112.5,98.5C 112.813,92.8917 112.979,87.225 113,81.5C 113.5,81 114,80.5 114.5,80C 113.042,77.9233 112.376,75.59 112.5,73C 112.908,66.8726 113.075,60.7059 113,54.5C 113.5,54 114,53.5 114.5,53C 113.594,51.3005 113.261,49.4672 113.5,47.5C 123.348,47.8271 133.014,47.4938 142.5,46.5 Z"/></g>
<g><path style="opacity:1" fill="#f5c67c" d="M 84.5,49.5 C 86.5,49.5 88.5,49.5 90.5,49.5C 90.5,54.8333 90.5,60.1667 90.5,65.5C 89.5128,60.6946 89.1795,55.6946 89.5,50.5C 85.8333,50.5 82.1667,50.5 78.5,50.5C 78.8205,55.6946 78.4872,60.6946 77.5,65.5C 77.5,60.1667 77.5,54.8333 77.5,49.5C 79.8333,49.5 82.1667,49.5 84.5,49.5 Z"/></g>
<g><path style="opacity:0.893" fill="#7ab9f2" d="M 2.5,53.5 C 5.1873,53.3359 7.85397,53.5026 10.5,54C 11.8333,55 11.8333,56 10.5,57C 7.51838,57.498 4.51838,57.6646 1.5,57.5C 0.833333,57.1667 0.166667,56.8333 -0.5,56.5C -0.5,55.8333 -0.5,55.1667 -0.5,54.5C 0.391047,53.8902 1.39105,53.5569 2.5,53.5 Z"/></g>
<g><path style="opacity:1" fill="#68b2f3" d="M 123.5,53.5 C 128.28,52.6409 131.78,54.3075 134,58.5C 134.667,67.8333 134.667,77.1667 134,86.5C 131.459,91.0685 127.625,92.5685 122.5,91C 120.951,89.786 119.785,88.286 119,86.5C 118.333,77.1667 118.333,67.8333 119,58.5C 120.025,56.313 121.525,54.6464 123.5,53.5 Z"/></g>
<g><path style="opacity:1" fill="#f9e588" d="M 90.5,65.5 C 95.8333,65.5 101.167,65.5 106.5,65.5C 106.5,69.8333 106.5,74.1667 106.5,78.5C 101.167,78.5 95.8333,78.5 90.5,78.5C 90.5,83.5 90.5,88.5 90.5,93.5C 86.5,93.5 82.5,93.5 78.5,93.5C 78.8195,88.6367 78.4861,83.97 77.5,79.5C 77.5,79.1667 77.5,78.8333 77.5,78.5C 72.6946,77.5128 67.6946,77.1795 62.5,77.5C 62.5,73.8333 62.5,70.1667 62.5,66.5C 66.7016,66.8168 70.7016,66.4834 74.5,65.5C 75.5,65.5 76.5,65.5 77.5,65.5C 78.4872,60.6946 78.8205,55.6946 78.5,50.5C 82.1667,50.5 85.8333,50.5 89.5,50.5C 89.1795,55.6946 89.5128,60.6946 90.5,65.5 Z"/></g>
<g><path style="opacity:0.886" fill="#7bbaf2" d="M 3.5,69.5 C 1.61818,68.779 1.28485,67.779 2.5,66.5C 5.74306,65.42 9.07639,65.2534 12.5,66C 13.3366,67.0113 13.67,68.1779 13.5,69.5C 10.1667,69.5 6.83333,69.5 3.5,69.5 Z"/></g>
<g><path style="opacity:1" fill="#f7ca89" d="M 74.5,65.5 C 70.7016,66.4834 66.7016,66.8168 62.5,66.5C 62.5,70.1667 62.5,73.8333 62.5,77.5C 67.6946,77.1795 72.6946,77.5128 77.5,78.5C 72.1667,78.5 66.8333,78.5 61.5,78.5C 61.5,74.1667 61.5,69.8333 61.5,65.5C 65.8333,65.5 70.1667,65.5 74.5,65.5 Z"/></g>
<g><path style="opacity:0.94" fill="#69b4f4" d="M 8.5,78.5 C 12.3751,78.0845 16.0418,78.5845 19.5,80C 16.7216,81.3919 13.7216,81.8919 10.5,81.5C 9.5,81.5 8.5,81.5 7.5,81.5C 7.26269,80.209 7.59603,79.209 8.5,78.5 Z"/></g>
<g><path style="opacity:1" fill="#efc08c" d="M 77.5,79.5 C 78.4861,83.97 78.8195,88.6367 78.5,93.5C 82.5,93.5 86.5,93.5 90.5,93.5C 88.3926,94.4682 86.0593,94.8016 83.5,94.5C 81.5,94.5 79.5,94.5 77.5,94.5C 77.5,89.5 77.5,84.5 77.5,79.5 Z"/></g>
<g><path style="opacity:0.952" fill="#6cb5f4" d="M 13.5,90.5 C 17.7032,90.0761 21.7032,90.5761 25.5,92C 22.0418,93.4155 18.3751,93.9155 14.5,93.5C 12.5188,92.8946 12.1854,91.8946 13.5,90.5 Z"/></g>
<g><path style="opacity:0.994" fill="#67afef" d="M 83.5,99.5 C 103.167,99.5 122.833,99.5 142.5,99.5C 142.833,99.5 143.167,99.5 143.5,99.5C 143.833,99.5 144.167,99.5 144.5,99.5C 144.5,100.167 144.5,100.833 144.5,101.5C 143.833,101.5 143.5,101.833 143.5,102.5C 141.5,102.5 139.5,102.5 137.5,102.5C 137.884,104.665 137.217,106.332 135.5,107.5C 133.783,106.332 133.116,104.665 133.5,102.5C 131.833,102.5 130.167,102.5 128.5,102.5C 128.884,104.665 128.217,106.332 126.5,107.5C 124.783,106.332 124.116,104.665 124.5,102.5C 122.833,102.5 121.167,102.5 119.5,102.5C 119.884,104.665 119.217,106.332 117.5,107.5C 115.783,106.332 115.116,104.665 115.5,102.5C 113.833,102.5 112.167,102.5 110.5,102.5C 109.5,109.167 108.5,109.167 107.5,102.5C 105.5,102.5 103.5,102.5 101.5,102.5C 100.5,109.167 99.5,109.167 98.5,102.5C 96.5,102.5 94.5,102.5 92.5,102.5C 92.7852,104.288 92.4519,105.955 91.5,107.5C 89.7826,106.332 89.1159,104.665 89.5,102.5C 87.8333,102.5 86.1667,102.5 84.5,102.5C 82.5188,101.895 82.1854,100.895 83.5,99.5 Z"/></g>
<g><path style="opacity:0.908" fill="#7bbaf2" d="M 16.5,102.5 C 20.1667,102.5 23.8333,102.5 27.5,102.5C 27.67,103.822 27.3366,104.989 26.5,106C 23.854,106.497 21.1873,106.664 18.5,106.5C 16.2381,105.655 15.5714,104.322 16.5,102.5 Z"/></g>
<g><path style="opacity:0.963" fill="#42516a" d="M 84.5,102.5 C 86.1667,102.5 87.8333,102.5 89.5,102.5C 89.1159,104.665 89.7826,106.332 91.5,107.5C 92.4519,105.955 92.7852,104.288 92.5,102.5C 94.5,102.5 96.5,102.5 98.5,102.5C 99.5,109.167 100.5,109.167 101.5,102.5C 103.5,102.5 105.5,102.5 107.5,102.5C 108.5,109.167 109.5,109.167 110.5,102.5C 112.167,102.5 113.833,102.5 115.5,102.5C 115.116,104.665 115.783,106.332 117.5,107.5C 119.217,106.332 119.884,104.665 119.5,102.5C 121.167,102.5 122.833,102.5 124.5,102.5C 124.116,104.665 124.783,106.332 126.5,107.5C 128.217,106.332 128.884,104.665 128.5,102.5C 130.167,102.5 131.833,102.5 133.5,102.5C 133.116,104.665 133.783,106.332 135.5,107.5C 137.217,106.332 137.884,104.665 137.5,102.5C 139.5,102.5 141.5,102.5 143.5,102.5C 142.032,113.636 135.699,118.969 124.5,118.5C 122.5,118.5 120.5,118.5 118.5,118.5C 113.5,118.5 108.5,118.5 103.5,118.5C 96.3178,119.449 90.6512,117.116 86.5,111.5C 85.4222,108.598 84.7556,105.598 84.5,102.5 Z"/></g>
<g><path style="opacity:0.898" fill="#71b6f4" d="M 20.5,115.5 C 24.1667,115.5 27.8333,115.5 31.5,115.5C 31.5,116.5 31.5,117.5 31.5,118.5C 28.5,118.5 25.5,118.5 22.5,118.5C 19.9486,118.332 19.2819,117.332 20.5,115.5 Z"/></g>
<g><path style="opacity:0.994" fill="#74bef6" d="M 103.5,118.5 C 108.5,118.5 113.5,118.5 118.5,118.5C 119.428,123.154 119.928,127.821 120,132.5C 119.333,133.833 118.667,133.833 118,132.5C 117.118,129.211 116.452,125.877 116,122.5C 114.738,129.244 113.238,135.911 111.5,142.5C 111.167,143.167 110.833,143.833 110.5,144.5C 108.833,144.5 107.167,144.5 105.5,144.5C 104.866,143.053 103.699,142.387 102,142.5C 100.301,142.387 99.1342,143.053 98.5,144.5C 97.5,144.5 96.5,144.5 95.5,144.5C 97.8597,135.725 100.526,127.058 103.5,118.5 Z"/></g>
<g><path style="opacity:0.918" fill="#69b4f5" d="M 118.5,118.5 C 120.5,118.5 122.5,118.5 124.5,118.5C 127.246,127.068 129.579,135.735 131.5,144.5C 130.833,144.5 130.167,144.5 129.5,144.5C 126.833,141.833 124.167,141.833 121.5,144.5C 120.167,144.5 118.833,144.5 117.5,144.5C 115.898,142.926 113.898,142.259 111.5,142.5C 113.238,135.911 114.738,129.244 116,122.5C 116.452,125.877 117.118,129.211 118,132.5C 118.667,133.833 119.333,133.833 120,132.5C 119.928,127.821 119.428,123.154 118.5,118.5 Z"/></g>
<g><path style="opacity:0.945" fill="#6db5f4" d="M 26.5,126.5 C 30.1667,126.5 33.8333,126.5 37.5,126.5C 37.5,127.5 37.5,128.5 37.5,129.5C 34.6146,129.194 31.9479,129.527 29.5,130.5C 26.7077,130.09 25.7077,128.756 26.5,126.5 Z"/></g>
</svg>
