<?xml version="1.0" encoding="UTF-8"?>
<!DOCTYPE svg PUBLIC "-//W3C//DTD SVG 1.1//EN" "http://www.w3.org/Graphics/SVG/1.1/DTD/svg11.dtd">
<svg xmlns="http://www.w3.org/2000/svg" version="1.1" width="146px" height="143px" style="shape-rendering:geometricPrecision; text-rendering:geometricPrecision; image-rendering:optimizeQuality; fill-rule:evenodd; clip-rule:evenodd" xmlns:xlink="http://www.w3.org/1999/xlink">
<g><path style="opacity:0.845" fill="#f9e37f" d="M 19.5,-0.5 C 19.8333,-0.5 20.1667,-0.5 20.5,-0.5C 21.3195,1.81233 22.1529,4.14566 23,6.5C 25.1414,2.56859 26.8081,2.90192 28,7.5C 28.9733,5.36001 30.4733,3.69334 32.5,2.5C 34.1112,3.32025 34.7778,4.65358 34.5,6.5C 34.4326,7.95875 34.7659,9.29208 35.5,10.5C 34.4376,11.5754 34.4376,12.5754 35.5,13.5C 38.9493,12.2527 42.2827,12.5861 45.5,14.5C 44.7827,16.8284 43.7827,18.9951 42.5,21C 43.7989,22.3264 45.1322,23.6598 46.5,25C 42.5652,27.0403 39.0652,29.5403 36,32.5C 35.6664,34.8473 35.833,37.1806 36.5,39.5C 34.8561,39.7135 33.3561,39.3802 32,38.5C 31.1667,39.5 30.3333,40.5 29.5,41.5C 28.5,40.8333 27.5,40.1667 26.5,39.5C 25.8933,39.6236 25.56,39.9569 25.5,40.5C 24.1667,41.8333 22.8333,41.8333 21.5,40.5C 19.955,37.2329 17.6217,36.5663 14.5,38.5C 14.6621,36.4727 14.4955,34.4727 14,32.5C 12.3333,31.1667 10.6667,31.1667 9,32.5C 7.33333,31.1667 5.66667,29.8333 4,28.5C 3.93259,26.2648 4.43259,24.0981 5.5,22C 3.88632,19.8733 1.88632,18.3733 -0.5,17.5C -0.5,16.8333 -0.5,16.1667 -0.5,15.5C 1.52635,13.4155 4.02635,12.0821 7,11.5C 6.95101,9.32501 6.45101,7.15835 5.5,5C 6.05933,2.81245 7.39267,2.14579 9.5,3C 12.2857,5.05955 15.2857,6.55955 18.5,7.5C 18.4013,4.76275 18.7347,2.09609 19.5,-0.5 Z"/></g>
<g><path style="opacity:0.901" fill="#3f4d66" d="M 72.5,41.5 C 69.5491,41.2872 66.8825,41.9539 64.5,43.5C 62.9731,43.573 61.9731,42.9063 61.5,41.5C 70.3971,22.0031 85.3971,9.5031 106.5,4C 114.033,1.77151 121.699,1.10484 129.5,2C 132.774,4.604 133.107,7.43733 130.5,10.5C 110.012,10.8305 92.5125,18.1638 78,32.5C 75.6535,35.1943 73.8202,38.1943 72.5,41.5 Z"/></g>
<g><path style="opacity:0.811" fill="#6ab4f4" d="M 35.5,10.5 C 34.7659,9.29208 34.4326,7.95875 34.5,6.5C 46.8378,6.66654 59.1712,6.49988 71.5,6C 67.8329,2.63667 68.8329,1.63667 74.5,3C 76.1667,4.66667 77.8333,6.33333 79.5,8C 77.4621,10.891 74.7954,12.7243 71.5,13.5C 67.9825,13.7146 67.6491,12.8813 70.5,11C 58.8381,10.5001 47.1714,10.3335 35.5,10.5 Z"/></g>
<g><path style="opacity:1" fill="#f4dc73" d="M 20.5,6.5 C 21.5585,7.60023 22.3918,8.93356 23,10.5C 24.3159,7.97203 25.4826,7.97203 26.5,10.5C 27.8139,9.68723 28.9805,8.68723 30,7.5C 31.3747,9.93681 31.8747,12.6035 31.5,15.5C 33.8333,15.5 36.1667,15.5 38.5,15.5C 38.822,17.7224 38.1554,19.5557 36.5,21C 40.7178,23.6036 40.3845,25.1036 35.5,25.5C 35.5,26.5 35.5,27.5 35.5,28.5C 33.8967,28.3118 32.5634,28.8118 31.5,30C 32.3802,31.3561 32.7135,32.8561 32.5,34.5C 30.0607,35.0525 27.7273,35.0525 25.5,34.5C 23.9272,36.8362 22.5939,36.8362 21.5,34.5C 19.9547,33.5481 18.288,33.2148 16.5,33.5C 16.5,31.8333 16.5,30.1667 16.5,28.5C 10.7492,29.1177 8.24915,26.451 9,20.5C 5.54486,17.3818 6.21153,15.3818 11,14.5C 10.6487,12.1141 10.8153,9.78079 11.5,7.5C 13.8333,8.83333 16.1667,10.1667 18.5,11.5C 19.3219,9.8614 19.9886,8.19474 20.5,6.5 Z"/></g>
<g><path style="opacity:1" fill="#3f4a5e" d="M 17.5,13.5 C 19.4358,14.259 21.2691,15.259 23,16.5C 24.6255,15.7113 26.1255,14.7113 27.5,13.5C 29.4753,14.2752 30.3087,15.6086 30,17.5C 28.8333,18.6667 27.6667,19.8333 26.5,21C 27.8333,22.3333 29.1667,23.6667 30.5,25C 29.3333,26.1667 28.1667,27.3333 27,28.5C 25.6667,27.1667 24.3333,25.8333 23,24.5C 21.6667,25.8333 20.3333,27.1667 19,28.5C 17.8333,27.3333 16.6667,26.1667 15.5,25C 16.8333,23.6667 18.1667,22.3333 19.5,21C 17.981,19.6487 16.6477,18.1487 15.5,16.5C 16.1925,15.4822 16.8592,14.4822 17.5,13.5 Z"/></g>
<g><path style="opacity:0.763" fill="#3f4d66" d="M 115.5,18.5 C 124.555,18.6244 127.722,22.9578 125,31.5C 119.559,35.9258 114.892,35.2591 111,29.5C 109.776,24.626 111.276,20.9593 115.5,18.5 Z M 117.5,22.5 C 123.564,24.5954 123.898,27.2621 118.5,30.5C 113.518,28.4355 113.184,25.7688 117.5,22.5 Z"/></g>
<g><path style="opacity:0.909" fill="#6ab4f5" d="M 99.5,24.5 C 98.5,24.5 97.5,24.5 96.5,24.5C 96.5,30.5 96.5,36.5 96.5,42.5C 95.1667,43.5 95.1667,44.5 96.5,45.5C 96.5,46.8333 96.5,48.1667 96.5,49.5C 97.5,49.5 98.5,49.5 99.5,49.5C 90.43,50.637 85.0967,46.4703 83.5,37C 85.0967,27.5297 90.43,23.363 99.5,24.5 Z"/></g>
<g><path style="opacity:1" fill="#60aaf3" d="M 99.5,24.5 C 106.116,25.9551 109.782,30.1218 110.5,37C 109.782,43.8782 106.116,48.0449 99.5,49.5C 98.5,49.5 97.5,49.5 96.5,49.5C 96.5,48.1667 96.5,46.8333 96.5,45.5C 100.962,45.0375 103.962,42.7041 105.5,38.5C 105.444,37.263 104.944,36.263 104,35.5C 102.908,39.4281 100.408,41.7614 96.5,42.5C 96.5,36.5 96.5,30.5 96.5,24.5C 97.5,24.5 98.5,24.5 99.5,24.5 Z"/></g>
<g><path style="opacity:1" fill="#475771" d="M 145.5,31.5 C 145.5,32.1667 145.5,32.8333 145.5,33.5C 137.086,46.0617 125.753,55.2283 111.5,61C 98.5655,66.2344 85.5655,67.0677 72.5,63.5C 68.8949,61.5281 65.8949,58.8615 63.5,55.5C 63.1667,54.8333 62.8333,54.1667 62.5,53.5C 62.31,49.9682 62.9767,46.6348 64.5,43.5C 66.8825,41.9539 69.5491,41.2872 72.5,41.5C 75.0991,41.5494 77.2658,42.5494 79,44.5C 81.1852,54.0113 87.0186,57.5113 96.5,55C 113.352,50.8107 127.019,41.8107 137.5,28C 141.293,26.7801 143.96,27.9468 145.5,31.5 Z"/></g>
<g><path style="opacity:1" fill="#f0f8fe" d="M 89.5,31.5 C 90.8333,31.5 92.1667,31.5 93.5,31.5C 93.8841,33.6648 93.2174,35.3315 91.5,36.5C 89.7826,35.3315 89.1159,33.6648 89.5,31.5 Z"/></g>
<g><path style="opacity:1" fill="#f1f8fe" d="M 96.5,45.5 C 95.1667,44.5 95.1667,43.5 96.5,42.5C 100.408,41.7614 102.908,39.4281 104,35.5C 104.944,36.263 105.444,37.263 105.5,38.5C 103.962,42.7041 100.962,45.0375 96.5,45.5 Z"/></g>
<g><path style="opacity:0.807" fill="#69b4f4" d="M 21.5,40.5 C 22.8333,41.8333 24.1667,41.8333 25.5,40.5C 25.3335,50.1724 25.5002,59.8391 26,69.5C 27.8813,66.6491 28.7146,66.9825 28.5,70.5C 27.7243,73.7954 25.891,76.4621 23,78.5C 20.109,76.4621 18.2757,73.7954 17.5,70.5C 17.6667,69.5 17.8333,68.5 18,67.5C 19,68.5 20,69.5 21,70.5C 21.4998,60.5056 21.6665,50.5056 21.5,40.5 Z"/></g>
<g><path style="opacity:0.896" fill="#e2e2e2" d="M 61.5,41.5 C 61.9731,42.9063 62.9731,43.573 64.5,43.5C 62.9767,46.6348 62.31,49.9682 62.5,53.5C 53.0398,49.8075 45.8731,52.4742 41,61.5C 36.4468,65.9034 33.2802,65.0701 31.5,59C 36.9775,45.7514 46.9775,39.918 61.5,41.5 Z"/></g>
<g><path style="opacity:0.786" fill="#3f4d66" d="M 6.5,43.5 C 12.3907,42.4296 15.724,44.7629 16.5,50.5C 16.5938,52.9116 15.5938,54.745 13.5,56C 7.70145,58.0231 4.03478,56.1897 2.5,50.5C 3.09374,47.692 4.42707,45.3587 6.5,43.5 Z M 8.5,47.5 C 12.1612,47.3501 13.1612,48.8501 11.5,52C 10.2068,52.49 8.87344,52.6567 7.5,52.5C 7.36596,50.7085 7.69929,49.0418 8.5,47.5 Z"/></g>
<g><path style="opacity:1" fill="#e2e3e2" d="M 70.5,49.5 C 72.337,49.6395 72.6704,50.3061 71.5,51.5C 70.7025,51.0431 70.3691,50.3764 70.5,49.5 Z"/></g>
<g><path style="opacity:0.983" fill="#dedede" d="M 63.5,55.5 C 65.8949,58.8615 68.8949,61.5281 72.5,63.5C 65.5034,76.5005 54.8368,81.1671 40.5,77.5C 37.2358,69.44 39.9025,66.7734 48.5,69.5C 57.249,68.6576 62.249,63.991 63.5,55.5 Z"/></g>
<g><path style="opacity:0.764" fill="#3f4d66" d="M 127.5,58.5 C 136.478,58.3098 140.311,62.6431 139,71.5C 135.068,77.7735 129.901,78.9402 123.5,75C 119.204,68.0653 120.538,62.5653 127.5,58.5 Z M 128.5,62.5 C 134.456,63.0866 136.289,66.0866 134,71.5C 129.757,73.9829 126.59,72.8162 124.5,68C 125.488,65.833 126.821,63.9997 128.5,62.5 Z"/></g>
<g><path style="opacity:0.773" fill="#3f4d66" d="M 6.5,61.5 C 14.2008,61.3622 17.3674,65.0289 16,72.5C 9.35309,78.5719 4.51976,77.4052 1.5,69C 1.84377,65.5107 3.51044,63.0107 6.5,61.5 Z M 8.5,65.5 C 13.289,67.1998 13.6224,69.5332 9.5,72.5C 4.80234,70.546 4.46901,68.2126 8.5,65.5 Z"/></g>
<g><path style="opacity:0.772" fill="#3f4d66" d="M 95.5,67.5 C 101.028,66.0693 104.362,68.0693 105.5,73.5C 104.349,79.0913 101.016,80.9246 95.5,79C 91.5548,75.1694 91.5548,71.3361 95.5,67.5 Z M 97.5,71.5 C 98.5,71.5 99.5,71.5 100.5,71.5C 100.5,72.8333 100.5,74.1667 100.5,75.5C 97.0464,75.7332 96.0464,74.3999 97.5,71.5 Z"/></g>
<g><path style="opacity:0.995" fill="#dfe0e0" d="M 41.5,106.5 C 39.1283,112.762 36.6283,119.096 34,125.5C 31.5059,127.901 29.1726,127.901 27,125.5C 26.8407,120.084 26.174,114.75 25,109.5C 23.9887,108.663 22.8221,108.33 21.5,108.5C 20.8116,114.134 20.3116,119.801 20,125.5C 17.146,128.016 14.4793,127.683 12,124.5C 9.93442,119.637 8.26776,114.637 7,109.5C 6.62325,108.058 5.78991,107.058 4.5,106.5C 2.60827,102.71 1.27493,98.7096 0.5,94.5C 3.52937,81.8174 11.196,77.8174 23.5,82.5C 35.8407,77.7045 43.174,81.7045 45.5,94.5C 45.3065,98.8854 43.9732,102.885 41.5,106.5 Z"/></g>
<g><path style="opacity:0.994" fill="#e0e0e1" d="M 89.5,106.5 C 88.8826,106.611 88.3826,106.944 88,107.5C 86.3333,112.833 84.6667,118.167 83,123.5C 81.1482,127.077 78.4815,128.077 75,126.5C 74.794,120.723 73.9607,115.056 72.5,109.5C 71.3493,108.269 70.1827,108.269 69,109.5C 67.9484,115.117 67.2818,120.784 67,126.5C 64.5008,127.798 62.1675,127.464 60,125.5C 57.6395,119.004 55.1395,112.671 52.5,106.5C 46.607,98.0469 47.2737,90.2136 54.5,83C 60.0223,79.5573 65.3556,79.724 70.5,83.5C 79.2576,78.4869 86.4243,80.1536 92,88.5C 94.2966,94.924 93.4633,100.924 89.5,106.5 Z"/></g>
<g><path style="opacity:0.996" fill="#e0e0e1" d="M 137.5,106.5 C 136.25,106.577 135.417,107.244 135,108.5C 133.641,113.938 131.974,119.272 130,124.5C 127.714,128.032 125.048,128.698 122,126.5C 121.627,120.811 121.127,115.145 120.5,109.5C 118.549,109.227 117.049,109.893 116,111.5C 115.667,116.167 115.333,120.833 115,125.5C 114.632,126.91 113.799,127.91 112.5,128.5C 110.247,127.747 108.413,126.414 107,124.5C 104.874,119.668 103.207,114.668 102,109.5C 101.623,108.058 100.79,107.058 99.5,106.5C 92.2631,93.2092 95.9298,84.5425 110.5,80.5C 113.292,80.8139 115.792,81.8139 118,83.5C 127.196,78.5643 134.53,80.5643 140,89.5C 141.109,95.4989 140.275,101.166 137.5,106.5 Z"/></g>
<g><path style="opacity:1" fill="#424e65" d="M 11.5,87.5 C 13.7157,88.2026 15.549,89.5359 17,91.5C 18.3333,90.1667 19.6667,88.8333 21,87.5C 22.1667,88.6667 23.3333,89.8333 24.5,91C 23.1667,92.3333 21.8333,93.6667 20.5,95C 22.019,96.3513 23.3523,97.8513 24.5,99.5C 21.9807,103.352 19.314,103.352 16.5,99.5C 15.1667,100.5 13.8333,101.5 12.5,102.5C 8.70987,100.338 8.70987,98.0046 12.5,95.5C 11.5,94.1667 10.5,92.8333 9.5,91.5C 10.6302,90.3777 11.2969,89.0443 11.5,87.5 Z"/></g>
<g><path style="opacity:0.969" fill="#6ab4f4" d="M 4.5,106.5 C 5.78991,107.058 6.62325,108.058 7,109.5C 8.26776,114.637 9.93442,119.637 12,124.5C 14.4793,127.683 17.146,128.016 20,125.5C 20.3116,119.801 20.8116,114.134 21.5,108.5C 22.8221,108.33 23.9887,108.663 25,109.5C 26.174,114.75 26.8407,120.084 27,125.5C 29.1726,127.901 31.5059,127.901 34,125.5C 36.6283,119.096 39.1283,112.762 41.5,106.5C 45.1667,106.5 48.8333,106.5 52.5,106.5C 55.1395,112.671 57.6395,119.004 60,125.5C 62.1675,127.464 64.5008,127.798 67,126.5C 67.2818,120.784 67.9484,115.117 69,109.5C 70.1827,108.269 71.3493,108.269 72.5,109.5C 73.9607,115.056 74.794,120.723 75,126.5C 78.4815,128.077 81.1482,127.077 83,123.5C 84.6667,118.167 86.3333,112.833 88,107.5C 88.3826,106.944 88.8826,106.611 89.5,106.5C 92.8333,106.5 96.1667,106.5 99.5,106.5C 100.79,107.058 101.623,108.058 102,109.5C 103.207,114.668 104.874,119.668 107,124.5C 108.413,126.414 110.247,127.747 112.5,128.5C 113.799,127.91 114.632,126.91 115,125.5C 115.333,120.833 115.667,116.167 116,111.5C 117.049,109.893 118.549,109.227 120.5,109.5C 121.127,115.145 121.627,120.811 122,126.5C 125.048,128.698 127.714,128.032 130,124.5C 131.974,119.272 133.641,113.938 135,108.5C 135.417,107.244 136.25,106.577 137.5,106.5C 139.504,107.673 141.004,109.34 142,111.5C 142.5,121.828 142.666,132.161 142.5,142.5C 95.1667,142.5 47.8333,142.5 0.5,142.5C 0.333507,132.161 0.500173,121.828 1,111.5C 1.99728,109.677 3.16394,108.01 4.5,106.5 Z"/></g>
</svg>
