<?xml version="1.0" encoding="UTF-8"?>
<!DOCTYPE svg PUBLIC "-//W3C//DTD SVG 1.1//EN" "http://www.w3.org/Graphics/SVG/1.1/DTD/svg11.dtd">
<svg xmlns="http://www.w3.org/2000/svg" version="1.1" width="144px" height="138px" style="shape-rendering:geometricPrecision; text-rendering:geometricPrecision; image-rendering:optimizeQuality; fill-rule:evenodd; clip-rule:evenodd" xmlns:xlink="http://www.w3.org/1999/xlink">
<g><path style="opacity:0.976" fill="#e2e2e2" d="M 20.5,-0.5 C 23.8333,-0.5 27.1667,-0.5 30.5,-0.5C 32.7937,1.653 35.4604,3.31966 38.5,4.5C 37.5138,22.7569 37.1804,41.0902 37.5,59.5C 29.5,59.5 21.5,59.5 13.5,59.5C 13.1667,59.5 12.8333,59.5 12.5,59.5C 12.5,59.1667 12.5,58.8333 12.5,58.5C 9.28295,46.5142 5.28295,34.8475 0.5,23.5C 1.78939,10.8876 8.45606,2.88761 20.5,-0.5 Z"/></g>
<g><path style="opacity:0.996" fill="#dedede" d="M 46.5,-0.5 C 49.8333,-0.5 53.1667,-0.5 56.5,-0.5C 68.53,2.87552 75.1967,10.8755 76.5,23.5C 71.9615,34.5907 67.9615,45.9241 64.5,57.5C 64.6716,58.4916 64.3382,59.1583 63.5,59.5C 54.8333,59.5 46.1667,59.5 37.5,59.5C 37.1804,41.0902 37.5138,22.7569 38.5,4.5C 41.5396,3.31966 44.2063,1.653 46.5,-0.5 Z"/></g>
<g><path style="opacity:0.991" fill="#dedfdf" d="M 143.5,34.5 C 143.5,36.1667 143.5,37.8333 143.5,39.5C 138.802,48.2557 135.468,57.589 133.5,67.5C 126.833,67.5 120.167,67.5 113.5,67.5C 113.334,62.1563 113.501,56.8229 114,51.5C 116.882,50.553 118.048,48.553 117.5,45.5C 116.911,40.1903 113.911,38.3569 108.5,40C 104.424,44.1446 104.757,47.978 109.5,51.5C 110.815,56.9864 110.815,62.3197 109.5,67.5C 103.167,67.5 96.8333,67.5 90.5,67.5C 87.5818,57.1715 84.2484,47.0048 80.5,37C 82.0127,24.6549 89.0127,17.8215 101.5,16.5C 105.192,17.7628 108.692,19.4295 112,21.5C 120.744,15.1211 129.244,15.6211 137.5,23C 140.202,26.5748 142.202,30.4081 143.5,34.5 Z"/></g>
<g><path style="opacity:1" fill="#4c586f" d="M 92.5,27.5 C 101.968,27.2851 104.301,31.1185 99.5,39C 89.4151,39.7604 87.0818,35.9271 92.5,27.5 Z"/></g>
<g><path style="opacity:1" fill="#d8d8da" d="M 94.5,30.5 C 98.35,30.7007 99.35,32.5341 97.5,36C 92.7217,36.0734 91.7217,34.2401 94.5,30.5 Z"/></g>
<g><path style="opacity:0.912" fill="#424f68" d="M 113.5,67.5 C 113.335,70.5184 113.502,73.5184 114,76.5C 117.363,72.8329 118.363,73.8329 117,79.5C 115.333,81.1667 113.667,82.8333 112,84.5C 109.109,82.4621 107.276,79.7954 106.5,76.5C 106.285,72.9825 107.119,72.6491 109,75.5C 109.497,72.854 109.664,70.1873 109.5,67.5C 110.815,62.3197 110.815,56.9864 109.5,51.5C 104.757,47.978 104.424,44.1446 108.5,40C 113.911,38.3569 116.911,40.1903 117.5,45.5C 118.048,48.553 116.882,50.553 114,51.5C 113.501,56.8229 113.334,62.1563 113.5,67.5 Z"/></g>
<g><path style="opacity:1" fill="#d6d7d9" d="M 110.5,42.5 C 114.35,42.7007 115.35,44.5341 113.5,48C 108.722,48.0734 107.722,46.2401 110.5,42.5 Z"/></g>
<g><path style="opacity:0.963" fill="#68b3f4" d="M -0.5,54.5 C 4.68276,53.5347 9.01609,54.868 12.5,58.5C 12.5,58.8333 12.5,59.1667 12.5,59.5C 12.5,60.1667 12.8333,60.5 13.5,60.5C 15.2286,64.8451 17.0619,69.1784 19,73.5C 20.7581,75.7655 22.9248,77.4322 25.5,78.5C 26.968,79.7791 27.6347,81.4458 27.5,83.5C 27.5,84.8333 27.5,86.1667 27.5,87.5C 27.5,90.5 27.5,93.5 27.5,96.5C 27.5,97.5 27.5,98.5 27.5,99.5C 27.5,102.5 27.5,105.5 27.5,108.5C 27.5,109.5 27.5,110.5 27.5,111.5C 26.3867,121.511 30.0534,129.178 38.5,134.5C 38.5,135.5 38.5,136.5 38.5,137.5C 25.5,137.5 12.5,137.5 -0.5,137.5C -0.5,109.833 -0.5,82.1667 -0.5,54.5 Z"/></g>
<g><path style="opacity:1" fill="#699bd0" d="M 76.5,137.5 C 63.8333,137.5 51.1667,137.5 38.5,137.5C 38.5,136.5 38.5,135.5 38.5,134.5C 40.8333,132.833 42.8333,130.833 44.5,128.5C 45.1667,128.5 45.8333,128.5 46.5,128.5C 47.6572,125.727 48.3239,122.727 48.5,119.5C 49.4345,118.432 49.7678,117.099 49.5,115.5C 49.5,112.5 49.5,109.5 49.5,106.5C 49.5,105.5 49.5,104.5 49.5,103.5C 49.1981,95.0817 49.5314,86.7483 50.5,78.5C 53.6433,77.8665 56.1433,76.1998 58,73.5C 60.4435,69.0459 62.2769,64.3792 63.5,59.5C 64.3382,59.1583 64.6716,58.4916 64.5,57.5C 67.9275,54.7688 71.9275,53.7688 76.5,54.5C 76.5,82.1667 76.5,109.833 76.5,137.5 Z"/></g>
<g><path style="opacity:1" fill="#3f4d66" d="M 13.5,59.5 C 21.5,59.5 29.5,59.5 37.5,59.5C 37.5,65.8333 37.5,72.1667 37.5,78.5C 33.5,78.5 29.5,78.5 25.5,78.5C 22.9248,77.4322 20.7581,75.7655 19,73.5C 17.0619,69.1784 15.2286,64.8451 13.5,60.5C 13.5,60.1667 13.5,59.8333 13.5,59.5 Z"/></g>
<g><path style="opacity:1" fill="#36425a" d="M 37.5,59.5 C 46.1667,59.5 54.8333,59.5 63.5,59.5C 62.2769,64.3792 60.4435,69.0459 58,73.5C 56.1433,76.1998 53.6433,77.8665 50.5,78.5C 46.1667,78.5 41.8333,78.5 37.5,78.5C 37.5,72.1667 37.5,65.8333 37.5,59.5 Z"/></g>
<g><path style="opacity:0.59" fill="#3f4d66" d="M 94.5,70.5 C 95.8333,70.5 97.1667,70.5 98.5,70.5C 98.7778,72.3464 98.1112,73.6798 96.5,74.5C 94.8888,73.6798 94.2222,72.3464 94.5,70.5 Z"/></g>
<g><path style="opacity:0.617" fill="#3f4d66" d="M 124.5,70.5 C 129.536,71.505 129.536,72.8384 124.5,74.5C 124.5,73.1667 124.5,71.8333 124.5,70.5 Z"/></g>
<g><path style="opacity:1" fill="#485a75" d="M 25.5,78.5 C 29.5,78.5 33.5,78.5 37.5,78.5C 41.8333,78.5 46.1667,78.5 50.5,78.5C 49.5314,86.7483 49.1981,95.0817 49.5,103.5C 42.4458,96.442 35.1125,89.7753 27.5,83.5C 27.6347,81.4458 26.968,79.7791 25.5,78.5 Z"/></g>
<g><path style="opacity:0.573" fill="#3f4d66" d="M 95.5,79.5 C 97.9118,79.6941 98.9118,81.0274 98.5,83.5C 97.1667,83.5 95.8333,83.5 94.5,83.5C 94.4326,82.0413 94.7659,80.7079 95.5,79.5 Z"/></g>
<g><path style="opacity:0.636" fill="#3f4d66" d="M 124.5,79.5 C 129.757,80.9704 129.757,82.3037 124.5,83.5C 124.5,82.1667 124.5,80.8333 124.5,79.5 Z"/></g>
<g><path style="opacity:1" fill="#3f4d66" d="M 27.5,83.5 C 35.1125,89.7753 42.4458,96.442 49.5,103.5C 49.5,104.5 49.5,105.5 49.5,106.5C 48.448,106.649 47.448,106.483 46.5,106C 40.2981,99.6306 33.9648,93.4639 27.5,87.5C 27.5,86.1667 27.5,84.8333 27.5,83.5 Z"/></g>
<g><path style="opacity:0.962" fill="#68b3f4" d="M 111.5,87.5 C 111.172,98.0135 111.506,108.347 112.5,118.5C 112.217,119.289 111.717,119.956 111,120.5C 109.89,118.963 108.39,118.297 106.5,118.5C 102.854,118.516 99.1873,118.849 95.5,119.5C 93.6208,118.659 91.6208,118.325 89.5,118.5C 90.4596,108.116 91.7929,97.7832 93.5,87.5C 96.3646,87.9452 98.8646,87.2785 101,85.5C 103.333,88.1667 105.667,88.1667 108,85.5C 108.816,86.8228 109.983,87.4894 111.5,87.5 Z"/></g>
<g><path style="opacity:1" fill="#5baeef" d="M 127.5,119.5 C 123.753,118.656 120.086,118.323 116.5,118.5C 115.167,118.5 113.833,118.5 112.5,118.5C 111.506,108.347 111.172,98.0135 111.5,87.5C 113.017,87.4894 114.184,86.8228 115,85.5C 117.667,88.1667 120.333,88.1667 123,85.5C 124.789,87.229 126.956,87.8957 129.5,87.5C 131.02,97.8079 132.353,108.141 133.5,118.5C 131.265,118.205 129.265,118.539 127.5,119.5 Z"/></g>
<g><path style="opacity:1" fill="#495b76" d="M 27.5,87.5 C 33.9648,93.4639 40.2981,99.6306 46.5,106C 47.448,106.483 48.448,106.649 49.5,106.5C 49.5,109.5 49.5,112.5 49.5,115.5C 43.0352,109.536 36.7019,103.369 30.5,97C 29.552,96.5172 28.552,96.3505 27.5,96.5C 27.5,93.5 27.5,90.5 27.5,87.5 Z"/></g>
<g><path style="opacity:1" fill="#3f4d66" d="M 27.5,96.5 C 28.552,96.3505 29.552,96.5172 30.5,97C 36.7019,103.369 43.0352,109.536 49.5,115.5C 49.7678,117.099 49.4345,118.432 48.5,119.5C 41.5,112.833 34.5,106.167 27.5,99.5C 27.5,98.5 27.5,97.5 27.5,96.5 Z"/></g>
<g><path style="opacity:1" fill="#485a75" d="M 27.5,99.5 C 34.5,106.167 41.5,112.833 48.5,119.5C 48.3239,122.727 47.6572,125.727 46.5,128.5C 46.6567,127.127 46.49,125.793 46,124.5C 40.8333,119.333 35.6667,114.167 30.5,109C 29.552,108.517 28.552,108.351 27.5,108.5C 27.5,105.5 27.5,102.5 27.5,99.5 Z"/></g>
<g><path style="opacity:1" fill="#3f4d66" d="M 27.5,108.5 C 28.552,108.351 29.552,108.517 30.5,109C 35.6667,114.167 40.8333,119.333 46,124.5C 46.49,125.793 46.6567,127.127 46.5,128.5C 45.8333,128.5 45.1667,128.5 44.5,128.5C 39.1667,122.5 33.5,116.833 27.5,111.5C 27.5,110.5 27.5,109.5 27.5,108.5 Z"/></g>
<g><path style="opacity:1" fill="#495c78" d="M 27.5,111.5 C 33.5,116.833 39.1667,122.5 44.5,128.5C 42.8333,130.833 40.8333,132.833 38.5,134.5C 30.0534,129.178 26.3867,121.511 27.5,111.5 Z"/></g>
<g><path style="opacity:0.899" fill="#3f4d66" d="M 106.5,118.5 C 105.283,125.148 103.283,131.482 100.5,137.5C 98.8333,137.5 97.1667,137.5 95.5,137.5C 94.1032,136.181 93.4365,134.514 93.5,132.5C 94.2769,128.173 94.9435,123.84 95.5,119.5C 99.1873,118.849 102.854,118.516 106.5,118.5 Z"/></g>
<g><path style="opacity:0.899" fill="#3f4d66" d="M 116.5,118.5 C 120.086,118.323 123.753,118.656 127.5,119.5C 127.84,123.876 128.507,128.209 129.5,132.5C 129.098,134.3 128.431,135.967 127.5,137.5C 125.833,137.5 124.167,137.5 122.5,137.5C 119.429,131.562 117.429,125.229 116.5,118.5 Z"/></g>
</svg>
