<?xml version="1.0" encoding="UTF-8"?>
<!DOCTYPE svg PUBLIC "-//W3C//DTD SVG 1.1//EN" "http://www.w3.org/Graphics/SVG/1.1/DTD/svg11.dtd">
<svg xmlns="http://www.w3.org/2000/svg" version="1.1" width="139px" height="142px" style="shape-rendering:geometricPrecision; text-rendering:geometricPrecision; image-rendering:optimizeQuality; fill-rule:evenodd; clip-rule:evenodd" xmlns:xlink="http://www.w3.org/1999/xlink">
<g><path style="opacity:0.995" fill="#dddddc" d="M 47.5,-0.5 C 48.8333,-0.5 50.1667,-0.5 51.5,-0.5C 57.8719,1.27028 63.7053,4.27028 69,8.5C 74.2947,4.27028 80.1281,1.27028 86.5,-0.5C 87.8333,-0.5 89.1667,-0.5 90.5,-0.5C 121.005,4.16638 134.838,21.833 132,52.5C 130.637,56.7754 128.803,60.7754 126.5,64.5C 125.094,64.9731 124.427,65.9731 124.5,67.5C 122.441,70.6106 120.608,73.9439 119,77.5C 115.414,88.7628 112.081,100.096 109,111.5C 107.426,115.646 105.593,119.646 103.5,123.5C 98.0886,131.871 90.422,135.371 80.5,134C 76.1333,131.445 73.6333,127.612 73,122.5C 72.6667,113.5 72.3333,104.5 72,95.5C 71.1265,91.4648 70.1265,87.4648 69,83.5C 68.5357,84.0944 68.369,84.7611 68.5,85.5C 67.3794,87.9542 66.546,90.6209 66,93.5C 64.9406,103.805 64.274,114.139 64,124.5C 61.5848,132.959 56.0848,136.126 47.5,134C 42.4469,131.775 38.1135,128.608 34.5,124.5C 32.407,120.646 30.5737,116.646 29,112.5C 25.6667,101.167 22.3333,89.8333 19,78.5C 17.435,74.5978 15.6017,70.9312 13.5,67.5C 13.573,65.9731 12.9063,64.9731 11.5,64.5C -0.92932,40.6011 4.07068,21.1011 26.5,6C 33.2921,2.7258 40.2921,0.559134 47.5,-0.5 Z"/></g>
<g><path style="opacity:1" fill="#f8e380" d="M 68.5,17.5 C 68.5,36.8333 68.5,56.1667 68.5,75.5C 63.4609,75.0315 60.6276,77.3649 60,82.5C 57.0314,95.6479 55.6981,108.981 56,122.5C 55.05,125.892 52.8833,127.059 49.5,126C 42.2704,121.927 37.937,115.76 36.5,107.5C 40.5546,107.824 44.5546,107.491 48.5,106.5C 48.2907,105.914 47.9574,105.414 47.5,105C 43.5138,104.501 39.5138,104.334 35.5,104.5C 34.2655,101.67 33.2655,98.6702 32.5,95.5C 35.8499,95.665 39.1832,95.4983 42.5,95C 43.7736,94.0228 43.7736,93.1894 42.5,92.5C 38.9792,91.8337 35.3125,91.1671 31.5,90.5C 30.5178,87.9044 29.8511,85.2377 29.5,82.5C 33.0479,82.9051 36.3812,82.4051 39.5,81C 35.7032,79.5761 31.7032,79.0761 27.5,79.5C 26.5625,75.6872 25.2291,72.0205 23.5,68.5C 29.1667,68.5 34.8333,68.5 40.5,68.5C 40.5,67.5 40.5,66.5 40.5,65.5C 34.5,65.5 28.5,65.5 22.5,65.5C 19.9284,61.3608 17.5951,57.0274 15.5,52.5C 21.352,52.9494 27.0187,52.4494 32.5,51C 26.6828,49.5474 20.6828,49.0474 14.5,49.5C 14.4249,46.7938 14.0916,44.1272 13.5,41.5C 20.1998,41.83 26.8665,41.4967 33.5,40.5C 33.2907,39.914 32.9574,39.414 32.5,39C 26.5092,38.5005 20.5092,38.3338 14.5,38.5C 14.2938,35.5049 14.9605,32.8383 16.5,30.5C 19.8333,30.5 23.1667,30.5 26.5,30.5C 26.5,29.5 26.5,28.5 26.5,27.5C 23.8333,27.5 21.1667,27.5 18.5,27.5C 22.6963,19.7065 29.0296,14.2065 37.5,11C 42.7753,9.64147 48.1087,9.30813 53.5,10C 58.2854,13.0594 63.2854,15.5594 68.5,17.5 Z"/></g>
<g><path style="opacity:1" fill="#f8de73" d="M 68.5,75.5 C 68.5,56.1667 68.5,36.8333 68.5,17.5C 74.193,15.8208 79.5264,13.3208 84.5,10C 103.186,8.92818 116.019,17.0948 123,34.5C 123.764,40.0401 123.597,45.5401 122.5,51C 112.91,68.4323 106.077,86.9323 102,106.5C 100.274,116.384 94.774,123.05 85.5,126.5C 83.9707,126.471 82.804,125.804 82,124.5C 82.4843,109.564 80.8177,94.8975 77,80.5C 75.6416,76.4019 72.8082,74.7353 68.5,75.5 Z"/></g>
<g><path style="opacity:1" fill="#515a67" d="M 93.5,16.5 C 98.7243,17.6283 103.558,19.6283 108,22.5C 108.601,23.9653 108.101,24.9653 106.5,25.5C 102.639,22.6002 98.3052,20.7669 93.5,20C 92.3157,18.8545 92.3157,17.6879 93.5,16.5 Z"/></g>
<g><path style="opacity:1" fill="#fefefb" d="M 39.5,21.5 C 48.6102,21.1445 50.9435,24.9779 46.5,33C 38.8406,35.0033 35.6739,32.17 37,24.5C 37.6979,23.3094 38.5313,22.3094 39.5,21.5 Z"/></g>
<g><path style="opacity:1" fill="#435067" d="M 18.5,27.5 C 21.1667,27.5 23.8333,27.5 26.5,27.5C 26.5,28.5 26.5,29.5 26.5,30.5C 23.1667,30.5 19.8333,30.5 16.5,30.5C 15.3264,28.6322 15.9931,27.6322 18.5,27.5 Z"/></g>
<g><path style="opacity:1" fill="#545c67" d="M 111.5,28.5 C 115.207,29.724 117.373,32.3907 118,36.5C 119.159,41.2751 118.326,45.6084 115.5,49.5C 114.5,49.1667 113.833,48.5 113.5,47.5C 114.6,43.5575 114.767,39.5575 114,35.5C 112.589,33.3496 111.755,31.0163 111.5,28.5 Z"/></g>
<g><path style="opacity:1" fill="#3f4d66" d="M 14.5,38.5 C 20.5092,38.3338 26.5092,38.5005 32.5,39C 32.9574,39.414 33.2907,39.914 33.5,40.5C 26.8665,41.4967 20.1998,41.83 13.5,41.5C 12.1854,40.1054 12.5188,39.1054 14.5,38.5 Z"/></g>
<g><path style="opacity:1" fill="#404e66" d="M 14.5,49.5 C 20.6828,49.0474 26.6828,49.5474 32.5,51C 27.0187,52.4494 21.352,52.9494 15.5,52.5C 13.5188,51.8946 13.1854,50.8946 14.5,49.5 Z"/></g>
<g><path style="opacity:0.959" fill="#6ab4f4" d="M -0.5,64.5 C 3.5,64.5 7.5,64.5 11.5,64.5C 12.9063,64.9731 13.573,65.9731 13.5,67.5C 10.909,68.2543 9.07568,69.921 8,72.5C 6.62221,78.4383 7.78887,83.7717 11.5,88.5C 7.51266,98.3614 10.5127,105.195 20.5,109C 19.2505,119.259 23.9172,124.426 34.5,124.5C 38.1135,128.608 42.4469,131.775 47.5,134C 56.0848,136.126 61.5848,132.959 64,124.5C 64.274,114.139 64.9406,103.805 66,93.5C 66.546,90.6209 67.3794,87.9542 68.5,85.5C 68.5,104.167 68.5,122.833 68.5,141.5C 45.5,141.5 22.5,141.5 -0.5,141.5C -0.5,115.833 -0.5,90.1667 -0.5,64.5 Z"/></g>
<g><path style="opacity:1" fill="#424f67" d="M 22.5,65.5 C 28.5,65.5 34.5,65.5 40.5,65.5C 40.5,66.5 40.5,67.5 40.5,68.5C 34.8333,68.5 29.1667,68.5 23.5,68.5C 21.5188,67.8946 21.1854,66.8946 22.5,65.5 Z"/></g>
<g><path style="opacity:1" fill="#6a9cd1" d="M 126.5,64.5 C 130.5,64.5 134.5,64.5 138.5,64.5C 138.5,90.1667 138.5,115.833 138.5,141.5C 115.167,141.5 91.8333,141.5 68.5,141.5C 68.5,122.833 68.5,104.167 68.5,85.5C 68.369,84.7611 68.5357,84.0944 69,83.5C 70.1265,87.4648 71.1265,91.4648 72,95.5C 72.3333,104.5 72.6667,113.5 73,122.5C 73.6333,127.612 76.1333,131.445 80.5,134C 90.422,135.371 98.0886,131.871 103.5,123.5C 108.097,124.336 111.93,122.669 115,118.5C 115.879,115.182 116.713,111.848 117.5,108.5C 126.539,104.287 128.872,97.6206 124.5,88.5C 131.138,81.3796 131.138,74.3796 124.5,67.5C 124.427,65.9731 125.094,64.9731 126.5,64.5 Z"/></g>
<g><path style="opacity:0.999" fill="#5fa9f2" d="M 13.5,67.5 C 15.6017,70.9312 17.435,74.5978 19,78.5C 22.3333,89.8333 25.6667,101.167 29,112.5C 30.5737,116.646 32.407,120.646 34.5,124.5C 23.9172,124.426 19.2505,119.259 20.5,109C 10.5127,105.195 7.51266,98.3614 11.5,88.5C 7.78887,83.7717 6.62221,78.4383 8,72.5C 9.07568,69.921 10.909,68.2543 13.5,67.5 Z"/></g>
<g><path style="opacity:1" fill="#6093ce" d="M 124.5,67.5 C 131.138,74.3796 131.138,81.3796 124.5,88.5C 128.872,97.6206 126.539,104.287 117.5,108.5C 116.713,111.848 115.879,115.182 115,118.5C 111.93,122.669 108.097,124.336 103.5,123.5C 105.593,119.646 107.426,115.646 109,111.5C 112.081,100.096 115.414,88.7628 119,77.5C 120.608,73.9439 122.441,70.6106 124.5,67.5 Z"/></g>
<g><path style="opacity:1" fill="#424f68" d="M 27.5,79.5 C 31.7032,79.0761 35.7032,79.5761 39.5,81C 36.3812,82.4051 33.0479,82.9051 29.5,82.5C 27.9519,82.1788 27.2852,81.1788 27.5,79.5 Z"/></g>
<g><path style="opacity:1" fill="#4e596a" d="M 42.5,92.5 C 43.7736,93.1894 43.7736,94.0228 42.5,95C 39.1832,95.4983 35.8499,95.665 32.5,95.5C 31.5222,95.189 30.8555,94.5223 30.5,93.5C 34.4454,92.5091 38.4454,92.1758 42.5,92.5 Z"/></g>
<g><path style="opacity:1" fill="#435067" d="M 35.5,104.5 C 39.5138,104.334 43.5138,104.501 47.5,105C 47.9574,105.414 48.2907,105.914 48.5,106.5C 44.5546,107.491 40.5546,107.824 36.5,107.5C 34.5188,106.895 34.1854,105.895 35.5,104.5 Z"/></g>
</svg>
